%TF.GenerationSoftware,KiCad,Pcbnew,8.0.1-8.0.1-1~ubuntu22.04.1*%
%TF.CreationDate,2024-05-06T17:14:44+02:00*%
%TF.ProjectId,SecondaryBoard,5365636f-6e64-4617-9279-426f6172642e,rev?*%
%TF.SameCoordinates,Original*%
%TF.FileFunction,Legend,Top*%
%TF.FilePolarity,Positive*%
%FSLAX46Y46*%
G04 Gerber Fmt 4.6, Leading zero omitted, Abs format (unit mm)*
G04 Created by KiCad (PCBNEW 8.0.1-8.0.1-1~ubuntu22.04.1) date 2024-05-06 17:14:44*
%MOMM*%
%LPD*%
G01*
G04 APERTURE LIST*
%ADD10C,0.150000*%
%ADD11C,0.127000*%
%ADD12C,0.120000*%
%ADD13C,0.203200*%
G04 APERTURE END LIST*
D10*
X215181805Y-41294819D02*
X215181805Y-40294819D01*
X215181805Y-40294819D02*
X215419900Y-40294819D01*
X215419900Y-40294819D02*
X215562757Y-40342438D01*
X215562757Y-40342438D02*
X215657995Y-40437676D01*
X215657995Y-40437676D02*
X215705614Y-40532914D01*
X215705614Y-40532914D02*
X215753233Y-40723390D01*
X215753233Y-40723390D02*
X215753233Y-40866247D01*
X215753233Y-40866247D02*
X215705614Y-41056723D01*
X215705614Y-41056723D02*
X215657995Y-41151961D01*
X215657995Y-41151961D02*
X215562757Y-41247200D01*
X215562757Y-41247200D02*
X215419900Y-41294819D01*
X215419900Y-41294819D02*
X215181805Y-41294819D01*
X216610376Y-40628152D02*
X216610376Y-41294819D01*
X216372281Y-40247200D02*
X216134186Y-40961485D01*
X216134186Y-40961485D02*
X216753233Y-40961485D01*
D11*
X188546380Y-54764456D02*
X188575408Y-54677371D01*
X188575408Y-54677371D02*
X188575408Y-54532228D01*
X188575408Y-54532228D02*
X188546380Y-54474171D01*
X188546380Y-54474171D02*
X188517351Y-54445142D01*
X188517351Y-54445142D02*
X188459294Y-54416113D01*
X188459294Y-54416113D02*
X188401237Y-54416113D01*
X188401237Y-54416113D02*
X188343180Y-54445142D01*
X188343180Y-54445142D02*
X188314151Y-54474171D01*
X188314151Y-54474171D02*
X188285122Y-54532228D01*
X188285122Y-54532228D02*
X188256094Y-54648342D01*
X188256094Y-54648342D02*
X188227065Y-54706399D01*
X188227065Y-54706399D02*
X188198037Y-54735428D01*
X188198037Y-54735428D02*
X188139980Y-54764456D01*
X188139980Y-54764456D02*
X188081922Y-54764456D01*
X188081922Y-54764456D02*
X188023865Y-54735428D01*
X188023865Y-54735428D02*
X187994837Y-54706399D01*
X187994837Y-54706399D02*
X187965808Y-54648342D01*
X187965808Y-54648342D02*
X187965808Y-54503199D01*
X187965808Y-54503199D02*
X187994837Y-54416113D01*
X188575408Y-53835542D02*
X188575408Y-54183885D01*
X188575408Y-54009714D02*
X187965808Y-54009714D01*
X187965808Y-54009714D02*
X188052894Y-54067771D01*
X188052894Y-54067771D02*
X188110951Y-54125828D01*
X188110951Y-54125828D02*
X188139980Y-54183885D01*
D10*
X143438095Y-63654819D02*
X143438095Y-62654819D01*
X143438095Y-63131009D02*
X144009523Y-63131009D01*
X144009523Y-63654819D02*
X144009523Y-62654819D01*
X144438095Y-62750057D02*
X144485714Y-62702438D01*
X144485714Y-62702438D02*
X144580952Y-62654819D01*
X144580952Y-62654819D02*
X144819047Y-62654819D01*
X144819047Y-62654819D02*
X144914285Y-62702438D01*
X144914285Y-62702438D02*
X144961904Y-62750057D01*
X144961904Y-62750057D02*
X145009523Y-62845295D01*
X145009523Y-62845295D02*
X145009523Y-62940533D01*
X145009523Y-62940533D02*
X144961904Y-63083390D01*
X144961904Y-63083390D02*
X144390476Y-63654819D01*
X144390476Y-63654819D02*
X145009523Y-63654819D01*
D11*
X164446380Y-53664456D02*
X164475408Y-53577371D01*
X164475408Y-53577371D02*
X164475408Y-53432228D01*
X164475408Y-53432228D02*
X164446380Y-53374171D01*
X164446380Y-53374171D02*
X164417351Y-53345142D01*
X164417351Y-53345142D02*
X164359294Y-53316113D01*
X164359294Y-53316113D02*
X164301237Y-53316113D01*
X164301237Y-53316113D02*
X164243180Y-53345142D01*
X164243180Y-53345142D02*
X164214151Y-53374171D01*
X164214151Y-53374171D02*
X164185122Y-53432228D01*
X164185122Y-53432228D02*
X164156094Y-53548342D01*
X164156094Y-53548342D02*
X164127065Y-53606399D01*
X164127065Y-53606399D02*
X164098037Y-53635428D01*
X164098037Y-53635428D02*
X164039980Y-53664456D01*
X164039980Y-53664456D02*
X163981922Y-53664456D01*
X163981922Y-53664456D02*
X163923865Y-53635428D01*
X163923865Y-53635428D02*
X163894837Y-53606399D01*
X163894837Y-53606399D02*
X163865808Y-53548342D01*
X163865808Y-53548342D02*
X163865808Y-53403199D01*
X163865808Y-53403199D02*
X163894837Y-53316113D01*
X163923865Y-53083885D02*
X163894837Y-53054857D01*
X163894837Y-53054857D02*
X163865808Y-52996800D01*
X163865808Y-52996800D02*
X163865808Y-52851657D01*
X163865808Y-52851657D02*
X163894837Y-52793600D01*
X163894837Y-52793600D02*
X163923865Y-52764571D01*
X163923865Y-52764571D02*
X163981922Y-52735542D01*
X163981922Y-52735542D02*
X164039980Y-52735542D01*
X164039980Y-52735542D02*
X164127065Y-52764571D01*
X164127065Y-52764571D02*
X164475408Y-53112914D01*
X164475408Y-53112914D02*
X164475408Y-52735542D01*
X177814094Y-51458686D02*
X177814094Y-51255486D01*
X178133408Y-51168400D02*
X178133408Y-51458686D01*
X178133408Y-51458686D02*
X177523808Y-51458686D01*
X177523808Y-51458686D02*
X177523808Y-51168400D01*
X178133408Y-50907143D02*
X177523808Y-50907143D01*
X177523808Y-50907143D02*
X178133408Y-50558800D01*
X178133408Y-50558800D02*
X177523808Y-50558800D01*
X178075351Y-49920171D02*
X178104380Y-49949199D01*
X178104380Y-49949199D02*
X178133408Y-50036285D01*
X178133408Y-50036285D02*
X178133408Y-50094342D01*
X178133408Y-50094342D02*
X178104380Y-50181428D01*
X178104380Y-50181428D02*
X178046322Y-50239485D01*
X178046322Y-50239485D02*
X177988265Y-50268514D01*
X177988265Y-50268514D02*
X177872151Y-50297542D01*
X177872151Y-50297542D02*
X177785065Y-50297542D01*
X177785065Y-50297542D02*
X177668951Y-50268514D01*
X177668951Y-50268514D02*
X177610894Y-50239485D01*
X177610894Y-50239485D02*
X177552837Y-50181428D01*
X177552837Y-50181428D02*
X177523808Y-50094342D01*
X177523808Y-50094342D02*
X177523808Y-50036285D01*
X177523808Y-50036285D02*
X177552837Y-49949199D01*
X177552837Y-49949199D02*
X177581865Y-49920171D01*
X177523808Y-49542799D02*
X177523808Y-49426685D01*
X177523808Y-49426685D02*
X177552837Y-49368628D01*
X177552837Y-49368628D02*
X177610894Y-49310571D01*
X177610894Y-49310571D02*
X177727008Y-49281542D01*
X177727008Y-49281542D02*
X177930208Y-49281542D01*
X177930208Y-49281542D02*
X178046322Y-49310571D01*
X178046322Y-49310571D02*
X178104380Y-49368628D01*
X178104380Y-49368628D02*
X178133408Y-49426685D01*
X178133408Y-49426685D02*
X178133408Y-49542799D01*
X178133408Y-49542799D02*
X178104380Y-49600857D01*
X178104380Y-49600857D02*
X178046322Y-49658914D01*
X178046322Y-49658914D02*
X177930208Y-49687942D01*
X177930208Y-49687942D02*
X177727008Y-49687942D01*
X177727008Y-49687942D02*
X177610894Y-49658914D01*
X177610894Y-49658914D02*
X177552837Y-49600857D01*
X177552837Y-49600857D02*
X177523808Y-49542799D01*
X178133408Y-49020285D02*
X177523808Y-49020285D01*
X177523808Y-49020285D02*
X177523808Y-48875142D01*
X177523808Y-48875142D02*
X177552837Y-48788056D01*
X177552837Y-48788056D02*
X177610894Y-48729999D01*
X177610894Y-48729999D02*
X177668951Y-48700970D01*
X177668951Y-48700970D02*
X177785065Y-48671942D01*
X177785065Y-48671942D02*
X177872151Y-48671942D01*
X177872151Y-48671942D02*
X177988265Y-48700970D01*
X177988265Y-48700970D02*
X178046322Y-48729999D01*
X178046322Y-48729999D02*
X178104380Y-48788056D01*
X178104380Y-48788056D02*
X178133408Y-48875142D01*
X178133408Y-48875142D02*
X178133408Y-49020285D01*
X177814094Y-48410685D02*
X177814094Y-48207485D01*
X178133408Y-48120399D02*
X178133408Y-48410685D01*
X178133408Y-48410685D02*
X177523808Y-48410685D01*
X177523808Y-48410685D02*
X177523808Y-48120399D01*
X178133408Y-47510799D02*
X177843122Y-47713999D01*
X178133408Y-47859142D02*
X177523808Y-47859142D01*
X177523808Y-47859142D02*
X177523808Y-47626913D01*
X177523808Y-47626913D02*
X177552837Y-47568856D01*
X177552837Y-47568856D02*
X177581865Y-47539827D01*
X177581865Y-47539827D02*
X177639922Y-47510799D01*
X177639922Y-47510799D02*
X177727008Y-47510799D01*
X177727008Y-47510799D02*
X177785065Y-47539827D01*
X177785065Y-47539827D02*
X177814094Y-47568856D01*
X177814094Y-47568856D02*
X177843122Y-47626913D01*
X177843122Y-47626913D02*
X177843122Y-47859142D01*
X177901180Y-47249542D02*
X177901180Y-46785085D01*
X178133408Y-46146456D02*
X177843122Y-46349656D01*
X178133408Y-46494799D02*
X177523808Y-46494799D01*
X177523808Y-46494799D02*
X177523808Y-46262570D01*
X177523808Y-46262570D02*
X177552837Y-46204513D01*
X177552837Y-46204513D02*
X177581865Y-46175484D01*
X177581865Y-46175484D02*
X177639922Y-46146456D01*
X177639922Y-46146456D02*
X177727008Y-46146456D01*
X177727008Y-46146456D02*
X177785065Y-46175484D01*
X177785065Y-46175484D02*
X177814094Y-46204513D01*
X177814094Y-46204513D02*
X177843122Y-46262570D01*
X177843122Y-46262570D02*
X177843122Y-46494799D01*
X177552837Y-45565884D02*
X177523808Y-45623942D01*
X177523808Y-45623942D02*
X177523808Y-45711027D01*
X177523808Y-45711027D02*
X177552837Y-45798113D01*
X177552837Y-45798113D02*
X177610894Y-45856170D01*
X177610894Y-45856170D02*
X177668951Y-45885199D01*
X177668951Y-45885199D02*
X177785065Y-45914227D01*
X177785065Y-45914227D02*
X177872151Y-45914227D01*
X177872151Y-45914227D02*
X177988265Y-45885199D01*
X177988265Y-45885199D02*
X178046322Y-45856170D01*
X178046322Y-45856170D02*
X178104380Y-45798113D01*
X178104380Y-45798113D02*
X178133408Y-45711027D01*
X178133408Y-45711027D02*
X178133408Y-45652970D01*
X178133408Y-45652970D02*
X178104380Y-45565884D01*
X178104380Y-45565884D02*
X178075351Y-45536856D01*
X178075351Y-45536856D02*
X177872151Y-45536856D01*
X177872151Y-45536856D02*
X177872151Y-45652970D01*
X177814094Y-45072399D02*
X177843122Y-44985313D01*
X177843122Y-44985313D02*
X177872151Y-44956284D01*
X177872151Y-44956284D02*
X177930208Y-44927256D01*
X177930208Y-44927256D02*
X178017294Y-44927256D01*
X178017294Y-44927256D02*
X178075351Y-44956284D01*
X178075351Y-44956284D02*
X178104380Y-44985313D01*
X178104380Y-44985313D02*
X178133408Y-45043370D01*
X178133408Y-45043370D02*
X178133408Y-45275599D01*
X178133408Y-45275599D02*
X177523808Y-45275599D01*
X177523808Y-45275599D02*
X177523808Y-45072399D01*
X177523808Y-45072399D02*
X177552837Y-45014342D01*
X177552837Y-45014342D02*
X177581865Y-44985313D01*
X177581865Y-44985313D02*
X177639922Y-44956284D01*
X177639922Y-44956284D02*
X177697980Y-44956284D01*
X177697980Y-44956284D02*
X177756037Y-44985313D01*
X177756037Y-44985313D02*
X177785065Y-45014342D01*
X177785065Y-45014342D02*
X177814094Y-45072399D01*
X177814094Y-45072399D02*
X177814094Y-45275599D01*
X177901180Y-44665999D02*
X177901180Y-44201542D01*
X178104380Y-43940284D02*
X178133408Y-43853199D01*
X178133408Y-43853199D02*
X178133408Y-43708056D01*
X178133408Y-43708056D02*
X178104380Y-43649999D01*
X178104380Y-43649999D02*
X178075351Y-43620970D01*
X178075351Y-43620970D02*
X178017294Y-43591941D01*
X178017294Y-43591941D02*
X177959237Y-43591941D01*
X177959237Y-43591941D02*
X177901180Y-43620970D01*
X177901180Y-43620970D02*
X177872151Y-43649999D01*
X177872151Y-43649999D02*
X177843122Y-43708056D01*
X177843122Y-43708056D02*
X177814094Y-43824170D01*
X177814094Y-43824170D02*
X177785065Y-43882227D01*
X177785065Y-43882227D02*
X177756037Y-43911256D01*
X177756037Y-43911256D02*
X177697980Y-43940284D01*
X177697980Y-43940284D02*
X177639922Y-43940284D01*
X177639922Y-43940284D02*
X177581865Y-43911256D01*
X177581865Y-43911256D02*
X177552837Y-43882227D01*
X177552837Y-43882227D02*
X177523808Y-43824170D01*
X177523808Y-43824170D02*
X177523808Y-43679027D01*
X177523808Y-43679027D02*
X177552837Y-43591941D01*
X177523808Y-43388742D02*
X178133408Y-43243599D01*
X178133408Y-43243599D02*
X177697980Y-43127485D01*
X177697980Y-43127485D02*
X178133408Y-43011370D01*
X178133408Y-43011370D02*
X177523808Y-42866228D01*
X178133408Y-42633999D02*
X177523808Y-42633999D01*
X177523808Y-42430798D02*
X177523808Y-42082456D01*
X178133408Y-42256627D02*
X177523808Y-42256627D01*
X178075351Y-41530913D02*
X178104380Y-41559941D01*
X178104380Y-41559941D02*
X178133408Y-41647027D01*
X178133408Y-41647027D02*
X178133408Y-41705084D01*
X178133408Y-41705084D02*
X178104380Y-41792170D01*
X178104380Y-41792170D02*
X178046322Y-41850227D01*
X178046322Y-41850227D02*
X177988265Y-41879256D01*
X177988265Y-41879256D02*
X177872151Y-41908284D01*
X177872151Y-41908284D02*
X177785065Y-41908284D01*
X177785065Y-41908284D02*
X177668951Y-41879256D01*
X177668951Y-41879256D02*
X177610894Y-41850227D01*
X177610894Y-41850227D02*
X177552837Y-41792170D01*
X177552837Y-41792170D02*
X177523808Y-41705084D01*
X177523808Y-41705084D02*
X177523808Y-41647027D01*
X177523808Y-41647027D02*
X177552837Y-41559941D01*
X177552837Y-41559941D02*
X177581865Y-41530913D01*
X178133408Y-41269656D02*
X177523808Y-41269656D01*
X177814094Y-41269656D02*
X177814094Y-40921313D01*
X178133408Y-40921313D02*
X177523808Y-40921313D01*
D10*
X218661905Y-64654819D02*
X218661905Y-63654819D01*
X218661905Y-63654819D02*
X218900000Y-63654819D01*
X218900000Y-63654819D02*
X219042857Y-63702438D01*
X219042857Y-63702438D02*
X219138095Y-63797676D01*
X219138095Y-63797676D02*
X219185714Y-63892914D01*
X219185714Y-63892914D02*
X219233333Y-64083390D01*
X219233333Y-64083390D02*
X219233333Y-64226247D01*
X219233333Y-64226247D02*
X219185714Y-64416723D01*
X219185714Y-64416723D02*
X219138095Y-64511961D01*
X219138095Y-64511961D02*
X219042857Y-64607200D01*
X219042857Y-64607200D02*
X218900000Y-64654819D01*
X218900000Y-64654819D02*
X218661905Y-64654819D01*
X220185714Y-64654819D02*
X219614286Y-64654819D01*
X219900000Y-64654819D02*
X219900000Y-63654819D01*
X219900000Y-63654819D02*
X219804762Y-63797676D01*
X219804762Y-63797676D02*
X219709524Y-63892914D01*
X219709524Y-63892914D02*
X219614286Y-63940533D01*
X219461905Y-56554819D02*
X219461905Y-55554819D01*
X219461905Y-55554819D02*
X219700000Y-55554819D01*
X219700000Y-55554819D02*
X219842857Y-55602438D01*
X219842857Y-55602438D02*
X219938095Y-55697676D01*
X219938095Y-55697676D02*
X219985714Y-55792914D01*
X219985714Y-55792914D02*
X220033333Y-55983390D01*
X220033333Y-55983390D02*
X220033333Y-56126247D01*
X220033333Y-56126247D02*
X219985714Y-56316723D01*
X219985714Y-56316723D02*
X219938095Y-56411961D01*
X219938095Y-56411961D02*
X219842857Y-56507200D01*
X219842857Y-56507200D02*
X219700000Y-56554819D01*
X219700000Y-56554819D02*
X219461905Y-56554819D01*
X220414286Y-55650057D02*
X220461905Y-55602438D01*
X220461905Y-55602438D02*
X220557143Y-55554819D01*
X220557143Y-55554819D02*
X220795238Y-55554819D01*
X220795238Y-55554819D02*
X220890476Y-55602438D01*
X220890476Y-55602438D02*
X220938095Y-55650057D01*
X220938095Y-55650057D02*
X220985714Y-55745295D01*
X220985714Y-55745295D02*
X220985714Y-55840533D01*
X220985714Y-55840533D02*
X220938095Y-55983390D01*
X220938095Y-55983390D02*
X220366667Y-56554819D01*
X220366667Y-56554819D02*
X220985714Y-56554819D01*
X183233333Y-45054819D02*
X182900000Y-44578628D01*
X182661905Y-45054819D02*
X182661905Y-44054819D01*
X182661905Y-44054819D02*
X183042857Y-44054819D01*
X183042857Y-44054819D02*
X183138095Y-44102438D01*
X183138095Y-44102438D02*
X183185714Y-44150057D01*
X183185714Y-44150057D02*
X183233333Y-44245295D01*
X183233333Y-44245295D02*
X183233333Y-44388152D01*
X183233333Y-44388152D02*
X183185714Y-44483390D01*
X183185714Y-44483390D02*
X183138095Y-44531009D01*
X183138095Y-44531009D02*
X183042857Y-44578628D01*
X183042857Y-44578628D02*
X182661905Y-44578628D01*
X183709524Y-45054819D02*
X183900000Y-45054819D01*
X183900000Y-45054819D02*
X183995238Y-45007200D01*
X183995238Y-45007200D02*
X184042857Y-44959580D01*
X184042857Y-44959580D02*
X184138095Y-44816723D01*
X184138095Y-44816723D02*
X184185714Y-44626247D01*
X184185714Y-44626247D02*
X184185714Y-44245295D01*
X184185714Y-44245295D02*
X184138095Y-44150057D01*
X184138095Y-44150057D02*
X184090476Y-44102438D01*
X184090476Y-44102438D02*
X183995238Y-44054819D01*
X183995238Y-44054819D02*
X183804762Y-44054819D01*
X183804762Y-44054819D02*
X183709524Y-44102438D01*
X183709524Y-44102438D02*
X183661905Y-44150057D01*
X183661905Y-44150057D02*
X183614286Y-44245295D01*
X183614286Y-44245295D02*
X183614286Y-44483390D01*
X183614286Y-44483390D02*
X183661905Y-44578628D01*
X183661905Y-44578628D02*
X183709524Y-44626247D01*
X183709524Y-44626247D02*
X183804762Y-44673866D01*
X183804762Y-44673866D02*
X183995238Y-44673866D01*
X183995238Y-44673866D02*
X184090476Y-44626247D01*
X184090476Y-44626247D02*
X184138095Y-44578628D01*
X184138095Y-44578628D02*
X184185714Y-44483390D01*
X219361905Y-48294819D02*
X219361905Y-47294819D01*
X219361905Y-47294819D02*
X219600000Y-47294819D01*
X219600000Y-47294819D02*
X219742857Y-47342438D01*
X219742857Y-47342438D02*
X219838095Y-47437676D01*
X219838095Y-47437676D02*
X219885714Y-47532914D01*
X219885714Y-47532914D02*
X219933333Y-47723390D01*
X219933333Y-47723390D02*
X219933333Y-47866247D01*
X219933333Y-47866247D02*
X219885714Y-48056723D01*
X219885714Y-48056723D02*
X219838095Y-48151961D01*
X219838095Y-48151961D02*
X219742857Y-48247200D01*
X219742857Y-48247200D02*
X219600000Y-48294819D01*
X219600000Y-48294819D02*
X219361905Y-48294819D01*
X220266667Y-47294819D02*
X220885714Y-47294819D01*
X220885714Y-47294819D02*
X220552381Y-47675771D01*
X220552381Y-47675771D02*
X220695238Y-47675771D01*
X220695238Y-47675771D02*
X220790476Y-47723390D01*
X220790476Y-47723390D02*
X220838095Y-47771009D01*
X220838095Y-47771009D02*
X220885714Y-47866247D01*
X220885714Y-47866247D02*
X220885714Y-48104342D01*
X220885714Y-48104342D02*
X220838095Y-48199580D01*
X220838095Y-48199580D02*
X220790476Y-48247200D01*
X220790476Y-48247200D02*
X220695238Y-48294819D01*
X220695238Y-48294819D02*
X220409524Y-48294819D01*
X220409524Y-48294819D02*
X220314286Y-48247200D01*
X220314286Y-48247200D02*
X220266667Y-48199580D01*
X157494819Y-51995238D02*
X157018628Y-52328571D01*
X157494819Y-52566666D02*
X156494819Y-52566666D01*
X156494819Y-52566666D02*
X156494819Y-52185714D01*
X156494819Y-52185714D02*
X156542438Y-52090476D01*
X156542438Y-52090476D02*
X156590057Y-52042857D01*
X156590057Y-52042857D02*
X156685295Y-51995238D01*
X156685295Y-51995238D02*
X156828152Y-51995238D01*
X156828152Y-51995238D02*
X156923390Y-52042857D01*
X156923390Y-52042857D02*
X156971009Y-52090476D01*
X156971009Y-52090476D02*
X157018628Y-52185714D01*
X157018628Y-52185714D02*
X157018628Y-52566666D01*
X156494819Y-51709523D02*
X157494819Y-51376190D01*
X157494819Y-51376190D02*
X156494819Y-51042857D01*
X157494819Y-50185714D02*
X157494819Y-50757142D01*
X157494819Y-50471428D02*
X156494819Y-50471428D01*
X156494819Y-50471428D02*
X156637676Y-50566666D01*
X156637676Y-50566666D02*
X156732914Y-50661904D01*
X156732914Y-50661904D02*
X156780533Y-50757142D01*
X199438095Y-63654819D02*
X199438095Y-62654819D01*
X199438095Y-63131009D02*
X200009523Y-63131009D01*
X200009523Y-63654819D02*
X200009523Y-62654819D01*
X200390476Y-62654819D02*
X201009523Y-62654819D01*
X201009523Y-62654819D02*
X200676190Y-63035771D01*
X200676190Y-63035771D02*
X200819047Y-63035771D01*
X200819047Y-63035771D02*
X200914285Y-63083390D01*
X200914285Y-63083390D02*
X200961904Y-63131009D01*
X200961904Y-63131009D02*
X201009523Y-63226247D01*
X201009523Y-63226247D02*
X201009523Y-63464342D01*
X201009523Y-63464342D02*
X200961904Y-63559580D01*
X200961904Y-63559580D02*
X200914285Y-63607200D01*
X200914285Y-63607200D02*
X200819047Y-63654819D01*
X200819047Y-63654819D02*
X200533333Y-63654819D01*
X200533333Y-63654819D02*
X200438095Y-63607200D01*
X200438095Y-63607200D02*
X200390476Y-63559580D01*
X161957142Y-46624819D02*
X161623809Y-46148628D01*
X161385714Y-46624819D02*
X161385714Y-45624819D01*
X161385714Y-45624819D02*
X161766666Y-45624819D01*
X161766666Y-45624819D02*
X161861904Y-45672438D01*
X161861904Y-45672438D02*
X161909523Y-45720057D01*
X161909523Y-45720057D02*
X161957142Y-45815295D01*
X161957142Y-45815295D02*
X161957142Y-45958152D01*
X161957142Y-45958152D02*
X161909523Y-46053390D01*
X161909523Y-46053390D02*
X161861904Y-46101009D01*
X161861904Y-46101009D02*
X161766666Y-46148628D01*
X161766666Y-46148628D02*
X161385714Y-46148628D01*
X162909523Y-46624819D02*
X162338095Y-46624819D01*
X162623809Y-46624819D02*
X162623809Y-45624819D01*
X162623809Y-45624819D02*
X162528571Y-45767676D01*
X162528571Y-45767676D02*
X162433333Y-45862914D01*
X162433333Y-45862914D02*
X162338095Y-45910533D01*
X163861904Y-46624819D02*
X163290476Y-46624819D01*
X163576190Y-46624819D02*
X163576190Y-45624819D01*
X163576190Y-45624819D02*
X163480952Y-45767676D01*
X163480952Y-45767676D02*
X163385714Y-45862914D01*
X163385714Y-45862914D02*
X163290476Y-45910533D01*
X178738095Y-54854819D02*
X178738095Y-53854819D01*
X178738095Y-54331009D02*
X179309523Y-54331009D01*
X179309523Y-54854819D02*
X179309523Y-53854819D01*
X180309523Y-54854819D02*
X179738095Y-54854819D01*
X180023809Y-54854819D02*
X180023809Y-53854819D01*
X180023809Y-53854819D02*
X179928571Y-53997676D01*
X179928571Y-53997676D02*
X179833333Y-54092914D01*
X179833333Y-54092914D02*
X179738095Y-54140533D01*
X181957142Y-47154819D02*
X181623809Y-46678628D01*
X181385714Y-47154819D02*
X181385714Y-46154819D01*
X181385714Y-46154819D02*
X181766666Y-46154819D01*
X181766666Y-46154819D02*
X181861904Y-46202438D01*
X181861904Y-46202438D02*
X181909523Y-46250057D01*
X181909523Y-46250057D02*
X181957142Y-46345295D01*
X181957142Y-46345295D02*
X181957142Y-46488152D01*
X181957142Y-46488152D02*
X181909523Y-46583390D01*
X181909523Y-46583390D02*
X181861904Y-46631009D01*
X181861904Y-46631009D02*
X181766666Y-46678628D01*
X181766666Y-46678628D02*
X181385714Y-46678628D01*
X182909523Y-47154819D02*
X182338095Y-47154819D01*
X182623809Y-47154819D02*
X182623809Y-46154819D01*
X182623809Y-46154819D02*
X182528571Y-46297676D01*
X182528571Y-46297676D02*
X182433333Y-46392914D01*
X182433333Y-46392914D02*
X182338095Y-46440533D01*
X183528571Y-46154819D02*
X183623809Y-46154819D01*
X183623809Y-46154819D02*
X183719047Y-46202438D01*
X183719047Y-46202438D02*
X183766666Y-46250057D01*
X183766666Y-46250057D02*
X183814285Y-46345295D01*
X183814285Y-46345295D02*
X183861904Y-46535771D01*
X183861904Y-46535771D02*
X183861904Y-46773866D01*
X183861904Y-46773866D02*
X183814285Y-46964342D01*
X183814285Y-46964342D02*
X183766666Y-47059580D01*
X183766666Y-47059580D02*
X183719047Y-47107200D01*
X183719047Y-47107200D02*
X183623809Y-47154819D01*
X183623809Y-47154819D02*
X183528571Y-47154819D01*
X183528571Y-47154819D02*
X183433333Y-47107200D01*
X183433333Y-47107200D02*
X183385714Y-47059580D01*
X183385714Y-47059580D02*
X183338095Y-46964342D01*
X183338095Y-46964342D02*
X183290476Y-46773866D01*
X183290476Y-46773866D02*
X183290476Y-46535771D01*
X183290476Y-46535771D02*
X183338095Y-46345295D01*
X183338095Y-46345295D02*
X183385714Y-46250057D01*
X183385714Y-46250057D02*
X183433333Y-46202438D01*
X183433333Y-46202438D02*
X183528571Y-46154819D01*
X161057142Y-43624819D02*
X160723809Y-43148628D01*
X160485714Y-43624819D02*
X160485714Y-42624819D01*
X160485714Y-42624819D02*
X160866666Y-42624819D01*
X160866666Y-42624819D02*
X160961904Y-42672438D01*
X160961904Y-42672438D02*
X161009523Y-42720057D01*
X161009523Y-42720057D02*
X161057142Y-42815295D01*
X161057142Y-42815295D02*
X161057142Y-42958152D01*
X161057142Y-42958152D02*
X161009523Y-43053390D01*
X161009523Y-43053390D02*
X160961904Y-43101009D01*
X160961904Y-43101009D02*
X160866666Y-43148628D01*
X160866666Y-43148628D02*
X160485714Y-43148628D01*
X162009523Y-43624819D02*
X161438095Y-43624819D01*
X161723809Y-43624819D02*
X161723809Y-42624819D01*
X161723809Y-42624819D02*
X161628571Y-42767676D01*
X161628571Y-42767676D02*
X161533333Y-42862914D01*
X161533333Y-42862914D02*
X161438095Y-42910533D01*
X162390476Y-42720057D02*
X162438095Y-42672438D01*
X162438095Y-42672438D02*
X162533333Y-42624819D01*
X162533333Y-42624819D02*
X162771428Y-42624819D01*
X162771428Y-42624819D02*
X162866666Y-42672438D01*
X162866666Y-42672438D02*
X162914285Y-42720057D01*
X162914285Y-42720057D02*
X162961904Y-42815295D01*
X162961904Y-42815295D02*
X162961904Y-42910533D01*
X162961904Y-42910533D02*
X162914285Y-43053390D01*
X162914285Y-43053390D02*
X162342857Y-43624819D01*
X162342857Y-43624819D02*
X162961904Y-43624819D01*
D12*
%TO.C,D4*%
X213359900Y-43255000D02*
X213359900Y-46345000D01*
X213359901Y-43255170D02*
G75*
G02*
X218909899Y-44800462I2559999J-1544830D01*
G01*
X218909900Y-44799538D02*
G75*
G02*
X213359900Y-46344830I-2990000J-462D01*
G01*
X218419900Y-44800000D02*
G75*
G02*
X213419900Y-44800000I-2500000J0D01*
G01*
X213419900Y-44800000D02*
G75*
G02*
X218419900Y-44800000I2500000J0D01*
G01*
D13*
%TO.C,S1*%
X188802400Y-48300740D02*
X188802400Y-44107200D01*
X188802400Y-51699260D02*
X188802400Y-55892800D01*
X189607580Y-43302020D02*
X191101100Y-43302020D01*
X189607580Y-56697980D02*
X191601480Y-56697980D01*
X200392420Y-43302020D02*
X198898900Y-43302020D01*
X200392420Y-56697980D02*
X198398520Y-56697980D01*
X201197600Y-48300740D02*
X201197600Y-44107200D01*
X201197600Y-51699260D02*
X201197600Y-55892800D01*
X188802400Y-44107200D02*
G75*
G02*
X189607580Y-43302020I805181J-1D01*
G01*
X189607580Y-56697980D02*
G75*
G02*
X188802400Y-55892800I1J805181D01*
G01*
X200392420Y-43302020D02*
G75*
G02*
X201197580Y-44107200I-20J-805180D01*
G01*
X201197600Y-55892800D02*
G75*
G02*
X200392420Y-56697980I-805170J-10D01*
G01*
X197999740Y-50000000D02*
G75*
G02*
X192000260Y-50000000I-2999740J0D01*
G01*
X192000260Y-50000000D02*
G75*
G02*
X197999740Y-50000000I2999740J0D01*
G01*
%TO.C,S2*%
X164802400Y-48300740D02*
X164802400Y-44107200D01*
X164802400Y-51699260D02*
X164802400Y-55892800D01*
X165607580Y-43302020D02*
X167101100Y-43302020D01*
X165607580Y-56697980D02*
X167601480Y-56697980D01*
X176392420Y-43302020D02*
X174898900Y-43302020D01*
X176392420Y-56697980D02*
X174398520Y-56697980D01*
X177197600Y-48300740D02*
X177197600Y-44107200D01*
X177197600Y-51699260D02*
X177197600Y-55892800D01*
X164802400Y-44107200D02*
G75*
G02*
X165607580Y-43302020I805181J-1D01*
G01*
X165607580Y-56697980D02*
G75*
G02*
X164802400Y-55892800I1J805181D01*
G01*
X176392420Y-43302020D02*
G75*
G02*
X177197580Y-44107200I-20J-805180D01*
G01*
X177197600Y-55892800D02*
G75*
G02*
X176392420Y-56697980I-805170J-10D01*
G01*
X173999740Y-50000000D02*
G75*
G02*
X168000260Y-50000000I-2999740J0D01*
G01*
X168000260Y-50000000D02*
G75*
G02*
X173999740Y-50000000I2999740J0D01*
G01*
D12*
%TO.C,D1*%
X214359900Y-64564000D02*
X214359900Y-64720000D01*
X214359900Y-66880000D02*
X214359900Y-67036000D01*
X214359901Y-64564485D02*
G75*
G02*
X217592234Y-64721392I1559999J-1235515D01*
G01*
X214878940Y-64720001D02*
G75*
G02*
X216961029Y-64720164I1040960J-1079999D01*
G01*
X216961029Y-66879836D02*
G75*
G02*
X214878940Y-66879999I-1041129J1079836D01*
G01*
X217592234Y-66878608D02*
G75*
G02*
X214359901Y-67035515I-1672334J1078608D01*
G01*
%TO.C,D2*%
X213359900Y-57255000D02*
X213359900Y-60345000D01*
X213359901Y-57255170D02*
G75*
G02*
X218909899Y-58800462I2559999J-1544830D01*
G01*
X218909900Y-58799538D02*
G75*
G02*
X213359900Y-60344830I-2990000J-462D01*
G01*
X218419900Y-58800000D02*
G75*
G02*
X213419900Y-58800000I-2500000J0D01*
G01*
X213419900Y-58800000D02*
G75*
G02*
X218419900Y-58800000I2500000J0D01*
G01*
%TO.C,R9*%
X186354724Y-44177500D02*
X185845276Y-44177500D01*
X186354724Y-45222500D02*
X185845276Y-45222500D01*
%TO.C,D3*%
X213359900Y-50255000D02*
X213359900Y-53345000D01*
X213359901Y-50255170D02*
G75*
G02*
X218909899Y-51800462I2559999J-1544830D01*
G01*
X218909900Y-51799538D02*
G75*
G02*
X213359900Y-53344830I-2990000J-462D01*
G01*
X218419900Y-51800000D02*
G75*
G02*
X213419900Y-51800000I-2500000J0D01*
G01*
X213419900Y-51800000D02*
G75*
G02*
X218419900Y-51800000I2500000J0D01*
G01*
%TO.C,RV1*%
X145030000Y-44780000D02*
X145030000Y-49500000D01*
X145030000Y-44780000D02*
X146520000Y-44780000D01*
X145030000Y-53310000D02*
X145030000Y-56370000D01*
X145030000Y-56370000D02*
X154770000Y-56370000D01*
X148240000Y-44780000D02*
X149070000Y-44780000D01*
X150690000Y-44780000D02*
X151220000Y-44780000D01*
X153590000Y-44780000D02*
X154770000Y-44780000D01*
X154770000Y-53310000D02*
X154770000Y-56370000D01*
X154780000Y-44780000D02*
X154780000Y-49500000D01*
%TO.C,R11*%
X162345276Y-47077500D02*
X162854724Y-47077500D01*
X162345276Y-48122500D02*
X162854724Y-48122500D01*
%TO.C,R10*%
X186254724Y-46277500D02*
X185745276Y-46277500D01*
X186254724Y-47322500D02*
X185745276Y-47322500D01*
%TO.C,R12*%
X161445276Y-44077500D02*
X161954724Y-44077500D01*
X161445276Y-45122500D02*
X161954724Y-45122500D01*
%TD*%
M02*
