%TF.GenerationSoftware,KiCad,Pcbnew,8.0.1-8.0.1-1~ubuntu22.04.1*%
%TF.CreationDate,2024-05-06T17:14:43+02:00*%
%TF.ProjectId,SecondaryBoard,5365636f-6e64-4617-9279-426f6172642e,rev?*%
%TF.SameCoordinates,Original*%
%TF.FileFunction,Copper,L2,Bot*%
%TF.FilePolarity,Positive*%
%FSLAX46Y46*%
G04 Gerber Fmt 4.6, Leading zero omitted, Abs format (unit mm)*
G04 Created by KiCad (PCBNEW 8.0.1-8.0.1-1~ubuntu22.04.1) date 2024-05-06 17:14:43*
%MOMM*%
%LPD*%
G01*
G04 APERTURE LIST*
G04 Aperture macros list*
%AMRoundRect*
0 Rectangle with rounded corners*
0 $1 Rounding radius*
0 $2 $3 $4 $5 $6 $7 $8 $9 X,Y pos of 4 corners*
0 Add a 4 corners polygon primitive as box body*
4,1,4,$2,$3,$4,$5,$6,$7,$8,$9,$2,$3,0*
0 Add four circle primitives for the rounded corners*
1,1,$1+$1,$2,$3*
1,1,$1+$1,$4,$5*
1,1,$1+$1,$6,$7*
1,1,$1+$1,$8,$9*
0 Add four rect primitives between the rounded corners*
20,1,$1+$1,$2,$3,$4,$5,0*
20,1,$1+$1,$4,$5,$6,$7,0*
20,1,$1+$1,$6,$7,$8,$9,0*
20,1,$1+$1,$8,$9,$2,$3,0*%
G04 Aperture macros list end*
%TA.AperFunction,ComponentPad*%
%ADD10R,1.800000X1.800000*%
%TD*%
%TA.AperFunction,ComponentPad*%
%ADD11C,1.800000*%
%TD*%
%TA.AperFunction,ComponentPad*%
%ADD12C,1.778000*%
%TD*%
%TA.AperFunction,ComponentPad*%
%ADD13C,1.798320*%
%TD*%
%TA.AperFunction,ComponentPad*%
%ADD14C,3.114040*%
%TD*%
%TA.AperFunction,ComponentPad*%
%ADD15C,5.600000*%
%TD*%
%TA.AperFunction,ComponentPad*%
%ADD16O,2.720000X3.240000*%
%TD*%
%TA.AperFunction,SMDPad,CuDef*%
%ADD17RoundRect,0.237500X0.300000X0.237500X-0.300000X0.237500X-0.300000X-0.237500X0.300000X-0.237500X0*%
%TD*%
%TA.AperFunction,SMDPad,CuDef*%
%ADD18RoundRect,0.237500X0.237500X-0.250000X0.237500X0.250000X-0.237500X0.250000X-0.237500X-0.250000X0*%
%TD*%
%TA.AperFunction,SMDPad,CuDef*%
%ADD19RoundRect,0.237500X-0.250000X-0.237500X0.250000X-0.237500X0.250000X0.237500X-0.250000X0.237500X0*%
%TD*%
%TA.AperFunction,SMDPad,CuDef*%
%ADD20RoundRect,0.237500X0.250000X0.237500X-0.250000X0.237500X-0.250000X-0.237500X0.250000X-0.237500X0*%
%TD*%
%TA.AperFunction,SMDPad,CuDef*%
%ADD21RoundRect,0.237500X-0.237500X0.250000X-0.237500X-0.250000X0.237500X-0.250000X0.237500X0.250000X0*%
%TD*%
%TA.AperFunction,SMDPad,CuDef*%
%ADD22RoundRect,0.237500X-0.300000X-0.237500X0.300000X-0.237500X0.300000X0.237500X-0.300000X0.237500X0*%
%TD*%
%TA.AperFunction,ComponentPad*%
%ADD23RoundRect,0.250000X0.600000X0.725000X-0.600000X0.725000X-0.600000X-0.725000X0.600000X-0.725000X0*%
%TD*%
%TA.AperFunction,ComponentPad*%
%ADD24O,1.700000X1.950000*%
%TD*%
%TA.AperFunction,ComponentPad*%
%ADD25RoundRect,0.250000X-0.725000X0.600000X-0.725000X-0.600000X0.725000X-0.600000X0.725000X0.600000X0*%
%TD*%
%TA.AperFunction,ComponentPad*%
%ADD26O,1.950000X1.700000*%
%TD*%
%TA.AperFunction,ViaPad*%
%ADD27C,0.800000*%
%TD*%
%TA.AperFunction,ViaPad*%
%ADD28C,0.600000*%
%TD*%
%TA.AperFunction,Conductor*%
%ADD29C,0.250000*%
%TD*%
%TA.AperFunction,Conductor*%
%ADD30C,0.200000*%
%TD*%
G04 APERTURE END LIST*
D10*
%TO.P,D4,1,K*%
%TO.N,band3*%
X214649900Y-44800000D03*
D11*
%TO.P,D4,2,A*%
%TO.N,Net-(D4-A)*%
X217189900Y-44800000D03*
%TD*%
D12*
%TO.P,S1,1*%
%TO.N,Net-(R9-Pad1)*%
X191002040Y-43002300D03*
%TO.P,S1,2*%
%TO.N,Net-(R10-Pad1)*%
X193001020Y-43002300D03*
%TO.P,S1,3*%
%TO.N,EQ_BAND_BTN*%
X195000000Y-43002300D03*
%TO.P,S1,4*%
%TO.N,unconnected-(S1-Pad4)*%
X196998980Y-43002300D03*
%TO.P,S1,5*%
%TO.N,+3.3V*%
X198997960Y-43002300D03*
D13*
%TO.P,S1,A*%
%TO.N,Net-(R1-Pad2)*%
X192500640Y-57498080D03*
%TO.P,S1,B*%
%TO.N,Net-(R4-Pad2)*%
X197499360Y-57498080D03*
%TO.P,S1,C*%
%TO.N,GND*%
X195000000Y-57498080D03*
D14*
%TO.P,S1,M1*%
%TO.N,N/C*%
X189450100Y-50000000D03*
%TO.P,S1,M2*%
X200549900Y-50000000D03*
%TD*%
D15*
%TO.P,H2,1,1*%
%TO.N,GND*%
X144200000Y-67000000D03*
%TD*%
D12*
%TO.P,S2,1*%
%TO.N,Net-(R12-Pad2)*%
X167002040Y-43002300D03*
%TO.P,S2,2*%
%TO.N,unconnected-(S2-Pad2)*%
X169001020Y-43002300D03*
%TO.P,S2,3*%
%TO.N,unconnected-(S2-Pad3)*%
X171000000Y-43002300D03*
%TO.P,S2,4*%
%TO.N,Net-(R11-Pad2)*%
X172998980Y-43002300D03*
%TO.P,S2,5*%
%TO.N,+3.3V*%
X174997960Y-43002300D03*
D13*
%TO.P,S2,A*%
%TO.N,Net-(R3-Pad2)*%
X168500640Y-57498080D03*
%TO.P,S2,B*%
%TO.N,Net-(R7-Pad2)*%
X173499360Y-57498080D03*
%TO.P,S2,C*%
%TO.N,GND*%
X171000000Y-57498080D03*
D14*
%TO.P,S2,M1*%
%TO.N,N/C*%
X165450100Y-50000000D03*
%TO.P,S2,M2*%
X176549900Y-50000000D03*
%TD*%
D10*
%TO.P,D1,1,K*%
%TO.N,band0*%
X214649900Y-65800000D03*
D11*
%TO.P,D1,2,A*%
%TO.N,Net-(D1-A)*%
X217189900Y-65800000D03*
%TD*%
D10*
%TO.P,D2,1,K*%
%TO.N,band1*%
X214649900Y-58800000D03*
D11*
%TO.P,D2,2,A*%
%TO.N,Net-(D2-A)*%
X217189900Y-58800000D03*
%TD*%
D10*
%TO.P,D3,1,K*%
%TO.N,band2*%
X214649900Y-51800000D03*
D11*
%TO.P,D3,2,A*%
%TO.N,Net-(D3-A)*%
X217189900Y-51800000D03*
%TD*%
D16*
%TO.P,RV1,*%
%TO.N,*%
X154700000Y-51400000D03*
X145100000Y-51400000D03*
D10*
%TO.P,RV1,1,1*%
%TO.N,+3.3V*%
X152400000Y-43900000D03*
D11*
%TO.P,RV1,2,2*%
%TO.N,Potar_volume*%
X149900000Y-43900000D03*
%TO.P,RV1,3,3*%
%TO.N,GND*%
X147400000Y-43900000D03*
%TD*%
D15*
%TO.P,H3,1,1*%
%TO.N,GND*%
X200200000Y-67000000D03*
%TD*%
%TO.P,H1,1,1*%
%TO.N,GND*%
X183000000Y-52000000D03*
%TD*%
D17*
%TO.P,C1,1*%
%TO.N,GND*%
X180725000Y-57230000D03*
%TO.P,C1,2*%
%TO.N,B Encodeur 2*%
X179000000Y-57230000D03*
%TD*%
D18*
%TO.P,R3,1*%
%TO.N,+3.3V*%
X167700000Y-61212500D03*
%TO.P,R3,2*%
%TO.N,Net-(R3-Pad2)*%
X167700000Y-59387500D03*
%TD*%
D19*
%TO.P,R6,1*%
%TO.N,A Encodeur 2*%
X164252400Y-59434730D03*
%TO.P,R6,2*%
%TO.N,Net-(R3-Pad2)*%
X166077400Y-59434730D03*
%TD*%
D20*
%TO.P,R5,1*%
%TO.N,B Encodeur 1*%
X202012500Y-57600000D03*
%TO.P,R5,2*%
%TO.N,Net-(R4-Pad2)*%
X200187500Y-57600000D03*
%TD*%
D21*
%TO.P,R15,1*%
%TO.N,+3.3V*%
X221649900Y-51887500D03*
%TO.P,R15,2*%
%TO.N,Net-(D3-A)*%
X221649900Y-53712500D03*
%TD*%
D18*
%TO.P,R1,1*%
%TO.N,+3.3V*%
X192500000Y-61712500D03*
%TO.P,R1,2*%
%TO.N,Net-(R1-Pad2)*%
X192500000Y-59887500D03*
%TD*%
D22*
%TO.P,C2,1*%
%TO.N,GND*%
X162507400Y-57594730D03*
%TO.P,C2,2*%
%TO.N,A Encodeur 2*%
X164232400Y-57594730D03*
%TD*%
D20*
%TO.P,R8,1*%
%TO.N,B Encodeur 2*%
X178867500Y-58755000D03*
%TO.P,R8,2*%
%TO.N,Net-(R7-Pad2)*%
X177042500Y-58755000D03*
%TD*%
D21*
%TO.P,R16,1*%
%TO.N,Net-(D4-A)*%
X221649900Y-44887500D03*
%TO.P,R16,2*%
%TO.N,+3.3V*%
X221649900Y-46712500D03*
%TD*%
D23*
%TO.P,J4,1,Pin_1*%
%TO.N,A Encodeur 1*%
X169800000Y-66200000D03*
D24*
%TO.P,J4,2,Pin_2*%
%TO.N,B Encodeur 1*%
X167300000Y-66200000D03*
%TO.P,J4,3,Pin_3*%
%TO.N,B Encodeur 2*%
X164800000Y-66200000D03*
%TO.P,J4,4,Pin_4*%
%TO.N,A Encodeur 2*%
X162300000Y-66200000D03*
%TO.P,J4,5,Pin_5*%
%TO.N,TIM3_CH1*%
X159800000Y-66200000D03*
%TO.P,J4,6,Pin_6*%
%TO.N,TIM3_CH2*%
X157300000Y-66200000D03*
%TO.P,J4,7,Pin_7*%
%TO.N,TIM3_CH3*%
X154800000Y-66200000D03*
%TO.P,J4,8,Pin_8*%
%TO.N,TIM3_CH4*%
X152300000Y-66200000D03*
%TD*%
D18*
%TO.P,R7,1*%
%TO.N,+3.3V*%
X173500000Y-61312500D03*
%TO.P,R7,2*%
%TO.N,Net-(R7-Pad2)*%
X173500000Y-59487500D03*
%TD*%
D17*
%TO.P,C3,1*%
%TO.N,GND*%
X203962500Y-59400000D03*
%TO.P,C3,2*%
%TO.N,B Encodeur 1*%
X202237500Y-59400000D03*
%TD*%
D25*
%TO.P,J5,1,Pin_1*%
%TO.N,+3.3V*%
X207900000Y-46100000D03*
D26*
%TO.P,J5,2,Pin_2*%
%TO.N,Potar_volume*%
X207900000Y-48600000D03*
%TO.P,J5,3,Pin_3*%
%TO.N,EQ_BAND_BTN*%
X207900000Y-51100000D03*
%TO.P,J5,4,Pin_4*%
%TO.N,band3*%
X207900000Y-53600000D03*
%TO.P,J5,5,Pin_5*%
%TO.N,band2*%
X207900000Y-56100000D03*
%TO.P,J5,6,Pin_6*%
%TO.N,band1*%
X207900000Y-58600000D03*
%TO.P,J5,7,Pin_7*%
%TO.N,band0*%
X207900000Y-61100000D03*
%TO.P,J5,8,Pin_8*%
%TO.N,GND*%
X207900000Y-63600000D03*
%TD*%
D18*
%TO.P,R13,1*%
%TO.N,Net-(D1-A)*%
X221649900Y-65712500D03*
%TO.P,R13,2*%
%TO.N,+3.3V*%
X221649900Y-63887500D03*
%TD*%
%TO.P,R4,1*%
%TO.N,+3.3V*%
X197500000Y-61712500D03*
%TO.P,R4,2*%
%TO.N,Net-(R4-Pad2)*%
X197500000Y-59887500D03*
%TD*%
D21*
%TO.P,R14,1*%
%TO.N,Net-(D2-A)*%
X221649900Y-57887500D03*
%TO.P,R14,2*%
%TO.N,+3.3V*%
X221649900Y-59712500D03*
%TD*%
D22*
%TO.P,C5,1*%
%TO.N,GND*%
X147637500Y-42000000D03*
%TO.P,C5,2*%
%TO.N,Potar_volume*%
X149362500Y-42000000D03*
%TD*%
D19*
%TO.P,R2,1*%
%TO.N,A Encodeur 1*%
X187387500Y-59300000D03*
%TO.P,R2,2*%
%TO.N,Net-(R1-Pad2)*%
X189212500Y-59300000D03*
%TD*%
D22*
%TO.P,C4,1*%
%TO.N,GND*%
X185737500Y-57300000D03*
%TO.P,C4,2*%
%TO.N,A Encodeur 1*%
X187462500Y-57300000D03*
%TD*%
D27*
%TO.N,GND*%
X222900000Y-41800000D03*
X202600000Y-42000000D03*
X204400000Y-43900000D03*
X176000000Y-60000000D03*
X166000000Y-62000000D03*
D28*
X207900000Y-41100000D03*
X199700000Y-45000000D03*
D27*
X155000000Y-42500000D03*
X202500000Y-52500000D03*
D28*
X183000000Y-65000000D03*
D27*
X192500000Y-52500000D03*
D28*
X180000000Y-46000000D03*
X193900000Y-45300000D03*
D27*
X212500000Y-47500000D03*
X197500000Y-52500000D03*
X212500000Y-52500000D03*
X171000000Y-47500000D03*
D28*
X199000000Y-59000000D03*
D27*
X177500000Y-52500000D03*
X187500000Y-52500000D03*
X160000000Y-57500000D03*
X215000000Y-62500000D03*
X155000000Y-62500000D03*
X212500000Y-42500000D03*
D28*
X167000000Y-46000000D03*
D27*
X155000000Y-57500000D03*
%TO.N,+3.3V*%
X221700000Y-61700000D03*
X221600000Y-49400000D03*
X195000000Y-61700000D03*
X170500000Y-61200000D03*
%TD*%
D29*
%TO.N,Potar_volume*%
X207900000Y-48600000D02*
X200750000Y-41450000D01*
X200750000Y-41450000D02*
X159150000Y-41450000D01*
X159150000Y-41450000D02*
X155000000Y-45600000D01*
X155000000Y-45600000D02*
X151200000Y-45600000D01*
X151200000Y-45600000D02*
X149900000Y-44300000D01*
X149900000Y-44300000D02*
X149900000Y-43900000D01*
%TO.N,B Encodeur 2*%
X178867500Y-58755000D02*
X174322500Y-63300000D01*
X179000000Y-57230000D02*
X179000000Y-57970000D01*
X179000000Y-57970000D02*
X179000000Y-58622500D01*
X167700000Y-63300000D02*
X164800000Y-66200000D01*
X174322500Y-63300000D02*
X167700000Y-63300000D01*
X179000000Y-58622500D02*
X178867500Y-58755000D01*
%TO.N,A Encodeur 2*%
X164252400Y-62747600D02*
X162300000Y-64700000D01*
X164232400Y-57594730D02*
X164232400Y-59414730D01*
X164232400Y-59414730D02*
X164252400Y-59434730D01*
X164252400Y-59434730D02*
X164252400Y-62747600D01*
X162300000Y-64700000D02*
X162300000Y-66200000D01*
%TO.N,B Encodeur 1*%
X167300000Y-66200000D02*
X170800000Y-69700000D01*
X202012500Y-59175000D02*
X202237500Y-59400000D01*
X191937500Y-69700000D02*
X202237500Y-59400000D01*
X202012500Y-57600000D02*
X202012500Y-59175000D01*
X170800000Y-69700000D02*
X191937500Y-69700000D01*
%TO.N,A Encodeur 1*%
X173200000Y-66200000D02*
X169800000Y-66200000D01*
X187387500Y-58300000D02*
X187387500Y-57375000D01*
X187387500Y-59300000D02*
X187387500Y-58300000D01*
X187387500Y-58300000D02*
X181100000Y-58300000D01*
X181100000Y-58300000D02*
X173200000Y-66200000D01*
X187387500Y-57375000D02*
X187462500Y-57300000D01*
%TO.N,Potar_volume*%
X149362500Y-42000000D02*
X150100000Y-42737500D01*
X150100000Y-42737500D02*
X150100000Y-43700000D01*
X150100000Y-43700000D02*
X149900000Y-43900000D01*
%TO.N,Net-(D1-A)*%
X217277400Y-65712500D02*
X217189900Y-65800000D01*
X221649900Y-65712500D02*
X217277400Y-65712500D01*
D30*
%TO.N,band0*%
X207900000Y-61100000D02*
X209949900Y-61100000D01*
X209949900Y-61100000D02*
X214649900Y-65800000D01*
D29*
%TO.N,Net-(D2-A)*%
X221649900Y-57887500D02*
X218102400Y-57887500D01*
X218102400Y-57887500D02*
X217189900Y-58800000D01*
%TO.N,band1*%
X214649900Y-58800000D02*
X208100000Y-58800000D01*
X208100000Y-58800000D02*
X207900000Y-58600000D01*
D30*
%TO.N,band2*%
X214649900Y-51800000D02*
X210349900Y-56100000D01*
X210349900Y-56100000D02*
X207900000Y-56100000D01*
D29*
%TO.N,Net-(D3-A)*%
X221649900Y-53712500D02*
X219102400Y-53712500D01*
X219102400Y-53712500D02*
X217189900Y-51800000D01*
%TO.N,Net-(D4-A)*%
X217277400Y-44887500D02*
X217189900Y-44800000D01*
X221649900Y-44887500D02*
X217277400Y-44887500D01*
D30*
%TO.N,band3*%
X210000000Y-47000000D02*
X210000000Y-51500000D01*
X210000000Y-51500000D02*
X207900000Y-53600000D01*
X212200000Y-44800000D02*
X210000000Y-47000000D01*
X214649900Y-44800000D02*
X212200000Y-44800000D01*
D29*
%TO.N,+3.3V*%
X167700000Y-61212500D02*
X170487500Y-61212500D01*
X173500000Y-61312500D02*
X173387500Y-61200000D01*
X173387500Y-61200000D02*
X170500000Y-61200000D01*
X221649900Y-63887500D02*
X221649900Y-61750100D01*
X194987500Y-61712500D02*
X195000000Y-61700000D01*
X221649900Y-61750100D02*
X221700000Y-61700000D01*
X221600000Y-49400000D02*
X221649900Y-49350100D01*
X207900000Y-46100000D02*
X207900000Y-44700000D01*
X195012500Y-61712500D02*
X195000000Y-61700000D01*
X221649900Y-49449900D02*
X221649900Y-51887500D01*
X155500000Y-43900000D02*
X152400000Y-43900000D01*
X221649900Y-61649900D02*
X221700000Y-61700000D01*
X192500000Y-61712500D02*
X194987500Y-61712500D01*
X170487500Y-61212500D02*
X170500000Y-61200000D01*
X158400000Y-41000000D02*
X155500000Y-43900000D01*
X207900000Y-44700000D02*
X204200000Y-41000000D01*
X221600000Y-49400000D02*
X221649900Y-49449900D01*
X221649900Y-59712500D02*
X221649900Y-61649900D01*
X204200000Y-41000000D02*
X158400000Y-41000000D01*
X197500000Y-61712500D02*
X195012500Y-61712500D01*
X221649900Y-49350100D02*
X221649900Y-46712500D01*
%TO.N,EQ_BAND_BTN*%
X207900000Y-51100000D02*
X204917980Y-48117980D01*
X200115680Y-48117980D02*
X195000000Y-43002300D01*
X204917980Y-48117980D02*
X200115680Y-48117980D01*
%TO.N,Net-(R1-Pad2)*%
X191014420Y-57498080D02*
X189212500Y-59300000D01*
X192500000Y-57498720D02*
X192500640Y-57498080D01*
X192500640Y-57498080D02*
X191014420Y-57498080D01*
X192500000Y-59887500D02*
X192500000Y-57498720D01*
%TO.N,Net-(R3-Pad2)*%
X166077400Y-58622600D02*
X167201920Y-57498080D01*
X167700000Y-59387500D02*
X166124630Y-59387500D01*
X166124630Y-59387500D02*
X166077400Y-59434730D01*
X167201920Y-57498080D02*
X168500640Y-57498080D01*
X166077400Y-59434730D02*
X166077400Y-58622600D01*
%TO.N,Net-(R4-Pad2)*%
X200187500Y-57600000D02*
X198351180Y-57600000D01*
X197500000Y-57498720D02*
X197499360Y-57498080D01*
X197500000Y-59887500D02*
X197500000Y-57498720D01*
%TO.N,Net-(R7-Pad2)*%
X177042500Y-58755000D02*
X175785580Y-57498080D01*
X173500000Y-59487500D02*
X173500000Y-57498720D01*
X175785580Y-57498080D02*
X173499360Y-57498080D01*
X173500000Y-57498720D02*
X173499360Y-57498080D01*
%TD*%
%TA.AperFunction,Conductor*%
%TO.N,GND*%
G36*
X157782585Y-40520185D02*
G01*
X157828340Y-40572989D01*
X157838284Y-40642147D01*
X157809259Y-40705703D01*
X157803227Y-40712181D01*
X155277229Y-43238181D01*
X155215906Y-43271666D01*
X155189548Y-43274500D01*
X153924499Y-43274500D01*
X153857460Y-43254815D01*
X153811705Y-43202011D01*
X153800499Y-43150500D01*
X153800499Y-42952129D01*
X153800498Y-42952123D01*
X153794091Y-42892516D01*
X153743797Y-42757671D01*
X153743793Y-42757664D01*
X153657547Y-42642455D01*
X153657544Y-42642452D01*
X153542335Y-42556206D01*
X153542328Y-42556202D01*
X153407482Y-42505908D01*
X153407483Y-42505908D01*
X153347883Y-42499501D01*
X153347881Y-42499500D01*
X153347873Y-42499500D01*
X153347864Y-42499500D01*
X151452129Y-42499500D01*
X151452123Y-42499501D01*
X151392516Y-42505908D01*
X151257671Y-42556202D01*
X151257664Y-42556206D01*
X151142455Y-42642452D01*
X151142452Y-42642455D01*
X151056206Y-42757664D01*
X151056202Y-42757671D01*
X151037907Y-42806724D01*
X150996035Y-42862658D01*
X150930571Y-42887075D01*
X150862298Y-42872223D01*
X150845563Y-42861245D01*
X150773339Y-42805031D01*
X150732526Y-42748320D01*
X150725501Y-42707177D01*
X150725501Y-42675891D01*
X150725500Y-42675889D01*
X150701465Y-42555058D01*
X150701464Y-42555055D01*
X150701463Y-42555049D01*
X150701461Y-42555044D01*
X150699198Y-42549580D01*
X150699197Y-42549578D01*
X150681109Y-42505909D01*
X150680627Y-42504745D01*
X150654312Y-42441215D01*
X150618522Y-42387652D01*
X150585858Y-42338766D01*
X150436818Y-42189726D01*
X150403333Y-42128403D01*
X150400499Y-42102045D01*
X150400499Y-41713330D01*
X150400498Y-41713313D01*
X150390174Y-41612247D01*
X150335908Y-41448484D01*
X150245340Y-41301650D01*
X150123350Y-41179660D01*
X150032129Y-41123395D01*
X149976518Y-41089093D01*
X149976513Y-41089091D01*
X149975069Y-41088612D01*
X149812753Y-41034826D01*
X149812751Y-41034825D01*
X149711678Y-41024500D01*
X149013330Y-41024500D01*
X149013312Y-41024501D01*
X148912247Y-41034825D01*
X148748484Y-41089092D01*
X148748481Y-41089093D01*
X148601648Y-41179661D01*
X148587325Y-41193984D01*
X148526001Y-41227468D01*
X148456309Y-41222482D01*
X148411965Y-41193982D01*
X148398038Y-41180055D01*
X148398034Y-41180052D01*
X148251311Y-41089551D01*
X148251300Y-41089546D01*
X148087652Y-41035319D01*
X147986654Y-41025000D01*
X147887500Y-41025000D01*
X147887500Y-42126000D01*
X147867815Y-42193039D01*
X147815011Y-42238794D01*
X147763500Y-42250000D01*
X146600001Y-42250000D01*
X146600001Y-42286654D01*
X146610319Y-42387652D01*
X146664546Y-42551300D01*
X146664548Y-42551305D01*
X146667576Y-42556213D01*
X146686016Y-42623606D01*
X146665093Y-42690269D01*
X146635057Y-42719982D01*
X146635695Y-42720801D01*
X146601200Y-42747647D01*
X147270590Y-43417037D01*
X147207007Y-43434075D01*
X147092993Y-43499901D01*
X146999901Y-43592993D01*
X146934075Y-43707007D01*
X146917037Y-43770591D01*
X146248811Y-43102365D01*
X146164516Y-43231390D01*
X146071317Y-43443864D01*
X146014361Y-43668781D01*
X145995202Y-43899994D01*
X145995202Y-43900005D01*
X146014361Y-44131218D01*
X146071317Y-44356135D01*
X146164515Y-44568606D01*
X146248812Y-44697633D01*
X146917037Y-44029408D01*
X146934075Y-44092993D01*
X146999901Y-44207007D01*
X147092993Y-44300099D01*
X147207007Y-44365925D01*
X147270590Y-44382962D01*
X146601201Y-45052351D01*
X146631649Y-45076050D01*
X146835697Y-45186476D01*
X146835706Y-45186479D01*
X147055139Y-45261811D01*
X147283993Y-45300000D01*
X147516007Y-45300000D01*
X147744860Y-45261811D01*
X147964293Y-45186479D01*
X147964301Y-45186476D01*
X148168355Y-45076047D01*
X148198797Y-45052351D01*
X148198798Y-45052350D01*
X147529410Y-44382962D01*
X147592993Y-44365925D01*
X147707007Y-44300099D01*
X147800099Y-44207007D01*
X147865925Y-44092993D01*
X147882962Y-44029409D01*
X148551186Y-44697633D01*
X148555967Y-44697137D01*
X148599036Y-44660380D01*
X148668268Y-44650956D01*
X148731604Y-44680457D01*
X148753509Y-44705737D01*
X148791016Y-44763147D01*
X148791019Y-44763151D01*
X148791021Y-44763153D01*
X148948216Y-44933913D01*
X148948219Y-44933915D01*
X148948222Y-44933918D01*
X149131365Y-45076464D01*
X149131371Y-45076468D01*
X149131374Y-45076470D01*
X149286880Y-45160626D01*
X149334652Y-45186479D01*
X149335497Y-45186936D01*
X149449487Y-45226068D01*
X149555015Y-45262297D01*
X149555017Y-45262297D01*
X149555019Y-45262298D01*
X149783951Y-45300500D01*
X149964548Y-45300500D01*
X150031587Y-45320185D01*
X150052229Y-45336819D01*
X150801263Y-46085855D01*
X150801267Y-46085858D01*
X150903710Y-46154309D01*
X150903711Y-46154309D01*
X150903715Y-46154312D01*
X150970396Y-46181931D01*
X150970398Y-46181933D01*
X151015218Y-46200498D01*
X151017548Y-46201463D01*
X151037597Y-46205451D01*
X151071196Y-46212134D01*
X151138392Y-46225501D01*
X151138394Y-46225501D01*
X151267721Y-46225501D01*
X151267741Y-46225500D01*
X155061607Y-46225500D01*
X155122029Y-46213481D01*
X155182452Y-46201463D01*
X155182455Y-46201461D01*
X155182458Y-46201461D01*
X155215787Y-46187654D01*
X155215786Y-46187654D01*
X155215792Y-46187652D01*
X155296286Y-46154312D01*
X155361050Y-46111037D01*
X155398733Y-46085858D01*
X155485858Y-45998733D01*
X155485859Y-45998730D01*
X155492925Y-45991665D01*
X155492927Y-45991661D01*
X159372771Y-42111819D01*
X159434094Y-42078334D01*
X159460452Y-42075500D01*
X165718651Y-42075500D01*
X165785690Y-42095185D01*
X165831445Y-42147989D01*
X165841389Y-42217147D01*
X165822460Y-42267321D01*
X165775822Y-42338705D01*
X165683322Y-42549585D01*
X165626793Y-42772815D01*
X165607778Y-43002294D01*
X165607778Y-43002305D01*
X165626793Y-43231784D01*
X165683322Y-43455014D01*
X165775822Y-43665894D01*
X165901768Y-43858670D01*
X165901771Y-43858673D01*
X166057732Y-44028092D01*
X166146444Y-44097139D01*
X166190340Y-44131305D01*
X166239451Y-44169529D01*
X166441971Y-44279128D01*
X166506460Y-44301267D01*
X166659765Y-44353897D01*
X166659767Y-44353897D01*
X166659769Y-44353898D01*
X166886903Y-44391800D01*
X166886904Y-44391800D01*
X167117176Y-44391800D01*
X167117177Y-44391800D01*
X167344311Y-44353898D01*
X167562109Y-44279128D01*
X167764629Y-44169529D01*
X167799306Y-44142539D01*
X167925368Y-44044422D01*
X167990362Y-44018779D01*
X168058902Y-44032346D01*
X168077692Y-44044422D01*
X168238422Y-44169523D01*
X168238428Y-44169527D01*
X168238431Y-44169529D01*
X168440951Y-44279128D01*
X168505440Y-44301267D01*
X168658745Y-44353897D01*
X168658747Y-44353897D01*
X168658749Y-44353898D01*
X168885883Y-44391800D01*
X168885884Y-44391800D01*
X169116156Y-44391800D01*
X169116157Y-44391800D01*
X169343291Y-44353898D01*
X169561089Y-44279128D01*
X169763609Y-44169529D01*
X169798286Y-44142539D01*
X169924348Y-44044422D01*
X169989342Y-44018779D01*
X170057882Y-44032346D01*
X170076672Y-44044422D01*
X170237402Y-44169523D01*
X170237408Y-44169527D01*
X170237411Y-44169529D01*
X170439931Y-44279128D01*
X170504420Y-44301267D01*
X170657725Y-44353897D01*
X170657727Y-44353897D01*
X170657729Y-44353898D01*
X170884863Y-44391800D01*
X170884864Y-44391800D01*
X171115136Y-44391800D01*
X171115137Y-44391800D01*
X171342271Y-44353898D01*
X171560069Y-44279128D01*
X171762589Y-44169529D01*
X171797266Y-44142539D01*
X171923328Y-44044422D01*
X171988322Y-44018779D01*
X172056862Y-44032346D01*
X172075652Y-44044422D01*
X172236382Y-44169523D01*
X172236388Y-44169527D01*
X172236391Y-44169529D01*
X172438911Y-44279128D01*
X172503400Y-44301267D01*
X172656705Y-44353897D01*
X172656707Y-44353897D01*
X172656709Y-44353898D01*
X172883843Y-44391800D01*
X172883844Y-44391800D01*
X173114116Y-44391800D01*
X173114117Y-44391800D01*
X173341251Y-44353898D01*
X173559049Y-44279128D01*
X173761569Y-44169529D01*
X173796246Y-44142539D01*
X173922308Y-44044422D01*
X173987302Y-44018779D01*
X174055842Y-44032346D01*
X174074632Y-44044422D01*
X174235362Y-44169523D01*
X174235368Y-44169527D01*
X174235371Y-44169529D01*
X174437891Y-44279128D01*
X174502380Y-44301267D01*
X174655685Y-44353897D01*
X174655687Y-44353897D01*
X174655689Y-44353898D01*
X174882823Y-44391800D01*
X174882824Y-44391800D01*
X175113096Y-44391800D01*
X175113097Y-44391800D01*
X175340231Y-44353898D01*
X175558029Y-44279128D01*
X175760549Y-44169529D01*
X175942268Y-44028092D01*
X176098229Y-43858673D01*
X176224177Y-43665895D01*
X176316677Y-43455016D01*
X176373206Y-43231788D01*
X176383930Y-43102365D01*
X176392222Y-43002305D01*
X176392222Y-43002294D01*
X176373206Y-42772815D01*
X176373206Y-42772812D01*
X176316677Y-42549584D01*
X176224177Y-42338705D01*
X176190185Y-42286676D01*
X176177540Y-42267321D01*
X176157352Y-42200432D01*
X176176533Y-42133246D01*
X176228992Y-42087096D01*
X176281349Y-42075500D01*
X189718651Y-42075500D01*
X189785690Y-42095185D01*
X189831445Y-42147989D01*
X189841389Y-42217147D01*
X189822460Y-42267321D01*
X189775822Y-42338705D01*
X189683322Y-42549585D01*
X189626793Y-42772815D01*
X189607778Y-43002294D01*
X189607778Y-43002305D01*
X189626793Y-43231784D01*
X189683322Y-43455014D01*
X189775822Y-43665894D01*
X189901768Y-43858670D01*
X189901771Y-43858673D01*
X190057732Y-44028092D01*
X190146444Y-44097139D01*
X190190340Y-44131305D01*
X190239451Y-44169529D01*
X190441971Y-44279128D01*
X190506460Y-44301267D01*
X190659765Y-44353897D01*
X190659767Y-44353897D01*
X190659769Y-44353898D01*
X190886903Y-44391800D01*
X190886904Y-44391800D01*
X191117176Y-44391800D01*
X191117177Y-44391800D01*
X191344311Y-44353898D01*
X191562109Y-44279128D01*
X191764629Y-44169529D01*
X191799306Y-44142539D01*
X191925368Y-44044422D01*
X191990362Y-44018779D01*
X192058902Y-44032346D01*
X192077692Y-44044422D01*
X192238422Y-44169523D01*
X192238428Y-44169527D01*
X192238431Y-44169529D01*
X192440951Y-44279128D01*
X192505440Y-44301267D01*
X192658745Y-44353897D01*
X192658747Y-44353897D01*
X192658749Y-44353898D01*
X192885883Y-44391800D01*
X192885884Y-44391800D01*
X193116156Y-44391800D01*
X193116157Y-44391800D01*
X193343291Y-44353898D01*
X193561089Y-44279128D01*
X193763609Y-44169529D01*
X193798286Y-44142539D01*
X193924348Y-44044422D01*
X193989342Y-44018779D01*
X194057882Y-44032346D01*
X194076672Y-44044422D01*
X194237402Y-44169523D01*
X194237408Y-44169527D01*
X194237411Y-44169529D01*
X194439931Y-44279128D01*
X194504420Y-44301267D01*
X194657725Y-44353897D01*
X194657727Y-44353897D01*
X194657729Y-44353898D01*
X194884863Y-44391800D01*
X194884864Y-44391800D01*
X195115136Y-44391800D01*
X195115137Y-44391800D01*
X195342271Y-44353898D01*
X195361918Y-44347152D01*
X195431712Y-44344001D01*
X195489862Y-44376752D01*
X199300743Y-48187633D01*
X199334228Y-48248956D01*
X199329244Y-48318648D01*
X199291317Y-48371502D01*
X199142255Y-48492773D01*
X198950133Y-48698484D01*
X198950133Y-48698485D01*
X198950130Y-48698487D01*
X198950129Y-48698490D01*
X198911353Y-48753423D01*
X198787807Y-48928446D01*
X198658311Y-49178361D01*
X198658309Y-49178364D01*
X198658309Y-49178366D01*
X198622366Y-49279500D01*
X198564046Y-49443599D01*
X198564045Y-49443605D01*
X198506781Y-49719177D01*
X198506780Y-49719179D01*
X198487572Y-50000000D01*
X198506780Y-50280820D01*
X198506781Y-50280822D01*
X198564045Y-50556394D01*
X198564046Y-50556400D01*
X198564048Y-50556407D01*
X198564049Y-50556409D01*
X198658309Y-50821634D01*
X198658310Y-50821637D01*
X198658311Y-50821638D01*
X198674109Y-50852127D01*
X198787807Y-51071553D01*
X198950129Y-51301510D01*
X198950133Y-51301514D01*
X198950133Y-51301515D01*
X199142255Y-51507226D01*
X199217806Y-51568691D01*
X199360596Y-51684860D01*
X199360598Y-51684861D01*
X199360599Y-51684862D01*
X199601096Y-51831112D01*
X199601101Y-51831114D01*
X199859263Y-51943249D01*
X199859268Y-51943251D01*
X200130307Y-52019193D01*
X200375465Y-52052888D01*
X200409161Y-52057520D01*
X200409162Y-52057520D01*
X200690639Y-52057520D01*
X200720701Y-52053387D01*
X200969493Y-52019193D01*
X201240532Y-51943251D01*
X201498705Y-51831111D01*
X201739204Y-51684860D01*
X201957548Y-51507223D01*
X202149671Y-51301510D01*
X202311993Y-51071553D01*
X202441491Y-50821634D01*
X202535751Y-50556409D01*
X202593019Y-50280820D01*
X202612228Y-50000000D01*
X202593019Y-49719180D01*
X202535751Y-49443591D01*
X202441491Y-49178366D01*
X202311993Y-48928447D01*
X202311992Y-48928445D01*
X202310044Y-48924686D01*
X202311903Y-48923722D01*
X202296085Y-48864354D01*
X202317454Y-48797832D01*
X202371395Y-48753423D01*
X202420046Y-48743480D01*
X204607528Y-48743480D01*
X204674567Y-48763165D01*
X204695209Y-48779799D01*
X206463225Y-50547815D01*
X206496710Y-50609138D01*
X206493475Y-50673813D01*
X206457754Y-50783753D01*
X206424500Y-50993713D01*
X206424500Y-51206286D01*
X206443062Y-51323486D01*
X206457754Y-51416243D01*
X206513666Y-51588323D01*
X206523444Y-51618414D01*
X206619951Y-51807820D01*
X206744890Y-51979786D01*
X206895209Y-52130105D01*
X206895214Y-52130109D01*
X207059793Y-52249682D01*
X207102459Y-52305011D01*
X207108438Y-52374625D01*
X207075833Y-52436420D01*
X207059793Y-52450318D01*
X206895214Y-52569890D01*
X206895209Y-52569894D01*
X206744890Y-52720213D01*
X206619951Y-52892179D01*
X206523444Y-53081585D01*
X206457753Y-53283760D01*
X206435297Y-53425543D01*
X206424500Y-53493713D01*
X206424500Y-53706287D01*
X206457754Y-53916243D01*
X206521604Y-54112753D01*
X206523444Y-54118414D01*
X206619951Y-54307820D01*
X206744890Y-54479786D01*
X206895209Y-54630105D01*
X206895214Y-54630109D01*
X207059793Y-54749682D01*
X207102459Y-54805011D01*
X207108438Y-54874625D01*
X207075833Y-54936420D01*
X207059793Y-54950318D01*
X206895214Y-55069890D01*
X206895209Y-55069894D01*
X206744890Y-55220213D01*
X206619951Y-55392179D01*
X206523444Y-55581585D01*
X206457753Y-55783760D01*
X206424500Y-55993713D01*
X206424500Y-56206286D01*
X206456711Y-56409661D01*
X206457754Y-56416243D01*
X206511130Y-56580518D01*
X206523444Y-56618414D01*
X206619951Y-56807820D01*
X206744890Y-56979786D01*
X206895209Y-57130105D01*
X206895214Y-57130109D01*
X207059793Y-57249682D01*
X207102459Y-57305011D01*
X207108438Y-57374625D01*
X207075833Y-57436420D01*
X207059793Y-57450318D01*
X206895214Y-57569890D01*
X206895209Y-57569894D01*
X206744890Y-57720213D01*
X206619951Y-57892179D01*
X206523444Y-58081585D01*
X206523443Y-58081587D01*
X206523443Y-58081588D01*
X206516807Y-58102011D01*
X206457753Y-58283760D01*
X206428521Y-58468324D01*
X206424500Y-58493713D01*
X206424500Y-58706287D01*
X206425965Y-58715537D01*
X206452522Y-58883214D01*
X206457754Y-58916243D01*
X206521801Y-59113360D01*
X206523444Y-59118414D01*
X206619951Y-59307820D01*
X206744890Y-59479786D01*
X206895209Y-59630105D01*
X206895214Y-59630109D01*
X207059793Y-59749682D01*
X207102459Y-59805011D01*
X207108438Y-59874625D01*
X207075833Y-59936420D01*
X207059793Y-59950318D01*
X206895214Y-60069890D01*
X206895209Y-60069894D01*
X206744890Y-60220213D01*
X206619951Y-60392179D01*
X206523444Y-60581585D01*
X206457753Y-60783760D01*
X206424500Y-60993713D01*
X206424500Y-61206286D01*
X206457292Y-61413330D01*
X206457754Y-61416243D01*
X206521604Y-61612753D01*
X206523444Y-61618414D01*
X206619951Y-61807820D01*
X206744890Y-61979786D01*
X206895209Y-62130105D01*
X206895214Y-62130109D01*
X207060218Y-62249991D01*
X207102884Y-62305320D01*
X207108863Y-62374934D01*
X207076258Y-62436729D01*
X207060218Y-62450627D01*
X206895540Y-62570272D01*
X206895535Y-62570276D01*
X206745276Y-62720535D01*
X206745272Y-62720540D01*
X206620379Y-62892442D01*
X206523904Y-63081782D01*
X206458242Y-63283870D01*
X206458242Y-63283873D01*
X206447769Y-63350000D01*
X207495854Y-63350000D01*
X207457370Y-63416657D01*
X207425000Y-63537465D01*
X207425000Y-63662535D01*
X207457370Y-63783343D01*
X207495854Y-63850000D01*
X206447769Y-63850000D01*
X206458242Y-63916126D01*
X206458242Y-63916129D01*
X206523904Y-64118217D01*
X206620379Y-64307557D01*
X206745272Y-64479459D01*
X206745276Y-64479464D01*
X206895535Y-64629723D01*
X206895540Y-64629727D01*
X207067442Y-64754620D01*
X207256782Y-64851095D01*
X207458872Y-64916757D01*
X207650000Y-64947029D01*
X207650000Y-64004145D01*
X207716657Y-64042630D01*
X207837465Y-64075000D01*
X207962535Y-64075000D01*
X208083343Y-64042630D01*
X208150000Y-64004145D01*
X208150000Y-64947028D01*
X208341127Y-64916757D01*
X208543217Y-64851095D01*
X208732557Y-64754620D01*
X208904459Y-64629727D01*
X208904464Y-64629723D01*
X209054723Y-64479464D01*
X209054727Y-64479459D01*
X209179620Y-64307557D01*
X209276095Y-64118217D01*
X209341757Y-63916129D01*
X209341757Y-63916126D01*
X209352231Y-63850000D01*
X208304146Y-63850000D01*
X208342630Y-63783343D01*
X208375000Y-63662535D01*
X208375000Y-63537465D01*
X208342630Y-63416657D01*
X208304146Y-63350000D01*
X209352231Y-63350000D01*
X209341757Y-63283873D01*
X209341757Y-63283870D01*
X209276095Y-63081782D01*
X209179620Y-62892442D01*
X209054727Y-62720540D01*
X209054723Y-62720535D01*
X208904464Y-62570276D01*
X208904459Y-62570272D01*
X208739781Y-62450627D01*
X208697115Y-62395297D01*
X208691136Y-62325684D01*
X208723741Y-62263889D01*
X208739776Y-62249994D01*
X208904792Y-62130104D01*
X209055104Y-61979792D01*
X209055106Y-61979788D01*
X209055109Y-61979786D01*
X209143819Y-61857685D01*
X209180051Y-61807816D01*
X209180349Y-61807230D01*
X209200235Y-61768205D01*
X209248209Y-61717409D01*
X209310719Y-61700500D01*
X209649803Y-61700500D01*
X209716842Y-61720185D01*
X209737484Y-61736819D01*
X213213081Y-65212416D01*
X213246566Y-65273739D01*
X213249400Y-65300097D01*
X213249400Y-66747870D01*
X213249401Y-66747876D01*
X213255808Y-66807483D01*
X213306102Y-66942328D01*
X213306106Y-66942335D01*
X213392352Y-67057544D01*
X213392355Y-67057547D01*
X213507564Y-67143793D01*
X213507571Y-67143797D01*
X213642417Y-67194091D01*
X213642416Y-67194091D01*
X213649344Y-67194835D01*
X213702027Y-67200500D01*
X215597772Y-67200499D01*
X215657383Y-67194091D01*
X215792231Y-67143796D01*
X215907446Y-67057546D01*
X215993696Y-66942331D01*
X216022355Y-66865493D01*
X216064226Y-66809559D01*
X216129690Y-66785141D01*
X216197963Y-66799992D01*
X216229766Y-66824843D01*
X216237202Y-66832920D01*
X216238115Y-66833912D01*
X216238122Y-66833918D01*
X216421265Y-66976464D01*
X216421271Y-66976468D01*
X216421274Y-66976470D01*
X216625397Y-67086936D01*
X216738962Y-67125923D01*
X216844915Y-67162297D01*
X216844917Y-67162297D01*
X216844919Y-67162298D01*
X217073851Y-67200500D01*
X217073852Y-67200500D01*
X217305948Y-67200500D01*
X217305949Y-67200500D01*
X217534881Y-67162298D01*
X217754403Y-67086936D01*
X217958526Y-66976470D01*
X218141684Y-66833913D01*
X218298879Y-66663153D01*
X218425824Y-66468849D01*
X218450677Y-66412189D01*
X218495633Y-66358704D01*
X218562369Y-66338014D01*
X218564233Y-66338000D01*
X220707709Y-66338000D01*
X220774748Y-66357685D01*
X220813248Y-66396904D01*
X220829560Y-66423350D01*
X220951550Y-66545340D01*
X221098384Y-66635908D01*
X221262147Y-66690174D01*
X221363223Y-66700500D01*
X221936576Y-66700499D01*
X221936584Y-66700498D01*
X221936587Y-66700498D01*
X221991930Y-66694844D01*
X222037653Y-66690174D01*
X222201416Y-66635908D01*
X222348250Y-66545340D01*
X222470240Y-66423350D01*
X222560808Y-66276516D01*
X222615074Y-66112753D01*
X222625400Y-66011677D01*
X222625399Y-65413324D01*
X222615074Y-65312247D01*
X222560808Y-65148484D01*
X222470240Y-65001650D01*
X222356271Y-64887681D01*
X222322786Y-64826358D01*
X222327770Y-64756666D01*
X222356271Y-64712319D01*
X222410926Y-64657664D01*
X222470240Y-64598350D01*
X222560808Y-64451516D01*
X222615074Y-64287753D01*
X222625400Y-64186677D01*
X222625399Y-63588324D01*
X222615074Y-63487247D01*
X222560808Y-63323484D01*
X222470240Y-63176650D01*
X222348250Y-63054660D01*
X222334300Y-63046055D01*
X222287577Y-62994105D01*
X222275400Y-62940518D01*
X222275400Y-62454328D01*
X222295085Y-62387289D01*
X222307250Y-62371356D01*
X222308606Y-62369850D01*
X222432533Y-62232216D01*
X222527179Y-62068284D01*
X222585674Y-61888256D01*
X222605460Y-61700000D01*
X222585674Y-61511744D01*
X222527179Y-61331716D01*
X222432533Y-61167784D01*
X222350663Y-61076859D01*
X222307250Y-61028643D01*
X222277020Y-60965652D01*
X222275400Y-60945671D01*
X222275400Y-60659481D01*
X222295085Y-60592442D01*
X222334304Y-60553942D01*
X222335195Y-60553392D01*
X222348250Y-60545340D01*
X222470240Y-60423350D01*
X222560808Y-60276516D01*
X222615074Y-60112753D01*
X222625400Y-60011677D01*
X222625399Y-59413324D01*
X222615074Y-59312247D01*
X222560808Y-59148484D01*
X222470240Y-59001650D01*
X222356271Y-58887681D01*
X222322786Y-58826358D01*
X222327770Y-58756666D01*
X222356271Y-58712319D01*
X222408680Y-58659910D01*
X222470240Y-58598350D01*
X222560808Y-58451516D01*
X222615074Y-58287753D01*
X222625400Y-58186677D01*
X222625399Y-57588324D01*
X222625231Y-57586684D01*
X222615074Y-57487247D01*
X222609896Y-57471622D01*
X222560808Y-57323484D01*
X222470240Y-57176650D01*
X222348250Y-57054660D01*
X222202042Y-56964478D01*
X222201418Y-56964093D01*
X222201413Y-56964091D01*
X222199969Y-56963612D01*
X222037653Y-56909826D01*
X222037651Y-56909825D01*
X221936578Y-56899500D01*
X221363230Y-56899500D01*
X221363212Y-56899501D01*
X221262147Y-56909825D01*
X221098384Y-56964092D01*
X221098381Y-56964093D01*
X220951548Y-57054661D01*
X220829559Y-57176650D01*
X220813248Y-57203096D01*
X220761300Y-57249821D01*
X220707709Y-57262000D01*
X218040789Y-57262000D01*
X217980371Y-57274018D01*
X217919948Y-57286037D01*
X217919946Y-57286037D01*
X217919945Y-57286038D01*
X217919943Y-57286038D01*
X217889994Y-57298443D01*
X217889995Y-57298444D01*
X217806113Y-57333188D01*
X217806114Y-57333189D01*
X217703670Y-57401639D01*
X217703664Y-57401644D01*
X217688418Y-57416890D01*
X217627094Y-57450374D01*
X217560477Y-57446488D01*
X217534885Y-57437702D01*
X217318767Y-57401639D01*
X217305949Y-57399500D01*
X217073851Y-57399500D01*
X217061033Y-57401639D01*
X216844915Y-57437702D01*
X216625404Y-57513061D01*
X216625395Y-57513064D01*
X216421271Y-57623531D01*
X216421265Y-57623535D01*
X216238122Y-57766081D01*
X216238118Y-57766085D01*
X216229766Y-57775158D01*
X216169879Y-57811148D01*
X216100041Y-57809047D01*
X216042425Y-57769522D01*
X216022355Y-57734507D01*
X215993697Y-57657671D01*
X215993693Y-57657664D01*
X215907447Y-57542455D01*
X215907444Y-57542452D01*
X215792235Y-57456206D01*
X215792228Y-57456202D01*
X215657382Y-57405908D01*
X215657383Y-57405908D01*
X215597783Y-57399501D01*
X215597781Y-57399500D01*
X215597773Y-57399500D01*
X215597764Y-57399500D01*
X213702029Y-57399500D01*
X213702023Y-57399501D01*
X213642416Y-57405908D01*
X213507571Y-57456202D01*
X213507564Y-57456206D01*
X213392355Y-57542452D01*
X213392352Y-57542455D01*
X213306106Y-57657664D01*
X213306102Y-57657671D01*
X213255808Y-57792517D01*
X213249401Y-57852116D01*
X213249400Y-57852135D01*
X213249400Y-58050500D01*
X213229715Y-58117539D01*
X213176911Y-58163294D01*
X213125400Y-58174500D01*
X209396837Y-58174500D01*
X209329798Y-58154815D01*
X209284043Y-58102011D01*
X209278906Y-58088819D01*
X209276557Y-58081588D01*
X209180051Y-57892184D01*
X209180049Y-57892181D01*
X209180048Y-57892179D01*
X209055109Y-57720213D01*
X208904792Y-57569896D01*
X208904784Y-57569890D01*
X208740204Y-57450316D01*
X208697540Y-57394989D01*
X208691561Y-57325376D01*
X208724166Y-57263580D01*
X208740199Y-57249686D01*
X208904792Y-57130104D01*
X209055104Y-56979792D01*
X209055106Y-56979788D01*
X209055109Y-56979786D01*
X209124266Y-56884598D01*
X209180051Y-56807816D01*
X209180349Y-56807230D01*
X209200235Y-56768205D01*
X209248209Y-56717409D01*
X209310719Y-56700500D01*
X210263231Y-56700500D01*
X210263247Y-56700501D01*
X210270843Y-56700501D01*
X210428954Y-56700501D01*
X210428957Y-56700501D01*
X210581685Y-56659577D01*
X210642438Y-56624501D01*
X210718616Y-56580520D01*
X210830420Y-56468716D01*
X210830420Y-56468714D01*
X210840624Y-56458511D01*
X210840628Y-56458506D01*
X214062316Y-53236818D01*
X214123639Y-53203333D01*
X214149997Y-53200499D01*
X215597771Y-53200499D01*
X215597772Y-53200499D01*
X215657383Y-53194091D01*
X215792231Y-53143796D01*
X215907446Y-53057546D01*
X215993696Y-52942331D01*
X216012400Y-52892184D01*
X216022355Y-52865493D01*
X216064226Y-52809559D01*
X216129690Y-52785141D01*
X216197963Y-52799992D01*
X216229766Y-52824843D01*
X216237202Y-52832920D01*
X216238115Y-52833912D01*
X216238122Y-52833918D01*
X216421265Y-52976464D01*
X216421271Y-52976468D01*
X216421274Y-52976470D01*
X216625397Y-53086936D01*
X216739387Y-53126068D01*
X216844915Y-53162297D01*
X216844917Y-53162297D01*
X216844919Y-53162298D01*
X217073851Y-53200500D01*
X217073852Y-53200500D01*
X217305948Y-53200500D01*
X217305949Y-53200500D01*
X217534881Y-53162298D01*
X217560476Y-53153510D01*
X217630271Y-53150359D01*
X217688419Y-53183109D01*
X218616541Y-54111232D01*
X218616542Y-54111233D01*
X218703667Y-54198358D01*
X218738818Y-54221845D01*
X218806114Y-54266811D01*
X218919948Y-54313963D01*
X219040788Y-54337999D01*
X219040792Y-54338000D01*
X219040793Y-54338000D01*
X219040794Y-54338000D01*
X220707709Y-54338000D01*
X220774748Y-54357685D01*
X220813248Y-54396904D01*
X220829560Y-54423350D01*
X220951550Y-54545340D01*
X221098384Y-54635908D01*
X221262147Y-54690174D01*
X221363223Y-54700500D01*
X221936576Y-54700499D01*
X221936584Y-54700498D01*
X221936587Y-54700498D01*
X221991930Y-54694844D01*
X222037653Y-54690174D01*
X222201416Y-54635908D01*
X222348250Y-54545340D01*
X222470240Y-54423350D01*
X222560808Y-54276516D01*
X222615074Y-54112753D01*
X222625400Y-54011677D01*
X222625399Y-53413324D01*
X222620814Y-53368443D01*
X222615074Y-53312247D01*
X222590079Y-53236818D01*
X222560808Y-53148484D01*
X222470240Y-53001650D01*
X222356271Y-52887681D01*
X222322786Y-52826358D01*
X222327770Y-52756666D01*
X222356271Y-52712319D01*
X222405437Y-52663153D01*
X222470240Y-52598350D01*
X222560808Y-52451516D01*
X222615074Y-52287753D01*
X222625400Y-52186677D01*
X222625399Y-51588324D01*
X222624452Y-51579057D01*
X222615074Y-51487247D01*
X222591544Y-51416239D01*
X222560808Y-51323484D01*
X222470240Y-51176650D01*
X222348250Y-51054660D01*
X222334300Y-51046055D01*
X222287577Y-50994105D01*
X222275400Y-50940518D01*
X222275400Y-50043267D01*
X222295085Y-49976228D01*
X222307251Y-49960294D01*
X222332533Y-49932216D01*
X222427179Y-49768284D01*
X222485674Y-49588256D01*
X222505460Y-49400000D01*
X222485674Y-49211744D01*
X222427179Y-49031716D01*
X222332533Y-48867784D01*
X222332529Y-48867778D01*
X222307250Y-48839703D01*
X222277020Y-48776711D01*
X222275400Y-48756731D01*
X222275400Y-47659481D01*
X222295085Y-47592442D01*
X222334304Y-47553942D01*
X222335195Y-47553392D01*
X222348250Y-47545340D01*
X222470240Y-47423350D01*
X222560808Y-47276516D01*
X222615074Y-47112753D01*
X222625400Y-47011677D01*
X222625399Y-46413324D01*
X222615074Y-46312247D01*
X222560808Y-46148484D01*
X222470240Y-46001650D01*
X222356271Y-45887681D01*
X222322786Y-45826358D01*
X222327770Y-45756666D01*
X222356271Y-45712319D01*
X222405445Y-45663145D01*
X222470240Y-45598350D01*
X222560808Y-45451516D01*
X222615074Y-45287753D01*
X222625400Y-45186677D01*
X222625399Y-44588324D01*
X222624933Y-44583765D01*
X222615074Y-44487247D01*
X222596530Y-44431286D01*
X222560808Y-44323484D01*
X222470240Y-44176650D01*
X222348250Y-44054660D01*
X222207992Y-43968148D01*
X222201418Y-43964093D01*
X222201413Y-43964091D01*
X222182540Y-43957837D01*
X222037653Y-43909826D01*
X222037651Y-43909825D01*
X221936578Y-43899500D01*
X221363230Y-43899500D01*
X221363212Y-43899501D01*
X221262147Y-43909825D01*
X221098384Y-43964092D01*
X221098381Y-43964093D01*
X220951548Y-44054661D01*
X220829559Y-44176650D01*
X220813248Y-44203096D01*
X220761300Y-44249821D01*
X220707709Y-44262000D01*
X218564233Y-44262000D01*
X218497194Y-44242315D01*
X218451439Y-44189511D01*
X218450677Y-44187810D01*
X218425824Y-44131151D01*
X218298883Y-43936852D01*
X218298880Y-43936849D01*
X218298879Y-43936847D01*
X218141684Y-43766087D01*
X218141679Y-43766083D01*
X218141677Y-43766081D01*
X217958534Y-43623535D01*
X217958528Y-43623531D01*
X217754404Y-43513064D01*
X217754395Y-43513061D01*
X217534884Y-43437702D01*
X217344350Y-43405908D01*
X217305949Y-43399500D01*
X217073851Y-43399500D01*
X217035450Y-43405908D01*
X216844915Y-43437702D01*
X216625404Y-43513061D01*
X216625395Y-43513064D01*
X216421271Y-43623531D01*
X216421265Y-43623535D01*
X216238122Y-43766081D01*
X216238118Y-43766085D01*
X216229766Y-43775158D01*
X216169879Y-43811148D01*
X216100041Y-43809047D01*
X216042425Y-43769522D01*
X216022355Y-43734507D01*
X215993697Y-43657671D01*
X215993693Y-43657664D01*
X215907447Y-43542455D01*
X215907444Y-43542452D01*
X215792235Y-43456206D01*
X215792228Y-43456202D01*
X215657382Y-43405908D01*
X215657383Y-43405908D01*
X215597783Y-43399501D01*
X215597781Y-43399500D01*
X215597773Y-43399500D01*
X215597764Y-43399500D01*
X213702029Y-43399500D01*
X213702023Y-43399501D01*
X213642416Y-43405908D01*
X213507571Y-43456202D01*
X213507564Y-43456206D01*
X213392355Y-43542452D01*
X213392352Y-43542455D01*
X213306106Y-43657664D01*
X213306102Y-43657671D01*
X213255808Y-43792517D01*
X213249401Y-43852116D01*
X213249400Y-43852135D01*
X213249400Y-44075500D01*
X213229715Y-44142539D01*
X213176911Y-44188294D01*
X213125400Y-44199500D01*
X212286669Y-44199500D01*
X212286653Y-44199499D01*
X212279057Y-44199499D01*
X212120943Y-44199499D01*
X212006397Y-44230192D01*
X211968214Y-44240423D01*
X211951938Y-44249821D01*
X211944161Y-44254311D01*
X211887722Y-44286895D01*
X211831285Y-44319479D01*
X211831282Y-44319481D01*
X209631284Y-46519480D01*
X209631283Y-46519481D01*
X209587179Y-46563584D01*
X209525856Y-46597069D01*
X209456164Y-46592083D01*
X209400231Y-46550211D01*
X209375815Y-46484747D01*
X209375499Y-46475924D01*
X209375499Y-45449992D01*
X209370298Y-45399079D01*
X209383067Y-45330387D01*
X209430948Y-45279503D01*
X209498738Y-45262582D01*
X209541109Y-45271917D01*
X209651918Y-45317816D01*
X209799658Y-45347203D01*
X209816228Y-45350499D01*
X209816232Y-45350500D01*
X209816233Y-45350500D01*
X209983768Y-45350500D01*
X209983769Y-45350499D01*
X210148082Y-45317816D01*
X210302863Y-45253703D01*
X210442162Y-45160626D01*
X210560626Y-45042162D01*
X210653703Y-44902863D01*
X210717816Y-44748082D01*
X210750500Y-44583767D01*
X210750500Y-44416233D01*
X210717816Y-44251918D01*
X210653703Y-44097137D01*
X210607569Y-44028093D01*
X210560626Y-43957837D01*
X210442162Y-43839373D01*
X210302860Y-43746295D01*
X210148082Y-43682184D01*
X210148074Y-43682182D01*
X209983771Y-43649500D01*
X209983767Y-43649500D01*
X209816233Y-43649500D01*
X209816228Y-43649500D01*
X209651925Y-43682182D01*
X209651917Y-43682184D01*
X209497139Y-43746295D01*
X209357837Y-43839373D01*
X209239373Y-43957837D01*
X209146295Y-44097139D01*
X209082184Y-44251917D01*
X209082182Y-44251925D01*
X209049500Y-44416228D01*
X209049500Y-44416232D01*
X209049500Y-44416233D01*
X209049500Y-44583767D01*
X209052329Y-44597989D01*
X209064650Y-44659934D01*
X209058421Y-44729526D01*
X209015558Y-44784702D01*
X208949668Y-44807946D01*
X208904028Y-44801830D01*
X208873014Y-44791553D01*
X208777797Y-44760001D01*
X208777795Y-44760000D01*
X208675016Y-44749500D01*
X208675009Y-44749500D01*
X208648830Y-44749500D01*
X208581791Y-44729815D01*
X208536036Y-44677011D01*
X208527209Y-44644266D01*
X208526689Y-44644370D01*
X208517124Y-44596287D01*
X208517123Y-44596283D01*
X208515542Y-44588330D01*
X208503045Y-44525500D01*
X208501463Y-44517548D01*
X208454311Y-44403714D01*
X208454309Y-44403711D01*
X208454307Y-44403707D01*
X208385858Y-44301267D01*
X208385855Y-44301263D01*
X208295637Y-44211045D01*
X208295606Y-44211016D01*
X204796771Y-40712181D01*
X204763286Y-40650858D01*
X204768270Y-40581166D01*
X204810142Y-40525233D01*
X204875606Y-40500816D01*
X204884452Y-40500500D01*
X224375500Y-40500500D01*
X224442539Y-40520185D01*
X224488294Y-40572989D01*
X224499500Y-40624500D01*
X224499500Y-70375500D01*
X224479815Y-70442539D01*
X224427011Y-70488294D01*
X224375500Y-70499500D01*
X200792722Y-70499500D01*
X200725683Y-70479815D01*
X200679928Y-70427011D01*
X200669984Y-70357853D01*
X200699009Y-70294297D01*
X200757787Y-70256523D01*
X200766066Y-70254399D01*
X201084142Y-70184384D01*
X201423255Y-70070123D01*
X201423260Y-70070122D01*
X201748009Y-69919876D01*
X202054629Y-69735390D01*
X202054632Y-69735388D01*
X202339509Y-69518831D01*
X202352742Y-69506295D01*
X202352742Y-69506294D01*
X201140699Y-68294251D01*
X201242330Y-68220412D01*
X201420412Y-68042330D01*
X201494251Y-67940698D01*
X202703556Y-69150002D01*
X202830972Y-68999998D01*
X202830975Y-68999994D01*
X203031781Y-68703827D01*
X203199393Y-68387677D01*
X203199402Y-68387659D01*
X203331850Y-68055239D01*
X203331852Y-68055232D01*
X203427578Y-67710457D01*
X203427584Y-67710431D01*
X203485472Y-67357331D01*
X203485473Y-67357314D01*
X203504847Y-67000002D01*
X203504847Y-66999997D01*
X203485473Y-66642685D01*
X203485472Y-66642668D01*
X203427584Y-66289568D01*
X203427578Y-66289542D01*
X203331852Y-65944767D01*
X203331850Y-65944760D01*
X203199402Y-65612340D01*
X203199393Y-65612322D01*
X203031781Y-65296172D01*
X202830975Y-65000005D01*
X202830964Y-64999991D01*
X202703556Y-64849996D01*
X201494251Y-66059300D01*
X201420412Y-65957670D01*
X201242330Y-65779588D01*
X201140698Y-65705748D01*
X202352742Y-64493704D01*
X202339504Y-64481163D01*
X202054632Y-64264611D01*
X202054629Y-64264609D01*
X201748009Y-64080123D01*
X201423260Y-63929877D01*
X201423255Y-63929876D01*
X201084144Y-63815616D01*
X200734660Y-63738688D01*
X200378924Y-63700000D01*
X200021075Y-63700000D01*
X199665339Y-63738688D01*
X199315855Y-63815616D01*
X198976749Y-63929874D01*
X198893812Y-63968245D01*
X198824703Y-63978528D01*
X198761005Y-63949816D01*
X198722942Y-63891225D01*
X198722598Y-63821356D01*
X198754064Y-63768025D01*
X202110272Y-60411818D01*
X202171595Y-60378333D01*
X202197953Y-60375499D01*
X202586670Y-60375499D01*
X202586676Y-60375499D01*
X202687753Y-60365174D01*
X202851516Y-60310908D01*
X202998350Y-60220340D01*
X203012671Y-60206018D01*
X203073989Y-60172533D01*
X203143681Y-60177514D01*
X203188034Y-60206017D01*
X203201961Y-60219944D01*
X203201965Y-60219947D01*
X203348688Y-60310448D01*
X203348699Y-60310453D01*
X203512347Y-60364680D01*
X203613351Y-60374999D01*
X203712500Y-60374998D01*
X203712500Y-59650000D01*
X204212500Y-59650000D01*
X204212500Y-60374999D01*
X204311640Y-60374999D01*
X204311654Y-60374998D01*
X204412652Y-60364680D01*
X204576300Y-60310453D01*
X204576311Y-60310448D01*
X204723034Y-60219947D01*
X204723038Y-60219944D01*
X204844944Y-60098038D01*
X204844947Y-60098034D01*
X204935448Y-59951311D01*
X204935453Y-59951300D01*
X204989680Y-59787652D01*
X204999999Y-59686654D01*
X205000000Y-59686641D01*
X205000000Y-59650000D01*
X204212500Y-59650000D01*
X203712500Y-59650000D01*
X203712500Y-58425000D01*
X204212500Y-58425000D01*
X204212500Y-59150000D01*
X204999999Y-59150000D01*
X204999999Y-59113360D01*
X204999998Y-59113345D01*
X204989680Y-59012347D01*
X204935453Y-58848699D01*
X204935448Y-58848688D01*
X204844947Y-58701965D01*
X204844944Y-58701961D01*
X204723038Y-58580055D01*
X204723034Y-58580052D01*
X204576311Y-58489551D01*
X204576300Y-58489546D01*
X204412652Y-58435319D01*
X204311654Y-58425000D01*
X204212500Y-58425000D01*
X203712500Y-58425000D01*
X203712500Y-58424999D01*
X203613360Y-58425000D01*
X203613344Y-58425001D01*
X203512347Y-58435319D01*
X203348699Y-58489546D01*
X203348688Y-58489551D01*
X203201965Y-58580052D01*
X203188032Y-58593985D01*
X203126708Y-58627468D01*
X203057016Y-58622482D01*
X203012672Y-58593982D01*
X202998351Y-58579661D01*
X202998350Y-58579660D01*
X202863194Y-58496295D01*
X202816472Y-58444349D01*
X202805249Y-58375386D01*
X202833093Y-58311304D01*
X202840594Y-58303095D01*
X202845340Y-58298350D01*
X202935908Y-58151516D01*
X202990174Y-57987753D01*
X203000500Y-57886677D01*
X203000499Y-57313324D01*
X202999959Y-57308042D01*
X202990174Y-57212247D01*
X202978378Y-57176650D01*
X202935908Y-57048484D01*
X202845340Y-56901650D01*
X202723350Y-56779660D01*
X202595013Y-56700501D01*
X202576518Y-56689093D01*
X202576513Y-56689091D01*
X202544494Y-56678481D01*
X202412753Y-56634826D01*
X202412751Y-56634825D01*
X202311678Y-56624500D01*
X201713330Y-56624500D01*
X201713312Y-56624501D01*
X201612247Y-56634825D01*
X201448484Y-56689092D01*
X201448481Y-56689093D01*
X201301648Y-56779661D01*
X201187681Y-56893629D01*
X201126358Y-56927114D01*
X201056666Y-56922130D01*
X201012319Y-56893629D01*
X200898351Y-56779661D01*
X200898350Y-56779660D01*
X200770013Y-56700501D01*
X200751518Y-56689093D01*
X200751513Y-56689091D01*
X200719494Y-56678481D01*
X200587753Y-56634826D01*
X200587751Y-56634825D01*
X200486678Y-56624500D01*
X199888330Y-56624500D01*
X199888312Y-56624501D01*
X199787247Y-56634825D01*
X199623484Y-56689092D01*
X199623481Y-56689093D01*
X199476648Y-56779661D01*
X199354660Y-56901649D01*
X199354659Y-56901651D01*
X199346058Y-56915596D01*
X199294110Y-56962321D01*
X199240519Y-56974500D01*
X198879101Y-56974500D01*
X198812062Y-56954815D01*
X198766307Y-56902011D01*
X198765545Y-56900310D01*
X198765190Y-56899500D01*
X198734543Y-56829632D01*
X198607674Y-56635445D01*
X198450573Y-56464787D01*
X198398150Y-56423985D01*
X198267533Y-56322321D01*
X198267527Y-56322317D01*
X198063525Y-56211916D01*
X198063516Y-56211913D01*
X197844137Y-56136599D01*
X197672537Y-56107964D01*
X197615339Y-56098420D01*
X197383381Y-56098420D01*
X197337622Y-56106055D01*
X197154582Y-56136599D01*
X196935203Y-56211913D01*
X196935194Y-56211916D01*
X196731192Y-56322317D01*
X196731186Y-56322321D01*
X196548154Y-56464781D01*
X196548144Y-56464790D01*
X196534092Y-56480055D01*
X196391046Y-56635445D01*
X196391044Y-56635447D01*
X196391042Y-56635450D01*
X196353188Y-56693389D01*
X196300041Y-56738745D01*
X196230809Y-56748168D01*
X196167474Y-56718665D01*
X196152374Y-56701238D01*
X196150579Y-56701052D01*
X195523713Y-57327918D01*
X195512434Y-57285823D01*
X195440037Y-57160427D01*
X195337653Y-57058043D01*
X195212257Y-56985646D01*
X195170160Y-56974366D01*
X195798198Y-56346326D01*
X195798198Y-56346325D01*
X195767892Y-56322737D01*
X195563963Y-56212375D01*
X195563958Y-56212373D01*
X195344653Y-56137086D01*
X195115937Y-56098920D01*
X194884063Y-56098920D01*
X194655346Y-56137086D01*
X194436041Y-56212373D01*
X194436036Y-56212375D01*
X194232111Y-56322735D01*
X194201800Y-56346326D01*
X194829839Y-56974365D01*
X194787743Y-56985646D01*
X194662347Y-57058043D01*
X194559963Y-57160427D01*
X194487566Y-57285823D01*
X194476286Y-57327919D01*
X193849419Y-56701052D01*
X193844895Y-56701521D01*
X193801279Y-56738744D01*
X193732047Y-56748167D01*
X193668712Y-56718664D01*
X193646809Y-56693386D01*
X193608958Y-56635450D01*
X193608955Y-56635447D01*
X193608954Y-56635445D01*
X193451853Y-56464787D01*
X193399430Y-56423985D01*
X193268813Y-56322321D01*
X193268807Y-56322317D01*
X193064805Y-56211916D01*
X193064796Y-56211913D01*
X192845417Y-56136599D01*
X192673817Y-56107964D01*
X192616619Y-56098420D01*
X192384661Y-56098420D01*
X192338902Y-56106055D01*
X192155862Y-56136599D01*
X191936483Y-56211913D01*
X191936474Y-56211916D01*
X191732472Y-56322317D01*
X191732466Y-56322321D01*
X191549434Y-56464781D01*
X191549424Y-56464790D01*
X191392323Y-56635448D01*
X191318681Y-56748167D01*
X191279712Y-56807814D01*
X191274101Y-56816402D01*
X191220954Y-56861758D01*
X191170292Y-56872580D01*
X191082161Y-56872580D01*
X191082141Y-56872579D01*
X191076027Y-56872579D01*
X190952814Y-56872579D01*
X190852017Y-56892628D01*
X190852012Y-56892628D01*
X190831971Y-56896615D01*
X190811355Y-56905155D01*
X190800079Y-56909826D01*
X190800078Y-56909826D01*
X190718141Y-56943764D01*
X190718128Y-56943771D01*
X190615687Y-57012221D01*
X190615683Y-57012224D01*
X189339727Y-58288181D01*
X189278404Y-58321666D01*
X189252046Y-58324500D01*
X188913331Y-58324500D01*
X188913312Y-58324501D01*
X188812247Y-58334825D01*
X188648484Y-58389092D01*
X188648481Y-58389093D01*
X188501648Y-58479661D01*
X188387681Y-58593629D01*
X188326358Y-58627114D01*
X188256666Y-58622130D01*
X188212319Y-58593629D01*
X188098347Y-58479657D01*
X188071901Y-58463345D01*
X188025178Y-58411397D01*
X188013000Y-58357808D01*
X188013000Y-58319291D01*
X188032685Y-58252252D01*
X188071904Y-58213752D01*
X188076513Y-58210908D01*
X188076516Y-58210908D01*
X188223350Y-58120340D01*
X188345340Y-57998350D01*
X188435908Y-57851516D01*
X188490174Y-57687753D01*
X188500500Y-57586677D01*
X188500499Y-57013324D01*
X188500386Y-57012222D01*
X188490174Y-56912247D01*
X188485950Y-56899500D01*
X188435908Y-56748484D01*
X188345340Y-56601650D01*
X188223350Y-56479660D01*
X188120528Y-56416239D01*
X188076518Y-56389093D01*
X188076513Y-56389091D01*
X188075069Y-56388612D01*
X187912753Y-56334826D01*
X187912751Y-56334825D01*
X187811678Y-56324500D01*
X187113330Y-56324500D01*
X187113312Y-56324501D01*
X187012247Y-56334825D01*
X186848484Y-56389092D01*
X186848481Y-56389093D01*
X186701648Y-56479661D01*
X186687325Y-56493984D01*
X186626001Y-56527468D01*
X186556309Y-56522482D01*
X186511965Y-56493982D01*
X186498038Y-56480055D01*
X186498034Y-56480052D01*
X186351311Y-56389551D01*
X186351300Y-56389546D01*
X186187652Y-56335319D01*
X186086654Y-56325000D01*
X185987500Y-56325000D01*
X185987500Y-57426000D01*
X185967815Y-57493039D01*
X185915011Y-57538794D01*
X185863500Y-57550000D01*
X184700001Y-57550000D01*
X184700001Y-57550500D01*
X184680316Y-57617539D01*
X184627512Y-57663294D01*
X184576001Y-57674500D01*
X181883687Y-57674500D01*
X181816648Y-57654815D01*
X181770893Y-57602011D01*
X181760329Y-57537897D01*
X181762499Y-57516653D01*
X181762500Y-57516641D01*
X181762500Y-57480000D01*
X180599000Y-57480000D01*
X180531961Y-57460315D01*
X180486206Y-57407511D01*
X180475000Y-57356000D01*
X180475000Y-57050000D01*
X184700000Y-57050000D01*
X185487500Y-57050000D01*
X185487500Y-56324999D01*
X185388360Y-56325000D01*
X185388344Y-56325001D01*
X185287347Y-56335319D01*
X185123699Y-56389546D01*
X185123688Y-56389551D01*
X184976965Y-56480052D01*
X184976961Y-56480055D01*
X184855055Y-56601961D01*
X184855052Y-56601965D01*
X184764551Y-56748688D01*
X184764546Y-56748699D01*
X184710319Y-56912347D01*
X184700000Y-57013345D01*
X184700000Y-57050000D01*
X180475000Y-57050000D01*
X180475000Y-56255000D01*
X180975000Y-56255000D01*
X180975000Y-56980000D01*
X181762499Y-56980000D01*
X181762499Y-56943360D01*
X181762498Y-56943345D01*
X181752180Y-56842347D01*
X181697953Y-56678699D01*
X181697948Y-56678688D01*
X181607447Y-56531965D01*
X181607444Y-56531961D01*
X181485538Y-56410055D01*
X181485534Y-56410052D01*
X181338811Y-56319551D01*
X181338800Y-56319546D01*
X181175152Y-56265319D01*
X181074154Y-56255000D01*
X180975000Y-56255000D01*
X180475000Y-56255000D01*
X180475000Y-56254999D01*
X180375860Y-56255000D01*
X180375844Y-56255001D01*
X180274847Y-56265319D01*
X180111199Y-56319546D01*
X180111188Y-56319551D01*
X179964465Y-56410052D01*
X179950532Y-56423985D01*
X179889208Y-56457468D01*
X179819516Y-56452482D01*
X179775172Y-56423982D01*
X179760851Y-56409661D01*
X179760850Y-56409660D01*
X179623596Y-56325001D01*
X179614018Y-56319093D01*
X179614013Y-56319091D01*
X179612569Y-56318612D01*
X179450253Y-56264826D01*
X179450251Y-56264825D01*
X179349178Y-56254500D01*
X178650830Y-56254500D01*
X178650812Y-56254501D01*
X178549747Y-56264825D01*
X178385984Y-56319092D01*
X178385981Y-56319093D01*
X178239148Y-56409661D01*
X178117161Y-56531648D01*
X178026593Y-56678481D01*
X178026591Y-56678486D01*
X178013277Y-56718665D01*
X177972326Y-56842247D01*
X177972326Y-56842248D01*
X177972325Y-56842248D01*
X177962000Y-56943315D01*
X177962000Y-57516669D01*
X177962001Y-57516687D01*
X177972325Y-57617752D01*
X177995521Y-57687751D01*
X178021479Y-57766087D01*
X178026592Y-57781515D01*
X178026593Y-57781518D01*
X178033377Y-57792517D01*
X178083161Y-57873229D01*
X178101601Y-57940621D01*
X178080678Y-58007284D01*
X178065305Y-58026004D01*
X178042683Y-58048627D01*
X177981361Y-58082114D01*
X177911669Y-58077131D01*
X177867319Y-58048629D01*
X177753351Y-57934661D01*
X177753350Y-57934660D01*
X177619556Y-57852135D01*
X177606518Y-57844093D01*
X177606513Y-57844091D01*
X177581290Y-57835733D01*
X177442753Y-57789826D01*
X177442751Y-57789825D01*
X177341684Y-57779500D01*
X177341677Y-57779500D01*
X177002952Y-57779500D01*
X176935913Y-57759815D01*
X176915271Y-57743181D01*
X176275778Y-57103688D01*
X176275758Y-57103666D01*
X176184316Y-57012224D01*
X176184308Y-57012218D01*
X176112860Y-56964478D01*
X176112859Y-56964477D01*
X176081870Y-56943770D01*
X176081866Y-56943768D01*
X176080772Y-56943315D01*
X175999921Y-56909826D01*
X175999919Y-56909825D01*
X175968033Y-56896617D01*
X175953010Y-56893629D01*
X175907609Y-56884598D01*
X175847190Y-56872580D01*
X175847187Y-56872580D01*
X175847186Y-56872580D01*
X174829708Y-56872580D01*
X174762669Y-56852895D01*
X174725899Y-56816402D01*
X174720289Y-56807816D01*
X174607674Y-56635445D01*
X174450573Y-56464787D01*
X174398150Y-56423985D01*
X174267533Y-56322321D01*
X174267527Y-56322317D01*
X174063525Y-56211916D01*
X174063516Y-56211913D01*
X173844137Y-56136599D01*
X173672537Y-56107964D01*
X173615339Y-56098420D01*
X173383381Y-56098420D01*
X173337622Y-56106055D01*
X173154582Y-56136599D01*
X172935203Y-56211913D01*
X172935194Y-56211916D01*
X172731192Y-56322317D01*
X172731186Y-56322321D01*
X172548154Y-56464781D01*
X172548144Y-56464790D01*
X172534092Y-56480055D01*
X172391046Y-56635445D01*
X172391044Y-56635447D01*
X172391042Y-56635450D01*
X172353188Y-56693389D01*
X172300041Y-56738745D01*
X172230809Y-56748168D01*
X172167474Y-56718665D01*
X172152374Y-56701238D01*
X172150579Y-56701052D01*
X171523713Y-57327918D01*
X171512434Y-57285823D01*
X171440037Y-57160427D01*
X171337653Y-57058043D01*
X171212257Y-56985646D01*
X171170160Y-56974366D01*
X171798198Y-56346326D01*
X171798198Y-56346325D01*
X171767892Y-56322737D01*
X171563963Y-56212375D01*
X171563958Y-56212373D01*
X171344653Y-56137086D01*
X171115937Y-56098920D01*
X170884063Y-56098920D01*
X170655346Y-56137086D01*
X170436041Y-56212373D01*
X170436036Y-56212375D01*
X170232111Y-56322735D01*
X170201800Y-56346326D01*
X170829839Y-56974365D01*
X170787743Y-56985646D01*
X170662347Y-57058043D01*
X170559963Y-57160427D01*
X170487566Y-57285823D01*
X170476286Y-57327919D01*
X169849419Y-56701052D01*
X169844895Y-56701521D01*
X169801279Y-56738744D01*
X169732047Y-56748167D01*
X169668712Y-56718664D01*
X169646809Y-56693386D01*
X169608958Y-56635450D01*
X169608955Y-56635447D01*
X169608954Y-56635445D01*
X169451853Y-56464787D01*
X169399430Y-56423985D01*
X169268813Y-56322321D01*
X169268807Y-56322317D01*
X169064805Y-56211916D01*
X169064796Y-56211913D01*
X168845417Y-56136599D01*
X168673817Y-56107964D01*
X168616619Y-56098420D01*
X168384661Y-56098420D01*
X168338902Y-56106055D01*
X168155862Y-56136599D01*
X167936483Y-56211913D01*
X167936474Y-56211916D01*
X167732472Y-56322317D01*
X167732466Y-56322321D01*
X167549434Y-56464781D01*
X167549424Y-56464790D01*
X167392323Y-56635448D01*
X167318681Y-56748167D01*
X167279712Y-56807814D01*
X167274101Y-56816402D01*
X167220954Y-56861758D01*
X167170292Y-56872580D01*
X167140309Y-56872580D01*
X167034490Y-56893629D01*
X167020660Y-56896380D01*
X167019468Y-56896617D01*
X167019467Y-56896617D01*
X167019464Y-56896618D01*
X166905636Y-56943767D01*
X166815921Y-57003714D01*
X166815917Y-57003717D01*
X166803186Y-57012222D01*
X166228733Y-57586676D01*
X165678669Y-58136740D01*
X165678667Y-58136742D01*
X165655510Y-58159899D01*
X165591542Y-58223866D01*
X165583220Y-58236321D01*
X165561290Y-58269142D01*
X165536414Y-58306371D01*
X165523084Y-58326320D01*
X165497085Y-58389090D01*
X165497085Y-58389092D01*
X165475937Y-58440148D01*
X165475936Y-58440152D01*
X165475936Y-58440153D01*
X165475935Y-58440154D01*
X165462268Y-58508865D01*
X165429883Y-58570776D01*
X165405749Y-58590211D01*
X165366550Y-58614389D01*
X165366549Y-58614390D01*
X165252581Y-58728359D01*
X165191258Y-58761844D01*
X165121566Y-58756860D01*
X165077219Y-58728359D01*
X164962305Y-58613445D01*
X164928820Y-58552122D01*
X164933804Y-58482430D01*
X164975676Y-58426497D01*
X164984874Y-58420236D01*
X164993250Y-58415070D01*
X165115240Y-58293080D01*
X165205808Y-58146246D01*
X165260074Y-57982483D01*
X165270400Y-57881407D01*
X165270399Y-57308054D01*
X165269417Y-57298444D01*
X165260074Y-57206977D01*
X165258788Y-57203096D01*
X165205808Y-57043214D01*
X165115240Y-56896380D01*
X164993250Y-56774390D01*
X164873457Y-56700501D01*
X164846418Y-56683823D01*
X164846413Y-56683821D01*
X164830298Y-56678481D01*
X164682653Y-56629556D01*
X164682651Y-56629555D01*
X164581578Y-56619230D01*
X163883230Y-56619230D01*
X163883212Y-56619231D01*
X163782147Y-56629555D01*
X163618384Y-56683822D01*
X163618381Y-56683823D01*
X163471548Y-56774391D01*
X163457225Y-56788714D01*
X163395901Y-56822198D01*
X163326209Y-56817212D01*
X163281865Y-56788712D01*
X163267938Y-56774785D01*
X163267934Y-56774782D01*
X163121211Y-56684281D01*
X163121200Y-56684276D01*
X162957552Y-56630049D01*
X162856554Y-56619730D01*
X162757400Y-56619730D01*
X162757400Y-58569729D01*
X162856540Y-58569729D01*
X162856554Y-58569728D01*
X162957552Y-58559410D01*
X163121200Y-58505183D01*
X163121211Y-58505178D01*
X163267935Y-58414677D01*
X163281860Y-58400751D01*
X163343182Y-58367263D01*
X163412873Y-58372244D01*
X163457227Y-58400747D01*
X163471550Y-58415070D01*
X163504649Y-58435486D01*
X163551373Y-58487433D01*
X163562596Y-58556395D01*
X163534752Y-58620478D01*
X163527234Y-58628704D01*
X163419561Y-58736378D01*
X163328993Y-58883211D01*
X163328991Y-58883216D01*
X163310003Y-58940518D01*
X163274726Y-59046977D01*
X163274726Y-59046978D01*
X163274725Y-59046978D01*
X163264400Y-59148045D01*
X163264400Y-59721399D01*
X163264401Y-59721417D01*
X163274725Y-59822482D01*
X163292004Y-59874625D01*
X163326216Y-59977870D01*
X163328992Y-59986245D01*
X163328993Y-59986248D01*
X163341405Y-60006371D01*
X163398138Y-60098350D01*
X163419561Y-60133081D01*
X163541550Y-60255070D01*
X163567996Y-60271382D01*
X163614721Y-60323330D01*
X163626900Y-60376921D01*
X163626900Y-62437147D01*
X163607215Y-62504186D01*
X163590581Y-62524828D01*
X161814144Y-64301264D01*
X161814138Y-64301272D01*
X161745692Y-64403705D01*
X161745684Y-64403720D01*
X161712347Y-64484204D01*
X161712347Y-64484207D01*
X161708415Y-64493702D01*
X161700399Y-64513055D01*
X161700394Y-64513065D01*
X161698539Y-64517540D01*
X161698536Y-64517550D01*
X161677458Y-64623526D01*
X161677456Y-64623532D01*
X161674500Y-64638389D01*
X161674500Y-64802019D01*
X161654815Y-64869058D01*
X161606797Y-64912503D01*
X161592180Y-64919950D01*
X161420213Y-65044890D01*
X161269894Y-65195209D01*
X161269890Y-65195214D01*
X161150318Y-65359793D01*
X161094989Y-65402459D01*
X161025375Y-65408438D01*
X160963580Y-65375833D01*
X160949682Y-65359793D01*
X160830109Y-65195214D01*
X160830105Y-65195209D01*
X160679786Y-65044890D01*
X160507820Y-64919951D01*
X160318414Y-64823444D01*
X160318413Y-64823443D01*
X160318412Y-64823443D01*
X160116243Y-64757754D01*
X160116241Y-64757753D01*
X160116240Y-64757753D01*
X159946234Y-64730827D01*
X159906287Y-64724500D01*
X159693713Y-64724500D01*
X159653766Y-64730827D01*
X159483760Y-64757753D01*
X159281585Y-64823444D01*
X159092179Y-64919951D01*
X158920213Y-65044890D01*
X158769894Y-65195209D01*
X158769890Y-65195214D01*
X158650318Y-65359793D01*
X158594989Y-65402459D01*
X158525375Y-65408438D01*
X158463580Y-65375833D01*
X158449682Y-65359793D01*
X158330109Y-65195214D01*
X158330105Y-65195209D01*
X158179786Y-65044890D01*
X158007820Y-64919951D01*
X157818414Y-64823444D01*
X157818413Y-64823443D01*
X157818412Y-64823443D01*
X157616243Y-64757754D01*
X157616241Y-64757753D01*
X157616240Y-64757753D01*
X157446234Y-64730827D01*
X157406287Y-64724500D01*
X157193713Y-64724500D01*
X157153766Y-64730827D01*
X156983760Y-64757753D01*
X156781585Y-64823444D01*
X156592179Y-64919951D01*
X156420213Y-65044890D01*
X156269894Y-65195209D01*
X156269890Y-65195214D01*
X156150318Y-65359793D01*
X156094989Y-65402459D01*
X156025375Y-65408438D01*
X155963580Y-65375833D01*
X155949682Y-65359793D01*
X155830109Y-65195214D01*
X155830105Y-65195209D01*
X155679786Y-65044890D01*
X155507820Y-64919951D01*
X155318414Y-64823444D01*
X155318413Y-64823443D01*
X155318412Y-64823443D01*
X155116243Y-64757754D01*
X155116241Y-64757753D01*
X155116240Y-64757753D01*
X154946234Y-64730827D01*
X154906287Y-64724500D01*
X154693713Y-64724500D01*
X154653766Y-64730827D01*
X154483760Y-64757753D01*
X154281585Y-64823444D01*
X154092179Y-64919951D01*
X153920213Y-65044890D01*
X153769894Y-65195209D01*
X153769890Y-65195214D01*
X153650318Y-65359793D01*
X153594989Y-65402459D01*
X153525375Y-65408438D01*
X153463580Y-65375833D01*
X153449682Y-65359793D01*
X153330109Y-65195214D01*
X153330105Y-65195209D01*
X153179786Y-65044890D01*
X153007820Y-64919951D01*
X152818414Y-64823444D01*
X152818413Y-64823443D01*
X152818412Y-64823443D01*
X152616243Y-64757754D01*
X152616241Y-64757753D01*
X152616240Y-64757753D01*
X152446234Y-64730827D01*
X152406287Y-64724500D01*
X152193713Y-64724500D01*
X152153766Y-64730827D01*
X151983760Y-64757753D01*
X151781585Y-64823444D01*
X151592179Y-64919951D01*
X151420213Y-65044890D01*
X151269890Y-65195213D01*
X151144951Y-65367179D01*
X151048444Y-65556585D01*
X150982753Y-65758760D01*
X150949500Y-65968713D01*
X150949500Y-66431286D01*
X150981908Y-66635906D01*
X150982754Y-66641243D01*
X151045358Y-66833918D01*
X151048444Y-66843414D01*
X151144951Y-67032820D01*
X151269890Y-67204786D01*
X151420213Y-67355109D01*
X151592179Y-67480048D01*
X151592181Y-67480049D01*
X151592184Y-67480051D01*
X151781588Y-67576557D01*
X151983757Y-67642246D01*
X152193713Y-67675500D01*
X152193714Y-67675500D01*
X152406286Y-67675500D01*
X152406287Y-67675500D01*
X152616243Y-67642246D01*
X152818412Y-67576557D01*
X153007816Y-67480051D01*
X153054275Y-67446297D01*
X153179786Y-67355109D01*
X153179788Y-67355106D01*
X153179792Y-67355104D01*
X153330104Y-67204792D01*
X153449683Y-67040204D01*
X153505011Y-66997540D01*
X153574624Y-66991561D01*
X153636420Y-67024166D01*
X153650313Y-67040199D01*
X153684271Y-67086938D01*
X153769896Y-67204792D01*
X153920213Y-67355109D01*
X154092179Y-67480048D01*
X154092181Y-67480049D01*
X154092184Y-67480051D01*
X154281588Y-67576557D01*
X154483757Y-67642246D01*
X154693713Y-67675500D01*
X154693714Y-67675500D01*
X154906286Y-67675500D01*
X154906287Y-67675500D01*
X155116243Y-67642246D01*
X155318412Y-67576557D01*
X155507816Y-67480051D01*
X155554275Y-67446297D01*
X155679786Y-67355109D01*
X155679788Y-67355106D01*
X155679792Y-67355104D01*
X155830104Y-67204792D01*
X155949683Y-67040204D01*
X156005011Y-66997540D01*
X156074624Y-66991561D01*
X156136420Y-67024166D01*
X156150313Y-67040199D01*
X156184271Y-67086938D01*
X156269896Y-67204792D01*
X156420213Y-67355109D01*
X156592179Y-67480048D01*
X156592181Y-67480049D01*
X156592184Y-67480051D01*
X156781588Y-67576557D01*
X156983757Y-67642246D01*
X157193713Y-67675500D01*
X157193714Y-67675500D01*
X157406286Y-67675500D01*
X157406287Y-67675500D01*
X157616243Y-67642246D01*
X157818412Y-67576557D01*
X158007816Y-67480051D01*
X158054275Y-67446297D01*
X158179786Y-67355109D01*
X158179788Y-67355106D01*
X158179792Y-67355104D01*
X158330104Y-67204792D01*
X158449683Y-67040204D01*
X158505011Y-66997540D01*
X158574624Y-66991561D01*
X158636420Y-67024166D01*
X158650313Y-67040199D01*
X158684271Y-67086938D01*
X158769896Y-67204792D01*
X158920213Y-67355109D01*
X159092179Y-67480048D01*
X159092181Y-67480049D01*
X159092184Y-67480051D01*
X159281588Y-67576557D01*
X159483757Y-67642246D01*
X159693713Y-67675500D01*
X159693714Y-67675500D01*
X159906286Y-67675500D01*
X159906287Y-67675500D01*
X160116243Y-67642246D01*
X160318412Y-67576557D01*
X160507816Y-67480051D01*
X160554275Y-67446297D01*
X160679786Y-67355109D01*
X160679788Y-67355106D01*
X160679792Y-67355104D01*
X160830104Y-67204792D01*
X160949683Y-67040204D01*
X161005011Y-66997540D01*
X161074624Y-66991561D01*
X161136420Y-67024166D01*
X161150313Y-67040199D01*
X161184271Y-67086938D01*
X161269896Y-67204792D01*
X161420213Y-67355109D01*
X161592179Y-67480048D01*
X161592181Y-67480049D01*
X161592184Y-67480051D01*
X161781588Y-67576557D01*
X161983757Y-67642246D01*
X162193713Y-67675500D01*
X162193714Y-67675500D01*
X162406286Y-67675500D01*
X162406287Y-67675500D01*
X162616243Y-67642246D01*
X162818412Y-67576557D01*
X163007816Y-67480051D01*
X163054275Y-67446297D01*
X163179786Y-67355109D01*
X163179788Y-67355106D01*
X163179792Y-67355104D01*
X163330104Y-67204792D01*
X163449683Y-67040204D01*
X163505011Y-66997540D01*
X163574624Y-66991561D01*
X163636420Y-67024166D01*
X163650313Y-67040199D01*
X163684271Y-67086938D01*
X163769896Y-67204792D01*
X163920213Y-67355109D01*
X164092179Y-67480048D01*
X164092181Y-67480049D01*
X164092184Y-67480051D01*
X164281588Y-67576557D01*
X164483757Y-67642246D01*
X164693713Y-67675500D01*
X164693714Y-67675500D01*
X164906286Y-67675500D01*
X164906287Y-67675500D01*
X165116243Y-67642246D01*
X165318412Y-67576557D01*
X165507816Y-67480051D01*
X165554275Y-67446297D01*
X165679786Y-67355109D01*
X165679788Y-67355106D01*
X165679792Y-67355104D01*
X165830104Y-67204792D01*
X165949683Y-67040204D01*
X166005011Y-66997540D01*
X166074624Y-66991561D01*
X166136420Y-67024166D01*
X166150313Y-67040199D01*
X166184271Y-67086938D01*
X166269896Y-67204792D01*
X166420213Y-67355109D01*
X166592179Y-67480048D01*
X166592181Y-67480049D01*
X166592184Y-67480051D01*
X166781588Y-67576557D01*
X166983757Y-67642246D01*
X167193713Y-67675500D01*
X167193714Y-67675500D01*
X167406286Y-67675500D01*
X167406287Y-67675500D01*
X167616243Y-67642246D01*
X167726186Y-67606522D01*
X167796024Y-67604528D01*
X167852183Y-67636773D01*
X170401262Y-70185854D01*
X170401265Y-70185857D01*
X170503715Y-70254312D01*
X170519715Y-70260939D01*
X170574118Y-70304780D01*
X170596183Y-70371074D01*
X170578904Y-70438773D01*
X170527767Y-70486384D01*
X170472262Y-70499500D01*
X144792722Y-70499500D01*
X144725683Y-70479815D01*
X144679928Y-70427011D01*
X144669984Y-70357853D01*
X144699009Y-70294297D01*
X144757787Y-70256523D01*
X144766066Y-70254399D01*
X145084142Y-70184384D01*
X145423255Y-70070123D01*
X145423260Y-70070122D01*
X145748009Y-69919876D01*
X146054629Y-69735390D01*
X146054632Y-69735388D01*
X146339509Y-69518831D01*
X146352742Y-69506295D01*
X146352742Y-69506294D01*
X145140699Y-68294251D01*
X145242330Y-68220412D01*
X145420412Y-68042330D01*
X145494251Y-67940698D01*
X146703556Y-69150002D01*
X146830972Y-68999998D01*
X146830975Y-68999994D01*
X147031781Y-68703827D01*
X147199393Y-68387677D01*
X147199402Y-68387659D01*
X147331850Y-68055239D01*
X147331852Y-68055232D01*
X147427578Y-67710457D01*
X147427584Y-67710431D01*
X147485472Y-67357331D01*
X147485473Y-67357314D01*
X147504847Y-67000002D01*
X147504847Y-66999997D01*
X147485473Y-66642685D01*
X147485472Y-66642668D01*
X147427584Y-66289568D01*
X147427578Y-66289542D01*
X147331852Y-65944767D01*
X147331850Y-65944760D01*
X147199402Y-65612340D01*
X147199393Y-65612322D01*
X147031781Y-65296172D01*
X146830975Y-65000005D01*
X146830964Y-64999991D01*
X146703556Y-64849996D01*
X145494251Y-66059300D01*
X145420412Y-65957670D01*
X145242330Y-65779588D01*
X145140698Y-65705748D01*
X146352742Y-64493704D01*
X146339504Y-64481163D01*
X146054632Y-64264611D01*
X146054629Y-64264609D01*
X145748009Y-64080123D01*
X145423260Y-63929877D01*
X145423255Y-63929876D01*
X145084144Y-63815616D01*
X144734660Y-63738688D01*
X144378924Y-63700000D01*
X144021075Y-63700000D01*
X143665339Y-63738688D01*
X143315855Y-63815616D01*
X142976744Y-63929876D01*
X142976739Y-63929877D01*
X142651990Y-64080123D01*
X142345370Y-64264609D01*
X142345367Y-64264611D01*
X142060486Y-64481170D01*
X142060485Y-64481171D01*
X142047257Y-64493702D01*
X142047256Y-64493703D01*
X143259301Y-65705748D01*
X143157670Y-65779588D01*
X142979588Y-65957670D01*
X142905748Y-66059301D01*
X141696442Y-64849995D01*
X141696441Y-64849996D01*
X141569033Y-64999992D01*
X141368218Y-65296172D01*
X141200606Y-65612322D01*
X141200597Y-65612340D01*
X141068149Y-65944760D01*
X141068147Y-65944767D01*
X140972421Y-66289542D01*
X140972415Y-66289568D01*
X140914527Y-66642668D01*
X140914526Y-66642685D01*
X140895153Y-66999997D01*
X140895153Y-67000002D01*
X140914526Y-67357314D01*
X140914527Y-67357331D01*
X140972415Y-67710431D01*
X140972421Y-67710457D01*
X141068147Y-68055232D01*
X141068149Y-68055239D01*
X141200597Y-68387659D01*
X141200606Y-68387677D01*
X141368218Y-68703827D01*
X141569024Y-68999994D01*
X141569035Y-69000008D01*
X141696441Y-69150002D01*
X141696442Y-69150002D01*
X142905747Y-67940697D01*
X142979588Y-68042330D01*
X143157670Y-68220412D01*
X143259300Y-68294251D01*
X142047257Y-69506294D01*
X142060495Y-69518836D01*
X142345367Y-69735388D01*
X142345370Y-69735390D01*
X142651990Y-69919876D01*
X142976739Y-70070122D01*
X142976744Y-70070123D01*
X143315857Y-70184384D01*
X143633934Y-70254399D01*
X143695175Y-70288035D01*
X143728509Y-70349440D01*
X143723353Y-70419120D01*
X143681344Y-70474950D01*
X143615819Y-70499205D01*
X143607278Y-70499500D01*
X140624500Y-70499500D01*
X140557461Y-70479815D01*
X140511706Y-70427011D01*
X140500500Y-70375500D01*
X140500500Y-57844730D01*
X161469901Y-57844730D01*
X161469901Y-57881384D01*
X161480219Y-57982382D01*
X161534446Y-58146030D01*
X161534451Y-58146041D01*
X161624952Y-58292764D01*
X161624955Y-58292768D01*
X161746861Y-58414674D01*
X161746865Y-58414677D01*
X161893588Y-58505178D01*
X161893599Y-58505183D01*
X162057247Y-58559410D01*
X162158251Y-58569729D01*
X162257400Y-58569728D01*
X162257400Y-57844730D01*
X161469901Y-57844730D01*
X140500500Y-57844730D01*
X140500500Y-57344730D01*
X161469900Y-57344730D01*
X162257400Y-57344730D01*
X162257400Y-56619729D01*
X162158260Y-56619730D01*
X162158244Y-56619731D01*
X162057247Y-56630049D01*
X161893599Y-56684276D01*
X161893588Y-56684281D01*
X161746865Y-56774782D01*
X161746861Y-56774785D01*
X161624955Y-56896691D01*
X161624952Y-56896695D01*
X161534451Y-57043418D01*
X161534446Y-57043429D01*
X161480219Y-57207077D01*
X161469900Y-57308075D01*
X161469900Y-57344730D01*
X140500500Y-57344730D01*
X140500500Y-51781951D01*
X143239500Y-51781951D01*
X143266013Y-51983333D01*
X143271334Y-52023744D01*
X143333312Y-52255051D01*
X143334456Y-52259320D01*
X143334459Y-52259330D01*
X143427786Y-52484640D01*
X143427791Y-52484651D01*
X143549727Y-52695848D01*
X143549738Y-52695864D01*
X143698199Y-52889343D01*
X143698205Y-52889350D01*
X143870649Y-53061794D01*
X143870656Y-53061800D01*
X143957421Y-53128377D01*
X144064144Y-53210268D01*
X144064151Y-53210272D01*
X144275348Y-53332208D01*
X144275353Y-53332210D01*
X144275356Y-53332212D01*
X144500679Y-53425544D01*
X144736256Y-53488666D01*
X144978056Y-53520500D01*
X144978063Y-53520500D01*
X145221937Y-53520500D01*
X145221944Y-53520500D01*
X145463744Y-53488666D01*
X145699321Y-53425544D01*
X145924644Y-53332212D01*
X146135856Y-53210268D01*
X146329345Y-53061799D01*
X146501799Y-52889345D01*
X146650268Y-52695856D01*
X146772212Y-52484644D01*
X146865544Y-52259321D01*
X146928666Y-52023744D01*
X146960499Y-51781951D01*
X152839500Y-51781951D01*
X152866013Y-51983333D01*
X152871334Y-52023744D01*
X152933312Y-52255051D01*
X152934456Y-52259320D01*
X152934459Y-52259330D01*
X153027786Y-52484640D01*
X153027791Y-52484651D01*
X153149727Y-52695848D01*
X153149738Y-52695864D01*
X153298199Y-52889343D01*
X153298205Y-52889350D01*
X153470649Y-53061794D01*
X153470656Y-53061800D01*
X153557421Y-53128377D01*
X153664144Y-53210268D01*
X153664151Y-53210272D01*
X153875348Y-53332208D01*
X153875353Y-53332210D01*
X153875356Y-53332212D01*
X154100679Y-53425544D01*
X154336256Y-53488666D01*
X154578056Y-53520500D01*
X154578063Y-53520500D01*
X154821937Y-53520500D01*
X154821944Y-53520500D01*
X155063744Y-53488666D01*
X155299321Y-53425544D01*
X155524644Y-53332212D01*
X155735856Y-53210268D01*
X155929345Y-53061799D01*
X156101799Y-52889345D01*
X156250268Y-52695856D01*
X156372212Y-52484644D01*
X156465544Y-52259321D01*
X156528666Y-52023744D01*
X156560500Y-51781944D01*
X156560500Y-51018056D01*
X156528666Y-50776256D01*
X156465544Y-50540679D01*
X156454105Y-50513064D01*
X156372213Y-50315359D01*
X156372208Y-50315348D01*
X156250272Y-50104151D01*
X156250268Y-50104144D01*
X156170356Y-50000000D01*
X163387772Y-50000000D01*
X163406980Y-50280820D01*
X163406981Y-50280822D01*
X163464245Y-50556394D01*
X163464246Y-50556400D01*
X163464248Y-50556407D01*
X163464249Y-50556409D01*
X163558509Y-50821634D01*
X163558510Y-50821637D01*
X163558511Y-50821638D01*
X163574309Y-50852127D01*
X163688007Y-51071553D01*
X163850329Y-51301510D01*
X163850333Y-51301514D01*
X163850333Y-51301515D01*
X164042455Y-51507226D01*
X164118006Y-51568691D01*
X164260796Y-51684860D01*
X164260798Y-51684861D01*
X164260799Y-51684862D01*
X164501296Y-51831112D01*
X164501301Y-51831114D01*
X164759463Y-51943249D01*
X164759468Y-51943251D01*
X165030507Y-52019193D01*
X165275665Y-52052888D01*
X165309361Y-52057520D01*
X165309362Y-52057520D01*
X165590839Y-52057520D01*
X165620901Y-52053387D01*
X165869693Y-52019193D01*
X166140732Y-51943251D01*
X166398905Y-51831111D01*
X166639404Y-51684860D01*
X166857748Y-51507223D01*
X167049871Y-51301510D01*
X167212193Y-51071553D01*
X167341691Y-50821634D01*
X167435951Y-50556409D01*
X167493219Y-50280820D01*
X167512428Y-50000000D01*
X174487572Y-50000000D01*
X174506780Y-50280820D01*
X174506781Y-50280822D01*
X174564045Y-50556394D01*
X174564046Y-50556400D01*
X174564048Y-50556407D01*
X174564049Y-50556409D01*
X174658309Y-50821634D01*
X174658310Y-50821637D01*
X174658311Y-50821638D01*
X174674109Y-50852127D01*
X174787807Y-51071553D01*
X174950129Y-51301510D01*
X174950133Y-51301514D01*
X174950133Y-51301515D01*
X175142255Y-51507226D01*
X175217806Y-51568691D01*
X175360596Y-51684860D01*
X175360598Y-51684861D01*
X175360599Y-51684862D01*
X175601096Y-51831112D01*
X175601101Y-51831114D01*
X175859263Y-51943249D01*
X175859268Y-51943251D01*
X176130307Y-52019193D01*
X176375465Y-52052888D01*
X176409161Y-52057520D01*
X176409162Y-52057520D01*
X176690639Y-52057520D01*
X176720701Y-52053387D01*
X176969493Y-52019193D01*
X177037986Y-52000002D01*
X179695153Y-52000002D01*
X179714526Y-52357314D01*
X179714527Y-52357331D01*
X179772415Y-52710431D01*
X179772421Y-52710457D01*
X179868147Y-53055232D01*
X179868149Y-53055239D01*
X180000597Y-53387659D01*
X180000606Y-53387677D01*
X180168218Y-53703827D01*
X180369024Y-53999994D01*
X180369035Y-54000008D01*
X180496441Y-54150002D01*
X180496442Y-54150002D01*
X181705747Y-52940697D01*
X181779588Y-53042330D01*
X181957670Y-53220412D01*
X182059300Y-53294251D01*
X180847257Y-54506294D01*
X180860495Y-54518836D01*
X181145367Y-54735388D01*
X181145370Y-54735390D01*
X181451990Y-54919876D01*
X181776739Y-55070122D01*
X181776744Y-55070123D01*
X182115855Y-55184383D01*
X182465339Y-55261311D01*
X182821075Y-55299999D01*
X182821085Y-55300000D01*
X183178915Y-55300000D01*
X183178924Y-55299999D01*
X183534660Y-55261311D01*
X183884144Y-55184383D01*
X184223255Y-55070123D01*
X184223260Y-55070122D01*
X184548009Y-54919876D01*
X184854629Y-54735390D01*
X184854632Y-54735388D01*
X185139509Y-54518831D01*
X185152742Y-54506295D01*
X185152742Y-54506294D01*
X183940699Y-53294251D01*
X184042330Y-53220412D01*
X184220412Y-53042330D01*
X184294251Y-52940698D01*
X185503556Y-54150002D01*
X185630972Y-53999998D01*
X185630975Y-53999994D01*
X185831781Y-53703827D01*
X185999393Y-53387677D01*
X185999402Y-53387659D01*
X186131850Y-53055239D01*
X186131852Y-53055232D01*
X186227578Y-52710457D01*
X186227584Y-52710431D01*
X186285472Y-52357331D01*
X186285473Y-52357314D01*
X186304847Y-52000002D01*
X186304847Y-51999997D01*
X186285473Y-51642685D01*
X186285472Y-51642668D01*
X186227584Y-51289568D01*
X186227578Y-51289542D01*
X186131852Y-50944767D01*
X186131850Y-50944760D01*
X185999402Y-50612340D01*
X185999393Y-50612322D01*
X185831781Y-50296172D01*
X185630975Y-50000005D01*
X185630971Y-50000000D01*
X187387772Y-50000000D01*
X187406980Y-50280820D01*
X187406981Y-50280822D01*
X187464245Y-50556394D01*
X187464246Y-50556400D01*
X187464248Y-50556407D01*
X187464249Y-50556409D01*
X187558509Y-50821634D01*
X187558510Y-50821637D01*
X187558511Y-50821638D01*
X187574309Y-50852127D01*
X187688007Y-51071553D01*
X187850329Y-51301510D01*
X187850333Y-51301514D01*
X187850333Y-51301515D01*
X188042455Y-51507226D01*
X188118006Y-51568691D01*
X188260796Y-51684860D01*
X188260798Y-51684861D01*
X188260799Y-51684862D01*
X188501296Y-51831112D01*
X188501301Y-51831114D01*
X188759463Y-51943249D01*
X188759468Y-51943251D01*
X189030507Y-52019193D01*
X189275665Y-52052888D01*
X189309361Y-52057520D01*
X189309362Y-52057520D01*
X189590839Y-52057520D01*
X189620901Y-52053387D01*
X189869693Y-52019193D01*
X190140732Y-51943251D01*
X190398905Y-51831111D01*
X190639404Y-51684860D01*
X190857748Y-51507223D01*
X191049871Y-51301510D01*
X191212193Y-51071553D01*
X191341691Y-50821634D01*
X191435951Y-50556409D01*
X191493219Y-50280820D01*
X191512428Y-50000000D01*
X191493219Y-49719180D01*
X191435951Y-49443591D01*
X191341691Y-49178366D01*
X191212193Y-48928447D01*
X191049871Y-48698490D01*
X191049866Y-48698484D01*
X190857744Y-48492773D01*
X190639400Y-48315137D01*
X190398903Y-48168887D01*
X190398898Y-48168885D01*
X190140736Y-48056750D01*
X189869698Y-47980808D01*
X189869694Y-47980807D01*
X189869693Y-47980807D01*
X189730265Y-47961643D01*
X189590839Y-47942480D01*
X189590838Y-47942480D01*
X189309362Y-47942480D01*
X189309361Y-47942480D01*
X189030507Y-47980807D01*
X189030501Y-47980808D01*
X188759463Y-48056750D01*
X188501301Y-48168885D01*
X188501296Y-48168887D01*
X188260799Y-48315137D01*
X188042455Y-48492773D01*
X187850333Y-48698484D01*
X187850333Y-48698485D01*
X187850330Y-48698487D01*
X187850329Y-48698490D01*
X187811553Y-48753423D01*
X187688007Y-48928446D01*
X187558511Y-49178361D01*
X187558509Y-49178364D01*
X187558509Y-49178366D01*
X187522566Y-49279500D01*
X187464246Y-49443599D01*
X187464245Y-49443605D01*
X187406981Y-49719177D01*
X187406980Y-49719179D01*
X187387772Y-50000000D01*
X185630971Y-50000000D01*
X185630964Y-49999991D01*
X185503556Y-49849996D01*
X184294251Y-51059301D01*
X184220412Y-50957670D01*
X184042330Y-50779588D01*
X183940698Y-50705748D01*
X185152742Y-49493704D01*
X185139504Y-49481163D01*
X184854632Y-49264611D01*
X184854629Y-49264609D01*
X184548009Y-49080123D01*
X184223260Y-48929877D01*
X184223255Y-48929876D01*
X183884144Y-48815616D01*
X183534660Y-48738688D01*
X183178924Y-48700000D01*
X182821075Y-48700000D01*
X182465339Y-48738688D01*
X182115855Y-48815616D01*
X181776744Y-48929876D01*
X181776739Y-48929877D01*
X181451990Y-49080123D01*
X181145370Y-49264609D01*
X181145367Y-49264611D01*
X180860486Y-49481170D01*
X180860485Y-49481171D01*
X180847257Y-49493702D01*
X180847256Y-49493703D01*
X182059301Y-50705748D01*
X181957670Y-50779588D01*
X181779588Y-50957670D01*
X181705748Y-51059301D01*
X180496442Y-49849995D01*
X180496441Y-49849996D01*
X180369033Y-49999992D01*
X180168218Y-50296172D01*
X180000606Y-50612322D01*
X180000597Y-50612340D01*
X179868149Y-50944760D01*
X179868147Y-50944767D01*
X179772421Y-51289542D01*
X179772415Y-51289568D01*
X179714527Y-51642668D01*
X179714526Y-51642685D01*
X179695153Y-51999997D01*
X179695153Y-52000002D01*
X177037986Y-52000002D01*
X177240532Y-51943251D01*
X177498705Y-51831111D01*
X177739204Y-51684860D01*
X177957548Y-51507223D01*
X178149671Y-51301510D01*
X178311993Y-51071553D01*
X178441491Y-50821634D01*
X178535751Y-50556409D01*
X178593019Y-50280820D01*
X178612228Y-50000000D01*
X178593019Y-49719180D01*
X178535751Y-49443591D01*
X178441491Y-49178366D01*
X178311993Y-48928447D01*
X178149671Y-48698490D01*
X178149666Y-48698484D01*
X177957544Y-48492773D01*
X177739200Y-48315137D01*
X177498703Y-48168887D01*
X177498698Y-48168885D01*
X177240536Y-48056750D01*
X176969498Y-47980808D01*
X176969494Y-47980807D01*
X176969493Y-47980807D01*
X176830065Y-47961643D01*
X176690639Y-47942480D01*
X176690638Y-47942480D01*
X176409162Y-47942480D01*
X176409161Y-47942480D01*
X176130307Y-47980807D01*
X176130301Y-47980808D01*
X175859263Y-48056750D01*
X175601101Y-48168885D01*
X175601096Y-48168887D01*
X175360599Y-48315137D01*
X175142255Y-48492773D01*
X174950133Y-48698484D01*
X174950133Y-48698485D01*
X174950130Y-48698487D01*
X174950129Y-48698490D01*
X174911353Y-48753423D01*
X174787807Y-48928446D01*
X174658311Y-49178361D01*
X174658309Y-49178364D01*
X174658309Y-49178366D01*
X174622366Y-49279500D01*
X174564046Y-49443599D01*
X174564045Y-49443605D01*
X174506781Y-49719177D01*
X174506780Y-49719179D01*
X174487572Y-50000000D01*
X167512428Y-50000000D01*
X167493219Y-49719180D01*
X167435951Y-49443591D01*
X167341691Y-49178366D01*
X167212193Y-48928447D01*
X167049871Y-48698490D01*
X167049866Y-48698484D01*
X166857744Y-48492773D01*
X166639400Y-48315137D01*
X166398903Y-48168887D01*
X166398898Y-48168885D01*
X166140736Y-48056750D01*
X165869698Y-47980808D01*
X165869694Y-47980807D01*
X165869693Y-47980807D01*
X165730265Y-47961643D01*
X165590839Y-47942480D01*
X165590838Y-47942480D01*
X165309362Y-47942480D01*
X165309361Y-47942480D01*
X165030507Y-47980807D01*
X165030501Y-47980808D01*
X164759463Y-48056750D01*
X164501301Y-48168885D01*
X164501296Y-48168887D01*
X164260799Y-48315137D01*
X164042455Y-48492773D01*
X163850333Y-48698484D01*
X163850333Y-48698485D01*
X163850330Y-48698487D01*
X163850329Y-48698490D01*
X163811553Y-48753423D01*
X163688007Y-48928446D01*
X163558511Y-49178361D01*
X163558509Y-49178364D01*
X163558509Y-49178366D01*
X163522566Y-49279500D01*
X163464246Y-49443599D01*
X163464245Y-49443605D01*
X163406981Y-49719177D01*
X163406980Y-49719179D01*
X163387772Y-50000000D01*
X156170356Y-50000000D01*
X156101799Y-49910655D01*
X156101794Y-49910649D01*
X155929350Y-49738205D01*
X155929343Y-49738199D01*
X155735864Y-49589738D01*
X155735862Y-49589736D01*
X155735856Y-49589732D01*
X155735851Y-49589729D01*
X155735848Y-49589727D01*
X155524651Y-49467791D01*
X155524640Y-49467786D01*
X155299330Y-49374459D01*
X155299323Y-49374457D01*
X155299321Y-49374456D01*
X155063744Y-49311334D01*
X155023333Y-49306013D01*
X154821951Y-49279500D01*
X154821944Y-49279500D01*
X154578056Y-49279500D01*
X154578048Y-49279500D01*
X154347896Y-49309801D01*
X154336256Y-49311334D01*
X154157179Y-49359317D01*
X154100679Y-49374456D01*
X154100669Y-49374459D01*
X153875359Y-49467786D01*
X153875348Y-49467791D01*
X153664151Y-49589727D01*
X153664135Y-49589738D01*
X153470656Y-49738199D01*
X153470649Y-49738205D01*
X153298205Y-49910649D01*
X153298199Y-49910656D01*
X153149738Y-50104135D01*
X153149727Y-50104151D01*
X153027791Y-50315348D01*
X153027786Y-50315359D01*
X152934459Y-50540669D01*
X152934456Y-50540679D01*
X152873139Y-50769522D01*
X152871335Y-50776253D01*
X152871333Y-50776264D01*
X152839500Y-51018048D01*
X152839500Y-51781951D01*
X146960499Y-51781951D01*
X146960500Y-51781944D01*
X146960500Y-51018056D01*
X146928666Y-50776256D01*
X146865544Y-50540679D01*
X146854105Y-50513064D01*
X146772213Y-50315359D01*
X146772208Y-50315348D01*
X146650272Y-50104151D01*
X146650268Y-50104144D01*
X146501799Y-49910655D01*
X146501794Y-49910649D01*
X146329350Y-49738205D01*
X146329343Y-49738199D01*
X146135864Y-49589738D01*
X146135862Y-49589736D01*
X146135856Y-49589732D01*
X146135851Y-49589729D01*
X146135848Y-49589727D01*
X145924651Y-49467791D01*
X145924640Y-49467786D01*
X145699330Y-49374459D01*
X145699323Y-49374457D01*
X145699321Y-49374456D01*
X145463744Y-49311334D01*
X145423333Y-49306013D01*
X145221951Y-49279500D01*
X145221944Y-49279500D01*
X144978056Y-49279500D01*
X144978048Y-49279500D01*
X144747896Y-49309801D01*
X144736256Y-49311334D01*
X144557179Y-49359317D01*
X144500679Y-49374456D01*
X144500669Y-49374459D01*
X144275359Y-49467786D01*
X144275348Y-49467791D01*
X144064151Y-49589727D01*
X144064135Y-49589738D01*
X143870656Y-49738199D01*
X143870649Y-49738205D01*
X143698205Y-49910649D01*
X143698199Y-49910656D01*
X143549738Y-50104135D01*
X143549727Y-50104151D01*
X143427791Y-50315348D01*
X143427786Y-50315359D01*
X143334459Y-50540669D01*
X143334456Y-50540679D01*
X143273139Y-50769522D01*
X143271335Y-50776253D01*
X143271333Y-50776264D01*
X143239500Y-51018048D01*
X143239500Y-51781951D01*
X140500500Y-51781951D01*
X140500500Y-41750000D01*
X146600000Y-41750000D01*
X147387500Y-41750000D01*
X147387500Y-41024999D01*
X147288360Y-41025000D01*
X147288344Y-41025001D01*
X147187347Y-41035319D01*
X147023699Y-41089546D01*
X147023688Y-41089551D01*
X146876965Y-41180052D01*
X146876961Y-41180055D01*
X146755055Y-41301961D01*
X146755052Y-41301965D01*
X146664551Y-41448688D01*
X146664546Y-41448699D01*
X146610319Y-41612347D01*
X146600000Y-41713345D01*
X146600000Y-41750000D01*
X140500500Y-41750000D01*
X140500500Y-40624500D01*
X140520185Y-40557461D01*
X140572989Y-40511706D01*
X140624500Y-40500500D01*
X157715546Y-40500500D01*
X157782585Y-40520185D01*
G37*
%TD.AperFunction*%
%TA.AperFunction,Conductor*%
G36*
X197098534Y-65526069D02*
G01*
X197154467Y-65567941D01*
X197178884Y-65633405D01*
X197170393Y-65688148D01*
X197068149Y-65944760D01*
X197068147Y-65944767D01*
X196972421Y-66289542D01*
X196972415Y-66289568D01*
X196914527Y-66642668D01*
X196914526Y-66642685D01*
X196895153Y-66999997D01*
X196895153Y-67000002D01*
X196914526Y-67357314D01*
X196914527Y-67357331D01*
X196972415Y-67710431D01*
X196972421Y-67710457D01*
X197068147Y-68055232D01*
X197068149Y-68055239D01*
X197200597Y-68387659D01*
X197200606Y-68387677D01*
X197368218Y-68703827D01*
X197569024Y-68999994D01*
X197569035Y-69000008D01*
X197696441Y-69150002D01*
X197696442Y-69150002D01*
X198905747Y-67940697D01*
X198979588Y-68042330D01*
X199157670Y-68220412D01*
X199259300Y-68294251D01*
X198047257Y-69506294D01*
X198060495Y-69518836D01*
X198345367Y-69735388D01*
X198345370Y-69735390D01*
X198651990Y-69919876D01*
X198976739Y-70070122D01*
X198976744Y-70070123D01*
X199315857Y-70184384D01*
X199633934Y-70254399D01*
X199695175Y-70288035D01*
X199728509Y-70349440D01*
X199723353Y-70419120D01*
X199681344Y-70474950D01*
X199615819Y-70499205D01*
X199607278Y-70499500D01*
X192265239Y-70499500D01*
X192198200Y-70479815D01*
X192152445Y-70427011D01*
X192142501Y-70357853D01*
X192171526Y-70294297D01*
X192217787Y-70260939D01*
X192228448Y-70256523D01*
X192233786Y-70254312D01*
X192285009Y-70220084D01*
X192336233Y-70185858D01*
X192423358Y-70098733D01*
X192423358Y-70098731D01*
X192433566Y-70088524D01*
X192433567Y-70088521D01*
X196967520Y-65554569D01*
X197028842Y-65521085D01*
X197098534Y-65526069D01*
G37*
%TD.AperFunction*%
%TA.AperFunction,Conductor*%
G36*
X191274710Y-58224893D02*
G01*
X191330643Y-58266765D01*
X191335181Y-58273248D01*
X191344656Y-58287751D01*
X191392321Y-58360709D01*
X191392323Y-58360711D01*
X191392326Y-58360715D01*
X191549427Y-58531373D01*
X191588449Y-58561745D01*
X191732466Y-58673838D01*
X191732473Y-58673842D01*
X191732475Y-58673844D01*
X191793136Y-58706672D01*
X191809517Y-58715537D01*
X191859108Y-58764756D01*
X191874500Y-58824592D01*
X191874500Y-58940518D01*
X191854815Y-59007557D01*
X191815600Y-59046055D01*
X191801650Y-59054660D01*
X191801649Y-59054660D01*
X191679661Y-59176648D01*
X191589093Y-59323481D01*
X191589092Y-59323484D01*
X191534826Y-59487247D01*
X191534826Y-59487248D01*
X191534825Y-59487248D01*
X191524500Y-59588315D01*
X191524500Y-60186669D01*
X191524501Y-60186687D01*
X191534825Y-60287752D01*
X191564841Y-60378333D01*
X191589092Y-60451516D01*
X191672659Y-60587000D01*
X191679661Y-60598351D01*
X191793629Y-60712319D01*
X191827114Y-60773642D01*
X191822130Y-60843334D01*
X191793629Y-60887681D01*
X191679661Y-61001648D01*
X191589093Y-61148481D01*
X191589091Y-61148486D01*
X191582696Y-61167785D01*
X191534826Y-61312247D01*
X191534826Y-61312248D01*
X191534825Y-61312248D01*
X191524500Y-61413315D01*
X191524500Y-62011669D01*
X191524501Y-62011687D01*
X191534825Y-62112752D01*
X191560481Y-62190174D01*
X191589092Y-62276516D01*
X191679660Y-62423350D01*
X191801650Y-62545340D01*
X191948484Y-62635908D01*
X192112247Y-62690174D01*
X192213323Y-62700500D01*
X192786676Y-62700499D01*
X192786684Y-62700498D01*
X192786687Y-62700498D01*
X192842030Y-62694844D01*
X192887753Y-62690174D01*
X193051516Y-62635908D01*
X193198350Y-62545340D01*
X193320340Y-62423350D01*
X193336652Y-62396904D01*
X193388600Y-62350179D01*
X193442191Y-62338000D01*
X194307783Y-62338000D01*
X194374822Y-62357685D01*
X194390755Y-62369850D01*
X194394130Y-62372889D01*
X194547265Y-62484148D01*
X194547270Y-62484151D01*
X194720192Y-62561142D01*
X194720197Y-62561144D01*
X194905354Y-62600500D01*
X194905355Y-62600500D01*
X195094644Y-62600500D01*
X195094646Y-62600500D01*
X195279803Y-62561144D01*
X195452730Y-62484151D01*
X195605871Y-62372888D01*
X195605874Y-62372883D01*
X195609245Y-62369850D01*
X195672236Y-62339620D01*
X195692217Y-62338000D01*
X196557809Y-62338000D01*
X196624848Y-62357685D01*
X196663348Y-62396904D01*
X196679660Y-62423350D01*
X196801650Y-62545340D01*
X196948484Y-62635908D01*
X197112247Y-62690174D01*
X197213323Y-62700500D01*
X197753047Y-62700499D01*
X197820086Y-62720183D01*
X197865841Y-62772987D01*
X197875785Y-62842146D01*
X197846760Y-62905702D01*
X197840728Y-62912180D01*
X191714729Y-69038181D01*
X191653406Y-69071666D01*
X191627048Y-69074500D01*
X172027651Y-69074500D01*
X171960612Y-69054815D01*
X171914857Y-69002011D01*
X171904913Y-68932853D01*
X171933938Y-68869297D01*
X171939970Y-68862819D01*
X172060623Y-68742165D01*
X172060626Y-68742162D01*
X172153703Y-68602863D01*
X172217816Y-68448082D01*
X172250500Y-68283767D01*
X172250500Y-68116233D01*
X172217816Y-67951918D01*
X172153703Y-67797137D01*
X172072638Y-67675815D01*
X172060626Y-67657837D01*
X171942162Y-67539373D01*
X171802860Y-67446295D01*
X171648082Y-67382184D01*
X171648074Y-67382182D01*
X171483771Y-67349500D01*
X171483767Y-67349500D01*
X171316233Y-67349500D01*
X171297840Y-67353158D01*
X171240065Y-67364650D01*
X171170473Y-67358421D01*
X171115296Y-67315558D01*
X171092053Y-67249667D01*
X171098168Y-67204034D01*
X171139999Y-67077797D01*
X171150500Y-66975009D01*
X171150500Y-66949500D01*
X171170185Y-66882461D01*
X171222989Y-66836706D01*
X171274500Y-66825500D01*
X173261608Y-66825500D01*
X173261608Y-66825499D01*
X173352186Y-66807483D01*
X173352187Y-66807483D01*
X173362366Y-66805458D01*
X173382452Y-66801463D01*
X173382457Y-66801460D01*
X173382460Y-66801460D01*
X173415787Y-66787654D01*
X173415786Y-66787654D01*
X173415792Y-66787652D01*
X173496286Y-66754312D01*
X173556656Y-66713973D01*
X173598733Y-66685858D01*
X173685858Y-66598733D01*
X173685859Y-66598730D01*
X173692925Y-66591665D01*
X173692927Y-66591661D01*
X181322771Y-58961819D01*
X181384094Y-58928334D01*
X181410452Y-58925500D01*
X186275500Y-58925500D01*
X186342539Y-58945185D01*
X186388294Y-58997989D01*
X186399500Y-59049500D01*
X186399500Y-59586669D01*
X186399501Y-59586687D01*
X186409825Y-59687752D01*
X186432126Y-59755051D01*
X186454471Y-59822483D01*
X186464092Y-59851515D01*
X186464093Y-59851518D01*
X186486443Y-59887753D01*
X186554660Y-59998350D01*
X186676650Y-60120340D01*
X186823484Y-60210908D01*
X186987247Y-60265174D01*
X187088323Y-60275500D01*
X187686676Y-60275499D01*
X187686684Y-60275498D01*
X187686687Y-60275498D01*
X187760489Y-60267959D01*
X187787753Y-60265174D01*
X187951516Y-60210908D01*
X188098350Y-60120340D01*
X188212319Y-60006371D01*
X188273642Y-59972886D01*
X188343334Y-59977870D01*
X188387681Y-60006371D01*
X188501650Y-60120340D01*
X188648484Y-60210908D01*
X188812247Y-60265174D01*
X188913323Y-60275500D01*
X189511676Y-60275499D01*
X189511684Y-60275498D01*
X189511687Y-60275498D01*
X189585489Y-60267959D01*
X189612753Y-60265174D01*
X189776516Y-60210908D01*
X189923350Y-60120340D01*
X190045340Y-59998350D01*
X190135908Y-59851516D01*
X190190174Y-59687753D01*
X190200500Y-59586677D01*
X190200499Y-59247950D01*
X190220183Y-59180912D01*
X190236813Y-59160275D01*
X191143696Y-58253392D01*
X191205018Y-58219909D01*
X191274710Y-58224893D01*
G37*
%TD.AperFunction*%
%TA.AperFunction,Conductor*%
G36*
X175542167Y-58143265D02*
G01*
X175562809Y-58159899D01*
X176018181Y-58615271D01*
X176051666Y-58676594D01*
X176054500Y-58702952D01*
X176054500Y-59041668D01*
X176054501Y-59041687D01*
X176064825Y-59142752D01*
X176119092Y-59306515D01*
X176119093Y-59306518D01*
X176129556Y-59323481D01*
X176209660Y-59453350D01*
X176331650Y-59575340D01*
X176478484Y-59665908D01*
X176642247Y-59720174D01*
X176723332Y-59728457D01*
X176788023Y-59754852D01*
X176828175Y-59812033D01*
X176831039Y-59881844D01*
X176798411Y-59939496D01*
X174099729Y-62638181D01*
X174038406Y-62671666D01*
X174012048Y-62674500D01*
X167761606Y-62674500D01*
X167638393Y-62674500D01*
X167580613Y-62685993D01*
X167580612Y-62685992D01*
X167517555Y-62698535D01*
X167517545Y-62698538D01*
X167403716Y-62745687D01*
X167308655Y-62809206D01*
X167308650Y-62809209D01*
X167301269Y-62814139D01*
X165352183Y-64763225D01*
X165290860Y-64796710D01*
X165226185Y-64793475D01*
X165116245Y-64757754D01*
X165116246Y-64757754D01*
X164946234Y-64730827D01*
X164906287Y-64724500D01*
X164693713Y-64724500D01*
X164653766Y-64730827D01*
X164483760Y-64757753D01*
X164281585Y-64823444D01*
X164092179Y-64919951D01*
X163920213Y-65044890D01*
X163769894Y-65195209D01*
X163769890Y-65195214D01*
X163650318Y-65359793D01*
X163594989Y-65402459D01*
X163525375Y-65408438D01*
X163463580Y-65375833D01*
X163449682Y-65359793D01*
X163330109Y-65195214D01*
X163330105Y-65195209D01*
X163179792Y-65044896D01*
X163179784Y-65044890D01*
X163100264Y-64987116D01*
X163057600Y-64931788D01*
X163051621Y-64862175D01*
X163084226Y-64800379D01*
X163085387Y-64799201D01*
X164738258Y-63146333D01*
X164806712Y-63043885D01*
X164853863Y-62930051D01*
X164877901Y-62809206D01*
X164877901Y-62685993D01*
X164877901Y-62685992D01*
X164877901Y-62680883D01*
X164877900Y-62680857D01*
X164877900Y-60376921D01*
X164897585Y-60309882D01*
X164936804Y-60271382D01*
X164942353Y-60267959D01*
X164963250Y-60255070D01*
X165077219Y-60141101D01*
X165138542Y-60107616D01*
X165208234Y-60112600D01*
X165252581Y-60141101D01*
X165366550Y-60255070D01*
X165513384Y-60345638D01*
X165677147Y-60399904D01*
X165778223Y-60410230D01*
X166376576Y-60410229D01*
X166376584Y-60410228D01*
X166376587Y-60410228D01*
X166431930Y-60404574D01*
X166477653Y-60399904D01*
X166641416Y-60345638D01*
X166767354Y-60267958D01*
X166834745Y-60249518D01*
X166901409Y-60270440D01*
X166946178Y-60324082D01*
X166954840Y-60393413D01*
X166924644Y-60456420D01*
X166920132Y-60461177D01*
X166879661Y-60501648D01*
X166789093Y-60648481D01*
X166789092Y-60648484D01*
X166734826Y-60812247D01*
X166734826Y-60812248D01*
X166734825Y-60812248D01*
X166724500Y-60913315D01*
X166724500Y-61511669D01*
X166724501Y-61511687D01*
X166734825Y-61612752D01*
X166763737Y-61700000D01*
X166789092Y-61776516D01*
X166879660Y-61923350D01*
X167001650Y-62045340D01*
X167148484Y-62135908D01*
X167312247Y-62190174D01*
X167413323Y-62200500D01*
X167986676Y-62200499D01*
X167986684Y-62200498D01*
X167986687Y-62200498D01*
X168042030Y-62194844D01*
X168087753Y-62190174D01*
X168251516Y-62135908D01*
X168398350Y-62045340D01*
X168520340Y-61923350D01*
X168536652Y-61896904D01*
X168588600Y-61850179D01*
X168642191Y-61838000D01*
X169807783Y-61838000D01*
X169874822Y-61857685D01*
X169890755Y-61869850D01*
X169894130Y-61872889D01*
X170047265Y-61984148D01*
X170047270Y-61984151D01*
X170220192Y-62061142D01*
X170220197Y-62061144D01*
X170405354Y-62100500D01*
X170405355Y-62100500D01*
X170594644Y-62100500D01*
X170594646Y-62100500D01*
X170779803Y-62061144D01*
X170952730Y-61984151D01*
X171105871Y-61872888D01*
X171108788Y-61869647D01*
X171111600Y-61866526D01*
X171171087Y-61829879D01*
X171203748Y-61825500D01*
X172488418Y-61825500D01*
X172555457Y-61845185D01*
X172593956Y-61884402D01*
X172679660Y-62023350D01*
X172801650Y-62145340D01*
X172948484Y-62235908D01*
X173112247Y-62290174D01*
X173213323Y-62300500D01*
X173786676Y-62300499D01*
X173786684Y-62300498D01*
X173786687Y-62300498D01*
X173842030Y-62294844D01*
X173887753Y-62290174D01*
X174051516Y-62235908D01*
X174198350Y-62145340D01*
X174320340Y-62023350D01*
X174410908Y-61876516D01*
X174465174Y-61712753D01*
X174475500Y-61611677D01*
X174475499Y-61013324D01*
X174474306Y-61001649D01*
X174465174Y-60912247D01*
X174410908Y-60748484D01*
X174320340Y-60601650D01*
X174206371Y-60487681D01*
X174172886Y-60426358D01*
X174177870Y-60356666D01*
X174206371Y-60312319D01*
X174262024Y-60256666D01*
X174320340Y-60198350D01*
X174410908Y-60051516D01*
X174465174Y-59887753D01*
X174475500Y-59786677D01*
X174475499Y-59188324D01*
X174468357Y-59118412D01*
X174465174Y-59087247D01*
X174410908Y-58923484D01*
X174320340Y-58776650D01*
X174320337Y-58776647D01*
X174318744Y-58774064D01*
X174300304Y-58706672D01*
X174321226Y-58640008D01*
X174348117Y-58611116D01*
X174450573Y-58531373D01*
X174607674Y-58360715D01*
X174725899Y-58179757D01*
X174779046Y-58134402D01*
X174829708Y-58123580D01*
X175475128Y-58123580D01*
X175542167Y-58143265D01*
G37*
%TD.AperFunction*%
%TA.AperFunction,Conductor*%
G36*
X220774748Y-58532685D02*
G01*
X220813248Y-58571904D01*
X220829559Y-58598349D01*
X220943529Y-58712319D01*
X220977014Y-58773642D01*
X220972030Y-58843334D01*
X220943529Y-58887681D01*
X220829561Y-59001648D01*
X220738993Y-59148481D01*
X220738991Y-59148486D01*
X220725790Y-59188324D01*
X220684726Y-59312247D01*
X220684726Y-59312248D01*
X220684725Y-59312248D01*
X220674400Y-59413315D01*
X220674400Y-60011669D01*
X220674401Y-60011687D01*
X220684725Y-60112752D01*
X220717719Y-60212319D01*
X220738655Y-60275500D01*
X220738992Y-60276515D01*
X220738993Y-60276518D01*
X220760205Y-60310908D01*
X220829560Y-60423350D01*
X220951550Y-60545340D01*
X220963820Y-60552908D01*
X220965496Y-60553942D01*
X221012221Y-60605890D01*
X221024400Y-60659481D01*
X221024400Y-61056953D01*
X221004715Y-61123992D01*
X220992551Y-61139925D01*
X220967466Y-61167784D01*
X220967465Y-61167785D01*
X220872821Y-61331715D01*
X220872818Y-61331722D01*
X220814327Y-61511740D01*
X220814326Y-61511744D01*
X220794540Y-61700000D01*
X220814326Y-61888256D01*
X220814327Y-61888259D01*
X220872818Y-62068277D01*
X220872821Y-62068284D01*
X220967466Y-62232215D01*
X220992549Y-62260072D01*
X221022780Y-62323064D01*
X221024400Y-62343045D01*
X221024400Y-62940518D01*
X221004715Y-63007557D01*
X220965500Y-63046055D01*
X220951550Y-63054660D01*
X220951549Y-63054660D01*
X220829561Y-63176648D01*
X220738993Y-63323481D01*
X220738992Y-63323484D01*
X220684726Y-63487247D01*
X220684726Y-63487248D01*
X220684725Y-63487248D01*
X220674400Y-63588315D01*
X220674400Y-64186669D01*
X220674401Y-64186687D01*
X220684725Y-64287752D01*
X220721009Y-64397249D01*
X220734414Y-64437702D01*
X220738992Y-64451515D01*
X220738993Y-64451518D01*
X220765013Y-64493703D01*
X220811953Y-64569805D01*
X220829561Y-64598351D01*
X220943529Y-64712319D01*
X220977014Y-64773642D01*
X220972030Y-64843334D01*
X220943529Y-64887681D01*
X220829560Y-65001649D01*
X220829559Y-65001650D01*
X220813248Y-65028096D01*
X220761300Y-65074821D01*
X220707709Y-65087000D01*
X218464085Y-65087000D01*
X218397046Y-65067315D01*
X218360277Y-65030822D01*
X218298884Y-64936854D01*
X218298882Y-64936852D01*
X218298879Y-64936847D01*
X218141684Y-64766087D01*
X218141679Y-64766083D01*
X218141677Y-64766081D01*
X217958534Y-64623535D01*
X217958528Y-64623531D01*
X217754404Y-64513064D01*
X217754395Y-64513061D01*
X217534884Y-64437702D01*
X217331148Y-64403705D01*
X217305949Y-64399500D01*
X217073851Y-64399500D01*
X217048652Y-64403705D01*
X216844915Y-64437702D01*
X216625404Y-64513061D01*
X216625395Y-64513064D01*
X216421271Y-64623531D01*
X216421265Y-64623535D01*
X216238122Y-64766081D01*
X216238118Y-64766085D01*
X216238116Y-64766086D01*
X216238116Y-64766087D01*
X216231162Y-64773642D01*
X216229766Y-64775158D01*
X216169879Y-64811148D01*
X216100041Y-64809047D01*
X216042425Y-64769522D01*
X216022355Y-64734507D01*
X215993697Y-64657671D01*
X215993693Y-64657664D01*
X215907447Y-64542455D01*
X215907444Y-64542452D01*
X215792235Y-64456206D01*
X215792228Y-64456202D01*
X215657382Y-64405908D01*
X215657383Y-64405908D01*
X215597783Y-64399501D01*
X215597781Y-64399500D01*
X215597773Y-64399500D01*
X215597765Y-64399500D01*
X214149998Y-64399500D01*
X214082959Y-64379815D01*
X214062317Y-64363181D01*
X210437490Y-60738355D01*
X210437488Y-60738352D01*
X210318617Y-60619481D01*
X210318612Y-60619477D01*
X210190203Y-60545341D01*
X210190202Y-60545340D01*
X210181687Y-60540423D01*
X210120593Y-60524053D01*
X210028957Y-60499499D01*
X209870843Y-60499499D01*
X209863247Y-60499499D01*
X209863231Y-60499500D01*
X209310719Y-60499500D01*
X209243680Y-60479815D01*
X209200235Y-60431795D01*
X209180052Y-60392185D01*
X209180051Y-60392184D01*
X209055109Y-60220213D01*
X208904792Y-60069896D01*
X208887795Y-60057547D01*
X208740204Y-59950316D01*
X208697540Y-59894989D01*
X208691561Y-59825376D01*
X208724166Y-59763580D01*
X208740199Y-59749686D01*
X208904792Y-59630104D01*
X209055104Y-59479792D01*
X209057416Y-59476610D01*
X209112748Y-59433947D01*
X209157731Y-59425500D01*
X213125401Y-59425500D01*
X213192440Y-59445185D01*
X213238195Y-59497989D01*
X213249401Y-59549500D01*
X213249401Y-59747876D01*
X213255808Y-59807483D01*
X213306102Y-59942328D01*
X213306106Y-59942335D01*
X213392352Y-60057544D01*
X213392355Y-60057547D01*
X213507564Y-60143793D01*
X213507571Y-60143797D01*
X213642417Y-60194091D01*
X213642416Y-60194091D01*
X213649344Y-60194835D01*
X213702027Y-60200500D01*
X215597772Y-60200499D01*
X215657383Y-60194091D01*
X215792231Y-60143796D01*
X215907446Y-60057546D01*
X215993696Y-59942331D01*
X215993698Y-59942326D01*
X216022355Y-59865493D01*
X216064226Y-59809559D01*
X216129690Y-59785141D01*
X216197963Y-59799992D01*
X216229766Y-59824843D01*
X216237202Y-59832920D01*
X216238115Y-59833912D01*
X216238122Y-59833918D01*
X216421265Y-59976464D01*
X216421271Y-59976468D01*
X216421274Y-59976470D01*
X216625397Y-60086936D01*
X216722694Y-60120338D01*
X216844915Y-60162297D01*
X216844917Y-60162297D01*
X216844919Y-60162298D01*
X217073851Y-60200500D01*
X217073852Y-60200500D01*
X217305948Y-60200500D01*
X217305949Y-60200500D01*
X217534881Y-60162298D01*
X217754403Y-60086936D01*
X217958526Y-59976470D01*
X217990585Y-59951518D01*
X218072511Y-59887752D01*
X218141684Y-59833913D01*
X218298879Y-59663153D01*
X218425824Y-59468849D01*
X218519057Y-59256300D01*
X218576034Y-59031305D01*
X218577613Y-59012248D01*
X218595200Y-58800006D01*
X218595200Y-58800004D01*
X218593894Y-58784246D01*
X218582542Y-58647238D01*
X218596624Y-58578803D01*
X218645469Y-58528844D01*
X218706119Y-58513000D01*
X220707709Y-58513000D01*
X220774748Y-58532685D01*
G37*
%TD.AperFunction*%
%TA.AperFunction,Conductor*%
G36*
X199307558Y-58245185D02*
G01*
X199346058Y-58284404D01*
X199354660Y-58298350D01*
X199476650Y-58420340D01*
X199623484Y-58510908D01*
X199787247Y-58565174D01*
X199888323Y-58575500D01*
X200486676Y-58575499D01*
X200486684Y-58575498D01*
X200486687Y-58575498D01*
X200553284Y-58568695D01*
X200587753Y-58565174D01*
X200751516Y-58510908D01*
X200898350Y-58420340D01*
X201012319Y-58306371D01*
X201073642Y-58272886D01*
X201143334Y-58277870D01*
X201187681Y-58306371D01*
X201301650Y-58420340D01*
X201328096Y-58436652D01*
X201374821Y-58488600D01*
X201387000Y-58542191D01*
X201387000Y-58617948D01*
X201367315Y-58684987D01*
X201358718Y-58695655D01*
X201359138Y-58695987D01*
X201354661Y-58701647D01*
X201264093Y-58848481D01*
X201264091Y-58848486D01*
X201251103Y-58887681D01*
X201209826Y-59012247D01*
X201209826Y-59012248D01*
X201209825Y-59012248D01*
X201199500Y-59113315D01*
X201199500Y-59502046D01*
X201179815Y-59569085D01*
X201163181Y-59589727D01*
X198687180Y-62065727D01*
X198625857Y-62099212D01*
X198556165Y-62094228D01*
X198500232Y-62052356D01*
X198475815Y-61986892D01*
X198475499Y-61978072D01*
X198475499Y-61413324D01*
X198465174Y-61312247D01*
X198410908Y-61148484D01*
X198320340Y-61001650D01*
X198206371Y-60887681D01*
X198172886Y-60826358D01*
X198177870Y-60756666D01*
X198206371Y-60712319D01*
X198259209Y-60659481D01*
X198320340Y-60598350D01*
X198410908Y-60451516D01*
X198465174Y-60287753D01*
X198475500Y-60186677D01*
X198475499Y-59588324D01*
X198475331Y-59586683D01*
X198465174Y-59487247D01*
X198453942Y-59453351D01*
X198410908Y-59323484D01*
X198320340Y-59176650D01*
X198198350Y-59054660D01*
X198184400Y-59046055D01*
X198137677Y-58994105D01*
X198125500Y-58940518D01*
X198125500Y-58824592D01*
X198145185Y-58757553D01*
X198190483Y-58715537D01*
X198206864Y-58706672D01*
X198267525Y-58673844D01*
X198273351Y-58669310D01*
X198333515Y-58622482D01*
X198450573Y-58531373D01*
X198607674Y-58360715D01*
X198659312Y-58281678D01*
X198712458Y-58236321D01*
X198763120Y-58225500D01*
X199240519Y-58225500D01*
X199307558Y-58245185D01*
G37*
%TD.AperFunction*%
%TA.AperFunction,Conductor*%
G36*
X194487566Y-57710337D02*
G01*
X194559963Y-57835733D01*
X194662347Y-57938117D01*
X194787743Y-58010514D01*
X194829838Y-58021793D01*
X194201799Y-58649832D01*
X194201800Y-58649833D01*
X194232107Y-58673422D01*
X194436036Y-58783784D01*
X194436041Y-58783786D01*
X194655346Y-58859073D01*
X194884063Y-58897240D01*
X195115937Y-58897240D01*
X195344653Y-58859073D01*
X195563958Y-58783786D01*
X195563963Y-58783784D01*
X195767893Y-58673422D01*
X195767896Y-58673420D01*
X195798198Y-58649833D01*
X195798199Y-58649831D01*
X195170161Y-58021793D01*
X195212257Y-58010514D01*
X195337653Y-57938117D01*
X195440037Y-57835733D01*
X195512434Y-57710337D01*
X195523713Y-57668240D01*
X196150579Y-58295106D01*
X196155101Y-58294637D01*
X196198717Y-58257414D01*
X196267948Y-58247990D01*
X196331284Y-58277491D01*
X196353189Y-58302771D01*
X196391041Y-58360709D01*
X196391043Y-58360711D01*
X196391046Y-58360715D01*
X196548147Y-58531373D01*
X196587169Y-58561745D01*
X196731186Y-58673838D01*
X196731201Y-58673848D01*
X196809516Y-58716229D01*
X196859108Y-58765448D01*
X196874500Y-58825284D01*
X196874500Y-58940518D01*
X196854815Y-59007557D01*
X196815600Y-59046055D01*
X196801650Y-59054660D01*
X196801649Y-59054660D01*
X196679661Y-59176648D01*
X196589093Y-59323481D01*
X196589092Y-59323484D01*
X196534826Y-59487247D01*
X196534826Y-59487248D01*
X196534825Y-59487248D01*
X196524500Y-59588315D01*
X196524500Y-60186669D01*
X196524501Y-60186687D01*
X196534825Y-60287752D01*
X196564841Y-60378333D01*
X196589092Y-60451516D01*
X196672659Y-60587000D01*
X196679661Y-60598351D01*
X196793629Y-60712319D01*
X196827114Y-60773642D01*
X196822130Y-60843334D01*
X196793629Y-60887681D01*
X196679660Y-61001649D01*
X196679659Y-61001650D01*
X196663348Y-61028096D01*
X196611400Y-61074821D01*
X196557809Y-61087000D01*
X195715003Y-61087000D01*
X195647964Y-61067315D01*
X195622854Y-61045973D01*
X195605871Y-61027112D01*
X195605864Y-61027106D01*
X195452734Y-60915851D01*
X195452729Y-60915848D01*
X195279807Y-60838857D01*
X195279802Y-60838855D01*
X195134001Y-60807865D01*
X195094646Y-60799500D01*
X194905354Y-60799500D01*
X194872897Y-60806398D01*
X194720197Y-60838855D01*
X194720192Y-60838857D01*
X194547270Y-60915848D01*
X194547265Y-60915851D01*
X194394135Y-61027106D01*
X194394128Y-61027112D01*
X194377146Y-61045973D01*
X194317659Y-61082621D01*
X194284997Y-61087000D01*
X193442191Y-61087000D01*
X193375152Y-61067315D01*
X193336652Y-61028096D01*
X193320340Y-61001650D01*
X193206371Y-60887681D01*
X193172886Y-60826358D01*
X193177870Y-60756666D01*
X193206371Y-60712319D01*
X193259209Y-60659481D01*
X193320340Y-60598350D01*
X193410908Y-60451516D01*
X193465174Y-60287753D01*
X193475500Y-60186677D01*
X193475499Y-59588324D01*
X193475331Y-59586683D01*
X193465174Y-59487247D01*
X193453942Y-59453351D01*
X193410908Y-59323484D01*
X193320340Y-59176650D01*
X193198350Y-59054660D01*
X193184400Y-59046055D01*
X193137677Y-58994105D01*
X193125500Y-58940518D01*
X193125500Y-58825284D01*
X193145185Y-58758245D01*
X193190484Y-58716229D01*
X193268798Y-58673848D01*
X193268799Y-58673846D01*
X193268805Y-58673844D01*
X193274631Y-58669310D01*
X193334795Y-58622482D01*
X193451853Y-58531373D01*
X193608954Y-58360715D01*
X193646810Y-58302771D01*
X193699956Y-58257415D01*
X193769187Y-58247991D01*
X193832523Y-58277493D01*
X193847624Y-58294920D01*
X193849419Y-58295106D01*
X194476285Y-57668239D01*
X194487566Y-57710337D01*
G37*
%TD.AperFunction*%
%TA.AperFunction,Conductor*%
G36*
X170487566Y-57710337D02*
G01*
X170559963Y-57835733D01*
X170662347Y-57938117D01*
X170787743Y-58010514D01*
X170829838Y-58021793D01*
X170201799Y-58649832D01*
X170201800Y-58649833D01*
X170232107Y-58673422D01*
X170436036Y-58783784D01*
X170436041Y-58783786D01*
X170655346Y-58859073D01*
X170884063Y-58897240D01*
X171115937Y-58897240D01*
X171344653Y-58859073D01*
X171563958Y-58783786D01*
X171563963Y-58783784D01*
X171767893Y-58673422D01*
X171767896Y-58673420D01*
X171798198Y-58649833D01*
X171798199Y-58649831D01*
X171170161Y-58021793D01*
X171212257Y-58010514D01*
X171337653Y-57938117D01*
X171440037Y-57835733D01*
X171512434Y-57710337D01*
X171523713Y-57668240D01*
X172150579Y-58295106D01*
X172155101Y-58294637D01*
X172198717Y-58257414D01*
X172267948Y-58247990D01*
X172331284Y-58277491D01*
X172353189Y-58302771D01*
X172391041Y-58360709D01*
X172391043Y-58360711D01*
X172391046Y-58360715D01*
X172548147Y-58531373D01*
X172584169Y-58559410D01*
X172651463Y-58611787D01*
X172692276Y-58668497D01*
X172695951Y-58738270D01*
X172680840Y-58774737D01*
X172589093Y-58923481D01*
X172589092Y-58923484D01*
X172534826Y-59087247D01*
X172534826Y-59087248D01*
X172534825Y-59087248D01*
X172524500Y-59188315D01*
X172524500Y-59786669D01*
X172524501Y-59786687D01*
X172534825Y-59887752D01*
X172567464Y-59986248D01*
X172573323Y-60003930D01*
X172589092Y-60051515D01*
X172589093Y-60051518D01*
X172600429Y-60069896D01*
X172672466Y-60186687D01*
X172679661Y-60198351D01*
X172793629Y-60312319D01*
X172827114Y-60373642D01*
X172822130Y-60443334D01*
X172793629Y-60487681D01*
X172743129Y-60538181D01*
X172681806Y-60571666D01*
X172655448Y-60574500D01*
X171203748Y-60574500D01*
X171136709Y-60554815D01*
X171111600Y-60533474D01*
X171105873Y-60527114D01*
X171105869Y-60527110D01*
X170952734Y-60415851D01*
X170952729Y-60415848D01*
X170779807Y-60338857D01*
X170779802Y-60338855D01*
X170633290Y-60307714D01*
X170594646Y-60299500D01*
X170405354Y-60299500D01*
X170372897Y-60306398D01*
X170220197Y-60338855D01*
X170220192Y-60338857D01*
X170047270Y-60415848D01*
X170047265Y-60415851D01*
X169894135Y-60527106D01*
X169894128Y-60527112D01*
X169877146Y-60545973D01*
X169817659Y-60582621D01*
X169784997Y-60587000D01*
X168642191Y-60587000D01*
X168575152Y-60567315D01*
X168536652Y-60528096D01*
X168520340Y-60501650D01*
X168406371Y-60387681D01*
X168372886Y-60326358D01*
X168377870Y-60256666D01*
X168406371Y-60212319D01*
X168456393Y-60162297D01*
X168520340Y-60098350D01*
X168610908Y-59951516D01*
X168665174Y-59787753D01*
X168675500Y-59686677D01*
X168675499Y-59088324D01*
X168671275Y-59046977D01*
X168667195Y-59007031D01*
X168679965Y-58938338D01*
X168727846Y-58887454D01*
X168770142Y-58872121D01*
X168845414Y-58859561D01*
X169064804Y-58784244D01*
X169268805Y-58673844D01*
X169274631Y-58669310D01*
X169334795Y-58622482D01*
X169451853Y-58531373D01*
X169608954Y-58360715D01*
X169646810Y-58302771D01*
X169699956Y-58257415D01*
X169769187Y-58247991D01*
X169832523Y-58277493D01*
X169847624Y-58294920D01*
X169849419Y-58295106D01*
X170476285Y-57668239D01*
X170487566Y-57710337D01*
G37*
%TD.AperFunction*%
%TA.AperFunction,Conductor*%
G36*
X213192440Y-45420185D02*
G01*
X213238195Y-45472989D01*
X213249401Y-45524500D01*
X213249401Y-45747876D01*
X213255808Y-45807483D01*
X213306102Y-45942328D01*
X213306106Y-45942335D01*
X213392352Y-46057544D01*
X213392355Y-46057547D01*
X213507564Y-46143793D01*
X213507571Y-46143797D01*
X213642417Y-46194091D01*
X213642416Y-46194091D01*
X213649344Y-46194835D01*
X213702027Y-46200500D01*
X215597772Y-46200499D01*
X215657383Y-46194091D01*
X215792231Y-46143796D01*
X215907446Y-46057546D01*
X215993696Y-45942331D01*
X216022355Y-45865493D01*
X216064226Y-45809559D01*
X216129690Y-45785141D01*
X216197963Y-45799992D01*
X216229766Y-45824843D01*
X216237202Y-45832920D01*
X216238115Y-45833912D01*
X216238122Y-45833918D01*
X216421265Y-45976464D01*
X216421271Y-45976468D01*
X216421274Y-45976470D01*
X216625397Y-46086936D01*
X216695598Y-46111036D01*
X216844915Y-46162297D01*
X216844917Y-46162297D01*
X216844919Y-46162298D01*
X217073851Y-46200500D01*
X217073852Y-46200500D01*
X217305948Y-46200500D01*
X217305949Y-46200500D01*
X217534881Y-46162298D01*
X217754403Y-46086936D01*
X217958526Y-45976470D01*
X218141684Y-45833913D01*
X218298879Y-45663153D01*
X218329401Y-45616436D01*
X218360277Y-45569178D01*
X218413423Y-45523822D01*
X218464085Y-45513000D01*
X220707709Y-45513000D01*
X220774748Y-45532685D01*
X220813248Y-45571904D01*
X220829559Y-45598349D01*
X220943529Y-45712319D01*
X220977014Y-45773642D01*
X220972030Y-45843334D01*
X220943529Y-45887681D01*
X220829561Y-46001648D01*
X220738993Y-46148481D01*
X220738991Y-46148486D01*
X220721437Y-46201461D01*
X220684726Y-46312247D01*
X220684726Y-46312248D01*
X220684725Y-46312248D01*
X220674400Y-46413315D01*
X220674400Y-47011669D01*
X220674401Y-47011687D01*
X220684725Y-47112752D01*
X220738992Y-47276515D01*
X220738993Y-47276518D01*
X220748981Y-47292711D01*
X220829560Y-47423350D01*
X220951550Y-47545340D01*
X220963820Y-47552908D01*
X220965496Y-47553942D01*
X221012221Y-47605890D01*
X221024400Y-47659481D01*
X221024400Y-48645893D01*
X221004715Y-48712932D01*
X220992550Y-48728865D01*
X220867466Y-48867785D01*
X220772821Y-49031715D01*
X220772818Y-49031722D01*
X220725171Y-49178366D01*
X220714326Y-49211744D01*
X220694540Y-49400000D01*
X220714326Y-49588256D01*
X220714327Y-49588259D01*
X220772818Y-49768277D01*
X220772821Y-49768284D01*
X220867467Y-49932216D01*
X220928505Y-50000005D01*
X220992550Y-50071134D01*
X221022780Y-50134125D01*
X221024400Y-50154106D01*
X221024400Y-50940518D01*
X221004715Y-51007557D01*
X220965500Y-51046055D01*
X220951550Y-51054660D01*
X220951549Y-51054660D01*
X220829561Y-51176648D01*
X220738993Y-51323481D01*
X220738992Y-51323484D01*
X220684726Y-51487247D01*
X220684726Y-51487248D01*
X220684725Y-51487248D01*
X220674400Y-51588315D01*
X220674400Y-52186669D01*
X220674401Y-52186687D01*
X220684725Y-52287752D01*
X220738992Y-52451515D01*
X220738993Y-52451518D01*
X220759430Y-52484651D01*
X220812009Y-52569896D01*
X220829561Y-52598351D01*
X220943529Y-52712319D01*
X220977014Y-52773642D01*
X220972030Y-52843334D01*
X220943529Y-52887681D01*
X220829560Y-53001649D01*
X220829559Y-53001650D01*
X220813248Y-53028096D01*
X220761300Y-53074821D01*
X220707709Y-53087000D01*
X219412853Y-53087000D01*
X219345814Y-53067315D01*
X219325172Y-53050681D01*
X218571247Y-52296757D01*
X218537762Y-52235434D01*
X218538722Y-52178638D01*
X218576034Y-52031305D01*
X218576035Y-52031297D01*
X218595200Y-51800006D01*
X218595200Y-51799993D01*
X218576035Y-51568702D01*
X218576033Y-51568691D01*
X218519057Y-51343699D01*
X218425824Y-51131151D01*
X218298883Y-50936852D01*
X218298880Y-50936849D01*
X218298879Y-50936847D01*
X218141684Y-50766087D01*
X218141679Y-50766083D01*
X218141677Y-50766081D01*
X217958534Y-50623535D01*
X217958528Y-50623531D01*
X217754404Y-50513064D01*
X217754395Y-50513061D01*
X217534884Y-50437702D01*
X217344350Y-50405908D01*
X217305949Y-50399500D01*
X217073851Y-50399500D01*
X217035450Y-50405908D01*
X216844915Y-50437702D01*
X216625404Y-50513061D01*
X216625395Y-50513064D01*
X216421271Y-50623531D01*
X216421265Y-50623535D01*
X216238122Y-50766081D01*
X216238118Y-50766085D01*
X216229766Y-50775158D01*
X216169879Y-50811148D01*
X216100041Y-50809047D01*
X216042425Y-50769522D01*
X216022355Y-50734507D01*
X215993697Y-50657671D01*
X215993693Y-50657664D01*
X215907447Y-50542455D01*
X215907444Y-50542452D01*
X215792235Y-50456206D01*
X215792228Y-50456202D01*
X215657382Y-50405908D01*
X215657383Y-50405908D01*
X215597783Y-50399501D01*
X215597781Y-50399500D01*
X215597773Y-50399500D01*
X215597764Y-50399500D01*
X213702029Y-50399500D01*
X213702023Y-50399501D01*
X213642416Y-50405908D01*
X213507571Y-50456202D01*
X213507564Y-50456206D01*
X213392355Y-50542452D01*
X213392352Y-50542455D01*
X213306106Y-50657664D01*
X213306102Y-50657671D01*
X213255808Y-50792517D01*
X213249401Y-50852116D01*
X213249400Y-50852135D01*
X213249400Y-52299902D01*
X213229715Y-52366941D01*
X213213081Y-52387583D01*
X210137484Y-55463181D01*
X210076161Y-55496666D01*
X210049803Y-55499500D01*
X209310719Y-55499500D01*
X209243680Y-55479815D01*
X209200235Y-55431795D01*
X209180052Y-55392185D01*
X209180051Y-55392184D01*
X209055109Y-55220213D01*
X208904792Y-55069896D01*
X208904784Y-55069890D01*
X208740204Y-54950316D01*
X208697540Y-54894989D01*
X208691561Y-54825376D01*
X208724166Y-54763580D01*
X208740199Y-54749686D01*
X208904792Y-54630104D01*
X209055104Y-54479792D01*
X209055106Y-54479788D01*
X209055109Y-54479786D01*
X209180048Y-54307820D01*
X209180047Y-54307820D01*
X209180051Y-54307816D01*
X209276557Y-54118412D01*
X209342246Y-53916243D01*
X209375500Y-53706287D01*
X209375500Y-53493713D01*
X209342246Y-53283757D01*
X209297851Y-53147126D01*
X209295857Y-53077290D01*
X209328100Y-53021133D01*
X210358506Y-51990728D01*
X210358511Y-51990724D01*
X210368714Y-51980520D01*
X210368716Y-51980520D01*
X210480520Y-51868716D01*
X210559577Y-51731784D01*
X210600500Y-51579057D01*
X210600500Y-47300097D01*
X210620185Y-47233058D01*
X210636819Y-47212416D01*
X212412416Y-45436819D01*
X212473739Y-45403334D01*
X212500097Y-45400500D01*
X213125401Y-45400500D01*
X213192440Y-45420185D01*
G37*
%TD.AperFunction*%
%TA.AperFunction,Conductor*%
G36*
X200506587Y-42095185D02*
G01*
X200527229Y-42111819D01*
X206463225Y-48047815D01*
X206496710Y-48109138D01*
X206493475Y-48173813D01*
X206457754Y-48283753D01*
X206428908Y-48465881D01*
X206398979Y-48529016D01*
X206339667Y-48565947D01*
X206269805Y-48564949D01*
X206218754Y-48534164D01*
X205408178Y-47723588D01*
X205408158Y-47723566D01*
X205316713Y-47632121D01*
X205265489Y-47597895D01*
X205240800Y-47581398D01*
X205214266Y-47563668D01*
X205214263Y-47563666D01*
X205214260Y-47563665D01*
X205133772Y-47530327D01*
X205100433Y-47516517D01*
X205090407Y-47514523D01*
X205040009Y-47504498D01*
X204979590Y-47492480D01*
X204979587Y-47492480D01*
X204979586Y-47492480D01*
X200426132Y-47492480D01*
X200359093Y-47472795D01*
X200338451Y-47456161D01*
X197403501Y-44521211D01*
X197370016Y-44459888D01*
X197375000Y-44390196D01*
X197416872Y-44334263D01*
X197450920Y-44316249D01*
X197559038Y-44279132D01*
X197559040Y-44279131D01*
X197559049Y-44279128D01*
X197761569Y-44169529D01*
X197796246Y-44142539D01*
X197922308Y-44044422D01*
X197987302Y-44018779D01*
X198055842Y-44032346D01*
X198074632Y-44044422D01*
X198235362Y-44169523D01*
X198235368Y-44169527D01*
X198235371Y-44169529D01*
X198437891Y-44279128D01*
X198502380Y-44301267D01*
X198655685Y-44353897D01*
X198655687Y-44353897D01*
X198655689Y-44353898D01*
X198882823Y-44391800D01*
X198882824Y-44391800D01*
X199113096Y-44391800D01*
X199113097Y-44391800D01*
X199340231Y-44353898D01*
X199558029Y-44279128D01*
X199760549Y-44169529D01*
X199942268Y-44028092D01*
X200098229Y-43858673D01*
X200224177Y-43665895D01*
X200316677Y-43455016D01*
X200373206Y-43231788D01*
X200383930Y-43102365D01*
X200392222Y-43002305D01*
X200392222Y-43002294D01*
X200373206Y-42772815D01*
X200373206Y-42772812D01*
X200316677Y-42549584D01*
X200224177Y-42338705D01*
X200190185Y-42286676D01*
X200177540Y-42267321D01*
X200157352Y-42200432D01*
X200176533Y-42133246D01*
X200228992Y-42087096D01*
X200281349Y-42075500D01*
X200439548Y-42075500D01*
X200506587Y-42095185D01*
G37*
%TD.AperFunction*%
%TA.AperFunction,Conductor*%
G36*
X203956587Y-41645185D02*
G01*
X203977229Y-41661819D01*
X206920015Y-44604605D01*
X206953500Y-44665928D01*
X206948516Y-44735620D01*
X206906644Y-44791553D01*
X206871344Y-44809990D01*
X206855671Y-44815184D01*
X206855663Y-44815187D01*
X206706342Y-44907289D01*
X206582289Y-45031342D01*
X206490187Y-45180663D01*
X206490185Y-45180668D01*
X206465984Y-45253703D01*
X206435001Y-45347203D01*
X206435001Y-45347204D01*
X206435000Y-45347204D01*
X206424500Y-45449983D01*
X206424500Y-45940548D01*
X206404815Y-46007587D01*
X206352011Y-46053342D01*
X206282853Y-46063286D01*
X206219297Y-46034261D01*
X206212819Y-46028229D01*
X202021771Y-41837181D01*
X201988286Y-41775858D01*
X201993270Y-41706166D01*
X202035142Y-41650233D01*
X202100606Y-41625816D01*
X202109452Y-41625500D01*
X203889548Y-41625500D01*
X203956587Y-41645185D01*
G37*
%TD.AperFunction*%
%TD*%
M02*
