%TF.GenerationSoftware,KiCad,Pcbnew,8.0.1-8.0.1-1~ubuntu22.04.1*%
%TF.CreationDate,2024-05-06T17:19:22+02:00*%
%TF.ProjectId,SecondaryBoard,5365636f-6e64-4617-9279-426f6172642e,rev?*%
%TF.SameCoordinates,Original*%
%TF.FileFunction,Soldermask,Top*%
%TF.FilePolarity,Negative*%
%FSLAX46Y46*%
G04 Gerber Fmt 4.6, Leading zero omitted, Abs format (unit mm)*
G04 Created by KiCad (PCBNEW 8.0.1-8.0.1-1~ubuntu22.04.1) date 2024-05-06 17:19:22*
%MOMM*%
%LPD*%
G01*
G04 APERTURE LIST*
G04 Aperture macros list*
%AMRoundRect*
0 Rectangle with rounded corners*
0 $1 Rounding radius*
0 $2 $3 $4 $5 $6 $7 $8 $9 X,Y pos of 4 corners*
0 Add a 4 corners polygon primitive as box body*
4,1,4,$2,$3,$4,$5,$6,$7,$8,$9,$2,$3,0*
0 Add four circle primitives for the rounded corners*
1,1,$1+$1,$2,$3*
1,1,$1+$1,$4,$5*
1,1,$1+$1,$6,$7*
1,1,$1+$1,$8,$9*
0 Add four rect primitives between the rounded corners*
20,1,$1+$1,$2,$3,$4,$5,0*
20,1,$1+$1,$4,$5,$6,$7,0*
20,1,$1+$1,$6,$7,$8,$9,0*
20,1,$1+$1,$8,$9,$2,$3,0*%
G04 Aperture macros list end*
%ADD10R,1.800000X1.800000*%
%ADD11C,1.800000*%
%ADD12C,1.981200*%
%ADD13C,2.001520*%
%ADD14C,3.317240*%
%ADD15C,5.600000*%
%ADD16RoundRect,0.237500X0.250000X0.237500X-0.250000X0.237500X-0.250000X-0.237500X0.250000X-0.237500X0*%
%ADD17O,2.720000X3.240000*%
%ADD18RoundRect,0.237500X-0.250000X-0.237500X0.250000X-0.237500X0.250000X0.237500X-0.250000X0.237500X0*%
%ADD19C,1.200000*%
%ADD20RoundRect,0.250000X0.600000X0.725000X-0.600000X0.725000X-0.600000X-0.725000X0.600000X-0.725000X0*%
%ADD21O,1.700000X1.950000*%
%ADD22RoundRect,0.250000X-0.725000X0.600000X-0.725000X-0.600000X0.725000X-0.600000X0.725000X0.600000X0*%
%ADD23O,1.950000X1.700000*%
G04 APERTURE END LIST*
D10*
%TO.C,D4*%
X214649900Y-44800000D03*
D11*
X217189900Y-44800000D03*
%TD*%
D12*
%TO.C,S1*%
X191002040Y-43002300D03*
X193001020Y-43002300D03*
X195000000Y-43002300D03*
X196998980Y-43002300D03*
X198997960Y-43002300D03*
D13*
X192500640Y-57498080D03*
X197499360Y-57498080D03*
X195000000Y-57498080D03*
D14*
X189450100Y-50000000D03*
X200549900Y-50000000D03*
%TD*%
D15*
%TO.C,H2*%
X144200000Y-67000000D03*
%TD*%
D12*
%TO.C,S2*%
X167002040Y-43002300D03*
X169001020Y-43002300D03*
X171000000Y-43002300D03*
X172998980Y-43002300D03*
X174997960Y-43002300D03*
D13*
X168500640Y-57498080D03*
X173499360Y-57498080D03*
X171000000Y-57498080D03*
D14*
X165450100Y-50000000D03*
X176549900Y-50000000D03*
%TD*%
D10*
%TO.C,D1*%
X214649900Y-65800000D03*
D11*
X217189900Y-65800000D03*
%TD*%
D10*
%TO.C,D2*%
X214649900Y-58800000D03*
D11*
X217189900Y-58800000D03*
%TD*%
D16*
%TO.C,R9*%
X187012500Y-44700000D03*
X185187500Y-44700000D03*
%TD*%
D10*
%TO.C,D3*%
X214649900Y-51800000D03*
D11*
X217189900Y-51800000D03*
%TD*%
D17*
%TO.C,RV1*%
X154700000Y-51400000D03*
X145100000Y-51400000D03*
D10*
X152400000Y-43900000D03*
D11*
X149900000Y-43900000D03*
X147400000Y-43900000D03*
%TD*%
D15*
%TO.C,H3*%
X200200000Y-67000000D03*
%TD*%
D18*
%TO.C,R11*%
X161687500Y-47600000D03*
X163512500Y-47600000D03*
%TD*%
D15*
%TO.C,H1*%
X183000000Y-52000000D03*
%TD*%
D16*
%TO.C,R10*%
X186912500Y-46800000D03*
X185087500Y-46800000D03*
%TD*%
D18*
%TO.C,R12*%
X160787500Y-44600000D03*
X162612500Y-44600000D03*
%TD*%
D19*
%TO.C,J4*%
X171400000Y-68200000D03*
D20*
X169800000Y-66200000D03*
D21*
X167300000Y-66200000D03*
X164800000Y-66200000D03*
X162300000Y-66200000D03*
X159800000Y-66200000D03*
X157300000Y-66200000D03*
X154800000Y-66200000D03*
X152300000Y-66200000D03*
%TD*%
D19*
%TO.C,J5*%
X209900000Y-44500000D03*
D22*
X207900000Y-46100000D03*
D23*
X207900000Y-48600000D03*
X207900000Y-51100000D03*
X207900000Y-53600000D03*
X207900000Y-56100000D03*
X207900000Y-58600000D03*
X207900000Y-61100000D03*
X207900000Y-63600000D03*
%TD*%
M02*
