%TF.GenerationSoftware,KiCad,Pcbnew,8.0.1*%
%TF.CreationDate,2024-05-07T13:51:58+02:00*%
%TF.ProjectId,SecondaryBoard,5365636f-6e64-4617-9279-426f6172642e,rev?*%
%TF.SameCoordinates,Original*%
%TF.FileFunction,Copper,L1,Top*%
%TF.FilePolarity,Positive*%
%FSLAX46Y46*%
G04 Gerber Fmt 4.6, Leading zero omitted, Abs format (unit mm)*
G04 Created by KiCad (PCBNEW 8.0.1) date 2024-05-07 13:51:58*
%MOMM*%
%LPD*%
G01*
G04 APERTURE LIST*
G04 Aperture macros list*
%AMRoundRect*
0 Rectangle with rounded corners*
0 $1 Rounding radius*
0 $2 $3 $4 $5 $6 $7 $8 $9 X,Y pos of 4 corners*
0 Add a 4 corners polygon primitive as box body*
4,1,4,$2,$3,$4,$5,$6,$7,$8,$9,$2,$3,0*
0 Add four circle primitives for the rounded corners*
1,1,$1+$1,$2,$3*
1,1,$1+$1,$4,$5*
1,1,$1+$1,$6,$7*
1,1,$1+$1,$8,$9*
0 Add four rect primitives between the rounded corners*
20,1,$1+$1,$2,$3,$4,$5,0*
20,1,$1+$1,$4,$5,$6,$7,0*
20,1,$1+$1,$6,$7,$8,$9,0*
20,1,$1+$1,$8,$9,$2,$3,0*%
G04 Aperture macros list end*
%TA.AperFunction,ComponentPad*%
%ADD10R,1.800000X1.800000*%
%TD*%
%TA.AperFunction,ComponentPad*%
%ADD11C,1.800000*%
%TD*%
%TA.AperFunction,ComponentPad*%
%ADD12C,1.778000*%
%TD*%
%TA.AperFunction,ComponentPad*%
%ADD13C,1.798320*%
%TD*%
%TA.AperFunction,ComponentPad*%
%ADD14C,3.114040*%
%TD*%
%TA.AperFunction,ComponentPad*%
%ADD15C,5.600000*%
%TD*%
%TA.AperFunction,SMDPad,CuDef*%
%ADD16RoundRect,0.237500X0.250000X0.237500X-0.250000X0.237500X-0.250000X-0.237500X0.250000X-0.237500X0*%
%TD*%
%TA.AperFunction,ComponentPad*%
%ADD17O,2.720000X3.240000*%
%TD*%
%TA.AperFunction,SMDPad,CuDef*%
%ADD18RoundRect,0.237500X-0.250000X-0.237500X0.250000X-0.237500X0.250000X0.237500X-0.250000X0.237500X0*%
%TD*%
%TA.AperFunction,ComponentPad*%
%ADD19RoundRect,0.250000X0.600000X0.725000X-0.600000X0.725000X-0.600000X-0.725000X0.600000X-0.725000X0*%
%TD*%
%TA.AperFunction,ComponentPad*%
%ADD20O,1.700000X1.950000*%
%TD*%
%TA.AperFunction,ComponentPad*%
%ADD21RoundRect,0.250000X-0.725000X0.600000X-0.725000X-0.600000X0.725000X-0.600000X0.725000X0.600000X0*%
%TD*%
%TA.AperFunction,ComponentPad*%
%ADD22O,1.950000X1.700000*%
%TD*%
%TA.AperFunction,ViaPad*%
%ADD23C,0.800000*%
%TD*%
%TA.AperFunction,Conductor*%
%ADD24C,0.400000*%
%TD*%
G04 APERTURE END LIST*
D10*
%TO.P,D4,1,K*%
%TO.N,band3*%
X214649900Y-44800000D03*
D11*
%TO.P,D4,2,A*%
%TO.N,Net-(D4-A)*%
X217189900Y-44800000D03*
%TD*%
D12*
%TO.P,S1,1*%
%TO.N,Net-(R9-Pad1)*%
X191002040Y-43002300D03*
%TO.P,S1,2*%
%TO.N,Net-(R10-Pad1)*%
X193001020Y-43002300D03*
%TO.P,S1,3*%
%TO.N,EQ_BAND_BTN*%
X195000000Y-43002300D03*
%TO.P,S1,4*%
%TO.N,unconnected-(S1-Pad4)*%
X196998980Y-43002300D03*
%TO.P,S1,5*%
%TO.N,+3.3V*%
X198997960Y-43002300D03*
D13*
%TO.P,S1,A*%
%TO.N,Net-(R1-Pad2)*%
X192500640Y-57498080D03*
%TO.P,S1,B*%
%TO.N,Net-(R4-Pad2)*%
X197499360Y-57498080D03*
%TO.P,S1,C*%
%TO.N,GND*%
X195000000Y-57498080D03*
D14*
%TO.P,S1,M1*%
%TO.N,N/C*%
X189450100Y-50000000D03*
%TO.P,S1,M2*%
X200549900Y-50000000D03*
%TD*%
D15*
%TO.P,H2,1,1*%
%TO.N,GND*%
X144200000Y-67000000D03*
%TD*%
D12*
%TO.P,S2,1*%
%TO.N,Net-(R12-Pad2)*%
X167002040Y-43002300D03*
%TO.P,S2,2*%
%TO.N,unconnected-(S2-Pad2)*%
X169001020Y-43002300D03*
%TO.P,S2,3*%
%TO.N,unconnected-(S2-Pad3)*%
X171000000Y-43002300D03*
%TO.P,S2,4*%
%TO.N,Net-(R11-Pad2)*%
X172998980Y-43002300D03*
%TO.P,S2,5*%
%TO.N,+3.3V*%
X174997960Y-43002300D03*
D13*
%TO.P,S2,A*%
%TO.N,Net-(R3-Pad2)*%
X168500640Y-57498080D03*
%TO.P,S2,B*%
%TO.N,Net-(R7-Pad2)*%
X173499360Y-57498080D03*
%TO.P,S2,C*%
%TO.N,GND*%
X171000000Y-57498080D03*
D14*
%TO.P,S2,M1*%
%TO.N,N/C*%
X165450100Y-50000000D03*
%TO.P,S2,M2*%
X176549900Y-50000000D03*
%TD*%
D10*
%TO.P,D1,1,K*%
%TO.N,band0*%
X214649900Y-65800000D03*
D11*
%TO.P,D1,2,A*%
%TO.N,Net-(D1-A)*%
X217189900Y-65800000D03*
%TD*%
D10*
%TO.P,D2,1,K*%
%TO.N,band1*%
X214649900Y-58800000D03*
D11*
%TO.P,D2,2,A*%
%TO.N,Net-(D2-A)*%
X217189900Y-58800000D03*
%TD*%
D16*
%TO.P,R9,1*%
%TO.N,Net-(R9-Pad1)*%
X187012500Y-44700000D03*
%TO.P,R9,2*%
%TO.N,TIM3_CH2*%
X185187500Y-44700000D03*
%TD*%
D10*
%TO.P,D3,1,K*%
%TO.N,band2*%
X214649900Y-51800000D03*
D11*
%TO.P,D3,2,A*%
%TO.N,Net-(D3-A)*%
X217189900Y-51800000D03*
%TD*%
D17*
%TO.P,RV1,*%
%TO.N,*%
X154700000Y-51400000D03*
X145100000Y-51400000D03*
D10*
%TO.P,RV1,1,1*%
%TO.N,+3.3V*%
X152400000Y-43900000D03*
D11*
%TO.P,RV1,2,2*%
%TO.N,Potar_volume*%
X149900000Y-43900000D03*
%TO.P,RV1,3,3*%
%TO.N,GND*%
X147400000Y-43900000D03*
%TD*%
D15*
%TO.P,H3,1,1*%
%TO.N,GND*%
X200200000Y-67000000D03*
%TD*%
D18*
%TO.P,R11,1*%
%TO.N,TIM3_CH3*%
X161687500Y-47600000D03*
%TO.P,R11,2*%
%TO.N,Net-(R11-Pad2)*%
X163512500Y-47600000D03*
%TD*%
D15*
%TO.P,H1,1,1*%
%TO.N,GND*%
X183000000Y-52000000D03*
%TD*%
D16*
%TO.P,R10,1*%
%TO.N,Net-(R10-Pad1)*%
X186912500Y-46800000D03*
%TO.P,R10,2*%
%TO.N,TIM3_CH1*%
X185087500Y-46800000D03*
%TD*%
D18*
%TO.P,R12,1*%
%TO.N,TIM3_CH4*%
X160787500Y-44600000D03*
%TO.P,R12,2*%
%TO.N,Net-(R12-Pad2)*%
X162612500Y-44600000D03*
%TD*%
D19*
%TO.P,J4,1,Pin_1*%
%TO.N,A Encodeur 1*%
X169800000Y-66200000D03*
D20*
%TO.P,J4,2,Pin_2*%
%TO.N,B Encodeur 1*%
X167300000Y-66200000D03*
%TO.P,J4,3,Pin_3*%
%TO.N,B Encodeur 2*%
X164800000Y-66200000D03*
%TO.P,J4,4,Pin_4*%
%TO.N,A Encodeur 2*%
X162300000Y-66200000D03*
%TO.P,J4,5,Pin_5*%
%TO.N,TIM3_CH1*%
X159800000Y-66200000D03*
%TO.P,J4,6,Pin_6*%
%TO.N,TIM3_CH2*%
X157300000Y-66200000D03*
%TO.P,J4,7,Pin_7*%
%TO.N,TIM3_CH3*%
X154800000Y-66200000D03*
%TO.P,J4,8,Pin_8*%
%TO.N,TIM3_CH4*%
X152300000Y-66200000D03*
%TD*%
D21*
%TO.P,J5,1,Pin_1*%
%TO.N,+3.3V*%
X207900000Y-46100000D03*
D22*
%TO.P,J5,2,Pin_2*%
%TO.N,Potar_volume*%
X207900000Y-48600000D03*
%TO.P,J5,3,Pin_3*%
%TO.N,EQ_BAND_BTN*%
X207900000Y-51100000D03*
%TO.P,J5,4,Pin_4*%
%TO.N,band3*%
X207900000Y-53600000D03*
%TO.P,J5,5,Pin_5*%
%TO.N,band2*%
X207900000Y-56100000D03*
%TO.P,J5,6,Pin_6*%
%TO.N,band1*%
X207900000Y-58600000D03*
%TO.P,J5,7,Pin_7*%
%TO.N,band0*%
X207900000Y-61100000D03*
%TO.P,J5,8,Pin_8*%
%TO.N,GND*%
X207900000Y-63600000D03*
%TD*%
D23*
%TO.N,GND*%
X172000000Y-65000000D03*
X183000000Y-43000000D03*
X207900000Y-41100000D03*
X199700000Y-45000000D03*
X155000000Y-42500000D03*
X202500000Y-52500000D03*
X183000000Y-65000000D03*
X192500000Y-52500000D03*
X180000000Y-46000000D03*
X166000000Y-62000000D03*
X193900000Y-45300000D03*
X212500000Y-47500000D03*
X197500000Y-52500000D03*
X176000000Y-60000000D03*
X212500000Y-52500000D03*
X171000000Y-47500000D03*
X199000000Y-59000000D03*
X177500000Y-52500000D03*
X187500000Y-52500000D03*
X160000000Y-57500000D03*
X204400000Y-43900000D03*
X222900000Y-41800000D03*
X215000000Y-62500000D03*
X155000000Y-62500000D03*
X212500000Y-42500000D03*
X167000000Y-46000000D03*
X202600000Y-42000000D03*
X155000000Y-57500000D03*
%TO.N,+3.3V*%
X221700000Y-61700000D03*
X221600000Y-49400000D03*
X195000000Y-61700000D03*
X170500000Y-61200000D03*
%TD*%
D24*
%TO.N,band1*%
X214449900Y-58600000D02*
X214649900Y-58800000D01*
%TO.N,TIM3_CH1*%
X159800000Y-63900000D02*
X159800000Y-66200000D01*
X176900000Y-46800000D02*
X159800000Y-63900000D01*
X185087500Y-46800000D02*
X176900000Y-46800000D01*
%TO.N,TIM3_CH2*%
X176500000Y-44700000D02*
X185187500Y-44700000D01*
X157300000Y-63900000D02*
X176500000Y-44700000D01*
X157300000Y-66200000D02*
X157300000Y-63900000D01*
%TO.N,TIM3_CH4*%
X152300000Y-63100000D02*
X152300000Y-66200000D01*
X160400000Y-44987500D02*
X160400000Y-55000000D01*
X160400000Y-55000000D02*
X152300000Y-63100000D01*
X160787500Y-44600000D02*
X160400000Y-44987500D01*
%TO.N,TIM3_CH3*%
X161687500Y-47600000D02*
X161400000Y-47887500D01*
X161400000Y-47887500D02*
X161400000Y-57400000D01*
X161400000Y-57400000D02*
X154800000Y-64000000D01*
X154800000Y-64000000D02*
X154800000Y-66200000D01*
%TO.N,+3.3V*%
X221900000Y-49400000D02*
X222000000Y-49500000D01*
X221700000Y-61700000D02*
X221800000Y-61800000D01*
X199000260Y-43000000D02*
X198997960Y-43002300D01*
X202800000Y-41000000D02*
X177000260Y-41000000D01*
X221700000Y-61700000D02*
X223900000Y-59500000D01*
X204800000Y-43000000D02*
X199000260Y-43000000D01*
X223900000Y-59500000D02*
X223900000Y-50500000D01*
X207900000Y-46100000D02*
X205800000Y-48200000D01*
X221600000Y-49400000D02*
X221900000Y-49400000D01*
X207900000Y-44200000D02*
X207900000Y-46100000D01*
X223900000Y-50500000D02*
X222900000Y-49500000D01*
X207900000Y-46100000D02*
X204800000Y-43000000D01*
X172300000Y-63000000D02*
X170500000Y-61200000D01*
X177000260Y-41000000D02*
X174997960Y-43002300D01*
X222900000Y-43800000D02*
X220300000Y-41200000D01*
X222900000Y-49500000D02*
X222900000Y-43800000D01*
X210900000Y-41200000D02*
X207900000Y-44200000D01*
X220300000Y-41200000D02*
X210900000Y-41200000D01*
X222000000Y-49500000D02*
X221700000Y-49500000D01*
X207900000Y-46100000D02*
X200700000Y-46100000D01*
X222900000Y-49500000D02*
X222000000Y-49500000D01*
X221700000Y-49500000D02*
X221600000Y-49400000D01*
X200700000Y-46100000D02*
X183800000Y-63000000D01*
X205800000Y-48200000D02*
X205800000Y-55300000D01*
X198300000Y-62800000D02*
X196100000Y-62800000D01*
X196100000Y-62800000D02*
X195000000Y-61700000D01*
X207900000Y-46100000D02*
X202800000Y-41000000D01*
X205800000Y-55300000D02*
X198300000Y-62800000D01*
X183800000Y-63000000D02*
X172300000Y-63000000D01*
%TO.N,Net-(R9-Pad1)*%
X187012500Y-44700000D02*
X189304340Y-44700000D01*
X189304340Y-44700000D02*
X191002040Y-43002300D01*
%TO.N,Net-(R10-Pad1)*%
X186912500Y-46800000D02*
X189203320Y-46800000D01*
X189203320Y-46800000D02*
X193001020Y-43002300D01*
%TO.N,Net-(R11-Pad2)*%
X163512500Y-47600000D02*
X168401280Y-47600000D01*
X168401280Y-47600000D02*
X172998980Y-43002300D01*
%TO.N,Net-(R12-Pad2)*%
X162612500Y-44600000D02*
X165404340Y-44600000D01*
X165404340Y-44600000D02*
X167002040Y-43002300D01*
%TD*%
%TA.AperFunction,Conductor*%
%TO.N,GND*%
G36*
X176276780Y-40520185D02*
G01*
X176322535Y-40572989D01*
X176332479Y-40642147D01*
X176303454Y-40705703D01*
X176297422Y-40712181D01*
X175401363Y-41608238D01*
X175340040Y-41641723D01*
X175293272Y-41642866D01*
X175113097Y-41612800D01*
X174882823Y-41612800D01*
X174837396Y-41620380D01*
X174655685Y-41650702D01*
X174437898Y-41725469D01*
X174437890Y-41725472D01*
X174235369Y-41835072D01*
X174074632Y-41960178D01*
X174009638Y-41985820D01*
X173941098Y-41972253D01*
X173922308Y-41960178D01*
X173761570Y-41835072D01*
X173761569Y-41835071D01*
X173559049Y-41725472D01*
X173559041Y-41725469D01*
X173341254Y-41650702D01*
X173170900Y-41622275D01*
X173114117Y-41612800D01*
X172883843Y-41612800D01*
X172838416Y-41620380D01*
X172656705Y-41650702D01*
X172438918Y-41725469D01*
X172438910Y-41725472D01*
X172236389Y-41835072D01*
X172075652Y-41960178D01*
X172010658Y-41985820D01*
X171942118Y-41972253D01*
X171923328Y-41960178D01*
X171762590Y-41835072D01*
X171762589Y-41835071D01*
X171560069Y-41725472D01*
X171560061Y-41725469D01*
X171342274Y-41650702D01*
X171171920Y-41622275D01*
X171115137Y-41612800D01*
X170884863Y-41612800D01*
X170839436Y-41620380D01*
X170657725Y-41650702D01*
X170439938Y-41725469D01*
X170439930Y-41725472D01*
X170237409Y-41835072D01*
X170076672Y-41960178D01*
X170011678Y-41985820D01*
X169943138Y-41972253D01*
X169924348Y-41960178D01*
X169763610Y-41835072D01*
X169763609Y-41835071D01*
X169561089Y-41725472D01*
X169561081Y-41725469D01*
X169343294Y-41650702D01*
X169172940Y-41622275D01*
X169116157Y-41612800D01*
X168885883Y-41612800D01*
X168840456Y-41620380D01*
X168658745Y-41650702D01*
X168440958Y-41725469D01*
X168440950Y-41725472D01*
X168238429Y-41835072D01*
X168077692Y-41960178D01*
X168012698Y-41985820D01*
X167944158Y-41972253D01*
X167925368Y-41960178D01*
X167764630Y-41835072D01*
X167764629Y-41835071D01*
X167562109Y-41725472D01*
X167562101Y-41725469D01*
X167344314Y-41650702D01*
X167173960Y-41622275D01*
X167117177Y-41612800D01*
X166886903Y-41612800D01*
X166841476Y-41620380D01*
X166659765Y-41650702D01*
X166441978Y-41725469D01*
X166441970Y-41725472D01*
X166239448Y-41835072D01*
X166057734Y-41976506D01*
X166057729Y-41976511D01*
X165901768Y-42145929D01*
X165775822Y-42338705D01*
X165683322Y-42549585D01*
X165626793Y-42772815D01*
X165607778Y-43002294D01*
X165607778Y-43002305D01*
X165626793Y-43231784D01*
X165640838Y-43287247D01*
X165638213Y-43357068D01*
X165608313Y-43405368D01*
X165150502Y-43863181D01*
X165089179Y-43896666D01*
X165062821Y-43899500D01*
X163494552Y-43899500D01*
X163427513Y-43879815D01*
X163406871Y-43863181D01*
X163323351Y-43779661D01*
X163323350Y-43779660D01*
X163205561Y-43707007D01*
X163176518Y-43689093D01*
X163176513Y-43689091D01*
X163155663Y-43682182D01*
X163012753Y-43634826D01*
X163012751Y-43634825D01*
X162911678Y-43624500D01*
X162313330Y-43624500D01*
X162313312Y-43624501D01*
X162212247Y-43634825D01*
X162048484Y-43689092D01*
X162048481Y-43689093D01*
X161901648Y-43779661D01*
X161787681Y-43893629D01*
X161726358Y-43927114D01*
X161656666Y-43922130D01*
X161612319Y-43893629D01*
X161498351Y-43779661D01*
X161498350Y-43779660D01*
X161380561Y-43707007D01*
X161351518Y-43689093D01*
X161351513Y-43689091D01*
X161330663Y-43682182D01*
X161187753Y-43634826D01*
X161187751Y-43634825D01*
X161086678Y-43624500D01*
X160488330Y-43624500D01*
X160488312Y-43624501D01*
X160387247Y-43634825D01*
X160223484Y-43689092D01*
X160223481Y-43689093D01*
X160076648Y-43779661D01*
X159954661Y-43901648D01*
X159864093Y-44048481D01*
X159864091Y-44048486D01*
X159853905Y-44079225D01*
X159809826Y-44212247D01*
X159809826Y-44212248D01*
X159809825Y-44212248D01*
X159799500Y-44313315D01*
X159799500Y-44587729D01*
X159781255Y-44649861D01*
X159782099Y-44650312D01*
X159779933Y-44654363D01*
X159779815Y-44654768D01*
X159779284Y-44655578D01*
X159779224Y-44655689D01*
X159726420Y-44783171D01*
X159726418Y-44783179D01*
X159701732Y-44907283D01*
X159701732Y-44907288D01*
X159699500Y-44918507D01*
X159699500Y-44918510D01*
X159699500Y-54658480D01*
X159679815Y-54725519D01*
X159663181Y-54746161D01*
X151755890Y-62653451D01*
X151755887Y-62653454D01*
X151704070Y-62731006D01*
X151704069Y-62731007D01*
X151679229Y-62768180D01*
X151679221Y-62768195D01*
X151626421Y-62895667D01*
X151626418Y-62895677D01*
X151599500Y-63031004D01*
X151599500Y-64851452D01*
X151579815Y-64918491D01*
X151548385Y-64951770D01*
X151420213Y-65044890D01*
X151269890Y-65195213D01*
X151144951Y-65367179D01*
X151048444Y-65556585D01*
X151048443Y-65556587D01*
X151048443Y-65556588D01*
X151044509Y-65568695D01*
X150982753Y-65758760D01*
X150953294Y-65944760D01*
X150949500Y-65968713D01*
X150949500Y-66431287D01*
X150982754Y-66641243D01*
X151045358Y-66833918D01*
X151048444Y-66843414D01*
X151144951Y-67032820D01*
X151269890Y-67204786D01*
X151420213Y-67355109D01*
X151592179Y-67480048D01*
X151592181Y-67480049D01*
X151592184Y-67480051D01*
X151781588Y-67576557D01*
X151983757Y-67642246D01*
X152193713Y-67675500D01*
X152193714Y-67675500D01*
X152406286Y-67675500D01*
X152406287Y-67675500D01*
X152616243Y-67642246D01*
X152818412Y-67576557D01*
X153007816Y-67480051D01*
X153054275Y-67446297D01*
X153179786Y-67355109D01*
X153179788Y-67355106D01*
X153179792Y-67355104D01*
X153330104Y-67204792D01*
X153449683Y-67040204D01*
X153505011Y-66997540D01*
X153574624Y-66991561D01*
X153636420Y-67024166D01*
X153650313Y-67040199D01*
X153684271Y-67086938D01*
X153769896Y-67204792D01*
X153920213Y-67355109D01*
X154092179Y-67480048D01*
X154092181Y-67480049D01*
X154092184Y-67480051D01*
X154281588Y-67576557D01*
X154483757Y-67642246D01*
X154693713Y-67675500D01*
X154693714Y-67675500D01*
X154906286Y-67675500D01*
X154906287Y-67675500D01*
X155116243Y-67642246D01*
X155318412Y-67576557D01*
X155507816Y-67480051D01*
X155554275Y-67446297D01*
X155679786Y-67355109D01*
X155679788Y-67355106D01*
X155679792Y-67355104D01*
X155830104Y-67204792D01*
X155949683Y-67040204D01*
X156005011Y-66997540D01*
X156074624Y-66991561D01*
X156136420Y-67024166D01*
X156150313Y-67040199D01*
X156184271Y-67086938D01*
X156269896Y-67204792D01*
X156420213Y-67355109D01*
X156592179Y-67480048D01*
X156592181Y-67480049D01*
X156592184Y-67480051D01*
X156781588Y-67576557D01*
X156983757Y-67642246D01*
X157193713Y-67675500D01*
X157193714Y-67675500D01*
X157406286Y-67675500D01*
X157406287Y-67675500D01*
X157616243Y-67642246D01*
X157818412Y-67576557D01*
X158007816Y-67480051D01*
X158054275Y-67446297D01*
X158179786Y-67355109D01*
X158179788Y-67355106D01*
X158179792Y-67355104D01*
X158330104Y-67204792D01*
X158449683Y-67040204D01*
X158505011Y-66997540D01*
X158574624Y-66991561D01*
X158636420Y-67024166D01*
X158650313Y-67040199D01*
X158684271Y-67086938D01*
X158769896Y-67204792D01*
X158920213Y-67355109D01*
X159092179Y-67480048D01*
X159092181Y-67480049D01*
X159092184Y-67480051D01*
X159281588Y-67576557D01*
X159483757Y-67642246D01*
X159693713Y-67675500D01*
X159693714Y-67675500D01*
X159906286Y-67675500D01*
X159906287Y-67675500D01*
X160116243Y-67642246D01*
X160318412Y-67576557D01*
X160507816Y-67480051D01*
X160554275Y-67446297D01*
X160679786Y-67355109D01*
X160679788Y-67355106D01*
X160679792Y-67355104D01*
X160830104Y-67204792D01*
X160949683Y-67040204D01*
X161005011Y-66997540D01*
X161074624Y-66991561D01*
X161136420Y-67024166D01*
X161150313Y-67040199D01*
X161184271Y-67086938D01*
X161269896Y-67204792D01*
X161420213Y-67355109D01*
X161592179Y-67480048D01*
X161592181Y-67480049D01*
X161592184Y-67480051D01*
X161781588Y-67576557D01*
X161983757Y-67642246D01*
X162193713Y-67675500D01*
X162193714Y-67675500D01*
X162406286Y-67675500D01*
X162406287Y-67675500D01*
X162616243Y-67642246D01*
X162818412Y-67576557D01*
X163007816Y-67480051D01*
X163054275Y-67446297D01*
X163179786Y-67355109D01*
X163179788Y-67355106D01*
X163179792Y-67355104D01*
X163330104Y-67204792D01*
X163449683Y-67040204D01*
X163505011Y-66997540D01*
X163574624Y-66991561D01*
X163636420Y-67024166D01*
X163650313Y-67040199D01*
X163684271Y-67086938D01*
X163769896Y-67204792D01*
X163920213Y-67355109D01*
X164092179Y-67480048D01*
X164092181Y-67480049D01*
X164092184Y-67480051D01*
X164281588Y-67576557D01*
X164483757Y-67642246D01*
X164693713Y-67675500D01*
X164693714Y-67675500D01*
X164906286Y-67675500D01*
X164906287Y-67675500D01*
X165116243Y-67642246D01*
X165318412Y-67576557D01*
X165507816Y-67480051D01*
X165554275Y-67446297D01*
X165679786Y-67355109D01*
X165679788Y-67355106D01*
X165679792Y-67355104D01*
X165830104Y-67204792D01*
X165949683Y-67040204D01*
X166005011Y-66997540D01*
X166074624Y-66991561D01*
X166136420Y-67024166D01*
X166150313Y-67040199D01*
X166184271Y-67086938D01*
X166269896Y-67204792D01*
X166420213Y-67355109D01*
X166592179Y-67480048D01*
X166592181Y-67480049D01*
X166592184Y-67480051D01*
X166781588Y-67576557D01*
X166983757Y-67642246D01*
X167193713Y-67675500D01*
X167193714Y-67675500D01*
X167406286Y-67675500D01*
X167406287Y-67675500D01*
X167616243Y-67642246D01*
X167818412Y-67576557D01*
X168007816Y-67480051D01*
X168179792Y-67355104D01*
X168318604Y-67216291D01*
X168379923Y-67182809D01*
X168449615Y-67187793D01*
X168505549Y-67229664D01*
X168511821Y-67238878D01*
X168515185Y-67244333D01*
X168515186Y-67244334D01*
X168607288Y-67393656D01*
X168731344Y-67517712D01*
X168880666Y-67609814D01*
X169047203Y-67664999D01*
X169149991Y-67675500D01*
X170450008Y-67675499D01*
X170500920Y-67670298D01*
X170569612Y-67683067D01*
X170620496Y-67730948D01*
X170637417Y-67798738D01*
X170628082Y-67841108D01*
X170582185Y-67951913D01*
X170582182Y-67951925D01*
X170549500Y-68116228D01*
X170549500Y-68283771D01*
X170582182Y-68448074D01*
X170582184Y-68448082D01*
X170646295Y-68602860D01*
X170739373Y-68742162D01*
X170857837Y-68860626D01*
X170950494Y-68922537D01*
X170997137Y-68953703D01*
X171151918Y-69017816D01*
X171316228Y-69050499D01*
X171316232Y-69050500D01*
X171316233Y-69050500D01*
X171483768Y-69050500D01*
X171483769Y-69050499D01*
X171648082Y-69017816D01*
X171802863Y-68953703D01*
X171942162Y-68860626D01*
X172060626Y-68742162D01*
X172153703Y-68602863D01*
X172217816Y-68448082D01*
X172250500Y-68283767D01*
X172250500Y-68116233D01*
X172217816Y-67951918D01*
X172153703Y-67797137D01*
X172077484Y-67683067D01*
X172060626Y-67657837D01*
X171942162Y-67539373D01*
X171802860Y-67446295D01*
X171648082Y-67382184D01*
X171648074Y-67382182D01*
X171483771Y-67349500D01*
X171483767Y-67349500D01*
X171316233Y-67349500D01*
X171297840Y-67353158D01*
X171240065Y-67364650D01*
X171170473Y-67358421D01*
X171115296Y-67315558D01*
X171092053Y-67249667D01*
X171098168Y-67204034D01*
X171139999Y-67077797D01*
X171150500Y-66975009D01*
X171150499Y-65424992D01*
X171139999Y-65322203D01*
X171084814Y-65155666D01*
X170992712Y-65006344D01*
X170868656Y-64882288D01*
X170749913Y-64809047D01*
X170719336Y-64790187D01*
X170719331Y-64790185D01*
X170717862Y-64789698D01*
X170552797Y-64735001D01*
X170552795Y-64735000D01*
X170450010Y-64724500D01*
X169149998Y-64724500D01*
X169149981Y-64724501D01*
X169047203Y-64735000D01*
X169047200Y-64735001D01*
X168880668Y-64790185D01*
X168880663Y-64790187D01*
X168731342Y-64882289D01*
X168607289Y-65006342D01*
X168511821Y-65161121D01*
X168459873Y-65207845D01*
X168390910Y-65219068D01*
X168326828Y-65191224D01*
X168318601Y-65183705D01*
X168179786Y-65044890D01*
X168007820Y-64919951D01*
X167818414Y-64823444D01*
X167818413Y-64823443D01*
X167818412Y-64823443D01*
X167616243Y-64757754D01*
X167616241Y-64757753D01*
X167616240Y-64757753D01*
X167454957Y-64732208D01*
X167406287Y-64724500D01*
X167193713Y-64724500D01*
X167145042Y-64732208D01*
X166983760Y-64757753D01*
X166781585Y-64823444D01*
X166592179Y-64919951D01*
X166420213Y-65044890D01*
X166269894Y-65195209D01*
X166269890Y-65195214D01*
X166150318Y-65359793D01*
X166094989Y-65402459D01*
X166025375Y-65408438D01*
X165963580Y-65375833D01*
X165949682Y-65359793D01*
X165830109Y-65195214D01*
X165830105Y-65195209D01*
X165679786Y-65044890D01*
X165507820Y-64919951D01*
X165318414Y-64823444D01*
X165318413Y-64823443D01*
X165318412Y-64823443D01*
X165116243Y-64757754D01*
X165116241Y-64757753D01*
X165116240Y-64757753D01*
X164954957Y-64732208D01*
X164906287Y-64724500D01*
X164693713Y-64724500D01*
X164645042Y-64732208D01*
X164483760Y-64757753D01*
X164281585Y-64823444D01*
X164092179Y-64919951D01*
X163920213Y-65044890D01*
X163769894Y-65195209D01*
X163769890Y-65195214D01*
X163650318Y-65359793D01*
X163594989Y-65402459D01*
X163525375Y-65408438D01*
X163463580Y-65375833D01*
X163449682Y-65359793D01*
X163330109Y-65195214D01*
X163330105Y-65195209D01*
X163179786Y-65044890D01*
X163007820Y-64919951D01*
X162818414Y-64823444D01*
X162818413Y-64823443D01*
X162818412Y-64823443D01*
X162616243Y-64757754D01*
X162616241Y-64757753D01*
X162616240Y-64757753D01*
X162454957Y-64732208D01*
X162406287Y-64724500D01*
X162193713Y-64724500D01*
X162145042Y-64732208D01*
X161983760Y-64757753D01*
X161781585Y-64823444D01*
X161592179Y-64919951D01*
X161420213Y-65044890D01*
X161269894Y-65195209D01*
X161269890Y-65195214D01*
X161150318Y-65359793D01*
X161094989Y-65402459D01*
X161025375Y-65408438D01*
X160963580Y-65375833D01*
X160949682Y-65359793D01*
X160830109Y-65195214D01*
X160830105Y-65195209D01*
X160679786Y-65044890D01*
X160551615Y-64951770D01*
X160508949Y-64896441D01*
X160500500Y-64851452D01*
X160500500Y-64241518D01*
X160520185Y-64174479D01*
X160536814Y-64153842D01*
X166929922Y-57760733D01*
X166991243Y-57727250D01*
X167060935Y-57732234D01*
X167116868Y-57774106D01*
X167137807Y-57817976D01*
X167172279Y-57954106D01*
X167249939Y-58131151D01*
X167265457Y-58166528D01*
X167318679Y-58247990D01*
X167381209Y-58343700D01*
X167392326Y-58360715D01*
X167549427Y-58531373D01*
X167597379Y-58568695D01*
X167732466Y-58673838D01*
X167732472Y-58673842D01*
X167732475Y-58673844D01*
X167936476Y-58784244D01*
X168050397Y-58823353D01*
X168155862Y-58859560D01*
X168155864Y-58859560D01*
X168155866Y-58859561D01*
X168384661Y-58897740D01*
X168384662Y-58897740D01*
X168616618Y-58897740D01*
X168616619Y-58897740D01*
X168845414Y-58859561D01*
X168846836Y-58859073D01*
X168853867Y-58856658D01*
X169064804Y-58784244D01*
X169268805Y-58673844D01*
X169451853Y-58531373D01*
X169608954Y-58360715D01*
X169646810Y-58302771D01*
X169699956Y-58257415D01*
X169769187Y-58247991D01*
X169832523Y-58277493D01*
X169847624Y-58294920D01*
X169849419Y-58295106D01*
X170476285Y-57668239D01*
X170487566Y-57710337D01*
X170559963Y-57835733D01*
X170662347Y-57938117D01*
X170787743Y-58010514D01*
X170829838Y-58021793D01*
X170201799Y-58649832D01*
X170201800Y-58649833D01*
X170232107Y-58673422D01*
X170436036Y-58783784D01*
X170436041Y-58783786D01*
X170655346Y-58859073D01*
X170884063Y-58897240D01*
X171115937Y-58897240D01*
X171344653Y-58859073D01*
X171563958Y-58783786D01*
X171563963Y-58783784D01*
X171767893Y-58673422D01*
X171767896Y-58673420D01*
X171798198Y-58649833D01*
X171798199Y-58649831D01*
X171170161Y-58021793D01*
X171212257Y-58010514D01*
X171337653Y-57938117D01*
X171440037Y-57835733D01*
X171512434Y-57710337D01*
X171523713Y-57668240D01*
X172150579Y-58295106D01*
X172155101Y-58294637D01*
X172198717Y-58257414D01*
X172267948Y-58247990D01*
X172331284Y-58277491D01*
X172353189Y-58302771D01*
X172391041Y-58360709D01*
X172391043Y-58360711D01*
X172391046Y-58360715D01*
X172548147Y-58531373D01*
X172596099Y-58568695D01*
X172731186Y-58673838D01*
X172731192Y-58673842D01*
X172731195Y-58673844D01*
X172935196Y-58784244D01*
X173049117Y-58823353D01*
X173154582Y-58859560D01*
X173154584Y-58859560D01*
X173154586Y-58859561D01*
X173383381Y-58897740D01*
X173383382Y-58897740D01*
X173615338Y-58897740D01*
X173615339Y-58897740D01*
X173844134Y-58859561D01*
X173845556Y-58859073D01*
X173852587Y-58856658D01*
X174063524Y-58784244D01*
X174267525Y-58673844D01*
X174450573Y-58531373D01*
X174607674Y-58360715D01*
X174734543Y-58166528D01*
X174827720Y-57954106D01*
X174884662Y-57729246D01*
X174900140Y-57542452D01*
X174903817Y-57498085D01*
X174903817Y-57498074D01*
X174884662Y-57266917D01*
X174884662Y-57266914D01*
X174827720Y-57042054D01*
X174734543Y-56829632D01*
X174607674Y-56635445D01*
X174450573Y-56464787D01*
X174422023Y-56442566D01*
X174267533Y-56322321D01*
X174267527Y-56322317D01*
X174063525Y-56211916D01*
X174063516Y-56211913D01*
X173844137Y-56136599D01*
X173649569Y-56104132D01*
X173615339Y-56098420D01*
X173383381Y-56098420D01*
X173349151Y-56104132D01*
X173154582Y-56136599D01*
X172935203Y-56211913D01*
X172935194Y-56211916D01*
X172731192Y-56322317D01*
X172731186Y-56322321D01*
X172548154Y-56464781D01*
X172548149Y-56464785D01*
X172548147Y-56464787D01*
X172391046Y-56635445D01*
X172391044Y-56635447D01*
X172391042Y-56635450D01*
X172353188Y-56693389D01*
X172300041Y-56738745D01*
X172230809Y-56748168D01*
X172167474Y-56718665D01*
X172152374Y-56701238D01*
X172150579Y-56701052D01*
X171523713Y-57327918D01*
X171512434Y-57285823D01*
X171440037Y-57160427D01*
X171337653Y-57058043D01*
X171212257Y-56985646D01*
X171170160Y-56974366D01*
X171798198Y-56346326D01*
X171798198Y-56346325D01*
X171767892Y-56322737D01*
X171563963Y-56212375D01*
X171563958Y-56212373D01*
X171344653Y-56137086D01*
X171115937Y-56098920D01*
X170884063Y-56098920D01*
X170655346Y-56137086D01*
X170436041Y-56212373D01*
X170436036Y-56212375D01*
X170232111Y-56322735D01*
X170201800Y-56346326D01*
X170829839Y-56974365D01*
X170787743Y-56985646D01*
X170662347Y-57058043D01*
X170559963Y-57160427D01*
X170487566Y-57285823D01*
X170476286Y-57327919D01*
X169849419Y-56701052D01*
X169844895Y-56701521D01*
X169801279Y-56738744D01*
X169732047Y-56748167D01*
X169668712Y-56718664D01*
X169646809Y-56693386D01*
X169608958Y-56635450D01*
X169608955Y-56635447D01*
X169608954Y-56635445D01*
X169451853Y-56464787D01*
X169423303Y-56442566D01*
X169268813Y-56322321D01*
X169268807Y-56322317D01*
X169064805Y-56211916D01*
X169064796Y-56211913D01*
X168845418Y-56136599D01*
X168833333Y-56134583D01*
X168770448Y-56104132D01*
X168734009Y-56044516D01*
X168735585Y-55974664D01*
X168766061Y-55924595D01*
X174327734Y-50362921D01*
X174389055Y-50329438D01*
X174458747Y-50334422D01*
X174514680Y-50376294D01*
X174536819Y-50425375D01*
X174564045Y-50556397D01*
X174564046Y-50556400D01*
X174564048Y-50556407D01*
X174564049Y-50556409D01*
X174658309Y-50821634D01*
X174658310Y-50821637D01*
X174658311Y-50821638D01*
X174674109Y-50852127D01*
X174787807Y-51071553D01*
X174950129Y-51301510D01*
X174950133Y-51301514D01*
X174950133Y-51301515D01*
X175142255Y-51507226D01*
X175217806Y-51568691D01*
X175360596Y-51684860D01*
X175360598Y-51684861D01*
X175360599Y-51684862D01*
X175601096Y-51831112D01*
X175601101Y-51831114D01*
X175831823Y-51931330D01*
X175859268Y-51943251D01*
X176130307Y-52019193D01*
X176375465Y-52052888D01*
X176409161Y-52057520D01*
X176409162Y-52057520D01*
X176690639Y-52057520D01*
X176720701Y-52053387D01*
X176969493Y-52019193D01*
X177037986Y-52000002D01*
X179695153Y-52000002D01*
X179714526Y-52357314D01*
X179714527Y-52357331D01*
X179772415Y-52710431D01*
X179772421Y-52710457D01*
X179868147Y-53055232D01*
X179868149Y-53055239D01*
X180000597Y-53387659D01*
X180000606Y-53387677D01*
X180168218Y-53703827D01*
X180369024Y-53999994D01*
X180369035Y-54000008D01*
X180496441Y-54150002D01*
X180496442Y-54150002D01*
X181705747Y-52940697D01*
X181779588Y-53042330D01*
X181957670Y-53220412D01*
X182059300Y-53294251D01*
X180847257Y-54506294D01*
X180860495Y-54518836D01*
X181145367Y-54735388D01*
X181145370Y-54735390D01*
X181451990Y-54919876D01*
X181776739Y-55070122D01*
X181776744Y-55070123D01*
X182115855Y-55184383D01*
X182465339Y-55261311D01*
X182821075Y-55299999D01*
X182821085Y-55300000D01*
X183178915Y-55300000D01*
X183178924Y-55299999D01*
X183534660Y-55261311D01*
X183884144Y-55184383D01*
X184223255Y-55070123D01*
X184223260Y-55070122D01*
X184548009Y-54919876D01*
X184854629Y-54735390D01*
X184854632Y-54735388D01*
X185139509Y-54518831D01*
X185152742Y-54506295D01*
X185152742Y-54506294D01*
X183940699Y-53294251D01*
X184042330Y-53220412D01*
X184220412Y-53042330D01*
X184294251Y-52940698D01*
X185503556Y-54150002D01*
X185630972Y-53999998D01*
X185630975Y-53999994D01*
X185831781Y-53703827D01*
X185999393Y-53387677D01*
X185999402Y-53387659D01*
X186131850Y-53055239D01*
X186131852Y-53055232D01*
X186227578Y-52710457D01*
X186227584Y-52710431D01*
X186285472Y-52357331D01*
X186285473Y-52357314D01*
X186304847Y-52000002D01*
X186304847Y-51999997D01*
X186285473Y-51642685D01*
X186285472Y-51642668D01*
X186227584Y-51289568D01*
X186227578Y-51289542D01*
X186131852Y-50944767D01*
X186131850Y-50944760D01*
X185999402Y-50612340D01*
X185999393Y-50612322D01*
X185831781Y-50296172D01*
X185630975Y-50000005D01*
X185630971Y-50000000D01*
X187387772Y-50000000D01*
X187406980Y-50280820D01*
X187406981Y-50280822D01*
X187464245Y-50556394D01*
X187464246Y-50556400D01*
X187464248Y-50556407D01*
X187464249Y-50556409D01*
X187558509Y-50821634D01*
X187558510Y-50821637D01*
X187558511Y-50821638D01*
X187574309Y-50852127D01*
X187688007Y-51071553D01*
X187850329Y-51301510D01*
X187850333Y-51301514D01*
X187850333Y-51301515D01*
X188042455Y-51507226D01*
X188118006Y-51568691D01*
X188260796Y-51684860D01*
X188260798Y-51684861D01*
X188260799Y-51684862D01*
X188501296Y-51831112D01*
X188501301Y-51831114D01*
X188732023Y-51931330D01*
X188759468Y-51943251D01*
X189030507Y-52019193D01*
X189275665Y-52052888D01*
X189309361Y-52057520D01*
X189309362Y-52057520D01*
X189590839Y-52057520D01*
X189620901Y-52053387D01*
X189869693Y-52019193D01*
X190140732Y-51943251D01*
X190398905Y-51831111D01*
X190639404Y-51684860D01*
X190857748Y-51507223D01*
X191049871Y-51301510D01*
X191212193Y-51071553D01*
X191341691Y-50821634D01*
X191435951Y-50556409D01*
X191493219Y-50280820D01*
X191512428Y-50000000D01*
X191493219Y-49719180D01*
X191435951Y-49443591D01*
X191341691Y-49178366D01*
X191212193Y-48928447D01*
X191049871Y-48698490D01*
X191049866Y-48698484D01*
X190900782Y-48538855D01*
X190857748Y-48492777D01*
X190857746Y-48492776D01*
X190857744Y-48492773D01*
X190639400Y-48315137D01*
X190398903Y-48168887D01*
X190398898Y-48168885D01*
X190140736Y-48056750D01*
X189869698Y-47980808D01*
X189869694Y-47980807D01*
X189869693Y-47980807D01*
X189641419Y-47949432D01*
X189590839Y-47942480D01*
X189590838Y-47942480D01*
X189309362Y-47942480D01*
X189309361Y-47942480D01*
X189030507Y-47980807D01*
X189030501Y-47980808D01*
X188759463Y-48056750D01*
X188501301Y-48168885D01*
X188501296Y-48168887D01*
X188260799Y-48315137D01*
X188042455Y-48492773D01*
X187850333Y-48698484D01*
X187850333Y-48698485D01*
X187850330Y-48698487D01*
X187850329Y-48698490D01*
X187821954Y-48738688D01*
X187688007Y-48928446D01*
X187558511Y-49178361D01*
X187464246Y-49443599D01*
X187464245Y-49443605D01*
X187406981Y-49719177D01*
X187406980Y-49719179D01*
X187387772Y-50000000D01*
X185630971Y-50000000D01*
X185630964Y-49999991D01*
X185503556Y-49849996D01*
X184294251Y-51059301D01*
X184220412Y-50957670D01*
X184042330Y-50779588D01*
X183940698Y-50705748D01*
X185152742Y-49493704D01*
X185139504Y-49481163D01*
X184854632Y-49264611D01*
X184854629Y-49264609D01*
X184548009Y-49080123D01*
X184223260Y-48929877D01*
X184223255Y-48929876D01*
X183884144Y-48815616D01*
X183534660Y-48738688D01*
X183178924Y-48700000D01*
X182821075Y-48700000D01*
X182465339Y-48738688D01*
X182115855Y-48815616D01*
X181776744Y-48929876D01*
X181776739Y-48929877D01*
X181451990Y-49080123D01*
X181145370Y-49264609D01*
X181145367Y-49264611D01*
X180860486Y-49481170D01*
X180860485Y-49481171D01*
X180847257Y-49493702D01*
X180847256Y-49493703D01*
X182059301Y-50705748D01*
X181957670Y-50779588D01*
X181779588Y-50957670D01*
X181705748Y-51059301D01*
X180496442Y-49849995D01*
X180496441Y-49849996D01*
X180369033Y-49999992D01*
X180168218Y-50296172D01*
X180000606Y-50612322D01*
X180000597Y-50612340D01*
X179868149Y-50944760D01*
X179868147Y-50944767D01*
X179772421Y-51289542D01*
X179772415Y-51289568D01*
X179714527Y-51642668D01*
X179714526Y-51642685D01*
X179695153Y-51999997D01*
X179695153Y-52000002D01*
X177037986Y-52000002D01*
X177240532Y-51943251D01*
X177498705Y-51831111D01*
X177739204Y-51684860D01*
X177957548Y-51507223D01*
X178149671Y-51301510D01*
X178311993Y-51071553D01*
X178441491Y-50821634D01*
X178535751Y-50556409D01*
X178593019Y-50280820D01*
X178612228Y-50000000D01*
X178593019Y-49719180D01*
X178535751Y-49443591D01*
X178441491Y-49178366D01*
X178311993Y-48928447D01*
X178149671Y-48698490D01*
X178149666Y-48698484D01*
X178000582Y-48538855D01*
X177957548Y-48492777D01*
X177957546Y-48492776D01*
X177957544Y-48492773D01*
X177739200Y-48315137D01*
X177498703Y-48168887D01*
X177498698Y-48168885D01*
X177240536Y-48056750D01*
X176970793Y-47981171D01*
X176911550Y-47944129D01*
X176881739Y-47880938D01*
X176890823Y-47811662D01*
X176916561Y-47774094D01*
X177153840Y-47536816D01*
X177215161Y-47503334D01*
X177241519Y-47500500D01*
X184205448Y-47500500D01*
X184272487Y-47520185D01*
X184293128Y-47536818D01*
X184376650Y-47620340D01*
X184523484Y-47710908D01*
X184687247Y-47765174D01*
X184788323Y-47775500D01*
X185386676Y-47775499D01*
X185386684Y-47775498D01*
X185386687Y-47775498D01*
X185442030Y-47769844D01*
X185487753Y-47765174D01*
X185651516Y-47710908D01*
X185798350Y-47620340D01*
X185912319Y-47506371D01*
X185973642Y-47472886D01*
X186043334Y-47477870D01*
X186087681Y-47506371D01*
X186201650Y-47620340D01*
X186348484Y-47710908D01*
X186512247Y-47765174D01*
X186613323Y-47775500D01*
X187211676Y-47775499D01*
X187211684Y-47775498D01*
X187211687Y-47775498D01*
X187267030Y-47769844D01*
X187312753Y-47765174D01*
X187476516Y-47710908D01*
X187623350Y-47620340D01*
X187706871Y-47536819D01*
X187768194Y-47503334D01*
X187794552Y-47500500D01*
X189272316Y-47500500D01*
X189386081Y-47477870D01*
X189407648Y-47473580D01*
X189488720Y-47439999D01*
X189535127Y-47420777D01*
X189535128Y-47420776D01*
X189535131Y-47420775D01*
X189649863Y-47344114D01*
X192597616Y-44396359D01*
X192658937Y-44362876D01*
X192705701Y-44361733D01*
X192885883Y-44391800D01*
X192885884Y-44391800D01*
X193116156Y-44391800D01*
X193116157Y-44391800D01*
X193343291Y-44353898D01*
X193561089Y-44279128D01*
X193763609Y-44169529D01*
X193763617Y-44169523D01*
X193924348Y-44044422D01*
X193989342Y-44018779D01*
X194057882Y-44032346D01*
X194076672Y-44044422D01*
X194237402Y-44169523D01*
X194237408Y-44169527D01*
X194237411Y-44169529D01*
X194439931Y-44279128D01*
X194501018Y-44300099D01*
X194657725Y-44353897D01*
X194657727Y-44353897D01*
X194657729Y-44353898D01*
X194884863Y-44391800D01*
X194884864Y-44391800D01*
X195115136Y-44391800D01*
X195115137Y-44391800D01*
X195342271Y-44353898D01*
X195560069Y-44279128D01*
X195762589Y-44169529D01*
X195762597Y-44169523D01*
X195923328Y-44044422D01*
X195988322Y-44018779D01*
X196056862Y-44032346D01*
X196075652Y-44044422D01*
X196236382Y-44169523D01*
X196236388Y-44169527D01*
X196236391Y-44169529D01*
X196438911Y-44279128D01*
X196499998Y-44300099D01*
X196656705Y-44353897D01*
X196656707Y-44353897D01*
X196656709Y-44353898D01*
X196883843Y-44391800D01*
X196883844Y-44391800D01*
X197114116Y-44391800D01*
X197114117Y-44391800D01*
X197341251Y-44353898D01*
X197559049Y-44279128D01*
X197761569Y-44169529D01*
X197761577Y-44169523D01*
X197922308Y-44044422D01*
X197987302Y-44018779D01*
X198055842Y-44032346D01*
X198074632Y-44044422D01*
X198235362Y-44169523D01*
X198235368Y-44169527D01*
X198235371Y-44169529D01*
X198437891Y-44279128D01*
X198498978Y-44300099D01*
X198655685Y-44353897D01*
X198655687Y-44353897D01*
X198655689Y-44353898D01*
X198882823Y-44391800D01*
X198882824Y-44391800D01*
X199113096Y-44391800D01*
X199113097Y-44391800D01*
X199340231Y-44353898D01*
X199558029Y-44279128D01*
X199760549Y-44169529D01*
X199942268Y-44028092D01*
X200098229Y-43858673D01*
X200098231Y-43858670D01*
X200164865Y-43756679D01*
X200218011Y-43711322D01*
X200268674Y-43700500D01*
X204458481Y-43700500D01*
X204525520Y-43720185D01*
X204546162Y-43736819D01*
X205997162Y-45187819D01*
X206030647Y-45249142D01*
X206025663Y-45318834D01*
X205983791Y-45374767D01*
X205918327Y-45399184D01*
X205909481Y-45399500D01*
X200631005Y-45399500D01*
X200561161Y-45413393D01*
X200526238Y-45420340D01*
X200501750Y-45425210D01*
X200495670Y-45426420D01*
X200495668Y-45426421D01*
X200368190Y-45479224D01*
X200253454Y-45555887D01*
X200253453Y-45555888D01*
X183546162Y-62263181D01*
X183484839Y-62296666D01*
X183458481Y-62299500D01*
X172641518Y-62299500D01*
X172574479Y-62279815D01*
X172553837Y-62263181D01*
X171990656Y-61700000D01*
X171426503Y-61135846D01*
X171393018Y-61074523D01*
X171390865Y-61061143D01*
X171385674Y-61011744D01*
X171379815Y-60993713D01*
X171327181Y-60831722D01*
X171327180Y-60831721D01*
X171327179Y-60831716D01*
X171232533Y-60667784D01*
X171105871Y-60527112D01*
X171105870Y-60527111D01*
X170952734Y-60415851D01*
X170952729Y-60415848D01*
X170779807Y-60338857D01*
X170779802Y-60338855D01*
X170634001Y-60307865D01*
X170594646Y-60299500D01*
X170405354Y-60299500D01*
X170372897Y-60306398D01*
X170220197Y-60338855D01*
X170220192Y-60338857D01*
X170047270Y-60415848D01*
X170047265Y-60415851D01*
X169894129Y-60527111D01*
X169767466Y-60667785D01*
X169672821Y-60831715D01*
X169672818Y-60831722D01*
X169614327Y-61011740D01*
X169614326Y-61011744D01*
X169594540Y-61200000D01*
X169614326Y-61388256D01*
X169614327Y-61388259D01*
X169672818Y-61568277D01*
X169672821Y-61568284D01*
X169767467Y-61732216D01*
X169863502Y-61838873D01*
X169894129Y-61872888D01*
X170047265Y-61984148D01*
X170047270Y-61984151D01*
X170220191Y-62061142D01*
X170220193Y-62061142D01*
X170220197Y-62061144D01*
X170375130Y-62094075D01*
X170436607Y-62127266D01*
X170437026Y-62127683D01*
X171755886Y-63446542D01*
X171809844Y-63500500D01*
X171853459Y-63544115D01*
X171968184Y-63620772D01*
X171968185Y-63620772D01*
X171968189Y-63620775D01*
X172024535Y-63644114D01*
X172095671Y-63673580D01*
X172095680Y-63673581D01*
X172095681Y-63673582D01*
X172122545Y-63678925D01*
X172122551Y-63678926D01*
X172122591Y-63678934D01*
X172206711Y-63695667D01*
X172231006Y-63700500D01*
X172231007Y-63700500D01*
X183868996Y-63700500D01*
X183977457Y-63678925D01*
X184004328Y-63673580D01*
X184068069Y-63647177D01*
X184131807Y-63620777D01*
X184131808Y-63620776D01*
X184131811Y-63620775D01*
X184246543Y-63544114D01*
X191037421Y-56753235D01*
X191098743Y-56719751D01*
X191168435Y-56724735D01*
X191224368Y-56766607D01*
X191248785Y-56832071D01*
X191238657Y-56890727D01*
X191172280Y-57042053D01*
X191115337Y-57266917D01*
X191096183Y-57498074D01*
X191096183Y-57498085D01*
X191115337Y-57729242D01*
X191172280Y-57954106D01*
X191228197Y-58081585D01*
X191265457Y-58166528D01*
X191318679Y-58247990D01*
X191381209Y-58343700D01*
X191392326Y-58360715D01*
X191549427Y-58531373D01*
X191597379Y-58568695D01*
X191732466Y-58673838D01*
X191732472Y-58673842D01*
X191732475Y-58673844D01*
X191936476Y-58784244D01*
X192050397Y-58823353D01*
X192155862Y-58859560D01*
X192155864Y-58859560D01*
X192155866Y-58859561D01*
X192384661Y-58897740D01*
X192384662Y-58897740D01*
X192616618Y-58897740D01*
X192616619Y-58897740D01*
X192845414Y-58859561D01*
X192846836Y-58859073D01*
X192853867Y-58856658D01*
X193064804Y-58784244D01*
X193268805Y-58673844D01*
X193451853Y-58531373D01*
X193608954Y-58360715D01*
X193646810Y-58302771D01*
X193699956Y-58257415D01*
X193769187Y-58247991D01*
X193832523Y-58277493D01*
X193847624Y-58294920D01*
X193849419Y-58295106D01*
X194476285Y-57668239D01*
X194487566Y-57710337D01*
X194559963Y-57835733D01*
X194662347Y-57938117D01*
X194787743Y-58010514D01*
X194829838Y-58021793D01*
X194201799Y-58649832D01*
X194201800Y-58649833D01*
X194232107Y-58673422D01*
X194436036Y-58783784D01*
X194436041Y-58783786D01*
X194655346Y-58859073D01*
X194884063Y-58897240D01*
X195115937Y-58897240D01*
X195344653Y-58859073D01*
X195563958Y-58783786D01*
X195563963Y-58783784D01*
X195767893Y-58673422D01*
X195767896Y-58673420D01*
X195798198Y-58649833D01*
X195798199Y-58649831D01*
X195170161Y-58021793D01*
X195212257Y-58010514D01*
X195337653Y-57938117D01*
X195440037Y-57835733D01*
X195512434Y-57710337D01*
X195523713Y-57668240D01*
X196150579Y-58295106D01*
X196155101Y-58294637D01*
X196198717Y-58257414D01*
X196267948Y-58247990D01*
X196331284Y-58277491D01*
X196353189Y-58302771D01*
X196391041Y-58360709D01*
X196391043Y-58360711D01*
X196391046Y-58360715D01*
X196548147Y-58531373D01*
X196596099Y-58568695D01*
X196731186Y-58673838D01*
X196731192Y-58673842D01*
X196731195Y-58673844D01*
X196935196Y-58784244D01*
X197049117Y-58823353D01*
X197154582Y-58859560D01*
X197154584Y-58859560D01*
X197154586Y-58859561D01*
X197383381Y-58897740D01*
X197383382Y-58897740D01*
X197615338Y-58897740D01*
X197615339Y-58897740D01*
X197844134Y-58859561D01*
X197845556Y-58859073D01*
X197852587Y-58856658D01*
X198063524Y-58784244D01*
X198267525Y-58673844D01*
X198450573Y-58531373D01*
X198607674Y-58360715D01*
X198734543Y-58166528D01*
X198827720Y-57954106D01*
X198884662Y-57729246D01*
X198900140Y-57542452D01*
X198903817Y-57498085D01*
X198903817Y-57498074D01*
X198884662Y-57266917D01*
X198884662Y-57266914D01*
X198827720Y-57042054D01*
X198734543Y-56829632D01*
X198607674Y-56635445D01*
X198450573Y-56464787D01*
X198422023Y-56442566D01*
X198267533Y-56322321D01*
X198267527Y-56322317D01*
X198063525Y-56211916D01*
X198063516Y-56211913D01*
X197844137Y-56136599D01*
X197649569Y-56104132D01*
X197615339Y-56098420D01*
X197383381Y-56098420D01*
X197349151Y-56104132D01*
X197154582Y-56136599D01*
X196935203Y-56211913D01*
X196935194Y-56211916D01*
X196731192Y-56322317D01*
X196731186Y-56322321D01*
X196548154Y-56464781D01*
X196548149Y-56464785D01*
X196548147Y-56464787D01*
X196391046Y-56635445D01*
X196391044Y-56635447D01*
X196391042Y-56635450D01*
X196353188Y-56693389D01*
X196300041Y-56738745D01*
X196230809Y-56748168D01*
X196167474Y-56718665D01*
X196152374Y-56701238D01*
X196150579Y-56701052D01*
X195523713Y-57327918D01*
X195512434Y-57285823D01*
X195440037Y-57160427D01*
X195337653Y-57058043D01*
X195212257Y-56985646D01*
X195170160Y-56974366D01*
X195798198Y-56346326D01*
X195798198Y-56346325D01*
X195767892Y-56322737D01*
X195563963Y-56212375D01*
X195563958Y-56212373D01*
X195344653Y-56137086D01*
X195115937Y-56098920D01*
X194884063Y-56098920D01*
X194655346Y-56137086D01*
X194436041Y-56212373D01*
X194436036Y-56212375D01*
X194232111Y-56322735D01*
X194201800Y-56346326D01*
X194829839Y-56974365D01*
X194787743Y-56985646D01*
X194662347Y-57058043D01*
X194559963Y-57160427D01*
X194487566Y-57285823D01*
X194476286Y-57327919D01*
X193849419Y-56701052D01*
X193844895Y-56701521D01*
X193801279Y-56738744D01*
X193732047Y-56748167D01*
X193668712Y-56718664D01*
X193646809Y-56693386D01*
X193608958Y-56635450D01*
X193608955Y-56635447D01*
X193608954Y-56635445D01*
X193451853Y-56464787D01*
X193423303Y-56442566D01*
X193268813Y-56322321D01*
X193268807Y-56322317D01*
X193064805Y-56211916D01*
X193064796Y-56211913D01*
X192845417Y-56136599D01*
X192650849Y-56104132D01*
X192616619Y-56098420D01*
X192384661Y-56098420D01*
X192350431Y-56104132D01*
X192155862Y-56136599D01*
X191936483Y-56211913D01*
X191936463Y-56211921D01*
X191905306Y-56228783D01*
X191836978Y-56243378D01*
X191771606Y-56218714D01*
X191729946Y-56162623D01*
X191725224Y-56092913D01*
X191758609Y-56032047D01*
X195042814Y-52747842D01*
X198327417Y-49463238D01*
X198388738Y-49429755D01*
X198458430Y-49434739D01*
X198514363Y-49476611D01*
X198538780Y-49542075D01*
X198536503Y-49576149D01*
X198506780Y-49719185D01*
X198487572Y-50000000D01*
X198506780Y-50280820D01*
X198506781Y-50280822D01*
X198564045Y-50556394D01*
X198564046Y-50556400D01*
X198564048Y-50556407D01*
X198564049Y-50556409D01*
X198658309Y-50821634D01*
X198658310Y-50821637D01*
X198658311Y-50821638D01*
X198674109Y-50852127D01*
X198787807Y-51071553D01*
X198950129Y-51301510D01*
X198950133Y-51301514D01*
X198950133Y-51301515D01*
X199142255Y-51507226D01*
X199217806Y-51568691D01*
X199360596Y-51684860D01*
X199360598Y-51684861D01*
X199360599Y-51684862D01*
X199601096Y-51831112D01*
X199601101Y-51831114D01*
X199831823Y-51931330D01*
X199859268Y-51943251D01*
X200130307Y-52019193D01*
X200375465Y-52052888D01*
X200409161Y-52057520D01*
X200409162Y-52057520D01*
X200690639Y-52057520D01*
X200720701Y-52053387D01*
X200969493Y-52019193D01*
X201240532Y-51943251D01*
X201498705Y-51831111D01*
X201739204Y-51684860D01*
X201957548Y-51507223D01*
X202149671Y-51301510D01*
X202311993Y-51071553D01*
X202441491Y-50821634D01*
X202535751Y-50556409D01*
X202593019Y-50280820D01*
X202612228Y-50000000D01*
X202593019Y-49719180D01*
X202535751Y-49443591D01*
X202441491Y-49178366D01*
X202311993Y-48928447D01*
X202149671Y-48698490D01*
X202149666Y-48698484D01*
X202000582Y-48538855D01*
X201957548Y-48492777D01*
X201957546Y-48492776D01*
X201957544Y-48492773D01*
X201739200Y-48315137D01*
X201498703Y-48168887D01*
X201498698Y-48168885D01*
X201240536Y-48056750D01*
X200969498Y-47980808D01*
X200969494Y-47980807D01*
X200969493Y-47980807D01*
X200741219Y-47949432D01*
X200690639Y-47942480D01*
X200690638Y-47942480D01*
X200409162Y-47942480D01*
X200409161Y-47942480D01*
X200397164Y-47944129D01*
X200130307Y-47980807D01*
X200130305Y-47980807D01*
X200126111Y-47981384D01*
X200125907Y-47979904D01*
X200062547Y-47974746D01*
X200007028Y-47932326D01*
X199983256Y-47866625D01*
X199998779Y-47798501D01*
X200019336Y-47771320D01*
X200953838Y-46836819D01*
X201015161Y-46803334D01*
X201041519Y-46800500D01*
X205909481Y-46800500D01*
X205976520Y-46820185D01*
X206022275Y-46872989D01*
X206032219Y-46942147D01*
X206003194Y-47005703D01*
X205997162Y-47012181D01*
X205255890Y-47753451D01*
X205255884Y-47753458D01*
X205196537Y-47842279D01*
X205179226Y-47868186D01*
X205179222Y-47868193D01*
X205126421Y-47995667D01*
X205126418Y-47995677D01*
X205099500Y-48131004D01*
X205099500Y-54958481D01*
X205079815Y-55025520D01*
X205063181Y-55046162D01*
X198046162Y-62063181D01*
X197984839Y-62096666D01*
X197958481Y-62099500D01*
X196441519Y-62099500D01*
X196374480Y-62079815D01*
X196353838Y-62063181D01*
X195926503Y-61635846D01*
X195893018Y-61574523D01*
X195890865Y-61561143D01*
X195885674Y-61511744D01*
X195854642Y-61416239D01*
X195827181Y-61331722D01*
X195827180Y-61331721D01*
X195827179Y-61331716D01*
X195732533Y-61167784D01*
X195605871Y-61027112D01*
X195584719Y-61011744D01*
X195452734Y-60915851D01*
X195452729Y-60915848D01*
X195279807Y-60838857D01*
X195279802Y-60838855D01*
X195134001Y-60807865D01*
X195094646Y-60799500D01*
X194905354Y-60799500D01*
X194872897Y-60806398D01*
X194720197Y-60838855D01*
X194720192Y-60838857D01*
X194547270Y-60915848D01*
X194547265Y-60915851D01*
X194394129Y-61027111D01*
X194267466Y-61167785D01*
X194172821Y-61331715D01*
X194172818Y-61331722D01*
X194145356Y-61416243D01*
X194114326Y-61511744D01*
X194094540Y-61700000D01*
X194114326Y-61888256D01*
X194114327Y-61888259D01*
X194172818Y-62068277D01*
X194172821Y-62068284D01*
X194267467Y-62232216D01*
X194394129Y-62372888D01*
X194547265Y-62484148D01*
X194547270Y-62484151D01*
X194720191Y-62561142D01*
X194720193Y-62561142D01*
X194720197Y-62561144D01*
X194875130Y-62594075D01*
X194936607Y-62627266D01*
X194937026Y-62627683D01*
X195653453Y-63344111D01*
X195653454Y-63344112D01*
X195768192Y-63420777D01*
X195895667Y-63473578D01*
X195895672Y-63473580D01*
X195895676Y-63473580D01*
X195895677Y-63473581D01*
X196031003Y-63500500D01*
X196031006Y-63500500D01*
X198368996Y-63500500D01*
X198460040Y-63482389D01*
X198504328Y-63473580D01*
X198569604Y-63446542D01*
X198631807Y-63420777D01*
X198631808Y-63420776D01*
X198631811Y-63420775D01*
X198746543Y-63344114D01*
X206216288Y-55874369D01*
X206277611Y-55840884D01*
X206347303Y-55845868D01*
X206403236Y-55887740D01*
X206427653Y-55953204D01*
X206426443Y-55981443D01*
X206424500Y-55993713D01*
X206424500Y-56206286D01*
X206457753Y-56416239D01*
X206523444Y-56618414D01*
X206619951Y-56807820D01*
X206744890Y-56979786D01*
X206895209Y-57130105D01*
X206895214Y-57130109D01*
X207059793Y-57249682D01*
X207102459Y-57305011D01*
X207108438Y-57374625D01*
X207075833Y-57436420D01*
X207059793Y-57450318D01*
X206895214Y-57569890D01*
X206895209Y-57569894D01*
X206744890Y-57720213D01*
X206619951Y-57892179D01*
X206523444Y-58081585D01*
X206457753Y-58283760D01*
X206445565Y-58360715D01*
X206424500Y-58493713D01*
X206424500Y-58706287D01*
X206457754Y-58916243D01*
X206495137Y-59031297D01*
X206523444Y-59118414D01*
X206619951Y-59307820D01*
X206744890Y-59479786D01*
X206895209Y-59630105D01*
X206895214Y-59630109D01*
X207059793Y-59749682D01*
X207102459Y-59805011D01*
X207108438Y-59874625D01*
X207075833Y-59936420D01*
X207059793Y-59950318D01*
X206895214Y-60069890D01*
X206895209Y-60069894D01*
X206744890Y-60220213D01*
X206619951Y-60392179D01*
X206523444Y-60581585D01*
X206457753Y-60783760D01*
X206424500Y-60993713D01*
X206424500Y-61206286D01*
X206453321Y-61388259D01*
X206457754Y-61416243D01*
X206519019Y-61604797D01*
X206523444Y-61618414D01*
X206619951Y-61807820D01*
X206744890Y-61979786D01*
X206895209Y-62130105D01*
X206895214Y-62130109D01*
X207060218Y-62249991D01*
X207102884Y-62305320D01*
X207108863Y-62374934D01*
X207076258Y-62436729D01*
X207060218Y-62450627D01*
X206895540Y-62570272D01*
X206895535Y-62570276D01*
X206745276Y-62720535D01*
X206745272Y-62720540D01*
X206620379Y-62892442D01*
X206523904Y-63081782D01*
X206458242Y-63283870D01*
X206458242Y-63283873D01*
X206447769Y-63350000D01*
X207495854Y-63350000D01*
X207457370Y-63416657D01*
X207425000Y-63537465D01*
X207425000Y-63662535D01*
X207457370Y-63783343D01*
X207495854Y-63850000D01*
X206447769Y-63850000D01*
X206458242Y-63916126D01*
X206458242Y-63916129D01*
X206523904Y-64118217D01*
X206620379Y-64307557D01*
X206745272Y-64479459D01*
X206745276Y-64479464D01*
X206895535Y-64629723D01*
X206895540Y-64629727D01*
X207067442Y-64754620D01*
X207256782Y-64851095D01*
X207458872Y-64916757D01*
X207650000Y-64947029D01*
X207650000Y-64004145D01*
X207716657Y-64042630D01*
X207837465Y-64075000D01*
X207962535Y-64075000D01*
X208083343Y-64042630D01*
X208150000Y-64004145D01*
X208150000Y-64947028D01*
X208341127Y-64916757D01*
X208543217Y-64851095D01*
X208732557Y-64754620D01*
X208904459Y-64629727D01*
X208904464Y-64629723D01*
X209054723Y-64479464D01*
X209054727Y-64479459D01*
X209179620Y-64307557D01*
X209276095Y-64118217D01*
X209341757Y-63916129D01*
X209341757Y-63916126D01*
X209352231Y-63850000D01*
X208304146Y-63850000D01*
X208342630Y-63783343D01*
X208375000Y-63662535D01*
X208375000Y-63537465D01*
X208342630Y-63416657D01*
X208304146Y-63350000D01*
X209352231Y-63350000D01*
X209341757Y-63283873D01*
X209341757Y-63283870D01*
X209276095Y-63081782D01*
X209179620Y-62892442D01*
X209054727Y-62720540D01*
X209054723Y-62720535D01*
X208904464Y-62570276D01*
X208904459Y-62570272D01*
X208739781Y-62450627D01*
X208697115Y-62395297D01*
X208691136Y-62325684D01*
X208723741Y-62263889D01*
X208739776Y-62249994D01*
X208904792Y-62130104D01*
X209055104Y-61979792D01*
X209055106Y-61979788D01*
X209055109Y-61979786D01*
X209180048Y-61807820D01*
X209180047Y-61807820D01*
X209180051Y-61807816D01*
X209276557Y-61618412D01*
X209342246Y-61416243D01*
X209375500Y-61206287D01*
X209375500Y-60993713D01*
X209342246Y-60783757D01*
X209276557Y-60581588D01*
X209180051Y-60392184D01*
X209180049Y-60392181D01*
X209180048Y-60392179D01*
X209055109Y-60220213D01*
X208904792Y-60069896D01*
X208887795Y-60057547D01*
X208740204Y-59950316D01*
X208697540Y-59894989D01*
X208691561Y-59825376D01*
X208724166Y-59763580D01*
X208740199Y-59749686D01*
X208742699Y-59747870D01*
X213249400Y-59747870D01*
X213249401Y-59747876D01*
X213255808Y-59807483D01*
X213306102Y-59942328D01*
X213306106Y-59942335D01*
X213392352Y-60057544D01*
X213392355Y-60057547D01*
X213507564Y-60143793D01*
X213507571Y-60143797D01*
X213642417Y-60194091D01*
X213642416Y-60194091D01*
X213649344Y-60194835D01*
X213702027Y-60200500D01*
X215597772Y-60200499D01*
X215657383Y-60194091D01*
X215792231Y-60143796D01*
X215907446Y-60057546D01*
X215993696Y-59942331D01*
X215995901Y-59936420D01*
X216022355Y-59865493D01*
X216064226Y-59809559D01*
X216129690Y-59785141D01*
X216197963Y-59799992D01*
X216229766Y-59824843D01*
X216237202Y-59832920D01*
X216238115Y-59833912D01*
X216238122Y-59833918D01*
X216421265Y-59976464D01*
X216421271Y-59976468D01*
X216421274Y-59976470D01*
X216571085Y-60057544D01*
X216592906Y-60069353D01*
X216625397Y-60086936D01*
X216739387Y-60126068D01*
X216844915Y-60162297D01*
X216844917Y-60162297D01*
X216844919Y-60162298D01*
X217073851Y-60200500D01*
X217073852Y-60200500D01*
X217305948Y-60200500D01*
X217305949Y-60200500D01*
X217534881Y-60162298D01*
X217754403Y-60086936D01*
X217958526Y-59976470D01*
X218009983Y-59936420D01*
X218089377Y-59874625D01*
X218141684Y-59833913D01*
X218298879Y-59663153D01*
X218425824Y-59468849D01*
X218519057Y-59256300D01*
X218576034Y-59031305D01*
X218585568Y-58916243D01*
X218595200Y-58800006D01*
X218595200Y-58799993D01*
X218576035Y-58568702D01*
X218576033Y-58568691D01*
X218519057Y-58343699D01*
X218425824Y-58131151D01*
X218298883Y-57936852D01*
X218298880Y-57936849D01*
X218298879Y-57936847D01*
X218141684Y-57766087D01*
X218141679Y-57766083D01*
X218141677Y-57766081D01*
X217958534Y-57623535D01*
X217958528Y-57623531D01*
X217754404Y-57513064D01*
X217754395Y-57513061D01*
X217534884Y-57437702D01*
X217344350Y-57405908D01*
X217305949Y-57399500D01*
X217073851Y-57399500D01*
X217035450Y-57405908D01*
X216844915Y-57437702D01*
X216625404Y-57513061D01*
X216625395Y-57513064D01*
X216421271Y-57623531D01*
X216421265Y-57623535D01*
X216238122Y-57766081D01*
X216238118Y-57766085D01*
X216229766Y-57775158D01*
X216169879Y-57811148D01*
X216100041Y-57809047D01*
X216042425Y-57769522D01*
X216022355Y-57734507D01*
X215993697Y-57657671D01*
X215993693Y-57657664D01*
X215907447Y-57542455D01*
X215907444Y-57542452D01*
X215792235Y-57456206D01*
X215792228Y-57456202D01*
X215657382Y-57405908D01*
X215657383Y-57405908D01*
X215597783Y-57399501D01*
X215597781Y-57399500D01*
X215597773Y-57399500D01*
X215597764Y-57399500D01*
X213702029Y-57399500D01*
X213702023Y-57399501D01*
X213642416Y-57405908D01*
X213507571Y-57456202D01*
X213507564Y-57456206D01*
X213392355Y-57542452D01*
X213392352Y-57542455D01*
X213306106Y-57657664D01*
X213306102Y-57657671D01*
X213255808Y-57792517D01*
X213249401Y-57852116D01*
X213249400Y-57852135D01*
X213249400Y-59747870D01*
X208742699Y-59747870D01*
X208904792Y-59630104D01*
X209055104Y-59479792D01*
X209055106Y-59479788D01*
X209055109Y-59479786D01*
X209180048Y-59307820D01*
X209180047Y-59307820D01*
X209180051Y-59307816D01*
X209276557Y-59118412D01*
X209342246Y-58916243D01*
X209375500Y-58706287D01*
X209375500Y-58493713D01*
X209342246Y-58283757D01*
X209276557Y-58081588D01*
X209180051Y-57892184D01*
X209180049Y-57892181D01*
X209180048Y-57892179D01*
X209055109Y-57720213D01*
X208904792Y-57569896D01*
X208867018Y-57542452D01*
X208740204Y-57450316D01*
X208697540Y-57394989D01*
X208691561Y-57325376D01*
X208724166Y-57263580D01*
X208740199Y-57249686D01*
X208904792Y-57130104D01*
X209055104Y-56979792D01*
X209055106Y-56979788D01*
X209055109Y-56979786D01*
X209180048Y-56807820D01*
X209180047Y-56807820D01*
X209180051Y-56807816D01*
X209276557Y-56618412D01*
X209342246Y-56416243D01*
X209375500Y-56206287D01*
X209375500Y-55993713D01*
X209342246Y-55783757D01*
X209276557Y-55581588D01*
X209180051Y-55392184D01*
X209180049Y-55392181D01*
X209180048Y-55392179D01*
X209055109Y-55220213D01*
X208904792Y-55069896D01*
X208904784Y-55069890D01*
X208740204Y-54950316D01*
X208697540Y-54894989D01*
X208691561Y-54825376D01*
X208724166Y-54763580D01*
X208740199Y-54749686D01*
X208904792Y-54630104D01*
X209055104Y-54479792D01*
X209055106Y-54479788D01*
X209055109Y-54479786D01*
X209180048Y-54307820D01*
X209180047Y-54307820D01*
X209180051Y-54307816D01*
X209276557Y-54118412D01*
X209342246Y-53916243D01*
X209375500Y-53706287D01*
X209375500Y-53493713D01*
X209342246Y-53283757D01*
X209276557Y-53081588D01*
X209180051Y-52892184D01*
X209180049Y-52892181D01*
X209180048Y-52892179D01*
X209075203Y-52747870D01*
X213249400Y-52747870D01*
X213249401Y-52747876D01*
X213255808Y-52807483D01*
X213306102Y-52942328D01*
X213306106Y-52942335D01*
X213392352Y-53057544D01*
X213392355Y-53057547D01*
X213507564Y-53143793D01*
X213507571Y-53143797D01*
X213642417Y-53194091D01*
X213642416Y-53194091D01*
X213649344Y-53194835D01*
X213702027Y-53200500D01*
X215597772Y-53200499D01*
X215657383Y-53194091D01*
X215792231Y-53143796D01*
X215907446Y-53057546D01*
X215993696Y-52942331D01*
X216012400Y-52892184D01*
X216022355Y-52865493D01*
X216064226Y-52809559D01*
X216129690Y-52785141D01*
X216197963Y-52799992D01*
X216229766Y-52824843D01*
X216237202Y-52832920D01*
X216238115Y-52833912D01*
X216238122Y-52833918D01*
X216421265Y-52976464D01*
X216421271Y-52976468D01*
X216421274Y-52976470D01*
X216625397Y-53086936D01*
X216739387Y-53126068D01*
X216844915Y-53162297D01*
X216844917Y-53162297D01*
X216844919Y-53162298D01*
X217073851Y-53200500D01*
X217073852Y-53200500D01*
X217305948Y-53200500D01*
X217305949Y-53200500D01*
X217534881Y-53162298D01*
X217754403Y-53086936D01*
X217958526Y-52976470D01*
X218141684Y-52833913D01*
X218298879Y-52663153D01*
X218425824Y-52468849D01*
X218519057Y-52256300D01*
X218576034Y-52031305D01*
X218576553Y-52025043D01*
X218595200Y-51800006D01*
X218595200Y-51799993D01*
X218576035Y-51568702D01*
X218576033Y-51568691D01*
X218519057Y-51343699D01*
X218425824Y-51131151D01*
X218298883Y-50936852D01*
X218298880Y-50936849D01*
X218298879Y-50936847D01*
X218141684Y-50766087D01*
X218141679Y-50766083D01*
X218141677Y-50766081D01*
X217958534Y-50623535D01*
X217958528Y-50623531D01*
X217754404Y-50513064D01*
X217754395Y-50513061D01*
X217534884Y-50437702D01*
X217344350Y-50405908D01*
X217305949Y-50399500D01*
X217073851Y-50399500D01*
X217035450Y-50405908D01*
X216844915Y-50437702D01*
X216625404Y-50513061D01*
X216625395Y-50513064D01*
X216421271Y-50623531D01*
X216421265Y-50623535D01*
X216238122Y-50766081D01*
X216238118Y-50766085D01*
X216229766Y-50775158D01*
X216169879Y-50811148D01*
X216100041Y-50809047D01*
X216042425Y-50769522D01*
X216022355Y-50734507D01*
X215993697Y-50657671D01*
X215993693Y-50657664D01*
X215907447Y-50542455D01*
X215907444Y-50542452D01*
X215792235Y-50456206D01*
X215792228Y-50456202D01*
X215657382Y-50405908D01*
X215657383Y-50405908D01*
X215597783Y-50399501D01*
X215597781Y-50399500D01*
X215597773Y-50399500D01*
X215597764Y-50399500D01*
X213702029Y-50399500D01*
X213702023Y-50399501D01*
X213642416Y-50405908D01*
X213507571Y-50456202D01*
X213507564Y-50456206D01*
X213392355Y-50542452D01*
X213392352Y-50542455D01*
X213306106Y-50657664D01*
X213306102Y-50657671D01*
X213255808Y-50792517D01*
X213249401Y-50852116D01*
X213249400Y-50852135D01*
X213249400Y-52747870D01*
X209075203Y-52747870D01*
X209055109Y-52720213D01*
X208904792Y-52569896D01*
X208787461Y-52484651D01*
X208740204Y-52450316D01*
X208697540Y-52394989D01*
X208691561Y-52325376D01*
X208724166Y-52263580D01*
X208740199Y-52249686D01*
X208904792Y-52130104D01*
X209055104Y-51979792D01*
X209055106Y-51979788D01*
X209055109Y-51979786D01*
X209180048Y-51807820D01*
X209180047Y-51807820D01*
X209180051Y-51807816D01*
X209276557Y-51618412D01*
X209342246Y-51416243D01*
X209375500Y-51206287D01*
X209375500Y-50993713D01*
X209342246Y-50783757D01*
X209276557Y-50581588D01*
X209180051Y-50392184D01*
X209180049Y-50392181D01*
X209180048Y-50392179D01*
X209055109Y-50220213D01*
X208904792Y-50069896D01*
X208882165Y-50053457D01*
X208740204Y-49950316D01*
X208697540Y-49894989D01*
X208691561Y-49825376D01*
X208724166Y-49763580D01*
X208740199Y-49749686D01*
X208904792Y-49630104D01*
X209055104Y-49479792D01*
X209055106Y-49479788D01*
X209055109Y-49479786D01*
X209180048Y-49307820D01*
X209180047Y-49307820D01*
X209180051Y-49307816D01*
X209276557Y-49118412D01*
X209342246Y-48916243D01*
X209375500Y-48706287D01*
X209375500Y-48493713D01*
X209342246Y-48283757D01*
X209276557Y-48081588D01*
X209180051Y-47892184D01*
X209180049Y-47892181D01*
X209180048Y-47892179D01*
X209055109Y-47720213D01*
X208916294Y-47581398D01*
X208882809Y-47520075D01*
X208887793Y-47450383D01*
X208929665Y-47394450D01*
X208938879Y-47388178D01*
X208944331Y-47384814D01*
X208944334Y-47384814D01*
X209093656Y-47292712D01*
X209217712Y-47168656D01*
X209309814Y-47019334D01*
X209364999Y-46852797D01*
X209375500Y-46750009D01*
X209375499Y-45747870D01*
X213249400Y-45747870D01*
X213249401Y-45747876D01*
X213255808Y-45807483D01*
X213306102Y-45942328D01*
X213306106Y-45942335D01*
X213392352Y-46057544D01*
X213392355Y-46057547D01*
X213507564Y-46143793D01*
X213507571Y-46143797D01*
X213642417Y-46194091D01*
X213642416Y-46194091D01*
X213649344Y-46194835D01*
X213702027Y-46200500D01*
X215597772Y-46200499D01*
X215657383Y-46194091D01*
X215792231Y-46143796D01*
X215907446Y-46057546D01*
X215993696Y-45942331D01*
X215993698Y-45942326D01*
X216022355Y-45865493D01*
X216064226Y-45809559D01*
X216129690Y-45785141D01*
X216197963Y-45799992D01*
X216229766Y-45824843D01*
X216237202Y-45832920D01*
X216238115Y-45833912D01*
X216238122Y-45833918D01*
X216421265Y-45976464D01*
X216421271Y-45976468D01*
X216421274Y-45976470D01*
X216571085Y-46057544D01*
X216612238Y-46079815D01*
X216625397Y-46086936D01*
X216727914Y-46122130D01*
X216844915Y-46162297D01*
X216844917Y-46162297D01*
X216844919Y-46162298D01*
X217073851Y-46200500D01*
X217073852Y-46200500D01*
X217305948Y-46200500D01*
X217305949Y-46200500D01*
X217534881Y-46162298D01*
X217754403Y-46086936D01*
X217958526Y-45976470D01*
X218141684Y-45833913D01*
X218298879Y-45663153D01*
X218425824Y-45468849D01*
X218519057Y-45256300D01*
X218576034Y-45031305D01*
X218576035Y-45031297D01*
X218595200Y-44800006D01*
X218595200Y-44799993D01*
X218576035Y-44568702D01*
X218576033Y-44568691D01*
X218519057Y-44343699D01*
X218425824Y-44131151D01*
X218298883Y-43936852D01*
X218298880Y-43936849D01*
X218298879Y-43936847D01*
X218141684Y-43766087D01*
X218141679Y-43766083D01*
X218141677Y-43766081D01*
X217958534Y-43623535D01*
X217958528Y-43623531D01*
X217754404Y-43513064D01*
X217754395Y-43513061D01*
X217534884Y-43437702D01*
X217341114Y-43405368D01*
X217305949Y-43399500D01*
X217073851Y-43399500D01*
X217038686Y-43405368D01*
X216844915Y-43437702D01*
X216625404Y-43513061D01*
X216625395Y-43513064D01*
X216421271Y-43623531D01*
X216421265Y-43623535D01*
X216238122Y-43766081D01*
X216238118Y-43766085D01*
X216229766Y-43775158D01*
X216169879Y-43811148D01*
X216100041Y-43809047D01*
X216042425Y-43769522D01*
X216022355Y-43734507D01*
X215993697Y-43657671D01*
X215993693Y-43657664D01*
X215907447Y-43542455D01*
X215907444Y-43542452D01*
X215792235Y-43456206D01*
X215792228Y-43456202D01*
X215657382Y-43405908D01*
X215657383Y-43405908D01*
X215597783Y-43399501D01*
X215597781Y-43399500D01*
X215597773Y-43399500D01*
X215597764Y-43399500D01*
X213702029Y-43399500D01*
X213702023Y-43399501D01*
X213642416Y-43405908D01*
X213507571Y-43456202D01*
X213507564Y-43456206D01*
X213392355Y-43542452D01*
X213392352Y-43542455D01*
X213306106Y-43657664D01*
X213306102Y-43657671D01*
X213255808Y-43792517D01*
X213249401Y-43852116D01*
X213249400Y-43852135D01*
X213249400Y-45747870D01*
X209375499Y-45747870D01*
X209375499Y-45449992D01*
X209370298Y-45399079D01*
X209383067Y-45330387D01*
X209430948Y-45279503D01*
X209498738Y-45262582D01*
X209541109Y-45271917D01*
X209651918Y-45317816D01*
X209799658Y-45347203D01*
X209816228Y-45350499D01*
X209816232Y-45350500D01*
X209816233Y-45350500D01*
X209983768Y-45350500D01*
X209983769Y-45350499D01*
X210148082Y-45317816D01*
X210302863Y-45253703D01*
X210442162Y-45160626D01*
X210560626Y-45042162D01*
X210653703Y-44902863D01*
X210717816Y-44748082D01*
X210750500Y-44583767D01*
X210750500Y-44416233D01*
X210717816Y-44251918D01*
X210653703Y-44097137D01*
X210607569Y-44028093D01*
X210560626Y-43957837D01*
X210442162Y-43839373D01*
X210302860Y-43746295D01*
X210148082Y-43682184D01*
X210148074Y-43682182D01*
X209983771Y-43649500D01*
X209983767Y-43649500D01*
X209816233Y-43649500D01*
X209748941Y-43662885D01*
X209679350Y-43656656D01*
X209624173Y-43613793D01*
X209600929Y-43547903D01*
X209616997Y-43479906D01*
X209637066Y-43453590D01*
X211153838Y-41936819D01*
X211215161Y-41903334D01*
X211241519Y-41900500D01*
X219958481Y-41900500D01*
X220025520Y-41920185D01*
X220046162Y-41936819D01*
X222163181Y-44053838D01*
X222196666Y-44115161D01*
X222199500Y-44141519D01*
X222199500Y-48490252D01*
X222179815Y-48557291D01*
X222127011Y-48603046D01*
X222057853Y-48612990D01*
X222025064Y-48603531D01*
X221879807Y-48538857D01*
X221879802Y-48538855D01*
X221734001Y-48507865D01*
X221694646Y-48499500D01*
X221505354Y-48499500D01*
X221472897Y-48506398D01*
X221320197Y-48538855D01*
X221320192Y-48538857D01*
X221147270Y-48615848D01*
X221147265Y-48615851D01*
X220994129Y-48727111D01*
X220867466Y-48867785D01*
X220772821Y-49031715D01*
X220772818Y-49031722D01*
X220714327Y-49211740D01*
X220714326Y-49211744D01*
X220694540Y-49400000D01*
X220714326Y-49588256D01*
X220714327Y-49588259D01*
X220772818Y-49768277D01*
X220772821Y-49768284D01*
X220867467Y-49932216D01*
X220928505Y-50000005D01*
X220994129Y-50072888D01*
X221147265Y-50184148D01*
X221147270Y-50184151D01*
X221320192Y-50261142D01*
X221320197Y-50261144D01*
X221505354Y-50300500D01*
X221505355Y-50300500D01*
X221694644Y-50300500D01*
X221694646Y-50300500D01*
X221879803Y-50261144D01*
X221971728Y-50220216D01*
X221991931Y-50211221D01*
X222042367Y-50200500D01*
X222558481Y-50200500D01*
X222625520Y-50220185D01*
X222646162Y-50236819D01*
X223163181Y-50753838D01*
X223196666Y-50815161D01*
X223199500Y-50841519D01*
X223199500Y-59158481D01*
X223179815Y-59225520D01*
X223163181Y-59246162D01*
X221637026Y-60772316D01*
X221575703Y-60805801D01*
X221575126Y-60805925D01*
X221420197Y-60838855D01*
X221420192Y-60838857D01*
X221247270Y-60915848D01*
X221247265Y-60915851D01*
X221094129Y-61027111D01*
X220967466Y-61167785D01*
X220872821Y-61331715D01*
X220872818Y-61331722D01*
X220845356Y-61416243D01*
X220814326Y-61511744D01*
X220794540Y-61700000D01*
X220814326Y-61888256D01*
X220814327Y-61888259D01*
X220872818Y-62068277D01*
X220872821Y-62068284D01*
X220967467Y-62232216D01*
X221094129Y-62372888D01*
X221247265Y-62484148D01*
X221247270Y-62484151D01*
X221420192Y-62561142D01*
X221420197Y-62561144D01*
X221605354Y-62600500D01*
X221605355Y-62600500D01*
X221794644Y-62600500D01*
X221794646Y-62600500D01*
X221979803Y-62561144D01*
X222152730Y-62484151D01*
X222305871Y-62372888D01*
X222432533Y-62232216D01*
X222527179Y-62068284D01*
X222585674Y-61888256D01*
X222590864Y-61838869D01*
X222617447Y-61774258D01*
X222626494Y-61764161D01*
X224287819Y-60102838D01*
X224349142Y-60069353D01*
X224418834Y-60074337D01*
X224474767Y-60116209D01*
X224499184Y-60181673D01*
X224499500Y-60190519D01*
X224499500Y-70375500D01*
X224479815Y-70442539D01*
X224427011Y-70488294D01*
X224375500Y-70499500D01*
X200792722Y-70499500D01*
X200725683Y-70479815D01*
X200679928Y-70427011D01*
X200669984Y-70357853D01*
X200699009Y-70294297D01*
X200757787Y-70256523D01*
X200766066Y-70254399D01*
X201084142Y-70184384D01*
X201423255Y-70070123D01*
X201423260Y-70070122D01*
X201748009Y-69919876D01*
X202054629Y-69735390D01*
X202054632Y-69735388D01*
X202339509Y-69518831D01*
X202352742Y-69506295D01*
X202352742Y-69506294D01*
X201140699Y-68294251D01*
X201242330Y-68220412D01*
X201420412Y-68042330D01*
X201494251Y-67940698D01*
X202703556Y-69150002D01*
X202830972Y-68999998D01*
X202830975Y-68999994D01*
X203031781Y-68703827D01*
X203199393Y-68387677D01*
X203199402Y-68387659D01*
X203331850Y-68055239D01*
X203331852Y-68055232D01*
X203427578Y-67710457D01*
X203427584Y-67710431D01*
X203485472Y-67357331D01*
X203485473Y-67357314D01*
X203504847Y-67000002D01*
X203504847Y-66999997D01*
X203491176Y-66747870D01*
X213249400Y-66747870D01*
X213249401Y-66747876D01*
X213255808Y-66807483D01*
X213306102Y-66942328D01*
X213306106Y-66942335D01*
X213392352Y-67057544D01*
X213392355Y-67057547D01*
X213507564Y-67143793D01*
X213507571Y-67143797D01*
X213642417Y-67194091D01*
X213642416Y-67194091D01*
X213649344Y-67194835D01*
X213702027Y-67200500D01*
X215597772Y-67200499D01*
X215657383Y-67194091D01*
X215792231Y-67143796D01*
X215907446Y-67057546D01*
X215993696Y-66942331D01*
X216022355Y-66865493D01*
X216064226Y-66809559D01*
X216129690Y-66785141D01*
X216197963Y-66799992D01*
X216229766Y-66824843D01*
X216237202Y-66832920D01*
X216238115Y-66833912D01*
X216238122Y-66833918D01*
X216421265Y-66976464D01*
X216421271Y-66976468D01*
X216421274Y-66976470D01*
X216625397Y-67086936D01*
X216738962Y-67125923D01*
X216844915Y-67162297D01*
X216844917Y-67162297D01*
X216844919Y-67162298D01*
X217073851Y-67200500D01*
X217073852Y-67200500D01*
X217305948Y-67200500D01*
X217305949Y-67200500D01*
X217534881Y-67162298D01*
X217754403Y-67086936D01*
X217958526Y-66976470D01*
X218141684Y-66833913D01*
X218298879Y-66663153D01*
X218425824Y-66468849D01*
X218519057Y-66256300D01*
X218576034Y-66031305D01*
X218576035Y-66031297D01*
X218595200Y-65800006D01*
X218595200Y-65799993D01*
X218576035Y-65568702D01*
X218576033Y-65568691D01*
X218519057Y-65343699D01*
X218425824Y-65131151D01*
X218298883Y-64936852D01*
X218298880Y-64936849D01*
X218298879Y-64936847D01*
X218141684Y-64766087D01*
X218141679Y-64766083D01*
X218141677Y-64766081D01*
X217958534Y-64623535D01*
X217958528Y-64623531D01*
X217754404Y-64513064D01*
X217754395Y-64513061D01*
X217534884Y-64437702D01*
X217344350Y-64405908D01*
X217305949Y-64399500D01*
X217073851Y-64399500D01*
X217035450Y-64405908D01*
X216844915Y-64437702D01*
X216625404Y-64513061D01*
X216625395Y-64513064D01*
X216421271Y-64623531D01*
X216421265Y-64623535D01*
X216238122Y-64766081D01*
X216238118Y-64766085D01*
X216229766Y-64775158D01*
X216169879Y-64811148D01*
X216100041Y-64809047D01*
X216042425Y-64769522D01*
X216022355Y-64734507D01*
X215993697Y-64657671D01*
X215993693Y-64657664D01*
X215907447Y-64542455D01*
X215907444Y-64542452D01*
X215792235Y-64456206D01*
X215792228Y-64456202D01*
X215657382Y-64405908D01*
X215657383Y-64405908D01*
X215597783Y-64399501D01*
X215597781Y-64399500D01*
X215597773Y-64399500D01*
X215597764Y-64399500D01*
X213702029Y-64399500D01*
X213702023Y-64399501D01*
X213642416Y-64405908D01*
X213507571Y-64456202D01*
X213507564Y-64456206D01*
X213392355Y-64542452D01*
X213392352Y-64542455D01*
X213306106Y-64657664D01*
X213306102Y-64657671D01*
X213255808Y-64792517D01*
X213249401Y-64852116D01*
X213249400Y-64852135D01*
X213249400Y-66747870D01*
X203491176Y-66747870D01*
X203485473Y-66642685D01*
X203485472Y-66642668D01*
X203427584Y-66289568D01*
X203427578Y-66289542D01*
X203331852Y-65944767D01*
X203331850Y-65944760D01*
X203199402Y-65612340D01*
X203199393Y-65612322D01*
X203031781Y-65296172D01*
X202830975Y-65000005D01*
X202830964Y-64999991D01*
X202703556Y-64849996D01*
X201494251Y-66059301D01*
X201420412Y-65957670D01*
X201242330Y-65779588D01*
X201140698Y-65705748D01*
X202352742Y-64493704D01*
X202339504Y-64481163D01*
X202054632Y-64264611D01*
X202054629Y-64264609D01*
X201748009Y-64080123D01*
X201423260Y-63929877D01*
X201423255Y-63929876D01*
X201084144Y-63815616D01*
X200734660Y-63738688D01*
X200378924Y-63700000D01*
X200021075Y-63700000D01*
X199665339Y-63738688D01*
X199315855Y-63815616D01*
X198976744Y-63929876D01*
X198976739Y-63929877D01*
X198651990Y-64080123D01*
X198345370Y-64264609D01*
X198345367Y-64264611D01*
X198060486Y-64481170D01*
X198060485Y-64481171D01*
X198047257Y-64493702D01*
X198047256Y-64493703D01*
X199259301Y-65705748D01*
X199157670Y-65779588D01*
X198979588Y-65957670D01*
X198905748Y-66059301D01*
X197696442Y-64849995D01*
X197696441Y-64849996D01*
X197569033Y-64999992D01*
X197368218Y-65296172D01*
X197200606Y-65612322D01*
X197200597Y-65612340D01*
X197068149Y-65944760D01*
X197068147Y-65944767D01*
X196972421Y-66289542D01*
X196972415Y-66289568D01*
X196914527Y-66642668D01*
X196914526Y-66642685D01*
X196895153Y-66999997D01*
X196895153Y-67000002D01*
X196914526Y-67357314D01*
X196914527Y-67357331D01*
X196972415Y-67710431D01*
X196972421Y-67710457D01*
X197068147Y-68055232D01*
X197068149Y-68055239D01*
X197200597Y-68387659D01*
X197200606Y-68387677D01*
X197368218Y-68703827D01*
X197569024Y-68999994D01*
X197569035Y-69000008D01*
X197696441Y-69150002D01*
X197696442Y-69150002D01*
X198905747Y-67940697D01*
X198979588Y-68042330D01*
X199157670Y-68220412D01*
X199259300Y-68294251D01*
X198047257Y-69506294D01*
X198060495Y-69518836D01*
X198345367Y-69735388D01*
X198345370Y-69735390D01*
X198651990Y-69919876D01*
X198976739Y-70070122D01*
X198976744Y-70070123D01*
X199315857Y-70184384D01*
X199633934Y-70254399D01*
X199695175Y-70288035D01*
X199728509Y-70349440D01*
X199723353Y-70419120D01*
X199681344Y-70474950D01*
X199615819Y-70499205D01*
X199607278Y-70499500D01*
X144792722Y-70499500D01*
X144725683Y-70479815D01*
X144679928Y-70427011D01*
X144669984Y-70357853D01*
X144699009Y-70294297D01*
X144757787Y-70256523D01*
X144766066Y-70254399D01*
X145084142Y-70184384D01*
X145423255Y-70070123D01*
X145423260Y-70070122D01*
X145748009Y-69919876D01*
X146054629Y-69735390D01*
X146054632Y-69735388D01*
X146339509Y-69518831D01*
X146352742Y-69506295D01*
X146352742Y-69506294D01*
X145140699Y-68294251D01*
X145242330Y-68220412D01*
X145420412Y-68042330D01*
X145494251Y-67940698D01*
X146703556Y-69150002D01*
X146830972Y-68999998D01*
X146830975Y-68999994D01*
X147031781Y-68703827D01*
X147199393Y-68387677D01*
X147199402Y-68387659D01*
X147331850Y-68055239D01*
X147331852Y-68055232D01*
X147427578Y-67710457D01*
X147427584Y-67710431D01*
X147485472Y-67357331D01*
X147485473Y-67357314D01*
X147504847Y-67000002D01*
X147504847Y-66999997D01*
X147485473Y-66642685D01*
X147485472Y-66642668D01*
X147427584Y-66289568D01*
X147427578Y-66289542D01*
X147331852Y-65944767D01*
X147331850Y-65944760D01*
X147199402Y-65612340D01*
X147199393Y-65612322D01*
X147031781Y-65296172D01*
X146830975Y-65000005D01*
X146830964Y-64999991D01*
X146703556Y-64849996D01*
X145494251Y-66059301D01*
X145420412Y-65957670D01*
X145242330Y-65779588D01*
X145140698Y-65705748D01*
X146352742Y-64493704D01*
X146339504Y-64481163D01*
X146054632Y-64264611D01*
X146054629Y-64264609D01*
X145748009Y-64080123D01*
X145423260Y-63929877D01*
X145423255Y-63929876D01*
X145084144Y-63815616D01*
X144734660Y-63738688D01*
X144378924Y-63700000D01*
X144021075Y-63700000D01*
X143665339Y-63738688D01*
X143315855Y-63815616D01*
X142976744Y-63929876D01*
X142976739Y-63929877D01*
X142651990Y-64080123D01*
X142345370Y-64264609D01*
X142345367Y-64264611D01*
X142060486Y-64481170D01*
X142060485Y-64481171D01*
X142047257Y-64493702D01*
X142047256Y-64493703D01*
X143259301Y-65705748D01*
X143157670Y-65779588D01*
X142979588Y-65957670D01*
X142905748Y-66059301D01*
X141696442Y-64849995D01*
X141696441Y-64849996D01*
X141569033Y-64999992D01*
X141368218Y-65296172D01*
X141200606Y-65612322D01*
X141200597Y-65612340D01*
X141068149Y-65944760D01*
X141068147Y-65944767D01*
X140972421Y-66289542D01*
X140972415Y-66289568D01*
X140914527Y-66642668D01*
X140914526Y-66642685D01*
X140895153Y-66999997D01*
X140895153Y-67000002D01*
X140914526Y-67357314D01*
X140914527Y-67357331D01*
X140972415Y-67710431D01*
X140972421Y-67710457D01*
X141068147Y-68055232D01*
X141068149Y-68055239D01*
X141200597Y-68387659D01*
X141200606Y-68387677D01*
X141368218Y-68703827D01*
X141569024Y-68999994D01*
X141569035Y-69000008D01*
X141696441Y-69150002D01*
X141696442Y-69150002D01*
X142905747Y-67940697D01*
X142979588Y-68042330D01*
X143157670Y-68220412D01*
X143259300Y-68294251D01*
X142047257Y-69506294D01*
X142060495Y-69518836D01*
X142345367Y-69735388D01*
X142345370Y-69735390D01*
X142651990Y-69919876D01*
X142976739Y-70070122D01*
X142976744Y-70070123D01*
X143315857Y-70184384D01*
X143633934Y-70254399D01*
X143695175Y-70288035D01*
X143728509Y-70349440D01*
X143723353Y-70419120D01*
X143681344Y-70474950D01*
X143615819Y-70499205D01*
X143607278Y-70499500D01*
X140624500Y-70499500D01*
X140557461Y-70479815D01*
X140511706Y-70427011D01*
X140500500Y-70375500D01*
X140500500Y-51781951D01*
X143239500Y-51781951D01*
X143255346Y-51902305D01*
X143271334Y-52023744D01*
X143333312Y-52255051D01*
X143334456Y-52259320D01*
X143334459Y-52259330D01*
X143427786Y-52484640D01*
X143427791Y-52484651D01*
X143549727Y-52695848D01*
X143549738Y-52695864D01*
X143698199Y-52889343D01*
X143698205Y-52889350D01*
X143870649Y-53061794D01*
X143870656Y-53061800D01*
X144001627Y-53162297D01*
X144064144Y-53210268D01*
X144064151Y-53210272D01*
X144275348Y-53332208D01*
X144275353Y-53332210D01*
X144275356Y-53332212D01*
X144500679Y-53425544D01*
X144736256Y-53488666D01*
X144978056Y-53520500D01*
X144978063Y-53520500D01*
X145221937Y-53520500D01*
X145221944Y-53520500D01*
X145463744Y-53488666D01*
X145699321Y-53425544D01*
X145924644Y-53332212D01*
X146135856Y-53210268D01*
X146329345Y-53061799D01*
X146501799Y-52889345D01*
X146650268Y-52695856D01*
X146772212Y-52484644D01*
X146865544Y-52259321D01*
X146928666Y-52023744D01*
X146960499Y-51781951D01*
X152839500Y-51781951D01*
X152855346Y-51902305D01*
X152871334Y-52023744D01*
X152933312Y-52255051D01*
X152934456Y-52259320D01*
X152934459Y-52259330D01*
X153027786Y-52484640D01*
X153027791Y-52484651D01*
X153149727Y-52695848D01*
X153149738Y-52695864D01*
X153298199Y-52889343D01*
X153298205Y-52889350D01*
X153470649Y-53061794D01*
X153470656Y-53061800D01*
X153601627Y-53162297D01*
X153664144Y-53210268D01*
X153664151Y-53210272D01*
X153875348Y-53332208D01*
X153875353Y-53332210D01*
X153875356Y-53332212D01*
X154100679Y-53425544D01*
X154336256Y-53488666D01*
X154578056Y-53520500D01*
X154578063Y-53520500D01*
X154821937Y-53520500D01*
X154821944Y-53520500D01*
X155063744Y-53488666D01*
X155299321Y-53425544D01*
X155524644Y-53332212D01*
X155735856Y-53210268D01*
X155929345Y-53061799D01*
X156101799Y-52889345D01*
X156250268Y-52695856D01*
X156372212Y-52484644D01*
X156465544Y-52259321D01*
X156528666Y-52023744D01*
X156560500Y-51781944D01*
X156560500Y-51018056D01*
X156528666Y-50776256D01*
X156465544Y-50540679D01*
X156454105Y-50513064D01*
X156372213Y-50315359D01*
X156372208Y-50315348D01*
X156250272Y-50104151D01*
X156250268Y-50104144D01*
X156132234Y-49950319D01*
X156101800Y-49910656D01*
X156101794Y-49910649D01*
X155929350Y-49738205D01*
X155929343Y-49738199D01*
X155735864Y-49589738D01*
X155735862Y-49589736D01*
X155735856Y-49589732D01*
X155735851Y-49589729D01*
X155735848Y-49589727D01*
X155524651Y-49467791D01*
X155524640Y-49467786D01*
X155299330Y-49374459D01*
X155299323Y-49374457D01*
X155299321Y-49374456D01*
X155063744Y-49311334D01*
X155023333Y-49306013D01*
X154821951Y-49279500D01*
X154821944Y-49279500D01*
X154578056Y-49279500D01*
X154578048Y-49279500D01*
X154362947Y-49307820D01*
X154336256Y-49311334D01*
X154100679Y-49374456D01*
X154100669Y-49374459D01*
X153875359Y-49467786D01*
X153875348Y-49467791D01*
X153664151Y-49589727D01*
X153664135Y-49589738D01*
X153470656Y-49738199D01*
X153470649Y-49738205D01*
X153298205Y-49910649D01*
X153298199Y-49910656D01*
X153149738Y-50104135D01*
X153149727Y-50104151D01*
X153027791Y-50315348D01*
X153027786Y-50315359D01*
X152934459Y-50540669D01*
X152934456Y-50540679D01*
X152873139Y-50769522D01*
X152871335Y-50776253D01*
X152871333Y-50776264D01*
X152839500Y-51018048D01*
X152839500Y-51781951D01*
X146960499Y-51781951D01*
X146960500Y-51781944D01*
X146960500Y-51018056D01*
X146928666Y-50776256D01*
X146865544Y-50540679D01*
X146854105Y-50513064D01*
X146772213Y-50315359D01*
X146772208Y-50315348D01*
X146650272Y-50104151D01*
X146650268Y-50104144D01*
X146532234Y-49950319D01*
X146501800Y-49910656D01*
X146501794Y-49910649D01*
X146329350Y-49738205D01*
X146329343Y-49738199D01*
X146135864Y-49589738D01*
X146135862Y-49589736D01*
X146135856Y-49589732D01*
X146135851Y-49589729D01*
X146135848Y-49589727D01*
X145924651Y-49467791D01*
X145924640Y-49467786D01*
X145699330Y-49374459D01*
X145699323Y-49374457D01*
X145699321Y-49374456D01*
X145463744Y-49311334D01*
X145423333Y-49306013D01*
X145221951Y-49279500D01*
X145221944Y-49279500D01*
X144978056Y-49279500D01*
X144978048Y-49279500D01*
X144762947Y-49307820D01*
X144736256Y-49311334D01*
X144500679Y-49374456D01*
X144500669Y-49374459D01*
X144275359Y-49467786D01*
X144275348Y-49467791D01*
X144064151Y-49589727D01*
X144064135Y-49589738D01*
X143870656Y-49738199D01*
X143870649Y-49738205D01*
X143698205Y-49910649D01*
X143698199Y-49910656D01*
X143549738Y-50104135D01*
X143549727Y-50104151D01*
X143427791Y-50315348D01*
X143427786Y-50315359D01*
X143334459Y-50540669D01*
X143334456Y-50540679D01*
X143273139Y-50769522D01*
X143271335Y-50776253D01*
X143271333Y-50776264D01*
X143239500Y-51018048D01*
X143239500Y-51781951D01*
X140500500Y-51781951D01*
X140500500Y-43900005D01*
X145995202Y-43900005D01*
X146014361Y-44131218D01*
X146071317Y-44356135D01*
X146164515Y-44568606D01*
X146248812Y-44697633D01*
X146917037Y-44029408D01*
X146934075Y-44092993D01*
X146999901Y-44207007D01*
X147092993Y-44300099D01*
X147207007Y-44365925D01*
X147270590Y-44382962D01*
X146601201Y-45052351D01*
X146631649Y-45076050D01*
X146835697Y-45186476D01*
X146835706Y-45186479D01*
X147055139Y-45261811D01*
X147283993Y-45300000D01*
X147516007Y-45300000D01*
X147744860Y-45261811D01*
X147964293Y-45186479D01*
X147964301Y-45186476D01*
X148168355Y-45076047D01*
X148198797Y-45052351D01*
X148198798Y-45052350D01*
X147529410Y-44382962D01*
X147592993Y-44365925D01*
X147707007Y-44300099D01*
X147800099Y-44207007D01*
X147865925Y-44092993D01*
X147882962Y-44029409D01*
X148551186Y-44697633D01*
X148555967Y-44697137D01*
X148599036Y-44660380D01*
X148668268Y-44650956D01*
X148731604Y-44680457D01*
X148753509Y-44705737D01*
X148791016Y-44763147D01*
X148791019Y-44763151D01*
X148791021Y-44763153D01*
X148948216Y-44933913D01*
X148948219Y-44933915D01*
X148948222Y-44933918D01*
X149131365Y-45076464D01*
X149131371Y-45076468D01*
X149131374Y-45076470D01*
X149256365Y-45144112D01*
X149334652Y-45186479D01*
X149335497Y-45186936D01*
X149449487Y-45226068D01*
X149555015Y-45262297D01*
X149555017Y-45262297D01*
X149555019Y-45262298D01*
X149783951Y-45300500D01*
X149783952Y-45300500D01*
X150016048Y-45300500D01*
X150016049Y-45300500D01*
X150244981Y-45262298D01*
X150464503Y-45186936D01*
X150668626Y-45076470D01*
X150845563Y-44938754D01*
X150910556Y-44913112D01*
X150979096Y-44926678D01*
X151029421Y-44975147D01*
X151037907Y-44993275D01*
X151056202Y-45042328D01*
X151056206Y-45042335D01*
X151142452Y-45157544D01*
X151142455Y-45157547D01*
X151257664Y-45243793D01*
X151257671Y-45243797D01*
X151392517Y-45294091D01*
X151392516Y-45294091D01*
X151399444Y-45294835D01*
X151452127Y-45300500D01*
X153347872Y-45300499D01*
X153407483Y-45294091D01*
X153542331Y-45243796D01*
X153657546Y-45157546D01*
X153743796Y-45042331D01*
X153794091Y-44907483D01*
X153800500Y-44847873D01*
X153800499Y-42952128D01*
X153794091Y-42892517D01*
X153792061Y-42887075D01*
X153743797Y-42757671D01*
X153743793Y-42757664D01*
X153657547Y-42642455D01*
X153657544Y-42642452D01*
X153542335Y-42556206D01*
X153542328Y-42556202D01*
X153407482Y-42505908D01*
X153407483Y-42505908D01*
X153347883Y-42499501D01*
X153347881Y-42499500D01*
X153347873Y-42499500D01*
X153347864Y-42499500D01*
X151452129Y-42499500D01*
X151452123Y-42499501D01*
X151392516Y-42505908D01*
X151257671Y-42556202D01*
X151257664Y-42556206D01*
X151142455Y-42642452D01*
X151142452Y-42642455D01*
X151056206Y-42757664D01*
X151056202Y-42757671D01*
X151037907Y-42806724D01*
X150996035Y-42862658D01*
X150930571Y-42887075D01*
X150862298Y-42872223D01*
X150845563Y-42861245D01*
X150731954Y-42772820D01*
X150668626Y-42723530D01*
X150531001Y-42649051D01*
X150464504Y-42613064D01*
X150464495Y-42613061D01*
X150244984Y-42537702D01*
X150054450Y-42505908D01*
X150016049Y-42499500D01*
X149783951Y-42499500D01*
X149745550Y-42505908D01*
X149555015Y-42537702D01*
X149335504Y-42613061D01*
X149335495Y-42613064D01*
X149131371Y-42723531D01*
X149131365Y-42723535D01*
X148948222Y-42866081D01*
X148948219Y-42866084D01*
X148948216Y-42866086D01*
X148948216Y-42866087D01*
X148923886Y-42892517D01*
X148791018Y-43036850D01*
X148753510Y-43094262D01*
X148700363Y-43139618D01*
X148631132Y-43149042D01*
X148567796Y-43119540D01*
X148553084Y-43102562D01*
X148551186Y-43102365D01*
X147882962Y-43770589D01*
X147865925Y-43707007D01*
X147800099Y-43592993D01*
X147707007Y-43499901D01*
X147592993Y-43434075D01*
X147529409Y-43417037D01*
X148198797Y-42747647D01*
X148198797Y-42747645D01*
X148168360Y-42723955D01*
X148168354Y-42723951D01*
X147964302Y-42613523D01*
X147964293Y-42613520D01*
X147744860Y-42538188D01*
X147516007Y-42500000D01*
X147283993Y-42500000D01*
X147055139Y-42538188D01*
X146835706Y-42613520D01*
X146835697Y-42613523D01*
X146631650Y-42723949D01*
X146601200Y-42747647D01*
X147270591Y-43417037D01*
X147207007Y-43434075D01*
X147092993Y-43499901D01*
X146999901Y-43592993D01*
X146934075Y-43707007D01*
X146917037Y-43770591D01*
X146248811Y-43102365D01*
X146164516Y-43231390D01*
X146071317Y-43443864D01*
X146014361Y-43668781D01*
X145995202Y-43899994D01*
X145995202Y-43900005D01*
X140500500Y-43900005D01*
X140500500Y-40624500D01*
X140520185Y-40557461D01*
X140572989Y-40511706D01*
X140624500Y-40500500D01*
X176209741Y-40500500D01*
X176276780Y-40520185D01*
G37*
%TD.AperFunction*%
%TA.AperFunction,Conductor*%
G36*
X160618834Y-55874337D02*
G01*
X160674767Y-55916209D01*
X160699184Y-55981673D01*
X160699500Y-55990519D01*
X160699500Y-57058480D01*
X160679815Y-57125519D01*
X160663181Y-57146161D01*
X154255890Y-63553451D01*
X154255887Y-63553454D01*
X154246042Y-63568189D01*
X154210906Y-63620775D01*
X154210905Y-63620777D01*
X154179225Y-63668188D01*
X154179221Y-63668195D01*
X154126421Y-63795667D01*
X154126418Y-63795677D01*
X154099500Y-63931004D01*
X154099500Y-64851452D01*
X154079815Y-64918491D01*
X154048385Y-64951770D01*
X153920213Y-65044890D01*
X153769894Y-65195209D01*
X153769890Y-65195214D01*
X153650318Y-65359793D01*
X153594989Y-65402459D01*
X153525375Y-65408438D01*
X153463580Y-65375833D01*
X153449682Y-65359793D01*
X153330109Y-65195214D01*
X153330105Y-65195209D01*
X153179786Y-65044890D01*
X153051615Y-64951770D01*
X153008949Y-64896441D01*
X153000500Y-64851452D01*
X153000500Y-63441519D01*
X153020185Y-63374480D01*
X153036819Y-63353838D01*
X160487819Y-55902838D01*
X160549142Y-55869353D01*
X160618834Y-55874337D01*
G37*
%TD.AperFunction*%
%TA.AperFunction,Conductor*%
G36*
X174055842Y-44032346D02*
G01*
X174074632Y-44044422D01*
X174235362Y-44169523D01*
X174235368Y-44169527D01*
X174235371Y-44169529D01*
X174437891Y-44279128D01*
X174498978Y-44300099D01*
X174655685Y-44353897D01*
X174655687Y-44353897D01*
X174655689Y-44353898D01*
X174882823Y-44391800D01*
X174882824Y-44391800D01*
X175113096Y-44391800D01*
X175113097Y-44391800D01*
X175340231Y-44353898D01*
X175558029Y-44279128D01*
X175620695Y-44245214D01*
X175689021Y-44230619D01*
X175754394Y-44255281D01*
X175796055Y-44311371D01*
X175800779Y-44381081D01*
X175767393Y-44441950D01*
X156755888Y-63453453D01*
X156755887Y-63453454D01*
X156679222Y-63568192D01*
X156626421Y-63695667D01*
X156626418Y-63695679D01*
X156606529Y-63795670D01*
X156606529Y-63795673D01*
X156599500Y-63831006D01*
X156599500Y-64851452D01*
X156579815Y-64918491D01*
X156548385Y-64951770D01*
X156420213Y-65044890D01*
X156269894Y-65195209D01*
X156269890Y-65195214D01*
X156150318Y-65359793D01*
X156094989Y-65402459D01*
X156025375Y-65408438D01*
X155963580Y-65375833D01*
X155949682Y-65359793D01*
X155830109Y-65195214D01*
X155830105Y-65195209D01*
X155679786Y-65044890D01*
X155551615Y-64951770D01*
X155508949Y-64896441D01*
X155500500Y-64851452D01*
X155500500Y-64341519D01*
X155520185Y-64274480D01*
X155536819Y-64253838D01*
X161944112Y-57846545D01*
X161944114Y-57846543D01*
X162020775Y-57731811D01*
X162021838Y-57729246D01*
X162051485Y-57657671D01*
X162073580Y-57604328D01*
X162094714Y-57498080D01*
X162100500Y-57468995D01*
X162100500Y-48650490D01*
X162120185Y-48583451D01*
X162172989Y-48537696D01*
X162185486Y-48532788D01*
X162251516Y-48510908D01*
X162398350Y-48420340D01*
X162512319Y-48306371D01*
X162573642Y-48272886D01*
X162643334Y-48277870D01*
X162687681Y-48306371D01*
X162801650Y-48420340D01*
X162948484Y-48510908D01*
X163112247Y-48565174D01*
X163213323Y-48575500D01*
X163697836Y-48575499D01*
X163764875Y-48595183D01*
X163810630Y-48647987D01*
X163820574Y-48717146D01*
X163799140Y-48771008D01*
X163688007Y-48928446D01*
X163558511Y-49178361D01*
X163464246Y-49443599D01*
X163464245Y-49443605D01*
X163406981Y-49719177D01*
X163406980Y-49719179D01*
X163387772Y-50000000D01*
X163406980Y-50280820D01*
X163406981Y-50280822D01*
X163464245Y-50556394D01*
X163464246Y-50556400D01*
X163464248Y-50556407D01*
X163464249Y-50556409D01*
X163558509Y-50821634D01*
X163558510Y-50821637D01*
X163558511Y-50821638D01*
X163574309Y-50852127D01*
X163688007Y-51071553D01*
X163850329Y-51301510D01*
X163850333Y-51301514D01*
X163850333Y-51301515D01*
X164042455Y-51507226D01*
X164118006Y-51568691D01*
X164260796Y-51684860D01*
X164260798Y-51684861D01*
X164260799Y-51684862D01*
X164501296Y-51831112D01*
X164501301Y-51831114D01*
X164732023Y-51931330D01*
X164759468Y-51943251D01*
X165030507Y-52019193D01*
X165275665Y-52052888D01*
X165309361Y-52057520D01*
X165309362Y-52057520D01*
X165590839Y-52057520D01*
X165620901Y-52053387D01*
X165869693Y-52019193D01*
X166140732Y-51943251D01*
X166398905Y-51831111D01*
X166639404Y-51684860D01*
X166857748Y-51507223D01*
X167049871Y-51301510D01*
X167212193Y-51071553D01*
X167341691Y-50821634D01*
X167435951Y-50556409D01*
X167493219Y-50280820D01*
X167512428Y-50000000D01*
X167493219Y-49719180D01*
X167435951Y-49443591D01*
X167341691Y-49178366D01*
X167212193Y-48928447D01*
X167049871Y-48698490D01*
X167049866Y-48698484D01*
X166900782Y-48538855D01*
X166873026Y-48509136D01*
X166841655Y-48446706D01*
X166849015Y-48377226D01*
X166892772Y-48322754D01*
X166959031Y-48300586D01*
X166963650Y-48300500D01*
X168470276Y-48300500D01*
X168584041Y-48277870D01*
X168605608Y-48273580D01*
X168669349Y-48247177D01*
X168733087Y-48220777D01*
X168733088Y-48220776D01*
X168733091Y-48220775D01*
X168847823Y-48144114D01*
X172595576Y-44396359D01*
X172656897Y-44362876D01*
X172703661Y-44361733D01*
X172883843Y-44391800D01*
X172883844Y-44391800D01*
X173114116Y-44391800D01*
X173114117Y-44391800D01*
X173341251Y-44353898D01*
X173559049Y-44279128D01*
X173761569Y-44169529D01*
X173761577Y-44169523D01*
X173922308Y-44044422D01*
X173987302Y-44018779D01*
X174055842Y-44032346D01*
G37*
%TD.AperFunction*%
%TA.AperFunction,Conductor*%
G36*
X184372487Y-45420185D02*
G01*
X184393129Y-45436819D01*
X184476650Y-45520340D01*
X184623484Y-45610908D01*
X184638023Y-45615725D01*
X184695467Y-45655498D01*
X184722290Y-45720014D01*
X184709975Y-45788789D01*
X184662432Y-45839989D01*
X184638023Y-45851137D01*
X184523484Y-45889092D01*
X184523481Y-45889093D01*
X184376648Y-45979661D01*
X184293129Y-46063181D01*
X184231806Y-46096666D01*
X184205448Y-46099500D01*
X176831004Y-46099500D01*
X176695677Y-46126418D01*
X176695667Y-46126421D01*
X176568192Y-46179222D01*
X176453454Y-46255887D01*
X159255887Y-63453454D01*
X159179222Y-63568192D01*
X159126421Y-63695667D01*
X159126418Y-63695679D01*
X159106529Y-63795670D01*
X159106529Y-63795673D01*
X159099500Y-63831006D01*
X159099500Y-64851452D01*
X159079815Y-64918491D01*
X159048385Y-64951770D01*
X158920213Y-65044890D01*
X158769894Y-65195209D01*
X158769890Y-65195214D01*
X158650318Y-65359793D01*
X158594989Y-65402459D01*
X158525375Y-65408438D01*
X158463580Y-65375833D01*
X158449682Y-65359793D01*
X158330109Y-65195214D01*
X158330105Y-65195209D01*
X158179786Y-65044890D01*
X158051615Y-64951770D01*
X158008949Y-64896441D01*
X158000500Y-64851452D01*
X158000500Y-64241518D01*
X158020185Y-64174479D01*
X158036819Y-64153837D01*
X176753837Y-45436819D01*
X176815160Y-45403334D01*
X176841518Y-45400500D01*
X184305448Y-45400500D01*
X184372487Y-45420185D01*
G37*
%TD.AperFunction*%
%TA.AperFunction,Conductor*%
G36*
X224442539Y-40520185D02*
G01*
X224488294Y-40572989D01*
X224499500Y-40624500D01*
X224499500Y-49809480D01*
X224479815Y-49876519D01*
X224427011Y-49922274D01*
X224357853Y-49932218D01*
X224294297Y-49903193D01*
X224287819Y-49897161D01*
X223636819Y-49246161D01*
X223603334Y-49184838D01*
X223600500Y-49158480D01*
X223600500Y-43731004D01*
X223600499Y-43731002D01*
X223573581Y-43595677D01*
X223573579Y-43595670D01*
X223566768Y-43579228D01*
X223566766Y-43579222D01*
X223520778Y-43468196D01*
X223520777Y-43468195D01*
X223520775Y-43468189D01*
X223444114Y-43353457D01*
X223444112Y-43353454D01*
X220802839Y-40712181D01*
X220769354Y-40650858D01*
X220774338Y-40581166D01*
X220816210Y-40525233D01*
X220881674Y-40500816D01*
X220890520Y-40500500D01*
X224375500Y-40500500D01*
X224442539Y-40520185D01*
G37*
%TD.AperFunction*%
%TA.AperFunction,Conductor*%
G36*
X170057882Y-44032346D02*
G01*
X170076672Y-44044422D01*
X170237402Y-44169523D01*
X170237408Y-44169527D01*
X170237411Y-44169529D01*
X170439931Y-44279128D01*
X170469098Y-44289141D01*
X170526114Y-44329524D01*
X170552245Y-44394323D01*
X170539196Y-44462964D01*
X170516518Y-44494103D01*
X168147442Y-46863181D01*
X168086119Y-46896666D01*
X168059761Y-46899500D01*
X164394552Y-46899500D01*
X164327513Y-46879815D01*
X164306871Y-46863181D01*
X164223351Y-46779661D01*
X164223350Y-46779660D01*
X164076516Y-46689092D01*
X163912753Y-46634826D01*
X163912751Y-46634825D01*
X163811678Y-46624500D01*
X163213330Y-46624500D01*
X163213312Y-46624501D01*
X163112247Y-46634825D01*
X162948484Y-46689092D01*
X162948481Y-46689093D01*
X162801648Y-46779661D01*
X162687681Y-46893629D01*
X162626358Y-46927114D01*
X162556666Y-46922130D01*
X162512319Y-46893629D01*
X162398351Y-46779661D01*
X162398350Y-46779660D01*
X162251516Y-46689092D01*
X162087753Y-46634826D01*
X162087751Y-46634825D01*
X161986678Y-46624500D01*
X161388330Y-46624500D01*
X161388312Y-46624501D01*
X161287247Y-46634825D01*
X161287240Y-46634827D01*
X161263503Y-46642693D01*
X161193674Y-46645094D01*
X161133633Y-46609362D01*
X161102441Y-46546841D01*
X161100500Y-46524987D01*
X161100500Y-45683628D01*
X161120185Y-45616589D01*
X161172989Y-45570834D01*
X161185496Y-45565922D01*
X161215782Y-45555886D01*
X161351516Y-45510908D01*
X161498350Y-45420340D01*
X161612319Y-45306371D01*
X161673642Y-45272886D01*
X161743334Y-45277870D01*
X161787681Y-45306371D01*
X161901650Y-45420340D01*
X162048484Y-45510908D01*
X162212247Y-45565174D01*
X162313323Y-45575500D01*
X162911676Y-45575499D01*
X162911684Y-45575498D01*
X162911687Y-45575498D01*
X163005430Y-45565922D01*
X163012753Y-45565174D01*
X163176516Y-45510908D01*
X163323350Y-45420340D01*
X163406871Y-45336819D01*
X163468194Y-45303334D01*
X163494552Y-45300500D01*
X165473336Y-45300500D01*
X165564380Y-45282389D01*
X165608668Y-45273580D01*
X165672409Y-45247177D01*
X165736147Y-45220777D01*
X165736148Y-45220776D01*
X165736151Y-45220775D01*
X165850883Y-45144114D01*
X166598635Y-44396360D01*
X166659958Y-44362876D01*
X166706722Y-44361733D01*
X166886903Y-44391800D01*
X166886904Y-44391800D01*
X167117176Y-44391800D01*
X167117177Y-44391800D01*
X167344311Y-44353898D01*
X167562109Y-44279128D01*
X167764629Y-44169529D01*
X167764637Y-44169523D01*
X167925368Y-44044422D01*
X167990362Y-44018779D01*
X168058902Y-44032346D01*
X168077692Y-44044422D01*
X168238422Y-44169523D01*
X168238428Y-44169527D01*
X168238431Y-44169529D01*
X168440951Y-44279128D01*
X168502038Y-44300099D01*
X168658745Y-44353897D01*
X168658747Y-44353897D01*
X168658749Y-44353898D01*
X168885883Y-44391800D01*
X168885884Y-44391800D01*
X169116156Y-44391800D01*
X169116157Y-44391800D01*
X169343291Y-44353898D01*
X169561089Y-44279128D01*
X169763609Y-44169529D01*
X169763617Y-44169523D01*
X169924348Y-44044422D01*
X169989342Y-44018779D01*
X170057882Y-44032346D01*
G37*
%TD.AperFunction*%
%TA.AperFunction,Conductor*%
G36*
X210376519Y-40520185D02*
G01*
X210422274Y-40572989D01*
X210432218Y-40642147D01*
X210403193Y-40705703D01*
X210397161Y-40712181D01*
X207355888Y-43753453D01*
X207355887Y-43753454D01*
X207279223Y-43868192D01*
X207226421Y-43995668D01*
X207226418Y-43995678D01*
X207213286Y-44061699D01*
X207213286Y-44061700D01*
X207198661Y-44135218D01*
X207166275Y-44197129D01*
X207105558Y-44231702D01*
X207035789Y-44227961D01*
X206989363Y-44198706D01*
X203502838Y-40712181D01*
X203469353Y-40650858D01*
X203474337Y-40581166D01*
X203516209Y-40525233D01*
X203581673Y-40500816D01*
X203590519Y-40500500D01*
X210309480Y-40500500D01*
X210376519Y-40520185D01*
G37*
%TD.AperFunction*%
%TA.AperFunction,Conductor*%
G36*
X190118187Y-41720185D02*
G01*
X190163942Y-41772989D01*
X190173886Y-41842147D01*
X190144861Y-41905703D01*
X190127311Y-41922353D01*
X190057734Y-41976506D01*
X190057729Y-41976511D01*
X189901768Y-42145929D01*
X189775822Y-42338705D01*
X189683322Y-42549585D01*
X189626793Y-42772815D01*
X189607778Y-43002294D01*
X189607778Y-43002305D01*
X189626793Y-43231784D01*
X189640838Y-43287247D01*
X189638213Y-43357068D01*
X189608313Y-43405368D01*
X189050502Y-43963181D01*
X188989179Y-43996666D01*
X188962821Y-43999500D01*
X187894552Y-43999500D01*
X187827513Y-43979815D01*
X187806871Y-43963181D01*
X187723351Y-43879661D01*
X187723350Y-43879660D01*
X187632129Y-43823395D01*
X187576518Y-43789093D01*
X187576513Y-43789091D01*
X187534466Y-43775158D01*
X187412753Y-43734826D01*
X187412751Y-43734825D01*
X187311678Y-43724500D01*
X186713330Y-43724500D01*
X186713312Y-43724501D01*
X186612247Y-43734825D01*
X186448484Y-43789092D01*
X186448481Y-43789093D01*
X186301648Y-43879661D01*
X186187681Y-43993629D01*
X186126358Y-44027114D01*
X186056666Y-44022130D01*
X186012319Y-43993629D01*
X185898351Y-43879661D01*
X185898350Y-43879660D01*
X185807129Y-43823395D01*
X185751518Y-43789093D01*
X185751513Y-43789091D01*
X185709466Y-43775158D01*
X185587753Y-43734826D01*
X185587751Y-43734825D01*
X185486678Y-43724500D01*
X184888330Y-43724500D01*
X184888312Y-43724501D01*
X184787247Y-43734825D01*
X184623484Y-43789092D01*
X184623481Y-43789093D01*
X184476648Y-43879661D01*
X184393129Y-43963181D01*
X184331806Y-43996666D01*
X184305448Y-43999500D01*
X176431003Y-43999500D01*
X176322590Y-44021065D01*
X176322589Y-44021065D01*
X176295671Y-44026420D01*
X176245119Y-44047358D01*
X176175649Y-44054825D01*
X176113171Y-44023549D01*
X176077520Y-43963459D01*
X176080016Y-43893634D01*
X176096171Y-43863455D01*
X176095424Y-43862967D01*
X176166972Y-43753454D01*
X176224177Y-43665895D01*
X176316677Y-43455016D01*
X176373206Y-43231788D01*
X176389359Y-43036850D01*
X176392222Y-43002305D01*
X176392222Y-43002294D01*
X176373207Y-42772820D01*
X176373206Y-42772815D01*
X176373206Y-42772812D01*
X176369372Y-42757671D01*
X176359162Y-42717351D01*
X176361786Y-42647530D01*
X176391684Y-42599231D01*
X177254098Y-41736819D01*
X177315421Y-41703334D01*
X177341779Y-41700500D01*
X190051148Y-41700500D01*
X190118187Y-41720185D01*
G37*
%TD.AperFunction*%
%TA.AperFunction,Conductor*%
G36*
X202525520Y-41720185D02*
G01*
X202546162Y-41736819D01*
X202897162Y-42087819D01*
X202930647Y-42149142D01*
X202925663Y-42218834D01*
X202883791Y-42274767D01*
X202818327Y-42299184D01*
X202809481Y-42299500D01*
X200265669Y-42299500D01*
X200198630Y-42279815D01*
X200161860Y-42243322D01*
X200145861Y-42218834D01*
X200098229Y-42145927D01*
X199942268Y-41976508D01*
X199872688Y-41922352D01*
X199831876Y-41865643D01*
X199828202Y-41795870D01*
X199862834Y-41735187D01*
X199924775Y-41702860D01*
X199948852Y-41700500D01*
X202458481Y-41700500D01*
X202525520Y-41720185D01*
G37*
%TD.AperFunction*%
%TD*%
M02*
