M48
; DRILL file {KiCad 8.0.1} date 2024-05-21T11:09:47+0200
; FORMAT={-:-/ absolute / inch / decimal}
; #@! TF.CreationDate,2024-05-21T11:09:47+02:00
; #@! TF.GenerationSoftware,Kicad,Pcbnew,8.0.1
; #@! TF.FileFunction,Plated,1,2,PTH
FMAT,2
INCH
; #@! TA.AperFunction,Plated,PTH,ViaDrill
T1C0.0157
; #@! TA.AperFunction,Plated,PTH,ComponentDrill
T2C0.0354
; #@! TA.AperFunction,Plated,PTH,ComponentDrill
T3C0.0374
; #@! TA.AperFunction,Plated,PTH,ComponentDrill
T4C0.0394
; #@! TA.AperFunction,Plated,PTH,ComponentDrill
T5C0.0433
; #@! TA.AperFunction,Plated,PTH,ComponentDrill
T6C0.0433
; #@! TA.AperFunction,Plated,PTH,ComponentDrill
T7C0.0826
; #@! TA.AperFunction,Plated,PTH,ComponentDrill
T8C0.1260
%
G90
G05
T1
X5.5827Y-1.6535
X5.5827Y-2.126
X5.5827Y-2.4921
X5.9921Y-2.7244
X5.9961Y-1.6102
X6.1024Y-1.6732
X6.1024Y-2.2638
X6.5354Y-2.4409
X6.5591Y-1.8268
X6.6614Y-1.9449
X6.7126Y-2.4094
X6.8937Y-1.6142
X6.8937Y-2.3661
X6.8937Y-2.7205
X6.9173Y-2.5079
X6.9882Y-2.0669
X7.2047Y-1.6929
X7.2047Y-2.3937
X7.3819Y-2.0669
X7.5Y-1.6102
X7.5Y-2.7205
X7.5787Y-2.0669
X7.6339Y-1.7835
X7.6772Y-2.4291
X7.7756Y-2.0669
X7.8346Y-2.3228
X7.8622Y-1.7717
X7.9764Y-1.6535
X8.0394Y-1.8819
X8.0472Y-1.7283
X8.185Y-1.6181
X8.315Y-2.7165
X8.3661Y-1.6732
X8.3661Y-1.8701
X8.3661Y-2.0669
X8.4646Y-2.4606
X8.7244Y-1.9449
X8.7283Y-2.4291
X8.8031Y-1.6417
X8.8031Y-2.0236
X8.8031Y-2.3189
X8.8031Y-2.7126
T2
X8.4508Y-1.7638
X8.4508Y-2.0394
X8.4508Y-2.315
X8.4508Y-2.5906
X8.5508Y-1.7638
X8.5508Y-2.0394
X8.5508Y-2.315
X8.5508Y-2.5906
T3
X5.9961Y-2.6063
X6.0945Y-2.6063
X6.1929Y-2.6063
X6.2913Y-2.6063
X6.3898Y-2.6063
X6.4882Y-2.6063
X6.5866Y-2.6063
X6.685Y-2.6063
X8.185Y-1.815
X8.185Y-1.9134
X8.185Y-2.0118
X8.185Y-2.1102
X8.185Y-2.2087
X8.185Y-2.3071
X8.185Y-2.4055
X8.185Y-2.5039
T4
X5.8031Y-1.7283
X5.9016Y-1.7283
X6.0Y-1.7283
T5
X6.5749Y-1.693
X6.6339Y-2.2637
X6.6536Y-1.693
X6.7323Y-1.693
X6.7323Y-2.2637
X6.811Y-1.693
X6.8307Y-2.2637
X6.8897Y-1.693
X7.5198Y-1.693
X7.5788Y-2.2637
X7.5985Y-1.693
X7.6772Y-1.693
X7.6772Y-2.2637
X7.7559Y-1.693
X7.7756Y-2.2637
X7.8346Y-1.693
T7
X6.5138Y-1.9685
X6.9508Y-1.9685
X7.4587Y-1.9685
X7.8957Y-1.9685
T8
X5.6772Y-2.6378
X7.2047Y-2.0472
X7.8819Y-2.6378
T6
G00X5.7126Y-2.0098
M15
G01X5.7126Y-2.0374
M16
G05
G00X6.0906Y-2.0098
M15
G01X6.0906Y-2.0374
M16
G05
M30
