%TF.GenerationSoftware,KiCad,Pcbnew,8.0.1*%
%TF.CreationDate,2024-05-07T13:51:58+02:00*%
%TF.ProjectId,SecondaryBoard,5365636f-6e64-4617-9279-426f6172642e,rev?*%
%TF.SameCoordinates,Original*%
%TF.FileFunction,Copper,L2,Bot*%
%TF.FilePolarity,Positive*%
%FSLAX46Y46*%
G04 Gerber Fmt 4.6, Leading zero omitted, Abs format (unit mm)*
G04 Created by KiCad (PCBNEW 8.0.1) date 2024-05-07 13:51:58*
%MOMM*%
%LPD*%
G01*
G04 APERTURE LIST*
G04 Aperture macros list*
%AMRoundRect*
0 Rectangle with rounded corners*
0 $1 Rounding radius*
0 $2 $3 $4 $5 $6 $7 $8 $9 X,Y pos of 4 corners*
0 Add a 4 corners polygon primitive as box body*
4,1,4,$2,$3,$4,$5,$6,$7,$8,$9,$2,$3,0*
0 Add four circle primitives for the rounded corners*
1,1,$1+$1,$2,$3*
1,1,$1+$1,$4,$5*
1,1,$1+$1,$6,$7*
1,1,$1+$1,$8,$9*
0 Add four rect primitives between the rounded corners*
20,1,$1+$1,$2,$3,$4,$5,0*
20,1,$1+$1,$4,$5,$6,$7,0*
20,1,$1+$1,$6,$7,$8,$9,0*
20,1,$1+$1,$8,$9,$2,$3,0*%
G04 Aperture macros list end*
%TA.AperFunction,ComponentPad*%
%ADD10R,1.800000X1.800000*%
%TD*%
%TA.AperFunction,ComponentPad*%
%ADD11C,1.800000*%
%TD*%
%TA.AperFunction,ComponentPad*%
%ADD12C,1.778000*%
%TD*%
%TA.AperFunction,ComponentPad*%
%ADD13C,1.798320*%
%TD*%
%TA.AperFunction,ComponentPad*%
%ADD14C,3.114040*%
%TD*%
%TA.AperFunction,ComponentPad*%
%ADD15C,5.600000*%
%TD*%
%TA.AperFunction,ComponentPad*%
%ADD16O,2.720000X3.240000*%
%TD*%
%TA.AperFunction,SMDPad,CuDef*%
%ADD17RoundRect,0.237500X0.300000X0.237500X-0.300000X0.237500X-0.300000X-0.237500X0.300000X-0.237500X0*%
%TD*%
%TA.AperFunction,SMDPad,CuDef*%
%ADD18RoundRect,0.237500X0.237500X-0.250000X0.237500X0.250000X-0.237500X0.250000X-0.237500X-0.250000X0*%
%TD*%
%TA.AperFunction,SMDPad,CuDef*%
%ADD19RoundRect,0.237500X-0.250000X-0.237500X0.250000X-0.237500X0.250000X0.237500X-0.250000X0.237500X0*%
%TD*%
%TA.AperFunction,SMDPad,CuDef*%
%ADD20RoundRect,0.237500X0.250000X0.237500X-0.250000X0.237500X-0.250000X-0.237500X0.250000X-0.237500X0*%
%TD*%
%TA.AperFunction,SMDPad,CuDef*%
%ADD21RoundRect,0.237500X-0.237500X0.250000X-0.237500X-0.250000X0.237500X-0.250000X0.237500X0.250000X0*%
%TD*%
%TA.AperFunction,SMDPad,CuDef*%
%ADD22RoundRect,0.237500X-0.300000X-0.237500X0.300000X-0.237500X0.300000X0.237500X-0.300000X0.237500X0*%
%TD*%
%TA.AperFunction,ComponentPad*%
%ADD23RoundRect,0.250000X0.600000X0.725000X-0.600000X0.725000X-0.600000X-0.725000X0.600000X-0.725000X0*%
%TD*%
%TA.AperFunction,ComponentPad*%
%ADD24O,1.700000X1.950000*%
%TD*%
%TA.AperFunction,ComponentPad*%
%ADD25RoundRect,0.250000X-0.725000X0.600000X-0.725000X-0.600000X0.725000X-0.600000X0.725000X0.600000X0*%
%TD*%
%TA.AperFunction,ComponentPad*%
%ADD26O,1.950000X1.700000*%
%TD*%
%TA.AperFunction,ViaPad*%
%ADD27C,0.800000*%
%TD*%
%TA.AperFunction,Conductor*%
%ADD28C,0.400000*%
%TD*%
G04 APERTURE END LIST*
D10*
%TO.P,D4,1,K*%
%TO.N,band3*%
X214649900Y-44800000D03*
D11*
%TO.P,D4,2,A*%
%TO.N,Net-(D4-A)*%
X217189900Y-44800000D03*
%TD*%
D12*
%TO.P,S1,1*%
%TO.N,Net-(R9-Pad1)*%
X191002040Y-43002300D03*
%TO.P,S1,2*%
%TO.N,Net-(R10-Pad1)*%
X193001020Y-43002300D03*
%TO.P,S1,3*%
%TO.N,EQ_BAND_BTN*%
X195000000Y-43002300D03*
%TO.P,S1,4*%
%TO.N,unconnected-(S1-Pad4)*%
X196998980Y-43002300D03*
%TO.P,S1,5*%
%TO.N,+3.3V*%
X198997960Y-43002300D03*
D13*
%TO.P,S1,A*%
%TO.N,Net-(R1-Pad2)*%
X192500640Y-57498080D03*
%TO.P,S1,B*%
%TO.N,Net-(R4-Pad2)*%
X197499360Y-57498080D03*
%TO.P,S1,C*%
%TO.N,GND*%
X195000000Y-57498080D03*
D14*
%TO.P,S1,M1*%
%TO.N,N/C*%
X189450100Y-50000000D03*
%TO.P,S1,M2*%
X200549900Y-50000000D03*
%TD*%
D15*
%TO.P,H2,1,1*%
%TO.N,GND*%
X144200000Y-67000000D03*
%TD*%
D12*
%TO.P,S2,1*%
%TO.N,Net-(R12-Pad2)*%
X167002040Y-43002300D03*
%TO.P,S2,2*%
%TO.N,unconnected-(S2-Pad2)*%
X169001020Y-43002300D03*
%TO.P,S2,3*%
%TO.N,unconnected-(S2-Pad3)*%
X171000000Y-43002300D03*
%TO.P,S2,4*%
%TO.N,Net-(R11-Pad2)*%
X172998980Y-43002300D03*
%TO.P,S2,5*%
%TO.N,+3.3V*%
X174997960Y-43002300D03*
D13*
%TO.P,S2,A*%
%TO.N,Net-(R3-Pad2)*%
X168500640Y-57498080D03*
%TO.P,S2,B*%
%TO.N,Net-(R7-Pad2)*%
X173499360Y-57498080D03*
%TO.P,S2,C*%
%TO.N,GND*%
X171000000Y-57498080D03*
D14*
%TO.P,S2,M1*%
%TO.N,N/C*%
X165450100Y-50000000D03*
%TO.P,S2,M2*%
X176549900Y-50000000D03*
%TD*%
D10*
%TO.P,D1,1,K*%
%TO.N,band0*%
X214649900Y-65800000D03*
D11*
%TO.P,D1,2,A*%
%TO.N,Net-(D1-A)*%
X217189900Y-65800000D03*
%TD*%
D10*
%TO.P,D2,1,K*%
%TO.N,band1*%
X214649900Y-58800000D03*
D11*
%TO.P,D2,2,A*%
%TO.N,Net-(D2-A)*%
X217189900Y-58800000D03*
%TD*%
D10*
%TO.P,D3,1,K*%
%TO.N,band2*%
X214649900Y-51800000D03*
D11*
%TO.P,D3,2,A*%
%TO.N,Net-(D3-A)*%
X217189900Y-51800000D03*
%TD*%
D16*
%TO.P,RV1,*%
%TO.N,*%
X154700000Y-51400000D03*
X145100000Y-51400000D03*
D10*
%TO.P,RV1,1,1*%
%TO.N,+3.3V*%
X152400000Y-43900000D03*
D11*
%TO.P,RV1,2,2*%
%TO.N,Potar_volume*%
X149900000Y-43900000D03*
%TO.P,RV1,3,3*%
%TO.N,GND*%
X147400000Y-43900000D03*
%TD*%
D15*
%TO.P,H3,1,1*%
%TO.N,GND*%
X200200000Y-67000000D03*
%TD*%
%TO.P,H1,1,1*%
%TO.N,GND*%
X183000000Y-52000000D03*
%TD*%
D17*
%TO.P,C1,1*%
%TO.N,GND*%
X180725000Y-57230000D03*
%TO.P,C1,2*%
%TO.N,B Encodeur 2*%
X179000000Y-57230000D03*
%TD*%
D18*
%TO.P,R3,1*%
%TO.N,+3.3V*%
X167700000Y-61212500D03*
%TO.P,R3,2*%
%TO.N,Net-(R3-Pad2)*%
X167700000Y-59387500D03*
%TD*%
D19*
%TO.P,R6,1*%
%TO.N,A Encodeur 2*%
X164252400Y-59434730D03*
%TO.P,R6,2*%
%TO.N,Net-(R3-Pad2)*%
X166077400Y-59434730D03*
%TD*%
D20*
%TO.P,R5,1*%
%TO.N,B Encodeur 1*%
X202012500Y-57600000D03*
%TO.P,R5,2*%
%TO.N,Net-(R4-Pad2)*%
X200187500Y-57600000D03*
%TD*%
D21*
%TO.P,R15,1*%
%TO.N,+3.3V*%
X221649900Y-51887500D03*
%TO.P,R15,2*%
%TO.N,Net-(D3-A)*%
X221649900Y-53712500D03*
%TD*%
D18*
%TO.P,R1,1*%
%TO.N,+3.3V*%
X192500000Y-61712500D03*
%TO.P,R1,2*%
%TO.N,Net-(R1-Pad2)*%
X192500000Y-59887500D03*
%TD*%
D22*
%TO.P,C2,1*%
%TO.N,GND*%
X162507400Y-57594730D03*
%TO.P,C2,2*%
%TO.N,A Encodeur 2*%
X164232400Y-57594730D03*
%TD*%
D20*
%TO.P,R8,1*%
%TO.N,B Encodeur 2*%
X178867500Y-58755000D03*
%TO.P,R8,2*%
%TO.N,Net-(R7-Pad2)*%
X177042500Y-58755000D03*
%TD*%
D21*
%TO.P,R16,1*%
%TO.N,Net-(D4-A)*%
X221649900Y-44887500D03*
%TO.P,R16,2*%
%TO.N,+3.3V*%
X221649900Y-46712500D03*
%TD*%
D23*
%TO.P,J4,1,Pin_1*%
%TO.N,A Encodeur 1*%
X169800000Y-66200000D03*
D24*
%TO.P,J4,2,Pin_2*%
%TO.N,B Encodeur 1*%
X167300000Y-66200000D03*
%TO.P,J4,3,Pin_3*%
%TO.N,B Encodeur 2*%
X164800000Y-66200000D03*
%TO.P,J4,4,Pin_4*%
%TO.N,A Encodeur 2*%
X162300000Y-66200000D03*
%TO.P,J4,5,Pin_5*%
%TO.N,TIM3_CH1*%
X159800000Y-66200000D03*
%TO.P,J4,6,Pin_6*%
%TO.N,TIM3_CH2*%
X157300000Y-66200000D03*
%TO.P,J4,7,Pin_7*%
%TO.N,TIM3_CH3*%
X154800000Y-66200000D03*
%TO.P,J4,8,Pin_8*%
%TO.N,TIM3_CH4*%
X152300000Y-66200000D03*
%TD*%
D18*
%TO.P,R7,1*%
%TO.N,+3.3V*%
X173500000Y-61312500D03*
%TO.P,R7,2*%
%TO.N,Net-(R7-Pad2)*%
X173500000Y-59487500D03*
%TD*%
D17*
%TO.P,C3,1*%
%TO.N,GND*%
X203962500Y-59400000D03*
%TO.P,C3,2*%
%TO.N,B Encodeur 1*%
X202237500Y-59400000D03*
%TD*%
D25*
%TO.P,J5,1,Pin_1*%
%TO.N,+3.3V*%
X207900000Y-46100000D03*
D26*
%TO.P,J5,2,Pin_2*%
%TO.N,Potar_volume*%
X207900000Y-48600000D03*
%TO.P,J5,3,Pin_3*%
%TO.N,EQ_BAND_BTN*%
X207900000Y-51100000D03*
%TO.P,J5,4,Pin_4*%
%TO.N,band3*%
X207900000Y-53600000D03*
%TO.P,J5,5,Pin_5*%
%TO.N,band2*%
X207900000Y-56100000D03*
%TO.P,J5,6,Pin_6*%
%TO.N,band1*%
X207900000Y-58600000D03*
%TO.P,J5,7,Pin_7*%
%TO.N,band0*%
X207900000Y-61100000D03*
%TO.P,J5,8,Pin_8*%
%TO.N,GND*%
X207900000Y-63600000D03*
%TD*%
D18*
%TO.P,R13,1*%
%TO.N,Net-(D1-A)*%
X221649900Y-65712500D03*
%TO.P,R13,2*%
%TO.N,+3.3V*%
X221649900Y-63887500D03*
%TD*%
%TO.P,R4,1*%
%TO.N,+3.3V*%
X197500000Y-61712500D03*
%TO.P,R4,2*%
%TO.N,Net-(R4-Pad2)*%
X197500000Y-59887500D03*
%TD*%
D21*
%TO.P,R14,1*%
%TO.N,Net-(D2-A)*%
X221649900Y-57887500D03*
%TO.P,R14,2*%
%TO.N,+3.3V*%
X221649900Y-59712500D03*
%TD*%
D22*
%TO.P,C5,1*%
%TO.N,GND*%
X147637500Y-42000000D03*
%TO.P,C5,2*%
%TO.N,Potar_volume*%
X149362500Y-42000000D03*
%TD*%
D19*
%TO.P,R2,1*%
%TO.N,A Encodeur 1*%
X187387500Y-59300000D03*
%TO.P,R2,2*%
%TO.N,Net-(R1-Pad2)*%
X189212500Y-59300000D03*
%TD*%
D22*
%TO.P,C4,1*%
%TO.N,GND*%
X185737500Y-57300000D03*
%TO.P,C4,2*%
%TO.N,A Encodeur 1*%
X187462500Y-57300000D03*
%TD*%
D27*
%TO.N,GND*%
X172000000Y-65000000D03*
X183000000Y-43000000D03*
X207900000Y-41100000D03*
X199700000Y-45000000D03*
X155000000Y-42500000D03*
X202500000Y-52500000D03*
X183000000Y-65000000D03*
X192500000Y-52500000D03*
X180000000Y-46000000D03*
X166000000Y-62000000D03*
X193900000Y-45300000D03*
X212500000Y-47500000D03*
X197500000Y-52500000D03*
X176000000Y-60000000D03*
X212500000Y-52500000D03*
X171000000Y-47500000D03*
X199000000Y-59000000D03*
X177500000Y-52500000D03*
X187500000Y-52500000D03*
X160000000Y-57500000D03*
X204400000Y-43900000D03*
X222900000Y-41800000D03*
X215000000Y-62500000D03*
X155000000Y-62500000D03*
X212500000Y-42500000D03*
X167000000Y-46000000D03*
X202600000Y-42000000D03*
X155000000Y-57500000D03*
%TO.N,+3.3V*%
X221700000Y-61700000D03*
X221600000Y-49400000D03*
X195000000Y-61700000D03*
X170500000Y-61200000D03*
%TD*%
D28*
%TO.N,B Encodeur 2*%
X178867500Y-58755000D02*
X174322500Y-63300000D01*
X179000000Y-57230000D02*
X179000000Y-57970000D01*
X179000000Y-57970000D02*
X179000000Y-58622500D01*
X167700000Y-63300000D02*
X164800000Y-66200000D01*
X174322500Y-63300000D02*
X167700000Y-63300000D01*
X179000000Y-58622500D02*
X178867500Y-58755000D01*
%TO.N,A Encodeur 2*%
X164252400Y-62747600D02*
X162300000Y-64700000D01*
X164232400Y-57594730D02*
X164232400Y-59414730D01*
X164232400Y-59414730D02*
X164252400Y-59434730D01*
X164252400Y-59434730D02*
X164252400Y-62747600D01*
X162300000Y-64700000D02*
X162300000Y-66200000D01*
%TO.N,B Encodeur 1*%
X167300000Y-66200000D02*
X170800000Y-69700000D01*
X202012500Y-59175000D02*
X202237500Y-59400000D01*
X191937500Y-69700000D02*
X202237500Y-59400000D01*
X202012500Y-57600000D02*
X202012500Y-59175000D01*
X170800000Y-69700000D02*
X191937500Y-69700000D01*
%TO.N,A Encodeur 1*%
X173200000Y-66200000D02*
X169800000Y-66200000D01*
X187387500Y-58300000D02*
X187387500Y-57375000D01*
X187387500Y-59300000D02*
X187387500Y-58300000D01*
X187387500Y-58300000D02*
X181100000Y-58300000D01*
X181100000Y-58300000D02*
X173200000Y-66200000D01*
X187387500Y-57375000D02*
X187462500Y-57300000D01*
%TO.N,Potar_volume*%
X149362500Y-42000000D02*
X150100000Y-42737500D01*
X151200000Y-45600000D02*
X149900000Y-44300000D01*
X149900000Y-44300000D02*
X149900000Y-43900000D01*
X155000000Y-45600000D02*
X151200000Y-45600000D01*
X159150000Y-41450000D02*
X155000000Y-45600000D01*
X150100000Y-42737500D02*
X150100000Y-43700000D01*
X150100000Y-43700000D02*
X149900000Y-43900000D01*
X200750000Y-41450000D02*
X159150000Y-41450000D01*
X207900000Y-48600000D02*
X200750000Y-41450000D01*
%TO.N,Net-(D1-A)*%
X217277400Y-65712500D02*
X217189900Y-65800000D01*
X221649900Y-65712500D02*
X217277400Y-65712500D01*
%TO.N,band0*%
X207900000Y-61100000D02*
X209949900Y-61100000D01*
X209949900Y-61100000D02*
X214649900Y-65800000D01*
%TO.N,Net-(D2-A)*%
X221649900Y-57887500D02*
X218102400Y-57887500D01*
X218102400Y-57887500D02*
X217189900Y-58800000D01*
%TO.N,band1*%
X214649900Y-58800000D02*
X208100000Y-58800000D01*
X208100000Y-58800000D02*
X207900000Y-58600000D01*
%TO.N,band2*%
X214649900Y-51800000D02*
X210349900Y-56100000D01*
X210349900Y-56100000D02*
X207900000Y-56100000D01*
%TO.N,Net-(D3-A)*%
X221649900Y-53712500D02*
X219102400Y-53712500D01*
X219102400Y-53712500D02*
X217189900Y-51800000D01*
%TO.N,Net-(D4-A)*%
X217277400Y-44887500D02*
X217189900Y-44800000D01*
X221649900Y-44887500D02*
X217277400Y-44887500D01*
%TO.N,band3*%
X210000000Y-47000000D02*
X210000000Y-51500000D01*
X210000000Y-51500000D02*
X207900000Y-53600000D01*
X212200000Y-44800000D02*
X210000000Y-47000000D01*
X214649900Y-44800000D02*
X212200000Y-44800000D01*
%TO.N,+3.3V*%
X167700000Y-61212500D02*
X170487500Y-61212500D01*
X173500000Y-61312500D02*
X173387500Y-61200000D01*
X173387500Y-61200000D02*
X170500000Y-61200000D01*
X221649900Y-63887500D02*
X221649900Y-61750100D01*
X203900000Y-40700000D02*
X158700000Y-40700000D01*
X194987500Y-61712500D02*
X195000000Y-61700000D01*
X221649900Y-61750100D02*
X221700000Y-61700000D01*
X221600000Y-49400000D02*
X221649900Y-49350100D01*
X195012500Y-61712500D02*
X195000000Y-61700000D01*
X221649900Y-49449900D02*
X221649900Y-51887500D01*
X221649900Y-61649900D02*
X221700000Y-61700000D01*
X155500000Y-43900000D02*
X152400000Y-43900000D01*
X192500000Y-61712500D02*
X194987500Y-61712500D01*
X170487500Y-61212500D02*
X170500000Y-61200000D01*
X221600000Y-49400000D02*
X221649900Y-49449900D01*
X158700000Y-40700000D02*
X155500000Y-43900000D01*
X207900000Y-46100000D02*
X207900000Y-44700000D01*
X221649900Y-59712500D02*
X221649900Y-61649900D01*
X207900000Y-44700000D02*
X203900000Y-40700000D01*
X197500000Y-61712500D02*
X195012500Y-61712500D01*
X221649900Y-49350100D02*
X221649900Y-46712500D01*
%TO.N,EQ_BAND_BTN*%
X198897700Y-46900000D02*
X195000000Y-43002300D01*
X203700000Y-46900000D02*
X198897700Y-46900000D01*
X207900000Y-51100000D02*
X203700000Y-46900000D01*
%TO.N,Net-(R1-Pad2)*%
X191014420Y-57498080D02*
X189212500Y-59300000D01*
X192500000Y-57498720D02*
X192500640Y-57498080D01*
X192500640Y-57498080D02*
X191014420Y-57498080D01*
X192500000Y-59887500D02*
X192500000Y-57498720D01*
%TO.N,Net-(R3-Pad2)*%
X166077400Y-58622600D02*
X167201920Y-57498080D01*
X167700000Y-59387500D02*
X166124630Y-59387500D01*
X166124630Y-59387500D02*
X166077400Y-59434730D01*
X167201920Y-57498080D02*
X168500640Y-57498080D01*
X166077400Y-59434730D02*
X166077400Y-58622600D01*
%TO.N,Net-(R4-Pad2)*%
X200187500Y-57600000D02*
X198351180Y-57600000D01*
X197500000Y-57498720D02*
X197499360Y-57498080D01*
X197500000Y-59887500D02*
X197500000Y-57498720D01*
%TO.N,Net-(R7-Pad2)*%
X177042500Y-58755000D02*
X175785580Y-57498080D01*
X173500000Y-59487500D02*
X173500000Y-57498720D01*
X175785580Y-57498080D02*
X173499360Y-57498080D01*
X173500000Y-57498720D02*
X173499360Y-57498080D01*
%TD*%
%TA.AperFunction,Conductor*%
%TO.N,GND*%
G36*
X157676521Y-40520185D02*
G01*
X157722276Y-40572989D01*
X157732220Y-40642147D01*
X157703195Y-40705703D01*
X157697163Y-40712181D01*
X155246162Y-43163181D01*
X155184839Y-43196666D01*
X155158481Y-43199500D01*
X153924499Y-43199500D01*
X153857460Y-43179815D01*
X153811705Y-43127011D01*
X153800499Y-43075500D01*
X153800499Y-42952129D01*
X153800498Y-42952123D01*
X153794091Y-42892516D01*
X153743797Y-42757671D01*
X153743793Y-42757664D01*
X153657547Y-42642455D01*
X153657544Y-42642452D01*
X153542335Y-42556206D01*
X153542328Y-42556202D01*
X153407482Y-42505908D01*
X153407483Y-42505908D01*
X153347883Y-42499501D01*
X153347881Y-42499500D01*
X153347873Y-42499500D01*
X153347864Y-42499500D01*
X151452129Y-42499500D01*
X151452123Y-42499501D01*
X151392516Y-42505908D01*
X151257671Y-42556202D01*
X151257664Y-42556206D01*
X151142455Y-42642452D01*
X151142452Y-42642455D01*
X151056206Y-42757664D01*
X151056202Y-42757671D01*
X151040682Y-42799284D01*
X150998811Y-42855218D01*
X150933346Y-42879635D01*
X150865073Y-42864783D01*
X150815668Y-42815378D01*
X150800500Y-42755951D01*
X150800500Y-42668504D01*
X150773581Y-42533177D01*
X150773580Y-42533176D01*
X150773580Y-42533172D01*
X150720775Y-42405689D01*
X150676018Y-42338705D01*
X150644114Y-42290957D01*
X150644111Y-42290953D01*
X150436818Y-42083660D01*
X150403333Y-42022337D01*
X150400499Y-41995979D01*
X150400499Y-41713330D01*
X150400498Y-41713313D01*
X150390174Y-41612247D01*
X150390152Y-41612181D01*
X150335908Y-41448484D01*
X150245340Y-41301650D01*
X150123350Y-41179660D01*
X150032129Y-41123395D01*
X149976518Y-41089093D01*
X149976513Y-41089091D01*
X149975069Y-41088612D01*
X149812753Y-41034826D01*
X149812751Y-41034825D01*
X149711678Y-41024500D01*
X149013330Y-41024500D01*
X149013312Y-41024501D01*
X148912247Y-41034825D01*
X148748484Y-41089092D01*
X148748481Y-41089093D01*
X148601648Y-41179661D01*
X148587325Y-41193984D01*
X148526001Y-41227468D01*
X148456309Y-41222482D01*
X148411965Y-41193982D01*
X148398038Y-41180055D01*
X148398034Y-41180052D01*
X148251311Y-41089551D01*
X148251300Y-41089546D01*
X148087652Y-41035319D01*
X147986654Y-41025000D01*
X147887500Y-41025000D01*
X147887500Y-42126000D01*
X147867815Y-42193039D01*
X147815011Y-42238794D01*
X147763500Y-42250000D01*
X146600001Y-42250000D01*
X146600001Y-42286654D01*
X146610319Y-42387652D01*
X146664546Y-42551300D01*
X146664548Y-42551305D01*
X146667576Y-42556213D01*
X146686016Y-42623606D01*
X146665093Y-42690269D01*
X146635057Y-42719982D01*
X146635695Y-42720801D01*
X146601200Y-42747647D01*
X147270590Y-43417037D01*
X147207007Y-43434075D01*
X147092993Y-43499901D01*
X146999901Y-43592993D01*
X146934075Y-43707007D01*
X146917037Y-43770591D01*
X146248811Y-43102365D01*
X146164516Y-43231390D01*
X146071317Y-43443864D01*
X146014361Y-43668781D01*
X145995202Y-43899994D01*
X145995202Y-43900005D01*
X146014361Y-44131218D01*
X146071317Y-44356135D01*
X146164515Y-44568606D01*
X146248812Y-44697633D01*
X146917037Y-44029408D01*
X146934075Y-44092993D01*
X146999901Y-44207007D01*
X147092993Y-44300099D01*
X147207007Y-44365925D01*
X147270590Y-44382962D01*
X146601201Y-45052351D01*
X146631649Y-45076050D01*
X146835697Y-45186476D01*
X146835706Y-45186479D01*
X147055139Y-45261811D01*
X147283993Y-45300000D01*
X147516007Y-45300000D01*
X147744860Y-45261811D01*
X147964293Y-45186479D01*
X147964301Y-45186476D01*
X148168355Y-45076047D01*
X148198797Y-45052351D01*
X148198798Y-45052350D01*
X147529410Y-44382962D01*
X147592993Y-44365925D01*
X147707007Y-44300099D01*
X147800099Y-44207007D01*
X147865925Y-44092993D01*
X147882962Y-44029409D01*
X148551186Y-44697633D01*
X148555967Y-44697137D01*
X148599036Y-44660380D01*
X148668268Y-44650956D01*
X148731604Y-44680457D01*
X148753509Y-44705737D01*
X148791016Y-44763147D01*
X148791019Y-44763151D01*
X148791021Y-44763153D01*
X148948216Y-44933913D01*
X148948219Y-44933915D01*
X148948222Y-44933918D01*
X149131365Y-45076464D01*
X149131371Y-45076468D01*
X149131374Y-45076470D01*
X149286880Y-45160626D01*
X149334652Y-45186479D01*
X149335497Y-45186936D01*
X149449487Y-45226068D01*
X149555015Y-45262297D01*
X149555017Y-45262297D01*
X149555019Y-45262298D01*
X149783951Y-45300500D01*
X149858481Y-45300500D01*
X149925520Y-45320185D01*
X149946162Y-45336819D01*
X150753453Y-46144111D01*
X150753454Y-46144112D01*
X150868192Y-46220777D01*
X150995667Y-46273578D01*
X150995672Y-46273580D01*
X150995676Y-46273580D01*
X150995677Y-46273581D01*
X151131003Y-46300500D01*
X151131006Y-46300500D01*
X155068996Y-46300500D01*
X155175964Y-46279222D01*
X155204328Y-46273580D01*
X155268069Y-46247177D01*
X155331807Y-46220777D01*
X155331808Y-46220776D01*
X155331811Y-46220775D01*
X155446543Y-46144114D01*
X159403838Y-42186819D01*
X159465161Y-42153334D01*
X159491519Y-42150500D01*
X165669651Y-42150500D01*
X165736690Y-42170185D01*
X165782445Y-42222989D01*
X165792389Y-42292147D01*
X165776826Y-42333417D01*
X165778263Y-42334195D01*
X165775824Y-42338700D01*
X165683322Y-42549585D01*
X165626793Y-42772815D01*
X165607778Y-43002294D01*
X165607778Y-43002305D01*
X165626793Y-43231784D01*
X165683322Y-43455014D01*
X165775822Y-43665894D01*
X165901768Y-43858670D01*
X165901771Y-43858673D01*
X166057732Y-44028092D01*
X166171179Y-44116391D01*
X166190340Y-44131305D01*
X166239451Y-44169529D01*
X166441971Y-44279128D01*
X166503058Y-44300099D01*
X166659765Y-44353897D01*
X166659767Y-44353897D01*
X166659769Y-44353898D01*
X166886903Y-44391800D01*
X166886904Y-44391800D01*
X167117176Y-44391800D01*
X167117177Y-44391800D01*
X167344311Y-44353898D01*
X167562109Y-44279128D01*
X167764629Y-44169529D01*
X167788845Y-44150681D01*
X167925368Y-44044422D01*
X167990362Y-44018779D01*
X168058902Y-44032346D01*
X168077692Y-44044422D01*
X168238422Y-44169523D01*
X168238428Y-44169527D01*
X168238431Y-44169529D01*
X168440951Y-44279128D01*
X168502038Y-44300099D01*
X168658745Y-44353897D01*
X168658747Y-44353897D01*
X168658749Y-44353898D01*
X168885883Y-44391800D01*
X168885884Y-44391800D01*
X169116156Y-44391800D01*
X169116157Y-44391800D01*
X169343291Y-44353898D01*
X169561089Y-44279128D01*
X169763609Y-44169529D01*
X169787825Y-44150681D01*
X169924348Y-44044422D01*
X169989342Y-44018779D01*
X170057882Y-44032346D01*
X170076672Y-44044422D01*
X170237402Y-44169523D01*
X170237408Y-44169527D01*
X170237411Y-44169529D01*
X170439931Y-44279128D01*
X170501018Y-44300099D01*
X170657725Y-44353897D01*
X170657727Y-44353897D01*
X170657729Y-44353898D01*
X170884863Y-44391800D01*
X170884864Y-44391800D01*
X171115136Y-44391800D01*
X171115137Y-44391800D01*
X171342271Y-44353898D01*
X171560069Y-44279128D01*
X171762589Y-44169529D01*
X171786805Y-44150681D01*
X171923328Y-44044422D01*
X171988322Y-44018779D01*
X172056862Y-44032346D01*
X172075652Y-44044422D01*
X172236382Y-44169523D01*
X172236388Y-44169527D01*
X172236391Y-44169529D01*
X172438911Y-44279128D01*
X172499998Y-44300099D01*
X172656705Y-44353897D01*
X172656707Y-44353897D01*
X172656709Y-44353898D01*
X172883843Y-44391800D01*
X172883844Y-44391800D01*
X173114116Y-44391800D01*
X173114117Y-44391800D01*
X173341251Y-44353898D01*
X173559049Y-44279128D01*
X173761569Y-44169529D01*
X173785785Y-44150681D01*
X173922308Y-44044422D01*
X173987302Y-44018779D01*
X174055842Y-44032346D01*
X174074632Y-44044422D01*
X174235362Y-44169523D01*
X174235368Y-44169527D01*
X174235371Y-44169529D01*
X174437891Y-44279128D01*
X174498978Y-44300099D01*
X174655685Y-44353897D01*
X174655687Y-44353897D01*
X174655689Y-44353898D01*
X174882823Y-44391800D01*
X174882824Y-44391800D01*
X175113096Y-44391800D01*
X175113097Y-44391800D01*
X175340231Y-44353898D01*
X175558029Y-44279128D01*
X175760549Y-44169529D01*
X175942268Y-44028092D01*
X176098229Y-43858673D01*
X176224177Y-43665895D01*
X176316677Y-43455016D01*
X176373206Y-43231788D01*
X176383930Y-43102365D01*
X176392222Y-43002305D01*
X176392222Y-43002294D01*
X176376733Y-42815378D01*
X176373206Y-42772812D01*
X176316677Y-42549584D01*
X176245647Y-42387652D01*
X176224175Y-42338700D01*
X176221737Y-42334195D01*
X176223750Y-42333105D01*
X176206352Y-42275393D01*
X176225554Y-42208213D01*
X176278027Y-42162079D01*
X176330349Y-42150500D01*
X189669651Y-42150500D01*
X189736690Y-42170185D01*
X189782445Y-42222989D01*
X189792389Y-42292147D01*
X189776826Y-42333417D01*
X189778263Y-42334195D01*
X189775824Y-42338700D01*
X189683322Y-42549585D01*
X189626793Y-42772815D01*
X189607778Y-43002294D01*
X189607778Y-43002305D01*
X189626793Y-43231784D01*
X189683322Y-43455014D01*
X189775822Y-43665894D01*
X189901768Y-43858670D01*
X189901771Y-43858673D01*
X190057732Y-44028092D01*
X190171179Y-44116391D01*
X190190340Y-44131305D01*
X190239451Y-44169529D01*
X190441971Y-44279128D01*
X190503058Y-44300099D01*
X190659765Y-44353897D01*
X190659767Y-44353897D01*
X190659769Y-44353898D01*
X190886903Y-44391800D01*
X190886904Y-44391800D01*
X191117176Y-44391800D01*
X191117177Y-44391800D01*
X191344311Y-44353898D01*
X191562109Y-44279128D01*
X191764629Y-44169529D01*
X191788845Y-44150681D01*
X191925368Y-44044422D01*
X191990362Y-44018779D01*
X192058902Y-44032346D01*
X192077692Y-44044422D01*
X192238422Y-44169523D01*
X192238428Y-44169527D01*
X192238431Y-44169529D01*
X192440951Y-44279128D01*
X192502038Y-44300099D01*
X192658745Y-44353897D01*
X192658747Y-44353897D01*
X192658749Y-44353898D01*
X192885883Y-44391800D01*
X192885884Y-44391800D01*
X193116156Y-44391800D01*
X193116157Y-44391800D01*
X193343291Y-44353898D01*
X193561089Y-44279128D01*
X193763609Y-44169529D01*
X193787825Y-44150681D01*
X193924348Y-44044422D01*
X193989342Y-44018779D01*
X194057882Y-44032346D01*
X194076672Y-44044422D01*
X194237402Y-44169523D01*
X194237408Y-44169527D01*
X194237411Y-44169529D01*
X194439931Y-44279128D01*
X194501018Y-44300099D01*
X194657725Y-44353897D01*
X194657727Y-44353897D01*
X194657729Y-44353898D01*
X194884863Y-44391800D01*
X194884864Y-44391800D01*
X195115136Y-44391800D01*
X195115137Y-44391800D01*
X195295316Y-44361733D01*
X195364678Y-44370115D01*
X195403404Y-44396361D01*
X198451153Y-47444111D01*
X198451154Y-47444112D01*
X198565890Y-47520776D01*
X198620003Y-47543190D01*
X198693371Y-47573580D01*
X198693372Y-47573580D01*
X198693377Y-47573582D01*
X198720245Y-47578925D01*
X198720251Y-47578926D01*
X198720291Y-47578934D01*
X198810637Y-47596905D01*
X198828706Y-47600500D01*
X198828707Y-47600500D01*
X203358481Y-47600500D01*
X203425520Y-47620185D01*
X203446162Y-47636819D01*
X206437214Y-50627871D01*
X206470699Y-50689194D01*
X206467465Y-50753866D01*
X206457754Y-50783754D01*
X206457753Y-50783759D01*
X206424500Y-50993713D01*
X206424500Y-51206286D01*
X206443062Y-51323486D01*
X206457754Y-51416243D01*
X206513666Y-51588323D01*
X206523444Y-51618414D01*
X206619951Y-51807820D01*
X206744890Y-51979786D01*
X206895209Y-52130105D01*
X206895214Y-52130109D01*
X207059793Y-52249682D01*
X207102459Y-52305011D01*
X207108438Y-52374625D01*
X207075833Y-52436420D01*
X207059793Y-52450318D01*
X206895214Y-52569890D01*
X206895209Y-52569894D01*
X206744890Y-52720213D01*
X206619951Y-52892179D01*
X206523444Y-53081585D01*
X206457753Y-53283760D01*
X206435297Y-53425543D01*
X206424500Y-53493713D01*
X206424500Y-53706287D01*
X206457754Y-53916243D01*
X206521604Y-54112753D01*
X206523444Y-54118414D01*
X206619951Y-54307820D01*
X206744890Y-54479786D01*
X206895209Y-54630105D01*
X206895214Y-54630109D01*
X207059793Y-54749682D01*
X207102459Y-54805011D01*
X207108438Y-54874625D01*
X207075833Y-54936420D01*
X207059793Y-54950318D01*
X206895214Y-55069890D01*
X206895209Y-55069894D01*
X206744890Y-55220213D01*
X206619951Y-55392179D01*
X206523444Y-55581585D01*
X206457753Y-55783760D01*
X206424500Y-55993713D01*
X206424500Y-56206286D01*
X206456711Y-56409661D01*
X206457754Y-56416243D01*
X206495353Y-56531961D01*
X206523444Y-56618414D01*
X206619951Y-56807820D01*
X206744890Y-56979786D01*
X206895209Y-57130105D01*
X206895214Y-57130109D01*
X207059793Y-57249682D01*
X207102459Y-57305011D01*
X207108438Y-57374625D01*
X207075833Y-57436420D01*
X207059793Y-57450318D01*
X206895214Y-57569890D01*
X206895209Y-57569894D01*
X206744890Y-57720213D01*
X206619951Y-57892179D01*
X206523444Y-58081585D01*
X206457753Y-58283760D01*
X206431184Y-58451513D01*
X206424500Y-58493713D01*
X206424500Y-58706287D01*
X206427332Y-58724165D01*
X206452522Y-58883214D01*
X206457754Y-58916243D01*
X206521801Y-59113360D01*
X206523444Y-59118414D01*
X206619951Y-59307820D01*
X206744890Y-59479786D01*
X206895209Y-59630105D01*
X206895214Y-59630109D01*
X207059793Y-59749682D01*
X207102459Y-59805011D01*
X207108438Y-59874625D01*
X207075833Y-59936420D01*
X207059793Y-59950318D01*
X206895214Y-60069890D01*
X206895209Y-60069894D01*
X206744890Y-60220213D01*
X206619951Y-60392179D01*
X206523444Y-60581585D01*
X206457753Y-60783760D01*
X206424500Y-60993713D01*
X206424500Y-61206286D01*
X206457292Y-61413330D01*
X206457754Y-61416243D01*
X206521604Y-61612753D01*
X206523444Y-61618414D01*
X206619951Y-61807820D01*
X206744890Y-61979786D01*
X206895209Y-62130105D01*
X206895214Y-62130109D01*
X207060218Y-62249991D01*
X207102884Y-62305320D01*
X207108863Y-62374934D01*
X207076258Y-62436729D01*
X207060218Y-62450627D01*
X206895540Y-62570272D01*
X206895535Y-62570276D01*
X206745276Y-62720535D01*
X206745272Y-62720540D01*
X206620379Y-62892442D01*
X206523904Y-63081782D01*
X206458242Y-63283870D01*
X206458242Y-63283873D01*
X206447769Y-63350000D01*
X207495854Y-63350000D01*
X207457370Y-63416657D01*
X207425000Y-63537465D01*
X207425000Y-63662535D01*
X207457370Y-63783343D01*
X207495854Y-63850000D01*
X206447769Y-63850000D01*
X206458242Y-63916126D01*
X206458242Y-63916129D01*
X206523904Y-64118217D01*
X206620379Y-64307557D01*
X206745272Y-64479459D01*
X206745276Y-64479464D01*
X206895535Y-64629723D01*
X206895540Y-64629727D01*
X207067442Y-64754620D01*
X207256782Y-64851095D01*
X207458872Y-64916757D01*
X207650000Y-64947029D01*
X207650000Y-64004145D01*
X207716657Y-64042630D01*
X207837465Y-64075000D01*
X207962535Y-64075000D01*
X208083343Y-64042630D01*
X208150000Y-64004145D01*
X208150000Y-64947028D01*
X208341127Y-64916757D01*
X208543217Y-64851095D01*
X208732557Y-64754620D01*
X208904459Y-64629727D01*
X208904464Y-64629723D01*
X209054723Y-64479464D01*
X209054727Y-64479459D01*
X209179620Y-64307557D01*
X209276095Y-64118217D01*
X209341757Y-63916129D01*
X209341757Y-63916126D01*
X209352231Y-63850000D01*
X208304146Y-63850000D01*
X208342630Y-63783343D01*
X208375000Y-63662535D01*
X208375000Y-63537465D01*
X208342630Y-63416657D01*
X208304146Y-63350000D01*
X209352231Y-63350000D01*
X209341757Y-63283873D01*
X209341757Y-63283870D01*
X209276095Y-63081782D01*
X209179620Y-62892442D01*
X209054727Y-62720540D01*
X209054723Y-62720535D01*
X208904464Y-62570276D01*
X208904459Y-62570272D01*
X208739781Y-62450627D01*
X208697115Y-62395297D01*
X208691136Y-62325684D01*
X208723741Y-62263889D01*
X208739776Y-62249994D01*
X208904792Y-62130104D01*
X209055104Y-61979792D01*
X209148229Y-61851614D01*
X209203558Y-61808949D01*
X209248547Y-61800500D01*
X209608381Y-61800500D01*
X209675420Y-61820185D01*
X209696062Y-61836819D01*
X213213081Y-65353838D01*
X213246566Y-65415161D01*
X213249400Y-65441519D01*
X213249400Y-66747870D01*
X213249401Y-66747876D01*
X213255808Y-66807483D01*
X213306102Y-66942328D01*
X213306106Y-66942335D01*
X213392352Y-67057544D01*
X213392355Y-67057547D01*
X213507564Y-67143793D01*
X213507571Y-67143797D01*
X213642417Y-67194091D01*
X213642416Y-67194091D01*
X213649344Y-67194835D01*
X213702027Y-67200500D01*
X215597772Y-67200499D01*
X215657383Y-67194091D01*
X215792231Y-67143796D01*
X215907446Y-67057546D01*
X215993696Y-66942331D01*
X215993698Y-66942326D01*
X216022355Y-66865493D01*
X216064226Y-66809559D01*
X216129690Y-66785141D01*
X216197963Y-66799992D01*
X216229766Y-66824843D01*
X216237202Y-66832920D01*
X216238115Y-66833912D01*
X216238122Y-66833918D01*
X216421265Y-66976464D01*
X216421271Y-66976468D01*
X216421274Y-66976470D01*
X216625397Y-67086936D01*
X216738962Y-67125923D01*
X216844915Y-67162297D01*
X216844917Y-67162297D01*
X216844919Y-67162298D01*
X217073851Y-67200500D01*
X217073852Y-67200500D01*
X217305948Y-67200500D01*
X217305949Y-67200500D01*
X217534881Y-67162298D01*
X217754403Y-67086936D01*
X217958526Y-66976470D01*
X218141684Y-66833913D01*
X218298879Y-66663153D01*
X218425609Y-66469177D01*
X218478756Y-66423822D01*
X218529418Y-66413000D01*
X220767848Y-66413000D01*
X220834887Y-66432685D01*
X220855529Y-66449319D01*
X220951550Y-66545340D01*
X221098384Y-66635908D01*
X221262147Y-66690174D01*
X221363223Y-66700500D01*
X221936576Y-66700499D01*
X221936584Y-66700498D01*
X221936587Y-66700498D01*
X221991930Y-66694844D01*
X222037653Y-66690174D01*
X222201416Y-66635908D01*
X222348250Y-66545340D01*
X222470240Y-66423350D01*
X222560808Y-66276516D01*
X222615074Y-66112753D01*
X222625400Y-66011677D01*
X222625399Y-65413324D01*
X222623032Y-65390157D01*
X222615074Y-65312247D01*
X222580478Y-65207845D01*
X222560808Y-65148484D01*
X222470240Y-65001650D01*
X222356271Y-64887681D01*
X222322786Y-64826358D01*
X222327770Y-64756666D01*
X222356271Y-64712319D01*
X222410926Y-64657664D01*
X222470240Y-64598350D01*
X222560808Y-64451516D01*
X222615074Y-64287753D01*
X222625400Y-64186677D01*
X222625399Y-63588324D01*
X222615074Y-63487247D01*
X222560808Y-63323484D01*
X222470240Y-63176650D01*
X222386719Y-63093129D01*
X222353234Y-63031806D01*
X222350400Y-63005448D01*
X222350400Y-62371032D01*
X222370085Y-62303993D01*
X222382251Y-62288059D01*
X222392643Y-62276518D01*
X222432533Y-62232216D01*
X222527179Y-62068284D01*
X222585674Y-61888256D01*
X222605460Y-61700000D01*
X222585674Y-61511744D01*
X222527179Y-61331716D01*
X222432533Y-61167784D01*
X222382250Y-61111939D01*
X222352020Y-61048947D01*
X222350400Y-61028967D01*
X222350400Y-60594552D01*
X222370085Y-60527513D01*
X222386719Y-60506871D01*
X222418823Y-60474767D01*
X222470240Y-60423350D01*
X222560808Y-60276516D01*
X222615074Y-60112753D01*
X222625400Y-60011677D01*
X222625399Y-59413324D01*
X222623627Y-59395980D01*
X222615074Y-59312247D01*
X222596535Y-59256300D01*
X222560808Y-59148484D01*
X222470240Y-59001650D01*
X222356271Y-58887681D01*
X222322786Y-58826358D01*
X222327770Y-58756666D01*
X222356271Y-58712319D01*
X222408231Y-58660359D01*
X222470240Y-58598350D01*
X222560808Y-58451516D01*
X222615074Y-58287753D01*
X222625400Y-58186677D01*
X222625399Y-57588324D01*
X222625231Y-57586684D01*
X222615074Y-57487247D01*
X222612673Y-57480000D01*
X222560808Y-57323484D01*
X222470240Y-57176650D01*
X222348250Y-57054660D01*
X222201416Y-56964092D01*
X222037653Y-56909826D01*
X222037651Y-56909825D01*
X221936578Y-56899500D01*
X221363230Y-56899500D01*
X221363212Y-56899501D01*
X221262147Y-56909825D01*
X221098384Y-56964092D01*
X221098381Y-56964093D01*
X220951548Y-57054661D01*
X220855529Y-57150681D01*
X220794206Y-57184166D01*
X220767848Y-57187000D01*
X218033404Y-57187000D01*
X217898077Y-57213918D01*
X217898067Y-57213921D01*
X217770591Y-57266723D01*
X217655858Y-57343385D01*
X217602860Y-57396382D01*
X217541536Y-57429866D01*
X217494771Y-57431008D01*
X217305949Y-57399500D01*
X217073851Y-57399500D01*
X217035450Y-57405908D01*
X216844915Y-57437702D01*
X216625404Y-57513061D01*
X216625395Y-57513064D01*
X216421271Y-57623531D01*
X216421265Y-57623535D01*
X216238122Y-57766081D01*
X216238118Y-57766085D01*
X216229766Y-57775158D01*
X216169879Y-57811148D01*
X216100041Y-57809047D01*
X216042425Y-57769522D01*
X216022355Y-57734507D01*
X215993697Y-57657671D01*
X215993693Y-57657664D01*
X215907447Y-57542455D01*
X215907444Y-57542452D01*
X215792235Y-57456206D01*
X215792228Y-57456202D01*
X215657382Y-57405908D01*
X215657383Y-57405908D01*
X215597783Y-57399501D01*
X215597781Y-57399500D01*
X215597773Y-57399500D01*
X215597764Y-57399500D01*
X213702029Y-57399500D01*
X213702023Y-57399501D01*
X213642416Y-57405908D01*
X213507571Y-57456202D01*
X213507564Y-57456206D01*
X213392355Y-57542452D01*
X213392352Y-57542455D01*
X213306106Y-57657664D01*
X213306102Y-57657671D01*
X213255808Y-57792517D01*
X213249401Y-57852116D01*
X213249400Y-57852135D01*
X213249400Y-57975500D01*
X213229715Y-58042539D01*
X213176911Y-58088294D01*
X213125400Y-58099500D01*
X209361671Y-58099500D01*
X209294632Y-58079815D01*
X209251186Y-58031795D01*
X209180051Y-57892184D01*
X209180049Y-57892181D01*
X209180048Y-57892179D01*
X209055109Y-57720213D01*
X208904792Y-57569896D01*
X208904784Y-57569890D01*
X208740204Y-57450316D01*
X208697540Y-57394989D01*
X208691561Y-57325376D01*
X208724166Y-57263580D01*
X208740199Y-57249686D01*
X208904792Y-57130104D01*
X209055104Y-56979792D01*
X209148229Y-56851614D01*
X209203558Y-56808949D01*
X209248547Y-56800500D01*
X210418896Y-56800500D01*
X210532535Y-56777895D01*
X210554228Y-56773580D01*
X210631913Y-56741402D01*
X210681707Y-56720777D01*
X210681708Y-56720776D01*
X210681711Y-56720775D01*
X210796443Y-56644114D01*
X214203737Y-53236817D01*
X214265060Y-53203333D01*
X214291418Y-53200499D01*
X215597771Y-53200499D01*
X215597772Y-53200499D01*
X215657383Y-53194091D01*
X215792231Y-53143796D01*
X215907446Y-53057546D01*
X215993696Y-52942331D01*
X216012400Y-52892184D01*
X216022355Y-52865493D01*
X216064226Y-52809559D01*
X216129690Y-52785141D01*
X216197963Y-52799992D01*
X216229766Y-52824843D01*
X216237202Y-52832920D01*
X216238115Y-52833912D01*
X216238122Y-52833918D01*
X216421265Y-52976464D01*
X216421271Y-52976468D01*
X216421274Y-52976470D01*
X216625397Y-53086936D01*
X216739387Y-53126068D01*
X216844915Y-53162297D01*
X216844917Y-53162297D01*
X216844919Y-53162298D01*
X217073851Y-53200500D01*
X217073852Y-53200500D01*
X217305948Y-53200500D01*
X217305949Y-53200500D01*
X217494774Y-53168990D01*
X217564135Y-53177372D01*
X217602861Y-53203618D01*
X218558286Y-54159042D01*
X218655858Y-54256614D01*
X218655859Y-54256615D01*
X218770582Y-54333271D01*
X218770589Y-54333275D01*
X218829605Y-54357720D01*
X218898071Y-54386080D01*
X218898075Y-54386080D01*
X218898076Y-54386081D01*
X218898079Y-54386082D01*
X218924945Y-54391425D01*
X218924951Y-54391426D01*
X218924991Y-54391434D01*
X219015337Y-54409405D01*
X219033406Y-54413000D01*
X219033407Y-54413000D01*
X220767848Y-54413000D01*
X220834887Y-54432685D01*
X220855529Y-54449319D01*
X220951550Y-54545340D01*
X221098384Y-54635908D01*
X221262147Y-54690174D01*
X221363223Y-54700500D01*
X221936576Y-54700499D01*
X221936584Y-54700498D01*
X221936587Y-54700498D01*
X221991930Y-54694844D01*
X222037653Y-54690174D01*
X222201416Y-54635908D01*
X222348250Y-54545340D01*
X222470240Y-54423350D01*
X222560808Y-54276516D01*
X222615074Y-54112753D01*
X222625400Y-54011677D01*
X222625399Y-53413324D01*
X222620814Y-53368443D01*
X222615074Y-53312247D01*
X222605633Y-53283757D01*
X222560808Y-53148484D01*
X222470240Y-53001650D01*
X222356271Y-52887681D01*
X222322786Y-52826358D01*
X222327770Y-52756666D01*
X222356271Y-52712319D01*
X222405437Y-52663153D01*
X222470240Y-52598350D01*
X222560808Y-52451516D01*
X222615074Y-52287753D01*
X222625400Y-52186677D01*
X222625399Y-51588324D01*
X222623424Y-51568993D01*
X222615074Y-51487247D01*
X222591544Y-51416239D01*
X222560808Y-51323484D01*
X222470240Y-51176650D01*
X222386719Y-51093129D01*
X222353234Y-51031806D01*
X222350400Y-51005448D01*
X222350400Y-49934494D01*
X222367013Y-49872494D01*
X222380000Y-49850000D01*
X222427179Y-49768284D01*
X222485674Y-49588256D01*
X222505460Y-49400000D01*
X222485674Y-49211744D01*
X222427179Y-49031716D01*
X222367557Y-48928447D01*
X222367013Y-48927504D01*
X222350400Y-48865504D01*
X222350400Y-47594552D01*
X222370085Y-47527513D01*
X222386719Y-47506871D01*
X222470240Y-47423350D01*
X222560808Y-47276516D01*
X222615074Y-47112753D01*
X222625400Y-47011677D01*
X222625399Y-46413324D01*
X222615074Y-46312247D01*
X222560808Y-46148484D01*
X222470240Y-46001650D01*
X222356271Y-45887681D01*
X222322786Y-45826358D01*
X222327770Y-45756666D01*
X222356271Y-45712319D01*
X222405445Y-45663145D01*
X222470240Y-45598350D01*
X222560808Y-45451516D01*
X222615074Y-45287753D01*
X222625400Y-45186677D01*
X222625399Y-44588324D01*
X222624933Y-44583765D01*
X222615074Y-44487247D01*
X222615073Y-44487243D01*
X222584957Y-44396361D01*
X222560808Y-44323484D01*
X222470240Y-44176650D01*
X222348250Y-44054660D01*
X222232985Y-43983564D01*
X222201418Y-43964093D01*
X222201413Y-43964091D01*
X222182540Y-43957837D01*
X222037653Y-43909826D01*
X222037651Y-43909825D01*
X221936578Y-43899500D01*
X221363230Y-43899500D01*
X221363212Y-43899501D01*
X221262147Y-43909825D01*
X221098384Y-43964092D01*
X221098381Y-43964093D01*
X220951548Y-44054661D01*
X220855529Y-44150681D01*
X220794206Y-44184166D01*
X220767848Y-44187000D01*
X218529418Y-44187000D01*
X218462379Y-44167315D01*
X218425609Y-44130822D01*
X218298881Y-43936850D01*
X218298880Y-43936849D01*
X218298879Y-43936847D01*
X218141684Y-43766087D01*
X218141679Y-43766083D01*
X218141677Y-43766081D01*
X217958534Y-43623535D01*
X217958528Y-43623531D01*
X217754404Y-43513064D01*
X217754395Y-43513061D01*
X217534884Y-43437702D01*
X217344350Y-43405908D01*
X217305949Y-43399500D01*
X217073851Y-43399500D01*
X217035450Y-43405908D01*
X216844915Y-43437702D01*
X216625404Y-43513061D01*
X216625395Y-43513064D01*
X216421271Y-43623531D01*
X216421265Y-43623535D01*
X216238122Y-43766081D01*
X216238118Y-43766085D01*
X216229766Y-43775158D01*
X216169879Y-43811148D01*
X216100041Y-43809047D01*
X216042425Y-43769522D01*
X216022355Y-43734507D01*
X215993697Y-43657671D01*
X215993693Y-43657664D01*
X215907447Y-43542455D01*
X215907444Y-43542452D01*
X215792235Y-43456206D01*
X215792228Y-43456202D01*
X215657382Y-43405908D01*
X215657383Y-43405908D01*
X215597783Y-43399501D01*
X215597781Y-43399500D01*
X215597773Y-43399500D01*
X215597764Y-43399500D01*
X213702029Y-43399500D01*
X213702023Y-43399501D01*
X213642416Y-43405908D01*
X213507571Y-43456202D01*
X213507564Y-43456206D01*
X213392355Y-43542452D01*
X213392352Y-43542455D01*
X213306106Y-43657664D01*
X213306102Y-43657671D01*
X213255808Y-43792517D01*
X213249401Y-43852116D01*
X213249400Y-43852135D01*
X213249400Y-43975500D01*
X213229715Y-44042539D01*
X213176911Y-44088294D01*
X213125400Y-44099500D01*
X212131004Y-44099500D01*
X211995677Y-44126418D01*
X211995667Y-44126421D01*
X211868192Y-44179222D01*
X211753454Y-44255887D01*
X211753453Y-44255888D01*
X209587180Y-46422162D01*
X209525857Y-46455647D01*
X209456165Y-46450663D01*
X209400232Y-46408791D01*
X209375815Y-46343327D01*
X209375499Y-46334481D01*
X209375499Y-45449998D01*
X209375498Y-45449983D01*
X209370298Y-45399080D01*
X209383067Y-45330387D01*
X209430948Y-45279503D01*
X209498738Y-45262582D01*
X209541109Y-45271917D01*
X209651918Y-45317816D01*
X209799658Y-45347203D01*
X209816228Y-45350499D01*
X209816232Y-45350500D01*
X209816233Y-45350500D01*
X209983768Y-45350500D01*
X209983769Y-45350499D01*
X210148082Y-45317816D01*
X210302863Y-45253703D01*
X210442162Y-45160626D01*
X210560626Y-45042162D01*
X210653703Y-44902863D01*
X210717816Y-44748082D01*
X210750500Y-44583767D01*
X210750500Y-44416233D01*
X210717816Y-44251918D01*
X210653703Y-44097137D01*
X210607569Y-44028093D01*
X210560626Y-43957837D01*
X210442162Y-43839373D01*
X210302860Y-43746295D01*
X210148082Y-43682184D01*
X210148074Y-43682182D01*
X209983771Y-43649500D01*
X209983767Y-43649500D01*
X209816233Y-43649500D01*
X209816228Y-43649500D01*
X209651925Y-43682182D01*
X209651917Y-43682184D01*
X209497139Y-43746295D01*
X209357837Y-43839373D01*
X209239373Y-43957837D01*
X209146295Y-44097139D01*
X209082184Y-44251917D01*
X209082182Y-44251925D01*
X209049500Y-44416228D01*
X209049500Y-44416232D01*
X209049500Y-44416233D01*
X209049500Y-44583767D01*
X209055057Y-44611706D01*
X209064650Y-44659934D01*
X209058421Y-44729526D01*
X209015558Y-44784702D01*
X208949668Y-44807946D01*
X208904028Y-44801830D01*
X208777797Y-44760001D01*
X208777795Y-44760000D01*
X208777794Y-44760000D01*
X208711897Y-44753268D01*
X208647205Y-44726871D01*
X208607054Y-44669690D01*
X208601669Y-44637010D01*
X208601097Y-44637067D01*
X208600500Y-44631012D01*
X208600500Y-44631007D01*
X208592010Y-44588324D01*
X208573582Y-44495679D01*
X208573579Y-44495670D01*
X208570105Y-44487282D01*
X208570088Y-44487243D01*
X208520778Y-44368196D01*
X208520777Y-44368195D01*
X208520775Y-44368189D01*
X208444114Y-44253457D01*
X208444112Y-44253454D01*
X208444111Y-44253453D01*
X204902838Y-40712181D01*
X204869353Y-40650858D01*
X204874337Y-40581166D01*
X204916209Y-40525233D01*
X204981673Y-40500816D01*
X204990519Y-40500500D01*
X224375500Y-40500500D01*
X224442539Y-40520185D01*
X224488294Y-40572989D01*
X224499500Y-40624500D01*
X224499500Y-70375500D01*
X224479815Y-70442539D01*
X224427011Y-70488294D01*
X224375500Y-70499500D01*
X200792722Y-70499500D01*
X200725683Y-70479815D01*
X200679928Y-70427011D01*
X200669984Y-70357853D01*
X200699009Y-70294297D01*
X200757787Y-70256523D01*
X200766066Y-70254399D01*
X201084142Y-70184384D01*
X201423255Y-70070123D01*
X201423260Y-70070122D01*
X201748009Y-69919876D01*
X202054629Y-69735390D01*
X202054632Y-69735388D01*
X202339509Y-69518831D01*
X202352742Y-69506295D01*
X202352742Y-69506294D01*
X201140699Y-68294251D01*
X201242330Y-68220412D01*
X201420412Y-68042330D01*
X201494251Y-67940698D01*
X202703556Y-69150002D01*
X202830972Y-68999998D01*
X202830975Y-68999994D01*
X203031781Y-68703827D01*
X203199393Y-68387677D01*
X203199402Y-68387659D01*
X203331850Y-68055239D01*
X203331852Y-68055232D01*
X203427578Y-67710457D01*
X203427584Y-67710431D01*
X203485472Y-67357331D01*
X203485473Y-67357314D01*
X203504847Y-67000002D01*
X203504847Y-66999997D01*
X203485473Y-66642685D01*
X203485472Y-66642668D01*
X203427584Y-66289568D01*
X203427578Y-66289542D01*
X203331852Y-65944767D01*
X203331850Y-65944760D01*
X203199402Y-65612340D01*
X203199393Y-65612322D01*
X203031781Y-65296172D01*
X202830975Y-65000005D01*
X202830964Y-64999991D01*
X202703556Y-64849996D01*
X201494251Y-66059301D01*
X201420412Y-65957670D01*
X201242330Y-65779588D01*
X201140698Y-65705748D01*
X202352742Y-64493704D01*
X202339504Y-64481163D01*
X202054632Y-64264611D01*
X202054629Y-64264609D01*
X201748009Y-64080123D01*
X201423260Y-63929877D01*
X201423255Y-63929876D01*
X201084144Y-63815616D01*
X200734660Y-63738688D01*
X200378924Y-63700000D01*
X200021075Y-63700000D01*
X199665339Y-63738688D01*
X199315855Y-63815616D01*
X199058182Y-63902436D01*
X198988367Y-63905188D01*
X198928147Y-63869757D01*
X198896641Y-63807394D01*
X198903854Y-63737898D01*
X198930903Y-63697252D01*
X202216338Y-60411817D01*
X202277661Y-60378333D01*
X202304019Y-60375499D01*
X202586670Y-60375499D01*
X202586676Y-60375499D01*
X202687753Y-60365174D01*
X202851516Y-60310908D01*
X202998350Y-60220340D01*
X203012671Y-60206018D01*
X203073989Y-60172533D01*
X203143681Y-60177514D01*
X203188034Y-60206017D01*
X203201961Y-60219944D01*
X203201965Y-60219947D01*
X203348688Y-60310448D01*
X203348699Y-60310453D01*
X203512347Y-60364680D01*
X203613351Y-60374999D01*
X203712500Y-60374998D01*
X203712500Y-59650000D01*
X204212500Y-59650000D01*
X204212500Y-60374999D01*
X204311640Y-60374999D01*
X204311654Y-60374998D01*
X204412652Y-60364680D01*
X204576300Y-60310453D01*
X204576311Y-60310448D01*
X204723034Y-60219947D01*
X204723038Y-60219944D01*
X204844944Y-60098038D01*
X204844947Y-60098034D01*
X204935448Y-59951311D01*
X204935453Y-59951300D01*
X204989680Y-59787652D01*
X204999999Y-59686654D01*
X205000000Y-59686641D01*
X205000000Y-59650000D01*
X204212500Y-59650000D01*
X203712500Y-59650000D01*
X203712500Y-58425000D01*
X204212500Y-58425000D01*
X204212500Y-59150000D01*
X204999999Y-59150000D01*
X204999999Y-59113360D01*
X204999998Y-59113345D01*
X204989680Y-59012347D01*
X204935453Y-58848699D01*
X204935448Y-58848688D01*
X204844947Y-58701965D01*
X204844944Y-58701961D01*
X204723038Y-58580055D01*
X204723034Y-58580052D01*
X204576311Y-58489551D01*
X204576300Y-58489546D01*
X204412652Y-58435319D01*
X204311654Y-58425000D01*
X204212500Y-58425000D01*
X203712500Y-58425000D01*
X203712500Y-58424999D01*
X203613360Y-58425000D01*
X203613344Y-58425001D01*
X203512347Y-58435319D01*
X203348699Y-58489546D01*
X203348688Y-58489551D01*
X203201965Y-58580052D01*
X203188032Y-58593985D01*
X203126708Y-58627468D01*
X203057016Y-58622482D01*
X203012672Y-58593982D01*
X202998351Y-58579661D01*
X202998350Y-58579660D01*
X202863194Y-58496295D01*
X202816472Y-58444349D01*
X202805249Y-58375386D01*
X202833093Y-58311304D01*
X202840594Y-58303095D01*
X202845340Y-58298350D01*
X202935908Y-58151516D01*
X202990174Y-57987753D01*
X203000500Y-57886677D01*
X203000499Y-57313324D01*
X202999959Y-57308042D01*
X202990174Y-57212247D01*
X202978378Y-57176650D01*
X202935908Y-57048484D01*
X202845340Y-56901650D01*
X202723350Y-56779660D01*
X202576516Y-56689092D01*
X202412753Y-56634826D01*
X202412751Y-56634825D01*
X202311678Y-56624500D01*
X201713330Y-56624500D01*
X201713312Y-56624501D01*
X201612247Y-56634825D01*
X201448484Y-56689092D01*
X201448481Y-56689093D01*
X201301648Y-56779661D01*
X201187681Y-56893629D01*
X201126358Y-56927114D01*
X201056666Y-56922130D01*
X201012319Y-56893629D01*
X200898351Y-56779661D01*
X200898350Y-56779660D01*
X200751516Y-56689092D01*
X200587753Y-56634826D01*
X200587751Y-56634825D01*
X200486678Y-56624500D01*
X199888330Y-56624500D01*
X199888312Y-56624501D01*
X199787247Y-56634825D01*
X199623484Y-56689092D01*
X199623481Y-56689093D01*
X199476648Y-56779661D01*
X199393129Y-56863181D01*
X199331806Y-56896666D01*
X199305448Y-56899500D01*
X198846203Y-56899500D01*
X198779164Y-56879815D01*
X198738757Y-56833183D01*
X198736985Y-56834143D01*
X198734549Y-56829642D01*
X198734544Y-56829634D01*
X198734543Y-56829632D01*
X198607674Y-56635445D01*
X198450573Y-56464787D01*
X198398150Y-56423985D01*
X198267533Y-56322321D01*
X198267527Y-56322317D01*
X198063525Y-56211916D01*
X198063516Y-56211913D01*
X197844137Y-56136599D01*
X197672537Y-56107964D01*
X197615339Y-56098420D01*
X197383381Y-56098420D01*
X197337622Y-56106055D01*
X197154582Y-56136599D01*
X196935203Y-56211913D01*
X196935194Y-56211916D01*
X196731192Y-56322317D01*
X196731186Y-56322321D01*
X196548154Y-56464781D01*
X196548144Y-56464790D01*
X196534092Y-56480055D01*
X196391046Y-56635445D01*
X196391044Y-56635447D01*
X196391042Y-56635450D01*
X196353188Y-56693389D01*
X196300041Y-56738745D01*
X196230809Y-56748168D01*
X196167474Y-56718665D01*
X196152374Y-56701238D01*
X196150579Y-56701052D01*
X195523713Y-57327918D01*
X195512434Y-57285823D01*
X195440037Y-57160427D01*
X195337653Y-57058043D01*
X195212257Y-56985646D01*
X195170160Y-56974366D01*
X195798198Y-56346326D01*
X195798198Y-56346325D01*
X195767892Y-56322737D01*
X195563963Y-56212375D01*
X195563958Y-56212373D01*
X195344653Y-56137086D01*
X195115937Y-56098920D01*
X194884063Y-56098920D01*
X194655346Y-56137086D01*
X194436041Y-56212373D01*
X194436036Y-56212375D01*
X194232111Y-56322735D01*
X194201800Y-56346326D01*
X194829839Y-56974365D01*
X194787743Y-56985646D01*
X194662347Y-57058043D01*
X194559963Y-57160427D01*
X194487566Y-57285823D01*
X194476286Y-57327919D01*
X193849419Y-56701052D01*
X193844895Y-56701521D01*
X193801279Y-56738744D01*
X193732047Y-56748167D01*
X193668712Y-56718664D01*
X193646809Y-56693386D01*
X193608958Y-56635450D01*
X193608955Y-56635447D01*
X193608954Y-56635445D01*
X193451853Y-56464787D01*
X193399430Y-56423985D01*
X193268813Y-56322321D01*
X193268807Y-56322317D01*
X193064805Y-56211916D01*
X193064796Y-56211913D01*
X192845417Y-56136599D01*
X192673817Y-56107964D01*
X192616619Y-56098420D01*
X192384661Y-56098420D01*
X192338902Y-56106055D01*
X192155862Y-56136599D01*
X191936483Y-56211913D01*
X191936474Y-56211916D01*
X191732472Y-56322317D01*
X191732466Y-56322321D01*
X191549434Y-56464781D01*
X191549424Y-56464790D01*
X191392323Y-56635448D01*
X191357276Y-56689093D01*
X191324838Y-56738744D01*
X191323101Y-56741402D01*
X191269954Y-56786758D01*
X191219292Y-56797580D01*
X190945424Y-56797580D01*
X190810097Y-56824498D01*
X190810087Y-56824501D01*
X190682612Y-56877302D01*
X190567874Y-56953967D01*
X189233660Y-58288181D01*
X189172337Y-58321666D01*
X189145980Y-58324500D01*
X188913331Y-58324500D01*
X188913312Y-58324501D01*
X188812247Y-58334825D01*
X188648484Y-58389092D01*
X188648481Y-58389093D01*
X188501648Y-58479661D01*
X188387681Y-58593629D01*
X188326358Y-58627114D01*
X188256666Y-58622130D01*
X188212319Y-58593629D01*
X188124319Y-58505629D01*
X188090834Y-58444306D01*
X188088000Y-58417948D01*
X188088000Y-58273030D01*
X188107685Y-58205991D01*
X188146904Y-58167491D01*
X188223350Y-58120340D01*
X188345340Y-57998350D01*
X188435908Y-57851516D01*
X188490174Y-57687753D01*
X188500500Y-57586677D01*
X188500499Y-57013324D01*
X188494435Y-56953965D01*
X188490174Y-56912247D01*
X188485950Y-56899500D01*
X188435908Y-56748484D01*
X188345340Y-56601650D01*
X188223350Y-56479660D01*
X188120528Y-56416239D01*
X188076518Y-56389093D01*
X188076513Y-56389091D01*
X188075069Y-56388612D01*
X187912753Y-56334826D01*
X187912751Y-56334825D01*
X187811678Y-56324500D01*
X187113330Y-56324500D01*
X187113312Y-56324501D01*
X187012247Y-56334825D01*
X186848484Y-56389092D01*
X186848481Y-56389093D01*
X186701648Y-56479661D01*
X186687325Y-56493984D01*
X186626001Y-56527468D01*
X186556309Y-56522482D01*
X186511965Y-56493982D01*
X186498038Y-56480055D01*
X186498034Y-56480052D01*
X186351311Y-56389551D01*
X186351300Y-56389546D01*
X186187652Y-56335319D01*
X186086654Y-56325000D01*
X185987500Y-56325000D01*
X185987500Y-57426000D01*
X185967815Y-57493039D01*
X185915011Y-57538794D01*
X185863500Y-57550000D01*
X184700001Y-57550000D01*
X184686820Y-57563181D01*
X184625497Y-57596666D01*
X184599139Y-57599500D01*
X181886500Y-57599500D01*
X181819461Y-57579815D01*
X181773706Y-57527011D01*
X181763751Y-57481251D01*
X181762500Y-57480000D01*
X180599000Y-57480000D01*
X180531961Y-57460315D01*
X180486206Y-57407511D01*
X180475000Y-57356000D01*
X180475000Y-57050000D01*
X184700000Y-57050000D01*
X185487500Y-57050000D01*
X185487500Y-56324999D01*
X185388360Y-56325000D01*
X185388344Y-56325001D01*
X185287347Y-56335319D01*
X185123699Y-56389546D01*
X185123688Y-56389551D01*
X184976965Y-56480052D01*
X184976961Y-56480055D01*
X184855055Y-56601961D01*
X184855052Y-56601965D01*
X184764551Y-56748688D01*
X184764546Y-56748699D01*
X184710319Y-56912347D01*
X184700000Y-57013345D01*
X184700000Y-57050000D01*
X180475000Y-57050000D01*
X180475000Y-56255000D01*
X180975000Y-56255000D01*
X180975000Y-56980000D01*
X181762499Y-56980000D01*
X181762499Y-56943360D01*
X181762498Y-56943345D01*
X181752180Y-56842347D01*
X181697953Y-56678699D01*
X181697948Y-56678688D01*
X181607447Y-56531965D01*
X181607444Y-56531961D01*
X181485538Y-56410055D01*
X181485534Y-56410052D01*
X181338811Y-56319551D01*
X181338800Y-56319546D01*
X181175152Y-56265319D01*
X181074154Y-56255000D01*
X180975000Y-56255000D01*
X180475000Y-56255000D01*
X180475000Y-56254999D01*
X180375860Y-56255000D01*
X180375844Y-56255001D01*
X180274847Y-56265319D01*
X180111199Y-56319546D01*
X180111188Y-56319551D01*
X179964465Y-56410052D01*
X179950532Y-56423985D01*
X179889208Y-56457468D01*
X179819516Y-56452482D01*
X179775172Y-56423982D01*
X179760851Y-56409661D01*
X179760850Y-56409660D01*
X179623596Y-56325001D01*
X179614018Y-56319093D01*
X179614013Y-56319091D01*
X179612569Y-56318612D01*
X179450253Y-56264826D01*
X179450251Y-56264825D01*
X179349178Y-56254500D01*
X178650830Y-56254500D01*
X178650812Y-56254501D01*
X178549747Y-56264825D01*
X178385984Y-56319092D01*
X178385981Y-56319093D01*
X178239148Y-56409661D01*
X178117161Y-56531648D01*
X178026593Y-56678481D01*
X178026591Y-56678486D01*
X177972326Y-56842247D01*
X177962000Y-56943315D01*
X177962000Y-57516669D01*
X177962001Y-57516687D01*
X177972325Y-57617752D01*
X177992696Y-57679225D01*
X178021479Y-57766087D01*
X178026592Y-57781515D01*
X178026593Y-57781518D01*
X178033377Y-57792517D01*
X178083161Y-57873229D01*
X178101601Y-57940621D01*
X178080678Y-58007284D01*
X178065305Y-58026004D01*
X178042683Y-58048627D01*
X177981361Y-58082114D01*
X177911669Y-58077131D01*
X177867319Y-58048629D01*
X177753351Y-57934661D01*
X177753350Y-57934660D01*
X177619556Y-57852135D01*
X177606518Y-57844093D01*
X177606513Y-57844091D01*
X177581290Y-57835733D01*
X177442753Y-57789826D01*
X177442751Y-57789825D01*
X177341684Y-57779500D01*
X177341677Y-57779500D01*
X177109018Y-57779500D01*
X177041979Y-57759815D01*
X177021337Y-57743181D01*
X176232126Y-56953968D01*
X176232125Y-56953967D01*
X176117387Y-56877302D01*
X175989912Y-56824501D01*
X175989902Y-56824498D01*
X175854576Y-56797580D01*
X175854574Y-56797580D01*
X175854573Y-56797580D01*
X174780708Y-56797580D01*
X174713669Y-56777895D01*
X174676899Y-56741402D01*
X174675162Y-56738744D01*
X174607674Y-56635445D01*
X174450573Y-56464787D01*
X174398150Y-56423985D01*
X174267533Y-56322321D01*
X174267527Y-56322317D01*
X174063525Y-56211916D01*
X174063516Y-56211913D01*
X173844137Y-56136599D01*
X173672537Y-56107964D01*
X173615339Y-56098420D01*
X173383381Y-56098420D01*
X173337622Y-56106055D01*
X173154582Y-56136599D01*
X172935203Y-56211913D01*
X172935194Y-56211916D01*
X172731192Y-56322317D01*
X172731186Y-56322321D01*
X172548154Y-56464781D01*
X172548144Y-56464790D01*
X172534092Y-56480055D01*
X172391046Y-56635445D01*
X172391044Y-56635447D01*
X172391042Y-56635450D01*
X172353188Y-56693389D01*
X172300041Y-56738745D01*
X172230809Y-56748168D01*
X172167474Y-56718665D01*
X172152374Y-56701238D01*
X172150579Y-56701052D01*
X171523713Y-57327918D01*
X171512434Y-57285823D01*
X171440037Y-57160427D01*
X171337653Y-57058043D01*
X171212257Y-56985646D01*
X171170160Y-56974366D01*
X171798198Y-56346326D01*
X171798198Y-56346325D01*
X171767892Y-56322737D01*
X171563963Y-56212375D01*
X171563958Y-56212373D01*
X171344653Y-56137086D01*
X171115937Y-56098920D01*
X170884063Y-56098920D01*
X170655346Y-56137086D01*
X170436041Y-56212373D01*
X170436036Y-56212375D01*
X170232111Y-56322735D01*
X170201800Y-56346326D01*
X170829839Y-56974365D01*
X170787743Y-56985646D01*
X170662347Y-57058043D01*
X170559963Y-57160427D01*
X170487566Y-57285823D01*
X170476286Y-57327919D01*
X169849419Y-56701052D01*
X169844895Y-56701521D01*
X169801279Y-56738744D01*
X169732047Y-56748167D01*
X169668712Y-56718664D01*
X169646809Y-56693386D01*
X169608958Y-56635450D01*
X169608955Y-56635447D01*
X169608954Y-56635445D01*
X169451853Y-56464787D01*
X169399430Y-56423985D01*
X169268813Y-56322321D01*
X169268807Y-56322317D01*
X169064805Y-56211916D01*
X169064796Y-56211913D01*
X168845417Y-56136599D01*
X168673817Y-56107964D01*
X168616619Y-56098420D01*
X168384661Y-56098420D01*
X168338902Y-56106055D01*
X168155862Y-56136599D01*
X167936483Y-56211913D01*
X167936474Y-56211916D01*
X167732472Y-56322317D01*
X167732466Y-56322321D01*
X167549434Y-56464781D01*
X167549424Y-56464790D01*
X167392323Y-56635448D01*
X167357276Y-56689093D01*
X167324838Y-56738744D01*
X167323101Y-56741402D01*
X167269954Y-56786758D01*
X167219292Y-56797580D01*
X167132923Y-56797580D01*
X167024510Y-56819145D01*
X167024509Y-56819145D01*
X167009163Y-56822198D01*
X166997589Y-56824500D01*
X166954746Y-56842247D01*
X166870111Y-56877303D01*
X166771307Y-56943323D01*
X166771305Y-56943324D01*
X166755378Y-56953965D01*
X166755373Y-56953969D01*
X165533288Y-58176053D01*
X165533287Y-58176054D01*
X165456622Y-58290792D01*
X165403821Y-58418267D01*
X165403818Y-58418279D01*
X165381323Y-58531371D01*
X165381323Y-58531375D01*
X165376899Y-58553611D01*
X165376303Y-58559666D01*
X165374888Y-58559526D01*
X165357215Y-58619717D01*
X165340585Y-58640354D01*
X165289542Y-58691398D01*
X165252581Y-58728359D01*
X165191257Y-58761843D01*
X165121566Y-58756859D01*
X165077219Y-58728358D01*
X164969219Y-58620358D01*
X164935734Y-58559035D01*
X164932900Y-58532677D01*
X164932900Y-58521501D01*
X164952585Y-58454462D01*
X164987829Y-58419862D01*
X164987583Y-58419551D01*
X164990482Y-58417258D01*
X164991801Y-58415963D01*
X164993250Y-58415070D01*
X165115240Y-58293080D01*
X165205808Y-58146246D01*
X165260074Y-57982483D01*
X165270400Y-57881407D01*
X165270399Y-57308054D01*
X165260074Y-57206977D01*
X165205808Y-57043214D01*
X165115240Y-56896380D01*
X164993250Y-56774390D01*
X164854960Y-56689092D01*
X164846418Y-56683823D01*
X164846413Y-56683821D01*
X164830298Y-56678481D01*
X164682653Y-56629556D01*
X164682651Y-56629555D01*
X164581578Y-56619230D01*
X163883230Y-56619230D01*
X163883212Y-56619231D01*
X163782147Y-56629555D01*
X163618384Y-56683822D01*
X163618381Y-56683823D01*
X163471548Y-56774391D01*
X163457225Y-56788714D01*
X163395901Y-56822198D01*
X163326209Y-56817212D01*
X163281865Y-56788712D01*
X163267938Y-56774785D01*
X163267934Y-56774782D01*
X163121211Y-56684281D01*
X163121200Y-56684276D01*
X162957552Y-56630049D01*
X162856554Y-56619730D01*
X162757400Y-56619730D01*
X162757400Y-58569729D01*
X162856540Y-58569729D01*
X162856554Y-58569728D01*
X162957552Y-58559410D01*
X163121200Y-58505183D01*
X163121211Y-58505178D01*
X163267935Y-58414677D01*
X163281860Y-58400751D01*
X163343182Y-58367263D01*
X163412873Y-58372244D01*
X163457227Y-58400747D01*
X163471550Y-58415070D01*
X163472998Y-58415963D01*
X163473782Y-58416834D01*
X163477217Y-58419551D01*
X163476752Y-58420137D01*
X163519721Y-58467910D01*
X163531900Y-58521501D01*
X163531900Y-58572678D01*
X163512215Y-58639717D01*
X163495581Y-58660359D01*
X163419561Y-58736378D01*
X163328993Y-58883211D01*
X163328991Y-58883216D01*
X163301619Y-58965818D01*
X163274726Y-59046977D01*
X163274726Y-59046978D01*
X163274725Y-59046978D01*
X163264400Y-59148045D01*
X163264400Y-59721399D01*
X163264401Y-59721417D01*
X163274725Y-59822482D01*
X163292004Y-59874625D01*
X163326216Y-59977870D01*
X163328992Y-59986245D01*
X163328993Y-59986248D01*
X163341405Y-60006371D01*
X163398138Y-60098350D01*
X163419561Y-60133081D01*
X163515581Y-60229101D01*
X163549066Y-60290424D01*
X163551900Y-60316782D01*
X163551900Y-62406080D01*
X163532215Y-62473119D01*
X163515581Y-62493761D01*
X161755888Y-64253453D01*
X161755887Y-64253454D01*
X161732971Y-64287752D01*
X161702041Y-64334042D01*
X161679225Y-64368189D01*
X161663601Y-64405909D01*
X161626420Y-64495671D01*
X161626418Y-64495677D01*
X161599500Y-64631004D01*
X161599500Y-64851452D01*
X161579815Y-64918491D01*
X161548385Y-64951770D01*
X161420213Y-65044890D01*
X161269894Y-65195209D01*
X161269890Y-65195214D01*
X161150318Y-65359793D01*
X161094989Y-65402459D01*
X161025375Y-65408438D01*
X160963580Y-65375833D01*
X160949682Y-65359793D01*
X160830109Y-65195214D01*
X160830105Y-65195209D01*
X160679786Y-65044890D01*
X160507820Y-64919951D01*
X160318414Y-64823444D01*
X160318413Y-64823443D01*
X160318412Y-64823443D01*
X160116243Y-64757754D01*
X160116241Y-64757753D01*
X160116240Y-64757753D01*
X159954957Y-64732208D01*
X159906287Y-64724500D01*
X159693713Y-64724500D01*
X159645042Y-64732208D01*
X159483760Y-64757753D01*
X159281585Y-64823444D01*
X159092179Y-64919951D01*
X158920213Y-65044890D01*
X158769894Y-65195209D01*
X158769890Y-65195214D01*
X158650318Y-65359793D01*
X158594989Y-65402459D01*
X158525375Y-65408438D01*
X158463580Y-65375833D01*
X158449682Y-65359793D01*
X158330109Y-65195214D01*
X158330105Y-65195209D01*
X158179786Y-65044890D01*
X158007820Y-64919951D01*
X157818414Y-64823444D01*
X157818413Y-64823443D01*
X157818412Y-64823443D01*
X157616243Y-64757754D01*
X157616241Y-64757753D01*
X157616240Y-64757753D01*
X157454957Y-64732208D01*
X157406287Y-64724500D01*
X157193713Y-64724500D01*
X157145042Y-64732208D01*
X156983760Y-64757753D01*
X156781585Y-64823444D01*
X156592179Y-64919951D01*
X156420213Y-65044890D01*
X156269894Y-65195209D01*
X156269890Y-65195214D01*
X156150318Y-65359793D01*
X156094989Y-65402459D01*
X156025375Y-65408438D01*
X155963580Y-65375833D01*
X155949682Y-65359793D01*
X155830109Y-65195214D01*
X155830105Y-65195209D01*
X155679786Y-65044890D01*
X155507820Y-64919951D01*
X155318414Y-64823444D01*
X155318413Y-64823443D01*
X155318412Y-64823443D01*
X155116243Y-64757754D01*
X155116241Y-64757753D01*
X155116240Y-64757753D01*
X154954957Y-64732208D01*
X154906287Y-64724500D01*
X154693713Y-64724500D01*
X154645042Y-64732208D01*
X154483760Y-64757753D01*
X154281585Y-64823444D01*
X154092179Y-64919951D01*
X153920213Y-65044890D01*
X153769894Y-65195209D01*
X153769890Y-65195214D01*
X153650318Y-65359793D01*
X153594989Y-65402459D01*
X153525375Y-65408438D01*
X153463580Y-65375833D01*
X153449682Y-65359793D01*
X153330109Y-65195214D01*
X153330105Y-65195209D01*
X153179786Y-65044890D01*
X153007820Y-64919951D01*
X152818414Y-64823444D01*
X152818413Y-64823443D01*
X152818412Y-64823443D01*
X152616243Y-64757754D01*
X152616241Y-64757753D01*
X152616240Y-64757753D01*
X152454957Y-64732208D01*
X152406287Y-64724500D01*
X152193713Y-64724500D01*
X152145042Y-64732208D01*
X151983760Y-64757753D01*
X151781585Y-64823444D01*
X151592179Y-64919951D01*
X151420213Y-65044890D01*
X151269890Y-65195213D01*
X151144951Y-65367179D01*
X151048444Y-65556585D01*
X150982753Y-65758760D01*
X150951249Y-65957670D01*
X150949500Y-65968713D01*
X150949500Y-66431287D01*
X150952356Y-66449319D01*
X150981908Y-66635906D01*
X150982754Y-66641243D01*
X151045358Y-66833918D01*
X151048444Y-66843414D01*
X151144951Y-67032820D01*
X151269890Y-67204786D01*
X151420213Y-67355109D01*
X151592179Y-67480048D01*
X151592181Y-67480049D01*
X151592184Y-67480051D01*
X151781588Y-67576557D01*
X151983757Y-67642246D01*
X152193713Y-67675500D01*
X152193714Y-67675500D01*
X152406286Y-67675500D01*
X152406287Y-67675500D01*
X152616243Y-67642246D01*
X152818412Y-67576557D01*
X153007816Y-67480051D01*
X153054275Y-67446297D01*
X153179786Y-67355109D01*
X153179788Y-67355106D01*
X153179792Y-67355104D01*
X153330104Y-67204792D01*
X153449683Y-67040204D01*
X153505011Y-66997540D01*
X153574624Y-66991561D01*
X153636420Y-67024166D01*
X153650313Y-67040199D01*
X153684271Y-67086938D01*
X153769896Y-67204792D01*
X153920213Y-67355109D01*
X154092179Y-67480048D01*
X154092181Y-67480049D01*
X154092184Y-67480051D01*
X154281588Y-67576557D01*
X154483757Y-67642246D01*
X154693713Y-67675500D01*
X154693714Y-67675500D01*
X154906286Y-67675500D01*
X154906287Y-67675500D01*
X155116243Y-67642246D01*
X155318412Y-67576557D01*
X155507816Y-67480051D01*
X155554275Y-67446297D01*
X155679786Y-67355109D01*
X155679788Y-67355106D01*
X155679792Y-67355104D01*
X155830104Y-67204792D01*
X155949683Y-67040204D01*
X156005011Y-66997540D01*
X156074624Y-66991561D01*
X156136420Y-67024166D01*
X156150313Y-67040199D01*
X156184271Y-67086938D01*
X156269896Y-67204792D01*
X156420213Y-67355109D01*
X156592179Y-67480048D01*
X156592181Y-67480049D01*
X156592184Y-67480051D01*
X156781588Y-67576557D01*
X156983757Y-67642246D01*
X157193713Y-67675500D01*
X157193714Y-67675500D01*
X157406286Y-67675500D01*
X157406287Y-67675500D01*
X157616243Y-67642246D01*
X157818412Y-67576557D01*
X158007816Y-67480051D01*
X158054275Y-67446297D01*
X158179786Y-67355109D01*
X158179788Y-67355106D01*
X158179792Y-67355104D01*
X158330104Y-67204792D01*
X158449683Y-67040204D01*
X158505011Y-66997540D01*
X158574624Y-66991561D01*
X158636420Y-67024166D01*
X158650313Y-67040199D01*
X158684271Y-67086938D01*
X158769896Y-67204792D01*
X158920213Y-67355109D01*
X159092179Y-67480048D01*
X159092181Y-67480049D01*
X159092184Y-67480051D01*
X159281588Y-67576557D01*
X159483757Y-67642246D01*
X159693713Y-67675500D01*
X159693714Y-67675500D01*
X159906286Y-67675500D01*
X159906287Y-67675500D01*
X160116243Y-67642246D01*
X160318412Y-67576557D01*
X160507816Y-67480051D01*
X160554275Y-67446297D01*
X160679786Y-67355109D01*
X160679788Y-67355106D01*
X160679792Y-67355104D01*
X160830104Y-67204792D01*
X160949683Y-67040204D01*
X161005011Y-66997540D01*
X161074624Y-66991561D01*
X161136420Y-67024166D01*
X161150313Y-67040199D01*
X161184271Y-67086938D01*
X161269896Y-67204792D01*
X161420213Y-67355109D01*
X161592179Y-67480048D01*
X161592181Y-67480049D01*
X161592184Y-67480051D01*
X161781588Y-67576557D01*
X161983757Y-67642246D01*
X162193713Y-67675500D01*
X162193714Y-67675500D01*
X162406286Y-67675500D01*
X162406287Y-67675500D01*
X162616243Y-67642246D01*
X162818412Y-67576557D01*
X163007816Y-67480051D01*
X163054275Y-67446297D01*
X163179786Y-67355109D01*
X163179788Y-67355106D01*
X163179792Y-67355104D01*
X163330104Y-67204792D01*
X163449683Y-67040204D01*
X163505011Y-66997540D01*
X163574624Y-66991561D01*
X163636420Y-67024166D01*
X163650313Y-67040199D01*
X163684271Y-67086938D01*
X163769896Y-67204792D01*
X163920213Y-67355109D01*
X164092179Y-67480048D01*
X164092181Y-67480049D01*
X164092184Y-67480051D01*
X164281588Y-67576557D01*
X164483757Y-67642246D01*
X164693713Y-67675500D01*
X164693714Y-67675500D01*
X164906286Y-67675500D01*
X164906287Y-67675500D01*
X165116243Y-67642246D01*
X165318412Y-67576557D01*
X165507816Y-67480051D01*
X165554275Y-67446297D01*
X165679786Y-67355109D01*
X165679788Y-67355106D01*
X165679792Y-67355104D01*
X165830104Y-67204792D01*
X165949683Y-67040204D01*
X166005011Y-66997540D01*
X166074624Y-66991561D01*
X166136420Y-67024166D01*
X166150313Y-67040199D01*
X166184271Y-67086938D01*
X166269896Y-67204792D01*
X166420213Y-67355109D01*
X166592179Y-67480048D01*
X166592181Y-67480049D01*
X166592184Y-67480051D01*
X166781588Y-67576557D01*
X166983757Y-67642246D01*
X167193713Y-67675500D01*
X167193714Y-67675500D01*
X167406286Y-67675500D01*
X167406287Y-67675500D01*
X167616243Y-67642246D01*
X167646129Y-67632534D01*
X167715966Y-67630538D01*
X167772128Y-67662784D01*
X170255886Y-70146542D01*
X170353455Y-70244111D01*
X170353459Y-70244115D01*
X170395787Y-70272398D01*
X170440592Y-70326011D01*
X170449299Y-70395336D01*
X170419144Y-70458363D01*
X170359701Y-70495082D01*
X170326896Y-70499500D01*
X144792722Y-70499500D01*
X144725683Y-70479815D01*
X144679928Y-70427011D01*
X144669984Y-70357853D01*
X144699009Y-70294297D01*
X144757787Y-70256523D01*
X144766066Y-70254399D01*
X145084142Y-70184384D01*
X145423255Y-70070123D01*
X145423260Y-70070122D01*
X145748009Y-69919876D01*
X146054629Y-69735390D01*
X146054632Y-69735388D01*
X146339509Y-69518831D01*
X146352742Y-69506295D01*
X146352742Y-69506294D01*
X145140699Y-68294251D01*
X145242330Y-68220412D01*
X145420412Y-68042330D01*
X145494251Y-67940698D01*
X146703556Y-69150002D01*
X146830972Y-68999998D01*
X146830975Y-68999994D01*
X147031781Y-68703827D01*
X147199393Y-68387677D01*
X147199402Y-68387659D01*
X147331850Y-68055239D01*
X147331852Y-68055232D01*
X147427578Y-67710457D01*
X147427584Y-67710431D01*
X147485472Y-67357331D01*
X147485473Y-67357314D01*
X147504847Y-67000002D01*
X147504847Y-66999997D01*
X147485473Y-66642685D01*
X147485472Y-66642668D01*
X147427584Y-66289568D01*
X147427578Y-66289542D01*
X147331852Y-65944767D01*
X147331850Y-65944760D01*
X147199402Y-65612340D01*
X147199393Y-65612322D01*
X147031781Y-65296172D01*
X146830975Y-65000005D01*
X146830964Y-64999991D01*
X146703556Y-64849996D01*
X145494251Y-66059301D01*
X145420412Y-65957670D01*
X145242330Y-65779588D01*
X145140698Y-65705748D01*
X146352742Y-64493704D01*
X146339504Y-64481163D01*
X146054632Y-64264611D01*
X146054629Y-64264609D01*
X145748009Y-64080123D01*
X145423260Y-63929877D01*
X145423255Y-63929876D01*
X145084144Y-63815616D01*
X144734660Y-63738688D01*
X144378924Y-63700000D01*
X144021075Y-63700000D01*
X143665339Y-63738688D01*
X143315855Y-63815616D01*
X142976744Y-63929876D01*
X142976739Y-63929877D01*
X142651990Y-64080123D01*
X142345370Y-64264609D01*
X142345367Y-64264611D01*
X142060486Y-64481170D01*
X142060485Y-64481171D01*
X142047257Y-64493702D01*
X142047256Y-64493703D01*
X143259301Y-65705748D01*
X143157670Y-65779588D01*
X142979588Y-65957670D01*
X142905748Y-66059301D01*
X141696442Y-64849995D01*
X141696441Y-64849996D01*
X141569033Y-64999992D01*
X141368218Y-65296172D01*
X141200606Y-65612322D01*
X141200597Y-65612340D01*
X141068149Y-65944760D01*
X141068147Y-65944767D01*
X140972421Y-66289542D01*
X140972415Y-66289568D01*
X140914527Y-66642668D01*
X140914526Y-66642685D01*
X140895153Y-66999997D01*
X140895153Y-67000002D01*
X140914526Y-67357314D01*
X140914527Y-67357331D01*
X140972415Y-67710431D01*
X140972421Y-67710457D01*
X141068147Y-68055232D01*
X141068149Y-68055239D01*
X141200597Y-68387659D01*
X141200606Y-68387677D01*
X141368218Y-68703827D01*
X141569024Y-68999994D01*
X141569035Y-69000008D01*
X141696441Y-69150002D01*
X141696442Y-69150002D01*
X142905747Y-67940697D01*
X142979588Y-68042330D01*
X143157670Y-68220412D01*
X143259300Y-68294251D01*
X142047257Y-69506294D01*
X142060495Y-69518836D01*
X142345367Y-69735388D01*
X142345370Y-69735390D01*
X142651990Y-69919876D01*
X142976739Y-70070122D01*
X142976744Y-70070123D01*
X143315857Y-70184384D01*
X143633934Y-70254399D01*
X143695175Y-70288035D01*
X143728509Y-70349440D01*
X143723353Y-70419120D01*
X143681344Y-70474950D01*
X143615819Y-70499205D01*
X143607278Y-70499500D01*
X140624500Y-70499500D01*
X140557461Y-70479815D01*
X140511706Y-70427011D01*
X140500500Y-70375500D01*
X140500500Y-57844730D01*
X161469901Y-57844730D01*
X161469901Y-57881384D01*
X161480219Y-57982382D01*
X161534446Y-58146030D01*
X161534451Y-58146041D01*
X161624952Y-58292764D01*
X161624955Y-58292768D01*
X161746861Y-58414674D01*
X161746865Y-58414677D01*
X161893588Y-58505178D01*
X161893599Y-58505183D01*
X162057247Y-58559410D01*
X162158251Y-58569729D01*
X162257400Y-58569728D01*
X162257400Y-57844730D01*
X161469901Y-57844730D01*
X140500500Y-57844730D01*
X140500500Y-57344730D01*
X161469900Y-57344730D01*
X162257400Y-57344730D01*
X162257400Y-56619729D01*
X162158260Y-56619730D01*
X162158244Y-56619731D01*
X162057247Y-56630049D01*
X161893599Y-56684276D01*
X161893588Y-56684281D01*
X161746865Y-56774782D01*
X161746861Y-56774785D01*
X161624955Y-56896691D01*
X161624952Y-56896695D01*
X161534451Y-57043418D01*
X161534446Y-57043429D01*
X161480219Y-57207077D01*
X161469900Y-57308075D01*
X161469900Y-57344730D01*
X140500500Y-57344730D01*
X140500500Y-51781951D01*
X143239500Y-51781951D01*
X143265547Y-51979786D01*
X143271334Y-52023744D01*
X143333312Y-52255051D01*
X143334456Y-52259320D01*
X143334459Y-52259330D01*
X143427786Y-52484640D01*
X143427791Y-52484651D01*
X143549727Y-52695848D01*
X143549738Y-52695864D01*
X143698199Y-52889343D01*
X143698205Y-52889350D01*
X143870649Y-53061794D01*
X143870656Y-53061800D01*
X143977512Y-53143793D01*
X144064144Y-53210268D01*
X144064151Y-53210272D01*
X144275348Y-53332208D01*
X144275353Y-53332210D01*
X144275356Y-53332212D01*
X144500679Y-53425544D01*
X144736256Y-53488666D01*
X144978056Y-53520500D01*
X144978063Y-53520500D01*
X145221937Y-53520500D01*
X145221944Y-53520500D01*
X145463744Y-53488666D01*
X145699321Y-53425544D01*
X145924644Y-53332212D01*
X146135856Y-53210268D01*
X146329345Y-53061799D01*
X146501799Y-52889345D01*
X146650268Y-52695856D01*
X146772212Y-52484644D01*
X146865544Y-52259321D01*
X146928666Y-52023744D01*
X146960499Y-51781951D01*
X152839500Y-51781951D01*
X152865547Y-51979786D01*
X152871334Y-52023744D01*
X152933312Y-52255051D01*
X152934456Y-52259320D01*
X152934459Y-52259330D01*
X153027786Y-52484640D01*
X153027791Y-52484651D01*
X153149727Y-52695848D01*
X153149738Y-52695864D01*
X153298199Y-52889343D01*
X153298205Y-52889350D01*
X153470649Y-53061794D01*
X153470656Y-53061800D01*
X153577512Y-53143793D01*
X153664144Y-53210268D01*
X153664151Y-53210272D01*
X153875348Y-53332208D01*
X153875353Y-53332210D01*
X153875356Y-53332212D01*
X154100679Y-53425544D01*
X154336256Y-53488666D01*
X154578056Y-53520500D01*
X154578063Y-53520500D01*
X154821937Y-53520500D01*
X154821944Y-53520500D01*
X155063744Y-53488666D01*
X155299321Y-53425544D01*
X155524644Y-53332212D01*
X155735856Y-53210268D01*
X155929345Y-53061799D01*
X156101799Y-52889345D01*
X156250268Y-52695856D01*
X156372212Y-52484644D01*
X156465544Y-52259321D01*
X156528666Y-52023744D01*
X156560500Y-51781944D01*
X156560500Y-51018056D01*
X156528666Y-50776256D01*
X156465544Y-50540679D01*
X156454105Y-50513064D01*
X156372213Y-50315359D01*
X156372208Y-50315348D01*
X156250272Y-50104151D01*
X156250268Y-50104144D01*
X156170356Y-50000000D01*
X163387772Y-50000000D01*
X163406980Y-50280820D01*
X163406981Y-50280822D01*
X163464245Y-50556394D01*
X163464246Y-50556400D01*
X163464248Y-50556407D01*
X163464249Y-50556409D01*
X163558509Y-50821634D01*
X163558510Y-50821637D01*
X163558511Y-50821638D01*
X163574309Y-50852127D01*
X163688007Y-51071553D01*
X163850329Y-51301510D01*
X163850333Y-51301514D01*
X163850333Y-51301515D01*
X164042455Y-51507226D01*
X164118006Y-51568691D01*
X164260796Y-51684860D01*
X164260798Y-51684861D01*
X164260799Y-51684862D01*
X164501296Y-51831112D01*
X164501301Y-51831114D01*
X164759463Y-51943249D01*
X164759468Y-51943251D01*
X165030507Y-52019193D01*
X165275665Y-52052888D01*
X165309361Y-52057520D01*
X165309362Y-52057520D01*
X165590839Y-52057520D01*
X165620901Y-52053387D01*
X165869693Y-52019193D01*
X166140732Y-51943251D01*
X166398905Y-51831111D01*
X166639404Y-51684860D01*
X166857748Y-51507223D01*
X167049871Y-51301510D01*
X167212193Y-51071553D01*
X167341691Y-50821634D01*
X167435951Y-50556409D01*
X167493219Y-50280820D01*
X167512428Y-50000000D01*
X174487572Y-50000000D01*
X174506780Y-50280820D01*
X174506781Y-50280822D01*
X174564045Y-50556394D01*
X174564046Y-50556400D01*
X174564048Y-50556407D01*
X174564049Y-50556409D01*
X174658309Y-50821634D01*
X174658310Y-50821637D01*
X174658311Y-50821638D01*
X174674109Y-50852127D01*
X174787807Y-51071553D01*
X174950129Y-51301510D01*
X174950133Y-51301514D01*
X174950133Y-51301515D01*
X175142255Y-51507226D01*
X175217806Y-51568691D01*
X175360596Y-51684860D01*
X175360598Y-51684861D01*
X175360599Y-51684862D01*
X175601096Y-51831112D01*
X175601101Y-51831114D01*
X175859263Y-51943249D01*
X175859268Y-51943251D01*
X176130307Y-52019193D01*
X176375465Y-52052888D01*
X176409161Y-52057520D01*
X176409162Y-52057520D01*
X176690639Y-52057520D01*
X176720701Y-52053387D01*
X176969493Y-52019193D01*
X177037986Y-52000002D01*
X179695153Y-52000002D01*
X179714526Y-52357314D01*
X179714527Y-52357331D01*
X179772415Y-52710431D01*
X179772421Y-52710457D01*
X179868147Y-53055232D01*
X179868149Y-53055239D01*
X180000597Y-53387659D01*
X180000606Y-53387677D01*
X180168218Y-53703827D01*
X180369024Y-53999994D01*
X180369035Y-54000008D01*
X180496441Y-54150002D01*
X180496442Y-54150002D01*
X181705747Y-52940697D01*
X181779588Y-53042330D01*
X181957670Y-53220412D01*
X182059300Y-53294251D01*
X180847257Y-54506294D01*
X180860495Y-54518836D01*
X181145367Y-54735388D01*
X181145370Y-54735390D01*
X181451990Y-54919876D01*
X181776739Y-55070122D01*
X181776744Y-55070123D01*
X182115855Y-55184383D01*
X182465339Y-55261311D01*
X182821075Y-55299999D01*
X182821085Y-55300000D01*
X183178915Y-55300000D01*
X183178924Y-55299999D01*
X183534660Y-55261311D01*
X183884144Y-55184383D01*
X184223255Y-55070123D01*
X184223260Y-55070122D01*
X184548009Y-54919876D01*
X184854629Y-54735390D01*
X184854632Y-54735388D01*
X185139509Y-54518831D01*
X185152742Y-54506295D01*
X185152742Y-54506294D01*
X183940699Y-53294251D01*
X184042330Y-53220412D01*
X184220412Y-53042330D01*
X184294251Y-52940698D01*
X185503556Y-54150002D01*
X185630972Y-53999998D01*
X185630975Y-53999994D01*
X185831781Y-53703827D01*
X185999393Y-53387677D01*
X185999402Y-53387659D01*
X186131850Y-53055239D01*
X186131852Y-53055232D01*
X186227578Y-52710457D01*
X186227584Y-52710431D01*
X186285472Y-52357331D01*
X186285473Y-52357314D01*
X186304847Y-52000002D01*
X186304847Y-51999997D01*
X186285473Y-51642685D01*
X186285472Y-51642668D01*
X186227584Y-51289568D01*
X186227578Y-51289542D01*
X186131852Y-50944767D01*
X186131850Y-50944760D01*
X185999402Y-50612340D01*
X185999393Y-50612322D01*
X185831781Y-50296172D01*
X185630975Y-50000005D01*
X185630971Y-50000000D01*
X187387772Y-50000000D01*
X187406980Y-50280820D01*
X187406981Y-50280822D01*
X187464245Y-50556394D01*
X187464246Y-50556400D01*
X187464248Y-50556407D01*
X187464249Y-50556409D01*
X187558509Y-50821634D01*
X187558510Y-50821637D01*
X187558511Y-50821638D01*
X187574309Y-50852127D01*
X187688007Y-51071553D01*
X187850329Y-51301510D01*
X187850333Y-51301514D01*
X187850333Y-51301515D01*
X188042455Y-51507226D01*
X188118006Y-51568691D01*
X188260796Y-51684860D01*
X188260798Y-51684861D01*
X188260799Y-51684862D01*
X188501296Y-51831112D01*
X188501301Y-51831114D01*
X188759463Y-51943249D01*
X188759468Y-51943251D01*
X189030507Y-52019193D01*
X189275665Y-52052888D01*
X189309361Y-52057520D01*
X189309362Y-52057520D01*
X189590839Y-52057520D01*
X189620901Y-52053387D01*
X189869693Y-52019193D01*
X190140732Y-51943251D01*
X190398905Y-51831111D01*
X190639404Y-51684860D01*
X190857748Y-51507223D01*
X191049871Y-51301510D01*
X191212193Y-51071553D01*
X191341691Y-50821634D01*
X191435951Y-50556409D01*
X191493219Y-50280820D01*
X191512428Y-50000000D01*
X198487572Y-50000000D01*
X198506780Y-50280820D01*
X198506781Y-50280822D01*
X198564045Y-50556394D01*
X198564046Y-50556400D01*
X198564048Y-50556407D01*
X198564049Y-50556409D01*
X198658309Y-50821634D01*
X198658310Y-50821637D01*
X198658311Y-50821638D01*
X198674109Y-50852127D01*
X198787807Y-51071553D01*
X198950129Y-51301510D01*
X198950133Y-51301514D01*
X198950133Y-51301515D01*
X199142255Y-51507226D01*
X199217806Y-51568691D01*
X199360596Y-51684860D01*
X199360598Y-51684861D01*
X199360599Y-51684862D01*
X199601096Y-51831112D01*
X199601101Y-51831114D01*
X199859263Y-51943249D01*
X199859268Y-51943251D01*
X200130307Y-52019193D01*
X200375465Y-52052888D01*
X200409161Y-52057520D01*
X200409162Y-52057520D01*
X200690639Y-52057520D01*
X200720701Y-52053387D01*
X200969493Y-52019193D01*
X201240532Y-51943251D01*
X201498705Y-51831111D01*
X201739204Y-51684860D01*
X201957548Y-51507223D01*
X202149671Y-51301510D01*
X202311993Y-51071553D01*
X202441491Y-50821634D01*
X202535751Y-50556409D01*
X202593019Y-50280820D01*
X202612228Y-50000000D01*
X202593019Y-49719180D01*
X202535751Y-49443591D01*
X202441491Y-49178366D01*
X202311993Y-48928447D01*
X202149671Y-48698490D01*
X202149666Y-48698484D01*
X201957544Y-48492773D01*
X201739200Y-48315137D01*
X201498703Y-48168887D01*
X201498698Y-48168885D01*
X201240536Y-48056750D01*
X200969498Y-47980808D01*
X200969494Y-47980807D01*
X200969493Y-47980807D01*
X200830065Y-47961643D01*
X200690639Y-47942480D01*
X200690638Y-47942480D01*
X200409162Y-47942480D01*
X200409161Y-47942480D01*
X200130307Y-47980807D01*
X200130301Y-47980808D01*
X199859263Y-48056750D01*
X199601101Y-48168885D01*
X199601096Y-48168887D01*
X199360599Y-48315137D01*
X199142255Y-48492773D01*
X198950133Y-48698484D01*
X198950133Y-48698485D01*
X198950130Y-48698487D01*
X198950129Y-48698490D01*
X198921754Y-48738688D01*
X198787807Y-48928446D01*
X198658311Y-49178361D01*
X198564046Y-49443599D01*
X198564045Y-49443605D01*
X198506781Y-49719177D01*
X198506780Y-49719179D01*
X198487572Y-50000000D01*
X191512428Y-50000000D01*
X191493219Y-49719180D01*
X191435951Y-49443591D01*
X191341691Y-49178366D01*
X191212193Y-48928447D01*
X191049871Y-48698490D01*
X191049866Y-48698484D01*
X190857744Y-48492773D01*
X190639400Y-48315137D01*
X190398903Y-48168887D01*
X190398898Y-48168885D01*
X190140736Y-48056750D01*
X189869698Y-47980808D01*
X189869694Y-47980807D01*
X189869693Y-47980807D01*
X189730265Y-47961643D01*
X189590839Y-47942480D01*
X189590838Y-47942480D01*
X189309362Y-47942480D01*
X189309361Y-47942480D01*
X189030507Y-47980807D01*
X189030501Y-47980808D01*
X188759463Y-48056750D01*
X188501301Y-48168885D01*
X188501296Y-48168887D01*
X188260799Y-48315137D01*
X188042455Y-48492773D01*
X187850333Y-48698484D01*
X187850333Y-48698485D01*
X187850330Y-48698487D01*
X187850329Y-48698490D01*
X187821954Y-48738688D01*
X187688007Y-48928446D01*
X187558511Y-49178361D01*
X187464246Y-49443599D01*
X187464245Y-49443605D01*
X187406981Y-49719177D01*
X187406980Y-49719179D01*
X187387772Y-50000000D01*
X185630971Y-50000000D01*
X185630964Y-49999991D01*
X185503556Y-49849996D01*
X184294251Y-51059301D01*
X184220412Y-50957670D01*
X184042330Y-50779588D01*
X183940698Y-50705748D01*
X185152742Y-49493704D01*
X185139504Y-49481163D01*
X184854632Y-49264611D01*
X184854629Y-49264609D01*
X184548009Y-49080123D01*
X184223260Y-48929877D01*
X184223255Y-48929876D01*
X183884144Y-48815616D01*
X183534660Y-48738688D01*
X183178924Y-48700000D01*
X182821075Y-48700000D01*
X182465339Y-48738688D01*
X182115855Y-48815616D01*
X181776744Y-48929876D01*
X181776739Y-48929877D01*
X181451990Y-49080123D01*
X181145370Y-49264609D01*
X181145367Y-49264611D01*
X180860486Y-49481170D01*
X180860485Y-49481171D01*
X180847257Y-49493702D01*
X180847256Y-49493703D01*
X182059301Y-50705748D01*
X181957670Y-50779588D01*
X181779588Y-50957670D01*
X181705748Y-51059301D01*
X180496442Y-49849995D01*
X180496441Y-49849996D01*
X180369033Y-49999992D01*
X180168218Y-50296172D01*
X180000606Y-50612322D01*
X180000597Y-50612340D01*
X179868149Y-50944760D01*
X179868147Y-50944767D01*
X179772421Y-51289542D01*
X179772415Y-51289568D01*
X179714527Y-51642668D01*
X179714526Y-51642685D01*
X179695153Y-51999997D01*
X179695153Y-52000002D01*
X177037986Y-52000002D01*
X177240532Y-51943251D01*
X177498705Y-51831111D01*
X177739204Y-51684860D01*
X177957548Y-51507223D01*
X178149671Y-51301510D01*
X178311993Y-51071553D01*
X178441491Y-50821634D01*
X178535751Y-50556409D01*
X178593019Y-50280820D01*
X178612228Y-50000000D01*
X178593019Y-49719180D01*
X178535751Y-49443591D01*
X178441491Y-49178366D01*
X178311993Y-48928447D01*
X178149671Y-48698490D01*
X178149666Y-48698484D01*
X177957544Y-48492773D01*
X177739200Y-48315137D01*
X177498703Y-48168887D01*
X177498698Y-48168885D01*
X177240536Y-48056750D01*
X176969498Y-47980808D01*
X176969494Y-47980807D01*
X176969493Y-47980807D01*
X176830065Y-47961643D01*
X176690639Y-47942480D01*
X176690638Y-47942480D01*
X176409162Y-47942480D01*
X176409161Y-47942480D01*
X176130307Y-47980807D01*
X176130301Y-47980808D01*
X175859263Y-48056750D01*
X175601101Y-48168885D01*
X175601096Y-48168887D01*
X175360599Y-48315137D01*
X175142255Y-48492773D01*
X174950133Y-48698484D01*
X174950133Y-48698485D01*
X174950130Y-48698487D01*
X174950129Y-48698490D01*
X174921754Y-48738688D01*
X174787807Y-48928446D01*
X174658311Y-49178361D01*
X174564046Y-49443599D01*
X174564045Y-49443605D01*
X174506781Y-49719177D01*
X174506780Y-49719179D01*
X174487572Y-50000000D01*
X167512428Y-50000000D01*
X167493219Y-49719180D01*
X167435951Y-49443591D01*
X167341691Y-49178366D01*
X167212193Y-48928447D01*
X167049871Y-48698490D01*
X167049866Y-48698484D01*
X166857744Y-48492773D01*
X166639400Y-48315137D01*
X166398903Y-48168887D01*
X166398898Y-48168885D01*
X166140736Y-48056750D01*
X165869698Y-47980808D01*
X165869694Y-47980807D01*
X165869693Y-47980807D01*
X165730265Y-47961643D01*
X165590839Y-47942480D01*
X165590838Y-47942480D01*
X165309362Y-47942480D01*
X165309361Y-47942480D01*
X165030507Y-47980807D01*
X165030501Y-47980808D01*
X164759463Y-48056750D01*
X164501301Y-48168885D01*
X164501296Y-48168887D01*
X164260799Y-48315137D01*
X164042455Y-48492773D01*
X163850333Y-48698484D01*
X163850333Y-48698485D01*
X163850330Y-48698487D01*
X163850329Y-48698490D01*
X163821954Y-48738688D01*
X163688007Y-48928446D01*
X163558511Y-49178361D01*
X163464246Y-49443599D01*
X163464245Y-49443605D01*
X163406981Y-49719177D01*
X163406980Y-49719179D01*
X163387772Y-50000000D01*
X156170356Y-50000000D01*
X156101799Y-49910655D01*
X156101794Y-49910649D01*
X155929350Y-49738205D01*
X155929343Y-49738199D01*
X155735864Y-49589738D01*
X155735862Y-49589736D01*
X155735856Y-49589732D01*
X155735851Y-49589729D01*
X155735848Y-49589727D01*
X155524651Y-49467791D01*
X155524640Y-49467786D01*
X155299330Y-49374459D01*
X155299323Y-49374457D01*
X155299321Y-49374456D01*
X155063744Y-49311334D01*
X155023333Y-49306013D01*
X154821951Y-49279500D01*
X154821944Y-49279500D01*
X154578056Y-49279500D01*
X154578048Y-49279500D01*
X154347896Y-49309801D01*
X154336256Y-49311334D01*
X154100679Y-49374456D01*
X154100669Y-49374459D01*
X153875359Y-49467786D01*
X153875348Y-49467791D01*
X153664151Y-49589727D01*
X153664135Y-49589738D01*
X153470656Y-49738199D01*
X153470649Y-49738205D01*
X153298205Y-49910649D01*
X153298199Y-49910656D01*
X153149738Y-50104135D01*
X153149727Y-50104151D01*
X153027791Y-50315348D01*
X153027786Y-50315359D01*
X152934459Y-50540669D01*
X152934456Y-50540679D01*
X152873139Y-50769522D01*
X152871335Y-50776253D01*
X152871333Y-50776264D01*
X152839500Y-51018048D01*
X152839500Y-51781951D01*
X146960499Y-51781951D01*
X146960500Y-51781944D01*
X146960500Y-51018056D01*
X146928666Y-50776256D01*
X146865544Y-50540679D01*
X146854105Y-50513064D01*
X146772213Y-50315359D01*
X146772208Y-50315348D01*
X146650272Y-50104151D01*
X146650268Y-50104144D01*
X146501799Y-49910655D01*
X146501794Y-49910649D01*
X146329350Y-49738205D01*
X146329343Y-49738199D01*
X146135864Y-49589738D01*
X146135862Y-49589736D01*
X146135856Y-49589732D01*
X146135851Y-49589729D01*
X146135848Y-49589727D01*
X145924651Y-49467791D01*
X145924640Y-49467786D01*
X145699330Y-49374459D01*
X145699323Y-49374457D01*
X145699321Y-49374456D01*
X145463744Y-49311334D01*
X145423333Y-49306013D01*
X145221951Y-49279500D01*
X145221944Y-49279500D01*
X144978056Y-49279500D01*
X144978048Y-49279500D01*
X144747896Y-49309801D01*
X144736256Y-49311334D01*
X144500679Y-49374456D01*
X144500669Y-49374459D01*
X144275359Y-49467786D01*
X144275348Y-49467791D01*
X144064151Y-49589727D01*
X144064135Y-49589738D01*
X143870656Y-49738199D01*
X143870649Y-49738205D01*
X143698205Y-49910649D01*
X143698199Y-49910656D01*
X143549738Y-50104135D01*
X143549727Y-50104151D01*
X143427791Y-50315348D01*
X143427786Y-50315359D01*
X143334459Y-50540669D01*
X143334456Y-50540679D01*
X143273139Y-50769522D01*
X143271335Y-50776253D01*
X143271333Y-50776264D01*
X143239500Y-51018048D01*
X143239500Y-51781951D01*
X140500500Y-51781951D01*
X140500500Y-41750000D01*
X146600000Y-41750000D01*
X147387500Y-41750000D01*
X147387500Y-41024999D01*
X147288360Y-41025000D01*
X147288344Y-41025001D01*
X147187347Y-41035319D01*
X147023699Y-41089546D01*
X147023688Y-41089551D01*
X146876965Y-41180052D01*
X146876961Y-41180055D01*
X146755055Y-41301961D01*
X146755052Y-41301965D01*
X146664551Y-41448688D01*
X146664546Y-41448699D01*
X146610319Y-41612347D01*
X146600000Y-41713345D01*
X146600000Y-41750000D01*
X140500500Y-41750000D01*
X140500500Y-40624500D01*
X140520185Y-40557461D01*
X140572989Y-40511706D01*
X140624500Y-40500500D01*
X157609482Y-40500500D01*
X157676521Y-40520185D01*
G37*
%TD.AperFunction*%
%TA.AperFunction,Conductor*%
G36*
X197028282Y-65702387D02*
G01*
X197084215Y-65744259D01*
X197108632Y-65809723D01*
X197100142Y-65864465D01*
X197068146Y-65944768D01*
X196972421Y-66289542D01*
X196972415Y-66289568D01*
X196914527Y-66642668D01*
X196914526Y-66642685D01*
X196895153Y-66999997D01*
X196895153Y-67000002D01*
X196914526Y-67357314D01*
X196914527Y-67357331D01*
X196972415Y-67710431D01*
X196972421Y-67710457D01*
X197068147Y-68055232D01*
X197068149Y-68055239D01*
X197200597Y-68387659D01*
X197200606Y-68387677D01*
X197368218Y-68703827D01*
X197569024Y-68999994D01*
X197569035Y-69000008D01*
X197696441Y-69150002D01*
X197696442Y-69150002D01*
X198905747Y-67940697D01*
X198979588Y-68042330D01*
X199157670Y-68220412D01*
X199259300Y-68294251D01*
X198047257Y-69506294D01*
X198060495Y-69518836D01*
X198345367Y-69735388D01*
X198345370Y-69735390D01*
X198651990Y-69919876D01*
X198976739Y-70070122D01*
X198976744Y-70070123D01*
X199315857Y-70184384D01*
X199633934Y-70254399D01*
X199695175Y-70288035D01*
X199728509Y-70349440D01*
X199723353Y-70419120D01*
X199681344Y-70474950D01*
X199615819Y-70499205D01*
X199607278Y-70499500D01*
X192410604Y-70499500D01*
X192343565Y-70479815D01*
X192297810Y-70427011D01*
X192287866Y-70357853D01*
X192316891Y-70294297D01*
X192341714Y-70272397D01*
X192384043Y-70244114D01*
X196897270Y-65730886D01*
X196958590Y-65697403D01*
X197028282Y-65702387D01*
G37*
%TD.AperFunction*%
%TA.AperFunction,Conductor*%
G36*
X191316623Y-58289046D02*
G01*
X191372556Y-58330918D01*
X191377096Y-58337405D01*
X191389688Y-58356678D01*
X191392326Y-58360715D01*
X191549427Y-58531373D01*
X191577999Y-58553611D01*
X191732466Y-58673838D01*
X191732472Y-58673842D01*
X191732475Y-58673844D01*
X191734514Y-58674947D01*
X191735189Y-58675617D01*
X191736767Y-58676648D01*
X191736554Y-58676972D01*
X191784106Y-58724165D01*
X191799500Y-58784004D01*
X191799500Y-59005448D01*
X191779815Y-59072487D01*
X191763181Y-59093129D01*
X191679661Y-59176648D01*
X191589093Y-59323481D01*
X191589091Y-59323486D01*
X191565069Y-59395980D01*
X191534826Y-59487247D01*
X191534826Y-59487248D01*
X191534825Y-59487248D01*
X191524500Y-59588315D01*
X191524500Y-60186669D01*
X191524501Y-60186687D01*
X191534825Y-60287752D01*
X191567939Y-60387681D01*
X191580755Y-60426358D01*
X191589092Y-60451515D01*
X191589093Y-60451518D01*
X191606181Y-60479222D01*
X191677317Y-60594552D01*
X191679661Y-60598351D01*
X191793629Y-60712319D01*
X191827114Y-60773642D01*
X191822130Y-60843334D01*
X191793629Y-60887681D01*
X191679661Y-61001648D01*
X191589093Y-61148481D01*
X191589091Y-61148486D01*
X191582696Y-61167785D01*
X191534826Y-61312247D01*
X191534826Y-61312248D01*
X191534825Y-61312248D01*
X191524500Y-61413315D01*
X191524500Y-62011669D01*
X191524501Y-62011687D01*
X191534825Y-62112752D01*
X191560481Y-62190174D01*
X191589092Y-62276516D01*
X191679660Y-62423350D01*
X191801650Y-62545340D01*
X191948484Y-62635908D01*
X192112247Y-62690174D01*
X192213323Y-62700500D01*
X192786676Y-62700499D01*
X192786684Y-62700498D01*
X192786687Y-62700498D01*
X192842030Y-62694844D01*
X192887753Y-62690174D01*
X193051516Y-62635908D01*
X193198350Y-62545340D01*
X193294371Y-62449319D01*
X193355694Y-62415834D01*
X193382052Y-62413000D01*
X194409049Y-62413000D01*
X194476088Y-62432685D01*
X194481926Y-62436676D01*
X194510510Y-62457443D01*
X194547270Y-62484151D01*
X194720192Y-62561142D01*
X194720197Y-62561144D01*
X194905354Y-62600500D01*
X194905355Y-62600500D01*
X195094644Y-62600500D01*
X195094646Y-62600500D01*
X195279803Y-62561144D01*
X195452730Y-62484151D01*
X195518065Y-62436681D01*
X195583872Y-62413202D01*
X195590951Y-62413000D01*
X196617948Y-62413000D01*
X196684987Y-62432685D01*
X196705629Y-62449319D01*
X196801650Y-62545340D01*
X196948484Y-62635908D01*
X197112247Y-62690174D01*
X197213323Y-62700500D01*
X197646980Y-62700499D01*
X197714019Y-62720183D01*
X197759774Y-62772987D01*
X197769718Y-62842146D01*
X197740693Y-62905702D01*
X197734661Y-62912180D01*
X191683662Y-68963181D01*
X191622339Y-68996666D01*
X191595981Y-68999500D01*
X172102651Y-68999500D01*
X172035612Y-68979815D01*
X171989857Y-68927011D01*
X171979913Y-68857853D01*
X172008938Y-68794297D01*
X172014970Y-68787819D01*
X172060623Y-68742165D01*
X172060626Y-68742162D01*
X172153703Y-68602863D01*
X172217816Y-68448082D01*
X172250500Y-68283767D01*
X172250500Y-68116233D01*
X172217816Y-67951918D01*
X172153703Y-67797137D01*
X172072638Y-67675815D01*
X172060626Y-67657837D01*
X171942162Y-67539373D01*
X171802860Y-67446295D01*
X171648082Y-67382184D01*
X171648074Y-67382182D01*
X171483771Y-67349500D01*
X171483767Y-67349500D01*
X171316233Y-67349500D01*
X171297840Y-67353158D01*
X171240065Y-67364650D01*
X171170473Y-67358421D01*
X171115296Y-67315558D01*
X171092053Y-67249667D01*
X171098168Y-67204034D01*
X171139999Y-67077797D01*
X171144594Y-67032820D01*
X171146732Y-67011897D01*
X171173129Y-66947205D01*
X171230310Y-66907054D01*
X171270090Y-66900500D01*
X173268996Y-66900500D01*
X173401829Y-66874077D01*
X173404328Y-66873580D01*
X173469785Y-66846467D01*
X173531807Y-66820777D01*
X173531808Y-66820776D01*
X173531811Y-66820775D01*
X173646543Y-66744114D01*
X181353838Y-59036819D01*
X181415161Y-59003334D01*
X181441519Y-59000500D01*
X186275500Y-59000500D01*
X186342539Y-59020185D01*
X186388294Y-59072989D01*
X186399500Y-59124500D01*
X186399500Y-59586669D01*
X186399501Y-59586687D01*
X186409825Y-59687752D01*
X186429748Y-59747873D01*
X186454471Y-59822483D01*
X186464092Y-59851515D01*
X186464093Y-59851518D01*
X186486443Y-59887753D01*
X186554660Y-59998350D01*
X186676650Y-60120340D01*
X186823484Y-60210908D01*
X186987247Y-60265174D01*
X187088323Y-60275500D01*
X187686676Y-60275499D01*
X187686684Y-60275498D01*
X187686687Y-60275498D01*
X187760489Y-60267959D01*
X187787753Y-60265174D01*
X187951516Y-60210908D01*
X188098350Y-60120340D01*
X188212319Y-60006371D01*
X188273642Y-59972886D01*
X188343334Y-59977870D01*
X188387681Y-60006371D01*
X188501650Y-60120340D01*
X188648484Y-60210908D01*
X188812247Y-60265174D01*
X188913323Y-60275500D01*
X189511676Y-60275499D01*
X189511684Y-60275498D01*
X189511687Y-60275498D01*
X189585489Y-60267959D01*
X189612753Y-60265174D01*
X189776516Y-60210908D01*
X189923350Y-60120340D01*
X190045340Y-59998350D01*
X190135908Y-59851516D01*
X190190174Y-59687753D01*
X190200500Y-59586677D01*
X190200499Y-59354018D01*
X190220183Y-59286979D01*
X190236813Y-59266342D01*
X191185610Y-58317545D01*
X191246931Y-58284062D01*
X191316623Y-58289046D01*
G37*
%TD.AperFunction*%
%TA.AperFunction,Conductor*%
G36*
X174176519Y-64020185D02*
G01*
X174222274Y-64072989D01*
X174232218Y-64142147D01*
X174203193Y-64205703D01*
X174197161Y-64212181D01*
X172946162Y-65463181D01*
X172884839Y-65496666D01*
X172858481Y-65499500D01*
X171270089Y-65499500D01*
X171203050Y-65479815D01*
X171157295Y-65427011D01*
X171146731Y-65388102D01*
X171143839Y-65359793D01*
X171139999Y-65322203D01*
X171084814Y-65155666D01*
X170992712Y-65006344D01*
X170868656Y-64882288D01*
X170735245Y-64800000D01*
X170719336Y-64790187D01*
X170719331Y-64790185D01*
X170717862Y-64789698D01*
X170552797Y-64735001D01*
X170552795Y-64735000D01*
X170450010Y-64724500D01*
X169149998Y-64724500D01*
X169149981Y-64724501D01*
X169047203Y-64735000D01*
X169047200Y-64735001D01*
X168880668Y-64790185D01*
X168880663Y-64790187D01*
X168731342Y-64882289D01*
X168607289Y-65006342D01*
X168511821Y-65161121D01*
X168459873Y-65207845D01*
X168390910Y-65219068D01*
X168326828Y-65191224D01*
X168318601Y-65183705D01*
X168179786Y-65044890D01*
X168007820Y-64919951D01*
X167818414Y-64823444D01*
X167818413Y-64823443D01*
X167818412Y-64823443D01*
X167616243Y-64757754D01*
X167616241Y-64757753D01*
X167616239Y-64757753D01*
X167525682Y-64743410D01*
X167462547Y-64713481D01*
X167425616Y-64654169D01*
X167426614Y-64584306D01*
X167457397Y-64533258D01*
X167953837Y-64036819D01*
X168015160Y-64003334D01*
X168041518Y-64000500D01*
X174109480Y-64000500D01*
X174176519Y-64020185D01*
G37*
%TD.AperFunction*%
%TA.AperFunction,Conductor*%
G36*
X165208234Y-60112600D02*
G01*
X165252581Y-60141101D01*
X165366550Y-60255070D01*
X165513384Y-60345638D01*
X165677147Y-60399904D01*
X165778223Y-60410230D01*
X166376576Y-60410229D01*
X166376584Y-60410228D01*
X166376587Y-60410228D01*
X166431930Y-60404574D01*
X166477653Y-60399904D01*
X166641416Y-60345638D01*
X166767354Y-60267958D01*
X166834745Y-60249518D01*
X166901409Y-60270440D01*
X166946178Y-60324082D01*
X166954840Y-60393413D01*
X166924644Y-60456420D01*
X166920132Y-60461177D01*
X166879661Y-60501648D01*
X166789093Y-60648481D01*
X166789092Y-60648484D01*
X166734826Y-60812247D01*
X166734826Y-60812248D01*
X166734825Y-60812248D01*
X166724500Y-60913315D01*
X166724500Y-61511669D01*
X166724501Y-61511687D01*
X166734825Y-61612752D01*
X166763737Y-61700000D01*
X166789092Y-61776516D01*
X166879660Y-61923350D01*
X167001650Y-62045340D01*
X167148484Y-62135908D01*
X167312247Y-62190174D01*
X167413323Y-62200500D01*
X167986676Y-62200499D01*
X167986684Y-62200498D01*
X167986687Y-62200498D01*
X168042030Y-62194844D01*
X168087753Y-62190174D01*
X168251516Y-62135908D01*
X168398350Y-62045340D01*
X168494371Y-61949319D01*
X168555694Y-61915834D01*
X168582052Y-61913000D01*
X169909049Y-61913000D01*
X169976088Y-61932685D01*
X169981926Y-61936676D01*
X170041262Y-61979786D01*
X170047270Y-61984151D01*
X170220192Y-62061142D01*
X170220197Y-62061144D01*
X170405354Y-62100500D01*
X170405355Y-62100500D01*
X170594644Y-62100500D01*
X170594646Y-62100500D01*
X170779803Y-62061144D01*
X170952730Y-61984151D01*
X170986438Y-61959661D01*
X171035271Y-61924182D01*
X171101077Y-61900702D01*
X171108156Y-61900500D01*
X172534679Y-61900500D01*
X172601718Y-61920185D01*
X172640216Y-61959402D01*
X172652791Y-61979788D01*
X172672537Y-62011803D01*
X172679660Y-62023350D01*
X172801650Y-62145340D01*
X172948484Y-62235908D01*
X173112247Y-62290174D01*
X173213323Y-62300500D01*
X173786676Y-62300499D01*
X173786684Y-62300498D01*
X173786687Y-62300498D01*
X173844982Y-62294543D01*
X173887753Y-62290174D01*
X174051516Y-62235908D01*
X174051525Y-62235901D01*
X174058064Y-62232854D01*
X174059172Y-62235231D01*
X174114756Y-62220008D01*
X174181425Y-62240912D01*
X174226209Y-62294543D01*
X174234888Y-62363871D01*
X174204708Y-62426886D01*
X174200176Y-62431666D01*
X174068660Y-62563182D01*
X174007340Y-62596666D01*
X173980981Y-62599500D01*
X167631003Y-62599500D01*
X167522590Y-62621065D01*
X167522589Y-62621065D01*
X167509131Y-62623742D01*
X167495673Y-62626419D01*
X167495671Y-62626420D01*
X167442866Y-62648292D01*
X167442864Y-62648293D01*
X167442863Y-62648292D01*
X167368196Y-62679221D01*
X167368180Y-62679230D01*
X167336352Y-62700498D01*
X167336350Y-62700499D01*
X167253461Y-62755883D01*
X167253453Y-62755889D01*
X165272128Y-64737214D01*
X165210805Y-64770699D01*
X165146132Y-64767465D01*
X165116240Y-64757753D01*
X164954957Y-64732208D01*
X164906287Y-64724500D01*
X164693713Y-64724500D01*
X164645042Y-64732208D01*
X164483760Y-64757753D01*
X164281585Y-64823444D01*
X164092179Y-64919951D01*
X163920213Y-65044890D01*
X163769894Y-65195209D01*
X163769890Y-65195214D01*
X163650318Y-65359793D01*
X163594989Y-65402459D01*
X163525375Y-65408438D01*
X163463580Y-65375833D01*
X163449682Y-65359793D01*
X163330109Y-65195214D01*
X163330105Y-65195209D01*
X163179790Y-65044894D01*
X163179783Y-65044888D01*
X163161699Y-65031749D01*
X163119033Y-64976419D01*
X163113055Y-64906805D01*
X163145662Y-64845011D01*
X163146830Y-64843825D01*
X164796514Y-63194143D01*
X164873175Y-63079411D01*
X164925980Y-62951928D01*
X164937813Y-62892442D01*
X164952900Y-62816596D01*
X164952900Y-60316782D01*
X164972585Y-60249743D01*
X164989219Y-60229101D01*
X165077219Y-60141101D01*
X165138542Y-60107616D01*
X165208234Y-60112600D01*
G37*
%TD.AperFunction*%
%TA.AperFunction,Conductor*%
G36*
X220834887Y-58607685D02*
G01*
X220855529Y-58624319D01*
X220943529Y-58712319D01*
X220977014Y-58773642D01*
X220972030Y-58843334D01*
X220943529Y-58887681D01*
X220829561Y-59001648D01*
X220738993Y-59148481D01*
X220738991Y-59148486D01*
X220725790Y-59188324D01*
X220684726Y-59312247D01*
X220684726Y-59312248D01*
X220684725Y-59312248D01*
X220674400Y-59413315D01*
X220674400Y-60011669D01*
X220674401Y-60011687D01*
X220684725Y-60112752D01*
X220717719Y-60212319D01*
X220738655Y-60275500D01*
X220738992Y-60276515D01*
X220738993Y-60276518D01*
X220760205Y-60310908D01*
X220824933Y-60415849D01*
X220829561Y-60423351D01*
X220913081Y-60506871D01*
X220946566Y-60568194D01*
X220949400Y-60594552D01*
X220949400Y-61165851D01*
X220932787Y-61227850D01*
X220872823Y-61331710D01*
X220872818Y-61331722D01*
X220814327Y-61511740D01*
X220814326Y-61511744D01*
X220794540Y-61700000D01*
X220814326Y-61888256D01*
X220814327Y-61888259D01*
X220872818Y-62068277D01*
X220872821Y-62068284D01*
X220917308Y-62145338D01*
X220932787Y-62172147D01*
X220949400Y-62234147D01*
X220949400Y-63005448D01*
X220929715Y-63072487D01*
X220913081Y-63093129D01*
X220829561Y-63176648D01*
X220738993Y-63323481D01*
X220738992Y-63323484D01*
X220684726Y-63487247D01*
X220684726Y-63487248D01*
X220684725Y-63487248D01*
X220674400Y-63588315D01*
X220674400Y-64186669D01*
X220674401Y-64186687D01*
X220684725Y-64287752D01*
X220721009Y-64397249D01*
X220734414Y-64437702D01*
X220738992Y-64451515D01*
X220738993Y-64451518D01*
X220829561Y-64598351D01*
X220943529Y-64712319D01*
X220977014Y-64773642D01*
X220972030Y-64843334D01*
X220943529Y-64887681D01*
X220855529Y-64975681D01*
X220794206Y-65009166D01*
X220767848Y-65012000D01*
X218415085Y-65012000D01*
X218348046Y-64992315D01*
X218311277Y-64955822D01*
X218298884Y-64936854D01*
X218298882Y-64936852D01*
X218298879Y-64936847D01*
X218141684Y-64766087D01*
X218141679Y-64766083D01*
X218141677Y-64766081D01*
X217958534Y-64623535D01*
X217958528Y-64623531D01*
X217754404Y-64513064D01*
X217754395Y-64513061D01*
X217534884Y-64437702D01*
X217344350Y-64405908D01*
X217305949Y-64399500D01*
X217073851Y-64399500D01*
X217035450Y-64405908D01*
X216844915Y-64437702D01*
X216625404Y-64513061D01*
X216625395Y-64513064D01*
X216421271Y-64623531D01*
X216421265Y-64623535D01*
X216238122Y-64766081D01*
X216238118Y-64766085D01*
X216238116Y-64766086D01*
X216238116Y-64766087D01*
X216231162Y-64773642D01*
X216229766Y-64775158D01*
X216169879Y-64811148D01*
X216100041Y-64809047D01*
X216042425Y-64769522D01*
X216022355Y-64734507D01*
X215993697Y-64657671D01*
X215993693Y-64657664D01*
X215907447Y-64542455D01*
X215907444Y-64542452D01*
X215792235Y-64456206D01*
X215792228Y-64456202D01*
X215657382Y-64405908D01*
X215657383Y-64405908D01*
X215597783Y-64399501D01*
X215597781Y-64399500D01*
X215597773Y-64399500D01*
X215597765Y-64399500D01*
X214291419Y-64399500D01*
X214224380Y-64379815D01*
X214203738Y-64363181D01*
X210396446Y-60555888D01*
X210396445Y-60555887D01*
X210281707Y-60479222D01*
X210154232Y-60426421D01*
X210154222Y-60426418D01*
X210018896Y-60399500D01*
X210018894Y-60399500D01*
X210018893Y-60399500D01*
X209248547Y-60399500D01*
X209181508Y-60379815D01*
X209148230Y-60348385D01*
X209095274Y-60275498D01*
X209055107Y-60220211D01*
X208904792Y-60069896D01*
X208887795Y-60057547D01*
X208740204Y-59950316D01*
X208697540Y-59894989D01*
X208691561Y-59825376D01*
X208724166Y-59763580D01*
X208740199Y-59749686D01*
X208904792Y-59630104D01*
X208998077Y-59536819D01*
X209059400Y-59503334D01*
X209085758Y-59500500D01*
X213125401Y-59500500D01*
X213192440Y-59520185D01*
X213238195Y-59572989D01*
X213249401Y-59624500D01*
X213249401Y-59747876D01*
X213255808Y-59807483D01*
X213306102Y-59942328D01*
X213306106Y-59942335D01*
X213392352Y-60057544D01*
X213392355Y-60057547D01*
X213507564Y-60143793D01*
X213507571Y-60143797D01*
X213642417Y-60194091D01*
X213642416Y-60194091D01*
X213649344Y-60194835D01*
X213702027Y-60200500D01*
X215597772Y-60200499D01*
X215657383Y-60194091D01*
X215792231Y-60143796D01*
X215907446Y-60057546D01*
X215993696Y-59942331D01*
X215998710Y-59928889D01*
X216022355Y-59865493D01*
X216064226Y-59809559D01*
X216129690Y-59785141D01*
X216197963Y-59799992D01*
X216229766Y-59824843D01*
X216237202Y-59832920D01*
X216238115Y-59833912D01*
X216238122Y-59833918D01*
X216421265Y-59976464D01*
X216421271Y-59976468D01*
X216421274Y-59976470D01*
X216625397Y-60086936D01*
X216722694Y-60120338D01*
X216844915Y-60162297D01*
X216844917Y-60162297D01*
X216844919Y-60162298D01*
X217073851Y-60200500D01*
X217073852Y-60200500D01*
X217305948Y-60200500D01*
X217305949Y-60200500D01*
X217534881Y-60162298D01*
X217754403Y-60086936D01*
X217958526Y-59976470D01*
X217990585Y-59951518D01*
X218072511Y-59887752D01*
X218141684Y-59833913D01*
X218298879Y-59663153D01*
X218425824Y-59468849D01*
X218519057Y-59256300D01*
X218576034Y-59031305D01*
X218576035Y-59031297D01*
X218595200Y-58800006D01*
X218595200Y-58800004D01*
X218593894Y-58784246D01*
X218589929Y-58736380D01*
X218588757Y-58722238D01*
X218602839Y-58653803D01*
X218651685Y-58603844D01*
X218712334Y-58588000D01*
X220767848Y-58588000D01*
X220834887Y-58607685D01*
G37*
%TD.AperFunction*%
%TA.AperFunction,Conductor*%
G36*
X175511100Y-58218265D02*
G01*
X175531742Y-58234899D01*
X176018181Y-58721337D01*
X176051666Y-58782660D01*
X176054500Y-58809017D01*
X176054500Y-59041668D01*
X176054501Y-59041687D01*
X176064825Y-59142752D01*
X176101109Y-59252249D01*
X176117813Y-59302657D01*
X176119092Y-59306515D01*
X176119093Y-59306518D01*
X176129556Y-59323481D01*
X176209660Y-59453350D01*
X176331650Y-59575340D01*
X176478484Y-59665908D01*
X176642247Y-59720174D01*
X176642248Y-59720174D01*
X176648673Y-59722303D01*
X176648199Y-59723733D01*
X176702658Y-59753234D01*
X176736348Y-59814444D01*
X176731597Y-59884152D01*
X176702952Y-59928889D01*
X174606668Y-62025174D01*
X174545345Y-62058659D01*
X174475653Y-62053675D01*
X174419720Y-62011803D01*
X174395303Y-61946339D01*
X174408955Y-61883577D01*
X174407854Y-61883064D01*
X174410129Y-61878184D01*
X174410155Y-61878066D01*
X174410304Y-61877809D01*
X174410902Y-61876525D01*
X174410908Y-61876516D01*
X174465174Y-61712753D01*
X174475500Y-61611677D01*
X174475499Y-61013324D01*
X174465174Y-60912247D01*
X174410908Y-60748484D01*
X174320340Y-60601650D01*
X174206371Y-60487681D01*
X174172886Y-60426358D01*
X174177870Y-60356666D01*
X174206371Y-60312319D01*
X174262024Y-60256666D01*
X174320340Y-60198350D01*
X174410908Y-60051516D01*
X174465174Y-59887753D01*
X174475500Y-59786677D01*
X174475499Y-59188324D01*
X174468357Y-59118412D01*
X174465174Y-59087247D01*
X174450073Y-59041676D01*
X174410908Y-58923484D01*
X174320340Y-58776650D01*
X174320337Y-58776647D01*
X174318744Y-58774064D01*
X174300304Y-58706672D01*
X174321226Y-58640008D01*
X174348117Y-58611116D01*
X174450573Y-58531373D01*
X174607674Y-58360715D01*
X174676899Y-58254757D01*
X174730046Y-58209402D01*
X174780708Y-58198580D01*
X175444061Y-58198580D01*
X175511100Y-58218265D01*
G37*
%TD.AperFunction*%
%TA.AperFunction,Conductor*%
G36*
X201143332Y-58277870D02*
G01*
X201187680Y-58306370D01*
X201275682Y-58394372D01*
X201309166Y-58455693D01*
X201312000Y-58482052D01*
X201312000Y-58735646D01*
X201293539Y-58800742D01*
X201264095Y-58848477D01*
X201264091Y-58848486D01*
X201251103Y-58887681D01*
X201209826Y-59012247D01*
X201209826Y-59012248D01*
X201209825Y-59012248D01*
X201199500Y-59113315D01*
X201199500Y-59395980D01*
X201179815Y-59463019D01*
X201163181Y-59483661D01*
X198687180Y-61959661D01*
X198625857Y-61993146D01*
X198556165Y-61988162D01*
X198500232Y-61946290D01*
X198475815Y-61880826D01*
X198475499Y-61872001D01*
X198475499Y-61413324D01*
X198465174Y-61312247D01*
X198410908Y-61148484D01*
X198320340Y-61001650D01*
X198206371Y-60887681D01*
X198172886Y-60826358D01*
X198177870Y-60756666D01*
X198206371Y-60712319D01*
X198320340Y-60598350D01*
X198410908Y-60451516D01*
X198465174Y-60287753D01*
X198475500Y-60186677D01*
X198475499Y-59588324D01*
X198475331Y-59586683D01*
X198465174Y-59487247D01*
X198459077Y-59468848D01*
X198410908Y-59323484D01*
X198320340Y-59176650D01*
X198236819Y-59093129D01*
X198203334Y-59031806D01*
X198200500Y-59005448D01*
X198200500Y-58784004D01*
X198220185Y-58716965D01*
X198263391Y-58676890D01*
X198263233Y-58676648D01*
X198264650Y-58675721D01*
X198265484Y-58674948D01*
X198267525Y-58673844D01*
X198450573Y-58531373D01*
X198607674Y-58360715D01*
X198610312Y-58356678D01*
X198663459Y-58311321D01*
X198714120Y-58300500D01*
X199305448Y-58300500D01*
X199372487Y-58320185D01*
X199393129Y-58336819D01*
X199476650Y-58420340D01*
X199623484Y-58510908D01*
X199787247Y-58565174D01*
X199888323Y-58575500D01*
X200486676Y-58575499D01*
X200486684Y-58575498D01*
X200486687Y-58575498D01*
X200543171Y-58569728D01*
X200587753Y-58565174D01*
X200751516Y-58510908D01*
X200898350Y-58420340D01*
X201012321Y-58306368D01*
X201073640Y-58272886D01*
X201143332Y-58277870D01*
G37*
%TD.AperFunction*%
%TA.AperFunction,Conductor*%
G36*
X194487566Y-57710337D02*
G01*
X194559963Y-57835733D01*
X194662347Y-57938117D01*
X194787743Y-58010514D01*
X194829838Y-58021793D01*
X194201799Y-58649832D01*
X194201800Y-58649833D01*
X194232107Y-58673422D01*
X194436036Y-58783784D01*
X194436041Y-58783786D01*
X194655346Y-58859073D01*
X194884063Y-58897240D01*
X195115937Y-58897240D01*
X195344653Y-58859073D01*
X195563958Y-58783786D01*
X195563963Y-58783784D01*
X195767893Y-58673422D01*
X195767896Y-58673420D01*
X195798198Y-58649833D01*
X195798199Y-58649831D01*
X195170161Y-58021793D01*
X195212257Y-58010514D01*
X195337653Y-57938117D01*
X195440037Y-57835733D01*
X195512434Y-57710337D01*
X195523713Y-57668240D01*
X196150579Y-58295106D01*
X196155101Y-58294637D01*
X196198717Y-58257414D01*
X196267948Y-58247990D01*
X196331284Y-58277491D01*
X196353189Y-58302771D01*
X196391041Y-58360709D01*
X196391043Y-58360711D01*
X196391046Y-58360715D01*
X196548147Y-58531373D01*
X196584169Y-58559410D01*
X196731185Y-58673837D01*
X196731196Y-58673845D01*
X196734512Y-58675639D01*
X196784105Y-58724856D01*
X196799500Y-58784696D01*
X196799500Y-59005448D01*
X196779815Y-59072487D01*
X196763181Y-59093129D01*
X196679661Y-59176648D01*
X196589093Y-59323481D01*
X196589091Y-59323486D01*
X196565069Y-59395980D01*
X196534826Y-59487247D01*
X196534826Y-59487248D01*
X196534825Y-59487248D01*
X196524500Y-59588315D01*
X196524500Y-60186669D01*
X196524501Y-60186687D01*
X196534825Y-60287752D01*
X196567939Y-60387681D01*
X196580755Y-60426358D01*
X196589092Y-60451515D01*
X196589093Y-60451518D01*
X196606181Y-60479222D01*
X196677317Y-60594552D01*
X196679661Y-60598351D01*
X196793629Y-60712319D01*
X196827114Y-60773642D01*
X196822130Y-60843334D01*
X196793629Y-60887681D01*
X196705629Y-60975681D01*
X196644306Y-61009166D01*
X196617948Y-61012000D01*
X195625361Y-61012000D01*
X195558322Y-60992315D01*
X195552476Y-60988318D01*
X195452734Y-60915851D01*
X195452729Y-60915848D01*
X195279807Y-60838857D01*
X195279802Y-60838855D01*
X195134001Y-60807865D01*
X195094646Y-60799500D01*
X194905354Y-60799500D01*
X194872897Y-60806398D01*
X194720197Y-60838855D01*
X194720192Y-60838857D01*
X194547270Y-60915848D01*
X194547265Y-60915851D01*
X194447524Y-60988318D01*
X194381718Y-61011798D01*
X194374639Y-61012000D01*
X193382052Y-61012000D01*
X193315013Y-60992315D01*
X193294371Y-60975681D01*
X193206371Y-60887681D01*
X193172886Y-60826358D01*
X193177870Y-60756666D01*
X193206371Y-60712319D01*
X193320340Y-60598350D01*
X193410908Y-60451516D01*
X193465174Y-60287753D01*
X193475500Y-60186677D01*
X193475499Y-59588324D01*
X193475331Y-59586683D01*
X193465174Y-59487247D01*
X193459077Y-59468848D01*
X193410908Y-59323484D01*
X193320340Y-59176650D01*
X193236819Y-59093129D01*
X193203334Y-59031806D01*
X193200500Y-59005448D01*
X193200500Y-58784696D01*
X193220185Y-58717657D01*
X193265488Y-58675639D01*
X193268803Y-58673845D01*
X193268802Y-58673845D01*
X193268805Y-58673844D01*
X193451853Y-58531373D01*
X193608954Y-58360715D01*
X193646810Y-58302771D01*
X193699956Y-58257415D01*
X193769187Y-58247991D01*
X193832523Y-58277493D01*
X193847624Y-58294920D01*
X193849419Y-58295106D01*
X194476285Y-57668239D01*
X194487566Y-57710337D01*
G37*
%TD.AperFunction*%
%TA.AperFunction,Conductor*%
G36*
X170487566Y-57710337D02*
G01*
X170559963Y-57835733D01*
X170662347Y-57938117D01*
X170787743Y-58010514D01*
X170829838Y-58021793D01*
X170201799Y-58649832D01*
X170201800Y-58649833D01*
X170232107Y-58673422D01*
X170436036Y-58783784D01*
X170436041Y-58783786D01*
X170655346Y-58859073D01*
X170884063Y-58897240D01*
X171115937Y-58897240D01*
X171344653Y-58859073D01*
X171563958Y-58783786D01*
X171563963Y-58783784D01*
X171767893Y-58673422D01*
X171767896Y-58673420D01*
X171798198Y-58649833D01*
X171798199Y-58649831D01*
X171170161Y-58021793D01*
X171212257Y-58010514D01*
X171337653Y-57938117D01*
X171440037Y-57835733D01*
X171512434Y-57710337D01*
X171523713Y-57668240D01*
X172150579Y-58295106D01*
X172155101Y-58294637D01*
X172198717Y-58257414D01*
X172267948Y-58247990D01*
X172331284Y-58277491D01*
X172353189Y-58302771D01*
X172391041Y-58360709D01*
X172391043Y-58360711D01*
X172391046Y-58360715D01*
X172548147Y-58531373D01*
X172576719Y-58553611D01*
X172651463Y-58611787D01*
X172692276Y-58668497D01*
X172695951Y-58738270D01*
X172680840Y-58774737D01*
X172589093Y-58923481D01*
X172589092Y-58923484D01*
X172534826Y-59087247D01*
X172534826Y-59087248D01*
X172534825Y-59087248D01*
X172524500Y-59188315D01*
X172524500Y-59786669D01*
X172524501Y-59786687D01*
X172534825Y-59887752D01*
X172567464Y-59986248D01*
X172573323Y-60003930D01*
X172589092Y-60051515D01*
X172589093Y-60051518D01*
X172600429Y-60069896D01*
X172672466Y-60186687D01*
X172679661Y-60198351D01*
X172769129Y-60287819D01*
X172802614Y-60349142D01*
X172797630Y-60418834D01*
X172755758Y-60474767D01*
X172690294Y-60499184D01*
X172681448Y-60499500D01*
X171108156Y-60499500D01*
X171041117Y-60479815D01*
X171035271Y-60475818D01*
X170952734Y-60415851D01*
X170952729Y-60415848D01*
X170779807Y-60338857D01*
X170779802Y-60338855D01*
X170634001Y-60307865D01*
X170594646Y-60299500D01*
X170405354Y-60299500D01*
X170372897Y-60306398D01*
X170220197Y-60338855D01*
X170220192Y-60338857D01*
X170047270Y-60415848D01*
X170047265Y-60415851D01*
X169947524Y-60488318D01*
X169881718Y-60511798D01*
X169874639Y-60512000D01*
X168582052Y-60512000D01*
X168515013Y-60492315D01*
X168494371Y-60475681D01*
X168406371Y-60387681D01*
X168372886Y-60326358D01*
X168377870Y-60256666D01*
X168406371Y-60212319D01*
X168456393Y-60162297D01*
X168520340Y-60098350D01*
X168610908Y-59951516D01*
X168665174Y-59787753D01*
X168675500Y-59686677D01*
X168675499Y-59088324D01*
X168671275Y-59046977D01*
X168667195Y-59007031D01*
X168679965Y-58938338D01*
X168727846Y-58887454D01*
X168770142Y-58872121D01*
X168845414Y-58859561D01*
X169064804Y-58784244D01*
X169268805Y-58673844D01*
X169451853Y-58531373D01*
X169608954Y-58360715D01*
X169646810Y-58302771D01*
X169699956Y-58257415D01*
X169769187Y-58247991D01*
X169832523Y-58277493D01*
X169847624Y-58294920D01*
X169849419Y-58295106D01*
X170476285Y-57668239D01*
X170487566Y-57710337D01*
G37*
%TD.AperFunction*%
%TA.AperFunction,Conductor*%
G36*
X213192440Y-45520185D02*
G01*
X213238195Y-45572989D01*
X213249401Y-45624500D01*
X213249401Y-45747876D01*
X213255808Y-45807483D01*
X213306102Y-45942328D01*
X213306106Y-45942335D01*
X213392352Y-46057544D01*
X213392355Y-46057547D01*
X213507564Y-46143793D01*
X213507571Y-46143797D01*
X213642417Y-46194091D01*
X213642416Y-46194091D01*
X213649344Y-46194835D01*
X213702027Y-46200500D01*
X215597772Y-46200499D01*
X215657383Y-46194091D01*
X215792231Y-46143796D01*
X215907446Y-46057546D01*
X215993696Y-45942331D01*
X216022355Y-45865493D01*
X216064226Y-45809559D01*
X216129690Y-45785141D01*
X216197963Y-45799992D01*
X216229766Y-45824843D01*
X216237202Y-45832920D01*
X216238115Y-45833912D01*
X216238122Y-45833918D01*
X216421265Y-45976464D01*
X216421271Y-45976468D01*
X216421274Y-45976470D01*
X216625397Y-46086936D01*
X216739387Y-46126068D01*
X216844915Y-46162297D01*
X216844917Y-46162297D01*
X216844919Y-46162298D01*
X217073851Y-46200500D01*
X217073852Y-46200500D01*
X217305948Y-46200500D01*
X217305949Y-46200500D01*
X217534881Y-46162298D01*
X217754403Y-46086936D01*
X217958526Y-45976470D01*
X218141684Y-45833913D01*
X218298879Y-45663153D01*
X218301193Y-45659611D01*
X218311277Y-45644178D01*
X218364424Y-45598821D01*
X218415085Y-45588000D01*
X220767848Y-45588000D01*
X220834887Y-45607685D01*
X220855529Y-45624319D01*
X220943529Y-45712319D01*
X220977014Y-45773642D01*
X220972030Y-45843334D01*
X220943529Y-45887681D01*
X220829561Y-46001648D01*
X220738993Y-46148481D01*
X220738991Y-46148486D01*
X220715037Y-46220775D01*
X220684726Y-46312247D01*
X220684726Y-46312248D01*
X220684725Y-46312248D01*
X220674400Y-46413315D01*
X220674400Y-47011669D01*
X220674401Y-47011687D01*
X220684725Y-47112752D01*
X220721009Y-47222249D01*
X220738317Y-47274480D01*
X220738992Y-47276515D01*
X220738993Y-47276518D01*
X220768150Y-47323789D01*
X220811734Y-47394450D01*
X220829561Y-47423351D01*
X220913081Y-47506871D01*
X220946566Y-47568194D01*
X220949400Y-47594552D01*
X220949400Y-48729189D01*
X220929715Y-48796228D01*
X220917550Y-48812161D01*
X220867466Y-48867785D01*
X220772821Y-49031715D01*
X220772818Y-49031722D01*
X220725171Y-49178366D01*
X220714326Y-49211744D01*
X220694540Y-49400000D01*
X220714326Y-49588256D01*
X220714327Y-49588259D01*
X220772818Y-49768277D01*
X220772821Y-49768284D01*
X220867466Y-49932215D01*
X220917549Y-49987837D01*
X220947780Y-50050829D01*
X220949400Y-50070810D01*
X220949400Y-51005448D01*
X220929715Y-51072487D01*
X220913081Y-51093129D01*
X220829561Y-51176648D01*
X220738993Y-51323481D01*
X220738992Y-51323484D01*
X220684726Y-51487247D01*
X220684726Y-51487248D01*
X220684725Y-51487248D01*
X220674400Y-51588315D01*
X220674400Y-52186669D01*
X220674401Y-52186687D01*
X220684725Y-52287752D01*
X220738992Y-52451515D01*
X220738993Y-52451518D01*
X220759430Y-52484651D01*
X220812009Y-52569896D01*
X220829561Y-52598351D01*
X220943529Y-52712319D01*
X220977014Y-52773642D01*
X220972030Y-52843334D01*
X220943529Y-52887681D01*
X220855529Y-52975681D01*
X220794206Y-53009166D01*
X220767848Y-53012000D01*
X219443918Y-53012000D01*
X219376879Y-52992315D01*
X219356237Y-52975681D01*
X218592681Y-52212124D01*
X218559196Y-52150801D01*
X218560157Y-52094001D01*
X218576032Y-52031313D01*
X218576035Y-52031297D01*
X218595200Y-51800006D01*
X218595200Y-51799993D01*
X218576035Y-51568702D01*
X218576033Y-51568691D01*
X218519057Y-51343699D01*
X218425824Y-51131151D01*
X218298883Y-50936852D01*
X218298880Y-50936849D01*
X218298879Y-50936847D01*
X218141684Y-50766087D01*
X218141679Y-50766083D01*
X218141677Y-50766081D01*
X217958534Y-50623535D01*
X217958528Y-50623531D01*
X217754404Y-50513064D01*
X217754395Y-50513061D01*
X217534884Y-50437702D01*
X217344350Y-50405908D01*
X217305949Y-50399500D01*
X217073851Y-50399500D01*
X217035450Y-50405908D01*
X216844915Y-50437702D01*
X216625404Y-50513061D01*
X216625395Y-50513064D01*
X216421271Y-50623531D01*
X216421265Y-50623535D01*
X216238122Y-50766081D01*
X216238118Y-50766085D01*
X216229766Y-50775158D01*
X216169879Y-50811148D01*
X216100041Y-50809047D01*
X216042425Y-50769522D01*
X216022355Y-50734507D01*
X215993697Y-50657671D01*
X215993693Y-50657664D01*
X215907447Y-50542455D01*
X215907444Y-50542452D01*
X215792235Y-50456206D01*
X215792228Y-50456202D01*
X215657382Y-50405908D01*
X215657383Y-50405908D01*
X215597783Y-50399501D01*
X215597781Y-50399500D01*
X215597773Y-50399500D01*
X215597764Y-50399500D01*
X213702029Y-50399500D01*
X213702023Y-50399501D01*
X213642416Y-50405908D01*
X213507571Y-50456202D01*
X213507564Y-50456206D01*
X213392355Y-50542452D01*
X213392352Y-50542455D01*
X213306106Y-50657664D01*
X213306102Y-50657671D01*
X213255808Y-50792517D01*
X213249401Y-50852116D01*
X213249400Y-50852135D01*
X213249400Y-52158481D01*
X213229715Y-52225520D01*
X213213081Y-52246162D01*
X210096062Y-55363181D01*
X210034739Y-55396666D01*
X210008381Y-55399500D01*
X209248547Y-55399500D01*
X209181508Y-55379815D01*
X209148230Y-55348385D01*
X209055108Y-55220213D01*
X209055107Y-55220211D01*
X208904792Y-55069896D01*
X208904784Y-55069890D01*
X208740204Y-54950316D01*
X208697540Y-54894989D01*
X208691561Y-54825376D01*
X208724166Y-54763580D01*
X208740199Y-54749686D01*
X208904792Y-54630104D01*
X209055104Y-54479792D01*
X209055106Y-54479788D01*
X209055109Y-54479786D01*
X209180048Y-54307820D01*
X209180047Y-54307820D01*
X209180051Y-54307816D01*
X209276557Y-54118412D01*
X209342246Y-53916243D01*
X209375500Y-53706287D01*
X209375500Y-53493713D01*
X209342246Y-53283757D01*
X209332533Y-53253867D01*
X209330538Y-53184029D01*
X209362782Y-53127872D01*
X210544113Y-51946543D01*
X210620774Y-51831812D01*
X210620775Y-51831811D01*
X210662530Y-51731006D01*
X210673580Y-51704329D01*
X210679541Y-51674357D01*
X210685557Y-51644117D01*
X210685557Y-51644114D01*
X210700500Y-51568993D01*
X210700500Y-47341519D01*
X210720185Y-47274480D01*
X210736819Y-47253838D01*
X212453838Y-45536819D01*
X212515161Y-45503334D01*
X212541519Y-45500500D01*
X213125401Y-45500500D01*
X213192440Y-45520185D01*
G37*
%TD.AperFunction*%
%TA.AperFunction,Conductor*%
G36*
X200475520Y-42170185D02*
G01*
X200496162Y-42186819D01*
X206437214Y-48127871D01*
X206470699Y-48189194D01*
X206467465Y-48253866D01*
X206457754Y-48283754D01*
X206457753Y-48283758D01*
X206443410Y-48374317D01*
X206413480Y-48437451D01*
X206354168Y-48474382D01*
X206284306Y-48473384D01*
X206233256Y-48442599D01*
X204146546Y-46355888D01*
X204146545Y-46355887D01*
X204031807Y-46279222D01*
X203904332Y-46226421D01*
X203904322Y-46226418D01*
X203768996Y-46199500D01*
X203768994Y-46199500D01*
X203768993Y-46199500D01*
X199239219Y-46199500D01*
X199172180Y-46179815D01*
X199151538Y-46163181D01*
X197482460Y-44494103D01*
X197448975Y-44432780D01*
X197453959Y-44363088D01*
X197495831Y-44307155D01*
X197529874Y-44289143D01*
X197559049Y-44279128D01*
X197761569Y-44169529D01*
X197785785Y-44150681D01*
X197922308Y-44044422D01*
X197987302Y-44018779D01*
X198055842Y-44032346D01*
X198074632Y-44044422D01*
X198235362Y-44169523D01*
X198235368Y-44169527D01*
X198235371Y-44169529D01*
X198437891Y-44279128D01*
X198498978Y-44300099D01*
X198655685Y-44353897D01*
X198655687Y-44353897D01*
X198655689Y-44353898D01*
X198882823Y-44391800D01*
X198882824Y-44391800D01*
X199113096Y-44391800D01*
X199113097Y-44391800D01*
X199340231Y-44353898D01*
X199558029Y-44279128D01*
X199760549Y-44169529D01*
X199942268Y-44028092D01*
X200098229Y-43858673D01*
X200224177Y-43665895D01*
X200316677Y-43455016D01*
X200373206Y-43231788D01*
X200383930Y-43102365D01*
X200392222Y-43002305D01*
X200392222Y-43002294D01*
X200376733Y-42815378D01*
X200373206Y-42772812D01*
X200316677Y-42549584D01*
X200245647Y-42387652D01*
X200224175Y-42338700D01*
X200221737Y-42334195D01*
X200223750Y-42333105D01*
X200206352Y-42275393D01*
X200225554Y-42208213D01*
X200278027Y-42162079D01*
X200330349Y-42150500D01*
X200408481Y-42150500D01*
X200475520Y-42170185D01*
G37*
%TD.AperFunction*%
%TA.AperFunction,Conductor*%
G36*
X203625520Y-41420185D02*
G01*
X203646162Y-41436819D01*
X206849217Y-44639874D01*
X206882702Y-44701197D01*
X206877718Y-44770889D01*
X206835846Y-44826822D01*
X206826639Y-44833089D01*
X206802672Y-44847873D01*
X206706342Y-44907289D01*
X206582289Y-45031342D01*
X206490187Y-45180663D01*
X206490185Y-45180668D01*
X206465984Y-45253703D01*
X206435001Y-45347203D01*
X206435001Y-45347204D01*
X206435000Y-45347204D01*
X206424500Y-45449983D01*
X206424500Y-45834481D01*
X206404815Y-45901520D01*
X206352011Y-45947275D01*
X206282853Y-45957219D01*
X206219297Y-45928194D01*
X206212819Y-45922162D01*
X201902838Y-41612181D01*
X201869353Y-41550858D01*
X201874337Y-41481166D01*
X201916209Y-41425233D01*
X201981673Y-41400816D01*
X201990519Y-41400500D01*
X203558481Y-41400500D01*
X203625520Y-41420185D01*
G37*
%TD.AperFunction*%
%TD*%
M02*
