%TF.GenerationSoftware,KiCad,Pcbnew,8.0.1-8.0.1-1~ubuntu22.04.1*%
%TF.CreationDate,2024-05-06T17:23:11+02:00*%
%TF.ProjectId,Pojet 1A,506f6a65-7420-4314-912e-6b696361645f,rev?*%
%TF.SameCoordinates,Original*%
%TF.FileFunction,Copper,L2,Inr*%
%TF.FilePolarity,Positive*%
%FSLAX46Y46*%
G04 Gerber Fmt 4.6, Leading zero omitted, Abs format (unit mm)*
G04 Created by KiCad (PCBNEW 8.0.1-8.0.1-1~ubuntu22.04.1) date 2024-05-06 17:23:11*
%MOMM*%
%LPD*%
G01*
G04 APERTURE LIST*
G04 Aperture macros list*
%AMRoundRect*
0 Rectangle with rounded corners*
0 $1 Rounding radius*
0 $2 $3 $4 $5 $6 $7 $8 $9 X,Y pos of 4 corners*
0 Add a 4 corners polygon primitive as box body*
4,1,4,$2,$3,$4,$5,$6,$7,$8,$9,$2,$3,0*
0 Add four circle primitives for the rounded corners*
1,1,$1+$1,$2,$3*
1,1,$1+$1,$4,$5*
1,1,$1+$1,$6,$7*
1,1,$1+$1,$8,$9*
0 Add four rect primitives between the rounded corners*
20,1,$1+$1,$2,$3,$4,$5,0*
20,1,$1+$1,$4,$5,$6,$7,0*
20,1,$1+$1,$6,$7,$8,$9,0*
20,1,$1+$1,$8,$9,$2,$3,0*%
G04 Aperture macros list end*
%TA.AperFunction,ComponentPad*%
%ADD10R,1.700000X1.700000*%
%TD*%
%TA.AperFunction,ComponentPad*%
%ADD11O,1.700000X1.700000*%
%TD*%
%TA.AperFunction,ComponentPad*%
%ADD12C,1.600000*%
%TD*%
%TA.AperFunction,ComponentPad*%
%ADD13R,2.200000X2.200000*%
%TD*%
%TA.AperFunction,ComponentPad*%
%ADD14O,2.200000X2.200000*%
%TD*%
%TA.AperFunction,ComponentPad*%
%ADD15C,5.600000*%
%TD*%
%TA.AperFunction,ComponentPad*%
%ADD16RoundRect,0.250000X-0.600000X-0.750000X0.600000X-0.750000X0.600000X0.750000X-0.600000X0.750000X0*%
%TD*%
%TA.AperFunction,ComponentPad*%
%ADD17O,1.700000X2.000000*%
%TD*%
%TA.AperFunction,ComponentPad*%
%ADD18C,3.400000*%
%TD*%
%TA.AperFunction,ComponentPad*%
%ADD19C,3.000000*%
%TD*%
%TA.AperFunction,ComponentPad*%
%ADD20R,1.800000X1.800000*%
%TD*%
%TA.AperFunction,ComponentPad*%
%ADD21C,1.800000*%
%TD*%
%TA.AperFunction,ComponentPad*%
%ADD22C,1.100000*%
%TD*%
%TA.AperFunction,ViaPad*%
%ADD23C,0.500000*%
%TD*%
%TA.AperFunction,ViaPad*%
%ADD24C,0.600000*%
%TD*%
G04 APERTURE END LIST*
D10*
%TO.N,+5V*%
%TO.C,J5*%
X181700000Y-80200000D03*
D11*
%TO.N,LINEOUT_L*%
X181700000Y-82740000D03*
%TO.N,LINEOUT_R*%
X181700000Y-85280000D03*
%TO.N,Potar_volume*%
X181700000Y-87820000D03*
%TO.N,LIGHT*%
X181700000Y-90360000D03*
%TD*%
D12*
%TO.N,Net-(C24-Pad1)*%
%TO.C,C28*%
X147500000Y-75900000D03*
%TO.N,Net-(J2-Pin_1)*%
X147500000Y-73900000D03*
%TD*%
D13*
%TO.N,Net-(D1-K)*%
%TO.C,D1*%
X135000000Y-112920000D03*
D14*
%TO.N,GND*%
X135000000Y-123080000D03*
%TD*%
D12*
%TO.N,Net-(C25-Pad1)*%
%TO.C,C32*%
X136600000Y-76100000D03*
%TO.N,Net-(J3-Pin_1)*%
X136600000Y-74100000D03*
%TD*%
D15*
%TO.N,GND*%
%TO.C,H2*%
X128000000Y-121000000D03*
%TD*%
D16*
%TO.N,Net-(J3-Pin_1)*%
%TO.C,J3*%
X136600000Y-68200000D03*
D17*
%TO.N,GND*%
X139100000Y-68200000D03*
%TD*%
D15*
%TO.N,GND*%
%TO.C,H1*%
X180000000Y-121000000D03*
%TD*%
%TO.N,GND*%
%TO.C,H4*%
X128000000Y-69000000D03*
%TD*%
D13*
%TO.N,Net-(D3-K)*%
%TO.C,D3*%
X150380000Y-114700000D03*
D14*
%TO.N,Net-(D1-K)*%
X140220000Y-114700000D03*
%TD*%
D10*
%TO.N,GND*%
%TO.C,J6*%
X126300000Y-85840000D03*
D11*
%TO.N,A Encodeur 1*%
X126300000Y-88380000D03*
%TO.N,B Encodeur 1*%
X126300000Y-90920000D03*
%TO.N,B Encodeur 2*%
X126300000Y-93460000D03*
%TO.N,A Encodeur 2*%
X126300000Y-96000000D03*
%TO.N,TIM3_CH1*%
X126300000Y-98540000D03*
%TO.N,TIM3_CH2*%
X126300000Y-101080000D03*
%TO.N,TIM3_CH3*%
X126300000Y-103620000D03*
%TO.N,TIM3_CH4*%
X126300000Y-106160000D03*
%TO.N,+3.3V*%
X126300000Y-108700000D03*
%TD*%
D16*
%TO.N,Net-(J2-Pin_1)*%
%TO.C,J2*%
X147500000Y-68000000D03*
D17*
%TO.N,GND*%
X150000000Y-68000000D03*
%TD*%
D16*
%TO.N,V_BAT+*%
%TO.C,J4*%
X170250000Y-120375000D03*
D17*
%TO.N,V_BAT-*%
X172750000Y-120375000D03*
%TD*%
D10*
%TO.N,EQ_BAND_BTN*%
%TO.C,J8*%
X154420000Y-122800000D03*
D11*
%TO.N,band3*%
X156960000Y-122800000D03*
%TO.N,band2*%
X159500000Y-122800000D03*
%TO.N,band1*%
X162040000Y-122800000D03*
%TO.N,band0*%
X164580000Y-122800000D03*
%TD*%
D15*
%TO.N,GND*%
%TO.C,H3*%
X180000000Y-69000000D03*
%TD*%
D18*
%TO.N,LINEIN_R*%
%TO.C,J7*%
X162920000Y-73000000D03*
%TO.N,LINEIN_L*%
X173080000Y-73000000D03*
D19*
%TO.N,GND*%
X168000000Y-67280000D03*
%TD*%
D20*
%TO.N,Net-(D2-K)*%
%TO.C,D2*%
X176760000Y-108000000D03*
D21*
%TO.N,REGN*%
X179300000Y-108000000D03*
%TD*%
D22*
%TO.N,GND*%
%TO.C,J1*%
X143200000Y-119000000D03*
X143200000Y-123300000D03*
X148000000Y-119000000D03*
X148000000Y-123300000D03*
%TD*%
D23*
%TO.N,V_BAT+*%
X165900000Y-120200000D03*
X169800000Y-103950000D03*
D24*
X161222500Y-113300000D03*
D23*
X161800000Y-113300000D03*
D24*
%TO.N,V_SYS*%
X131300000Y-81800000D03*
X144800000Y-83300000D03*
D23*
X171750000Y-94500000D03*
X171000000Y-105250000D03*
X143600000Y-82300000D03*
X131500000Y-82750000D03*
%TO.N,UCPD_CC1*%
X155800000Y-112900000D03*
%TO.N,Net-(D1-K)*%
X147857428Y-117057428D03*
X143000000Y-107800000D03*
X147200000Y-112300000D03*
X153200000Y-116600000D03*
X144350000Y-123350000D03*
X144800000Y-117300000D03*
%TO.N,A Encodeur 1*%
X150325000Y-94200000D03*
%TO.N,B Encodeur 1*%
X149200000Y-94300000D03*
%TO.N,A Encodeur 2*%
X148750000Y-97550000D03*
%TO.N,B Encodeur 2*%
X148100000Y-94189950D03*
%TO.N,V_sense*%
X147100000Y-97700000D03*
%TO.N,SYS_MCLK*%
X155700000Y-95800000D03*
X143800000Y-94650000D03*
%TO.N,LIGHT*%
X145350000Y-97700000D03*
%TO.N,Potar_volume*%
X146250000Y-99350000D03*
%TO.N,I2S_SCLK*%
X148200000Y-99600000D03*
X155400000Y-97900000D03*
%TO.N,I2S_LRCLK*%
X156000000Y-96700000D03*
X150000000Y-99200000D03*
%TO.N,I2S_DIN*%
X159100000Y-98800000D03*
X150700000Y-100800000D03*
D24*
%TO.N,USB_DM*%
X148400000Y-106600000D03*
%TO.N,USB_DP*%
X149900000Y-106100000D03*
D23*
%TO.N,I2S_DOUT*%
X154800000Y-99900000D03*
X157200000Y-100036504D03*
%TO.N,CTRL_DATA*%
X159000000Y-99900000D03*
X156400000Y-99200000D03*
%TO.N,UCPD_CC2*%
X156000000Y-111700000D03*
%TO.N,CTRL_CLK*%
X160500000Y-100700000D03*
X153800000Y-101300000D03*
%TO.N,NRST*%
X169600000Y-89800000D03*
X147100000Y-93700000D03*
X158900000Y-81400000D03*
X167600000Y-85400000D03*
%TO.N,GND*%
X160500000Y-117500000D03*
X162500000Y-82100000D03*
X140100000Y-101000000D03*
X182200000Y-101300000D03*
X150500000Y-120000000D03*
X143000000Y-70000000D03*
X156000000Y-74000000D03*
X160450000Y-95800000D03*
X135792001Y-92350000D03*
X179000000Y-92000000D03*
X140500000Y-120000000D03*
X132000000Y-118000000D03*
X142400000Y-117500000D03*
X166300000Y-119100000D03*
X163100000Y-93800000D03*
X149700000Y-117100000D03*
X140200000Y-108800000D03*
X158300000Y-112100000D03*
X156800000Y-117300000D03*
D24*
X140400000Y-111800000D03*
D23*
X163400000Y-111700000D03*
X162900000Y-99600000D03*
X154100000Y-96500000D03*
X142600000Y-103600000D03*
X167800000Y-116800000D03*
X168000000Y-87000000D03*
X155500000Y-94700000D03*
D24*
X157700000Y-107500000D03*
D23*
X151100000Y-122400000D03*
X156500000Y-80900000D03*
X151100000Y-105900000D03*
X152300000Y-84375000D03*
X181000000Y-75000000D03*
X168750000Y-105000000D03*
X158100000Y-104300000D03*
X168212500Y-97500000D03*
X181957000Y-95793000D03*
X132000000Y-110000000D03*
X132225001Y-88925000D03*
D24*
X166300000Y-92900000D03*
D23*
X143000000Y-80000000D03*
X156000000Y-70000000D03*
X145300000Y-100800000D03*
X156600000Y-93700000D03*
X149800000Y-109200000D03*
X142800000Y-90200000D03*
X155500000Y-109287500D03*
X179000000Y-87000000D03*
X167900000Y-82200000D03*
X132000000Y-85000000D03*
X139300000Y-83350000D03*
X179300000Y-83200000D03*
X141498000Y-123495000D03*
X133000000Y-70000000D03*
X166560000Y-113440000D03*
%TO.N,LINEIN_R*%
X160800000Y-92100000D03*
%TO.N,LINEIN_L*%
X161800000Y-90800000D03*
%TO.N,SWDIO*%
X157800000Y-102375000D03*
X154900000Y-102475000D03*
%TO.N,SWCLK*%
X161400000Y-101700000D03*
X155700000Y-101725000D03*
%TO.N,SWO*%
X162900000Y-102100000D03*
X149800000Y-102000000D03*
%TO.N,V_BUS*%
X157700000Y-110400000D03*
X169850000Y-110050000D03*
X138800000Y-110400000D03*
X169400000Y-110500000D03*
%TO.N,+5V*%
X158800000Y-84800000D03*
X151600000Y-88200000D03*
X141000000Y-91900000D03*
X141300000Y-88700000D03*
X169100000Y-84900000D03*
%TO.N,+3.3V*%
X156800000Y-94800000D03*
X157700000Y-109000000D03*
X151800000Y-94200000D03*
X140150000Y-99550000D03*
X145300000Y-102750000D03*
X150600000Y-97300000D03*
X156300000Y-94400000D03*
D24*
X167500000Y-94900000D03*
X150800000Y-102400000D03*
D23*
%TO.N,+1V8*%
X163200000Y-98400000D03*
%TO.N,+3.3VA*%
X138981250Y-102018750D03*
D24*
X163400000Y-89700000D03*
D23*
X162900000Y-95200000D03*
%TO.N,UCPD_CC1c*%
X145000000Y-123800000D03*
D24*
X146300000Y-112500000D03*
%TD*%
%TA.AperFunction,Conductor*%
%TO.N,GND*%
G36*
X180000733Y-65000008D02*
G01*
X180191077Y-65002343D01*
X180201681Y-65002930D01*
X180581224Y-65040312D01*
X180593249Y-65042096D01*
X180966527Y-65116345D01*
X180978329Y-65119301D01*
X181342544Y-65229785D01*
X181354001Y-65233884D01*
X181649078Y-65356109D01*
X181705627Y-65379532D01*
X181716626Y-65384734D01*
X182052282Y-65564147D01*
X182062713Y-65570399D01*
X182379169Y-65781849D01*
X182388942Y-65789097D01*
X182683148Y-66030544D01*
X182692165Y-66038717D01*
X182961282Y-66307834D01*
X182969455Y-66316851D01*
X183210902Y-66611057D01*
X183218150Y-66620830D01*
X183429600Y-66937286D01*
X183435856Y-66947724D01*
X183615264Y-67283372D01*
X183620467Y-67294372D01*
X183766114Y-67645997D01*
X183770214Y-67657455D01*
X183880698Y-68021670D01*
X183883654Y-68033474D01*
X183957902Y-68406744D01*
X183959688Y-68418781D01*
X183997068Y-68798304D01*
X183997656Y-68808937D01*
X183999991Y-68999266D01*
X184000000Y-69000787D01*
X184000000Y-120999212D01*
X183999991Y-121000733D01*
X183997656Y-121191062D01*
X183997068Y-121201695D01*
X183959688Y-121581218D01*
X183957902Y-121593255D01*
X183883654Y-121966525D01*
X183880698Y-121978329D01*
X183770214Y-122342544D01*
X183766114Y-122354002D01*
X183620467Y-122705627D01*
X183615264Y-122716627D01*
X183435856Y-123052275D01*
X183429600Y-123062713D01*
X183218150Y-123379169D01*
X183210902Y-123388942D01*
X182969455Y-123683148D01*
X182961282Y-123692165D01*
X182692165Y-123961282D01*
X182683148Y-123969455D01*
X182388942Y-124210902D01*
X182379169Y-124218150D01*
X182062713Y-124429600D01*
X182052275Y-124435856D01*
X181716627Y-124615264D01*
X181705627Y-124620467D01*
X181354002Y-124766114D01*
X181342544Y-124770214D01*
X180978329Y-124880698D01*
X180966525Y-124883654D01*
X180593255Y-124957902D01*
X180581218Y-124959688D01*
X180201695Y-124997068D01*
X180191062Y-124997656D01*
X180000734Y-124999991D01*
X179999213Y-125000000D01*
X128000787Y-125000000D01*
X127999266Y-124999991D01*
X127808937Y-124997656D01*
X127798304Y-124997068D01*
X127418781Y-124959688D01*
X127406744Y-124957902D01*
X127033474Y-124883654D01*
X127021670Y-124880698D01*
X126657455Y-124770214D01*
X126645997Y-124766114D01*
X126294372Y-124620467D01*
X126283372Y-124615264D01*
X125947724Y-124435856D01*
X125937286Y-124429600D01*
X125620830Y-124218150D01*
X125611057Y-124210902D01*
X125316851Y-123969455D01*
X125307834Y-123961282D01*
X125038717Y-123692165D01*
X125030544Y-123683148D01*
X125020904Y-123671402D01*
X124857508Y-123472302D01*
X124789097Y-123388942D01*
X124781849Y-123379169D01*
X124628724Y-123150002D01*
X124570396Y-123062708D01*
X124564143Y-123052275D01*
X124536200Y-122999998D01*
X124384734Y-122716626D01*
X124379532Y-122705627D01*
X124233885Y-122354002D01*
X124229785Y-122342544D01*
X124173738Y-122157783D01*
X124119300Y-121978327D01*
X124116345Y-121966525D01*
X124106477Y-121916914D01*
X124042096Y-121593249D01*
X124040311Y-121581218D01*
X124002930Y-121201681D01*
X124002343Y-121191075D01*
X124000009Y-121000732D01*
X124000005Y-121000002D01*
X124695153Y-121000002D01*
X124714526Y-121357314D01*
X124714527Y-121357331D01*
X124772415Y-121710431D01*
X124772421Y-121710457D01*
X124868147Y-122055232D01*
X124868149Y-122055239D01*
X125000597Y-122387659D01*
X125000606Y-122387677D01*
X125168218Y-122703827D01*
X125369024Y-122999994D01*
X125369035Y-123000008D01*
X125496441Y-123150002D01*
X125496442Y-123150002D01*
X126705747Y-121940697D01*
X126779588Y-122042330D01*
X126957670Y-122220412D01*
X127059300Y-122294251D01*
X125847257Y-123506294D01*
X125860495Y-123518836D01*
X126145367Y-123735388D01*
X126145370Y-123735390D01*
X126451990Y-123919876D01*
X126776739Y-124070122D01*
X126776744Y-124070123D01*
X127115855Y-124184383D01*
X127465339Y-124261311D01*
X127821075Y-124299999D01*
X127821085Y-124300000D01*
X128178915Y-124300000D01*
X128178924Y-124299999D01*
X128534660Y-124261311D01*
X128884144Y-124184383D01*
X129223255Y-124070123D01*
X129223260Y-124070122D01*
X129548009Y-123919876D01*
X129854629Y-123735390D01*
X129854632Y-123735388D01*
X130139509Y-123518831D01*
X130152742Y-123506295D01*
X130152742Y-123506294D01*
X129976448Y-123330000D01*
X133414728Y-123330000D01*
X133414811Y-123331067D01*
X133473603Y-123575956D01*
X133569980Y-123808631D01*
X133701568Y-124023362D01*
X133701571Y-124023367D01*
X133865130Y-124214869D01*
X134056632Y-124378428D01*
X134056637Y-124378431D01*
X134271368Y-124510019D01*
X134504043Y-124606396D01*
X134748932Y-124665188D01*
X134749999Y-124665271D01*
X134750000Y-124665271D01*
X134750000Y-123570747D01*
X134787708Y-123592518D01*
X134927591Y-123630000D01*
X135072409Y-123630000D01*
X135212292Y-123592518D01*
X135250000Y-123570747D01*
X135250000Y-124665271D01*
X135251067Y-124665188D01*
X135495956Y-124606396D01*
X135728631Y-124510019D01*
X135943362Y-124378431D01*
X135943367Y-124378428D01*
X136134869Y-124214869D01*
X136148403Y-124199023D01*
X142654528Y-124199023D01*
X142796233Y-124274766D01*
X142994165Y-124334808D01*
X143200000Y-124355080D01*
X143405834Y-124334808D01*
X143603764Y-124274766D01*
X143745470Y-124199022D01*
X143200001Y-123653553D01*
X143200000Y-123653553D01*
X142654528Y-124199023D01*
X136148403Y-124199023D01*
X136298428Y-124023367D01*
X136298431Y-124023362D01*
X136430019Y-123808631D01*
X136526396Y-123575956D01*
X136585188Y-123331067D01*
X136585272Y-123330000D01*
X135490748Y-123330000D01*
X135508068Y-123300000D01*
X142144919Y-123300000D01*
X142165191Y-123505834D01*
X142225233Y-123703766D01*
X142300975Y-123845469D01*
X142300976Y-123845469D01*
X142800369Y-123346078D01*
X142850000Y-123346078D01*
X142873852Y-123435095D01*
X142919930Y-123514905D01*
X142985095Y-123580070D01*
X143064905Y-123626148D01*
X143153922Y-123650000D01*
X143246078Y-123650000D01*
X143335095Y-123626148D01*
X143414905Y-123580070D01*
X143480070Y-123514905D01*
X143526148Y-123435095D01*
X143550000Y-123346078D01*
X143550000Y-123300001D01*
X143553553Y-123300001D01*
X143562951Y-123309399D01*
X143596436Y-123370722D01*
X143598490Y-123383196D01*
X143613685Y-123518055D01*
X143669545Y-123677694D01*
X143669547Y-123677697D01*
X143759518Y-123820884D01*
X143759523Y-123820890D01*
X143879109Y-123940476D01*
X143879115Y-123940481D01*
X144022302Y-124030452D01*
X144022308Y-124030455D01*
X144022310Y-124030456D01*
X144181941Y-124086313D01*
X144242709Y-124093159D01*
X144307120Y-124120224D01*
X144333817Y-124150407D01*
X144409518Y-124270884D01*
X144409523Y-124270890D01*
X144529109Y-124390476D01*
X144529115Y-124390481D01*
X144672302Y-124480452D01*
X144672305Y-124480454D01*
X144672309Y-124480455D01*
X144672310Y-124480456D01*
X144744913Y-124505860D01*
X144831943Y-124536314D01*
X144999997Y-124555249D01*
X145000000Y-124555249D01*
X145000003Y-124555249D01*
X145168056Y-124536314D01*
X145168059Y-124536313D01*
X145327690Y-124480456D01*
X145327692Y-124480454D01*
X145327694Y-124480454D01*
X145327697Y-124480452D01*
X145470884Y-124390481D01*
X145470885Y-124390480D01*
X145470890Y-124390477D01*
X145590477Y-124270890D01*
X145628170Y-124210902D01*
X145635634Y-124199023D01*
X147454528Y-124199023D01*
X147596233Y-124274766D01*
X147794165Y-124334808D01*
X148000000Y-124355080D01*
X148205834Y-124334808D01*
X148403764Y-124274766D01*
X148545470Y-124199022D01*
X148000001Y-123653553D01*
X148000000Y-123653553D01*
X147454528Y-124199023D01*
X145635634Y-124199023D01*
X145680452Y-124127697D01*
X145680454Y-124127694D01*
X145680454Y-124127692D01*
X145680456Y-124127690D01*
X145736313Y-123968059D01*
X145736313Y-123968058D01*
X145736314Y-123968056D01*
X145755249Y-123800002D01*
X145755249Y-123799997D01*
X145736314Y-123631943D01*
X145696463Y-123518055D01*
X145680456Y-123472310D01*
X145680455Y-123472309D01*
X145680454Y-123472305D01*
X145680452Y-123472302D01*
X145590481Y-123329115D01*
X145590476Y-123329109D01*
X145561367Y-123300000D01*
X146944919Y-123300000D01*
X146965191Y-123505834D01*
X147025233Y-123703766D01*
X147100975Y-123845469D01*
X147100976Y-123845469D01*
X147600369Y-123346078D01*
X147650000Y-123346078D01*
X147673852Y-123435095D01*
X147719930Y-123514905D01*
X147785095Y-123580070D01*
X147864905Y-123626148D01*
X147953922Y-123650000D01*
X148046078Y-123650000D01*
X148135095Y-123626148D01*
X148214905Y-123580070D01*
X148280070Y-123514905D01*
X148326148Y-123435095D01*
X148350000Y-123346078D01*
X148350000Y-123300000D01*
X148353553Y-123300000D01*
X148899022Y-123845469D01*
X148974766Y-123703764D01*
X148976554Y-123697870D01*
X153069500Y-123697870D01*
X153069501Y-123697876D01*
X153075908Y-123757483D01*
X153126202Y-123892328D01*
X153126206Y-123892335D01*
X153212452Y-124007544D01*
X153212455Y-124007547D01*
X153327664Y-124093793D01*
X153327671Y-124093797D01*
X153462517Y-124144091D01*
X153462516Y-124144091D01*
X153469444Y-124144835D01*
X153522127Y-124150500D01*
X155317872Y-124150499D01*
X155377483Y-124144091D01*
X155512331Y-124093796D01*
X155627546Y-124007546D01*
X155713796Y-123892331D01*
X155762810Y-123760916D01*
X155804681Y-123704984D01*
X155870145Y-123680566D01*
X155938418Y-123695417D01*
X155966673Y-123716569D01*
X156088599Y-123838495D01*
X156185384Y-123906265D01*
X156282165Y-123974032D01*
X156282167Y-123974033D01*
X156282170Y-123974035D01*
X156496337Y-124073903D01*
X156724592Y-124135063D01*
X156901034Y-124150500D01*
X156959999Y-124155659D01*
X156960000Y-124155659D01*
X156960001Y-124155659D01*
X157018966Y-124150500D01*
X157195408Y-124135063D01*
X157423663Y-124073903D01*
X157637830Y-123974035D01*
X157831401Y-123838495D01*
X157998495Y-123671401D01*
X158128425Y-123485842D01*
X158183002Y-123442217D01*
X158252500Y-123435023D01*
X158314855Y-123466546D01*
X158331575Y-123485842D01*
X158461500Y-123671395D01*
X158461505Y-123671401D01*
X158628599Y-123838495D01*
X158725384Y-123906265D01*
X158822165Y-123974032D01*
X158822167Y-123974033D01*
X158822170Y-123974035D01*
X159036337Y-124073903D01*
X159264592Y-124135063D01*
X159441034Y-124150500D01*
X159499999Y-124155659D01*
X159500000Y-124155659D01*
X159500001Y-124155659D01*
X159558966Y-124150500D01*
X159735408Y-124135063D01*
X159963663Y-124073903D01*
X160177830Y-123974035D01*
X160371401Y-123838495D01*
X160538495Y-123671401D01*
X160668425Y-123485842D01*
X160723002Y-123442217D01*
X160792500Y-123435023D01*
X160854855Y-123466546D01*
X160871575Y-123485842D01*
X161001500Y-123671395D01*
X161001505Y-123671401D01*
X161168599Y-123838495D01*
X161265384Y-123906265D01*
X161362165Y-123974032D01*
X161362167Y-123974033D01*
X161362170Y-123974035D01*
X161576337Y-124073903D01*
X161804592Y-124135063D01*
X161981034Y-124150500D01*
X162039999Y-124155659D01*
X162040000Y-124155659D01*
X162040001Y-124155659D01*
X162098966Y-124150500D01*
X162275408Y-124135063D01*
X162503663Y-124073903D01*
X162717830Y-123974035D01*
X162911401Y-123838495D01*
X163078495Y-123671401D01*
X163208425Y-123485842D01*
X163263002Y-123442217D01*
X163332500Y-123435023D01*
X163394855Y-123466546D01*
X163411575Y-123485842D01*
X163541500Y-123671395D01*
X163541505Y-123671401D01*
X163708599Y-123838495D01*
X163805384Y-123906265D01*
X163902165Y-123974032D01*
X163902167Y-123974033D01*
X163902170Y-123974035D01*
X164116337Y-124073903D01*
X164344592Y-124135063D01*
X164521034Y-124150500D01*
X164579999Y-124155659D01*
X164580000Y-124155659D01*
X164580001Y-124155659D01*
X164638966Y-124150500D01*
X164815408Y-124135063D01*
X165043663Y-124073903D01*
X165257830Y-123974035D01*
X165451401Y-123838495D01*
X165618495Y-123671401D01*
X165754035Y-123477830D01*
X165853903Y-123263663D01*
X165915063Y-123035408D01*
X165935659Y-122800000D01*
X165915063Y-122564592D01*
X165858636Y-122354002D01*
X165853905Y-122336344D01*
X165853904Y-122336343D01*
X165853903Y-122336337D01*
X165754035Y-122122171D01*
X165748425Y-122114158D01*
X165618494Y-121928597D01*
X165451402Y-121761506D01*
X165451395Y-121761501D01*
X165257834Y-121625967D01*
X165257830Y-121625965D01*
X165233280Y-121614517D01*
X165043663Y-121526097D01*
X165043659Y-121526096D01*
X165043655Y-121526094D01*
X164815413Y-121464938D01*
X164815403Y-121464936D01*
X164580001Y-121444341D01*
X164579999Y-121444341D01*
X164344596Y-121464936D01*
X164344586Y-121464938D01*
X164116344Y-121526094D01*
X164116335Y-121526098D01*
X163902171Y-121625964D01*
X163902169Y-121625965D01*
X163708597Y-121761505D01*
X163541505Y-121928597D01*
X163411575Y-122114158D01*
X163356998Y-122157783D01*
X163287500Y-122164977D01*
X163225145Y-122133454D01*
X163208425Y-122114158D01*
X163078494Y-121928597D01*
X162911402Y-121761506D01*
X162911395Y-121761501D01*
X162717834Y-121625967D01*
X162717830Y-121625965D01*
X162693280Y-121614517D01*
X162503663Y-121526097D01*
X162503659Y-121526096D01*
X162503655Y-121526094D01*
X162275413Y-121464938D01*
X162275403Y-121464936D01*
X162040001Y-121444341D01*
X162039999Y-121444341D01*
X161804596Y-121464936D01*
X161804586Y-121464938D01*
X161576344Y-121526094D01*
X161576335Y-121526098D01*
X161362171Y-121625964D01*
X161362169Y-121625965D01*
X161168597Y-121761505D01*
X161001505Y-121928597D01*
X160871575Y-122114158D01*
X160816998Y-122157783D01*
X160747500Y-122164977D01*
X160685145Y-122133454D01*
X160668425Y-122114158D01*
X160538494Y-121928597D01*
X160371402Y-121761506D01*
X160371395Y-121761501D01*
X160177834Y-121625967D01*
X160177830Y-121625965D01*
X160153280Y-121614517D01*
X159963663Y-121526097D01*
X159963659Y-121526096D01*
X159963655Y-121526094D01*
X159735413Y-121464938D01*
X159735403Y-121464936D01*
X159500001Y-121444341D01*
X159499999Y-121444341D01*
X159264596Y-121464936D01*
X159264586Y-121464938D01*
X159036344Y-121526094D01*
X159036335Y-121526098D01*
X158822171Y-121625964D01*
X158822169Y-121625965D01*
X158628597Y-121761505D01*
X158461505Y-121928597D01*
X158331575Y-122114158D01*
X158276998Y-122157783D01*
X158207500Y-122164977D01*
X158145145Y-122133454D01*
X158128425Y-122114158D01*
X157998494Y-121928597D01*
X157831402Y-121761506D01*
X157831395Y-121761501D01*
X157637834Y-121625967D01*
X157637830Y-121625965D01*
X157613280Y-121614517D01*
X157423663Y-121526097D01*
X157423659Y-121526096D01*
X157423655Y-121526094D01*
X157195413Y-121464938D01*
X157195403Y-121464936D01*
X156960001Y-121444341D01*
X156959999Y-121444341D01*
X156724596Y-121464936D01*
X156724586Y-121464938D01*
X156496344Y-121526094D01*
X156496335Y-121526098D01*
X156282171Y-121625964D01*
X156282169Y-121625965D01*
X156088600Y-121761503D01*
X155966673Y-121883430D01*
X155905350Y-121916914D01*
X155835658Y-121911930D01*
X155779725Y-121870058D01*
X155762810Y-121839081D01*
X155713797Y-121707671D01*
X155713793Y-121707664D01*
X155627547Y-121592455D01*
X155627544Y-121592452D01*
X155512335Y-121506206D01*
X155512328Y-121506202D01*
X155377482Y-121455908D01*
X155377483Y-121455908D01*
X155317883Y-121449501D01*
X155317881Y-121449500D01*
X155317873Y-121449500D01*
X155317864Y-121449500D01*
X153522129Y-121449500D01*
X153522123Y-121449501D01*
X153462516Y-121455908D01*
X153327671Y-121506202D01*
X153327664Y-121506206D01*
X153212455Y-121592452D01*
X153212452Y-121592455D01*
X153126206Y-121707664D01*
X153126202Y-121707671D01*
X153075908Y-121842517D01*
X153069501Y-121902116D01*
X153069500Y-121902135D01*
X153069500Y-123697870D01*
X148976554Y-123697870D01*
X149034808Y-123505834D01*
X149055080Y-123300000D01*
X149034808Y-123094165D01*
X148974766Y-122896233D01*
X148899023Y-122754528D01*
X148353553Y-123299999D01*
X148353553Y-123300000D01*
X148350000Y-123300000D01*
X148350000Y-123253922D01*
X148326148Y-123164905D01*
X148280070Y-123085095D01*
X148214905Y-123019930D01*
X148135095Y-122973852D01*
X148046078Y-122950000D01*
X147953922Y-122950000D01*
X147864905Y-122973852D01*
X147785095Y-123019930D01*
X147719930Y-123085095D01*
X147673852Y-123164905D01*
X147650000Y-123253922D01*
X147650000Y-123346078D01*
X147600369Y-123346078D01*
X147646447Y-123300000D01*
X147100976Y-122754529D01*
X147100975Y-122754529D01*
X147025234Y-122896234D01*
X146965191Y-123094166D01*
X146944919Y-123300000D01*
X145561367Y-123300000D01*
X145470890Y-123209523D01*
X145470884Y-123209518D01*
X145327697Y-123119547D01*
X145327692Y-123119544D01*
X145168053Y-123063685D01*
X145107290Y-123056839D01*
X145042876Y-123029772D01*
X145016182Y-122999593D01*
X144940477Y-122879110D01*
X144820890Y-122759523D01*
X144820884Y-122759518D01*
X144677697Y-122669547D01*
X144677694Y-122669545D01*
X144518056Y-122613685D01*
X144350003Y-122594751D01*
X144349997Y-122594751D01*
X144181943Y-122613685D01*
X144022305Y-122669545D01*
X144022302Y-122669547D01*
X143879115Y-122759518D01*
X143879109Y-122759523D01*
X143759523Y-122879109D01*
X143759518Y-122879115D01*
X143669547Y-123022302D01*
X143669544Y-123022307D01*
X143613687Y-123181941D01*
X143611189Y-123204108D01*
X143584119Y-123268521D01*
X143575652Y-123277900D01*
X143553553Y-123299999D01*
X143553553Y-123300001D01*
X143550000Y-123300001D01*
X143550000Y-123253922D01*
X143526148Y-123164905D01*
X143480070Y-123085095D01*
X143414905Y-123019930D01*
X143335095Y-122973852D01*
X143246078Y-122950000D01*
X143153922Y-122950000D01*
X143064905Y-122973852D01*
X142985095Y-123019930D01*
X142919930Y-123085095D01*
X142873852Y-123164905D01*
X142850000Y-123253922D01*
X142850000Y-123346078D01*
X142800369Y-123346078D01*
X142846447Y-123300000D01*
X142300976Y-122754529D01*
X142300975Y-122754529D01*
X142225234Y-122896234D01*
X142165191Y-123094166D01*
X142144919Y-123300000D01*
X135508068Y-123300000D01*
X135512518Y-123292292D01*
X135550000Y-123152409D01*
X135550000Y-123007591D01*
X135512518Y-122867708D01*
X135490748Y-122830000D01*
X136585271Y-122830000D01*
X136585271Y-122829999D01*
X136585188Y-122828932D01*
X136526396Y-122584043D01*
X136450567Y-122400976D01*
X142654529Y-122400976D01*
X143200000Y-122946447D01*
X143200001Y-122946447D01*
X143745469Y-122400976D01*
X147454529Y-122400976D01*
X148000000Y-122946447D01*
X148000001Y-122946447D01*
X148545469Y-122400976D01*
X148545469Y-122400975D01*
X148403766Y-122325233D01*
X148205834Y-122265191D01*
X148000000Y-122244919D01*
X147794166Y-122265191D01*
X147596234Y-122325234D01*
X147454529Y-122400975D01*
X147454529Y-122400976D01*
X143745469Y-122400976D01*
X143745469Y-122400975D01*
X143603766Y-122325233D01*
X143405834Y-122265191D01*
X143200000Y-122244919D01*
X142994166Y-122265191D01*
X142796234Y-122325234D01*
X142654529Y-122400975D01*
X142654529Y-122400976D01*
X136450567Y-122400976D01*
X136430019Y-122351368D01*
X136298431Y-122136637D01*
X136298428Y-122136632D01*
X136134869Y-121945130D01*
X135943367Y-121781571D01*
X135943362Y-121781568D01*
X135728631Y-121649980D01*
X135495956Y-121553603D01*
X135251064Y-121494811D01*
X135250000Y-121494726D01*
X135250000Y-122589252D01*
X135212292Y-122567482D01*
X135072409Y-122530000D01*
X134927591Y-122530000D01*
X134787708Y-122567482D01*
X134750000Y-122589252D01*
X134750000Y-121494726D01*
X134748935Y-121494811D01*
X134504043Y-121553603D01*
X134271368Y-121649980D01*
X134056637Y-121781568D01*
X134056632Y-121781571D01*
X133865130Y-121945130D01*
X133701571Y-122136632D01*
X133701568Y-122136637D01*
X133569980Y-122351368D01*
X133473603Y-122584043D01*
X133414811Y-122828932D01*
X133414728Y-122829999D01*
X133414729Y-122830000D01*
X134509252Y-122830000D01*
X134487482Y-122867708D01*
X134450000Y-123007591D01*
X134450000Y-123152409D01*
X134487482Y-123292292D01*
X134509252Y-123330000D01*
X133414728Y-123330000D01*
X129976448Y-123330000D01*
X128940699Y-122294251D01*
X129042330Y-122220412D01*
X129220412Y-122042330D01*
X129294251Y-121940698D01*
X130503556Y-123150002D01*
X130630972Y-122999998D01*
X130630975Y-122999994D01*
X130831781Y-122703827D01*
X130999393Y-122387677D01*
X130999402Y-122387659D01*
X131131850Y-122055239D01*
X131131852Y-122055232D01*
X131227578Y-121710457D01*
X131227584Y-121710431D01*
X131285472Y-121357331D01*
X131285473Y-121357314D01*
X131292570Y-121226424D01*
X141269500Y-121226424D01*
X141309060Y-121374065D01*
X141385484Y-121506435D01*
X141493565Y-121614516D01*
X141625935Y-121690940D01*
X141773576Y-121730500D01*
X141773578Y-121730500D01*
X141926422Y-121730500D01*
X141926424Y-121730500D01*
X142074065Y-121690940D01*
X142206435Y-121614516D01*
X142314516Y-121506435D01*
X142390940Y-121374065D01*
X142430500Y-121226424D01*
X142430500Y-121221158D01*
X148599500Y-121221158D01*
X148635988Y-121357331D01*
X148636334Y-121358624D01*
X148636335Y-121358627D01*
X148707489Y-121481871D01*
X148707491Y-121481874D01*
X148707492Y-121481875D01*
X148808125Y-121582508D01*
X148808126Y-121582509D01*
X148808128Y-121582510D01*
X148869750Y-121618087D01*
X148931375Y-121653666D01*
X149068842Y-121690500D01*
X149068844Y-121690500D01*
X149631156Y-121690500D01*
X149631158Y-121690500D01*
X149768625Y-121653666D01*
X149891875Y-121582508D01*
X149992508Y-121481875D01*
X150063666Y-121358625D01*
X150100500Y-121221158D01*
X150100500Y-121175001D01*
X168899500Y-121175001D01*
X168899501Y-121175018D01*
X168910000Y-121277796D01*
X168910001Y-121277799D01*
X168965185Y-121444331D01*
X168965187Y-121444336D01*
X168988339Y-121481871D01*
X169057288Y-121593656D01*
X169181344Y-121717712D01*
X169330666Y-121809814D01*
X169497203Y-121864999D01*
X169599991Y-121875500D01*
X170900008Y-121875499D01*
X171002797Y-121864999D01*
X171169334Y-121809814D01*
X171318656Y-121717712D01*
X171442712Y-121593656D01*
X171534814Y-121444334D01*
X171534814Y-121444331D01*
X171538178Y-121438879D01*
X171590126Y-121392154D01*
X171659088Y-121380931D01*
X171723170Y-121408774D01*
X171731398Y-121416294D01*
X171870213Y-121555109D01*
X172042179Y-121680048D01*
X172042181Y-121680049D01*
X172042184Y-121680051D01*
X172231588Y-121776557D01*
X172433757Y-121842246D01*
X172643713Y-121875500D01*
X172643714Y-121875500D01*
X172856286Y-121875500D01*
X172856287Y-121875500D01*
X173066243Y-121842246D01*
X173268412Y-121776557D01*
X173457816Y-121680051D01*
X173494132Y-121653666D01*
X173629786Y-121555109D01*
X173629788Y-121555106D01*
X173629792Y-121555104D01*
X173780104Y-121404792D01*
X173780106Y-121404788D01*
X173780109Y-121404786D01*
X173905048Y-121232820D01*
X173905047Y-121232820D01*
X173905051Y-121232816D01*
X174001557Y-121043412D01*
X174015662Y-121000002D01*
X176695153Y-121000002D01*
X176714526Y-121357314D01*
X176714527Y-121357331D01*
X176772415Y-121710431D01*
X176772421Y-121710457D01*
X176868147Y-122055232D01*
X176868149Y-122055239D01*
X177000597Y-122387659D01*
X177000606Y-122387677D01*
X177168218Y-122703827D01*
X177369024Y-122999994D01*
X177369035Y-123000008D01*
X177496441Y-123150002D01*
X177496442Y-123150002D01*
X178705747Y-121940697D01*
X178779588Y-122042330D01*
X178957670Y-122220412D01*
X179059300Y-122294251D01*
X177847257Y-123506294D01*
X177860495Y-123518836D01*
X178145367Y-123735388D01*
X178145370Y-123735390D01*
X178451990Y-123919876D01*
X178776739Y-124070122D01*
X178776744Y-124070123D01*
X179115855Y-124184383D01*
X179465339Y-124261311D01*
X179821075Y-124299999D01*
X179821085Y-124300000D01*
X180178915Y-124300000D01*
X180178924Y-124299999D01*
X180534660Y-124261311D01*
X180884144Y-124184383D01*
X181223255Y-124070123D01*
X181223260Y-124070122D01*
X181548009Y-123919876D01*
X181854629Y-123735390D01*
X181854632Y-123735388D01*
X182139509Y-123518831D01*
X182152742Y-123506295D01*
X182152742Y-123506294D01*
X180940699Y-122294251D01*
X181042330Y-122220412D01*
X181220412Y-122042330D01*
X181294251Y-121940698D01*
X182503556Y-123150002D01*
X182630972Y-122999998D01*
X182630975Y-122999994D01*
X182831781Y-122703827D01*
X182999393Y-122387677D01*
X182999402Y-122387659D01*
X183131850Y-122055239D01*
X183131852Y-122055232D01*
X183227578Y-121710457D01*
X183227584Y-121710431D01*
X183285472Y-121357331D01*
X183285473Y-121357314D01*
X183304847Y-121000002D01*
X183304847Y-120999997D01*
X183285473Y-120642685D01*
X183285472Y-120642668D01*
X183227584Y-120289568D01*
X183227578Y-120289542D01*
X183131852Y-119944767D01*
X183131850Y-119944760D01*
X182999402Y-119612340D01*
X182999393Y-119612322D01*
X182831781Y-119296172D01*
X182630975Y-119000005D01*
X182630964Y-118999991D01*
X182503556Y-118849996D01*
X181294251Y-120059300D01*
X181220412Y-119957670D01*
X181042330Y-119779588D01*
X180940698Y-119705748D01*
X182152742Y-118493704D01*
X182139504Y-118481163D01*
X181854632Y-118264611D01*
X181854629Y-118264609D01*
X181548009Y-118080123D01*
X181223260Y-117929877D01*
X181223255Y-117929876D01*
X180884144Y-117815616D01*
X180534660Y-117738688D01*
X180178924Y-117700000D01*
X179821075Y-117700000D01*
X179465339Y-117738688D01*
X179115855Y-117815616D01*
X178776744Y-117929876D01*
X178776739Y-117929877D01*
X178451990Y-118080123D01*
X178145370Y-118264609D01*
X178145367Y-118264611D01*
X177860486Y-118481170D01*
X177860485Y-118481171D01*
X177847257Y-118493702D01*
X177847256Y-118493703D01*
X179059301Y-119705748D01*
X178957670Y-119779588D01*
X178779588Y-119957670D01*
X178705748Y-120059301D01*
X177496442Y-118849995D01*
X177496441Y-118849996D01*
X177369033Y-118999992D01*
X177168218Y-119296172D01*
X177000606Y-119612322D01*
X177000597Y-119612340D01*
X176868149Y-119944760D01*
X176868147Y-119944767D01*
X176772421Y-120289542D01*
X176772415Y-120289568D01*
X176714527Y-120642668D01*
X176714526Y-120642685D01*
X176695153Y-120999997D01*
X176695153Y-121000002D01*
X174015662Y-121000002D01*
X174067246Y-120841243D01*
X174100500Y-120631287D01*
X174100500Y-120118713D01*
X174067246Y-119908757D01*
X174001557Y-119706588D01*
X173905051Y-119517184D01*
X173905049Y-119517181D01*
X173905048Y-119517179D01*
X173780109Y-119345213D01*
X173629786Y-119194890D01*
X173457820Y-119069951D01*
X173268414Y-118973444D01*
X173268413Y-118973443D01*
X173268412Y-118973443D01*
X173066243Y-118907754D01*
X173066241Y-118907753D01*
X173066240Y-118907753D01*
X172904957Y-118882208D01*
X172856287Y-118874500D01*
X172643713Y-118874500D01*
X172595042Y-118882208D01*
X172433760Y-118907753D01*
X172231585Y-118973444D01*
X172042179Y-119069951D01*
X171870215Y-119194889D01*
X171731398Y-119333706D01*
X171670075Y-119367190D01*
X171600383Y-119362206D01*
X171544450Y-119320334D01*
X171538178Y-119311120D01*
X171442712Y-119156344D01*
X171318657Y-119032289D01*
X171318656Y-119032288D01*
X171169334Y-118940186D01*
X171002797Y-118885001D01*
X171002795Y-118885000D01*
X170900010Y-118874500D01*
X169599998Y-118874500D01*
X169599981Y-118874501D01*
X169497203Y-118885000D01*
X169497200Y-118885001D01*
X169330668Y-118940185D01*
X169330663Y-118940187D01*
X169181342Y-119032289D01*
X169057289Y-119156342D01*
X168965187Y-119305663D01*
X168965185Y-119305668D01*
X168960325Y-119320334D01*
X168910001Y-119472203D01*
X168910001Y-119472204D01*
X168910000Y-119472204D01*
X168899500Y-119574983D01*
X168899500Y-121175001D01*
X150100500Y-121175001D01*
X150100500Y-121078842D01*
X150063666Y-120941375D01*
X149992508Y-120818125D01*
X149891875Y-120717492D01*
X149891874Y-120717491D01*
X149891871Y-120717489D01*
X149768627Y-120646335D01*
X149768626Y-120646334D01*
X149768625Y-120646334D01*
X149631158Y-120609500D01*
X149068842Y-120609500D01*
X148931375Y-120646334D01*
X148931372Y-120646335D01*
X148808128Y-120717489D01*
X148808123Y-120717493D01*
X148707493Y-120818123D01*
X148707489Y-120818128D01*
X148636335Y-120941372D01*
X148636334Y-120941375D01*
X148599500Y-121078842D01*
X148599500Y-121221158D01*
X142430500Y-121221158D01*
X142430500Y-121073576D01*
X142390940Y-120925935D01*
X142314516Y-120793565D01*
X142206435Y-120685484D01*
X142112563Y-120631287D01*
X142074067Y-120609061D01*
X142074066Y-120609060D01*
X142074065Y-120609060D01*
X141926424Y-120569500D01*
X141773576Y-120569500D01*
X141625935Y-120609060D01*
X141625932Y-120609061D01*
X141493568Y-120685482D01*
X141493562Y-120685486D01*
X141385486Y-120793562D01*
X141385482Y-120793568D01*
X141309061Y-120925932D01*
X141309060Y-120925935D01*
X141269500Y-121073576D01*
X141269500Y-121226424D01*
X131292570Y-121226424D01*
X131304847Y-121000002D01*
X131304847Y-120999997D01*
X131285473Y-120642685D01*
X131285472Y-120642668D01*
X131227584Y-120289568D01*
X131227578Y-120289542D01*
X131202717Y-120200002D01*
X165144751Y-120200002D01*
X165163685Y-120368056D01*
X165219545Y-120527694D01*
X165219547Y-120527697D01*
X165309518Y-120670884D01*
X165309523Y-120670890D01*
X165429109Y-120790476D01*
X165429115Y-120790481D01*
X165572302Y-120880452D01*
X165572305Y-120880454D01*
X165572309Y-120880455D01*
X165572310Y-120880456D01*
X165644913Y-120905860D01*
X165731943Y-120936314D01*
X165899997Y-120955249D01*
X165900000Y-120955249D01*
X165900003Y-120955249D01*
X166068056Y-120936314D01*
X166068059Y-120936313D01*
X166227690Y-120880456D01*
X166227692Y-120880454D01*
X166227694Y-120880454D01*
X166227697Y-120880452D01*
X166370884Y-120790481D01*
X166370885Y-120790480D01*
X166370890Y-120790477D01*
X166490477Y-120670890D01*
X166490481Y-120670884D01*
X166580452Y-120527697D01*
X166580454Y-120527694D01*
X166580454Y-120527692D01*
X166580456Y-120527690D01*
X166636313Y-120368059D01*
X166636313Y-120368058D01*
X166636314Y-120368056D01*
X166655249Y-120200002D01*
X166655249Y-120199997D01*
X166636314Y-120031943D01*
X166580454Y-119872305D01*
X166580452Y-119872302D01*
X166490481Y-119729115D01*
X166490476Y-119729109D01*
X166370890Y-119609523D01*
X166370884Y-119609518D01*
X166227697Y-119519547D01*
X166227694Y-119519545D01*
X166068056Y-119463685D01*
X165900003Y-119444751D01*
X165899997Y-119444751D01*
X165731943Y-119463685D01*
X165572305Y-119519545D01*
X165572302Y-119519547D01*
X165429115Y-119609518D01*
X165429109Y-119609523D01*
X165309523Y-119729109D01*
X165309518Y-119729115D01*
X165219547Y-119872302D01*
X165219545Y-119872305D01*
X165163685Y-120031943D01*
X165144751Y-120199997D01*
X165144751Y-120200002D01*
X131202717Y-120200002D01*
X131131852Y-119944767D01*
X131131850Y-119944760D01*
X131113627Y-119899023D01*
X142654528Y-119899023D01*
X142796233Y-119974766D01*
X142994165Y-120034808D01*
X143200000Y-120055080D01*
X143405834Y-120034808D01*
X143603764Y-119974766D01*
X143745468Y-119899023D01*
X147454528Y-119899023D01*
X147596233Y-119974766D01*
X147794165Y-120034808D01*
X148000000Y-120055080D01*
X148205834Y-120034808D01*
X148403764Y-119974766D01*
X148545470Y-119899022D01*
X148000001Y-119353553D01*
X148000000Y-119353553D01*
X147454528Y-119899023D01*
X143745468Y-119899023D01*
X143745470Y-119899022D01*
X143200001Y-119353553D01*
X143200000Y-119353553D01*
X142654528Y-119899023D01*
X131113627Y-119899023D01*
X130999402Y-119612340D01*
X130999393Y-119612322D01*
X130831781Y-119296172D01*
X130630975Y-119000005D01*
X130630971Y-119000000D01*
X142144919Y-119000000D01*
X142165191Y-119205834D01*
X142225233Y-119403766D01*
X142300975Y-119545469D01*
X142300976Y-119545469D01*
X142800369Y-119046078D01*
X142850000Y-119046078D01*
X142873852Y-119135095D01*
X142919930Y-119214905D01*
X142985095Y-119280070D01*
X143064905Y-119326148D01*
X143153922Y-119350000D01*
X143246078Y-119350000D01*
X143335095Y-119326148D01*
X143414905Y-119280070D01*
X143480070Y-119214905D01*
X143526148Y-119135095D01*
X143550000Y-119046078D01*
X143550000Y-119000000D01*
X143553553Y-119000000D01*
X144099022Y-119545469D01*
X144174766Y-119403764D01*
X144234808Y-119205834D01*
X144255080Y-119000000D01*
X146944919Y-119000000D01*
X146965191Y-119205834D01*
X147025233Y-119403766D01*
X147100975Y-119545469D01*
X147100976Y-119545469D01*
X147600369Y-119046078D01*
X147650000Y-119046078D01*
X147673852Y-119135095D01*
X147719930Y-119214905D01*
X147785095Y-119280070D01*
X147864905Y-119326148D01*
X147953922Y-119350000D01*
X148046078Y-119350000D01*
X148135095Y-119326148D01*
X148214905Y-119280070D01*
X148280070Y-119214905D01*
X148326148Y-119135095D01*
X148350000Y-119046078D01*
X148350000Y-119000000D01*
X148353553Y-119000000D01*
X148899022Y-119545469D01*
X148974766Y-119403764D01*
X149034808Y-119205834D01*
X149055080Y-119000000D01*
X149034808Y-118794165D01*
X148974766Y-118596233D01*
X148899023Y-118454528D01*
X148353553Y-118999999D01*
X148353553Y-119000000D01*
X148350000Y-119000000D01*
X148350000Y-118953922D01*
X148326148Y-118864905D01*
X148280070Y-118785095D01*
X148214905Y-118719930D01*
X148135095Y-118673852D01*
X148046078Y-118650000D01*
X147953922Y-118650000D01*
X147864905Y-118673852D01*
X147785095Y-118719930D01*
X147719930Y-118785095D01*
X147673852Y-118864905D01*
X147650000Y-118953922D01*
X147650000Y-119046078D01*
X147600369Y-119046078D01*
X147646447Y-119000000D01*
X147100976Y-118454529D01*
X147100975Y-118454529D01*
X147025234Y-118596234D01*
X146965191Y-118794166D01*
X146944919Y-119000000D01*
X144255080Y-119000000D01*
X144234808Y-118794165D01*
X144174766Y-118596233D01*
X144099023Y-118454528D01*
X143553553Y-118999999D01*
X143553553Y-119000000D01*
X143550000Y-119000000D01*
X143550000Y-118953922D01*
X143526148Y-118864905D01*
X143480070Y-118785095D01*
X143414905Y-118719930D01*
X143335095Y-118673852D01*
X143246078Y-118650000D01*
X143153922Y-118650000D01*
X143064905Y-118673852D01*
X142985095Y-118719930D01*
X142919930Y-118785095D01*
X142873852Y-118864905D01*
X142850000Y-118953922D01*
X142850000Y-119046078D01*
X142800369Y-119046078D01*
X142846447Y-119000000D01*
X142300976Y-118454529D01*
X142300975Y-118454529D01*
X142225234Y-118596234D01*
X142165191Y-118794166D01*
X142144919Y-119000000D01*
X130630971Y-119000000D01*
X130630964Y-118999991D01*
X130503556Y-118849996D01*
X129294251Y-120059301D01*
X129220412Y-119957670D01*
X129042330Y-119779588D01*
X128940698Y-119705748D01*
X130152742Y-118493704D01*
X130139504Y-118481163D01*
X129854632Y-118264611D01*
X129854629Y-118264609D01*
X129582667Y-118100976D01*
X142654529Y-118100976D01*
X143200000Y-118646447D01*
X143200001Y-118646447D01*
X143745469Y-118100976D01*
X143745469Y-118100975D01*
X143603766Y-118025233D01*
X143405834Y-117965191D01*
X143200000Y-117944919D01*
X142994166Y-117965191D01*
X142796234Y-118025234D01*
X142654529Y-118100975D01*
X142654529Y-118100976D01*
X129582667Y-118100976D01*
X129548009Y-118080123D01*
X129223260Y-117929877D01*
X129223255Y-117929876D01*
X128884144Y-117815616D01*
X128534660Y-117738688D01*
X128178924Y-117700000D01*
X127821075Y-117700000D01*
X127465339Y-117738688D01*
X127115855Y-117815616D01*
X126776744Y-117929876D01*
X126776739Y-117929877D01*
X126451990Y-118080123D01*
X126145370Y-118264609D01*
X126145367Y-118264611D01*
X125860486Y-118481170D01*
X125860485Y-118481171D01*
X125847257Y-118493702D01*
X125847256Y-118493703D01*
X127059301Y-119705748D01*
X126957670Y-119779588D01*
X126779588Y-119957670D01*
X126705748Y-120059301D01*
X125496442Y-118849995D01*
X125496441Y-118849996D01*
X125369033Y-118999992D01*
X125168218Y-119296172D01*
X125000606Y-119612322D01*
X125000597Y-119612340D01*
X124868149Y-119944760D01*
X124868147Y-119944767D01*
X124772421Y-120289542D01*
X124772415Y-120289568D01*
X124714527Y-120642668D01*
X124714526Y-120642685D01*
X124695153Y-120999997D01*
X124695153Y-121000002D01*
X124000005Y-121000002D01*
X124000000Y-120999212D01*
X124000000Y-117300002D01*
X144044751Y-117300002D01*
X144063685Y-117468056D01*
X144119545Y-117627694D01*
X144119547Y-117627697D01*
X144209518Y-117770884D01*
X144209523Y-117770890D01*
X144329109Y-117890476D01*
X144329115Y-117890481D01*
X144472302Y-117980452D01*
X144472305Y-117980454D01*
X144472309Y-117980455D01*
X144472310Y-117980456D01*
X144544913Y-118005860D01*
X144631943Y-118036314D01*
X144799997Y-118055249D01*
X144800000Y-118055249D01*
X144800003Y-118055249D01*
X144968056Y-118036314D01*
X144999724Y-118025233D01*
X145127690Y-117980456D01*
X145127692Y-117980454D01*
X145127694Y-117980454D01*
X145127697Y-117980452D01*
X145270884Y-117890481D01*
X145270885Y-117890480D01*
X145270890Y-117890477D01*
X145390477Y-117770890D01*
X145408462Y-117742267D01*
X145480452Y-117627697D01*
X145480454Y-117627694D01*
X145480454Y-117627692D01*
X145480456Y-117627690D01*
X145536313Y-117468059D01*
X145536313Y-117468058D01*
X145536314Y-117468056D01*
X145555249Y-117300002D01*
X145555249Y-117299997D01*
X145536314Y-117131943D01*
X145510241Y-117057430D01*
X147102179Y-117057430D01*
X147121113Y-117225484D01*
X147176973Y-117385122D01*
X147176975Y-117385125D01*
X147266946Y-117528312D01*
X147266951Y-117528318D01*
X147386537Y-117647904D01*
X147386543Y-117647909D01*
X147529730Y-117737880D01*
X147529736Y-117737883D01*
X147529738Y-117737884D01*
X147641978Y-117777158D01*
X147698754Y-117817880D01*
X147724502Y-117882832D01*
X147711046Y-117951394D01*
X147662659Y-118001797D01*
X147637022Y-118012860D01*
X147596237Y-118025232D01*
X147454529Y-118100975D01*
X147454529Y-118100976D01*
X148000000Y-118646447D01*
X148000001Y-118646447D01*
X148545469Y-118100976D01*
X148545469Y-118100975D01*
X148403766Y-118025233D01*
X148207965Y-117965838D01*
X148149526Y-117927540D01*
X148121070Y-117863728D01*
X148131630Y-117794661D01*
X148177854Y-117742267D01*
X148180287Y-117740920D01*
X148328312Y-117647909D01*
X148328313Y-117647908D01*
X148328318Y-117647905D01*
X148447905Y-117528318D01*
X148447909Y-117528312D01*
X148537880Y-117385125D01*
X148537882Y-117385122D01*
X148537882Y-117385120D01*
X148537884Y-117385118D01*
X148593741Y-117225487D01*
X148593741Y-117225486D01*
X148593742Y-117225484D01*
X148612677Y-117057430D01*
X148612677Y-117057425D01*
X148593742Y-116889371D01*
X148537882Y-116729733D01*
X148537880Y-116729730D01*
X148456366Y-116600002D01*
X152444751Y-116600002D01*
X152463685Y-116768056D01*
X152519545Y-116927694D01*
X152519547Y-116927697D01*
X152609518Y-117070884D01*
X152609523Y-117070890D01*
X152729109Y-117190476D01*
X152729115Y-117190481D01*
X152872302Y-117280452D01*
X152872305Y-117280454D01*
X152872309Y-117280455D01*
X152872310Y-117280456D01*
X152928155Y-117299997D01*
X153031943Y-117336314D01*
X153199997Y-117355249D01*
X153200000Y-117355249D01*
X153200003Y-117355249D01*
X153368056Y-117336314D01*
X153368059Y-117336313D01*
X153527690Y-117280456D01*
X153527692Y-117280454D01*
X153527694Y-117280454D01*
X153527697Y-117280452D01*
X153670884Y-117190481D01*
X153670885Y-117190480D01*
X153670890Y-117190477D01*
X153790477Y-117070890D01*
X153798938Y-117057425D01*
X153880452Y-116927697D01*
X153880454Y-116927694D01*
X153880454Y-116927692D01*
X153880456Y-116927690D01*
X153936313Y-116768059D01*
X153936313Y-116768058D01*
X153936314Y-116768056D01*
X153955249Y-116600002D01*
X153955249Y-116599997D01*
X153936314Y-116431943D01*
X153905860Y-116344913D01*
X153880456Y-116272310D01*
X153880455Y-116272309D01*
X153880454Y-116272305D01*
X153880452Y-116272302D01*
X153790481Y-116129115D01*
X153790476Y-116129109D01*
X153670890Y-116009523D01*
X153670884Y-116009518D01*
X153527697Y-115919547D01*
X153527694Y-115919545D01*
X153368056Y-115863685D01*
X153200003Y-115844751D01*
X153199997Y-115844751D01*
X153031943Y-115863685D01*
X152872305Y-115919545D01*
X152872302Y-115919547D01*
X152729115Y-116009518D01*
X152729109Y-116009523D01*
X152609523Y-116129109D01*
X152609518Y-116129115D01*
X152519547Y-116272302D01*
X152519545Y-116272305D01*
X152463685Y-116431943D01*
X152444751Y-116599997D01*
X152444751Y-116600002D01*
X148456366Y-116600002D01*
X148447909Y-116586543D01*
X148447904Y-116586537D01*
X148328318Y-116466951D01*
X148328312Y-116466946D01*
X148185125Y-116376975D01*
X148185122Y-116376973D01*
X148025484Y-116321113D01*
X147857431Y-116302179D01*
X147857425Y-116302179D01*
X147689371Y-116321113D01*
X147529733Y-116376973D01*
X147529730Y-116376975D01*
X147386543Y-116466946D01*
X147386537Y-116466951D01*
X147266951Y-116586537D01*
X147266946Y-116586543D01*
X147176975Y-116729730D01*
X147176973Y-116729733D01*
X147121113Y-116889371D01*
X147102179Y-117057425D01*
X147102179Y-117057430D01*
X145510241Y-117057430D01*
X145480454Y-116972305D01*
X145480452Y-116972302D01*
X145390481Y-116829115D01*
X145390476Y-116829109D01*
X145270890Y-116709523D01*
X145270884Y-116709518D01*
X145127697Y-116619547D01*
X145127694Y-116619545D01*
X144968056Y-116563685D01*
X144800003Y-116544751D01*
X144799997Y-116544751D01*
X144631943Y-116563685D01*
X144472305Y-116619545D01*
X144472302Y-116619547D01*
X144329115Y-116709518D01*
X144329109Y-116709523D01*
X144209523Y-116829109D01*
X144209518Y-116829115D01*
X144119547Y-116972302D01*
X144119545Y-116972305D01*
X144063685Y-117131943D01*
X144044751Y-117299997D01*
X144044751Y-117300002D01*
X124000000Y-117300002D01*
X124000000Y-114700000D01*
X138614551Y-114700000D01*
X138634317Y-114951151D01*
X138693126Y-115196110D01*
X138789533Y-115428859D01*
X138921160Y-115643653D01*
X138921161Y-115643656D01*
X138921164Y-115643659D01*
X139084776Y-115835224D01*
X139183506Y-115919547D01*
X139276343Y-115998838D01*
X139276346Y-115998839D01*
X139491140Y-116130466D01*
X139723889Y-116226873D01*
X139968852Y-116285683D01*
X140220000Y-116305449D01*
X140471148Y-116285683D01*
X140716111Y-116226873D01*
X140948859Y-116130466D01*
X141163659Y-115998836D01*
X141340417Y-115847870D01*
X148779500Y-115847870D01*
X148779501Y-115847876D01*
X148785908Y-115907483D01*
X148836202Y-116042328D01*
X148836206Y-116042335D01*
X148922452Y-116157544D01*
X148922455Y-116157547D01*
X149037664Y-116243793D01*
X149037671Y-116243797D01*
X149172517Y-116294091D01*
X149172516Y-116294091D01*
X149179444Y-116294835D01*
X149232127Y-116300500D01*
X151527872Y-116300499D01*
X151587483Y-116294091D01*
X151722331Y-116243796D01*
X151837546Y-116157546D01*
X151923796Y-116042331D01*
X151974091Y-115907483D01*
X151980500Y-115847873D01*
X151980499Y-113552128D01*
X151974091Y-113492517D01*
X151973330Y-113490477D01*
X151923797Y-113357671D01*
X151923793Y-113357664D01*
X151837547Y-113242455D01*
X151837544Y-113242452D01*
X151722335Y-113156206D01*
X151722328Y-113156202D01*
X151587482Y-113105908D01*
X151587483Y-113105908D01*
X151527883Y-113099501D01*
X151527881Y-113099500D01*
X151527873Y-113099500D01*
X151527864Y-113099500D01*
X149232129Y-113099500D01*
X149232123Y-113099501D01*
X149172516Y-113105908D01*
X149037671Y-113156202D01*
X149037664Y-113156206D01*
X148922455Y-113242452D01*
X148922452Y-113242455D01*
X148836206Y-113357664D01*
X148836202Y-113357671D01*
X148785908Y-113492517D01*
X148779501Y-113552116D01*
X148779501Y-113552123D01*
X148779500Y-113552135D01*
X148779500Y-115847870D01*
X141340417Y-115847870D01*
X141355224Y-115835224D01*
X141518836Y-115643659D01*
X141650466Y-115428859D01*
X141746873Y-115196111D01*
X141805683Y-114951148D01*
X141825449Y-114700000D01*
X141805683Y-114448852D01*
X141746873Y-114203889D01*
X141690533Y-114067872D01*
X141650466Y-113971140D01*
X141518839Y-113756346D01*
X141518838Y-113756343D01*
X141432495Y-113655249D01*
X141355224Y-113564776D01*
X141228571Y-113456604D01*
X141163656Y-113401161D01*
X141163653Y-113401160D01*
X140948859Y-113269533D01*
X140716110Y-113173126D01*
X140471151Y-113114317D01*
X140220000Y-113094551D01*
X139968848Y-113114317D01*
X139723889Y-113173126D01*
X139491140Y-113269533D01*
X139276346Y-113401160D01*
X139276343Y-113401161D01*
X139084776Y-113564776D01*
X138921161Y-113756343D01*
X138921160Y-113756346D01*
X138789533Y-113971140D01*
X138693126Y-114203889D01*
X138634317Y-114448848D01*
X138614551Y-114700000D01*
X124000000Y-114700000D01*
X124000000Y-114067870D01*
X133399500Y-114067870D01*
X133399501Y-114067876D01*
X133405908Y-114127483D01*
X133456202Y-114262328D01*
X133456206Y-114262335D01*
X133542452Y-114377544D01*
X133542455Y-114377547D01*
X133657664Y-114463793D01*
X133657671Y-114463797D01*
X133792517Y-114514091D01*
X133792516Y-114514091D01*
X133799444Y-114514835D01*
X133852127Y-114520500D01*
X136147872Y-114520499D01*
X136207483Y-114514091D01*
X136342331Y-114463796D01*
X136457546Y-114377546D01*
X136543796Y-114262331D01*
X136594091Y-114127483D01*
X136600500Y-114067873D01*
X136600499Y-112500003D01*
X145494435Y-112500003D01*
X145514630Y-112679249D01*
X145514631Y-112679254D01*
X145574211Y-112849523D01*
X145637646Y-112950478D01*
X145670184Y-113002262D01*
X145797738Y-113129816D01*
X145950478Y-113225789D01*
X145998104Y-113242454D01*
X146120745Y-113285368D01*
X146120750Y-113285369D01*
X146299996Y-113305565D01*
X146300000Y-113305565D01*
X146300004Y-113305565D01*
X146479249Y-113285369D01*
X146479252Y-113285368D01*
X146479255Y-113285368D01*
X146649522Y-113225789D01*
X146802262Y-113129816D01*
X146875970Y-113056108D01*
X146937293Y-113022623D01*
X147004606Y-113026748D01*
X147031943Y-113036314D01*
X147199997Y-113055249D01*
X147200000Y-113055249D01*
X147200003Y-113055249D01*
X147368056Y-113036314D01*
X147395394Y-113026748D01*
X147527690Y-112980456D01*
X147527692Y-112980454D01*
X147527694Y-112980454D01*
X147527697Y-112980452D01*
X147655732Y-112900002D01*
X155044751Y-112900002D01*
X155063685Y-113068056D01*
X155119545Y-113227694D01*
X155119547Y-113227697D01*
X155209518Y-113370884D01*
X155209523Y-113370890D01*
X155329109Y-113490476D01*
X155329115Y-113490481D01*
X155472302Y-113580452D01*
X155472305Y-113580454D01*
X155472309Y-113580455D01*
X155472310Y-113580456D01*
X155544913Y-113605860D01*
X155631943Y-113636314D01*
X155799997Y-113655249D01*
X155800000Y-113655249D01*
X155800003Y-113655249D01*
X155968056Y-113636314D01*
X155992682Y-113627697D01*
X156127690Y-113580456D01*
X156127692Y-113580454D01*
X156127694Y-113580454D01*
X156127697Y-113580452D01*
X156270884Y-113490481D01*
X156270885Y-113490480D01*
X156270890Y-113490477D01*
X156390477Y-113370890D01*
X156398783Y-113357671D01*
X156435019Y-113300003D01*
X160416935Y-113300003D01*
X160437130Y-113479249D01*
X160437131Y-113479254D01*
X160496711Y-113649523D01*
X160563830Y-113756341D01*
X160592684Y-113802262D01*
X160720238Y-113929816D01*
X160872978Y-114025789D01*
X160993247Y-114067873D01*
X161043245Y-114085368D01*
X161043250Y-114085369D01*
X161222496Y-114105565D01*
X161222500Y-114105565D01*
X161222504Y-114105565D01*
X161401749Y-114085369D01*
X161401752Y-114085368D01*
X161401755Y-114085368D01*
X161401756Y-114085367D01*
X161401759Y-114085367D01*
X161454630Y-114066866D01*
X161545990Y-114034897D01*
X161615767Y-114031335D01*
X161627892Y-114034896D01*
X161631941Y-114036313D01*
X161631944Y-114036313D01*
X161631946Y-114036314D01*
X161799997Y-114055249D01*
X161800000Y-114055249D01*
X161800003Y-114055249D01*
X161968056Y-114036314D01*
X161998135Y-114025789D01*
X162127690Y-113980456D01*
X162127692Y-113980454D01*
X162127694Y-113980454D01*
X162127697Y-113980452D01*
X162270884Y-113890481D01*
X162270885Y-113890480D01*
X162270890Y-113890477D01*
X162390477Y-113770890D01*
X162399619Y-113756341D01*
X162480452Y-113627697D01*
X162480454Y-113627694D01*
X162480454Y-113627692D01*
X162480456Y-113627690D01*
X162536313Y-113468059D01*
X162536313Y-113468058D01*
X162536314Y-113468056D01*
X162555249Y-113300002D01*
X162555249Y-113299997D01*
X162536314Y-113131943D01*
X162498061Y-113022623D01*
X162480456Y-112972310D01*
X162480455Y-112972309D01*
X162480454Y-112972305D01*
X162480452Y-112972302D01*
X162390481Y-112829115D01*
X162390476Y-112829109D01*
X162270890Y-112709523D01*
X162270884Y-112709518D01*
X162127697Y-112619547D01*
X162127694Y-112619545D01*
X161968056Y-112563685D01*
X161800003Y-112544751D01*
X161799997Y-112544751D01*
X161631941Y-112563686D01*
X161631935Y-112563687D01*
X161627887Y-112565104D01*
X161558108Y-112568660D01*
X161545989Y-112565101D01*
X161401757Y-112514632D01*
X161401749Y-112514630D01*
X161222504Y-112494435D01*
X161222496Y-112494435D01*
X161043250Y-112514630D01*
X161043245Y-112514631D01*
X160872976Y-112574211D01*
X160720237Y-112670184D01*
X160592684Y-112797737D01*
X160496711Y-112950476D01*
X160437131Y-113120745D01*
X160437130Y-113120750D01*
X160416935Y-113299996D01*
X160416935Y-113300003D01*
X156435019Y-113300003D01*
X156480452Y-113227697D01*
X156480454Y-113227694D01*
X156480454Y-113227692D01*
X156480456Y-113227690D01*
X156536313Y-113068059D01*
X156536313Y-113068058D01*
X156536314Y-113068056D01*
X156555249Y-112900002D01*
X156555249Y-112899997D01*
X156536314Y-112731943D01*
X156514703Y-112670184D01*
X156480456Y-112572310D01*
X156480454Y-112572307D01*
X156480454Y-112572306D01*
X156416759Y-112470937D01*
X156397758Y-112403700D01*
X156418125Y-112336865D01*
X156455779Y-112299971D01*
X156470890Y-112290477D01*
X156590477Y-112170890D01*
X156614949Y-112131943D01*
X156680452Y-112027697D01*
X156680454Y-112027694D01*
X156680454Y-112027692D01*
X156680456Y-112027690D01*
X156736313Y-111868059D01*
X156736313Y-111868058D01*
X156736314Y-111868056D01*
X156755249Y-111700002D01*
X156755249Y-111699997D01*
X156736314Y-111531943D01*
X156681819Y-111376206D01*
X156680456Y-111372310D01*
X156680455Y-111372309D01*
X156680454Y-111372305D01*
X156680452Y-111372302D01*
X156590481Y-111229115D01*
X156590476Y-111229109D01*
X156470890Y-111109523D01*
X156470884Y-111109518D01*
X156327697Y-111019547D01*
X156327694Y-111019545D01*
X156168056Y-110963685D01*
X156000003Y-110944751D01*
X155999997Y-110944751D01*
X155831943Y-110963685D01*
X155672305Y-111019545D01*
X155672302Y-111019547D01*
X155529115Y-111109518D01*
X155529109Y-111109523D01*
X155409523Y-111229109D01*
X155409518Y-111229115D01*
X155319547Y-111372302D01*
X155319545Y-111372305D01*
X155263685Y-111531943D01*
X155244751Y-111699997D01*
X155244751Y-111700002D01*
X155263685Y-111868056D01*
X155319545Y-112027692D01*
X155383241Y-112129063D01*
X155402241Y-112196299D01*
X155381873Y-112263135D01*
X155344223Y-112300026D01*
X155329113Y-112309520D01*
X155329107Y-112309525D01*
X155209523Y-112429109D01*
X155209518Y-112429115D01*
X155119547Y-112572302D01*
X155119545Y-112572305D01*
X155063685Y-112731943D01*
X155044751Y-112899997D01*
X155044751Y-112900002D01*
X147655732Y-112900002D01*
X147670884Y-112890481D01*
X147670885Y-112890480D01*
X147670890Y-112890477D01*
X147790477Y-112770890D01*
X147814949Y-112731943D01*
X147880452Y-112627697D01*
X147880454Y-112627694D01*
X147880454Y-112627692D01*
X147880456Y-112627690D01*
X147936313Y-112468059D01*
X147936313Y-112468058D01*
X147936314Y-112468056D01*
X147955249Y-112300002D01*
X147955249Y-112299997D01*
X147936314Y-112131943D01*
X147899834Y-112027690D01*
X147880456Y-111972310D01*
X147880455Y-111972309D01*
X147880454Y-111972305D01*
X147880452Y-111972302D01*
X147790481Y-111829115D01*
X147790476Y-111829109D01*
X147670890Y-111709523D01*
X147670884Y-111709518D01*
X147527697Y-111619547D01*
X147527694Y-111619545D01*
X147368056Y-111563685D01*
X147200003Y-111544751D01*
X147199997Y-111544751D01*
X147031943Y-111563685D01*
X146872305Y-111619545D01*
X146872302Y-111619547D01*
X146729112Y-111709520D01*
X146729103Y-111709527D01*
X146715647Y-111722983D01*
X146654323Y-111756465D01*
X146587017Y-111752339D01*
X146479257Y-111714632D01*
X146479249Y-111714630D01*
X146300004Y-111694435D01*
X146299996Y-111694435D01*
X146120750Y-111714630D01*
X146120745Y-111714631D01*
X145950476Y-111774211D01*
X145797737Y-111870184D01*
X145670184Y-111997737D01*
X145574211Y-112150476D01*
X145514631Y-112320745D01*
X145514630Y-112320750D01*
X145494435Y-112499996D01*
X145494435Y-112500003D01*
X136600499Y-112500003D01*
X136600499Y-111772128D01*
X136594091Y-111712517D01*
X136592974Y-111709523D01*
X136543797Y-111577671D01*
X136543793Y-111577664D01*
X136457547Y-111462455D01*
X136457544Y-111462452D01*
X136342335Y-111376206D01*
X136342328Y-111376202D01*
X136207482Y-111325908D01*
X136207483Y-111325908D01*
X136147883Y-111319501D01*
X136147881Y-111319500D01*
X136147873Y-111319500D01*
X136147864Y-111319500D01*
X133852129Y-111319500D01*
X133852123Y-111319501D01*
X133792516Y-111325908D01*
X133657671Y-111376202D01*
X133657664Y-111376206D01*
X133542455Y-111462452D01*
X133542452Y-111462455D01*
X133456206Y-111577664D01*
X133456202Y-111577671D01*
X133405908Y-111712517D01*
X133401184Y-111756465D01*
X133399501Y-111772123D01*
X133399500Y-111772135D01*
X133399500Y-114067870D01*
X124000000Y-114067870D01*
X124000000Y-110400002D01*
X138044751Y-110400002D01*
X138063685Y-110568056D01*
X138119545Y-110727694D01*
X138119547Y-110727697D01*
X138209518Y-110870884D01*
X138209523Y-110870890D01*
X138329109Y-110990476D01*
X138329115Y-110990481D01*
X138472302Y-111080452D01*
X138472305Y-111080454D01*
X138472309Y-111080455D01*
X138472310Y-111080456D01*
X138500946Y-111090476D01*
X138631943Y-111136314D01*
X138799997Y-111155249D01*
X138800000Y-111155249D01*
X138800003Y-111155249D01*
X138968056Y-111136314D01*
X138968059Y-111136313D01*
X139127690Y-111080456D01*
X139127692Y-111080454D01*
X139127694Y-111080454D01*
X139127697Y-111080452D01*
X139270884Y-110990481D01*
X139270885Y-110990480D01*
X139270890Y-110990477D01*
X139390477Y-110870890D01*
X139427464Y-110812026D01*
X139480452Y-110727697D01*
X139480454Y-110727694D01*
X139480454Y-110727692D01*
X139480456Y-110727690D01*
X139536313Y-110568059D01*
X139536313Y-110568058D01*
X139536314Y-110568056D01*
X139555249Y-110400002D01*
X156944751Y-110400002D01*
X156963685Y-110568056D01*
X157019545Y-110727694D01*
X157019547Y-110727697D01*
X157109518Y-110870884D01*
X157109523Y-110870890D01*
X157229109Y-110990476D01*
X157229115Y-110990481D01*
X157372302Y-111080452D01*
X157372305Y-111080454D01*
X157372309Y-111080455D01*
X157372310Y-111080456D01*
X157400946Y-111090476D01*
X157531943Y-111136314D01*
X157699997Y-111155249D01*
X157700000Y-111155249D01*
X157700003Y-111155249D01*
X157868056Y-111136314D01*
X157868059Y-111136313D01*
X158027690Y-111080456D01*
X158027692Y-111080454D01*
X158027694Y-111080454D01*
X158027697Y-111080452D01*
X158170884Y-110990481D01*
X158170885Y-110990480D01*
X158170890Y-110990477D01*
X158290477Y-110870890D01*
X158327464Y-110812026D01*
X158380452Y-110727697D01*
X158380454Y-110727694D01*
X158380454Y-110727692D01*
X158380456Y-110727690D01*
X158436313Y-110568059D01*
X158436313Y-110568058D01*
X158436314Y-110568056D01*
X158443982Y-110500002D01*
X168644751Y-110500002D01*
X168663685Y-110668056D01*
X168719545Y-110827694D01*
X168719547Y-110827697D01*
X168809518Y-110970884D01*
X168809523Y-110970890D01*
X168929109Y-111090476D01*
X168929115Y-111090481D01*
X169072302Y-111180452D01*
X169072305Y-111180454D01*
X169072309Y-111180455D01*
X169072310Y-111180456D01*
X169144913Y-111205860D01*
X169231943Y-111236314D01*
X169399997Y-111255249D01*
X169400000Y-111255249D01*
X169400003Y-111255249D01*
X169568056Y-111236314D01*
X169568059Y-111236313D01*
X169727690Y-111180456D01*
X169727692Y-111180454D01*
X169727694Y-111180454D01*
X169727697Y-111180452D01*
X169870884Y-111090481D01*
X169870885Y-111090480D01*
X169870890Y-111090477D01*
X169990477Y-110970890D01*
X169995004Y-110963685D01*
X170080452Y-110827697D01*
X170080456Y-110827690D01*
X170085937Y-110812026D01*
X170126658Y-110755250D01*
X170162026Y-110735937D01*
X170177690Y-110730456D01*
X170177697Y-110730452D01*
X170320884Y-110640481D01*
X170320885Y-110640480D01*
X170320890Y-110640477D01*
X170440477Y-110520890D01*
X170453605Y-110499997D01*
X170530452Y-110377697D01*
X170530454Y-110377694D01*
X170530454Y-110377692D01*
X170530456Y-110377690D01*
X170586313Y-110218059D01*
X170586313Y-110218058D01*
X170586314Y-110218056D01*
X170605249Y-110050002D01*
X170605249Y-110049997D01*
X170586314Y-109881943D01*
X170550728Y-109780244D01*
X170530456Y-109722310D01*
X170530455Y-109722309D01*
X170530454Y-109722305D01*
X170530452Y-109722302D01*
X170440481Y-109579115D01*
X170440476Y-109579109D01*
X170320890Y-109459523D01*
X170320884Y-109459518D01*
X170177697Y-109369547D01*
X170177694Y-109369545D01*
X170018056Y-109313685D01*
X169850003Y-109294751D01*
X169849997Y-109294751D01*
X169681943Y-109313685D01*
X169522305Y-109369545D01*
X169522302Y-109369547D01*
X169379115Y-109459518D01*
X169379109Y-109459523D01*
X169259523Y-109579109D01*
X169169544Y-109722310D01*
X169169542Y-109722314D01*
X169164060Y-109737980D01*
X169123335Y-109794754D01*
X169087980Y-109814060D01*
X169072314Y-109819542D01*
X169072310Y-109819544D01*
X168929109Y-109909523D01*
X168809523Y-110029109D01*
X168809518Y-110029115D01*
X168719547Y-110172302D01*
X168719545Y-110172305D01*
X168663685Y-110331943D01*
X168644751Y-110499997D01*
X168644751Y-110500002D01*
X158443982Y-110500002D01*
X158455249Y-110400002D01*
X158455249Y-110399997D01*
X158436314Y-110231943D01*
X158380454Y-110072305D01*
X158380452Y-110072302D01*
X158290481Y-109929115D01*
X158290476Y-109929109D01*
X158170890Y-109809523D01*
X158170882Y-109809518D01*
X158163682Y-109804993D01*
X158117391Y-109752662D01*
X158106741Y-109683609D01*
X158135115Y-109619760D01*
X158163680Y-109595006D01*
X158170890Y-109590477D01*
X158290477Y-109470890D01*
X158290481Y-109470884D01*
X158380452Y-109327697D01*
X158380454Y-109327694D01*
X158380454Y-109327692D01*
X158380456Y-109327690D01*
X158436313Y-109168059D01*
X158436313Y-109168058D01*
X158436314Y-109168056D01*
X158455249Y-109000002D01*
X158455249Y-108999997D01*
X158449376Y-108947870D01*
X175359500Y-108947870D01*
X175359501Y-108947876D01*
X175365908Y-109007483D01*
X175416202Y-109142328D01*
X175416206Y-109142335D01*
X175502452Y-109257544D01*
X175502455Y-109257547D01*
X175617664Y-109343793D01*
X175617671Y-109343797D01*
X175752517Y-109394091D01*
X175752516Y-109394091D01*
X175759444Y-109394835D01*
X175812127Y-109400500D01*
X177707872Y-109400499D01*
X177767483Y-109394091D01*
X177902331Y-109343796D01*
X178017546Y-109257546D01*
X178103796Y-109142331D01*
X178132455Y-109065493D01*
X178174326Y-109009559D01*
X178239790Y-108985141D01*
X178308063Y-108999992D01*
X178339866Y-109024843D01*
X178347302Y-109032920D01*
X178348215Y-109033912D01*
X178348222Y-109033918D01*
X178531365Y-109176464D01*
X178531371Y-109176468D01*
X178531374Y-109176470D01*
X178735497Y-109286936D01*
X178813420Y-109313687D01*
X178955015Y-109362297D01*
X178955017Y-109362297D01*
X178955019Y-109362298D01*
X179183951Y-109400500D01*
X179183952Y-109400500D01*
X179416048Y-109400500D01*
X179416049Y-109400500D01*
X179644981Y-109362298D01*
X179864503Y-109286936D01*
X180068626Y-109176470D01*
X180079433Y-109168059D01*
X180130129Y-109128600D01*
X180251784Y-109033913D01*
X180408979Y-108863153D01*
X180535924Y-108668849D01*
X180629157Y-108456300D01*
X180686134Y-108231305D01*
X180694719Y-108127697D01*
X180705300Y-108000006D01*
X180705300Y-107999993D01*
X180686135Y-107768702D01*
X180686133Y-107768691D01*
X180629157Y-107543699D01*
X180535924Y-107331151D01*
X180408983Y-107136852D01*
X180408980Y-107136849D01*
X180408979Y-107136847D01*
X180251784Y-106966087D01*
X180251779Y-106966083D01*
X180251777Y-106966081D01*
X180068634Y-106823535D01*
X180068628Y-106823531D01*
X179864504Y-106713064D01*
X179864495Y-106713061D01*
X179644984Y-106637702D01*
X179454450Y-106605908D01*
X179416049Y-106599500D01*
X179183951Y-106599500D01*
X179145550Y-106605908D01*
X178955015Y-106637702D01*
X178735504Y-106713061D01*
X178735495Y-106713064D01*
X178531371Y-106823531D01*
X178531365Y-106823535D01*
X178348222Y-106966081D01*
X178348218Y-106966085D01*
X178339866Y-106975158D01*
X178279979Y-107011148D01*
X178210141Y-107009047D01*
X178152525Y-106969522D01*
X178132455Y-106934507D01*
X178103797Y-106857671D01*
X178103793Y-106857664D01*
X178017547Y-106742455D01*
X178017544Y-106742452D01*
X177902335Y-106656206D01*
X177902328Y-106656202D01*
X177767482Y-106605908D01*
X177767483Y-106605908D01*
X177707883Y-106599501D01*
X177707881Y-106599500D01*
X177707873Y-106599500D01*
X177707864Y-106599500D01*
X175812129Y-106599500D01*
X175812123Y-106599501D01*
X175752516Y-106605908D01*
X175617671Y-106656202D01*
X175617664Y-106656206D01*
X175502455Y-106742452D01*
X175502452Y-106742455D01*
X175416206Y-106857664D01*
X175416202Y-106857671D01*
X175365908Y-106992517D01*
X175359501Y-107052116D01*
X175359500Y-107052135D01*
X175359500Y-108947870D01*
X158449376Y-108947870D01*
X158436314Y-108831943D01*
X158380454Y-108672305D01*
X158380452Y-108672302D01*
X158290481Y-108529115D01*
X158290476Y-108529109D01*
X158170890Y-108409523D01*
X158170884Y-108409518D01*
X158027697Y-108319547D01*
X158027694Y-108319545D01*
X157868056Y-108263685D01*
X157700003Y-108244751D01*
X157699997Y-108244751D01*
X157531943Y-108263685D01*
X157372305Y-108319545D01*
X157372302Y-108319547D01*
X157229115Y-108409518D01*
X157229109Y-108409523D01*
X157109523Y-108529109D01*
X157109518Y-108529115D01*
X157019547Y-108672302D01*
X157019545Y-108672305D01*
X156963685Y-108831943D01*
X156944751Y-108999997D01*
X156944751Y-109000002D01*
X156963685Y-109168056D01*
X157019545Y-109327694D01*
X157019547Y-109327697D01*
X157109518Y-109470884D01*
X157109523Y-109470890D01*
X157229109Y-109590476D01*
X157229112Y-109590478D01*
X157236319Y-109595007D01*
X157282610Y-109647342D01*
X157293257Y-109716396D01*
X157264881Y-109780244D01*
X157236319Y-109804993D01*
X157229112Y-109809521D01*
X157229109Y-109809523D01*
X157109523Y-109929109D01*
X157109518Y-109929115D01*
X157019547Y-110072302D01*
X157019545Y-110072305D01*
X156963685Y-110231943D01*
X156944751Y-110399997D01*
X156944751Y-110400002D01*
X139555249Y-110400002D01*
X139555249Y-110399997D01*
X139536314Y-110231943D01*
X139480454Y-110072305D01*
X139480452Y-110072302D01*
X139390481Y-109929115D01*
X139390476Y-109929109D01*
X139270890Y-109809523D01*
X139270884Y-109809518D01*
X139127697Y-109719547D01*
X139127694Y-109719545D01*
X138968056Y-109663685D01*
X138800003Y-109644751D01*
X138799997Y-109644751D01*
X138631943Y-109663685D01*
X138472305Y-109719545D01*
X138472302Y-109719547D01*
X138329115Y-109809518D01*
X138329109Y-109809523D01*
X138209523Y-109929109D01*
X138209518Y-109929115D01*
X138119547Y-110072302D01*
X138119545Y-110072305D01*
X138063685Y-110231943D01*
X138044751Y-110399997D01*
X138044751Y-110400002D01*
X124000000Y-110400002D01*
X124000000Y-108700000D01*
X124944341Y-108700000D01*
X124964936Y-108935403D01*
X124964938Y-108935413D01*
X125026094Y-109163655D01*
X125026096Y-109163659D01*
X125026097Y-109163663D01*
X125083581Y-109286938D01*
X125125965Y-109377830D01*
X125125967Y-109377834D01*
X125183167Y-109459523D01*
X125261505Y-109571401D01*
X125428599Y-109738495D01*
X125508945Y-109794754D01*
X125622165Y-109874032D01*
X125622167Y-109874033D01*
X125622170Y-109874035D01*
X125836337Y-109973903D01*
X126064592Y-110035063D01*
X126235285Y-110049997D01*
X126299999Y-110055659D01*
X126300000Y-110055659D01*
X126300001Y-110055659D01*
X126364715Y-110049997D01*
X126535408Y-110035063D01*
X126763663Y-109973903D01*
X126977830Y-109874035D01*
X127171401Y-109738495D01*
X127338495Y-109571401D01*
X127474035Y-109377830D01*
X127573903Y-109163663D01*
X127635063Y-108935408D01*
X127655659Y-108700000D01*
X127652933Y-108668848D01*
X127651539Y-108652918D01*
X127635063Y-108464592D01*
X127581231Y-108263685D01*
X127573905Y-108236344D01*
X127573904Y-108236343D01*
X127573903Y-108236337D01*
X127474035Y-108022171D01*
X127436144Y-107968056D01*
X127338494Y-107828597D01*
X127309899Y-107800002D01*
X142244751Y-107800002D01*
X142263685Y-107968056D01*
X142319545Y-108127694D01*
X142319547Y-108127697D01*
X142409518Y-108270884D01*
X142409523Y-108270890D01*
X142529109Y-108390476D01*
X142529115Y-108390481D01*
X142672302Y-108480452D01*
X142672305Y-108480454D01*
X142672309Y-108480455D01*
X142672310Y-108480456D01*
X142744913Y-108505860D01*
X142831943Y-108536314D01*
X142999997Y-108555249D01*
X143000000Y-108555249D01*
X143000003Y-108555249D01*
X143168056Y-108536314D01*
X143168059Y-108536313D01*
X143327690Y-108480456D01*
X143327692Y-108480454D01*
X143327694Y-108480454D01*
X143327697Y-108480452D01*
X143470884Y-108390481D01*
X143470885Y-108390480D01*
X143470890Y-108390477D01*
X143590477Y-108270890D01*
X143595004Y-108263685D01*
X143680452Y-108127697D01*
X143680454Y-108127694D01*
X143680454Y-108127692D01*
X143680456Y-108127690D01*
X143736313Y-107968059D01*
X143736313Y-107968058D01*
X143736314Y-107968056D01*
X143755249Y-107800002D01*
X143755249Y-107799997D01*
X143736314Y-107631943D01*
X143680454Y-107472305D01*
X143680452Y-107472302D01*
X143590481Y-107329115D01*
X143590476Y-107329109D01*
X143470890Y-107209523D01*
X143470884Y-107209518D01*
X143327697Y-107119547D01*
X143327694Y-107119545D01*
X143168056Y-107063685D01*
X143000003Y-107044751D01*
X142999997Y-107044751D01*
X142831943Y-107063685D01*
X142672305Y-107119545D01*
X142672302Y-107119547D01*
X142529115Y-107209518D01*
X142529109Y-107209523D01*
X142409523Y-107329109D01*
X142409518Y-107329115D01*
X142319547Y-107472302D01*
X142319545Y-107472305D01*
X142263685Y-107631943D01*
X142244751Y-107799997D01*
X142244751Y-107800002D01*
X127309899Y-107800002D01*
X127171402Y-107661506D01*
X127171396Y-107661501D01*
X126985842Y-107531575D01*
X126942217Y-107476998D01*
X126935023Y-107407500D01*
X126966546Y-107345145D01*
X126985842Y-107328425D01*
X127008026Y-107312891D01*
X127171401Y-107198495D01*
X127338495Y-107031401D01*
X127474035Y-106837830D01*
X127573903Y-106623663D01*
X127580243Y-106600003D01*
X147594435Y-106600003D01*
X147614630Y-106779249D01*
X147614631Y-106779254D01*
X147674211Y-106949523D01*
X147738687Y-107052135D01*
X147770184Y-107102262D01*
X147897738Y-107229816D01*
X148050478Y-107325789D01*
X148213983Y-107383002D01*
X148220745Y-107385368D01*
X148220750Y-107385369D01*
X148399996Y-107405565D01*
X148400000Y-107405565D01*
X148400004Y-107405565D01*
X148579249Y-107385369D01*
X148579252Y-107385368D01*
X148579255Y-107385368D01*
X148749522Y-107325789D01*
X148902262Y-107229816D01*
X149029816Y-107102262D01*
X149125789Y-106949522D01*
X149185368Y-106779255D01*
X149185368Y-106779254D01*
X149187668Y-106772682D01*
X149190370Y-106773627D01*
X149218176Y-106723882D01*
X149279827Y-106691005D01*
X149349466Y-106696678D01*
X149392667Y-106724745D01*
X149397738Y-106729816D01*
X149417853Y-106742455D01*
X149546890Y-106823535D01*
X149550478Y-106825789D01*
X149584901Y-106837834D01*
X149720745Y-106885368D01*
X149720750Y-106885369D01*
X149899996Y-106905565D01*
X149900000Y-106905565D01*
X149900004Y-106905565D01*
X150079249Y-106885369D01*
X150079252Y-106885368D01*
X150079255Y-106885368D01*
X150249522Y-106825789D01*
X150402262Y-106729816D01*
X150529816Y-106602262D01*
X150625789Y-106449522D01*
X150685368Y-106279255D01*
X150685369Y-106279249D01*
X150705565Y-106100003D01*
X150705565Y-106099996D01*
X150685369Y-105920750D01*
X150685368Y-105920745D01*
X150625788Y-105750476D01*
X150529815Y-105597737D01*
X150402262Y-105470184D01*
X150249523Y-105374211D01*
X150079254Y-105314631D01*
X150079249Y-105314630D01*
X149900004Y-105294435D01*
X149899996Y-105294435D01*
X149720750Y-105314630D01*
X149720745Y-105314631D01*
X149550476Y-105374211D01*
X149397737Y-105470184D01*
X149270184Y-105597737D01*
X149174211Y-105750476D01*
X149112332Y-105927318D01*
X149109648Y-105926378D01*
X149081738Y-105976200D01*
X149020055Y-106009018D01*
X148950422Y-106003278D01*
X148907332Y-105975254D01*
X148902262Y-105970184D01*
X148749523Y-105874211D01*
X148579254Y-105814631D01*
X148579249Y-105814630D01*
X148400004Y-105794435D01*
X148399996Y-105794435D01*
X148220750Y-105814630D01*
X148220745Y-105814631D01*
X148050476Y-105874211D01*
X147897737Y-105970184D01*
X147770184Y-106097737D01*
X147674211Y-106250476D01*
X147614631Y-106420745D01*
X147614630Y-106420750D01*
X147594435Y-106599996D01*
X147594435Y-106600003D01*
X127580243Y-106600003D01*
X127635063Y-106395408D01*
X127655659Y-106160000D01*
X127635063Y-105924592D01*
X127573903Y-105696337D01*
X127474035Y-105482171D01*
X127429144Y-105418059D01*
X127338494Y-105288597D01*
X127299899Y-105250002D01*
X170244751Y-105250002D01*
X170263685Y-105418056D01*
X170319545Y-105577694D01*
X170319547Y-105577697D01*
X170409518Y-105720884D01*
X170409523Y-105720890D01*
X170529109Y-105840476D01*
X170529115Y-105840481D01*
X170672302Y-105930452D01*
X170672305Y-105930454D01*
X170672309Y-105930455D01*
X170672310Y-105930456D01*
X170744913Y-105955860D01*
X170831943Y-105986314D01*
X170999997Y-106005249D01*
X171000000Y-106005249D01*
X171000003Y-106005249D01*
X171168056Y-105986314D01*
X171214153Y-105970184D01*
X171327690Y-105930456D01*
X171327692Y-105930454D01*
X171327694Y-105930454D01*
X171327697Y-105930452D01*
X171470884Y-105840481D01*
X171470885Y-105840480D01*
X171470890Y-105840477D01*
X171590477Y-105720890D01*
X171590481Y-105720884D01*
X171680452Y-105577697D01*
X171680454Y-105577694D01*
X171680454Y-105577692D01*
X171680456Y-105577690D01*
X171736313Y-105418059D01*
X171736313Y-105418058D01*
X171736314Y-105418056D01*
X171755249Y-105250002D01*
X171755249Y-105249997D01*
X171736314Y-105081943D01*
X171698842Y-104974855D01*
X171680456Y-104922310D01*
X171680455Y-104922309D01*
X171680454Y-104922305D01*
X171680452Y-104922302D01*
X171590481Y-104779115D01*
X171590476Y-104779109D01*
X171470890Y-104659523D01*
X171470884Y-104659518D01*
X171327697Y-104569547D01*
X171327694Y-104569545D01*
X171168056Y-104513685D01*
X171000003Y-104494751D01*
X170999997Y-104494751D01*
X170831943Y-104513685D01*
X170672305Y-104569545D01*
X170672302Y-104569547D01*
X170529115Y-104659518D01*
X170529109Y-104659523D01*
X170409523Y-104779109D01*
X170409518Y-104779115D01*
X170319547Y-104922302D01*
X170319545Y-104922305D01*
X170263685Y-105081943D01*
X170244751Y-105249997D01*
X170244751Y-105250002D01*
X127299899Y-105250002D01*
X127171402Y-105121506D01*
X127171396Y-105121501D01*
X126985842Y-104991575D01*
X126942217Y-104936998D01*
X126935023Y-104867500D01*
X126966546Y-104805145D01*
X126985842Y-104788425D01*
X127131671Y-104686314D01*
X127171401Y-104658495D01*
X127338495Y-104491401D01*
X127474035Y-104297830D01*
X127573903Y-104083663D01*
X127609717Y-103950002D01*
X169044751Y-103950002D01*
X169063685Y-104118056D01*
X169119545Y-104277694D01*
X169119547Y-104277697D01*
X169209518Y-104420884D01*
X169209523Y-104420890D01*
X169329109Y-104540476D01*
X169329115Y-104540481D01*
X169472302Y-104630452D01*
X169472305Y-104630454D01*
X169472309Y-104630455D01*
X169472310Y-104630456D01*
X169544913Y-104655860D01*
X169631943Y-104686314D01*
X169799997Y-104705249D01*
X169800000Y-104705249D01*
X169800003Y-104705249D01*
X169968056Y-104686314D01*
X169968059Y-104686313D01*
X170127690Y-104630456D01*
X170127692Y-104630454D01*
X170127694Y-104630454D01*
X170127697Y-104630452D01*
X170270884Y-104540481D01*
X170270885Y-104540480D01*
X170270890Y-104540477D01*
X170390477Y-104420890D01*
X170467799Y-104297834D01*
X170480452Y-104277697D01*
X170480454Y-104277694D01*
X170480454Y-104277692D01*
X170480456Y-104277690D01*
X170536313Y-104118059D01*
X170536313Y-104118058D01*
X170536314Y-104118056D01*
X170555249Y-103950002D01*
X170555249Y-103949997D01*
X170536314Y-103781943D01*
X170480454Y-103622305D01*
X170480452Y-103622302D01*
X170390481Y-103479115D01*
X170390476Y-103479109D01*
X170270890Y-103359523D01*
X170270884Y-103359518D01*
X170127697Y-103269547D01*
X170127694Y-103269545D01*
X169968056Y-103213685D01*
X169800003Y-103194751D01*
X169799997Y-103194751D01*
X169631943Y-103213685D01*
X169472305Y-103269545D01*
X169472302Y-103269547D01*
X169329115Y-103359518D01*
X169329109Y-103359523D01*
X169209523Y-103479109D01*
X169209518Y-103479115D01*
X169119547Y-103622302D01*
X169119545Y-103622305D01*
X169063685Y-103781943D01*
X169044751Y-103949997D01*
X169044751Y-103950002D01*
X127609717Y-103950002D01*
X127635063Y-103855408D01*
X127655659Y-103620000D01*
X127635063Y-103384592D01*
X127573903Y-103156337D01*
X127474035Y-102942171D01*
X127446087Y-102902256D01*
X127338494Y-102748597D01*
X127171402Y-102581506D01*
X127171396Y-102581501D01*
X126985842Y-102451575D01*
X126942217Y-102396998D01*
X126935023Y-102327500D01*
X126966546Y-102265145D01*
X126985842Y-102248425D01*
X127045087Y-102206941D01*
X127171401Y-102118495D01*
X127271144Y-102018752D01*
X138226001Y-102018752D01*
X138244935Y-102186806D01*
X138300795Y-102346444D01*
X138300797Y-102346447D01*
X138390768Y-102489634D01*
X138390773Y-102489640D01*
X138510359Y-102609226D01*
X138510365Y-102609231D01*
X138653552Y-102699202D01*
X138653555Y-102699204D01*
X138653559Y-102699205D01*
X138653560Y-102699206D01*
X138663537Y-102702697D01*
X138813193Y-102755064D01*
X138981247Y-102773999D01*
X138981250Y-102773999D01*
X138981253Y-102773999D01*
X139149306Y-102755064D01*
X139149309Y-102755063D01*
X139163773Y-102750002D01*
X144544751Y-102750002D01*
X144563685Y-102918056D01*
X144619545Y-103077694D01*
X144619547Y-103077697D01*
X144709518Y-103220884D01*
X144709523Y-103220890D01*
X144829109Y-103340476D01*
X144829115Y-103340481D01*
X144972302Y-103430452D01*
X144972305Y-103430454D01*
X144972309Y-103430455D01*
X144972310Y-103430456D01*
X145044913Y-103455860D01*
X145131943Y-103486314D01*
X145299997Y-103505249D01*
X145300000Y-103505249D01*
X145300003Y-103505249D01*
X145468056Y-103486314D01*
X145468059Y-103486313D01*
X145627690Y-103430456D01*
X145627692Y-103430454D01*
X145627694Y-103430454D01*
X145627697Y-103430452D01*
X145770884Y-103340481D01*
X145770885Y-103340480D01*
X145770890Y-103340477D01*
X145890477Y-103220890D01*
X145896495Y-103211313D01*
X145980452Y-103077697D01*
X145980454Y-103077694D01*
X145980454Y-103077692D01*
X145980456Y-103077690D01*
X146036313Y-102918059D01*
X146036313Y-102918058D01*
X146036314Y-102918056D01*
X146055249Y-102750002D01*
X146055249Y-102749997D01*
X146036314Y-102581943D01*
X146000730Y-102480249D01*
X145980456Y-102422310D01*
X145980455Y-102422309D01*
X145980454Y-102422305D01*
X145980452Y-102422302D01*
X145890481Y-102279115D01*
X145890476Y-102279109D01*
X145770890Y-102159523D01*
X145770884Y-102159518D01*
X145627697Y-102069547D01*
X145627694Y-102069545D01*
X145468056Y-102013685D01*
X145346609Y-102000002D01*
X149044751Y-102000002D01*
X149063685Y-102168056D01*
X149119545Y-102327694D01*
X149119547Y-102327697D01*
X149209518Y-102470884D01*
X149209523Y-102470890D01*
X149329109Y-102590476D01*
X149329115Y-102590481D01*
X149472302Y-102680452D01*
X149472305Y-102680454D01*
X149472309Y-102680455D01*
X149472310Y-102680456D01*
X149541484Y-102704661D01*
X149631943Y-102736314D01*
X149799997Y-102755249D01*
X149800000Y-102755249D01*
X149800003Y-102755249D01*
X149974979Y-102735534D01*
X149975122Y-102736806D01*
X150037585Y-102740626D01*
X150093947Y-102781917D01*
X150100446Y-102791277D01*
X150170179Y-102902256D01*
X150170184Y-102902262D01*
X150297738Y-103029816D01*
X150373929Y-103077690D01*
X150427439Y-103111313D01*
X150450478Y-103125789D01*
X150620745Y-103185368D01*
X150620750Y-103185369D01*
X150799996Y-103205565D01*
X150800000Y-103205565D01*
X150800004Y-103205565D01*
X150979249Y-103185369D01*
X150979252Y-103185368D01*
X150979255Y-103185368D01*
X151149522Y-103125789D01*
X151302262Y-103029816D01*
X151429816Y-102902262D01*
X151525789Y-102749522D01*
X151585368Y-102579255D01*
X151586311Y-102570890D01*
X151605565Y-102400003D01*
X151605565Y-102399996D01*
X151585369Y-102220750D01*
X151585368Y-102220745D01*
X151542681Y-102098753D01*
X151525789Y-102050478D01*
X151523798Y-102047310D01*
X151433823Y-101904115D01*
X151429816Y-101897738D01*
X151302262Y-101770184D01*
X151222840Y-101720280D01*
X151149519Y-101674209D01*
X151116246Y-101662566D01*
X151059470Y-101621844D01*
X151033723Y-101556892D01*
X151047180Y-101488330D01*
X151091227Y-101440532D01*
X151170890Y-101390477D01*
X151261365Y-101300002D01*
X153044751Y-101300002D01*
X153063685Y-101468056D01*
X153119545Y-101627694D01*
X153119547Y-101627697D01*
X153209518Y-101770884D01*
X153209523Y-101770890D01*
X153329109Y-101890476D01*
X153329115Y-101890481D01*
X153472302Y-101980452D01*
X153472305Y-101980454D01*
X153472309Y-101980455D01*
X153472310Y-101980456D01*
X153513163Y-101994751D01*
X153631943Y-102036314D01*
X153799997Y-102055249D01*
X153800000Y-102055249D01*
X153800003Y-102055249D01*
X153968059Y-102036313D01*
X153968060Y-102036313D01*
X154055850Y-102005594D01*
X154125629Y-102002032D01*
X154186256Y-102036760D01*
X154218484Y-102098753D01*
X154213847Y-102163589D01*
X154163686Y-102306942D01*
X154144751Y-102474997D01*
X154144751Y-102475002D01*
X154163685Y-102643056D01*
X154219545Y-102802694D01*
X154219547Y-102802697D01*
X154309518Y-102945884D01*
X154309523Y-102945890D01*
X154429109Y-103065476D01*
X154429115Y-103065481D01*
X154572302Y-103155452D01*
X154572305Y-103155454D01*
X154572309Y-103155455D01*
X154572310Y-103155456D01*
X154574828Y-103156337D01*
X154731943Y-103211314D01*
X154899997Y-103230249D01*
X154900000Y-103230249D01*
X154900003Y-103230249D01*
X155068056Y-103211314D01*
X155084486Y-103205565D01*
X155227690Y-103155456D01*
X155227692Y-103155454D01*
X155227694Y-103155454D01*
X155227697Y-103155452D01*
X155370884Y-103065481D01*
X155370885Y-103065480D01*
X155370890Y-103065477D01*
X155490477Y-102945890D01*
X155492815Y-102942169D01*
X155580452Y-102802697D01*
X155580454Y-102802694D01*
X155580454Y-102802692D01*
X155580456Y-102802690D01*
X155636313Y-102643059D01*
X155636313Y-102643057D01*
X155636314Y-102643055D01*
X155643003Y-102583689D01*
X155670069Y-102519275D01*
X155727664Y-102479720D01*
X155752340Y-102474352D01*
X155868055Y-102461314D01*
X155868057Y-102461313D01*
X155868059Y-102461313D01*
X156027690Y-102405456D01*
X156027692Y-102405454D01*
X156027694Y-102405454D01*
X156027697Y-102405452D01*
X156076158Y-102375002D01*
X157044751Y-102375002D01*
X157063685Y-102543056D01*
X157119545Y-102702694D01*
X157119547Y-102702697D01*
X157209518Y-102845884D01*
X157209523Y-102845890D01*
X157329109Y-102965476D01*
X157329115Y-102965481D01*
X157472302Y-103055452D01*
X157472305Y-103055454D01*
X157472309Y-103055455D01*
X157472310Y-103055456D01*
X157544913Y-103080860D01*
X157631943Y-103111314D01*
X157799997Y-103130249D01*
X157800000Y-103130249D01*
X157800003Y-103130249D01*
X157968056Y-103111314D01*
X157968059Y-103111313D01*
X158127690Y-103055456D01*
X158127692Y-103055454D01*
X158127694Y-103055454D01*
X158127697Y-103055452D01*
X158270884Y-102965481D01*
X158270885Y-102965480D01*
X158270890Y-102965477D01*
X158390477Y-102845890D01*
X158431592Y-102780456D01*
X158480452Y-102702697D01*
X158480454Y-102702694D01*
X158480454Y-102702692D01*
X158480456Y-102702690D01*
X158536313Y-102543059D01*
X158536313Y-102543058D01*
X158536314Y-102543056D01*
X158555249Y-102375002D01*
X158555249Y-102374997D01*
X158536314Y-102206943D01*
X158482340Y-102052694D01*
X158480456Y-102047310D01*
X158480455Y-102047309D01*
X158480454Y-102047305D01*
X158480452Y-102047302D01*
X158390481Y-101904115D01*
X158390476Y-101904109D01*
X158270890Y-101784523D01*
X158270884Y-101784518D01*
X158127697Y-101694547D01*
X158127694Y-101694545D01*
X157968056Y-101638685D01*
X157800003Y-101619751D01*
X157799997Y-101619751D01*
X157631943Y-101638685D01*
X157472305Y-101694545D01*
X157472302Y-101694547D01*
X157329115Y-101784518D01*
X157329109Y-101784523D01*
X157209523Y-101904109D01*
X157209518Y-101904115D01*
X157119547Y-102047302D01*
X157119545Y-102047305D01*
X157063685Y-102206943D01*
X157044751Y-102374997D01*
X157044751Y-102375002D01*
X156076158Y-102375002D01*
X156170884Y-102315481D01*
X156170885Y-102315480D01*
X156170890Y-102315477D01*
X156290477Y-102195890D01*
X156306186Y-102170890D01*
X156380452Y-102052697D01*
X156380454Y-102052694D01*
X156380454Y-102052692D01*
X156380456Y-102052690D01*
X156436313Y-101893059D01*
X156436313Y-101893058D01*
X156436314Y-101893056D01*
X156455249Y-101725002D01*
X156455249Y-101724997D01*
X156436314Y-101556943D01*
X156399940Y-101452992D01*
X156380456Y-101397310D01*
X156380455Y-101397309D01*
X156380454Y-101397305D01*
X156380452Y-101397302D01*
X156290481Y-101254115D01*
X156290476Y-101254109D01*
X156170890Y-101134523D01*
X156170884Y-101134518D01*
X156027697Y-101044547D01*
X156027694Y-101044545D01*
X155868056Y-100988685D01*
X155700003Y-100969751D01*
X155699997Y-100969751D01*
X155531943Y-100988685D01*
X155372305Y-101044545D01*
X155372302Y-101044547D01*
X155229115Y-101134518D01*
X155229109Y-101134523D01*
X155109523Y-101254109D01*
X155109518Y-101254115D01*
X155019547Y-101397302D01*
X155019544Y-101397307D01*
X154994789Y-101468056D01*
X154963687Y-101556941D01*
X154959462Y-101594435D01*
X154956997Y-101616312D01*
X154929929Y-101680726D01*
X154872334Y-101720280D01*
X154847661Y-101725647D01*
X154731942Y-101738686D01*
X154644148Y-101769406D01*
X154574369Y-101772967D01*
X154513742Y-101738238D01*
X154481515Y-101676244D01*
X154486153Y-101611409D01*
X154536313Y-101468061D01*
X154536313Y-101468059D01*
X154555249Y-101300002D01*
X154555249Y-101299997D01*
X154536314Y-101131943D01*
X154496984Y-101019544D01*
X154480456Y-100972310D01*
X154480455Y-100972309D01*
X154480454Y-100972305D01*
X154480452Y-100972302D01*
X154390481Y-100829115D01*
X154390476Y-100829109D01*
X154348091Y-100786724D01*
X154314606Y-100725401D01*
X154319590Y-100655709D01*
X154361462Y-100599776D01*
X154426926Y-100575359D01*
X154476727Y-100582002D01*
X154631939Y-100636313D01*
X154799997Y-100655249D01*
X154800000Y-100655249D01*
X154800003Y-100655249D01*
X154968056Y-100636314D01*
X154980548Y-100631943D01*
X155127690Y-100580456D01*
X155127692Y-100580454D01*
X155127694Y-100580454D01*
X155127697Y-100580452D01*
X155270884Y-100490481D01*
X155270885Y-100490480D01*
X155270890Y-100490477D01*
X155390477Y-100370890D01*
X155390481Y-100370884D01*
X155480452Y-100227697D01*
X155480454Y-100227694D01*
X155480454Y-100227692D01*
X155480456Y-100227690D01*
X155536313Y-100068059D01*
X155536313Y-100068058D01*
X155536314Y-100068056D01*
X155555249Y-99900002D01*
X155555249Y-99899997D01*
X155536313Y-99731940D01*
X155536313Y-99731938D01*
X155508228Y-99651677D01*
X155504858Y-99585670D01*
X155473968Y-99561547D01*
X155469737Y-99555249D01*
X155390481Y-99429115D01*
X155390476Y-99429109D01*
X155270890Y-99309523D01*
X155270884Y-99309518D01*
X155127697Y-99219547D01*
X155127694Y-99219545D01*
X154968056Y-99163685D01*
X154800003Y-99144751D01*
X154799997Y-99144751D01*
X154631943Y-99163685D01*
X154472305Y-99219545D01*
X154472302Y-99219547D01*
X154329115Y-99309518D01*
X154329109Y-99309523D01*
X154209523Y-99429109D01*
X154209518Y-99429115D01*
X154119547Y-99572302D01*
X154119545Y-99572305D01*
X154063685Y-99731943D01*
X154044751Y-99899997D01*
X154044751Y-99900002D01*
X154063685Y-100068056D01*
X154119545Y-100227694D01*
X154119547Y-100227697D01*
X154209518Y-100370884D01*
X154209523Y-100370890D01*
X154251908Y-100413275D01*
X154285393Y-100474598D01*
X154280409Y-100544290D01*
X154238537Y-100600223D01*
X154173073Y-100624640D01*
X154123273Y-100617998D01*
X153968057Y-100563686D01*
X153800003Y-100544751D01*
X153799997Y-100544751D01*
X153631943Y-100563685D01*
X153472305Y-100619545D01*
X153472302Y-100619547D01*
X153329115Y-100709518D01*
X153329109Y-100709523D01*
X153209523Y-100829109D01*
X153209518Y-100829115D01*
X153119547Y-100972302D01*
X153119545Y-100972305D01*
X153063685Y-101131943D01*
X153044751Y-101299997D01*
X153044751Y-101300002D01*
X151261365Y-101300002D01*
X151290477Y-101270890D01*
X151295120Y-101263501D01*
X151380452Y-101127697D01*
X151380454Y-101127694D01*
X151380454Y-101127692D01*
X151380456Y-101127690D01*
X151436313Y-100968059D01*
X151436313Y-100968058D01*
X151436314Y-100968056D01*
X151455249Y-100800002D01*
X151455249Y-100799997D01*
X151436314Y-100631943D01*
X151386813Y-100490477D01*
X151380456Y-100472310D01*
X151380455Y-100472309D01*
X151380454Y-100472305D01*
X151380452Y-100472302D01*
X151290481Y-100329115D01*
X151290476Y-100329109D01*
X151170890Y-100209523D01*
X151170884Y-100209518D01*
X151027697Y-100119547D01*
X151027694Y-100119545D01*
X150868056Y-100063685D01*
X150700003Y-100044751D01*
X150699997Y-100044751D01*
X150531942Y-100063686D01*
X150451676Y-100091772D01*
X150385670Y-100095140D01*
X150361548Y-100126031D01*
X150355250Y-100130262D01*
X150229112Y-100209521D01*
X150229109Y-100209523D01*
X150109523Y-100329109D01*
X150109518Y-100329115D01*
X150019547Y-100472302D01*
X150019545Y-100472305D01*
X149963685Y-100631943D01*
X149944751Y-100799997D01*
X149944751Y-100800002D01*
X149963686Y-100968057D01*
X150006018Y-101089037D01*
X150009579Y-101158816D01*
X149974850Y-101219443D01*
X149912856Y-101251670D01*
X149875093Y-101253211D01*
X149800004Y-101244751D01*
X149799997Y-101244751D01*
X149631943Y-101263685D01*
X149472305Y-101319545D01*
X149472302Y-101319547D01*
X149329115Y-101409518D01*
X149329109Y-101409523D01*
X149209523Y-101529109D01*
X149209518Y-101529115D01*
X149119547Y-101672302D01*
X149119545Y-101672305D01*
X149063685Y-101831943D01*
X149044751Y-101999997D01*
X149044751Y-102000002D01*
X145346609Y-102000002D01*
X145300003Y-101994751D01*
X145299997Y-101994751D01*
X145131943Y-102013685D01*
X144972305Y-102069545D01*
X144972302Y-102069547D01*
X144829115Y-102159518D01*
X144829109Y-102159523D01*
X144709523Y-102279109D01*
X144709518Y-102279115D01*
X144619547Y-102422302D01*
X144619545Y-102422305D01*
X144563685Y-102581943D01*
X144544751Y-102749997D01*
X144544751Y-102750002D01*
X139163773Y-102750002D01*
X139308940Y-102699206D01*
X139308942Y-102699204D01*
X139308944Y-102699204D01*
X139308947Y-102699202D01*
X139452134Y-102609231D01*
X139452135Y-102609230D01*
X139452140Y-102609227D01*
X139571727Y-102489640D01*
X139581333Y-102474352D01*
X139661702Y-102346447D01*
X139661704Y-102346444D01*
X139661704Y-102346442D01*
X139661706Y-102346440D01*
X139717563Y-102186809D01*
X139717563Y-102186808D01*
X139717564Y-102186806D01*
X139736499Y-102018752D01*
X139736499Y-102018747D01*
X139717564Y-101850693D01*
X139661704Y-101691055D01*
X139661702Y-101691052D01*
X139571731Y-101547865D01*
X139571726Y-101547859D01*
X139452140Y-101428273D01*
X139452134Y-101428268D01*
X139308947Y-101338297D01*
X139308944Y-101338295D01*
X139149306Y-101282435D01*
X138981253Y-101263501D01*
X138981247Y-101263501D01*
X138813193Y-101282435D01*
X138653555Y-101338295D01*
X138653552Y-101338297D01*
X138510365Y-101428268D01*
X138510359Y-101428273D01*
X138390773Y-101547859D01*
X138390768Y-101547865D01*
X138300797Y-101691052D01*
X138300795Y-101691055D01*
X138244935Y-101850693D01*
X138226001Y-102018747D01*
X138226001Y-102018752D01*
X127271144Y-102018752D01*
X127338495Y-101951401D01*
X127474035Y-101757830D01*
X127573903Y-101543663D01*
X127635063Y-101315408D01*
X127655659Y-101080000D01*
X127635063Y-100844592D01*
X127579256Y-100636314D01*
X127573905Y-100616344D01*
X127573904Y-100616343D01*
X127573903Y-100616337D01*
X127474035Y-100402171D01*
X127473858Y-100401917D01*
X127338494Y-100208597D01*
X127171402Y-100041506D01*
X127171396Y-100041501D01*
X126985842Y-99911575D01*
X126942217Y-99856998D01*
X126935023Y-99787500D01*
X126966546Y-99725145D01*
X126985842Y-99708425D01*
X127066886Y-99651677D01*
X127171401Y-99578495D01*
X127199894Y-99550002D01*
X139394751Y-99550002D01*
X139413685Y-99718056D01*
X139469545Y-99877694D01*
X139469547Y-99877697D01*
X139559518Y-100020884D01*
X139559523Y-100020890D01*
X139679109Y-100140476D01*
X139679115Y-100140481D01*
X139822302Y-100230452D01*
X139822305Y-100230454D01*
X139822309Y-100230455D01*
X139822310Y-100230456D01*
X139894913Y-100255860D01*
X139981943Y-100286314D01*
X140149997Y-100305249D01*
X140150000Y-100305249D01*
X140150003Y-100305249D01*
X140318056Y-100286314D01*
X140334809Y-100280452D01*
X140477690Y-100230456D01*
X140477692Y-100230454D01*
X140477694Y-100230454D01*
X140477697Y-100230452D01*
X140620884Y-100140481D01*
X140620885Y-100140480D01*
X140620890Y-100140477D01*
X140740477Y-100020890D01*
X140769120Y-99975305D01*
X140830452Y-99877697D01*
X140830454Y-99877694D01*
X140830454Y-99877692D01*
X140830456Y-99877690D01*
X140886313Y-99718059D01*
X140886313Y-99718058D01*
X140886314Y-99718056D01*
X140905249Y-99550002D01*
X140905249Y-99549997D01*
X140886314Y-99381943D01*
X140875137Y-99350002D01*
X145494751Y-99350002D01*
X145513685Y-99518056D01*
X145569545Y-99677694D01*
X145569547Y-99677697D01*
X145659518Y-99820884D01*
X145659523Y-99820890D01*
X145779109Y-99940476D01*
X145779115Y-99940481D01*
X145922302Y-100030452D01*
X145922305Y-100030454D01*
X145922309Y-100030455D01*
X145922310Y-100030456D01*
X145963163Y-100044751D01*
X146081943Y-100086314D01*
X146249997Y-100105249D01*
X146250000Y-100105249D01*
X146250003Y-100105249D01*
X146418056Y-100086314D01*
X146450821Y-100074849D01*
X146577690Y-100030456D01*
X146577692Y-100030454D01*
X146577694Y-100030454D01*
X146577697Y-100030452D01*
X146720884Y-99940481D01*
X146720885Y-99940480D01*
X146720890Y-99940477D01*
X146840477Y-99820890D01*
X146847320Y-99810000D01*
X146930452Y-99677697D01*
X146930454Y-99677694D01*
X146930454Y-99677692D01*
X146930456Y-99677690D01*
X146957640Y-99600002D01*
X147444751Y-99600002D01*
X147463685Y-99768056D01*
X147519545Y-99927694D01*
X147519547Y-99927697D01*
X147609518Y-100070884D01*
X147609523Y-100070890D01*
X147729109Y-100190476D01*
X147729115Y-100190481D01*
X147872302Y-100280452D01*
X147872305Y-100280454D01*
X147872309Y-100280455D01*
X147872310Y-100280456D01*
X147943165Y-100305249D01*
X148031943Y-100336314D01*
X148199997Y-100355249D01*
X148200000Y-100355249D01*
X148200003Y-100355249D01*
X148368056Y-100336314D01*
X148368059Y-100336313D01*
X148527690Y-100280456D01*
X148527692Y-100280454D01*
X148527694Y-100280454D01*
X148527697Y-100280452D01*
X148670884Y-100190481D01*
X148670885Y-100190480D01*
X148670890Y-100190477D01*
X148790477Y-100070890D01*
X148790481Y-100070884D01*
X148880452Y-99927697D01*
X148880454Y-99927694D01*
X148880454Y-99927692D01*
X148880456Y-99927690D01*
X148936313Y-99768059D01*
X148936313Y-99768058D01*
X148936314Y-99768056D01*
X148955249Y-99600002D01*
X148955249Y-99599997D01*
X148936314Y-99431943D01*
X148893477Y-99309523D01*
X148880456Y-99272310D01*
X148880455Y-99272309D01*
X148880454Y-99272305D01*
X148880452Y-99272302D01*
X148835023Y-99200002D01*
X149244751Y-99200002D01*
X149263685Y-99368056D01*
X149319545Y-99527694D01*
X149319547Y-99527697D01*
X149409518Y-99670884D01*
X149409523Y-99670890D01*
X149529109Y-99790476D01*
X149529115Y-99790481D01*
X149672302Y-99880452D01*
X149672305Y-99880454D01*
X149672309Y-99880455D01*
X149672310Y-99880456D01*
X149728155Y-99899997D01*
X149831943Y-99936314D01*
X149999997Y-99955249D01*
X150000000Y-99955249D01*
X150000003Y-99955249D01*
X150126044Y-99941047D01*
X150168059Y-99936313D01*
X150248321Y-99908227D01*
X150314329Y-99904857D01*
X150338453Y-99873967D01*
X150344740Y-99869742D01*
X150470890Y-99790477D01*
X150590477Y-99670890D01*
X150590481Y-99670884D01*
X150680452Y-99527697D01*
X150680454Y-99527694D01*
X150680454Y-99527692D01*
X150680456Y-99527690D01*
X150736313Y-99368059D01*
X150736313Y-99368058D01*
X150736314Y-99368056D01*
X150755249Y-99200002D01*
X150755249Y-99199997D01*
X150736314Y-99031943D01*
X150680454Y-98872305D01*
X150680452Y-98872302D01*
X150590481Y-98729115D01*
X150590476Y-98729109D01*
X150470890Y-98609523D01*
X150470884Y-98609518D01*
X150327697Y-98519547D01*
X150327694Y-98519545D01*
X150168056Y-98463685D01*
X150000003Y-98444751D01*
X149999997Y-98444751D01*
X149831943Y-98463685D01*
X149672305Y-98519545D01*
X149672302Y-98519547D01*
X149529115Y-98609518D01*
X149529109Y-98609523D01*
X149409523Y-98729109D01*
X149409518Y-98729115D01*
X149319547Y-98872302D01*
X149319545Y-98872305D01*
X149263685Y-99031943D01*
X149244751Y-99199997D01*
X149244751Y-99200002D01*
X148835023Y-99200002D01*
X148790481Y-99129115D01*
X148790476Y-99129109D01*
X148670890Y-99009523D01*
X148670884Y-99009518D01*
X148527697Y-98919547D01*
X148527694Y-98919545D01*
X148368056Y-98863685D01*
X148200003Y-98844751D01*
X148199997Y-98844751D01*
X148031943Y-98863685D01*
X147872305Y-98919545D01*
X147872302Y-98919547D01*
X147729115Y-99009518D01*
X147729109Y-99009523D01*
X147609523Y-99129109D01*
X147609518Y-99129115D01*
X147519547Y-99272302D01*
X147519545Y-99272305D01*
X147463685Y-99431943D01*
X147444751Y-99599997D01*
X147444751Y-99600002D01*
X146957640Y-99600002D01*
X146986313Y-99518059D01*
X146986313Y-99518058D01*
X146986314Y-99518056D01*
X147005249Y-99350002D01*
X147005249Y-99349997D01*
X146986314Y-99181943D01*
X146933827Y-99031944D01*
X146930456Y-99022310D01*
X146930455Y-99022309D01*
X146930454Y-99022305D01*
X146930452Y-99022302D01*
X146840481Y-98879115D01*
X146840476Y-98879109D01*
X146720890Y-98759523D01*
X146720884Y-98759518D01*
X146577697Y-98669547D01*
X146577694Y-98669545D01*
X146418056Y-98613685D01*
X146250003Y-98594751D01*
X146249997Y-98594751D01*
X146081943Y-98613685D01*
X145922305Y-98669545D01*
X145922302Y-98669547D01*
X145779115Y-98759518D01*
X145779109Y-98759523D01*
X145659523Y-98879109D01*
X145659518Y-98879115D01*
X145569547Y-99022302D01*
X145569545Y-99022305D01*
X145513685Y-99181943D01*
X145494751Y-99349997D01*
X145494751Y-99350002D01*
X140875137Y-99350002D01*
X140830454Y-99222305D01*
X140830452Y-99222302D01*
X140740481Y-99079115D01*
X140740476Y-99079109D01*
X140620890Y-98959523D01*
X140620884Y-98959518D01*
X140477697Y-98869547D01*
X140477694Y-98869545D01*
X140318056Y-98813685D01*
X140150003Y-98794751D01*
X140149997Y-98794751D01*
X139981943Y-98813685D01*
X139822305Y-98869545D01*
X139822302Y-98869547D01*
X139679115Y-98959518D01*
X139679109Y-98959523D01*
X139559523Y-99079109D01*
X139559518Y-99079115D01*
X139469547Y-99222302D01*
X139469545Y-99222305D01*
X139413685Y-99381943D01*
X139394751Y-99549997D01*
X139394751Y-99550002D01*
X127199894Y-99550002D01*
X127338495Y-99411401D01*
X127474035Y-99217830D01*
X127573903Y-99003663D01*
X127635063Y-98775408D01*
X127655659Y-98540000D01*
X127635063Y-98304592D01*
X127573903Y-98076337D01*
X127474035Y-97862171D01*
X127437168Y-97809518D01*
X127360484Y-97700002D01*
X144594751Y-97700002D01*
X144613685Y-97868056D01*
X144669545Y-98027694D01*
X144669547Y-98027697D01*
X144759518Y-98170884D01*
X144759523Y-98170890D01*
X144879109Y-98290476D01*
X144879115Y-98290481D01*
X145022302Y-98380452D01*
X145022305Y-98380454D01*
X145022309Y-98380455D01*
X145022310Y-98380456D01*
X145078155Y-98399997D01*
X145181943Y-98436314D01*
X145349997Y-98455249D01*
X145350000Y-98455249D01*
X145350003Y-98455249D01*
X145518056Y-98436314D01*
X145518059Y-98436313D01*
X145677690Y-98380456D01*
X145677692Y-98380454D01*
X145677694Y-98380454D01*
X145677697Y-98380452D01*
X145820884Y-98290481D01*
X145820885Y-98290480D01*
X145820890Y-98290477D01*
X145940477Y-98170890D01*
X145940481Y-98170884D01*
X146030452Y-98027697D01*
X146030454Y-98027694D01*
X146030454Y-98027692D01*
X146030456Y-98027690D01*
X146086313Y-97868059D01*
X146086313Y-97868058D01*
X146086314Y-97868056D01*
X146101780Y-97730791D01*
X146114556Y-97700385D01*
X146114174Y-97699613D01*
X146335443Y-97699613D01*
X146347140Y-97723281D01*
X146348220Y-97730791D01*
X146363685Y-97868056D01*
X146419545Y-98027694D01*
X146419547Y-98027697D01*
X146509518Y-98170884D01*
X146509523Y-98170890D01*
X146629109Y-98290476D01*
X146629115Y-98290481D01*
X146772302Y-98380452D01*
X146772305Y-98380454D01*
X146772309Y-98380455D01*
X146772310Y-98380456D01*
X146828155Y-98399997D01*
X146931943Y-98436314D01*
X147099997Y-98455249D01*
X147100000Y-98455249D01*
X147100003Y-98455249D01*
X147268056Y-98436314D01*
X147268059Y-98436313D01*
X147427690Y-98380456D01*
X147427692Y-98380454D01*
X147427694Y-98380454D01*
X147427697Y-98380452D01*
X147570884Y-98290481D01*
X147570885Y-98290480D01*
X147570890Y-98290477D01*
X147690477Y-98170890D01*
X147690481Y-98170884D01*
X147780452Y-98027697D01*
X147780455Y-98027692D01*
X147782835Y-98020890D01*
X147834202Y-97874091D01*
X147874923Y-97817317D01*
X147939875Y-97791569D01*
X148008437Y-97805025D01*
X148058840Y-97853412D01*
X148068283Y-97874089D01*
X148069541Y-97877685D01*
X148069547Y-97877697D01*
X148159518Y-98020884D01*
X148159523Y-98020890D01*
X148279109Y-98140476D01*
X148279115Y-98140481D01*
X148422302Y-98230452D01*
X148422305Y-98230454D01*
X148422309Y-98230455D01*
X148422310Y-98230456D01*
X148426560Y-98231943D01*
X148581943Y-98286314D01*
X148749997Y-98305249D01*
X148750000Y-98305249D01*
X148750003Y-98305249D01*
X148918056Y-98286314D01*
X148918059Y-98286313D01*
X149077690Y-98230456D01*
X149077692Y-98230454D01*
X149077694Y-98230454D01*
X149077697Y-98230452D01*
X149220884Y-98140481D01*
X149220885Y-98140480D01*
X149220890Y-98140477D01*
X149340477Y-98020890D01*
X149365886Y-97980452D01*
X149430452Y-97877697D01*
X149430454Y-97877694D01*
X149430454Y-97877692D01*
X149430456Y-97877690D01*
X149486313Y-97718059D01*
X149486313Y-97718058D01*
X149486314Y-97718056D01*
X149505249Y-97550002D01*
X149505249Y-97549997D01*
X149486314Y-97381943D01*
X149457641Y-97300002D01*
X149844751Y-97300002D01*
X149863685Y-97468056D01*
X149919545Y-97627694D01*
X149919547Y-97627697D01*
X150009518Y-97770884D01*
X150009523Y-97770890D01*
X150129109Y-97890476D01*
X150129115Y-97890481D01*
X150272302Y-97980452D01*
X150272305Y-97980454D01*
X150272309Y-97980455D01*
X150272310Y-97980456D01*
X150344913Y-98005860D01*
X150431943Y-98036314D01*
X150599997Y-98055249D01*
X150600000Y-98055249D01*
X150600003Y-98055249D01*
X150768056Y-98036314D01*
X150792682Y-98027697D01*
X150927690Y-97980456D01*
X150927692Y-97980454D01*
X150927694Y-97980454D01*
X150927697Y-97980452D01*
X151055732Y-97900002D01*
X154644751Y-97900002D01*
X154663685Y-98068056D01*
X154719545Y-98227694D01*
X154719547Y-98227697D01*
X154809518Y-98370884D01*
X154809523Y-98370890D01*
X154929109Y-98490476D01*
X154929115Y-98490481D01*
X155072302Y-98580452D01*
X155072305Y-98580454D01*
X155072309Y-98580455D01*
X155072310Y-98580456D01*
X155113163Y-98594751D01*
X155231943Y-98636314D01*
X155399997Y-98655249D01*
X155400000Y-98655249D01*
X155400003Y-98655249D01*
X155526044Y-98641047D01*
X155568059Y-98636313D01*
X155617828Y-98618897D01*
X155687607Y-98615335D01*
X155748235Y-98650064D01*
X155780462Y-98712057D01*
X155774058Y-98781632D01*
X155763778Y-98801911D01*
X155719545Y-98872307D01*
X155663685Y-99031943D01*
X155644751Y-99199997D01*
X155644751Y-99200002D01*
X155663686Y-99368057D01*
X155691772Y-99448323D01*
X155695140Y-99514328D01*
X155726031Y-99538452D01*
X155730262Y-99544749D01*
X155809521Y-99670888D01*
X155929109Y-99790476D01*
X155929115Y-99790481D01*
X156072302Y-99880452D01*
X156072305Y-99880454D01*
X156072309Y-99880455D01*
X156072310Y-99880456D01*
X156207298Y-99927690D01*
X156231944Y-99936314D01*
X156316369Y-99945826D01*
X156337787Y-99948239D01*
X156402201Y-99975305D01*
X156441756Y-100032900D01*
X156447124Y-100057575D01*
X156463685Y-100204559D01*
X156519545Y-100364198D01*
X156519547Y-100364201D01*
X156609518Y-100507388D01*
X156609523Y-100507394D01*
X156729109Y-100626980D01*
X156729115Y-100626985D01*
X156872302Y-100716956D01*
X156872305Y-100716958D01*
X156872309Y-100716959D01*
X156872310Y-100716960D01*
X156944913Y-100742364D01*
X157031943Y-100772818D01*
X157199997Y-100791753D01*
X157200000Y-100791753D01*
X157200003Y-100791753D01*
X157368056Y-100772818D01*
X157368059Y-100772817D01*
X157527690Y-100716960D01*
X157527692Y-100716958D01*
X157527694Y-100716958D01*
X157527697Y-100716956D01*
X157670884Y-100626985D01*
X157670885Y-100626984D01*
X157670890Y-100626981D01*
X157790477Y-100507394D01*
X157801107Y-100490477D01*
X157880452Y-100364201D01*
X157880454Y-100364198D01*
X157880454Y-100364196D01*
X157880456Y-100364194D01*
X157936313Y-100204563D01*
X157936313Y-100204562D01*
X157936314Y-100204560D01*
X157955249Y-100036506D01*
X157955249Y-100036501D01*
X157939869Y-99900002D01*
X158244751Y-99900002D01*
X158263685Y-100068056D01*
X158319545Y-100227694D01*
X158319547Y-100227697D01*
X158409518Y-100370884D01*
X158409523Y-100370890D01*
X158529109Y-100490476D01*
X158529115Y-100490481D01*
X158672302Y-100580452D01*
X158672305Y-100580454D01*
X158672309Y-100580455D01*
X158672310Y-100580456D01*
X158727524Y-100599776D01*
X158831943Y-100636314D01*
X158999997Y-100655249D01*
X159000000Y-100655249D01*
X159000003Y-100655249D01*
X159168056Y-100636314D01*
X159180548Y-100631943D01*
X159327690Y-100580456D01*
X159327692Y-100580454D01*
X159327694Y-100580454D01*
X159327697Y-100580452D01*
X159470884Y-100490481D01*
X159470884Y-100490480D01*
X159470890Y-100490477D01*
X159559452Y-100401914D01*
X159620771Y-100368432D01*
X159690463Y-100373416D01*
X159746397Y-100415287D01*
X159770814Y-100480751D01*
X159764904Y-100525075D01*
X159765236Y-100525151D01*
X159764413Y-100528753D01*
X159764175Y-100530544D01*
X159763686Y-100531940D01*
X159744751Y-100699997D01*
X159744751Y-100700002D01*
X159763685Y-100868056D01*
X159819545Y-101027694D01*
X159819547Y-101027697D01*
X159909518Y-101170884D01*
X159909523Y-101170890D01*
X160029109Y-101290476D01*
X160029115Y-101290481D01*
X160172302Y-101380452D01*
X160172305Y-101380454D01*
X160172309Y-101380455D01*
X160172310Y-101380456D01*
X160220462Y-101397305D01*
X160331943Y-101436314D01*
X160499997Y-101455249D01*
X160499999Y-101455249D01*
X160499999Y-101455248D01*
X160500000Y-101455249D01*
X160520028Y-101452992D01*
X160588849Y-101465045D01*
X160640229Y-101512393D01*
X160657855Y-101580003D01*
X160657133Y-101590095D01*
X160644751Y-101699995D01*
X160644751Y-101700002D01*
X160663685Y-101868056D01*
X160719545Y-102027694D01*
X160719547Y-102027697D01*
X160809518Y-102170884D01*
X160809523Y-102170890D01*
X160929109Y-102290476D01*
X160929115Y-102290481D01*
X161072302Y-102380452D01*
X161072305Y-102380454D01*
X161072309Y-102380455D01*
X161072310Y-102380456D01*
X161143745Y-102405452D01*
X161231943Y-102436314D01*
X161399997Y-102455249D01*
X161400000Y-102455249D01*
X161400003Y-102455249D01*
X161568056Y-102436314D01*
X161592682Y-102427697D01*
X161727690Y-102380456D01*
X161727692Y-102380454D01*
X161727694Y-102380454D01*
X161727697Y-102380452D01*
X161870884Y-102290481D01*
X161870884Y-102290480D01*
X161870890Y-102290477D01*
X161954798Y-102206568D01*
X162016117Y-102173086D01*
X162085809Y-102178070D01*
X162141743Y-102219941D01*
X162161029Y-102261611D01*
X162161387Y-102261486D01*
X162162673Y-102265162D01*
X162163367Y-102266661D01*
X162163684Y-102268051D01*
X162219545Y-102427694D01*
X162219547Y-102427697D01*
X162309518Y-102570884D01*
X162309523Y-102570890D01*
X162429109Y-102690476D01*
X162429115Y-102690481D01*
X162572302Y-102780452D01*
X162572305Y-102780454D01*
X162572309Y-102780455D01*
X162572310Y-102780456D01*
X162644913Y-102805860D01*
X162731943Y-102836314D01*
X162899997Y-102855249D01*
X162900000Y-102855249D01*
X162900003Y-102855249D01*
X163068056Y-102836314D01*
X163068059Y-102836313D01*
X163227690Y-102780456D01*
X163227692Y-102780454D01*
X163227694Y-102780454D01*
X163227697Y-102780452D01*
X163370884Y-102690481D01*
X163370885Y-102690480D01*
X163370890Y-102690477D01*
X163490477Y-102570890D01*
X163490481Y-102570884D01*
X163580452Y-102427697D01*
X163580454Y-102427694D01*
X163580454Y-102427692D01*
X163580456Y-102427690D01*
X163636313Y-102268059D01*
X163636313Y-102268058D01*
X163636314Y-102268056D01*
X163655249Y-102100002D01*
X163655249Y-102099997D01*
X163636314Y-101931943D01*
X163580454Y-101772305D01*
X163580452Y-101772302D01*
X163490481Y-101629115D01*
X163490476Y-101629109D01*
X163370890Y-101509523D01*
X163370884Y-101509518D01*
X163227697Y-101419547D01*
X163227694Y-101419545D01*
X163068056Y-101363685D01*
X162900003Y-101344751D01*
X162899997Y-101344751D01*
X162731943Y-101363685D01*
X162572305Y-101419545D01*
X162572302Y-101419547D01*
X162429115Y-101509518D01*
X162345204Y-101593429D01*
X162283880Y-101626913D01*
X162214189Y-101621929D01*
X162158255Y-101580057D01*
X162138971Y-101538388D01*
X162138613Y-101538514D01*
X162137323Y-101534828D01*
X162136629Y-101533328D01*
X162136314Y-101531950D01*
X162136313Y-101531941D01*
X162080456Y-101372310D01*
X162080455Y-101372309D01*
X162080454Y-101372305D01*
X162080452Y-101372302D01*
X161990481Y-101229115D01*
X161990476Y-101229109D01*
X161870890Y-101109523D01*
X161870884Y-101109518D01*
X161727697Y-101019547D01*
X161727694Y-101019545D01*
X161568056Y-100963685D01*
X161400003Y-100944751D01*
X161400002Y-100944751D01*
X161400000Y-100944751D01*
X161389692Y-100945912D01*
X161379967Y-100947008D01*
X161311146Y-100934951D01*
X161259767Y-100887601D01*
X161242144Y-100819991D01*
X161242866Y-100809903D01*
X161255249Y-100700002D01*
X161255249Y-100699997D01*
X161236314Y-100531943D01*
X161180454Y-100372305D01*
X161180452Y-100372302D01*
X161090481Y-100229115D01*
X161090476Y-100229109D01*
X160970890Y-100109523D01*
X160970884Y-100109518D01*
X160827697Y-100019547D01*
X160827694Y-100019545D01*
X160668056Y-99963685D01*
X160500003Y-99944751D01*
X160499997Y-99944751D01*
X160331943Y-99963685D01*
X160172305Y-100019545D01*
X160172302Y-100019547D01*
X160029115Y-100109518D01*
X159940550Y-100198083D01*
X159879226Y-100231567D01*
X159809535Y-100226583D01*
X159753601Y-100184711D01*
X159729185Y-100119246D01*
X159735098Y-100074925D01*
X159734764Y-100074849D01*
X159735594Y-100071209D01*
X159735831Y-100069438D01*
X159736313Y-100068058D01*
X159740275Y-100032900D01*
X159750688Y-99940477D01*
X159755249Y-99900002D01*
X159755249Y-99899997D01*
X159736314Y-99731943D01*
X159714948Y-99670884D01*
X159680456Y-99572310D01*
X159680454Y-99572307D01*
X159680454Y-99572306D01*
X159620622Y-99477086D01*
X159601621Y-99409850D01*
X159621988Y-99343014D01*
X159637930Y-99323436D01*
X159690477Y-99270890D01*
X159722738Y-99219547D01*
X159780452Y-99127697D01*
X159780454Y-99127694D01*
X159780454Y-99127692D01*
X159780456Y-99127690D01*
X159836313Y-98968059D01*
X159836313Y-98968058D01*
X159836314Y-98968056D01*
X159855249Y-98800002D01*
X159855249Y-98799997D01*
X159836314Y-98631943D01*
X159786813Y-98490477D01*
X159780456Y-98472310D01*
X159780455Y-98472309D01*
X159780454Y-98472305D01*
X159780452Y-98472302D01*
X159735023Y-98400002D01*
X162444751Y-98400002D01*
X162463685Y-98568056D01*
X162519545Y-98727694D01*
X162519547Y-98727697D01*
X162609518Y-98870884D01*
X162609523Y-98870890D01*
X162729109Y-98990476D01*
X162729115Y-98990481D01*
X162872302Y-99080452D01*
X162872305Y-99080454D01*
X162872309Y-99080455D01*
X162872310Y-99080456D01*
X162944913Y-99105860D01*
X163031943Y-99136314D01*
X163199997Y-99155249D01*
X163200000Y-99155249D01*
X163200003Y-99155249D01*
X163368056Y-99136314D01*
X163368059Y-99136313D01*
X163527690Y-99080456D01*
X163527692Y-99080454D01*
X163527694Y-99080454D01*
X163527697Y-99080452D01*
X163670884Y-98990481D01*
X163670885Y-98990480D01*
X163670890Y-98990477D01*
X163790477Y-98870890D01*
X163795004Y-98863685D01*
X163880452Y-98727697D01*
X163880454Y-98727694D01*
X163880454Y-98727692D01*
X163880456Y-98727690D01*
X163936313Y-98568059D01*
X163936313Y-98568058D01*
X163936314Y-98568056D01*
X163955249Y-98400002D01*
X163955249Y-98399997D01*
X163936314Y-98231943D01*
X163896984Y-98119544D01*
X163880456Y-98072310D01*
X163880455Y-98072309D01*
X163880454Y-98072305D01*
X163880452Y-98072302D01*
X163790481Y-97929115D01*
X163790476Y-97929109D01*
X163670890Y-97809523D01*
X163670884Y-97809518D01*
X163527697Y-97719547D01*
X163527694Y-97719545D01*
X163368056Y-97663685D01*
X163200003Y-97644751D01*
X163199997Y-97644751D01*
X163031943Y-97663685D01*
X162872305Y-97719545D01*
X162872302Y-97719547D01*
X162729115Y-97809518D01*
X162729109Y-97809523D01*
X162609523Y-97929109D01*
X162609518Y-97929115D01*
X162519547Y-98072302D01*
X162519545Y-98072305D01*
X162463685Y-98231943D01*
X162444751Y-98399997D01*
X162444751Y-98400002D01*
X159735023Y-98400002D01*
X159690481Y-98329115D01*
X159690476Y-98329109D01*
X159570890Y-98209523D01*
X159570884Y-98209518D01*
X159427697Y-98119547D01*
X159427694Y-98119545D01*
X159268056Y-98063685D01*
X159100003Y-98044751D01*
X159099997Y-98044751D01*
X158931943Y-98063685D01*
X158772305Y-98119545D01*
X158772302Y-98119547D01*
X158629115Y-98209518D01*
X158629109Y-98209523D01*
X158509523Y-98329109D01*
X158509518Y-98329115D01*
X158419547Y-98472302D01*
X158419545Y-98472305D01*
X158363685Y-98631943D01*
X158344751Y-98799997D01*
X158344751Y-98800002D01*
X158363685Y-98968056D01*
X158419545Y-99127693D01*
X158479377Y-99222913D01*
X158498378Y-99290150D01*
X158478011Y-99356985D01*
X158462066Y-99376566D01*
X158409524Y-99429108D01*
X158409518Y-99429115D01*
X158319547Y-99572302D01*
X158319545Y-99572305D01*
X158263685Y-99731943D01*
X158244751Y-99899997D01*
X158244751Y-99900002D01*
X157939869Y-99900002D01*
X157936314Y-99868447D01*
X157880454Y-99708809D01*
X157880452Y-99708806D01*
X157790481Y-99565619D01*
X157790476Y-99565613D01*
X157670890Y-99446027D01*
X157670884Y-99446022D01*
X157527697Y-99356051D01*
X157527694Y-99356049D01*
X157368056Y-99300189D01*
X157262211Y-99288264D01*
X157197797Y-99261197D01*
X157158242Y-99203603D01*
X157152875Y-99178927D01*
X157136314Y-99031944D01*
X157128467Y-99009518D01*
X157080456Y-98872310D01*
X157080455Y-98872309D01*
X157080454Y-98872305D01*
X157080452Y-98872302D01*
X156990481Y-98729115D01*
X156990476Y-98729109D01*
X156870890Y-98609523D01*
X156870884Y-98609518D01*
X156727697Y-98519547D01*
X156727694Y-98519545D01*
X156568056Y-98463685D01*
X156400003Y-98444751D01*
X156399997Y-98444751D01*
X156231940Y-98463686D01*
X156182168Y-98481102D01*
X156112390Y-98484663D01*
X156051763Y-98449934D01*
X156019536Y-98387940D01*
X156025942Y-98318364D01*
X156036222Y-98298087D01*
X156041002Y-98290481D01*
X156080456Y-98227690D01*
X156136313Y-98068059D01*
X156136313Y-98068058D01*
X156136314Y-98068056D01*
X156155249Y-97900002D01*
X156155249Y-97899997D01*
X156136313Y-97731940D01*
X156136313Y-97731938D01*
X156088571Y-97595500D01*
X156085009Y-97525721D01*
X156119737Y-97465094D01*
X156164658Y-97437503D01*
X156178433Y-97432683D01*
X156327690Y-97380456D01*
X156327693Y-97380453D01*
X156327697Y-97380452D01*
X156470884Y-97290481D01*
X156470885Y-97290480D01*
X156470890Y-97290477D01*
X156590477Y-97170890D01*
X156606445Y-97145477D01*
X156680452Y-97027697D01*
X156680454Y-97027694D01*
X156680454Y-97027692D01*
X156680456Y-97027690D01*
X156736313Y-96868059D01*
X156736313Y-96868058D01*
X156736314Y-96868056D01*
X156755249Y-96700002D01*
X156755249Y-96699997D01*
X156736314Y-96531943D01*
X156680454Y-96372305D01*
X156680452Y-96372302D01*
X156590481Y-96229115D01*
X156590476Y-96229109D01*
X156465966Y-96104599D01*
X156467616Y-96102948D01*
X156433797Y-96054755D01*
X156430955Y-95984944D01*
X156434208Y-95974073D01*
X156436313Y-95968059D01*
X156436314Y-95968052D01*
X156455249Y-95800002D01*
X156455249Y-95799997D01*
X156439163Y-95657230D01*
X156451217Y-95588408D01*
X156498566Y-95537028D01*
X156566177Y-95519404D01*
X156603339Y-95526305D01*
X156614331Y-95530151D01*
X156631941Y-95536313D01*
X156631940Y-95536313D01*
X156799997Y-95555249D01*
X156800000Y-95555249D01*
X156800003Y-95555249D01*
X156968056Y-95536314D01*
X156992682Y-95527697D01*
X157127690Y-95480456D01*
X157127692Y-95480454D01*
X157127694Y-95480454D01*
X157127697Y-95480452D01*
X157270884Y-95390481D01*
X157270885Y-95390480D01*
X157270890Y-95390477D01*
X157390477Y-95270890D01*
X157403903Y-95249523D01*
X157435019Y-95200002D01*
X162144751Y-95200002D01*
X162163685Y-95368056D01*
X162219545Y-95527694D01*
X162219547Y-95527697D01*
X162309518Y-95670884D01*
X162309523Y-95670890D01*
X162429109Y-95790476D01*
X162429115Y-95790481D01*
X162572302Y-95880452D01*
X162572305Y-95880454D01*
X162572309Y-95880455D01*
X162572310Y-95880456D01*
X162644913Y-95905860D01*
X162731943Y-95936314D01*
X162899997Y-95955249D01*
X162900000Y-95955249D01*
X162900003Y-95955249D01*
X163068056Y-95936314D01*
X163068059Y-95936313D01*
X163227690Y-95880456D01*
X163227692Y-95880454D01*
X163227694Y-95880454D01*
X163227697Y-95880452D01*
X163370884Y-95790481D01*
X163370885Y-95790480D01*
X163370890Y-95790477D01*
X163490477Y-95670890D01*
X163514949Y-95631943D01*
X163580452Y-95527697D01*
X163580454Y-95527694D01*
X163580454Y-95527692D01*
X163580456Y-95527690D01*
X163636313Y-95368059D01*
X163636313Y-95368058D01*
X163636314Y-95368056D01*
X163655249Y-95200002D01*
X163655249Y-95199997D01*
X163636314Y-95031943D01*
X163590146Y-94900003D01*
X166694435Y-94900003D01*
X166714630Y-95079249D01*
X166714631Y-95079254D01*
X166774211Y-95249523D01*
X166825064Y-95330454D01*
X166870184Y-95402262D01*
X166997738Y-95529816D01*
X167150478Y-95625789D01*
X167279352Y-95670884D01*
X167320745Y-95685368D01*
X167320750Y-95685369D01*
X167499996Y-95705565D01*
X167500000Y-95705565D01*
X167500004Y-95705565D01*
X167679249Y-95685369D01*
X167679252Y-95685368D01*
X167679255Y-95685368D01*
X167849522Y-95625789D01*
X168002262Y-95529816D01*
X168129816Y-95402262D01*
X168225789Y-95249522D01*
X168285368Y-95079255D01*
X168287122Y-95063687D01*
X168305565Y-94900003D01*
X168305565Y-94899996D01*
X168285369Y-94720750D01*
X168285368Y-94720745D01*
X168246448Y-94609518D01*
X168225789Y-94550478D01*
X168206352Y-94519545D01*
X168194073Y-94500002D01*
X170994751Y-94500002D01*
X171013685Y-94668056D01*
X171069545Y-94827694D01*
X171069547Y-94827697D01*
X171159518Y-94970884D01*
X171159523Y-94970890D01*
X171279109Y-95090476D01*
X171279115Y-95090481D01*
X171422302Y-95180452D01*
X171422305Y-95180454D01*
X171422309Y-95180455D01*
X171422310Y-95180456D01*
X171478155Y-95199997D01*
X171581943Y-95236314D01*
X171749997Y-95255249D01*
X171750000Y-95255249D01*
X171750003Y-95255249D01*
X171918056Y-95236314D01*
X171918059Y-95236313D01*
X172077690Y-95180456D01*
X172077692Y-95180454D01*
X172077694Y-95180454D01*
X172077697Y-95180452D01*
X172220884Y-95090481D01*
X172220885Y-95090480D01*
X172220890Y-95090477D01*
X172340477Y-94970890D01*
X172342258Y-94968056D01*
X172430452Y-94827697D01*
X172430454Y-94827694D01*
X172430454Y-94827692D01*
X172430456Y-94827690D01*
X172486313Y-94668059D01*
X172486313Y-94668058D01*
X172486314Y-94668056D01*
X172505249Y-94500002D01*
X172505249Y-94499997D01*
X172486314Y-94331943D01*
X172443477Y-94209523D01*
X172430456Y-94172310D01*
X172430455Y-94172309D01*
X172430454Y-94172305D01*
X172430452Y-94172302D01*
X172340481Y-94029115D01*
X172340476Y-94029109D01*
X172220890Y-93909523D01*
X172220884Y-93909518D01*
X172077697Y-93819547D01*
X172077694Y-93819545D01*
X171918056Y-93763685D01*
X171750003Y-93744751D01*
X171749997Y-93744751D01*
X171581943Y-93763685D01*
X171422305Y-93819545D01*
X171422302Y-93819547D01*
X171279115Y-93909518D01*
X171279109Y-93909523D01*
X171159523Y-94029109D01*
X171159518Y-94029115D01*
X171069547Y-94172302D01*
X171069545Y-94172305D01*
X171013685Y-94331943D01*
X170994751Y-94499997D01*
X170994751Y-94500002D01*
X168194073Y-94500002D01*
X168176668Y-94472302D01*
X168129816Y-94397738D01*
X168002262Y-94270184D01*
X167905713Y-94209518D01*
X167849523Y-94174211D01*
X167679254Y-94114631D01*
X167679249Y-94114630D01*
X167500004Y-94094435D01*
X167499996Y-94094435D01*
X167320750Y-94114630D01*
X167320745Y-94114631D01*
X167150476Y-94174211D01*
X166997737Y-94270184D01*
X166870184Y-94397737D01*
X166774211Y-94550476D01*
X166714631Y-94720745D01*
X166714630Y-94720750D01*
X166694435Y-94899996D01*
X166694435Y-94900003D01*
X163590146Y-94900003D01*
X163586813Y-94890477D01*
X163580456Y-94872310D01*
X163580455Y-94872309D01*
X163580454Y-94872305D01*
X163580452Y-94872302D01*
X163490481Y-94729115D01*
X163490476Y-94729109D01*
X163370890Y-94609523D01*
X163370884Y-94609518D01*
X163227697Y-94519547D01*
X163227694Y-94519545D01*
X163068056Y-94463685D01*
X162900003Y-94444751D01*
X162899997Y-94444751D01*
X162731943Y-94463685D01*
X162572305Y-94519545D01*
X162572302Y-94519547D01*
X162429115Y-94609518D01*
X162429109Y-94609523D01*
X162309523Y-94729109D01*
X162309518Y-94729115D01*
X162219547Y-94872302D01*
X162219545Y-94872305D01*
X162163685Y-95031943D01*
X162144751Y-95199997D01*
X162144751Y-95200002D01*
X157435019Y-95200002D01*
X157480452Y-95127697D01*
X157480454Y-95127694D01*
X157480454Y-95127692D01*
X157480456Y-95127690D01*
X157536313Y-94968059D01*
X157536313Y-94968058D01*
X157536314Y-94968056D01*
X157555249Y-94800002D01*
X157555249Y-94799997D01*
X157536314Y-94631943D01*
X157496320Y-94517647D01*
X157480456Y-94472310D01*
X157480455Y-94472309D01*
X157480454Y-94472305D01*
X157480452Y-94472302D01*
X157390481Y-94329115D01*
X157390476Y-94329109D01*
X157270890Y-94209523D01*
X157270884Y-94209518D01*
X157127697Y-94119547D01*
X157127686Y-94119542D01*
X157017958Y-94081146D01*
X156961182Y-94040425D01*
X156953919Y-94030077D01*
X156890476Y-93929109D01*
X156770890Y-93809523D01*
X156770884Y-93809518D01*
X156627697Y-93719547D01*
X156627694Y-93719545D01*
X156468056Y-93663685D01*
X156300003Y-93644751D01*
X156299997Y-93644751D01*
X156131943Y-93663685D01*
X155972305Y-93719545D01*
X155972302Y-93719547D01*
X155829115Y-93809518D01*
X155829109Y-93809523D01*
X155709523Y-93929109D01*
X155709518Y-93929115D01*
X155619547Y-94072302D01*
X155619545Y-94072305D01*
X155563685Y-94231943D01*
X155544751Y-94399997D01*
X155544751Y-94400002D01*
X155563685Y-94568056D01*
X155619545Y-94727693D01*
X155705920Y-94865156D01*
X155724921Y-94932393D01*
X155704554Y-94999228D01*
X155651286Y-95044443D01*
X155614811Y-95054349D01*
X155531943Y-95063685D01*
X155372305Y-95119545D01*
X155372302Y-95119547D01*
X155229115Y-95209518D01*
X155229109Y-95209523D01*
X155109523Y-95329109D01*
X155109518Y-95329115D01*
X155019547Y-95472302D01*
X155019545Y-95472305D01*
X154963685Y-95631943D01*
X154944751Y-95799997D01*
X154944751Y-95800002D01*
X154963685Y-95968056D01*
X155019545Y-96127694D01*
X155019547Y-96127697D01*
X155109518Y-96270884D01*
X155109523Y-96270890D01*
X155234034Y-96395401D01*
X155232381Y-96397053D01*
X155266197Y-96445230D01*
X155269046Y-96515042D01*
X155265788Y-96525933D01*
X155263686Y-96531938D01*
X155263686Y-96531941D01*
X155244751Y-96699997D01*
X155244751Y-96700002D01*
X155263686Y-96868059D01*
X155263686Y-96868061D01*
X155311429Y-97004500D01*
X155314991Y-97074279D01*
X155280263Y-97134906D01*
X155235342Y-97162497D01*
X155072308Y-97219544D01*
X155072302Y-97219547D01*
X154929115Y-97309518D01*
X154929109Y-97309523D01*
X154809523Y-97429109D01*
X154809518Y-97429115D01*
X154719547Y-97572302D01*
X154719545Y-97572305D01*
X154663685Y-97731943D01*
X154644751Y-97899997D01*
X154644751Y-97900002D01*
X151055732Y-97900002D01*
X151070884Y-97890481D01*
X151070885Y-97890480D01*
X151070890Y-97890477D01*
X151190477Y-97770890D01*
X151214949Y-97731943D01*
X151280452Y-97627697D01*
X151280454Y-97627694D01*
X151280454Y-97627692D01*
X151280456Y-97627690D01*
X151336313Y-97468059D01*
X151336313Y-97468058D01*
X151336314Y-97468056D01*
X151355249Y-97300002D01*
X151355249Y-97299997D01*
X151336314Y-97131943D01*
X151280454Y-96972305D01*
X151280452Y-96972302D01*
X151190481Y-96829115D01*
X151190476Y-96829109D01*
X151070890Y-96709523D01*
X151070884Y-96709518D01*
X150927697Y-96619547D01*
X150927694Y-96619545D01*
X150768056Y-96563685D01*
X150600003Y-96544751D01*
X150599997Y-96544751D01*
X150431943Y-96563685D01*
X150272305Y-96619545D01*
X150272302Y-96619547D01*
X150129115Y-96709518D01*
X150129109Y-96709523D01*
X150009523Y-96829109D01*
X150009518Y-96829115D01*
X149919547Y-96972302D01*
X149919545Y-96972305D01*
X149863685Y-97131943D01*
X149844751Y-97299997D01*
X149844751Y-97300002D01*
X149457641Y-97300002D01*
X149430454Y-97222305D01*
X149430452Y-97222302D01*
X149340481Y-97079115D01*
X149340476Y-97079109D01*
X149220890Y-96959523D01*
X149220884Y-96959518D01*
X149077697Y-96869547D01*
X149077694Y-96869545D01*
X148918056Y-96813685D01*
X148750003Y-96794751D01*
X148749997Y-96794751D01*
X148581943Y-96813685D01*
X148422305Y-96869545D01*
X148422302Y-96869547D01*
X148279115Y-96959518D01*
X148279109Y-96959523D01*
X148159523Y-97079109D01*
X148159518Y-97079115D01*
X148069547Y-97222302D01*
X148069542Y-97222313D01*
X148015797Y-97375907D01*
X147975076Y-97432683D01*
X147910123Y-97458430D01*
X147841561Y-97444974D01*
X147791159Y-97396586D01*
X147781715Y-97375909D01*
X147780456Y-97372310D01*
X147780453Y-97372305D01*
X147780453Y-97372304D01*
X147780452Y-97372302D01*
X147690481Y-97229115D01*
X147690476Y-97229109D01*
X147570890Y-97109523D01*
X147570884Y-97109518D01*
X147427697Y-97019547D01*
X147427694Y-97019545D01*
X147268056Y-96963685D01*
X147100003Y-96944751D01*
X147099997Y-96944751D01*
X146931943Y-96963685D01*
X146772305Y-97019545D01*
X146772302Y-97019547D01*
X146629115Y-97109518D01*
X146629109Y-97109523D01*
X146509523Y-97229109D01*
X146509518Y-97229115D01*
X146419547Y-97372302D01*
X146419545Y-97372305D01*
X146363685Y-97531943D01*
X146348220Y-97669208D01*
X146335443Y-97699613D01*
X146114174Y-97699613D01*
X146102860Y-97676718D01*
X146101780Y-97669208D01*
X146086314Y-97531943D01*
X146038950Y-97396586D01*
X146030456Y-97372310D01*
X146030455Y-97372309D01*
X146030454Y-97372305D01*
X146030452Y-97372302D01*
X145940481Y-97229115D01*
X145940476Y-97229109D01*
X145820890Y-97109523D01*
X145820884Y-97109518D01*
X145677697Y-97019547D01*
X145677694Y-97019545D01*
X145518056Y-96963685D01*
X145350003Y-96944751D01*
X145349997Y-96944751D01*
X145181943Y-96963685D01*
X145022305Y-97019545D01*
X145022302Y-97019547D01*
X144879115Y-97109518D01*
X144879109Y-97109523D01*
X144759523Y-97229109D01*
X144759518Y-97229115D01*
X144669547Y-97372302D01*
X144669545Y-97372305D01*
X144613685Y-97531943D01*
X144594751Y-97699997D01*
X144594751Y-97700002D01*
X127360484Y-97700002D01*
X127338494Y-97668597D01*
X127171402Y-97501506D01*
X127171396Y-97501501D01*
X126985842Y-97371575D01*
X126942217Y-97316998D01*
X126935023Y-97247500D01*
X126966546Y-97185145D01*
X126985842Y-97168425D01*
X127033712Y-97134906D01*
X127171401Y-97038495D01*
X127338495Y-96871401D01*
X127474035Y-96677830D01*
X127573903Y-96463663D01*
X127635063Y-96235408D01*
X127655659Y-96000000D01*
X127635063Y-95764592D01*
X127573903Y-95536337D01*
X127474035Y-95322171D01*
X127416836Y-95240481D01*
X127338494Y-95128597D01*
X127171402Y-94961506D01*
X127171396Y-94961501D01*
X126985842Y-94831575D01*
X126942217Y-94776998D01*
X126935023Y-94707500D01*
X126964091Y-94650002D01*
X143044751Y-94650002D01*
X143063685Y-94818056D01*
X143119545Y-94977694D01*
X143119547Y-94977697D01*
X143209518Y-95120884D01*
X143209523Y-95120890D01*
X143329109Y-95240476D01*
X143329115Y-95240481D01*
X143472302Y-95330452D01*
X143472305Y-95330454D01*
X143472309Y-95330455D01*
X143472310Y-95330456D01*
X143544913Y-95355860D01*
X143631943Y-95386314D01*
X143799997Y-95405249D01*
X143800000Y-95405249D01*
X143800003Y-95405249D01*
X143968056Y-95386314D01*
X144020226Y-95368059D01*
X144127690Y-95330456D01*
X144127692Y-95330454D01*
X144127694Y-95330454D01*
X144127697Y-95330452D01*
X144270884Y-95240481D01*
X144270885Y-95240480D01*
X144270890Y-95240477D01*
X144390477Y-95120890D01*
X144391323Y-95119544D01*
X144480452Y-94977697D01*
X144480454Y-94977694D01*
X144480454Y-94977692D01*
X144480456Y-94977690D01*
X144536313Y-94818059D01*
X144536313Y-94818058D01*
X144536314Y-94818056D01*
X144555249Y-94650002D01*
X144555249Y-94649997D01*
X144536314Y-94481943D01*
X144492778Y-94357524D01*
X144480456Y-94322310D01*
X144480455Y-94322309D01*
X144480454Y-94322305D01*
X144480452Y-94322302D01*
X144390481Y-94179115D01*
X144390476Y-94179109D01*
X144270890Y-94059523D01*
X144270884Y-94059518D01*
X144127697Y-93969547D01*
X144127694Y-93969545D01*
X143968056Y-93913685D01*
X143800003Y-93894751D01*
X143799997Y-93894751D01*
X143631943Y-93913685D01*
X143472305Y-93969545D01*
X143472302Y-93969547D01*
X143329115Y-94059518D01*
X143329109Y-94059523D01*
X143209523Y-94179109D01*
X143209518Y-94179115D01*
X143119547Y-94322302D01*
X143119545Y-94322305D01*
X143063685Y-94481943D01*
X143044751Y-94649997D01*
X143044751Y-94650002D01*
X126964091Y-94650002D01*
X126966546Y-94645145D01*
X126985842Y-94628425D01*
X127020723Y-94604001D01*
X127171401Y-94498495D01*
X127338495Y-94331401D01*
X127474035Y-94137830D01*
X127573903Y-93923663D01*
X127633832Y-93700002D01*
X146344751Y-93700002D01*
X146363685Y-93868056D01*
X146419545Y-94027694D01*
X146419547Y-94027697D01*
X146509518Y-94170884D01*
X146509523Y-94170890D01*
X146629109Y-94290476D01*
X146629115Y-94290481D01*
X146772302Y-94380452D01*
X146772305Y-94380454D01*
X146772309Y-94380455D01*
X146772310Y-94380456D01*
X146822331Y-94397959D01*
X146931943Y-94436314D01*
X147099997Y-94455249D01*
X147100000Y-94455249D01*
X147100003Y-94455249D01*
X147182311Y-94445974D01*
X147268059Y-94436313D01*
X147268073Y-94436308D01*
X147273937Y-94434970D01*
X147343676Y-94439235D01*
X147400039Y-94480527D01*
X147418583Y-94514896D01*
X147419542Y-94517636D01*
X147419547Y-94517647D01*
X147509518Y-94660834D01*
X147509523Y-94660840D01*
X147629109Y-94780426D01*
X147629115Y-94780431D01*
X147772302Y-94870402D01*
X147772305Y-94870404D01*
X147772309Y-94870405D01*
X147772310Y-94870406D01*
X147844913Y-94895810D01*
X147931943Y-94926264D01*
X148099997Y-94945199D01*
X148100000Y-94945199D01*
X148100003Y-94945199D01*
X148268056Y-94926264D01*
X148268059Y-94926263D01*
X148427690Y-94870406D01*
X148516745Y-94814448D01*
X148583977Y-94795449D01*
X148650812Y-94815816D01*
X148670395Y-94831762D01*
X148729109Y-94890476D01*
X148729115Y-94890481D01*
X148872302Y-94980452D01*
X148872305Y-94980454D01*
X148872309Y-94980455D01*
X148872310Y-94980456D01*
X148900949Y-94990477D01*
X149031943Y-95036314D01*
X149199997Y-95055249D01*
X149200000Y-95055249D01*
X149200003Y-95055249D01*
X149368056Y-95036314D01*
X149380548Y-95031943D01*
X149527690Y-94980456D01*
X149527692Y-94980454D01*
X149527694Y-94980454D01*
X149527697Y-94980452D01*
X149670884Y-94890481D01*
X149670885Y-94890480D01*
X149670890Y-94890477D01*
X149733079Y-94828288D01*
X149794402Y-94794803D01*
X149864094Y-94799787D01*
X149886732Y-94810975D01*
X149919517Y-94831575D01*
X149997310Y-94880456D01*
X150118621Y-94922904D01*
X150156943Y-94936314D01*
X150324997Y-94955249D01*
X150325000Y-94955249D01*
X150325003Y-94955249D01*
X150493056Y-94936314D01*
X150504262Y-94932393D01*
X150652690Y-94880456D01*
X150652692Y-94880454D01*
X150652694Y-94880454D01*
X150652697Y-94880452D01*
X150795884Y-94790481D01*
X150795885Y-94790480D01*
X150795890Y-94790477D01*
X150915477Y-94670890D01*
X150957506Y-94604000D01*
X151009841Y-94557710D01*
X151078894Y-94547062D01*
X151142743Y-94575437D01*
X151167492Y-94603999D01*
X151193346Y-94645145D01*
X151209523Y-94670890D01*
X151329109Y-94790476D01*
X151329115Y-94790481D01*
X151472302Y-94880452D01*
X151472305Y-94880454D01*
X151472309Y-94880455D01*
X151472310Y-94880456D01*
X151544913Y-94905860D01*
X151631943Y-94936314D01*
X151799997Y-94955249D01*
X151800000Y-94955249D01*
X151800003Y-94955249D01*
X151968056Y-94936314D01*
X151979262Y-94932393D01*
X152127690Y-94880456D01*
X152127692Y-94880454D01*
X152127694Y-94880454D01*
X152127697Y-94880452D01*
X152270884Y-94790481D01*
X152270885Y-94790480D01*
X152270890Y-94790477D01*
X152390477Y-94670890D01*
X152414949Y-94631943D01*
X152480452Y-94527697D01*
X152480454Y-94527694D01*
X152480454Y-94527692D01*
X152480456Y-94527690D01*
X152536313Y-94368059D01*
X152536313Y-94368058D01*
X152536314Y-94368056D01*
X152555249Y-94200002D01*
X152555249Y-94199997D01*
X152536314Y-94031943D01*
X152493477Y-93909523D01*
X152480456Y-93872310D01*
X152480455Y-93872309D01*
X152480454Y-93872305D01*
X152480452Y-93872302D01*
X152390481Y-93729115D01*
X152390476Y-93729109D01*
X152270890Y-93609523D01*
X152270884Y-93609518D01*
X152127697Y-93519547D01*
X152127694Y-93519545D01*
X151968056Y-93463685D01*
X151800003Y-93444751D01*
X151799997Y-93444751D01*
X151631943Y-93463685D01*
X151472305Y-93519545D01*
X151472302Y-93519547D01*
X151329115Y-93609518D01*
X151329109Y-93609523D01*
X151209521Y-93729111D01*
X151167493Y-93795999D01*
X151115158Y-93842289D01*
X151046105Y-93852937D01*
X150982257Y-93824562D01*
X150957507Y-93795999D01*
X150915478Y-93729111D01*
X150795890Y-93609523D01*
X150795884Y-93609518D01*
X150652697Y-93519547D01*
X150652694Y-93519545D01*
X150493056Y-93463685D01*
X150325003Y-93444751D01*
X150324997Y-93444751D01*
X150156943Y-93463685D01*
X149997305Y-93519545D01*
X149997302Y-93519547D01*
X149854115Y-93609518D01*
X149854113Y-93609520D01*
X149791919Y-93671713D01*
X149730595Y-93705197D01*
X149660904Y-93700211D01*
X149638267Y-93689024D01*
X149527692Y-93619545D01*
X149527691Y-93619544D01*
X149527690Y-93619544D01*
X149470316Y-93599468D01*
X149368056Y-93563685D01*
X149200003Y-93544751D01*
X149199997Y-93544751D01*
X149031943Y-93563685D01*
X148872307Y-93619545D01*
X148783257Y-93675500D01*
X148716021Y-93694500D01*
X148649185Y-93674133D01*
X148629604Y-93658187D01*
X148570890Y-93599473D01*
X148570884Y-93599468D01*
X148427697Y-93509497D01*
X148427694Y-93509495D01*
X148268056Y-93453635D01*
X148100003Y-93434701D01*
X148099997Y-93434701D01*
X147931940Y-93453636D01*
X147926039Y-93454983D01*
X147856301Y-93450705D01*
X147799945Y-93409403D01*
X147781410Y-93375037D01*
X147780455Y-93372308D01*
X147780452Y-93372302D01*
X147690481Y-93229115D01*
X147690476Y-93229109D01*
X147570890Y-93109523D01*
X147570884Y-93109518D01*
X147427697Y-93019547D01*
X147427694Y-93019545D01*
X147268056Y-92963685D01*
X147100003Y-92944751D01*
X147099997Y-92944751D01*
X146931943Y-92963685D01*
X146772305Y-93019545D01*
X146772302Y-93019547D01*
X146629115Y-93109518D01*
X146629109Y-93109523D01*
X146509523Y-93229109D01*
X146509518Y-93229115D01*
X146419547Y-93372302D01*
X146419545Y-93372305D01*
X146363685Y-93531943D01*
X146344751Y-93699997D01*
X146344751Y-93700002D01*
X127633832Y-93700002D01*
X127635063Y-93695408D01*
X127655659Y-93460000D01*
X127635063Y-93224592D01*
X127580122Y-93019547D01*
X127573905Y-92996344D01*
X127573904Y-92996343D01*
X127573903Y-92996337D01*
X127474035Y-92782171D01*
X127472835Y-92780456D01*
X127338494Y-92588597D01*
X127171402Y-92421506D01*
X127171396Y-92421501D01*
X126985842Y-92291575D01*
X126942217Y-92236998D01*
X126935023Y-92167500D01*
X126966546Y-92105145D01*
X126985842Y-92088425D01*
X127014932Y-92068056D01*
X127171401Y-91958495D01*
X127229894Y-91900002D01*
X140244751Y-91900002D01*
X140263685Y-92068056D01*
X140319545Y-92227694D01*
X140319547Y-92227697D01*
X140409518Y-92370884D01*
X140409523Y-92370890D01*
X140529109Y-92490476D01*
X140529115Y-92490481D01*
X140672302Y-92580452D01*
X140672305Y-92580454D01*
X140672309Y-92580455D01*
X140672310Y-92580456D01*
X140744913Y-92605860D01*
X140831943Y-92636314D01*
X140999997Y-92655249D01*
X141000000Y-92655249D01*
X141000003Y-92655249D01*
X141168056Y-92636314D01*
X141168059Y-92636313D01*
X141327690Y-92580456D01*
X141327692Y-92580454D01*
X141327694Y-92580454D01*
X141327697Y-92580452D01*
X141470884Y-92490481D01*
X141470885Y-92490480D01*
X141470890Y-92490477D01*
X141590477Y-92370890D01*
X141590481Y-92370884D01*
X141680452Y-92227697D01*
X141680454Y-92227694D01*
X141680454Y-92227692D01*
X141680456Y-92227690D01*
X141725136Y-92100002D01*
X160044751Y-92100002D01*
X160063685Y-92268056D01*
X160119545Y-92427694D01*
X160119547Y-92427697D01*
X160209518Y-92570884D01*
X160209523Y-92570890D01*
X160329109Y-92690476D01*
X160329115Y-92690481D01*
X160472302Y-92780452D01*
X160472305Y-92780454D01*
X160472309Y-92780455D01*
X160472310Y-92780456D01*
X160544913Y-92805860D01*
X160631943Y-92836314D01*
X160799997Y-92855249D01*
X160800000Y-92855249D01*
X160800003Y-92855249D01*
X160968056Y-92836314D01*
X160968059Y-92836313D01*
X161127690Y-92780456D01*
X161127692Y-92780454D01*
X161127694Y-92780454D01*
X161127697Y-92780452D01*
X161270884Y-92690481D01*
X161270885Y-92690480D01*
X161270890Y-92690477D01*
X161390477Y-92570890D01*
X161480452Y-92427697D01*
X161480454Y-92427694D01*
X161480454Y-92427692D01*
X161480456Y-92427690D01*
X161536313Y-92268059D01*
X161536313Y-92268058D01*
X161536314Y-92268056D01*
X161555249Y-92100002D01*
X161555249Y-92099997D01*
X161536314Y-91931943D01*
X161517694Y-91878730D01*
X161480456Y-91772310D01*
X161480454Y-91772307D01*
X161480454Y-91772306D01*
X161436222Y-91701912D01*
X161417221Y-91634675D01*
X161437588Y-91567840D01*
X161490856Y-91522625D01*
X161560112Y-91513387D01*
X161582170Y-91518898D01*
X161631939Y-91536313D01*
X161799997Y-91555249D01*
X161800000Y-91555249D01*
X161800003Y-91555249D01*
X161968056Y-91536314D01*
X162017828Y-91518898D01*
X162127690Y-91480456D01*
X162127692Y-91480454D01*
X162127694Y-91480454D01*
X162127697Y-91480452D01*
X162270884Y-91390481D01*
X162270885Y-91390480D01*
X162270890Y-91390477D01*
X162390477Y-91270890D01*
X162390481Y-91270884D01*
X162480452Y-91127697D01*
X162480454Y-91127694D01*
X162480454Y-91127692D01*
X162480456Y-91127690D01*
X162536313Y-90968059D01*
X162536313Y-90968058D01*
X162536314Y-90968056D01*
X162555249Y-90800002D01*
X162555249Y-90799997D01*
X162536314Y-90631943D01*
X162492092Y-90505565D01*
X162480456Y-90472310D01*
X162480455Y-90472309D01*
X162480454Y-90472305D01*
X162480452Y-90472302D01*
X162390481Y-90329115D01*
X162390476Y-90329109D01*
X162270890Y-90209523D01*
X162270884Y-90209518D01*
X162127697Y-90119547D01*
X162127694Y-90119545D01*
X161968056Y-90063685D01*
X161800003Y-90044751D01*
X161799997Y-90044751D01*
X161631943Y-90063685D01*
X161472305Y-90119545D01*
X161472302Y-90119547D01*
X161329115Y-90209518D01*
X161329109Y-90209523D01*
X161209523Y-90329109D01*
X161209518Y-90329115D01*
X161119547Y-90472302D01*
X161119545Y-90472305D01*
X161063685Y-90631943D01*
X161044751Y-90799997D01*
X161044751Y-90800002D01*
X161063685Y-90968056D01*
X161119545Y-91127692D01*
X161163778Y-91198088D01*
X161182778Y-91265324D01*
X161162410Y-91332160D01*
X161109143Y-91377374D01*
X161039886Y-91386612D01*
X161017830Y-91381102D01*
X160968057Y-91363686D01*
X160800003Y-91344751D01*
X160799997Y-91344751D01*
X160631943Y-91363685D01*
X160472305Y-91419545D01*
X160472302Y-91419547D01*
X160329115Y-91509518D01*
X160329109Y-91509523D01*
X160209523Y-91629109D01*
X160209518Y-91629115D01*
X160119547Y-91772302D01*
X160119545Y-91772305D01*
X160063685Y-91931943D01*
X160044751Y-92099997D01*
X160044751Y-92100002D01*
X141725136Y-92100002D01*
X141736313Y-92068059D01*
X141736313Y-92068058D01*
X141736314Y-92068056D01*
X141755249Y-91900002D01*
X141755249Y-91899997D01*
X141736314Y-91731943D01*
X141702008Y-91633903D01*
X141680456Y-91572310D01*
X141680455Y-91572309D01*
X141680454Y-91572305D01*
X141680452Y-91572302D01*
X141590481Y-91429115D01*
X141590476Y-91429109D01*
X141470890Y-91309523D01*
X141470884Y-91309518D01*
X141327697Y-91219547D01*
X141327694Y-91219545D01*
X141168056Y-91163685D01*
X141000003Y-91144751D01*
X140999997Y-91144751D01*
X140831943Y-91163685D01*
X140672305Y-91219545D01*
X140672302Y-91219547D01*
X140529115Y-91309518D01*
X140529109Y-91309523D01*
X140409523Y-91429109D01*
X140409518Y-91429115D01*
X140319547Y-91572302D01*
X140319545Y-91572305D01*
X140263685Y-91731943D01*
X140244751Y-91899997D01*
X140244751Y-91900002D01*
X127229894Y-91900002D01*
X127338495Y-91791401D01*
X127474035Y-91597830D01*
X127573903Y-91383663D01*
X127635063Y-91155408D01*
X127655659Y-90920000D01*
X127635063Y-90684592D01*
X127573903Y-90456337D01*
X127474035Y-90242171D01*
X127451172Y-90209518D01*
X127338494Y-90048597D01*
X127171402Y-89881506D01*
X127171396Y-89881501D01*
X126985842Y-89751575D01*
X126944619Y-89700003D01*
X162594435Y-89700003D01*
X162614630Y-89879249D01*
X162614631Y-89879254D01*
X162674211Y-90049523D01*
X162770184Y-90202262D01*
X162897738Y-90329816D01*
X163050478Y-90425789D01*
X163206696Y-90480452D01*
X163220745Y-90485368D01*
X163220750Y-90485369D01*
X163399996Y-90505565D01*
X163400000Y-90505565D01*
X163400004Y-90505565D01*
X163579249Y-90485369D01*
X163579252Y-90485368D01*
X163579255Y-90485368D01*
X163749522Y-90425789D01*
X163902262Y-90329816D01*
X164029816Y-90202262D01*
X164125789Y-90049522D01*
X164185368Y-89879255D01*
X164194298Y-89800002D01*
X168844751Y-89800002D01*
X168863685Y-89968056D01*
X168919545Y-90127694D01*
X168919547Y-90127697D01*
X169009518Y-90270884D01*
X169009523Y-90270890D01*
X169129109Y-90390476D01*
X169129115Y-90390481D01*
X169272302Y-90480452D01*
X169272305Y-90480454D01*
X169272309Y-90480455D01*
X169272310Y-90480456D01*
X169286348Y-90485368D01*
X169431943Y-90536314D01*
X169599997Y-90555249D01*
X169600000Y-90555249D01*
X169600003Y-90555249D01*
X169768056Y-90536314D01*
X169768059Y-90536313D01*
X169927690Y-90480456D01*
X169927692Y-90480454D01*
X169927694Y-90480454D01*
X169927697Y-90480452D01*
X170070884Y-90390481D01*
X170070885Y-90390480D01*
X170070890Y-90390477D01*
X170101367Y-90360000D01*
X180344341Y-90360000D01*
X180364936Y-90595403D01*
X180364938Y-90595413D01*
X180426094Y-90823655D01*
X180426096Y-90823659D01*
X180426097Y-90823663D01*
X180471020Y-90920000D01*
X180525965Y-91037830D01*
X180525967Y-91037834D01*
X180614090Y-91163685D01*
X180661505Y-91231401D01*
X180828599Y-91398495D01*
X180872322Y-91429110D01*
X181022165Y-91534032D01*
X181022167Y-91534033D01*
X181022170Y-91534035D01*
X181236337Y-91633903D01*
X181464592Y-91695063D01*
X181652918Y-91711539D01*
X181699999Y-91715659D01*
X181700000Y-91715659D01*
X181700001Y-91715659D01*
X181739234Y-91712226D01*
X181935408Y-91695063D01*
X182163663Y-91633903D01*
X182377830Y-91534035D01*
X182571401Y-91398495D01*
X182738495Y-91231401D01*
X182874035Y-91037830D01*
X182973903Y-90823663D01*
X183035063Y-90595408D01*
X183055659Y-90360000D01*
X183035063Y-90124592D01*
X182973903Y-89896337D01*
X182874035Y-89682171D01*
X182867264Y-89672500D01*
X182738494Y-89488597D01*
X182571402Y-89321506D01*
X182571396Y-89321501D01*
X182385842Y-89191575D01*
X182342217Y-89136998D01*
X182335023Y-89067500D01*
X182366546Y-89005145D01*
X182385842Y-88988425D01*
X182491229Y-88914632D01*
X182571401Y-88858495D01*
X182738495Y-88691401D01*
X182874035Y-88497830D01*
X182973903Y-88283663D01*
X183035063Y-88055408D01*
X183055659Y-87820000D01*
X183035063Y-87584592D01*
X182973903Y-87356337D01*
X182874035Y-87142171D01*
X182867862Y-87133354D01*
X182738494Y-86948597D01*
X182571402Y-86781506D01*
X182571396Y-86781501D01*
X182385842Y-86651575D01*
X182342217Y-86596998D01*
X182335023Y-86527500D01*
X182366546Y-86465145D01*
X182385842Y-86448425D01*
X182408026Y-86432891D01*
X182571401Y-86318495D01*
X182738495Y-86151401D01*
X182874035Y-85957830D01*
X182973903Y-85743663D01*
X183035063Y-85515408D01*
X183055659Y-85280000D01*
X183054861Y-85270884D01*
X183042334Y-85127697D01*
X183035063Y-85044592D01*
X182973903Y-84816337D01*
X182874035Y-84602171D01*
X182853127Y-84572310D01*
X182738494Y-84408597D01*
X182571402Y-84241506D01*
X182571396Y-84241501D01*
X182385842Y-84111575D01*
X182342217Y-84056998D01*
X182335023Y-83987500D01*
X182366546Y-83925145D01*
X182385842Y-83908425D01*
X182537458Y-83802262D01*
X182571401Y-83778495D01*
X182738495Y-83611401D01*
X182874035Y-83417830D01*
X182973903Y-83203663D01*
X183035063Y-82975408D01*
X183055659Y-82740000D01*
X183035063Y-82504592D01*
X182988626Y-82331285D01*
X182973905Y-82276344D01*
X182973904Y-82276343D01*
X182973903Y-82276337D01*
X182874035Y-82062171D01*
X182823837Y-81990481D01*
X182738496Y-81868600D01*
X182699005Y-81829109D01*
X182616567Y-81746671D01*
X182583084Y-81685351D01*
X182588068Y-81615659D01*
X182629939Y-81559725D01*
X182660915Y-81542810D01*
X182792331Y-81493796D01*
X182907546Y-81407546D01*
X182993796Y-81292331D01*
X183044091Y-81157483D01*
X183050500Y-81097873D01*
X183050499Y-79302128D01*
X183044091Y-79242517D01*
X182993796Y-79107669D01*
X182993795Y-79107668D01*
X182993793Y-79107664D01*
X182907547Y-78992455D01*
X182907544Y-78992452D01*
X182792335Y-78906206D01*
X182792328Y-78906202D01*
X182657482Y-78855908D01*
X182657483Y-78855908D01*
X182597883Y-78849501D01*
X182597881Y-78849500D01*
X182597873Y-78849500D01*
X182597864Y-78849500D01*
X180802129Y-78849500D01*
X180802123Y-78849501D01*
X180742516Y-78855908D01*
X180607671Y-78906202D01*
X180607664Y-78906206D01*
X180492455Y-78992452D01*
X180492452Y-78992455D01*
X180406206Y-79107664D01*
X180406202Y-79107671D01*
X180355908Y-79242517D01*
X180349501Y-79302116D01*
X180349501Y-79302123D01*
X180349500Y-79302135D01*
X180349500Y-81097870D01*
X180349501Y-81097876D01*
X180355908Y-81157483D01*
X180406202Y-81292328D01*
X180406206Y-81292335D01*
X180492452Y-81407544D01*
X180492455Y-81407547D01*
X180607664Y-81493793D01*
X180607671Y-81493797D01*
X180739081Y-81542810D01*
X180795015Y-81584681D01*
X180819432Y-81650145D01*
X180804580Y-81718418D01*
X180783430Y-81746673D01*
X180661503Y-81868600D01*
X180525965Y-82062169D01*
X180525964Y-82062171D01*
X180426098Y-82276335D01*
X180426094Y-82276344D01*
X180364938Y-82504586D01*
X180364936Y-82504596D01*
X180344341Y-82739999D01*
X180344341Y-82740000D01*
X180364936Y-82975403D01*
X180364938Y-82975413D01*
X180426094Y-83203655D01*
X180426096Y-83203659D01*
X180426097Y-83203663D01*
X180525965Y-83417830D01*
X180525967Y-83417834D01*
X180661501Y-83611395D01*
X180661506Y-83611402D01*
X180828597Y-83778493D01*
X180828603Y-83778498D01*
X181014158Y-83908425D01*
X181057783Y-83963002D01*
X181064977Y-84032500D01*
X181033454Y-84094855D01*
X181014158Y-84111575D01*
X180828597Y-84241505D01*
X180661505Y-84408597D01*
X180525965Y-84602169D01*
X180525964Y-84602171D01*
X180426098Y-84816335D01*
X180426094Y-84816344D01*
X180364938Y-85044586D01*
X180364936Y-85044596D01*
X180344341Y-85279999D01*
X180344341Y-85280000D01*
X180364936Y-85515403D01*
X180364938Y-85515413D01*
X180426094Y-85743655D01*
X180426096Y-85743659D01*
X180426097Y-85743663D01*
X180485424Y-85870890D01*
X180525965Y-85957830D01*
X180525967Y-85957834D01*
X180661501Y-86151395D01*
X180661506Y-86151402D01*
X180828597Y-86318493D01*
X180828603Y-86318498D01*
X181014158Y-86448425D01*
X181057783Y-86503002D01*
X181064977Y-86572500D01*
X181033454Y-86634855D01*
X181014158Y-86651575D01*
X180828597Y-86781505D01*
X180661505Y-86948597D01*
X180525965Y-87142169D01*
X180525964Y-87142171D01*
X180426098Y-87356335D01*
X180426094Y-87356344D01*
X180364938Y-87584586D01*
X180364936Y-87584596D01*
X180344341Y-87819999D01*
X180344341Y-87820000D01*
X180364936Y-88055403D01*
X180364938Y-88055413D01*
X180426094Y-88283655D01*
X180426096Y-88283659D01*
X180426097Y-88283663D01*
X180471020Y-88380000D01*
X180525965Y-88497830D01*
X180525967Y-88497834D01*
X180661501Y-88691395D01*
X180661506Y-88691402D01*
X180828597Y-88858493D01*
X180828603Y-88858498D01*
X181014158Y-88988425D01*
X181057783Y-89043002D01*
X181064977Y-89112500D01*
X181033454Y-89174855D01*
X181014158Y-89191575D01*
X180828597Y-89321505D01*
X180661505Y-89488597D01*
X180525965Y-89682169D01*
X180525964Y-89682171D01*
X180426098Y-89896335D01*
X180426094Y-89896344D01*
X180364938Y-90124586D01*
X180364936Y-90124596D01*
X180344341Y-90359999D01*
X180344341Y-90360000D01*
X170101367Y-90360000D01*
X170190477Y-90270890D01*
X170190481Y-90270884D01*
X170280452Y-90127697D01*
X170280454Y-90127694D01*
X170280454Y-90127692D01*
X170280456Y-90127690D01*
X170336313Y-89968059D01*
X170336313Y-89968058D01*
X170336314Y-89968056D01*
X170355249Y-89800002D01*
X170355249Y-89799997D01*
X170336314Y-89631943D01*
X170280454Y-89472305D01*
X170280452Y-89472302D01*
X170190481Y-89329115D01*
X170190476Y-89329109D01*
X170070890Y-89209523D01*
X170070884Y-89209518D01*
X169927697Y-89119547D01*
X169927694Y-89119545D01*
X169768056Y-89063685D01*
X169600003Y-89044751D01*
X169599997Y-89044751D01*
X169431943Y-89063685D01*
X169272305Y-89119545D01*
X169272302Y-89119547D01*
X169129115Y-89209518D01*
X169129109Y-89209523D01*
X169009523Y-89329109D01*
X169009518Y-89329115D01*
X168919547Y-89472302D01*
X168919545Y-89472305D01*
X168863685Y-89631943D01*
X168844751Y-89799997D01*
X168844751Y-89800002D01*
X164194298Y-89800002D01*
X164205565Y-89700000D01*
X164203556Y-89682171D01*
X164185369Y-89520750D01*
X164185368Y-89520745D01*
X164125788Y-89350476D01*
X164029815Y-89197737D01*
X163902262Y-89070184D01*
X163749523Y-88974211D01*
X163579254Y-88914631D01*
X163579249Y-88914630D01*
X163400004Y-88894435D01*
X163399996Y-88894435D01*
X163220750Y-88914630D01*
X163220745Y-88914631D01*
X163050476Y-88974211D01*
X162897737Y-89070184D01*
X162770184Y-89197737D01*
X162674211Y-89350476D01*
X162614631Y-89520745D01*
X162614630Y-89520750D01*
X162594435Y-89699996D01*
X162594435Y-89700003D01*
X126944619Y-89700003D01*
X126942217Y-89696998D01*
X126935023Y-89627500D01*
X126966546Y-89565145D01*
X126985842Y-89548425D01*
X127094552Y-89472305D01*
X127171401Y-89418495D01*
X127338495Y-89251401D01*
X127474035Y-89057830D01*
X127573903Y-88843663D01*
X127612396Y-88700002D01*
X140544751Y-88700002D01*
X140563685Y-88868056D01*
X140619545Y-89027694D01*
X140619547Y-89027697D01*
X140709518Y-89170884D01*
X140709523Y-89170890D01*
X140829109Y-89290476D01*
X140829115Y-89290481D01*
X140972302Y-89380452D01*
X140972305Y-89380454D01*
X140972309Y-89380455D01*
X140972310Y-89380456D01*
X141044913Y-89405860D01*
X141131943Y-89436314D01*
X141299997Y-89455249D01*
X141300000Y-89455249D01*
X141300003Y-89455249D01*
X141468056Y-89436314D01*
X141468059Y-89436313D01*
X141627690Y-89380456D01*
X141627692Y-89380454D01*
X141627694Y-89380454D01*
X141627697Y-89380452D01*
X141770884Y-89290481D01*
X141770885Y-89290480D01*
X141770890Y-89290477D01*
X141890477Y-89170890D01*
X141922738Y-89119547D01*
X141980452Y-89027697D01*
X141980454Y-89027694D01*
X141980454Y-89027692D01*
X141980456Y-89027690D01*
X142036313Y-88868059D01*
X142036313Y-88868058D01*
X142036314Y-88868056D01*
X142055249Y-88700002D01*
X142055249Y-88699997D01*
X142036314Y-88531943D01*
X141980454Y-88372305D01*
X141980452Y-88372302D01*
X141890481Y-88229115D01*
X141890476Y-88229109D01*
X141861369Y-88200002D01*
X150844751Y-88200002D01*
X150863685Y-88368056D01*
X150919545Y-88527694D01*
X150919547Y-88527697D01*
X151009518Y-88670884D01*
X151009523Y-88670890D01*
X151129109Y-88790476D01*
X151129115Y-88790481D01*
X151272302Y-88880452D01*
X151272305Y-88880454D01*
X151272309Y-88880455D01*
X151272310Y-88880456D01*
X151312260Y-88894435D01*
X151431943Y-88936314D01*
X151599997Y-88955249D01*
X151600000Y-88955249D01*
X151600003Y-88955249D01*
X151768056Y-88936314D01*
X151768059Y-88936313D01*
X151927690Y-88880456D01*
X151927692Y-88880454D01*
X151927694Y-88880454D01*
X151927697Y-88880452D01*
X152070884Y-88790481D01*
X152070885Y-88790480D01*
X152070890Y-88790477D01*
X152190477Y-88670890D01*
X152280452Y-88527697D01*
X152280454Y-88527694D01*
X152280454Y-88527692D01*
X152280456Y-88527690D01*
X152336313Y-88368059D01*
X152336313Y-88368058D01*
X152336314Y-88368056D01*
X152355249Y-88200002D01*
X152355249Y-88199997D01*
X152336314Y-88031943D01*
X152280454Y-87872305D01*
X152280452Y-87872302D01*
X152190481Y-87729115D01*
X152190476Y-87729109D01*
X152070890Y-87609523D01*
X152070884Y-87609518D01*
X151927697Y-87519547D01*
X151927694Y-87519545D01*
X151768056Y-87463685D01*
X151600003Y-87444751D01*
X151599997Y-87444751D01*
X151431943Y-87463685D01*
X151272305Y-87519545D01*
X151272302Y-87519547D01*
X151129115Y-87609518D01*
X151129109Y-87609523D01*
X151009523Y-87729109D01*
X151009518Y-87729115D01*
X150919547Y-87872302D01*
X150919545Y-87872305D01*
X150863685Y-88031943D01*
X150844751Y-88199997D01*
X150844751Y-88200002D01*
X141861369Y-88200002D01*
X141770890Y-88109523D01*
X141770884Y-88109518D01*
X141627697Y-88019547D01*
X141627694Y-88019545D01*
X141468056Y-87963685D01*
X141300003Y-87944751D01*
X141299997Y-87944751D01*
X141131943Y-87963685D01*
X140972305Y-88019545D01*
X140972302Y-88019547D01*
X140829115Y-88109518D01*
X140829109Y-88109523D01*
X140709523Y-88229109D01*
X140709518Y-88229115D01*
X140619547Y-88372302D01*
X140619545Y-88372305D01*
X140563685Y-88531943D01*
X140544751Y-88699997D01*
X140544751Y-88700002D01*
X127612396Y-88700002D01*
X127635063Y-88615408D01*
X127655659Y-88380000D01*
X127654985Y-88372302D01*
X127651539Y-88332918D01*
X127635063Y-88144592D01*
X127573903Y-87916337D01*
X127474035Y-87702171D01*
X127409162Y-87609523D01*
X127338496Y-87508600D01*
X127293581Y-87463685D01*
X127216179Y-87386283D01*
X127182696Y-87324963D01*
X127187680Y-87255271D01*
X127229551Y-87199337D01*
X127260529Y-87182422D01*
X127392086Y-87133354D01*
X127392093Y-87133350D01*
X127507187Y-87047190D01*
X127507190Y-87047187D01*
X127593350Y-86932093D01*
X127593354Y-86932086D01*
X127643596Y-86797379D01*
X127643598Y-86797372D01*
X127649999Y-86737844D01*
X127650000Y-86737827D01*
X127650000Y-86090000D01*
X126733012Y-86090000D01*
X126765925Y-86032993D01*
X126800000Y-85905826D01*
X126800000Y-85774174D01*
X126765925Y-85647007D01*
X126733012Y-85590000D01*
X127650000Y-85590000D01*
X127650000Y-84942172D01*
X127649999Y-84942155D01*
X127643598Y-84882627D01*
X127643596Y-84882620D01*
X127612782Y-84800002D01*
X158044751Y-84800002D01*
X158063685Y-84968056D01*
X158119545Y-85127694D01*
X158119547Y-85127697D01*
X158209518Y-85270884D01*
X158209523Y-85270890D01*
X158329109Y-85390476D01*
X158329115Y-85390481D01*
X158472302Y-85480452D01*
X158472305Y-85480454D01*
X158472309Y-85480455D01*
X158472310Y-85480456D01*
X158544913Y-85505860D01*
X158631943Y-85536314D01*
X158799997Y-85555249D01*
X158800000Y-85555249D01*
X158800003Y-85555249D01*
X158968056Y-85536314D01*
X158977547Y-85532993D01*
X159127690Y-85480456D01*
X159127692Y-85480454D01*
X159127694Y-85480454D01*
X159127697Y-85480452D01*
X159255732Y-85400002D01*
X166844751Y-85400002D01*
X166863685Y-85568056D01*
X166919545Y-85727694D01*
X166919547Y-85727697D01*
X167009518Y-85870884D01*
X167009523Y-85870890D01*
X167129109Y-85990476D01*
X167129115Y-85990481D01*
X167272302Y-86080452D01*
X167272305Y-86080454D01*
X167272309Y-86080455D01*
X167272310Y-86080456D01*
X167344913Y-86105860D01*
X167431943Y-86136314D01*
X167599997Y-86155249D01*
X167600000Y-86155249D01*
X167600003Y-86155249D01*
X167768056Y-86136314D01*
X167768059Y-86136313D01*
X167927690Y-86080456D01*
X167927692Y-86080454D01*
X167927694Y-86080454D01*
X167927697Y-86080452D01*
X168070884Y-85990481D01*
X168070885Y-85990480D01*
X168070890Y-85990477D01*
X168190477Y-85870890D01*
X168270419Y-85743664D01*
X168280452Y-85727697D01*
X168280454Y-85727694D01*
X168280454Y-85727692D01*
X168280456Y-85727690D01*
X168336313Y-85568059D01*
X168336313Y-85568057D01*
X168336314Y-85568055D01*
X168344989Y-85491056D01*
X168372055Y-85426642D01*
X168429649Y-85387086D01*
X168499486Y-85384947D01*
X168555890Y-85417257D01*
X168629109Y-85490476D01*
X168629115Y-85490481D01*
X168772302Y-85580452D01*
X168772305Y-85580454D01*
X168772309Y-85580455D01*
X168772310Y-85580456D01*
X168844913Y-85605860D01*
X168931943Y-85636314D01*
X169099997Y-85655249D01*
X169100000Y-85655249D01*
X169100003Y-85655249D01*
X169268056Y-85636314D01*
X169268059Y-85636313D01*
X169427690Y-85580456D01*
X169427692Y-85580454D01*
X169427694Y-85580454D01*
X169427697Y-85580452D01*
X169570884Y-85490481D01*
X169570885Y-85490480D01*
X169570890Y-85490477D01*
X169690477Y-85370890D01*
X169709887Y-85340000D01*
X169780452Y-85227697D01*
X169780454Y-85227694D01*
X169780454Y-85227692D01*
X169780456Y-85227690D01*
X169836313Y-85068059D01*
X169836313Y-85068058D01*
X169836314Y-85068056D01*
X169855249Y-84900002D01*
X169855249Y-84899997D01*
X169836314Y-84731943D01*
X169780454Y-84572305D01*
X169780452Y-84572302D01*
X169690481Y-84429115D01*
X169690476Y-84429109D01*
X169570890Y-84309523D01*
X169570884Y-84309518D01*
X169427697Y-84219547D01*
X169427694Y-84219545D01*
X169268056Y-84163685D01*
X169100003Y-84144751D01*
X169099997Y-84144751D01*
X168931943Y-84163685D01*
X168772305Y-84219545D01*
X168772302Y-84219547D01*
X168629115Y-84309518D01*
X168629109Y-84309523D01*
X168509523Y-84429109D01*
X168509518Y-84429115D01*
X168419547Y-84572302D01*
X168419545Y-84572305D01*
X168363685Y-84731943D01*
X168355010Y-84808945D01*
X168327943Y-84873359D01*
X168270349Y-84912914D01*
X168200512Y-84915051D01*
X168144109Y-84882742D01*
X168070890Y-84809523D01*
X168070884Y-84809518D01*
X167927697Y-84719547D01*
X167927694Y-84719545D01*
X167768056Y-84663685D01*
X167600003Y-84644751D01*
X167599997Y-84644751D01*
X167431943Y-84663685D01*
X167272305Y-84719545D01*
X167272302Y-84719547D01*
X167129115Y-84809518D01*
X167129109Y-84809523D01*
X167009523Y-84929109D01*
X167009518Y-84929115D01*
X166919547Y-85072302D01*
X166919545Y-85072305D01*
X166863685Y-85231943D01*
X166844751Y-85399997D01*
X166844751Y-85400002D01*
X159255732Y-85400002D01*
X159270884Y-85390481D01*
X159270885Y-85390480D01*
X159270890Y-85390477D01*
X159390477Y-85270890D01*
X159414949Y-85231943D01*
X159480452Y-85127697D01*
X159480454Y-85127694D01*
X159480454Y-85127692D01*
X159480456Y-85127690D01*
X159536313Y-84968059D01*
X159536313Y-84968058D01*
X159536314Y-84968056D01*
X159555249Y-84800002D01*
X159555249Y-84799997D01*
X159536314Y-84631943D01*
X159480454Y-84472305D01*
X159480452Y-84472302D01*
X159390481Y-84329115D01*
X159390476Y-84329109D01*
X159270890Y-84209523D01*
X159270884Y-84209518D01*
X159127697Y-84119547D01*
X159127694Y-84119545D01*
X158968056Y-84063685D01*
X158800003Y-84044751D01*
X158799997Y-84044751D01*
X158631943Y-84063685D01*
X158472305Y-84119545D01*
X158472302Y-84119547D01*
X158329115Y-84209518D01*
X158329109Y-84209523D01*
X158209523Y-84329109D01*
X158209518Y-84329115D01*
X158119547Y-84472302D01*
X158119545Y-84472305D01*
X158063685Y-84631943D01*
X158044751Y-84799997D01*
X158044751Y-84800002D01*
X127612782Y-84800002D01*
X127593354Y-84747913D01*
X127593350Y-84747906D01*
X127507190Y-84632812D01*
X127507187Y-84632809D01*
X127392093Y-84546649D01*
X127392086Y-84546645D01*
X127257379Y-84496403D01*
X127257372Y-84496401D01*
X127197844Y-84490000D01*
X126550000Y-84490000D01*
X126550000Y-85406988D01*
X126492993Y-85374075D01*
X126365826Y-85340000D01*
X126234174Y-85340000D01*
X126107007Y-85374075D01*
X126050000Y-85406988D01*
X126050000Y-84490000D01*
X125402155Y-84490000D01*
X125342627Y-84496401D01*
X125342620Y-84496403D01*
X125207913Y-84546645D01*
X125207906Y-84546649D01*
X125092812Y-84632809D01*
X125092809Y-84632812D01*
X125006649Y-84747906D01*
X125006645Y-84747913D01*
X124956403Y-84882620D01*
X124956401Y-84882627D01*
X124950000Y-84942155D01*
X124950000Y-85590000D01*
X125866988Y-85590000D01*
X125834075Y-85647007D01*
X125800000Y-85774174D01*
X125800000Y-85905826D01*
X125834075Y-86032993D01*
X125866988Y-86090000D01*
X124950000Y-86090000D01*
X124950000Y-86737844D01*
X124956401Y-86797372D01*
X124956403Y-86797379D01*
X125006645Y-86932086D01*
X125006649Y-86932093D01*
X125092809Y-87047187D01*
X125092812Y-87047190D01*
X125207906Y-87133350D01*
X125207913Y-87133354D01*
X125339470Y-87182421D01*
X125395403Y-87224292D01*
X125419821Y-87289756D01*
X125404970Y-87358029D01*
X125383819Y-87386284D01*
X125261503Y-87508600D01*
X125125965Y-87702169D01*
X125125964Y-87702171D01*
X125026098Y-87916335D01*
X125026094Y-87916344D01*
X124964938Y-88144586D01*
X124964936Y-88144596D01*
X124944341Y-88379999D01*
X124944341Y-88380000D01*
X124964936Y-88615403D01*
X124964938Y-88615413D01*
X125026094Y-88843655D01*
X125026096Y-88843659D01*
X125026097Y-88843663D01*
X125111912Y-89027694D01*
X125125965Y-89057830D01*
X125125967Y-89057834D01*
X125261501Y-89251395D01*
X125261506Y-89251402D01*
X125428597Y-89418493D01*
X125428603Y-89418498D01*
X125614158Y-89548425D01*
X125657783Y-89603002D01*
X125664977Y-89672500D01*
X125633454Y-89734855D01*
X125614158Y-89751575D01*
X125428597Y-89881505D01*
X125261505Y-90048597D01*
X125125965Y-90242169D01*
X125125964Y-90242171D01*
X125026098Y-90456335D01*
X125026094Y-90456344D01*
X124964938Y-90684586D01*
X124964936Y-90684596D01*
X124944341Y-90919999D01*
X124944341Y-90920000D01*
X124964936Y-91155403D01*
X124964938Y-91155413D01*
X125026094Y-91383655D01*
X125026096Y-91383659D01*
X125026097Y-91383663D01*
X125114065Y-91572310D01*
X125125965Y-91597830D01*
X125125967Y-91597834D01*
X125261501Y-91791395D01*
X125261506Y-91791402D01*
X125428597Y-91958493D01*
X125428603Y-91958498D01*
X125614158Y-92088425D01*
X125657783Y-92143002D01*
X125664977Y-92212500D01*
X125633454Y-92274855D01*
X125614158Y-92291575D01*
X125428597Y-92421505D01*
X125261505Y-92588597D01*
X125125965Y-92782169D01*
X125125964Y-92782171D01*
X125026098Y-92996335D01*
X125026094Y-92996344D01*
X124964938Y-93224586D01*
X124964936Y-93224596D01*
X124944341Y-93459999D01*
X124944341Y-93460000D01*
X124964936Y-93695403D01*
X124964938Y-93695413D01*
X125026094Y-93923655D01*
X125026096Y-93923659D01*
X125026097Y-93923663D01*
X125125965Y-94137830D01*
X125125967Y-94137834D01*
X125218640Y-94270184D01*
X125259904Y-94329115D01*
X125261501Y-94331395D01*
X125261506Y-94331402D01*
X125428597Y-94498493D01*
X125428603Y-94498498D01*
X125614158Y-94628425D01*
X125657783Y-94683002D01*
X125664977Y-94752500D01*
X125633454Y-94814855D01*
X125614158Y-94831575D01*
X125428597Y-94961505D01*
X125261505Y-95128597D01*
X125125965Y-95322169D01*
X125125964Y-95322171D01*
X125026098Y-95536335D01*
X125026094Y-95536344D01*
X124964938Y-95764586D01*
X124964936Y-95764596D01*
X124944341Y-95999999D01*
X124944341Y-96000000D01*
X124964936Y-96235403D01*
X124964938Y-96235413D01*
X125026094Y-96463655D01*
X125026096Y-96463659D01*
X125026097Y-96463663D01*
X125057936Y-96531941D01*
X125125965Y-96677830D01*
X125125967Y-96677834D01*
X125207834Y-96794751D01*
X125260205Y-96869545D01*
X125261501Y-96871395D01*
X125261506Y-96871402D01*
X125428597Y-97038493D01*
X125428603Y-97038498D01*
X125614158Y-97168425D01*
X125657783Y-97223002D01*
X125664977Y-97292500D01*
X125633454Y-97354855D01*
X125614158Y-97371575D01*
X125428597Y-97501505D01*
X125261505Y-97668597D01*
X125125965Y-97862169D01*
X125125964Y-97862171D01*
X125026098Y-98076335D01*
X125026094Y-98076344D01*
X124964938Y-98304586D01*
X124964936Y-98304596D01*
X124944341Y-98539999D01*
X124944341Y-98540000D01*
X124964936Y-98775403D01*
X124964938Y-98775413D01*
X125026094Y-99003655D01*
X125026096Y-99003659D01*
X125026097Y-99003663D01*
X125091888Y-99144751D01*
X125125965Y-99217830D01*
X125125967Y-99217834D01*
X125261501Y-99411395D01*
X125261506Y-99411402D01*
X125428597Y-99578493D01*
X125428603Y-99578498D01*
X125614158Y-99708425D01*
X125657783Y-99763002D01*
X125664977Y-99832500D01*
X125633454Y-99894855D01*
X125614158Y-99911575D01*
X125428597Y-100041505D01*
X125261505Y-100208597D01*
X125125965Y-100402169D01*
X125125964Y-100402171D01*
X125026098Y-100616335D01*
X125026094Y-100616344D01*
X124964938Y-100844586D01*
X124964936Y-100844596D01*
X124944341Y-101079999D01*
X124944341Y-101080000D01*
X124964936Y-101315403D01*
X124964938Y-101315413D01*
X125026094Y-101543655D01*
X125026096Y-101543659D01*
X125026097Y-101543663D01*
X125110655Y-101724997D01*
X125125965Y-101757830D01*
X125125967Y-101757834D01*
X125261501Y-101951395D01*
X125261506Y-101951402D01*
X125428597Y-102118493D01*
X125428603Y-102118498D01*
X125614158Y-102248425D01*
X125657783Y-102303002D01*
X125664977Y-102372500D01*
X125633454Y-102434855D01*
X125614158Y-102451575D01*
X125428597Y-102581505D01*
X125261505Y-102748597D01*
X125125965Y-102942169D01*
X125125964Y-102942171D01*
X125026098Y-103156335D01*
X125026094Y-103156344D01*
X124964938Y-103384586D01*
X124964936Y-103384596D01*
X124944341Y-103619999D01*
X124944341Y-103620000D01*
X124964936Y-103855403D01*
X124964938Y-103855413D01*
X125026094Y-104083655D01*
X125026096Y-104083659D01*
X125026097Y-104083663D01*
X125116574Y-104277690D01*
X125125965Y-104297830D01*
X125125967Y-104297834D01*
X125261501Y-104491395D01*
X125261506Y-104491402D01*
X125428597Y-104658493D01*
X125428603Y-104658498D01*
X125614158Y-104788425D01*
X125657783Y-104843002D01*
X125664977Y-104912500D01*
X125633454Y-104974855D01*
X125614158Y-104991575D01*
X125428597Y-105121505D01*
X125261505Y-105288597D01*
X125125965Y-105482169D01*
X125125964Y-105482171D01*
X125026098Y-105696335D01*
X125026094Y-105696344D01*
X124964938Y-105924586D01*
X124964936Y-105924596D01*
X124944341Y-106159999D01*
X124944341Y-106160000D01*
X124964936Y-106395403D01*
X124964938Y-106395413D01*
X125026094Y-106623655D01*
X125026096Y-106623659D01*
X125026097Y-106623663D01*
X125098651Y-106779255D01*
X125125965Y-106837830D01*
X125125967Y-106837834D01*
X125261501Y-107031395D01*
X125261506Y-107031402D01*
X125428597Y-107198493D01*
X125428603Y-107198498D01*
X125614158Y-107328425D01*
X125657783Y-107383002D01*
X125664977Y-107452500D01*
X125633454Y-107514855D01*
X125614158Y-107531575D01*
X125428597Y-107661505D01*
X125261505Y-107828597D01*
X125125965Y-108022169D01*
X125125964Y-108022171D01*
X125076760Y-108127690D01*
X125028444Y-108231305D01*
X125026098Y-108236335D01*
X125026094Y-108236344D01*
X124964938Y-108464586D01*
X124964936Y-108464596D01*
X124944341Y-108699999D01*
X124944341Y-108700000D01*
X124000000Y-108700000D01*
X124000000Y-81800003D01*
X130494435Y-81800003D01*
X130514630Y-81979249D01*
X130514631Y-81979254D01*
X130574211Y-82149523D01*
X130670184Y-82302262D01*
X130756851Y-82388929D01*
X130790336Y-82450252D01*
X130786212Y-82517562D01*
X130763687Y-82581938D01*
X130763686Y-82581941D01*
X130744751Y-82749997D01*
X130744751Y-82750002D01*
X130763685Y-82918056D01*
X130819545Y-83077694D01*
X130819547Y-83077697D01*
X130909518Y-83220884D01*
X130909523Y-83220890D01*
X131029109Y-83340476D01*
X131029115Y-83340481D01*
X131172302Y-83430452D01*
X131172305Y-83430454D01*
X131172309Y-83430455D01*
X131172310Y-83430456D01*
X131244913Y-83455860D01*
X131331943Y-83486314D01*
X131499997Y-83505249D01*
X131500000Y-83505249D01*
X131500003Y-83505249D01*
X131668056Y-83486314D01*
X131668059Y-83486313D01*
X131827690Y-83430456D01*
X131827692Y-83430454D01*
X131827694Y-83430454D01*
X131827697Y-83430452D01*
X131970884Y-83340481D01*
X131970885Y-83340480D01*
X131970890Y-83340477D01*
X132090477Y-83220890D01*
X132101301Y-83203664D01*
X132180452Y-83077697D01*
X132180454Y-83077694D01*
X132180454Y-83077692D01*
X132180456Y-83077690D01*
X132236313Y-82918059D01*
X132236313Y-82918058D01*
X132236314Y-82918056D01*
X132255249Y-82750002D01*
X132255249Y-82749997D01*
X132236314Y-82581943D01*
X132180454Y-82422305D01*
X132180452Y-82422302D01*
X132103605Y-82300002D01*
X142844751Y-82300002D01*
X142863685Y-82468056D01*
X142919545Y-82627694D01*
X142919547Y-82627697D01*
X143009518Y-82770884D01*
X143009523Y-82770890D01*
X143129109Y-82890476D01*
X143129115Y-82890481D01*
X143272302Y-82980452D01*
X143272305Y-82980454D01*
X143272309Y-82980455D01*
X143272310Y-82980456D01*
X143341433Y-83004643D01*
X143431943Y-83036314D01*
X143599997Y-83055249D01*
X143600000Y-83055249D01*
X143600003Y-83055249D01*
X143740910Y-83039372D01*
X143768059Y-83036313D01*
X143848384Y-83008205D01*
X143918162Y-83004643D01*
X143978790Y-83039372D01*
X144011017Y-83101365D01*
X144012559Y-83139130D01*
X143994435Y-83299995D01*
X143994435Y-83300003D01*
X144014630Y-83479249D01*
X144014631Y-83479254D01*
X144074211Y-83649523D01*
X144155249Y-83778493D01*
X144170184Y-83802262D01*
X144297738Y-83929816D01*
X144450478Y-84025789D01*
X144620745Y-84085368D01*
X144620750Y-84085369D01*
X144799996Y-84105565D01*
X144800000Y-84105565D01*
X144800004Y-84105565D01*
X144979249Y-84085369D01*
X144979252Y-84085368D01*
X144979255Y-84085368D01*
X145149522Y-84025789D01*
X145302262Y-83929816D01*
X145429816Y-83802262D01*
X145525789Y-83649522D01*
X145585368Y-83479255D01*
X145585369Y-83479249D01*
X145605565Y-83300003D01*
X145605565Y-83299996D01*
X145585369Y-83120750D01*
X145585368Y-83120745D01*
X145534512Y-82975408D01*
X145525789Y-82950478D01*
X145429816Y-82797738D01*
X145302262Y-82670184D01*
X145149523Y-82574211D01*
X144979254Y-82514631D01*
X144979249Y-82514630D01*
X144800004Y-82494435D01*
X144799996Y-82494435D01*
X144620750Y-82514630D01*
X144620742Y-82514632D01*
X144505446Y-82554976D01*
X144435667Y-82558537D01*
X144375040Y-82523808D01*
X144342813Y-82461815D01*
X144341272Y-82424050D01*
X144355249Y-82300002D01*
X144355249Y-82299997D01*
X144336314Y-82131943D01*
X144286813Y-81990477D01*
X144280456Y-81972310D01*
X144280455Y-81972309D01*
X144280454Y-81972305D01*
X144280452Y-81972302D01*
X144190481Y-81829115D01*
X144190476Y-81829109D01*
X144070890Y-81709523D01*
X144070884Y-81709518D01*
X143927697Y-81619547D01*
X143927694Y-81619545D01*
X143768056Y-81563685D01*
X143600003Y-81544751D01*
X143599997Y-81544751D01*
X143431943Y-81563685D01*
X143272305Y-81619545D01*
X143272302Y-81619547D01*
X143129115Y-81709518D01*
X143129109Y-81709523D01*
X143009523Y-81829109D01*
X143009518Y-81829115D01*
X142919547Y-81972302D01*
X142919545Y-81972305D01*
X142863685Y-82131943D01*
X142844751Y-82299997D01*
X142844751Y-82300002D01*
X132103605Y-82300002D01*
X132090481Y-82279115D01*
X132090476Y-82279109D01*
X132064059Y-82252692D01*
X132030574Y-82191369D01*
X132034698Y-82124059D01*
X132081440Y-81990481D01*
X132085367Y-81979259D01*
X132085369Y-81979249D01*
X132105565Y-81800003D01*
X132105565Y-81799996D01*
X132085369Y-81620750D01*
X132085368Y-81620745D01*
X132066200Y-81565965D01*
X132025789Y-81450478D01*
X131994073Y-81400002D01*
X158144751Y-81400002D01*
X158163685Y-81568056D01*
X158219545Y-81727694D01*
X158219547Y-81727697D01*
X158309518Y-81870884D01*
X158309523Y-81870890D01*
X158429109Y-81990476D01*
X158429115Y-81990481D01*
X158572302Y-82080452D01*
X158572305Y-82080454D01*
X158572309Y-82080455D01*
X158572310Y-82080456D01*
X158644913Y-82105860D01*
X158731943Y-82136314D01*
X158899997Y-82155249D01*
X158900000Y-82155249D01*
X158900003Y-82155249D01*
X159068056Y-82136314D01*
X159080548Y-82131943D01*
X159227690Y-82080456D01*
X159227692Y-82080454D01*
X159227694Y-82080454D01*
X159227697Y-82080452D01*
X159370884Y-81990481D01*
X159370885Y-81990480D01*
X159370890Y-81990477D01*
X159490477Y-81870890D01*
X159516726Y-81829115D01*
X159580452Y-81727697D01*
X159580454Y-81727694D01*
X159580454Y-81727692D01*
X159580456Y-81727690D01*
X159636313Y-81568059D01*
X159636313Y-81568058D01*
X159636314Y-81568056D01*
X159655249Y-81400002D01*
X159655249Y-81399997D01*
X159636314Y-81231943D01*
X159580454Y-81072305D01*
X159580452Y-81072302D01*
X159490481Y-80929115D01*
X159490476Y-80929109D01*
X159370890Y-80809523D01*
X159370884Y-80809518D01*
X159227697Y-80719547D01*
X159227694Y-80719545D01*
X159068056Y-80663685D01*
X158900003Y-80644751D01*
X158899997Y-80644751D01*
X158731943Y-80663685D01*
X158572305Y-80719545D01*
X158572302Y-80719547D01*
X158429115Y-80809518D01*
X158429109Y-80809523D01*
X158309523Y-80929109D01*
X158309518Y-80929115D01*
X158219547Y-81072302D01*
X158219545Y-81072305D01*
X158163685Y-81231943D01*
X158144751Y-81399997D01*
X158144751Y-81400002D01*
X131994073Y-81400002D01*
X131929816Y-81297738D01*
X131802262Y-81170184D01*
X131649523Y-81074211D01*
X131479254Y-81014631D01*
X131479249Y-81014630D01*
X131300004Y-80994435D01*
X131299996Y-80994435D01*
X131120750Y-81014630D01*
X131120745Y-81014631D01*
X130950476Y-81074211D01*
X130797737Y-81170184D01*
X130670184Y-81297737D01*
X130574211Y-81450476D01*
X130514631Y-81620745D01*
X130514630Y-81620750D01*
X130494435Y-81799996D01*
X130494435Y-81800003D01*
X124000000Y-81800003D01*
X124000000Y-79453469D01*
X170129500Y-79453469D01*
X170169868Y-79656412D01*
X170169870Y-79656420D01*
X170249058Y-79847596D01*
X170364024Y-80019657D01*
X170510342Y-80165975D01*
X170510345Y-80165977D01*
X170682402Y-80280941D01*
X170873580Y-80360130D01*
X171076530Y-80400499D01*
X171076534Y-80400500D01*
X171076535Y-80400500D01*
X171283466Y-80400500D01*
X171283467Y-80400499D01*
X171486420Y-80360130D01*
X171677598Y-80280941D01*
X171849655Y-80165977D01*
X171995977Y-80019655D01*
X172110941Y-79847598D01*
X172190130Y-79656420D01*
X172230500Y-79453465D01*
X172230500Y-79246535D01*
X172190130Y-79043580D01*
X172110941Y-78852402D01*
X171995977Y-78680345D01*
X171995975Y-78680342D01*
X171849657Y-78534024D01*
X171763626Y-78476541D01*
X171677598Y-78419059D01*
X171486420Y-78339870D01*
X171486412Y-78339868D01*
X171283469Y-78299500D01*
X171283465Y-78299500D01*
X171076535Y-78299500D01*
X171076530Y-78299500D01*
X170873587Y-78339868D01*
X170873579Y-78339870D01*
X170682403Y-78419058D01*
X170510342Y-78534024D01*
X170364024Y-78680342D01*
X170249058Y-78852403D01*
X170169870Y-79043579D01*
X170169868Y-79043587D01*
X170129500Y-79246530D01*
X170129500Y-79453469D01*
X124000000Y-79453469D01*
X124000000Y-76100001D01*
X135294532Y-76100001D01*
X135314364Y-76326686D01*
X135314366Y-76326697D01*
X135373258Y-76546488D01*
X135373261Y-76546497D01*
X135469431Y-76752732D01*
X135469432Y-76752734D01*
X135599954Y-76939141D01*
X135760858Y-77100045D01*
X135760861Y-77100047D01*
X135947266Y-77230568D01*
X136153504Y-77326739D01*
X136373308Y-77385635D01*
X136535230Y-77399801D01*
X136599998Y-77405468D01*
X136600000Y-77405468D01*
X136600002Y-77405468D01*
X136656673Y-77400509D01*
X136826692Y-77385635D01*
X137046496Y-77326739D01*
X137252734Y-77230568D01*
X137439139Y-77100047D01*
X137600047Y-76939139D01*
X137730568Y-76752734D01*
X137826739Y-76546496D01*
X137885635Y-76326692D01*
X137905468Y-76100000D01*
X137887970Y-75900001D01*
X146194532Y-75900001D01*
X146214364Y-76126686D01*
X146214366Y-76126697D01*
X146273258Y-76346488D01*
X146273261Y-76346497D01*
X146369431Y-76552732D01*
X146369432Y-76552734D01*
X146499954Y-76739141D01*
X146660858Y-76900045D01*
X146660861Y-76900047D01*
X146847266Y-77030568D01*
X147053504Y-77126739D01*
X147273308Y-77185635D01*
X147435230Y-77199801D01*
X147499998Y-77205468D01*
X147500000Y-77205468D01*
X147500002Y-77205468D01*
X147556673Y-77200509D01*
X147726692Y-77185635D01*
X147946496Y-77126739D01*
X148152734Y-77030568D01*
X148339139Y-76900047D01*
X148500047Y-76739139D01*
X148630568Y-76552734D01*
X148726739Y-76346496D01*
X148785635Y-76126692D01*
X148805468Y-75900000D01*
X148785635Y-75673308D01*
X148726739Y-75453504D01*
X148630568Y-75247266D01*
X148527452Y-75100000D01*
X148500048Y-75060862D01*
X148476543Y-75037357D01*
X148426865Y-74987679D01*
X148393382Y-74926359D01*
X148398366Y-74856667D01*
X148426865Y-74812320D01*
X148500047Y-74739139D01*
X148630568Y-74552734D01*
X148726739Y-74346496D01*
X148785635Y-74126692D01*
X148805468Y-73900000D01*
X148785635Y-73673308D01*
X148726739Y-73453504D01*
X148630568Y-73247266D01*
X148500047Y-73060861D01*
X148500045Y-73060858D01*
X148439187Y-73000000D01*
X160714778Y-73000000D01*
X160733644Y-73287837D01*
X160733646Y-73287849D01*
X160789917Y-73570745D01*
X160789921Y-73570760D01*
X160882642Y-73843905D01*
X161010219Y-74102606D01*
X161010223Y-74102613D01*
X161170478Y-74342452D01*
X161360672Y-74559327D01*
X161565706Y-74739137D01*
X161577546Y-74749520D01*
X161817389Y-74909778D01*
X162076098Y-75037359D01*
X162349247Y-75130081D01*
X162632161Y-75186356D01*
X162920000Y-75205222D01*
X163207839Y-75186356D01*
X163490753Y-75130081D01*
X163763902Y-75037359D01*
X164022611Y-74909778D01*
X164262454Y-74749520D01*
X164479327Y-74559327D01*
X164669520Y-74342454D01*
X164829778Y-74102611D01*
X164957359Y-73843902D01*
X165050081Y-73570753D01*
X165106356Y-73287839D01*
X165125222Y-73000000D01*
X170874778Y-73000000D01*
X170893644Y-73287837D01*
X170893646Y-73287849D01*
X170949917Y-73570745D01*
X170949921Y-73570760D01*
X171042642Y-73843905D01*
X171170219Y-74102606D01*
X171170223Y-74102613D01*
X171330478Y-74342452D01*
X171520672Y-74559327D01*
X171725706Y-74739137D01*
X171737546Y-74749520D01*
X171977389Y-74909778D01*
X172236098Y-75037359D01*
X172509247Y-75130081D01*
X172792161Y-75186356D01*
X173080000Y-75205222D01*
X173367839Y-75186356D01*
X173650753Y-75130081D01*
X173923902Y-75037359D01*
X174182611Y-74909778D01*
X174422454Y-74749520D01*
X174639327Y-74559327D01*
X174829520Y-74342454D01*
X174989778Y-74102611D01*
X175117359Y-73843902D01*
X175210081Y-73570753D01*
X175266356Y-73287839D01*
X175285222Y-73000000D01*
X175266356Y-72712161D01*
X175210081Y-72429247D01*
X175117359Y-72156098D01*
X174989778Y-71897389D01*
X174881534Y-71735390D01*
X174829521Y-71657547D01*
X174639327Y-71440672D01*
X174422452Y-71250478D01*
X174182613Y-71090223D01*
X174182606Y-71090219D01*
X173923905Y-70962642D01*
X173650760Y-70869921D01*
X173650754Y-70869919D01*
X173650753Y-70869919D01*
X173650751Y-70869918D01*
X173650745Y-70869917D01*
X173367849Y-70813646D01*
X173367839Y-70813644D01*
X173080000Y-70794778D01*
X172792161Y-70813644D01*
X172792155Y-70813645D01*
X172792150Y-70813646D01*
X172509254Y-70869917D01*
X172509239Y-70869921D01*
X172236094Y-70962642D01*
X171977393Y-71090219D01*
X171977386Y-71090223D01*
X171737547Y-71250478D01*
X171520672Y-71440672D01*
X171330478Y-71657547D01*
X171170223Y-71897386D01*
X171170219Y-71897393D01*
X171042642Y-72156094D01*
X170949921Y-72429239D01*
X170949917Y-72429254D01*
X170893646Y-72712150D01*
X170893644Y-72712162D01*
X170874778Y-73000000D01*
X165125222Y-73000000D01*
X165106356Y-72712161D01*
X165050081Y-72429247D01*
X164957359Y-72156098D01*
X164829778Y-71897389D01*
X164721534Y-71735390D01*
X164669521Y-71657547D01*
X164479327Y-71440672D01*
X164262452Y-71250478D01*
X164022613Y-71090223D01*
X164022606Y-71090219D01*
X163763905Y-70962642D01*
X163490760Y-70869921D01*
X163490754Y-70869919D01*
X163490753Y-70869919D01*
X163490751Y-70869918D01*
X163490745Y-70869917D01*
X163207849Y-70813646D01*
X163207839Y-70813644D01*
X162920000Y-70794778D01*
X162632161Y-70813644D01*
X162632155Y-70813645D01*
X162632150Y-70813646D01*
X162349254Y-70869917D01*
X162349239Y-70869921D01*
X162076094Y-70962642D01*
X161817393Y-71090219D01*
X161817386Y-71090223D01*
X161577547Y-71250478D01*
X161360672Y-71440672D01*
X161170478Y-71657547D01*
X161010223Y-71897386D01*
X161010219Y-71897393D01*
X160882642Y-72156094D01*
X160789921Y-72429239D01*
X160789917Y-72429254D01*
X160733646Y-72712150D01*
X160733644Y-72712162D01*
X160714778Y-73000000D01*
X148439187Y-73000000D01*
X148339141Y-72899954D01*
X148152734Y-72769432D01*
X148152732Y-72769431D01*
X147946497Y-72673261D01*
X147946488Y-72673258D01*
X147726697Y-72614366D01*
X147726693Y-72614365D01*
X147726692Y-72614365D01*
X147726691Y-72614364D01*
X147726686Y-72614364D01*
X147500002Y-72594532D01*
X147499998Y-72594532D01*
X147273313Y-72614364D01*
X147273302Y-72614366D01*
X147053511Y-72673258D01*
X147053502Y-72673261D01*
X146847267Y-72769431D01*
X146847265Y-72769432D01*
X146660858Y-72899954D01*
X146499954Y-73060858D01*
X146369432Y-73247265D01*
X146369431Y-73247267D01*
X146273261Y-73453502D01*
X146273258Y-73453511D01*
X146214366Y-73673302D01*
X146214364Y-73673313D01*
X146194532Y-73899998D01*
X146194532Y-73900001D01*
X146214364Y-74126686D01*
X146214366Y-74126697D01*
X146273258Y-74346488D01*
X146273261Y-74346497D01*
X146369431Y-74552732D01*
X146369432Y-74552734D01*
X146499954Y-74739141D01*
X146573132Y-74812319D01*
X146606617Y-74873642D01*
X146601633Y-74943334D01*
X146573132Y-74987681D01*
X146499954Y-75060858D01*
X146369432Y-75247265D01*
X146369431Y-75247267D01*
X146273261Y-75453502D01*
X146273258Y-75453511D01*
X146214366Y-75673302D01*
X146214364Y-75673313D01*
X146194532Y-75899998D01*
X146194532Y-75900001D01*
X137887970Y-75900001D01*
X137885635Y-75873308D01*
X137832047Y-75673313D01*
X137826741Y-75653511D01*
X137826738Y-75653502D01*
X137733480Y-75453511D01*
X137730568Y-75447266D01*
X137600047Y-75260861D01*
X137526865Y-75187679D01*
X137493382Y-75126359D01*
X137498366Y-75056667D01*
X137526865Y-75012320D01*
X137600047Y-74939139D01*
X137730568Y-74752734D01*
X137826739Y-74546496D01*
X137885635Y-74326692D01*
X137905468Y-74100000D01*
X137885635Y-73873308D01*
X137832047Y-73673313D01*
X137826741Y-73653511D01*
X137826738Y-73653502D01*
X137730568Y-73447266D01*
X137600047Y-73260861D01*
X137600045Y-73260858D01*
X137439141Y-73099954D01*
X137252734Y-72969432D01*
X137252732Y-72969431D01*
X137046497Y-72873261D01*
X137046488Y-72873258D01*
X136826697Y-72814366D01*
X136826693Y-72814365D01*
X136826692Y-72814365D01*
X136826691Y-72814364D01*
X136826686Y-72814364D01*
X136600002Y-72794532D01*
X136599998Y-72794532D01*
X136373313Y-72814364D01*
X136373302Y-72814366D01*
X136153511Y-72873258D01*
X136153502Y-72873261D01*
X135947267Y-72969431D01*
X135947265Y-72969432D01*
X135760858Y-73099954D01*
X135599954Y-73260858D01*
X135469432Y-73447265D01*
X135469431Y-73447267D01*
X135373261Y-73653502D01*
X135373258Y-73653511D01*
X135314366Y-73873302D01*
X135314364Y-73873313D01*
X135294532Y-74099998D01*
X135294532Y-74100001D01*
X135314364Y-74326686D01*
X135314366Y-74326697D01*
X135373258Y-74546488D01*
X135373261Y-74546497D01*
X135469431Y-74752732D01*
X135469432Y-74752734D01*
X135599954Y-74939141D01*
X135673132Y-75012319D01*
X135706617Y-75073642D01*
X135701633Y-75143334D01*
X135673132Y-75187681D01*
X135599954Y-75260858D01*
X135469432Y-75447265D01*
X135469431Y-75447267D01*
X135373261Y-75653502D01*
X135373258Y-75653511D01*
X135314366Y-75873302D01*
X135314364Y-75873313D01*
X135294532Y-76099998D01*
X135294532Y-76100001D01*
X124000000Y-76100001D01*
X124000000Y-69000787D01*
X124000005Y-69000002D01*
X124695153Y-69000002D01*
X124714526Y-69357314D01*
X124714527Y-69357331D01*
X124772415Y-69710431D01*
X124772421Y-69710457D01*
X124868147Y-70055232D01*
X124868149Y-70055239D01*
X125000597Y-70387659D01*
X125000606Y-70387677D01*
X125168218Y-70703827D01*
X125369024Y-70999994D01*
X125369035Y-71000008D01*
X125496441Y-71150002D01*
X125496442Y-71150002D01*
X126705747Y-69940697D01*
X126779588Y-70042330D01*
X126957670Y-70220412D01*
X127059300Y-70294251D01*
X125847257Y-71506294D01*
X125860495Y-71518836D01*
X126145367Y-71735388D01*
X126145370Y-71735390D01*
X126451990Y-71919876D01*
X126776739Y-72070122D01*
X126776744Y-72070123D01*
X127115855Y-72184383D01*
X127465339Y-72261311D01*
X127821075Y-72299999D01*
X127821085Y-72300000D01*
X128178915Y-72300000D01*
X128178924Y-72299999D01*
X128534660Y-72261311D01*
X128884144Y-72184383D01*
X129223255Y-72070123D01*
X129223260Y-72070122D01*
X129548009Y-71919876D01*
X129854629Y-71735390D01*
X129854632Y-71735388D01*
X130139509Y-71518831D01*
X130152742Y-71506295D01*
X130152742Y-71506294D01*
X128940699Y-70294251D01*
X129042330Y-70220412D01*
X129220412Y-70042330D01*
X129294251Y-69940698D01*
X130503556Y-71150002D01*
X130630972Y-70999998D01*
X130630975Y-70999994D01*
X130831781Y-70703827D01*
X130999393Y-70387677D01*
X130999402Y-70387659D01*
X131131850Y-70055239D01*
X131131852Y-70055232D01*
X131227578Y-69710457D01*
X131227584Y-69710431D01*
X131285472Y-69357331D01*
X131285473Y-69357314D01*
X131304847Y-69000002D01*
X131304847Y-69000001D01*
X135249500Y-69000001D01*
X135249501Y-69000018D01*
X135260000Y-69102796D01*
X135260001Y-69102799D01*
X135315185Y-69269331D01*
X135315187Y-69269336D01*
X135336950Y-69304620D01*
X135407288Y-69418656D01*
X135531344Y-69542712D01*
X135680666Y-69634814D01*
X135847203Y-69689999D01*
X135949991Y-69700500D01*
X137250008Y-69700499D01*
X137352797Y-69689999D01*
X137519334Y-69634814D01*
X137668656Y-69542712D01*
X137792712Y-69418656D01*
X137884814Y-69269334D01*
X137884814Y-69269331D01*
X137888448Y-69263441D01*
X137940395Y-69216716D01*
X138009358Y-69205493D01*
X138073440Y-69233336D01*
X138081668Y-69240856D01*
X138220535Y-69379723D01*
X138220540Y-69379727D01*
X138392442Y-69504620D01*
X138581782Y-69601095D01*
X138783871Y-69666757D01*
X138850000Y-69677231D01*
X138850000Y-68633012D01*
X138907007Y-68665925D01*
X139034174Y-68700000D01*
X139165826Y-68700000D01*
X139292993Y-68665925D01*
X139350000Y-68633012D01*
X139350000Y-69677230D01*
X139416126Y-69666757D01*
X139416129Y-69666757D01*
X139618217Y-69601095D01*
X139807557Y-69504620D01*
X139979459Y-69379727D01*
X139979464Y-69379723D01*
X140129723Y-69229464D01*
X140129727Y-69229459D01*
X140254620Y-69057557D01*
X140351095Y-68868217D01*
X140373260Y-68800001D01*
X146149500Y-68800001D01*
X146149501Y-68800018D01*
X146160000Y-68902796D01*
X146160001Y-68902799D01*
X146194031Y-69005493D01*
X146215186Y-69069334D01*
X146307288Y-69218656D01*
X146431344Y-69342712D01*
X146580666Y-69434814D01*
X146747203Y-69489999D01*
X146849991Y-69500500D01*
X148150008Y-69500499D01*
X148252797Y-69489999D01*
X148419334Y-69434814D01*
X148568656Y-69342712D01*
X148692712Y-69218656D01*
X148784814Y-69069334D01*
X148784814Y-69069331D01*
X148788448Y-69063441D01*
X148840395Y-69016716D01*
X148909358Y-69005493D01*
X148973440Y-69033336D01*
X148981668Y-69040856D01*
X149120535Y-69179723D01*
X149120540Y-69179727D01*
X149292442Y-69304620D01*
X149481782Y-69401095D01*
X149683871Y-69466757D01*
X149750000Y-69477231D01*
X149750000Y-68433012D01*
X149807007Y-68465925D01*
X149934174Y-68500000D01*
X150065826Y-68500000D01*
X150192993Y-68465925D01*
X150250000Y-68433012D01*
X150250000Y-69477230D01*
X150316126Y-69466757D01*
X150316129Y-69466757D01*
X150518217Y-69401095D01*
X150707557Y-69304620D01*
X150724444Y-69292351D01*
X162889500Y-69292351D01*
X162921522Y-69494534D01*
X162984781Y-69689223D01*
X163077715Y-69871613D01*
X163198028Y-70037213D01*
X163342786Y-70181971D01*
X163497749Y-70294556D01*
X163508390Y-70302287D01*
X163624607Y-70361503D01*
X163690776Y-70395218D01*
X163690778Y-70395218D01*
X163690781Y-70395220D01*
X163795137Y-70429127D01*
X163885465Y-70458477D01*
X163986557Y-70474488D01*
X164087648Y-70490500D01*
X164087649Y-70490500D01*
X164292351Y-70490500D01*
X164292352Y-70490500D01*
X164494534Y-70458477D01*
X164689219Y-70395220D01*
X164871610Y-70302287D01*
X164984302Y-70220412D01*
X165037213Y-70181971D01*
X165037215Y-70181968D01*
X165037219Y-70181966D01*
X165181966Y-70037219D01*
X165181968Y-70037215D01*
X165181971Y-70037213D01*
X165234732Y-69964590D01*
X165302287Y-69871610D01*
X165395220Y-69689219D01*
X165458477Y-69494534D01*
X165490500Y-69292352D01*
X165490500Y-69087648D01*
X165476502Y-68999267D01*
X165458477Y-68885465D01*
X165395218Y-68690776D01*
X165349015Y-68600099D01*
X165302287Y-68508390D01*
X165271584Y-68466130D01*
X165181971Y-68342786D01*
X165037213Y-68198028D01*
X164871613Y-68077715D01*
X164871612Y-68077714D01*
X164871610Y-68077713D01*
X164814653Y-68048691D01*
X164689223Y-67984781D01*
X164494534Y-67921522D01*
X164319995Y-67893878D01*
X164292352Y-67889500D01*
X164087648Y-67889500D01*
X164063329Y-67893351D01*
X163885465Y-67921522D01*
X163690776Y-67984781D01*
X163508386Y-68077715D01*
X163342786Y-68198028D01*
X163198028Y-68342786D01*
X163077715Y-68508386D01*
X162984781Y-68690776D01*
X162921522Y-68885465D01*
X162889500Y-69087648D01*
X162889500Y-69292351D01*
X150724444Y-69292351D01*
X150879459Y-69179727D01*
X150879464Y-69179723D01*
X151029723Y-69029464D01*
X151029727Y-69029459D01*
X151154620Y-68857557D01*
X151251095Y-68668217D01*
X151316757Y-68466130D01*
X151316757Y-68466127D01*
X151350000Y-68256246D01*
X151350000Y-68250000D01*
X150433012Y-68250000D01*
X150465925Y-68192993D01*
X150500000Y-68065826D01*
X150500000Y-67934174D01*
X150465925Y-67807007D01*
X150433012Y-67750000D01*
X151350000Y-67750000D01*
X151350000Y-67743753D01*
X151316757Y-67533872D01*
X151316757Y-67533869D01*
X151251095Y-67331782D01*
X151224711Y-67280001D01*
X165994891Y-67280001D01*
X166015300Y-67565362D01*
X166076109Y-67844895D01*
X166176091Y-68112958D01*
X166313191Y-68364038D01*
X166313196Y-68364046D01*
X166419882Y-68506561D01*
X166419883Y-68506562D01*
X167435387Y-67491058D01*
X167440889Y-67511591D01*
X167519881Y-67648408D01*
X167631592Y-67760119D01*
X167768409Y-67839111D01*
X167788940Y-67844612D01*
X166773436Y-68860115D01*
X166915960Y-68966807D01*
X166915961Y-68966808D01*
X167167042Y-69103908D01*
X167167041Y-69103908D01*
X167435104Y-69203890D01*
X167714637Y-69264699D01*
X167999999Y-69285109D01*
X168000001Y-69285109D01*
X168285362Y-69264699D01*
X168564895Y-69203890D01*
X168832958Y-69103908D01*
X169023248Y-69000002D01*
X176695153Y-69000002D01*
X176714526Y-69357314D01*
X176714527Y-69357331D01*
X176772415Y-69710431D01*
X176772421Y-69710457D01*
X176868147Y-70055232D01*
X176868149Y-70055239D01*
X177000597Y-70387659D01*
X177000606Y-70387677D01*
X177168218Y-70703827D01*
X177369024Y-70999994D01*
X177369035Y-71000008D01*
X177496441Y-71150002D01*
X177496442Y-71150002D01*
X178705747Y-69940697D01*
X178779588Y-70042330D01*
X178957670Y-70220412D01*
X179059300Y-70294251D01*
X177847257Y-71506294D01*
X177860495Y-71518836D01*
X178145367Y-71735388D01*
X178145370Y-71735390D01*
X178451990Y-71919876D01*
X178776739Y-72070122D01*
X178776744Y-72070123D01*
X179115855Y-72184383D01*
X179465339Y-72261311D01*
X179821075Y-72299999D01*
X179821085Y-72300000D01*
X180178915Y-72300000D01*
X180178924Y-72299999D01*
X180534660Y-72261311D01*
X180884144Y-72184383D01*
X181223255Y-72070123D01*
X181223260Y-72070122D01*
X181548009Y-71919876D01*
X181854629Y-71735390D01*
X181854632Y-71735388D01*
X182139509Y-71518831D01*
X182152742Y-71506295D01*
X182152742Y-71506294D01*
X180940699Y-70294251D01*
X181042330Y-70220412D01*
X181220412Y-70042330D01*
X181294251Y-69940698D01*
X182503556Y-71150002D01*
X182630972Y-70999998D01*
X182630975Y-70999994D01*
X182831781Y-70703827D01*
X182999393Y-70387677D01*
X182999402Y-70387659D01*
X183131850Y-70055239D01*
X183131852Y-70055232D01*
X183227578Y-69710457D01*
X183227584Y-69710431D01*
X183285472Y-69357331D01*
X183285473Y-69357314D01*
X183304847Y-69000002D01*
X183304847Y-68999997D01*
X183285473Y-68642685D01*
X183285472Y-68642668D01*
X183227584Y-68289568D01*
X183227578Y-68289542D01*
X183131852Y-67944767D01*
X183131850Y-67944760D01*
X182999402Y-67612340D01*
X182999393Y-67612322D01*
X182831781Y-67296172D01*
X182630975Y-67000005D01*
X182630964Y-66999991D01*
X182503556Y-66849996D01*
X181294251Y-68059300D01*
X181220412Y-67957670D01*
X181042330Y-67779588D01*
X180940698Y-67705748D01*
X182152741Y-66493704D01*
X182139504Y-66481163D01*
X181854632Y-66264611D01*
X181854629Y-66264609D01*
X181548009Y-66080123D01*
X181223260Y-65929877D01*
X181223255Y-65929876D01*
X180884144Y-65815616D01*
X180534660Y-65738688D01*
X180178924Y-65700000D01*
X179821075Y-65700000D01*
X179465339Y-65738688D01*
X179115855Y-65815616D01*
X178776744Y-65929876D01*
X178776739Y-65929877D01*
X178451990Y-66080123D01*
X178145370Y-66264609D01*
X178145367Y-66264611D01*
X177860486Y-66481170D01*
X177860485Y-66481171D01*
X177847257Y-66493702D01*
X177847256Y-66493703D01*
X179059301Y-67705748D01*
X178957670Y-67779588D01*
X178779588Y-67957670D01*
X178705748Y-68059301D01*
X177496442Y-66849995D01*
X177496441Y-66849996D01*
X177369033Y-66999992D01*
X177168218Y-67296172D01*
X177000606Y-67612322D01*
X177000597Y-67612340D01*
X176868149Y-67944760D01*
X176868147Y-67944767D01*
X176772421Y-68289542D01*
X176772415Y-68289568D01*
X176714527Y-68642668D01*
X176714526Y-68642685D01*
X176695153Y-68999997D01*
X176695153Y-69000002D01*
X169023248Y-69000002D01*
X169084047Y-68966803D01*
X169226561Y-68860116D01*
X169226562Y-68860115D01*
X168211060Y-67844612D01*
X168231591Y-67839111D01*
X168368408Y-67760119D01*
X168480119Y-67648408D01*
X168559111Y-67511591D01*
X168564612Y-67491059D01*
X169580115Y-68506562D01*
X169580116Y-68506561D01*
X169686803Y-68364047D01*
X169823908Y-68112958D01*
X169923890Y-67844895D01*
X169984699Y-67565362D01*
X170005109Y-67280001D01*
X170005109Y-67279998D01*
X169984699Y-66994637D01*
X169923890Y-66715104D01*
X169823908Y-66447041D01*
X169686808Y-66195961D01*
X169686807Y-66195960D01*
X169580115Y-66053436D01*
X168564612Y-67068939D01*
X168559111Y-67048409D01*
X168480119Y-66911592D01*
X168368408Y-66799881D01*
X168231591Y-66720889D01*
X168211059Y-66715387D01*
X169226562Y-65699883D01*
X169226561Y-65699882D01*
X169084046Y-65593196D01*
X169084038Y-65593191D01*
X168832957Y-65456091D01*
X168832958Y-65456091D01*
X168564895Y-65356109D01*
X168285362Y-65295300D01*
X168000001Y-65274891D01*
X167999999Y-65274891D01*
X167714637Y-65295300D01*
X167435104Y-65356109D01*
X167167041Y-65456091D01*
X166915961Y-65593191D01*
X166915953Y-65593196D01*
X166773437Y-65699882D01*
X166773436Y-65699883D01*
X167788941Y-66715387D01*
X167768409Y-66720889D01*
X167631592Y-66799881D01*
X167519881Y-66911592D01*
X167440889Y-67048409D01*
X167435387Y-67068940D01*
X166419883Y-66053436D01*
X166419882Y-66053437D01*
X166313196Y-66195953D01*
X166313191Y-66195961D01*
X166176091Y-66447041D01*
X166076109Y-66715104D01*
X166015300Y-66994637D01*
X165994891Y-67279998D01*
X165994891Y-67280001D01*
X151224711Y-67280001D01*
X151154620Y-67142442D01*
X151029727Y-66970540D01*
X151029723Y-66970535D01*
X150879464Y-66820276D01*
X150879459Y-66820272D01*
X150707557Y-66695379D01*
X150518215Y-66598903D01*
X150316124Y-66533241D01*
X150250000Y-66522768D01*
X150250000Y-67566988D01*
X150192993Y-67534075D01*
X150065826Y-67500000D01*
X149934174Y-67500000D01*
X149807007Y-67534075D01*
X149750000Y-67566988D01*
X149750000Y-66522768D01*
X149749999Y-66522768D01*
X149683875Y-66533241D01*
X149481784Y-66598903D01*
X149292442Y-66695379D01*
X149120541Y-66820271D01*
X148981668Y-66959144D01*
X148920345Y-66992628D01*
X148850653Y-66987644D01*
X148794720Y-66945772D01*
X148788448Y-66936558D01*
X148692712Y-66781344D01*
X148568657Y-66657289D01*
X148568656Y-66657288D01*
X148419334Y-66565186D01*
X148252797Y-66510001D01*
X148252795Y-66510000D01*
X148150010Y-66499500D01*
X146849998Y-66499500D01*
X146849981Y-66499501D01*
X146747203Y-66510000D01*
X146747200Y-66510001D01*
X146580668Y-66565185D01*
X146580663Y-66565187D01*
X146431342Y-66657289D01*
X146307289Y-66781342D01*
X146215187Y-66930663D01*
X146215185Y-66930668D01*
X146198393Y-66981344D01*
X146160001Y-67097203D01*
X146160001Y-67097204D01*
X146160000Y-67097204D01*
X146149500Y-67199983D01*
X146149500Y-68800001D01*
X140373260Y-68800001D01*
X140416757Y-68666130D01*
X140416757Y-68666127D01*
X140450000Y-68456246D01*
X140450000Y-68450000D01*
X139533012Y-68450000D01*
X139565925Y-68392993D01*
X139600000Y-68265826D01*
X139600000Y-68134174D01*
X139565925Y-68007007D01*
X139533012Y-67950000D01*
X140450000Y-67950000D01*
X140450000Y-67943753D01*
X140416757Y-67733872D01*
X140416757Y-67733869D01*
X140351095Y-67531782D01*
X140254620Y-67342442D01*
X140129727Y-67170540D01*
X140129723Y-67170535D01*
X139979464Y-67020276D01*
X139979459Y-67020272D01*
X139807557Y-66895379D01*
X139618215Y-66798903D01*
X139416124Y-66733241D01*
X139350000Y-66722768D01*
X139350000Y-67766988D01*
X139292993Y-67734075D01*
X139165826Y-67700000D01*
X139034174Y-67700000D01*
X138907007Y-67734075D01*
X138850000Y-67766988D01*
X138850000Y-66722768D01*
X138849999Y-66722768D01*
X138783875Y-66733241D01*
X138581784Y-66798903D01*
X138392442Y-66895379D01*
X138220541Y-67020271D01*
X138081668Y-67159144D01*
X138020345Y-67192628D01*
X137950653Y-67187644D01*
X137894720Y-67145772D01*
X137888448Y-67136558D01*
X137864174Y-67097204D01*
X137792712Y-66981344D01*
X137668656Y-66857288D01*
X137573998Y-66798903D01*
X137519336Y-66765187D01*
X137519331Y-66765185D01*
X137517862Y-66764698D01*
X137352797Y-66710001D01*
X137352795Y-66710000D01*
X137250010Y-66699500D01*
X135949998Y-66699500D01*
X135949981Y-66699501D01*
X135847203Y-66710000D01*
X135847200Y-66710001D01*
X135680668Y-66765185D01*
X135680663Y-66765187D01*
X135531342Y-66857289D01*
X135407289Y-66981342D01*
X135315187Y-67130663D01*
X135315185Y-67130668D01*
X135311284Y-67142442D01*
X135260001Y-67297203D01*
X135260001Y-67297204D01*
X135260000Y-67297204D01*
X135249500Y-67399983D01*
X135249500Y-69000001D01*
X131304847Y-69000001D01*
X131304847Y-68999997D01*
X131285473Y-68642685D01*
X131285472Y-68642668D01*
X131227584Y-68289568D01*
X131227578Y-68289542D01*
X131131852Y-67944767D01*
X131131850Y-67944760D01*
X130999402Y-67612340D01*
X130999393Y-67612322D01*
X130831781Y-67296172D01*
X130630975Y-67000005D01*
X130630964Y-66999991D01*
X130503556Y-66849996D01*
X129294251Y-68059300D01*
X129220412Y-67957670D01*
X129042330Y-67779588D01*
X128940698Y-67705748D01*
X130152742Y-66493704D01*
X130139504Y-66481163D01*
X129854632Y-66264611D01*
X129854629Y-66264609D01*
X129548009Y-66080123D01*
X129223260Y-65929877D01*
X129223255Y-65929876D01*
X128884144Y-65815616D01*
X128534660Y-65738688D01*
X128178924Y-65700000D01*
X127821075Y-65700000D01*
X127465339Y-65738688D01*
X127115855Y-65815616D01*
X126776744Y-65929876D01*
X126776739Y-65929877D01*
X126451990Y-66080123D01*
X126145370Y-66264609D01*
X126145367Y-66264611D01*
X125860486Y-66481170D01*
X125860485Y-66481171D01*
X125847257Y-66493702D01*
X125847256Y-66493703D01*
X127059301Y-67705748D01*
X126957670Y-67779588D01*
X126779588Y-67957670D01*
X126705748Y-68059301D01*
X125496442Y-66849995D01*
X125496441Y-66849996D01*
X125369033Y-66999992D01*
X125168218Y-67296172D01*
X125000606Y-67612322D01*
X125000597Y-67612340D01*
X124868149Y-67944760D01*
X124868147Y-67944767D01*
X124772421Y-68289542D01*
X124772415Y-68289568D01*
X124714527Y-68642668D01*
X124714526Y-68642685D01*
X124695153Y-68999997D01*
X124695153Y-69000002D01*
X124000005Y-69000002D01*
X124000009Y-68999267D01*
X124001405Y-68885465D01*
X124002343Y-68808922D01*
X124002930Y-68798320D01*
X124040312Y-68418772D01*
X124042097Y-68406744D01*
X124050591Y-68364046D01*
X124116346Y-68033468D01*
X124119301Y-68021670D01*
X124130492Y-67984781D01*
X124229787Y-67657447D01*
X124233885Y-67645997D01*
X124379535Y-67294363D01*
X124384730Y-67283380D01*
X124564152Y-66947708D01*
X124570390Y-66937300D01*
X124781852Y-66620825D01*
X124789091Y-66611064D01*
X125030555Y-66316838D01*
X125038707Y-66307844D01*
X125307844Y-66038707D01*
X125316838Y-66030555D01*
X125611064Y-65789091D01*
X125620825Y-65781852D01*
X125937300Y-65570390D01*
X125947708Y-65564152D01*
X126283380Y-65384730D01*
X126294363Y-65379535D01*
X126646004Y-65233882D01*
X126657447Y-65229787D01*
X127021677Y-65119299D01*
X127033468Y-65116346D01*
X127406753Y-65042095D01*
X127418772Y-65040312D01*
X127798320Y-65002930D01*
X127808922Y-65002343D01*
X127996784Y-65000039D01*
X127999267Y-65000009D01*
X128000787Y-65000000D01*
X179999213Y-65000000D01*
X180000733Y-65000008D01*
G37*
%TD.AperFunction*%
%TD*%
M02*
