%TF.GenerationSoftware,KiCad,Pcbnew,8.0.1-8.0.1-1~ubuntu22.04.1*%
%TF.CreationDate,2024-05-06T17:23:11+02:00*%
%TF.ProjectId,Pojet 1A,506f6a65-7420-4314-912e-6b696361645f,rev?*%
%TF.SameCoordinates,Original*%
%TF.FileFunction,Soldermask,Top*%
%TF.FilePolarity,Negative*%
%FSLAX46Y46*%
G04 Gerber Fmt 4.6, Leading zero omitted, Abs format (unit mm)*
G04 Created by KiCad (PCBNEW 8.0.1-8.0.1-1~ubuntu22.04.1) date 2024-05-06 17:23:11*
%MOMM*%
%LPD*%
G01*
G04 APERTURE LIST*
G04 Aperture macros list*
%AMRoundRect*
0 Rectangle with rounded corners*
0 $1 Rounding radius*
0 $2 $3 $4 $5 $6 $7 $8 $9 X,Y pos of 4 corners*
0 Add a 4 corners polygon primitive as box body*
4,1,4,$2,$3,$4,$5,$6,$7,$8,$9,$2,$3,0*
0 Add four circle primitives for the rounded corners*
1,1,$1+$1,$2,$3*
1,1,$1+$1,$4,$5*
1,1,$1+$1,$6,$7*
1,1,$1+$1,$8,$9*
0 Add four rect primitives between the rounded corners*
20,1,$1+$1,$2,$3,$4,$5,0*
20,1,$1+$1,$4,$5,$6,$7,0*
20,1,$1+$1,$6,$7,$8,$9,0*
20,1,$1+$1,$8,$9,$2,$3,0*%
G04 Aperture macros list end*
%ADD10RoundRect,0.155000X0.155000X-0.212500X0.155000X0.212500X-0.155000X0.212500X-0.155000X-0.212500X0*%
%ADD11RoundRect,0.150000X0.150000X-0.587500X0.150000X0.587500X-0.150000X0.587500X-0.150000X-0.587500X0*%
%ADD12RoundRect,0.050000X0.375000X0.050000X-0.375000X0.050000X-0.375000X-0.050000X0.375000X-0.050000X0*%
%ADD13RoundRect,0.050000X0.050000X0.375000X-0.050000X0.375000X-0.050000X-0.375000X0.050000X-0.375000X0*%
%ADD14R,1.650000X1.650000*%
%ADD15RoundRect,0.150000X-0.825000X-0.150000X0.825000X-0.150000X0.825000X0.150000X-0.825000X0.150000X0*%
%ADD16RoundRect,0.237500X-0.300000X-0.237500X0.300000X-0.237500X0.300000X0.237500X-0.300000X0.237500X0*%
%ADD17R,3.600000X1.150000*%
%ADD18RoundRect,0.237500X-0.237500X0.250000X-0.237500X-0.250000X0.237500X-0.250000X0.237500X0.250000X0*%
%ADD19RoundRect,0.237500X0.250000X0.237500X-0.250000X0.237500X-0.250000X-0.237500X0.250000X-0.237500X0*%
%ADD20RoundRect,0.155000X0.212500X0.155000X-0.212500X0.155000X-0.212500X-0.155000X0.212500X-0.155000X0*%
%ADD21RoundRect,0.155000X-0.155000X0.212500X-0.155000X-0.212500X0.155000X-0.212500X0.155000X0.212500X0*%
%ADD22RoundRect,0.237500X-0.237500X0.300000X-0.237500X-0.300000X0.237500X-0.300000X0.237500X0.300000X0*%
%ADD23R,1.700000X1.700000*%
%ADD24O,1.700000X1.700000*%
%ADD25C,1.600000*%
%ADD26R,2.200000X2.200000*%
%ADD27O,2.200000X2.200000*%
%ADD28RoundRect,0.075000X-0.075000X0.662500X-0.075000X-0.662500X0.075000X-0.662500X0.075000X0.662500X0*%
%ADD29RoundRect,0.075000X-0.662500X0.075000X-0.662500X-0.075000X0.662500X-0.075000X0.662500X0.075000X0*%
%ADD30C,5.600000*%
%ADD31RoundRect,0.237500X0.300000X0.237500X-0.300000X0.237500X-0.300000X-0.237500X0.300000X-0.237500X0*%
%ADD32RoundRect,0.150000X-0.150000X0.512500X-0.150000X-0.512500X0.150000X-0.512500X0.150000X0.512500X0*%
%ADD33RoundRect,0.237500X-0.287500X-0.237500X0.287500X-0.237500X0.287500X0.237500X-0.287500X0.237500X0*%
%ADD34RoundRect,0.250000X-0.600000X-0.750000X0.600000X-0.750000X0.600000X0.750000X-0.600000X0.750000X0*%
%ADD35O,1.700000X2.000000*%
%ADD36RoundRect,0.237500X0.237500X-0.250000X0.237500X0.250000X-0.237500X0.250000X-0.237500X-0.250000X0*%
%ADD37R,0.740000X2.400000*%
%ADD38RoundRect,0.225000X-0.375000X0.225000X-0.375000X-0.225000X0.375000X-0.225000X0.375000X0.225000X0*%
%ADD39C,2.100000*%
%ADD40C,3.400000*%
%ADD41C,3.000000*%
%ADD42R,1.800000X1.800000*%
%ADD43C,1.800000*%
%ADD44C,0.660000*%
%ADD45O,1.000000X0.580000*%
%ADD46C,1.100000*%
G04 APERTURE END LIST*
D10*
%TO.C,C25*%
X131500000Y-76167500D03*
X131500000Y-75032500D03*
%TD*%
D11*
%TO.C,Q2*%
X173300000Y-98625000D03*
X175200000Y-98625000D03*
X174250000Y-96750000D03*
%TD*%
D12*
%TO.C,U5*%
X161900000Y-96600000D03*
X161900000Y-96200000D03*
X161900000Y-95800000D03*
X161900000Y-95400000D03*
X161900000Y-95000000D03*
D13*
X161250000Y-94350000D03*
X160850000Y-94350000D03*
X160450000Y-94350000D03*
X160050000Y-94350000D03*
X159650000Y-94350000D03*
D12*
X159000000Y-95000000D03*
X159000000Y-95400000D03*
X159000000Y-95800000D03*
X159000000Y-96200000D03*
X159000000Y-96600000D03*
D13*
X159650000Y-97250000D03*
X160050000Y-97250000D03*
X160450000Y-97250000D03*
X160850000Y-97250000D03*
X161250000Y-97250000D03*
D14*
X160450000Y-95800000D03*
%TD*%
D15*
%TO.C,UCC27325DR2*%
X144625000Y-85795000D03*
X144625000Y-87065000D03*
X144625000Y-88335000D03*
X144625000Y-89605000D03*
X149575000Y-89605000D03*
X149575000Y-88335000D03*
X149575000Y-87065000D03*
X149575000Y-85795000D03*
%TD*%
D16*
%TO.C,C20*%
X162537500Y-83900000D03*
X164262500Y-83900000D03*
%TD*%
D17*
%TO.C,L4*%
X127900000Y-79150000D03*
X127900000Y-76200000D03*
%TD*%
D11*
%TO.C,Q4*%
X138050000Y-81937500D03*
X139950000Y-81937500D03*
X139000000Y-80062500D03*
%TD*%
D18*
%TO.C,R12*%
X180500000Y-99487500D03*
X180500000Y-101312500D03*
%TD*%
D19*
%TO.C,R15*%
X136912500Y-83900000D03*
X135087500Y-83900000D03*
%TD*%
D20*
%TO.C,C13*%
X149467500Y-93100000D03*
X148332500Y-93100000D03*
%TD*%
D21*
%TO.C,C36*%
X163900000Y-93832500D03*
X163900000Y-94967500D03*
%TD*%
D11*
%TO.C,Q5*%
X145050000Y-81937500D03*
X146950000Y-81937500D03*
X146000000Y-80062500D03*
%TD*%
D19*
%TO.C,R18*%
X148712500Y-83900000D03*
X146887500Y-83900000D03*
%TD*%
D22*
%TO.C,C16*%
X153600000Y-86537500D03*
X153600000Y-88262500D03*
%TD*%
D23*
%TO.C,J5*%
X181700000Y-80200000D03*
D24*
X181700000Y-82740000D03*
X181700000Y-85280000D03*
X181700000Y-87820000D03*
X181700000Y-90360000D03*
%TD*%
D20*
%TO.C,C27*%
X153667500Y-105200000D03*
X152532500Y-105200000D03*
%TD*%
D25*
%TO.C,C28*%
X147500000Y-75900000D03*
X147500000Y-73900000D03*
%TD*%
D26*
%TO.C,D1*%
X135000000Y-112920000D03*
D27*
X135000000Y-123080000D03*
%TD*%
D21*
%TO.C,C40*%
X141500000Y-102932500D03*
X141500000Y-104067500D03*
%TD*%
D10*
%TO.C,C38*%
X161800000Y-99667500D03*
X161800000Y-98532500D03*
%TD*%
D25*
%TO.C,C32*%
X136600000Y-76100000D03*
X136600000Y-74100000D03*
%TD*%
D19*
%TO.C,R17*%
X157112500Y-92000000D03*
X155287500Y-92000000D03*
%TD*%
D15*
%TO.C,UCC27325DR1*%
X134525000Y-86095000D03*
X134525000Y-87365000D03*
X134525000Y-88635000D03*
X134525000Y-89905000D03*
X139475000Y-89905000D03*
X139475000Y-88635000D03*
X139475000Y-87365000D03*
X139475000Y-86095000D03*
%TD*%
D10*
%TO.C,C39*%
X163200000Y-97367500D03*
X163200000Y-96232500D03*
%TD*%
D16*
%TO.C,C9*%
X137437500Y-92000000D03*
X139162500Y-92000000D03*
%TD*%
D21*
%TO.C,C31*%
X152900000Y-95032500D03*
X152900000Y-96167500D03*
%TD*%
D17*
%TO.C,L2*%
X157000000Y-78675000D03*
X157000000Y-75725000D03*
%TD*%
D28*
%TO.C,U1*%
X150850000Y-95837500D03*
X150350000Y-95837500D03*
X149850000Y-95837500D03*
X149350000Y-95837500D03*
X148850000Y-95837500D03*
X148350000Y-95837500D03*
X147850000Y-95837500D03*
X147350000Y-95837500D03*
X146850000Y-95837500D03*
X146350000Y-95837500D03*
X145850000Y-95837500D03*
X145350000Y-95837500D03*
D29*
X143937500Y-97250000D03*
X143937500Y-97750000D03*
X143937500Y-98250000D03*
X143937500Y-98750000D03*
X143937500Y-99250000D03*
X143937500Y-99750000D03*
X143937500Y-100250000D03*
X143937500Y-100750000D03*
X143937500Y-101250000D03*
X143937500Y-101750000D03*
X143937500Y-102250000D03*
X143937500Y-102750000D03*
D28*
X145350000Y-104162500D03*
X145850000Y-104162500D03*
X146350000Y-104162500D03*
X146850000Y-104162500D03*
X147350000Y-104162500D03*
X147850000Y-104162500D03*
X148350000Y-104162500D03*
X148850000Y-104162500D03*
X149350000Y-104162500D03*
X149850000Y-104162500D03*
X150350000Y-104162500D03*
X150850000Y-104162500D03*
D29*
X152262500Y-102750000D03*
X152262500Y-102250000D03*
X152262500Y-101750000D03*
X152262500Y-101250000D03*
X152262500Y-100750000D03*
X152262500Y-100250000D03*
X152262500Y-99750000D03*
X152262500Y-99250000D03*
X152262500Y-98750000D03*
X152262500Y-98250000D03*
X152262500Y-97750000D03*
X152262500Y-97250000D03*
%TD*%
D30*
%TO.C,H2*%
X128000000Y-121000000D03*
%TD*%
D31*
%TO.C,C10*%
X144462500Y-92000000D03*
X142737500Y-92000000D03*
%TD*%
D18*
%TO.C,R14*%
X180200000Y-94887500D03*
X180200000Y-96712500D03*
%TD*%
D10*
%TO.C,C30*%
X141200000Y-101067500D03*
X141200000Y-99932500D03*
%TD*%
D32*
%TO.C,BU33SD5WG-TR3*%
X162450000Y-85862500D03*
X161500000Y-85862500D03*
X160550000Y-85862500D03*
X160550000Y-88137500D03*
X162450000Y-88137500D03*
%TD*%
D33*
%TO.C,L3*%
X158836000Y-83352000D03*
X160586000Y-83352000D03*
%TD*%
D34*
%TO.C,J3*%
X136600000Y-68200000D03*
D35*
X139100000Y-68200000D03*
%TD*%
D30*
%TO.C,H1*%
X180000000Y-121000000D03*
%TD*%
D36*
%TO.C,R16*%
X142100000Y-84412500D03*
X142100000Y-82587500D03*
%TD*%
D22*
%TO.C,C41*%
X140200000Y-103037500D03*
X140200000Y-104762500D03*
%TD*%
D16*
%TO.C,C29*%
X137037500Y-99500000D03*
X138762500Y-99500000D03*
%TD*%
D10*
%TO.C,C37*%
X157700000Y-94867500D03*
X157700000Y-93732500D03*
%TD*%
%TO.C,C24*%
X153500000Y-75900000D03*
X153500000Y-74765000D03*
%TD*%
D11*
%TO.C,Q3*%
X133050000Y-81937500D03*
X134950000Y-81937500D03*
X134000000Y-80062500D03*
%TD*%
D37*
%TO.C,J9*%
X159290000Y-108200000D03*
X159290000Y-104300000D03*
X160560000Y-108200000D03*
X160560000Y-104300000D03*
X161830000Y-108200000D03*
X161830000Y-104300000D03*
X163100000Y-108200000D03*
X163100000Y-104300000D03*
X164370000Y-108200000D03*
X164370000Y-104300000D03*
X165640000Y-108200000D03*
X165640000Y-104300000D03*
X166910000Y-108200000D03*
X166910000Y-104300000D03*
%TD*%
D30*
%TO.C,H4*%
X128000000Y-69000000D03*
%TD*%
D10*
%TO.C,C26*%
X143600000Y-105367500D03*
X143600000Y-104232500D03*
%TD*%
D26*
%TO.C,D3*%
X150380000Y-114700000D03*
D27*
X140220000Y-114700000D03*
%TD*%
D23*
%TO.C,J6*%
X126300000Y-85840000D03*
D24*
X126300000Y-88380000D03*
X126300000Y-90920000D03*
X126300000Y-93460000D03*
X126300000Y-96000000D03*
X126300000Y-98540000D03*
X126300000Y-101080000D03*
X126300000Y-103620000D03*
X126300000Y-106160000D03*
X126300000Y-108700000D03*
%TD*%
D34*
%TO.C,J2*%
X147500000Y-68000000D03*
D35*
X150000000Y-68000000D03*
%TD*%
D19*
%TO.C,R19*%
X155812500Y-82000000D03*
X153987500Y-82000000D03*
%TD*%
D22*
%TO.C,C11*%
X152600000Y-91237500D03*
X152600000Y-92962500D03*
%TD*%
D34*
%TO.C,J4*%
X170250000Y-120375000D03*
D35*
X172750000Y-120375000D03*
%TD*%
D23*
%TO.C,J8*%
X154420000Y-122800000D03*
D24*
X156960000Y-122800000D03*
X159500000Y-122800000D03*
X162040000Y-122800000D03*
X164580000Y-122800000D03*
%TD*%
D11*
%TO.C,Q6*%
X150250000Y-81937500D03*
X152150000Y-81937500D03*
X151200000Y-80062500D03*
%TD*%
D22*
%TO.C,C17*%
X155500000Y-86300000D03*
X155500000Y-88025000D03*
%TD*%
D31*
%TO.C,C12*%
X149562500Y-91900000D03*
X147837500Y-91900000D03*
%TD*%
D16*
%TO.C,C23*%
X164437500Y-88300000D03*
X166162500Y-88300000D03*
%TD*%
D38*
%TO.C,D4*%
X177750000Y-96850000D03*
X177750000Y-100150000D03*
%TD*%
D30*
%TO.C,H3*%
X180000000Y-69000000D03*
%TD*%
D25*
%TO.C,J7*%
X171180000Y-79350000D03*
D39*
X164190000Y-69190000D03*
D40*
X162920000Y-73000000D03*
X173080000Y-73000000D03*
D41*
X168000000Y-67280000D03*
%TD*%
D42*
%TO.C,D2*%
X176760000Y-108000000D03*
D43*
X179300000Y-108000000D03*
%TD*%
D44*
%TO.C,J1*%
X141850000Y-121150000D03*
D45*
X149350000Y-121150000D03*
D46*
X143200000Y-119000000D03*
X143200000Y-123300000D03*
X148000000Y-119000000D03*
X148000000Y-123300000D03*
%TD*%
M02*
