%TF.GenerationSoftware,KiCad,Pcbnew,8.0.1-8.0.1-1~ubuntu22.04.1*%
%TF.CreationDate,2024-05-06T17:23:11+02:00*%
%TF.ProjectId,Pojet 1A,506f6a65-7420-4314-912e-6b696361645f,rev?*%
%TF.SameCoordinates,Original*%
%TF.FileFunction,Soldermask,Bot*%
%TF.FilePolarity,Negative*%
%FSLAX46Y46*%
G04 Gerber Fmt 4.6, Leading zero omitted, Abs format (unit mm)*
G04 Created by KiCad (PCBNEW 8.0.1-8.0.1-1~ubuntu22.04.1) date 2024-05-06 17:23:11*
%MOMM*%
%LPD*%
G01*
G04 APERTURE LIST*
G04 Aperture macros list*
%AMRoundRect*
0 Rectangle with rounded corners*
0 $1 Rounding radius*
0 $2 $3 $4 $5 $6 $7 $8 $9 X,Y pos of 4 corners*
0 Add a 4 corners polygon primitive as box body*
4,1,4,$2,$3,$4,$5,$6,$7,$8,$9,$2,$3,0*
0 Add four circle primitives for the rounded corners*
1,1,$1+$1,$2,$3*
1,1,$1+$1,$4,$5*
1,1,$1+$1,$6,$7*
1,1,$1+$1,$8,$9*
0 Add four rect primitives between the rounded corners*
20,1,$1+$1,$2,$3,$4,$5,0*
20,1,$1+$1,$4,$5,$6,$7,0*
20,1,$1+$1,$6,$7,$8,$9,0*
20,1,$1+$1,$8,$9,$2,$3,0*%
G04 Aperture macros list end*
%ADD10R,1.700000X1.700000*%
%ADD11O,1.700000X1.700000*%
%ADD12C,1.600000*%
%ADD13R,2.200000X2.200000*%
%ADD14O,2.200000X2.200000*%
%ADD15C,5.600000*%
%ADD16RoundRect,0.250000X-0.600000X-0.750000X0.600000X-0.750000X0.600000X0.750000X-0.600000X0.750000X0*%
%ADD17O,1.700000X2.000000*%
%ADD18RoundRect,0.155000X0.212500X0.155000X-0.212500X0.155000X-0.212500X-0.155000X0.212500X-0.155000X0*%
%ADD19RoundRect,0.150000X-0.150000X0.512500X-0.150000X-0.512500X0.150000X-0.512500X0.150000X0.512500X0*%
%ADD20RoundRect,0.155000X-0.212500X-0.155000X0.212500X-0.155000X0.212500X0.155000X-0.212500X0.155000X0*%
%ADD21RoundRect,0.250000X-0.337500X-0.475000X0.337500X-0.475000X0.337500X0.475000X-0.337500X0.475000X0*%
%ADD22RoundRect,0.237500X-0.300000X-0.237500X0.300000X-0.237500X0.300000X0.237500X-0.300000X0.237500X0*%
%ADD23C,2.100000*%
%ADD24C,3.400000*%
%ADD25C,3.000000*%
%ADD26RoundRect,0.062500X0.062500X-0.350000X0.062500X0.350000X-0.062500X0.350000X-0.062500X-0.350000X0*%
%ADD27RoundRect,0.062500X0.350000X-0.062500X0.350000X0.062500X-0.350000X0.062500X-0.350000X-0.062500X0*%
%ADD28R,0.700000X0.700000*%
%ADD29RoundRect,0.150000X-0.150000X0.587500X-0.150000X-0.587500X0.150000X-0.587500X0.150000X0.587500X0*%
%ADD30RoundRect,0.062500X0.312500X0.062500X-0.312500X0.062500X-0.312500X-0.062500X0.312500X-0.062500X0*%
%ADD31RoundRect,0.062500X0.062500X0.312500X-0.062500X0.312500X-0.062500X-0.312500X0.062500X-0.312500X0*%
%ADD32R,1.750000X1.750000*%
%ADD33RoundRect,0.237500X0.237500X-0.250000X0.237500X0.250000X-0.237500X0.250000X-0.237500X-0.250000X0*%
%ADD34RoundRect,0.237500X0.300000X0.237500X-0.300000X0.237500X-0.300000X-0.237500X0.300000X-0.237500X0*%
%ADD35RoundRect,0.237500X-0.250000X-0.237500X0.250000X-0.237500X0.250000X0.237500X-0.250000X0.237500X0*%
%ADD36R,1.800000X1.800000*%
%ADD37C,1.800000*%
%ADD38RoundRect,0.237500X-0.237500X0.250000X-0.237500X-0.250000X0.237500X-0.250000X0.237500X0.250000X0*%
%ADD39RoundRect,0.237500X0.250000X0.237500X-0.250000X0.237500X-0.250000X-0.237500X0.250000X-0.237500X0*%
%ADD40RoundRect,0.237500X0.237500X-0.300000X0.237500X0.300000X-0.237500X0.300000X-0.237500X-0.300000X0*%
%ADD41RoundRect,0.375000X0.375000X-0.625000X0.375000X0.625000X-0.375000X0.625000X-0.375000X-0.625000X0*%
%ADD42RoundRect,0.500000X1.400000X-0.500000X1.400000X0.500000X-1.400000X0.500000X-1.400000X-0.500000X0*%
%ADD43RoundRect,0.237500X-0.237500X0.300000X-0.237500X-0.300000X0.237500X-0.300000X0.237500X0.300000X0*%
%ADD44RoundRect,0.150000X0.150000X-0.512500X0.150000X0.512500X-0.150000X0.512500X-0.150000X-0.512500X0*%
%ADD45C,0.660000*%
%ADD46O,1.000000X0.580000*%
%ADD47R,0.300000X0.850000*%
%ADD48C,1.100000*%
%ADD49RoundRect,0.155000X-0.155000X0.212500X-0.155000X-0.212500X0.155000X-0.212500X0.155000X0.212500X0*%
%ADD50RoundRect,0.237500X0.287500X0.237500X-0.287500X0.237500X-0.287500X-0.237500X0.287500X-0.237500X0*%
G04 APERTURE END LIST*
D10*
%TO.C,J5*%
X181700000Y-80200000D03*
D11*
X181700000Y-82740000D03*
X181700000Y-85280000D03*
X181700000Y-87820000D03*
X181700000Y-90360000D03*
%TD*%
D12*
%TO.C,C28*%
X147500000Y-75900000D03*
X147500000Y-73900000D03*
%TD*%
D13*
%TO.C,D1*%
X135000000Y-112920000D03*
D14*
X135000000Y-123080000D03*
%TD*%
D12*
%TO.C,C32*%
X136600000Y-76100000D03*
X136600000Y-74100000D03*
%TD*%
D15*
%TO.C,H2*%
X128000000Y-121000000D03*
%TD*%
D16*
%TO.C,J3*%
X136600000Y-68200000D03*
D17*
X139100000Y-68200000D03*
%TD*%
D15*
%TO.C,H1*%
X180000000Y-121000000D03*
%TD*%
%TO.C,H4*%
X128000000Y-69000000D03*
%TD*%
D13*
%TO.C,D3*%
X150380000Y-114700000D03*
D14*
X140220000Y-114700000D03*
%TD*%
D10*
%TO.C,J6*%
X126300000Y-85840000D03*
D11*
X126300000Y-88380000D03*
X126300000Y-90920000D03*
X126300000Y-93460000D03*
X126300000Y-96000000D03*
X126300000Y-98540000D03*
X126300000Y-101080000D03*
X126300000Y-103620000D03*
X126300000Y-106160000D03*
X126300000Y-108700000D03*
%TD*%
D16*
%TO.C,J2*%
X147500000Y-68000000D03*
D17*
X150000000Y-68000000D03*
%TD*%
D16*
%TO.C,J4*%
X170250000Y-120375000D03*
D17*
X172750000Y-120375000D03*
%TD*%
D10*
%TO.C,J8*%
X154420000Y-122800000D03*
D11*
X156960000Y-122800000D03*
X159500000Y-122800000D03*
X162040000Y-122800000D03*
X164580000Y-122800000D03*
%TD*%
D15*
%TO.C,H3*%
X180000000Y-69000000D03*
%TD*%
D18*
%TO.C,C34*%
X160167500Y-76600000D03*
X159032500Y-76600000D03*
%TD*%
D19*
%TO.C,BU33SD5WG-TR1*%
X155050000Y-87862500D03*
X156000000Y-87862500D03*
X156950000Y-87862500D03*
X156950000Y-90137500D03*
X155050000Y-90137500D03*
%TD*%
D18*
%TO.C,C33*%
X177367500Y-76700000D03*
X176232500Y-76700000D03*
%TD*%
D20*
%TO.C,C3*%
X169432500Y-107250000D03*
X170567500Y-107250000D03*
%TD*%
D21*
%TO.C,C22*%
X173962500Y-92500000D03*
X176037500Y-92500000D03*
%TD*%
D22*
%TO.C,C18*%
X155037500Y-92200000D03*
X156762500Y-92200000D03*
%TD*%
%TO.C,C19*%
X164437500Y-99400000D03*
X166162500Y-99400000D03*
%TD*%
D12*
%TO.C,J7*%
X171180000Y-79350000D03*
D23*
X164190000Y-69190000D03*
D24*
X162920000Y-73000000D03*
X173080000Y-73000000D03*
D25*
X168000000Y-67280000D03*
%TD*%
D26*
%TO.C,IC1*%
X156250000Y-110250000D03*
X155750000Y-110250000D03*
X155250000Y-110250000D03*
X154750000Y-110250000D03*
D27*
X154537500Y-109537500D03*
X154537500Y-109037500D03*
D26*
X154750000Y-108325000D03*
X155250000Y-108325000D03*
X155750000Y-108325000D03*
X156250000Y-108325000D03*
D27*
X156462500Y-109037500D03*
X156462500Y-109537500D03*
D28*
X155500000Y-109287500D03*
%TD*%
D29*
%TO.C,Q1*%
X152550000Y-113062500D03*
X154450000Y-113062500D03*
X153500000Y-114937500D03*
%TD*%
D30*
%TO.C,BQ25306RTET1*%
X168035000Y-112690000D03*
X168035000Y-113190000D03*
X168035000Y-113690000D03*
X168035000Y-114190000D03*
D31*
X167310000Y-114915000D03*
X166810000Y-114915000D03*
X166310000Y-114915000D03*
X165810000Y-114915000D03*
D30*
X165085000Y-114190000D03*
X165085000Y-113690000D03*
X165085000Y-113190000D03*
X165085000Y-112690000D03*
D31*
X165810000Y-111965000D03*
X166310000Y-111965000D03*
X166810000Y-111965000D03*
X167310000Y-111965000D03*
D32*
X166560000Y-113440000D03*
%TD*%
D33*
%TO.C,R7*%
X171400000Y-113212500D03*
X171400000Y-111387500D03*
%TD*%
D34*
%TO.C,C1*%
X174762500Y-114900000D03*
X173037500Y-114900000D03*
%TD*%
D35*
%TO.C,R6*%
X172987500Y-116700000D03*
X174812500Y-116700000D03*
%TD*%
D34*
%TO.C,C21*%
X171662500Y-92500000D03*
X169937500Y-92500000D03*
%TD*%
D36*
%TO.C,D2*%
X176760000Y-108000000D03*
D37*
X179300000Y-108000000D03*
%TD*%
D38*
%TO.C,R10*%
X169600000Y-114787500D03*
X169600000Y-116612500D03*
%TD*%
D18*
%TO.C,C2*%
X156267500Y-105400000D03*
X155132500Y-105400000D03*
%TD*%
D33*
%TO.C,R1*%
X156300000Y-115912500D03*
X156300000Y-114087500D03*
%TD*%
D20*
%TO.C,C5*%
X158732500Y-107600000D03*
X159867500Y-107600000D03*
%TD*%
D39*
%TO.C,R11*%
X165312500Y-116500000D03*
X163487500Y-116500000D03*
%TD*%
D40*
%TO.C,C15*%
X164400000Y-93262500D03*
X164400000Y-91537500D03*
%TD*%
D41*
%TO.C,U3*%
X176300000Y-90150000D03*
X174000000Y-90150000D03*
D42*
X174000000Y-83850000D03*
D41*
X171700000Y-90150000D03*
%TD*%
D38*
%TO.C,R8*%
X158600000Y-114087500D03*
X158600000Y-115912500D03*
%TD*%
D39*
%TO.C,R2*%
X135912500Y-97000000D03*
X134087500Y-97000000D03*
%TD*%
D43*
%TO.C,C14*%
X159000000Y-86937500D03*
X159000000Y-88662500D03*
%TD*%
D35*
%TO.C,R3*%
X148787500Y-112300000D03*
X150612500Y-112300000D03*
%TD*%
D44*
%TO.C,U4*%
X143550000Y-111537500D03*
X142600000Y-111537500D03*
X141650000Y-111537500D03*
X141650000Y-109262500D03*
X142600000Y-109262500D03*
X143550000Y-109262500D03*
%TD*%
D40*
%TO.C,C7*%
X163500000Y-119862500D03*
X163500000Y-118137500D03*
%TD*%
D45*
%TO.C,J1*%
X141850000Y-121150000D03*
D46*
X149350000Y-121150000D03*
D47*
X142850000Y-121985000D03*
X143350000Y-121985000D03*
X143850000Y-121985000D03*
X144350000Y-121985000D03*
X144850000Y-121985000D03*
X145350000Y-121985000D03*
X145850000Y-121985000D03*
X146350000Y-121985000D03*
X146850000Y-121985000D03*
X147350000Y-121985000D03*
X147850000Y-121985000D03*
X148350000Y-121985000D03*
X148350000Y-120315000D03*
X147850000Y-120315000D03*
X147350000Y-120315000D03*
X146850000Y-120315000D03*
X146350000Y-120315000D03*
X145850000Y-120315000D03*
X145350000Y-120315000D03*
X144850000Y-120315000D03*
X144350000Y-120315000D03*
X143850000Y-120315000D03*
X143350000Y-120315000D03*
X142850000Y-120315000D03*
D48*
X143200000Y-119000000D03*
X143200000Y-123300000D03*
X148000000Y-119000000D03*
X148000000Y-123300000D03*
%TD*%
D38*
%TO.C,R13*%
X161700000Y-114787500D03*
X161700000Y-116612500D03*
%TD*%
D18*
%TO.C,C8*%
X161667500Y-112300000D03*
X160532500Y-112300000D03*
%TD*%
D49*
%TO.C,C4*%
X152600000Y-107432500D03*
X152600000Y-108567500D03*
%TD*%
D19*
%TO.C,BU33SD5WG-TR2*%
X164350000Y-95262500D03*
X165300000Y-95262500D03*
X166250000Y-95262500D03*
X166250000Y-97537500D03*
X164350000Y-97537500D03*
%TD*%
D39*
%TO.C,R5*%
X135912500Y-95000000D03*
X134087500Y-95000000D03*
%TD*%
D34*
%TO.C,C6*%
X166062500Y-109800000D03*
X164337500Y-109800000D03*
%TD*%
D39*
%TO.C,R9*%
X150612500Y-110700000D03*
X148787500Y-110700000D03*
%TD*%
D50*
%TO.C,L1*%
X164475000Y-107500000D03*
X162725000Y-107500000D03*
%TD*%
D38*
%TO.C,R4*%
X171300000Y-114887500D03*
X171300000Y-116712500D03*
%TD*%
M02*
