%TF.GenerationSoftware,KiCad,Pcbnew,8.0.1-8.0.1-1~ubuntu22.04.1*%
%TF.CreationDate,2024-05-06T17:23:11+02:00*%
%TF.ProjectId,Pojet 1A,506f6a65-7420-4314-912e-6b696361645f,rev?*%
%TF.SameCoordinates,Original*%
%TF.FileFunction,Legend,Top*%
%TF.FilePolarity,Positive*%
%FSLAX46Y46*%
G04 Gerber Fmt 4.6, Leading zero omitted, Abs format (unit mm)*
G04 Created by KiCad (PCBNEW 8.0.1-8.0.1-1~ubuntu22.04.1) date 2024-05-06 17:23:11*
%MOMM*%
%LPD*%
G01*
G04 APERTURE LIST*
%ADD10C,0.150000*%
%ADD11C,0.120000*%
G04 APERTURE END LIST*
D10*
X131959580Y-78742857D02*
X132007200Y-78790476D01*
X132007200Y-78790476D02*
X132054819Y-78933333D01*
X132054819Y-78933333D02*
X132054819Y-79028571D01*
X132054819Y-79028571D02*
X132007200Y-79171428D01*
X132007200Y-79171428D02*
X131911961Y-79266666D01*
X131911961Y-79266666D02*
X131816723Y-79314285D01*
X131816723Y-79314285D02*
X131626247Y-79361904D01*
X131626247Y-79361904D02*
X131483390Y-79361904D01*
X131483390Y-79361904D02*
X131292914Y-79314285D01*
X131292914Y-79314285D02*
X131197676Y-79266666D01*
X131197676Y-79266666D02*
X131102438Y-79171428D01*
X131102438Y-79171428D02*
X131054819Y-79028571D01*
X131054819Y-79028571D02*
X131054819Y-78933333D01*
X131054819Y-78933333D02*
X131102438Y-78790476D01*
X131102438Y-78790476D02*
X131150057Y-78742857D01*
X131150057Y-78361904D02*
X131102438Y-78314285D01*
X131102438Y-78314285D02*
X131054819Y-78219047D01*
X131054819Y-78219047D02*
X131054819Y-77980952D01*
X131054819Y-77980952D02*
X131102438Y-77885714D01*
X131102438Y-77885714D02*
X131150057Y-77838095D01*
X131150057Y-77838095D02*
X131245295Y-77790476D01*
X131245295Y-77790476D02*
X131340533Y-77790476D01*
X131340533Y-77790476D02*
X131483390Y-77838095D01*
X131483390Y-77838095D02*
X132054819Y-78409523D01*
X132054819Y-78409523D02*
X132054819Y-77790476D01*
X131054819Y-76885714D02*
X131054819Y-77361904D01*
X131054819Y-77361904D02*
X131531009Y-77409523D01*
X131531009Y-77409523D02*
X131483390Y-77361904D01*
X131483390Y-77361904D02*
X131435771Y-77266666D01*
X131435771Y-77266666D02*
X131435771Y-77028571D01*
X131435771Y-77028571D02*
X131483390Y-76933333D01*
X131483390Y-76933333D02*
X131531009Y-76885714D01*
X131531009Y-76885714D02*
X131626247Y-76838095D01*
X131626247Y-76838095D02*
X131864342Y-76838095D01*
X131864342Y-76838095D02*
X131959580Y-76885714D01*
X131959580Y-76885714D02*
X132007200Y-76933333D01*
X132007200Y-76933333D02*
X132054819Y-77028571D01*
X132054819Y-77028571D02*
X132054819Y-77266666D01*
X132054819Y-77266666D02*
X132007200Y-77361904D01*
X132007200Y-77361904D02*
X131959580Y-77409523D01*
X172400057Y-97782738D02*
X172352438Y-97877976D01*
X172352438Y-97877976D02*
X172257200Y-97973214D01*
X172257200Y-97973214D02*
X172114342Y-98116071D01*
X172114342Y-98116071D02*
X172066723Y-98211309D01*
X172066723Y-98211309D02*
X172066723Y-98306547D01*
X172304819Y-98258928D02*
X172257200Y-98354166D01*
X172257200Y-98354166D02*
X172161961Y-98449404D01*
X172161961Y-98449404D02*
X171971485Y-98497023D01*
X171971485Y-98497023D02*
X171638152Y-98497023D01*
X171638152Y-98497023D02*
X171447676Y-98449404D01*
X171447676Y-98449404D02*
X171352438Y-98354166D01*
X171352438Y-98354166D02*
X171304819Y-98258928D01*
X171304819Y-98258928D02*
X171304819Y-98068452D01*
X171304819Y-98068452D02*
X171352438Y-97973214D01*
X171352438Y-97973214D02*
X171447676Y-97877976D01*
X171447676Y-97877976D02*
X171638152Y-97830357D01*
X171638152Y-97830357D02*
X171971485Y-97830357D01*
X171971485Y-97830357D02*
X172161961Y-97877976D01*
X172161961Y-97877976D02*
X172257200Y-97973214D01*
X172257200Y-97973214D02*
X172304819Y-98068452D01*
X172304819Y-98068452D02*
X172304819Y-98258928D01*
X171400057Y-97449404D02*
X171352438Y-97401785D01*
X171352438Y-97401785D02*
X171304819Y-97306547D01*
X171304819Y-97306547D02*
X171304819Y-97068452D01*
X171304819Y-97068452D02*
X171352438Y-96973214D01*
X171352438Y-96973214D02*
X171400057Y-96925595D01*
X171400057Y-96925595D02*
X171495295Y-96877976D01*
X171495295Y-96877976D02*
X171590533Y-96877976D01*
X171590533Y-96877976D02*
X171733390Y-96925595D01*
X171733390Y-96925595D02*
X172304819Y-97497023D01*
X172304819Y-97497023D02*
X172304819Y-96877976D01*
X156938095Y-98154819D02*
X156938095Y-98964342D01*
X156938095Y-98964342D02*
X156985714Y-99059580D01*
X156985714Y-99059580D02*
X157033333Y-99107200D01*
X157033333Y-99107200D02*
X157128571Y-99154819D01*
X157128571Y-99154819D02*
X157319047Y-99154819D01*
X157319047Y-99154819D02*
X157414285Y-99107200D01*
X157414285Y-99107200D02*
X157461904Y-99059580D01*
X157461904Y-99059580D02*
X157509523Y-98964342D01*
X157509523Y-98964342D02*
X157509523Y-98154819D01*
X158461904Y-98154819D02*
X157985714Y-98154819D01*
X157985714Y-98154819D02*
X157938095Y-98631009D01*
X157938095Y-98631009D02*
X157985714Y-98583390D01*
X157985714Y-98583390D02*
X158080952Y-98535771D01*
X158080952Y-98535771D02*
X158319047Y-98535771D01*
X158319047Y-98535771D02*
X158414285Y-98583390D01*
X158414285Y-98583390D02*
X158461904Y-98631009D01*
X158461904Y-98631009D02*
X158509523Y-98726247D01*
X158509523Y-98726247D02*
X158509523Y-98964342D01*
X158509523Y-98964342D02*
X158461904Y-99059580D01*
X158461904Y-99059580D02*
X158414285Y-99107200D01*
X158414285Y-99107200D02*
X158319047Y-99154819D01*
X158319047Y-99154819D02*
X158080952Y-99154819D01*
X158080952Y-99154819D02*
X157985714Y-99107200D01*
X157985714Y-99107200D02*
X157938095Y-99059580D01*
X162757142Y-82829580D02*
X162709523Y-82877200D01*
X162709523Y-82877200D02*
X162566666Y-82924819D01*
X162566666Y-82924819D02*
X162471428Y-82924819D01*
X162471428Y-82924819D02*
X162328571Y-82877200D01*
X162328571Y-82877200D02*
X162233333Y-82781961D01*
X162233333Y-82781961D02*
X162185714Y-82686723D01*
X162185714Y-82686723D02*
X162138095Y-82496247D01*
X162138095Y-82496247D02*
X162138095Y-82353390D01*
X162138095Y-82353390D02*
X162185714Y-82162914D01*
X162185714Y-82162914D02*
X162233333Y-82067676D01*
X162233333Y-82067676D02*
X162328571Y-81972438D01*
X162328571Y-81972438D02*
X162471428Y-81924819D01*
X162471428Y-81924819D02*
X162566666Y-81924819D01*
X162566666Y-81924819D02*
X162709523Y-81972438D01*
X162709523Y-81972438D02*
X162757142Y-82020057D01*
X163138095Y-82020057D02*
X163185714Y-81972438D01*
X163185714Y-81972438D02*
X163280952Y-81924819D01*
X163280952Y-81924819D02*
X163519047Y-81924819D01*
X163519047Y-81924819D02*
X163614285Y-81972438D01*
X163614285Y-81972438D02*
X163661904Y-82020057D01*
X163661904Y-82020057D02*
X163709523Y-82115295D01*
X163709523Y-82115295D02*
X163709523Y-82210533D01*
X163709523Y-82210533D02*
X163661904Y-82353390D01*
X163661904Y-82353390D02*
X163090476Y-82924819D01*
X163090476Y-82924819D02*
X163709523Y-82924819D01*
X164328571Y-81924819D02*
X164423809Y-81924819D01*
X164423809Y-81924819D02*
X164519047Y-81972438D01*
X164519047Y-81972438D02*
X164566666Y-82020057D01*
X164566666Y-82020057D02*
X164614285Y-82115295D01*
X164614285Y-82115295D02*
X164661904Y-82305771D01*
X164661904Y-82305771D02*
X164661904Y-82543866D01*
X164661904Y-82543866D02*
X164614285Y-82734342D01*
X164614285Y-82734342D02*
X164566666Y-82829580D01*
X164566666Y-82829580D02*
X164519047Y-82877200D01*
X164519047Y-82877200D02*
X164423809Y-82924819D01*
X164423809Y-82924819D02*
X164328571Y-82924819D01*
X164328571Y-82924819D02*
X164233333Y-82877200D01*
X164233333Y-82877200D02*
X164185714Y-82829580D01*
X164185714Y-82829580D02*
X164138095Y-82734342D01*
X164138095Y-82734342D02*
X164090476Y-82543866D01*
X164090476Y-82543866D02*
X164090476Y-82305771D01*
X164090476Y-82305771D02*
X164138095Y-82115295D01*
X164138095Y-82115295D02*
X164185714Y-82020057D01*
X164185714Y-82020057D02*
X164233333Y-81972438D01*
X164233333Y-81972438D02*
X164328571Y-81924819D01*
X125354819Y-77841666D02*
X125354819Y-78317856D01*
X125354819Y-78317856D02*
X124354819Y-78317856D01*
X124688152Y-77079761D02*
X125354819Y-77079761D01*
X124307200Y-77317856D02*
X125021485Y-77555951D01*
X125021485Y-77555951D02*
X125021485Y-76936904D01*
X139804761Y-78850057D02*
X139709523Y-78802438D01*
X139709523Y-78802438D02*
X139614285Y-78707200D01*
X139614285Y-78707200D02*
X139471428Y-78564342D01*
X139471428Y-78564342D02*
X139376190Y-78516723D01*
X139376190Y-78516723D02*
X139280952Y-78516723D01*
X139328571Y-78754819D02*
X139233333Y-78707200D01*
X139233333Y-78707200D02*
X139138095Y-78611961D01*
X139138095Y-78611961D02*
X139090476Y-78421485D01*
X139090476Y-78421485D02*
X139090476Y-78088152D01*
X139090476Y-78088152D02*
X139138095Y-77897676D01*
X139138095Y-77897676D02*
X139233333Y-77802438D01*
X139233333Y-77802438D02*
X139328571Y-77754819D01*
X139328571Y-77754819D02*
X139519047Y-77754819D01*
X139519047Y-77754819D02*
X139614285Y-77802438D01*
X139614285Y-77802438D02*
X139709523Y-77897676D01*
X139709523Y-77897676D02*
X139757142Y-78088152D01*
X139757142Y-78088152D02*
X139757142Y-78421485D01*
X139757142Y-78421485D02*
X139709523Y-78611961D01*
X139709523Y-78611961D02*
X139614285Y-78707200D01*
X139614285Y-78707200D02*
X139519047Y-78754819D01*
X139519047Y-78754819D02*
X139328571Y-78754819D01*
X140614285Y-78088152D02*
X140614285Y-78754819D01*
X140376190Y-77707200D02*
X140138095Y-78421485D01*
X140138095Y-78421485D02*
X140757142Y-78421485D01*
X182384819Y-101042857D02*
X181908628Y-101376190D01*
X182384819Y-101614285D02*
X181384819Y-101614285D01*
X181384819Y-101614285D02*
X181384819Y-101233333D01*
X181384819Y-101233333D02*
X181432438Y-101138095D01*
X181432438Y-101138095D02*
X181480057Y-101090476D01*
X181480057Y-101090476D02*
X181575295Y-101042857D01*
X181575295Y-101042857D02*
X181718152Y-101042857D01*
X181718152Y-101042857D02*
X181813390Y-101090476D01*
X181813390Y-101090476D02*
X181861009Y-101138095D01*
X181861009Y-101138095D02*
X181908628Y-101233333D01*
X181908628Y-101233333D02*
X181908628Y-101614285D01*
X182384819Y-100090476D02*
X182384819Y-100661904D01*
X182384819Y-100376190D02*
X181384819Y-100376190D01*
X181384819Y-100376190D02*
X181527676Y-100471428D01*
X181527676Y-100471428D02*
X181622914Y-100566666D01*
X181622914Y-100566666D02*
X181670533Y-100661904D01*
X181480057Y-99709523D02*
X181432438Y-99661904D01*
X181432438Y-99661904D02*
X181384819Y-99566666D01*
X181384819Y-99566666D02*
X181384819Y-99328571D01*
X181384819Y-99328571D02*
X181432438Y-99233333D01*
X181432438Y-99233333D02*
X181480057Y-99185714D01*
X181480057Y-99185714D02*
X181575295Y-99138095D01*
X181575295Y-99138095D02*
X181670533Y-99138095D01*
X181670533Y-99138095D02*
X181813390Y-99185714D01*
X181813390Y-99185714D02*
X182384819Y-99757142D01*
X182384819Y-99757142D02*
X182384819Y-99138095D01*
X136954819Y-82342857D02*
X136478628Y-82676190D01*
X136954819Y-82914285D02*
X135954819Y-82914285D01*
X135954819Y-82914285D02*
X135954819Y-82533333D01*
X135954819Y-82533333D02*
X136002438Y-82438095D01*
X136002438Y-82438095D02*
X136050057Y-82390476D01*
X136050057Y-82390476D02*
X136145295Y-82342857D01*
X136145295Y-82342857D02*
X136288152Y-82342857D01*
X136288152Y-82342857D02*
X136383390Y-82390476D01*
X136383390Y-82390476D02*
X136431009Y-82438095D01*
X136431009Y-82438095D02*
X136478628Y-82533333D01*
X136478628Y-82533333D02*
X136478628Y-82914285D01*
X136954819Y-81390476D02*
X136954819Y-81961904D01*
X136954819Y-81676190D02*
X135954819Y-81676190D01*
X135954819Y-81676190D02*
X136097676Y-81771428D01*
X136097676Y-81771428D02*
X136192914Y-81866666D01*
X136192914Y-81866666D02*
X136240533Y-81961904D01*
X135954819Y-80485714D02*
X135954819Y-80961904D01*
X135954819Y-80961904D02*
X136431009Y-81009523D01*
X136431009Y-81009523D02*
X136383390Y-80961904D01*
X136383390Y-80961904D02*
X136335771Y-80866666D01*
X136335771Y-80866666D02*
X136335771Y-80628571D01*
X136335771Y-80628571D02*
X136383390Y-80533333D01*
X136383390Y-80533333D02*
X136431009Y-80485714D01*
X136431009Y-80485714D02*
X136526247Y-80438095D01*
X136526247Y-80438095D02*
X136764342Y-80438095D01*
X136764342Y-80438095D02*
X136859580Y-80485714D01*
X136859580Y-80485714D02*
X136907200Y-80533333D01*
X136907200Y-80533333D02*
X136954819Y-80628571D01*
X136954819Y-80628571D02*
X136954819Y-80866666D01*
X136954819Y-80866666D02*
X136907200Y-80961904D01*
X136907200Y-80961904D02*
X136859580Y-81009523D01*
X165419580Y-95042857D02*
X165467200Y-95090476D01*
X165467200Y-95090476D02*
X165514819Y-95233333D01*
X165514819Y-95233333D02*
X165514819Y-95328571D01*
X165514819Y-95328571D02*
X165467200Y-95471428D01*
X165467200Y-95471428D02*
X165371961Y-95566666D01*
X165371961Y-95566666D02*
X165276723Y-95614285D01*
X165276723Y-95614285D02*
X165086247Y-95661904D01*
X165086247Y-95661904D02*
X164943390Y-95661904D01*
X164943390Y-95661904D02*
X164752914Y-95614285D01*
X164752914Y-95614285D02*
X164657676Y-95566666D01*
X164657676Y-95566666D02*
X164562438Y-95471428D01*
X164562438Y-95471428D02*
X164514819Y-95328571D01*
X164514819Y-95328571D02*
X164514819Y-95233333D01*
X164514819Y-95233333D02*
X164562438Y-95090476D01*
X164562438Y-95090476D02*
X164610057Y-95042857D01*
X164514819Y-94709523D02*
X164514819Y-94090476D01*
X164514819Y-94090476D02*
X164895771Y-94423809D01*
X164895771Y-94423809D02*
X164895771Y-94280952D01*
X164895771Y-94280952D02*
X164943390Y-94185714D01*
X164943390Y-94185714D02*
X164991009Y-94138095D01*
X164991009Y-94138095D02*
X165086247Y-94090476D01*
X165086247Y-94090476D02*
X165324342Y-94090476D01*
X165324342Y-94090476D02*
X165419580Y-94138095D01*
X165419580Y-94138095D02*
X165467200Y-94185714D01*
X165467200Y-94185714D02*
X165514819Y-94280952D01*
X165514819Y-94280952D02*
X165514819Y-94566666D01*
X165514819Y-94566666D02*
X165467200Y-94661904D01*
X165467200Y-94661904D02*
X165419580Y-94709523D01*
X164514819Y-93233333D02*
X164514819Y-93423809D01*
X164514819Y-93423809D02*
X164562438Y-93519047D01*
X164562438Y-93519047D02*
X164610057Y-93566666D01*
X164610057Y-93566666D02*
X164752914Y-93661904D01*
X164752914Y-93661904D02*
X164943390Y-93709523D01*
X164943390Y-93709523D02*
X165324342Y-93709523D01*
X165324342Y-93709523D02*
X165419580Y-93661904D01*
X165419580Y-93661904D02*
X165467200Y-93614285D01*
X165467200Y-93614285D02*
X165514819Y-93519047D01*
X165514819Y-93519047D02*
X165514819Y-93328571D01*
X165514819Y-93328571D02*
X165467200Y-93233333D01*
X165467200Y-93233333D02*
X165419580Y-93185714D01*
X165419580Y-93185714D02*
X165324342Y-93138095D01*
X165324342Y-93138095D02*
X165086247Y-93138095D01*
X165086247Y-93138095D02*
X164991009Y-93185714D01*
X164991009Y-93185714D02*
X164943390Y-93233333D01*
X164943390Y-93233333D02*
X164895771Y-93328571D01*
X164895771Y-93328571D02*
X164895771Y-93519047D01*
X164895771Y-93519047D02*
X164943390Y-93614285D01*
X164943390Y-93614285D02*
X164991009Y-93661904D01*
X164991009Y-93661904D02*
X165086247Y-93709523D01*
X145904761Y-78750057D02*
X145809523Y-78702438D01*
X145809523Y-78702438D02*
X145714285Y-78607200D01*
X145714285Y-78607200D02*
X145571428Y-78464342D01*
X145571428Y-78464342D02*
X145476190Y-78416723D01*
X145476190Y-78416723D02*
X145380952Y-78416723D01*
X145428571Y-78654819D02*
X145333333Y-78607200D01*
X145333333Y-78607200D02*
X145238095Y-78511961D01*
X145238095Y-78511961D02*
X145190476Y-78321485D01*
X145190476Y-78321485D02*
X145190476Y-77988152D01*
X145190476Y-77988152D02*
X145238095Y-77797676D01*
X145238095Y-77797676D02*
X145333333Y-77702438D01*
X145333333Y-77702438D02*
X145428571Y-77654819D01*
X145428571Y-77654819D02*
X145619047Y-77654819D01*
X145619047Y-77654819D02*
X145714285Y-77702438D01*
X145714285Y-77702438D02*
X145809523Y-77797676D01*
X145809523Y-77797676D02*
X145857142Y-77988152D01*
X145857142Y-77988152D02*
X145857142Y-78321485D01*
X145857142Y-78321485D02*
X145809523Y-78511961D01*
X145809523Y-78511961D02*
X145714285Y-78607200D01*
X145714285Y-78607200D02*
X145619047Y-78654819D01*
X145619047Y-78654819D02*
X145428571Y-78654819D01*
X146761904Y-77654819D02*
X146285714Y-77654819D01*
X146285714Y-77654819D02*
X146238095Y-78131009D01*
X146238095Y-78131009D02*
X146285714Y-78083390D01*
X146285714Y-78083390D02*
X146380952Y-78035771D01*
X146380952Y-78035771D02*
X146619047Y-78035771D01*
X146619047Y-78035771D02*
X146714285Y-78083390D01*
X146714285Y-78083390D02*
X146761904Y-78131009D01*
X146761904Y-78131009D02*
X146809523Y-78226247D01*
X146809523Y-78226247D02*
X146809523Y-78464342D01*
X146809523Y-78464342D02*
X146761904Y-78559580D01*
X146761904Y-78559580D02*
X146714285Y-78607200D01*
X146714285Y-78607200D02*
X146619047Y-78654819D01*
X146619047Y-78654819D02*
X146380952Y-78654819D01*
X146380952Y-78654819D02*
X146285714Y-78607200D01*
X146285714Y-78607200D02*
X146238095Y-78559580D01*
X149054819Y-82342857D02*
X148578628Y-82676190D01*
X149054819Y-82914285D02*
X148054819Y-82914285D01*
X148054819Y-82914285D02*
X148054819Y-82533333D01*
X148054819Y-82533333D02*
X148102438Y-82438095D01*
X148102438Y-82438095D02*
X148150057Y-82390476D01*
X148150057Y-82390476D02*
X148245295Y-82342857D01*
X148245295Y-82342857D02*
X148388152Y-82342857D01*
X148388152Y-82342857D02*
X148483390Y-82390476D01*
X148483390Y-82390476D02*
X148531009Y-82438095D01*
X148531009Y-82438095D02*
X148578628Y-82533333D01*
X148578628Y-82533333D02*
X148578628Y-82914285D01*
X149054819Y-81390476D02*
X149054819Y-81961904D01*
X149054819Y-81676190D02*
X148054819Y-81676190D01*
X148054819Y-81676190D02*
X148197676Y-81771428D01*
X148197676Y-81771428D02*
X148292914Y-81866666D01*
X148292914Y-81866666D02*
X148340533Y-81961904D01*
X148483390Y-80819047D02*
X148435771Y-80914285D01*
X148435771Y-80914285D02*
X148388152Y-80961904D01*
X148388152Y-80961904D02*
X148292914Y-81009523D01*
X148292914Y-81009523D02*
X148245295Y-81009523D01*
X148245295Y-81009523D02*
X148150057Y-80961904D01*
X148150057Y-80961904D02*
X148102438Y-80914285D01*
X148102438Y-80914285D02*
X148054819Y-80819047D01*
X148054819Y-80819047D02*
X148054819Y-80628571D01*
X148054819Y-80628571D02*
X148102438Y-80533333D01*
X148102438Y-80533333D02*
X148150057Y-80485714D01*
X148150057Y-80485714D02*
X148245295Y-80438095D01*
X148245295Y-80438095D02*
X148292914Y-80438095D01*
X148292914Y-80438095D02*
X148388152Y-80485714D01*
X148388152Y-80485714D02*
X148435771Y-80533333D01*
X148435771Y-80533333D02*
X148483390Y-80628571D01*
X148483390Y-80628571D02*
X148483390Y-80819047D01*
X148483390Y-80819047D02*
X148531009Y-80914285D01*
X148531009Y-80914285D02*
X148578628Y-80961904D01*
X148578628Y-80961904D02*
X148673866Y-81009523D01*
X148673866Y-81009523D02*
X148864342Y-81009523D01*
X148864342Y-81009523D02*
X148959580Y-80961904D01*
X148959580Y-80961904D02*
X149007200Y-80914285D01*
X149007200Y-80914285D02*
X149054819Y-80819047D01*
X149054819Y-80819047D02*
X149054819Y-80628571D01*
X149054819Y-80628571D02*
X149007200Y-80533333D01*
X149007200Y-80533333D02*
X148959580Y-80485714D01*
X148959580Y-80485714D02*
X148864342Y-80438095D01*
X148864342Y-80438095D02*
X148673866Y-80438095D01*
X148673866Y-80438095D02*
X148578628Y-80485714D01*
X148578628Y-80485714D02*
X148531009Y-80533333D01*
X148531009Y-80533333D02*
X148483390Y-80628571D01*
X152559580Y-87242857D02*
X152607200Y-87290476D01*
X152607200Y-87290476D02*
X152654819Y-87433333D01*
X152654819Y-87433333D02*
X152654819Y-87528571D01*
X152654819Y-87528571D02*
X152607200Y-87671428D01*
X152607200Y-87671428D02*
X152511961Y-87766666D01*
X152511961Y-87766666D02*
X152416723Y-87814285D01*
X152416723Y-87814285D02*
X152226247Y-87861904D01*
X152226247Y-87861904D02*
X152083390Y-87861904D01*
X152083390Y-87861904D02*
X151892914Y-87814285D01*
X151892914Y-87814285D02*
X151797676Y-87766666D01*
X151797676Y-87766666D02*
X151702438Y-87671428D01*
X151702438Y-87671428D02*
X151654819Y-87528571D01*
X151654819Y-87528571D02*
X151654819Y-87433333D01*
X151654819Y-87433333D02*
X151702438Y-87290476D01*
X151702438Y-87290476D02*
X151750057Y-87242857D01*
X152654819Y-86290476D02*
X152654819Y-86861904D01*
X152654819Y-86576190D02*
X151654819Y-86576190D01*
X151654819Y-86576190D02*
X151797676Y-86671428D01*
X151797676Y-86671428D02*
X151892914Y-86766666D01*
X151892914Y-86766666D02*
X151940533Y-86861904D01*
X151654819Y-85433333D02*
X151654819Y-85623809D01*
X151654819Y-85623809D02*
X151702438Y-85719047D01*
X151702438Y-85719047D02*
X151750057Y-85766666D01*
X151750057Y-85766666D02*
X151892914Y-85861904D01*
X151892914Y-85861904D02*
X152083390Y-85909523D01*
X152083390Y-85909523D02*
X152464342Y-85909523D01*
X152464342Y-85909523D02*
X152559580Y-85861904D01*
X152559580Y-85861904D02*
X152607200Y-85814285D01*
X152607200Y-85814285D02*
X152654819Y-85719047D01*
X152654819Y-85719047D02*
X152654819Y-85528571D01*
X152654819Y-85528571D02*
X152607200Y-85433333D01*
X152607200Y-85433333D02*
X152559580Y-85385714D01*
X152559580Y-85385714D02*
X152464342Y-85338095D01*
X152464342Y-85338095D02*
X152226247Y-85338095D01*
X152226247Y-85338095D02*
X152131009Y-85385714D01*
X152131009Y-85385714D02*
X152083390Y-85433333D01*
X152083390Y-85433333D02*
X152035771Y-85528571D01*
X152035771Y-85528571D02*
X152035771Y-85719047D01*
X152035771Y-85719047D02*
X152083390Y-85814285D01*
X152083390Y-85814285D02*
X152131009Y-85861904D01*
X152131009Y-85861904D02*
X152226247Y-85909523D01*
X181366666Y-77324819D02*
X181366666Y-78039104D01*
X181366666Y-78039104D02*
X181319047Y-78181961D01*
X181319047Y-78181961D02*
X181223809Y-78277200D01*
X181223809Y-78277200D02*
X181080952Y-78324819D01*
X181080952Y-78324819D02*
X180985714Y-78324819D01*
X182319047Y-77324819D02*
X181842857Y-77324819D01*
X181842857Y-77324819D02*
X181795238Y-77801009D01*
X181795238Y-77801009D02*
X181842857Y-77753390D01*
X181842857Y-77753390D02*
X181938095Y-77705771D01*
X181938095Y-77705771D02*
X182176190Y-77705771D01*
X182176190Y-77705771D02*
X182271428Y-77753390D01*
X182271428Y-77753390D02*
X182319047Y-77801009D01*
X182319047Y-77801009D02*
X182366666Y-77896247D01*
X182366666Y-77896247D02*
X182366666Y-78134342D01*
X182366666Y-78134342D02*
X182319047Y-78229580D01*
X182319047Y-78229580D02*
X182271428Y-78277200D01*
X182271428Y-78277200D02*
X182176190Y-78324819D01*
X182176190Y-78324819D02*
X181938095Y-78324819D01*
X181938095Y-78324819D02*
X181842857Y-78277200D01*
X181842857Y-78277200D02*
X181795238Y-78229580D01*
X152457142Y-106719580D02*
X152409523Y-106767200D01*
X152409523Y-106767200D02*
X152266666Y-106814819D01*
X152266666Y-106814819D02*
X152171428Y-106814819D01*
X152171428Y-106814819D02*
X152028571Y-106767200D01*
X152028571Y-106767200D02*
X151933333Y-106671961D01*
X151933333Y-106671961D02*
X151885714Y-106576723D01*
X151885714Y-106576723D02*
X151838095Y-106386247D01*
X151838095Y-106386247D02*
X151838095Y-106243390D01*
X151838095Y-106243390D02*
X151885714Y-106052914D01*
X151885714Y-106052914D02*
X151933333Y-105957676D01*
X151933333Y-105957676D02*
X152028571Y-105862438D01*
X152028571Y-105862438D02*
X152171428Y-105814819D01*
X152171428Y-105814819D02*
X152266666Y-105814819D01*
X152266666Y-105814819D02*
X152409523Y-105862438D01*
X152409523Y-105862438D02*
X152457142Y-105910057D01*
X152838095Y-105910057D02*
X152885714Y-105862438D01*
X152885714Y-105862438D02*
X152980952Y-105814819D01*
X152980952Y-105814819D02*
X153219047Y-105814819D01*
X153219047Y-105814819D02*
X153314285Y-105862438D01*
X153314285Y-105862438D02*
X153361904Y-105910057D01*
X153361904Y-105910057D02*
X153409523Y-106005295D01*
X153409523Y-106005295D02*
X153409523Y-106100533D01*
X153409523Y-106100533D02*
X153361904Y-106243390D01*
X153361904Y-106243390D02*
X152790476Y-106814819D01*
X152790476Y-106814819D02*
X153409523Y-106814819D01*
X153742857Y-105814819D02*
X154409523Y-105814819D01*
X154409523Y-105814819D02*
X153980952Y-106814819D01*
X144109580Y-75542857D02*
X144157200Y-75590476D01*
X144157200Y-75590476D02*
X144204819Y-75733333D01*
X144204819Y-75733333D02*
X144204819Y-75828571D01*
X144204819Y-75828571D02*
X144157200Y-75971428D01*
X144157200Y-75971428D02*
X144061961Y-76066666D01*
X144061961Y-76066666D02*
X143966723Y-76114285D01*
X143966723Y-76114285D02*
X143776247Y-76161904D01*
X143776247Y-76161904D02*
X143633390Y-76161904D01*
X143633390Y-76161904D02*
X143442914Y-76114285D01*
X143442914Y-76114285D02*
X143347676Y-76066666D01*
X143347676Y-76066666D02*
X143252438Y-75971428D01*
X143252438Y-75971428D02*
X143204819Y-75828571D01*
X143204819Y-75828571D02*
X143204819Y-75733333D01*
X143204819Y-75733333D02*
X143252438Y-75590476D01*
X143252438Y-75590476D02*
X143300057Y-75542857D01*
X143300057Y-75161904D02*
X143252438Y-75114285D01*
X143252438Y-75114285D02*
X143204819Y-75019047D01*
X143204819Y-75019047D02*
X143204819Y-74780952D01*
X143204819Y-74780952D02*
X143252438Y-74685714D01*
X143252438Y-74685714D02*
X143300057Y-74638095D01*
X143300057Y-74638095D02*
X143395295Y-74590476D01*
X143395295Y-74590476D02*
X143490533Y-74590476D01*
X143490533Y-74590476D02*
X143633390Y-74638095D01*
X143633390Y-74638095D02*
X144204819Y-75209523D01*
X144204819Y-75209523D02*
X144204819Y-74590476D01*
X143633390Y-74019047D02*
X143585771Y-74114285D01*
X143585771Y-74114285D02*
X143538152Y-74161904D01*
X143538152Y-74161904D02*
X143442914Y-74209523D01*
X143442914Y-74209523D02*
X143395295Y-74209523D01*
X143395295Y-74209523D02*
X143300057Y-74161904D01*
X143300057Y-74161904D02*
X143252438Y-74114285D01*
X143252438Y-74114285D02*
X143204819Y-74019047D01*
X143204819Y-74019047D02*
X143204819Y-73828571D01*
X143204819Y-73828571D02*
X143252438Y-73733333D01*
X143252438Y-73733333D02*
X143300057Y-73685714D01*
X143300057Y-73685714D02*
X143395295Y-73638095D01*
X143395295Y-73638095D02*
X143442914Y-73638095D01*
X143442914Y-73638095D02*
X143538152Y-73685714D01*
X143538152Y-73685714D02*
X143585771Y-73733333D01*
X143585771Y-73733333D02*
X143633390Y-73828571D01*
X143633390Y-73828571D02*
X143633390Y-74019047D01*
X143633390Y-74019047D02*
X143681009Y-74114285D01*
X143681009Y-74114285D02*
X143728628Y-74161904D01*
X143728628Y-74161904D02*
X143823866Y-74209523D01*
X143823866Y-74209523D02*
X144014342Y-74209523D01*
X144014342Y-74209523D02*
X144109580Y-74161904D01*
X144109580Y-74161904D02*
X144157200Y-74114285D01*
X144157200Y-74114285D02*
X144204819Y-74019047D01*
X144204819Y-74019047D02*
X144204819Y-73828571D01*
X144204819Y-73828571D02*
X144157200Y-73733333D01*
X144157200Y-73733333D02*
X144109580Y-73685714D01*
X144109580Y-73685714D02*
X144014342Y-73638095D01*
X144014342Y-73638095D02*
X143823866Y-73638095D01*
X143823866Y-73638095D02*
X143728628Y-73685714D01*
X143728628Y-73685714D02*
X143681009Y-73733333D01*
X143681009Y-73733333D02*
X143633390Y-73828571D01*
X137924819Y-118738094D02*
X136924819Y-118738094D01*
X136924819Y-118738094D02*
X136924819Y-118499999D01*
X136924819Y-118499999D02*
X136972438Y-118357142D01*
X136972438Y-118357142D02*
X137067676Y-118261904D01*
X137067676Y-118261904D02*
X137162914Y-118214285D01*
X137162914Y-118214285D02*
X137353390Y-118166666D01*
X137353390Y-118166666D02*
X137496247Y-118166666D01*
X137496247Y-118166666D02*
X137686723Y-118214285D01*
X137686723Y-118214285D02*
X137781961Y-118261904D01*
X137781961Y-118261904D02*
X137877200Y-118357142D01*
X137877200Y-118357142D02*
X137924819Y-118499999D01*
X137924819Y-118499999D02*
X137924819Y-118738094D01*
X137924819Y-117214285D02*
X137924819Y-117785713D01*
X137924819Y-117499999D02*
X136924819Y-117499999D01*
X136924819Y-117499999D02*
X137067676Y-117595237D01*
X137067676Y-117595237D02*
X137162914Y-117690475D01*
X137162914Y-117690475D02*
X137210533Y-117785713D01*
X137554819Y-113181904D02*
X136554819Y-113181904D01*
X137554819Y-112610476D02*
X136983390Y-113039047D01*
X136554819Y-112610476D02*
X137126247Y-113181904D01*
X143019580Y-104142857D02*
X143067200Y-104190476D01*
X143067200Y-104190476D02*
X143114819Y-104333333D01*
X143114819Y-104333333D02*
X143114819Y-104428571D01*
X143114819Y-104428571D02*
X143067200Y-104571428D01*
X143067200Y-104571428D02*
X142971961Y-104666666D01*
X142971961Y-104666666D02*
X142876723Y-104714285D01*
X142876723Y-104714285D02*
X142686247Y-104761904D01*
X142686247Y-104761904D02*
X142543390Y-104761904D01*
X142543390Y-104761904D02*
X142352914Y-104714285D01*
X142352914Y-104714285D02*
X142257676Y-104666666D01*
X142257676Y-104666666D02*
X142162438Y-104571428D01*
X142162438Y-104571428D02*
X142114819Y-104428571D01*
X142114819Y-104428571D02*
X142114819Y-104333333D01*
X142114819Y-104333333D02*
X142162438Y-104190476D01*
X142162438Y-104190476D02*
X142210057Y-104142857D01*
X142448152Y-103285714D02*
X143114819Y-103285714D01*
X142067200Y-103523809D02*
X142781485Y-103761904D01*
X142781485Y-103761904D02*
X142781485Y-103142857D01*
X142114819Y-102571428D02*
X142114819Y-102476190D01*
X142114819Y-102476190D02*
X142162438Y-102380952D01*
X142162438Y-102380952D02*
X142210057Y-102333333D01*
X142210057Y-102333333D02*
X142305295Y-102285714D01*
X142305295Y-102285714D02*
X142495771Y-102238095D01*
X142495771Y-102238095D02*
X142733866Y-102238095D01*
X142733866Y-102238095D02*
X142924342Y-102285714D01*
X142924342Y-102285714D02*
X143019580Y-102333333D01*
X143019580Y-102333333D02*
X143067200Y-102380952D01*
X143067200Y-102380952D02*
X143114819Y-102476190D01*
X143114819Y-102476190D02*
X143114819Y-102571428D01*
X143114819Y-102571428D02*
X143067200Y-102666666D01*
X143067200Y-102666666D02*
X143019580Y-102714285D01*
X143019580Y-102714285D02*
X142924342Y-102761904D01*
X142924342Y-102761904D02*
X142733866Y-102809523D01*
X142733866Y-102809523D02*
X142495771Y-102809523D01*
X142495771Y-102809523D02*
X142305295Y-102761904D01*
X142305295Y-102761904D02*
X142210057Y-102714285D01*
X142210057Y-102714285D02*
X142162438Y-102666666D01*
X142162438Y-102666666D02*
X142114819Y-102571428D01*
X160999580Y-99742857D02*
X161047200Y-99790476D01*
X161047200Y-99790476D02*
X161094819Y-99933333D01*
X161094819Y-99933333D02*
X161094819Y-100028571D01*
X161094819Y-100028571D02*
X161047200Y-100171428D01*
X161047200Y-100171428D02*
X160951961Y-100266666D01*
X160951961Y-100266666D02*
X160856723Y-100314285D01*
X160856723Y-100314285D02*
X160666247Y-100361904D01*
X160666247Y-100361904D02*
X160523390Y-100361904D01*
X160523390Y-100361904D02*
X160332914Y-100314285D01*
X160332914Y-100314285D02*
X160237676Y-100266666D01*
X160237676Y-100266666D02*
X160142438Y-100171428D01*
X160142438Y-100171428D02*
X160094819Y-100028571D01*
X160094819Y-100028571D02*
X160094819Y-99933333D01*
X160094819Y-99933333D02*
X160142438Y-99790476D01*
X160142438Y-99790476D02*
X160190057Y-99742857D01*
X160094819Y-99409523D02*
X160094819Y-98790476D01*
X160094819Y-98790476D02*
X160475771Y-99123809D01*
X160475771Y-99123809D02*
X160475771Y-98980952D01*
X160475771Y-98980952D02*
X160523390Y-98885714D01*
X160523390Y-98885714D02*
X160571009Y-98838095D01*
X160571009Y-98838095D02*
X160666247Y-98790476D01*
X160666247Y-98790476D02*
X160904342Y-98790476D01*
X160904342Y-98790476D02*
X160999580Y-98838095D01*
X160999580Y-98838095D02*
X161047200Y-98885714D01*
X161047200Y-98885714D02*
X161094819Y-98980952D01*
X161094819Y-98980952D02*
X161094819Y-99266666D01*
X161094819Y-99266666D02*
X161047200Y-99361904D01*
X161047200Y-99361904D02*
X160999580Y-99409523D01*
X160523390Y-98219047D02*
X160475771Y-98314285D01*
X160475771Y-98314285D02*
X160428152Y-98361904D01*
X160428152Y-98361904D02*
X160332914Y-98409523D01*
X160332914Y-98409523D02*
X160285295Y-98409523D01*
X160285295Y-98409523D02*
X160190057Y-98361904D01*
X160190057Y-98361904D02*
X160142438Y-98314285D01*
X160142438Y-98314285D02*
X160094819Y-98219047D01*
X160094819Y-98219047D02*
X160094819Y-98028571D01*
X160094819Y-98028571D02*
X160142438Y-97933333D01*
X160142438Y-97933333D02*
X160190057Y-97885714D01*
X160190057Y-97885714D02*
X160285295Y-97838095D01*
X160285295Y-97838095D02*
X160332914Y-97838095D01*
X160332914Y-97838095D02*
X160428152Y-97885714D01*
X160428152Y-97885714D02*
X160475771Y-97933333D01*
X160475771Y-97933333D02*
X160523390Y-98028571D01*
X160523390Y-98028571D02*
X160523390Y-98219047D01*
X160523390Y-98219047D02*
X160571009Y-98314285D01*
X160571009Y-98314285D02*
X160618628Y-98361904D01*
X160618628Y-98361904D02*
X160713866Y-98409523D01*
X160713866Y-98409523D02*
X160904342Y-98409523D01*
X160904342Y-98409523D02*
X160999580Y-98361904D01*
X160999580Y-98361904D02*
X161047200Y-98314285D01*
X161047200Y-98314285D02*
X161094819Y-98219047D01*
X161094819Y-98219047D02*
X161094819Y-98028571D01*
X161094819Y-98028571D02*
X161047200Y-97933333D01*
X161047200Y-97933333D02*
X160999580Y-97885714D01*
X160999580Y-97885714D02*
X160904342Y-97838095D01*
X160904342Y-97838095D02*
X160713866Y-97838095D01*
X160713866Y-97838095D02*
X160618628Y-97885714D01*
X160618628Y-97885714D02*
X160571009Y-97933333D01*
X160571009Y-97933333D02*
X160523390Y-98028571D01*
X140459580Y-75842857D02*
X140507200Y-75890476D01*
X140507200Y-75890476D02*
X140554819Y-76033333D01*
X140554819Y-76033333D02*
X140554819Y-76128571D01*
X140554819Y-76128571D02*
X140507200Y-76271428D01*
X140507200Y-76271428D02*
X140411961Y-76366666D01*
X140411961Y-76366666D02*
X140316723Y-76414285D01*
X140316723Y-76414285D02*
X140126247Y-76461904D01*
X140126247Y-76461904D02*
X139983390Y-76461904D01*
X139983390Y-76461904D02*
X139792914Y-76414285D01*
X139792914Y-76414285D02*
X139697676Y-76366666D01*
X139697676Y-76366666D02*
X139602438Y-76271428D01*
X139602438Y-76271428D02*
X139554819Y-76128571D01*
X139554819Y-76128571D02*
X139554819Y-76033333D01*
X139554819Y-76033333D02*
X139602438Y-75890476D01*
X139602438Y-75890476D02*
X139650057Y-75842857D01*
X139554819Y-75509523D02*
X139554819Y-74890476D01*
X139554819Y-74890476D02*
X139935771Y-75223809D01*
X139935771Y-75223809D02*
X139935771Y-75080952D01*
X139935771Y-75080952D02*
X139983390Y-74985714D01*
X139983390Y-74985714D02*
X140031009Y-74938095D01*
X140031009Y-74938095D02*
X140126247Y-74890476D01*
X140126247Y-74890476D02*
X140364342Y-74890476D01*
X140364342Y-74890476D02*
X140459580Y-74938095D01*
X140459580Y-74938095D02*
X140507200Y-74985714D01*
X140507200Y-74985714D02*
X140554819Y-75080952D01*
X140554819Y-75080952D02*
X140554819Y-75366666D01*
X140554819Y-75366666D02*
X140507200Y-75461904D01*
X140507200Y-75461904D02*
X140459580Y-75509523D01*
X139650057Y-74509523D02*
X139602438Y-74461904D01*
X139602438Y-74461904D02*
X139554819Y-74366666D01*
X139554819Y-74366666D02*
X139554819Y-74128571D01*
X139554819Y-74128571D02*
X139602438Y-74033333D01*
X139602438Y-74033333D02*
X139650057Y-73985714D01*
X139650057Y-73985714D02*
X139745295Y-73938095D01*
X139745295Y-73938095D02*
X139840533Y-73938095D01*
X139840533Y-73938095D02*
X139983390Y-73985714D01*
X139983390Y-73985714D02*
X140554819Y-74557142D01*
X140554819Y-74557142D02*
X140554819Y-73938095D01*
X158557142Y-92554819D02*
X158223809Y-92078628D01*
X157985714Y-92554819D02*
X157985714Y-91554819D01*
X157985714Y-91554819D02*
X158366666Y-91554819D01*
X158366666Y-91554819D02*
X158461904Y-91602438D01*
X158461904Y-91602438D02*
X158509523Y-91650057D01*
X158509523Y-91650057D02*
X158557142Y-91745295D01*
X158557142Y-91745295D02*
X158557142Y-91888152D01*
X158557142Y-91888152D02*
X158509523Y-91983390D01*
X158509523Y-91983390D02*
X158461904Y-92031009D01*
X158461904Y-92031009D02*
X158366666Y-92078628D01*
X158366666Y-92078628D02*
X157985714Y-92078628D01*
X159509523Y-92554819D02*
X158938095Y-92554819D01*
X159223809Y-92554819D02*
X159223809Y-91554819D01*
X159223809Y-91554819D02*
X159128571Y-91697676D01*
X159128571Y-91697676D02*
X159033333Y-91792914D01*
X159033333Y-91792914D02*
X158938095Y-91840533D01*
X159842857Y-91554819D02*
X160509523Y-91554819D01*
X160509523Y-91554819D02*
X160080952Y-92554819D01*
X164457142Y-97159580D02*
X164409523Y-97207200D01*
X164409523Y-97207200D02*
X164266666Y-97254819D01*
X164266666Y-97254819D02*
X164171428Y-97254819D01*
X164171428Y-97254819D02*
X164028571Y-97207200D01*
X164028571Y-97207200D02*
X163933333Y-97111961D01*
X163933333Y-97111961D02*
X163885714Y-97016723D01*
X163885714Y-97016723D02*
X163838095Y-96826247D01*
X163838095Y-96826247D02*
X163838095Y-96683390D01*
X163838095Y-96683390D02*
X163885714Y-96492914D01*
X163885714Y-96492914D02*
X163933333Y-96397676D01*
X163933333Y-96397676D02*
X164028571Y-96302438D01*
X164028571Y-96302438D02*
X164171428Y-96254819D01*
X164171428Y-96254819D02*
X164266666Y-96254819D01*
X164266666Y-96254819D02*
X164409523Y-96302438D01*
X164409523Y-96302438D02*
X164457142Y-96350057D01*
X164790476Y-96254819D02*
X165409523Y-96254819D01*
X165409523Y-96254819D02*
X165076190Y-96635771D01*
X165076190Y-96635771D02*
X165219047Y-96635771D01*
X165219047Y-96635771D02*
X165314285Y-96683390D01*
X165314285Y-96683390D02*
X165361904Y-96731009D01*
X165361904Y-96731009D02*
X165409523Y-96826247D01*
X165409523Y-96826247D02*
X165409523Y-97064342D01*
X165409523Y-97064342D02*
X165361904Y-97159580D01*
X165361904Y-97159580D02*
X165314285Y-97207200D01*
X165314285Y-97207200D02*
X165219047Y-97254819D01*
X165219047Y-97254819D02*
X164933333Y-97254819D01*
X164933333Y-97254819D02*
X164838095Y-97207200D01*
X164838095Y-97207200D02*
X164790476Y-97159580D01*
X165885714Y-97254819D02*
X166076190Y-97254819D01*
X166076190Y-97254819D02*
X166171428Y-97207200D01*
X166171428Y-97207200D02*
X166219047Y-97159580D01*
X166219047Y-97159580D02*
X166314285Y-97016723D01*
X166314285Y-97016723D02*
X166361904Y-96826247D01*
X166361904Y-96826247D02*
X166361904Y-96445295D01*
X166361904Y-96445295D02*
X166314285Y-96350057D01*
X166314285Y-96350057D02*
X166266666Y-96302438D01*
X166266666Y-96302438D02*
X166171428Y-96254819D01*
X166171428Y-96254819D02*
X165980952Y-96254819D01*
X165980952Y-96254819D02*
X165885714Y-96302438D01*
X165885714Y-96302438D02*
X165838095Y-96350057D01*
X165838095Y-96350057D02*
X165790476Y-96445295D01*
X165790476Y-96445295D02*
X165790476Y-96683390D01*
X165790476Y-96683390D02*
X165838095Y-96778628D01*
X165838095Y-96778628D02*
X165885714Y-96826247D01*
X165885714Y-96826247D02*
X165980952Y-96873866D01*
X165980952Y-96873866D02*
X166171428Y-96873866D01*
X166171428Y-96873866D02*
X166266666Y-96826247D01*
X166266666Y-96826247D02*
X166314285Y-96778628D01*
X166314285Y-96778628D02*
X166361904Y-96683390D01*
X138133333Y-93759580D02*
X138085714Y-93807200D01*
X138085714Y-93807200D02*
X137942857Y-93854819D01*
X137942857Y-93854819D02*
X137847619Y-93854819D01*
X137847619Y-93854819D02*
X137704762Y-93807200D01*
X137704762Y-93807200D02*
X137609524Y-93711961D01*
X137609524Y-93711961D02*
X137561905Y-93616723D01*
X137561905Y-93616723D02*
X137514286Y-93426247D01*
X137514286Y-93426247D02*
X137514286Y-93283390D01*
X137514286Y-93283390D02*
X137561905Y-93092914D01*
X137561905Y-93092914D02*
X137609524Y-92997676D01*
X137609524Y-92997676D02*
X137704762Y-92902438D01*
X137704762Y-92902438D02*
X137847619Y-92854819D01*
X137847619Y-92854819D02*
X137942857Y-92854819D01*
X137942857Y-92854819D02*
X138085714Y-92902438D01*
X138085714Y-92902438D02*
X138133333Y-92950057D01*
X138609524Y-93854819D02*
X138800000Y-93854819D01*
X138800000Y-93854819D02*
X138895238Y-93807200D01*
X138895238Y-93807200D02*
X138942857Y-93759580D01*
X138942857Y-93759580D02*
X139038095Y-93616723D01*
X139038095Y-93616723D02*
X139085714Y-93426247D01*
X139085714Y-93426247D02*
X139085714Y-93045295D01*
X139085714Y-93045295D02*
X139038095Y-92950057D01*
X139038095Y-92950057D02*
X138990476Y-92902438D01*
X138990476Y-92902438D02*
X138895238Y-92854819D01*
X138895238Y-92854819D02*
X138704762Y-92854819D01*
X138704762Y-92854819D02*
X138609524Y-92902438D01*
X138609524Y-92902438D02*
X138561905Y-92950057D01*
X138561905Y-92950057D02*
X138514286Y-93045295D01*
X138514286Y-93045295D02*
X138514286Y-93283390D01*
X138514286Y-93283390D02*
X138561905Y-93378628D01*
X138561905Y-93378628D02*
X138609524Y-93426247D01*
X138609524Y-93426247D02*
X138704762Y-93473866D01*
X138704762Y-93473866D02*
X138895238Y-93473866D01*
X138895238Y-93473866D02*
X138990476Y-93426247D01*
X138990476Y-93426247D02*
X139038095Y-93378628D01*
X139038095Y-93378628D02*
X139085714Y-93283390D01*
X154419580Y-96242857D02*
X154467200Y-96290476D01*
X154467200Y-96290476D02*
X154514819Y-96433333D01*
X154514819Y-96433333D02*
X154514819Y-96528571D01*
X154514819Y-96528571D02*
X154467200Y-96671428D01*
X154467200Y-96671428D02*
X154371961Y-96766666D01*
X154371961Y-96766666D02*
X154276723Y-96814285D01*
X154276723Y-96814285D02*
X154086247Y-96861904D01*
X154086247Y-96861904D02*
X153943390Y-96861904D01*
X153943390Y-96861904D02*
X153752914Y-96814285D01*
X153752914Y-96814285D02*
X153657676Y-96766666D01*
X153657676Y-96766666D02*
X153562438Y-96671428D01*
X153562438Y-96671428D02*
X153514819Y-96528571D01*
X153514819Y-96528571D02*
X153514819Y-96433333D01*
X153514819Y-96433333D02*
X153562438Y-96290476D01*
X153562438Y-96290476D02*
X153610057Y-96242857D01*
X153514819Y-95909523D02*
X153514819Y-95290476D01*
X153514819Y-95290476D02*
X153895771Y-95623809D01*
X153895771Y-95623809D02*
X153895771Y-95480952D01*
X153895771Y-95480952D02*
X153943390Y-95385714D01*
X153943390Y-95385714D02*
X153991009Y-95338095D01*
X153991009Y-95338095D02*
X154086247Y-95290476D01*
X154086247Y-95290476D02*
X154324342Y-95290476D01*
X154324342Y-95290476D02*
X154419580Y-95338095D01*
X154419580Y-95338095D02*
X154467200Y-95385714D01*
X154467200Y-95385714D02*
X154514819Y-95480952D01*
X154514819Y-95480952D02*
X154514819Y-95766666D01*
X154514819Y-95766666D02*
X154467200Y-95861904D01*
X154467200Y-95861904D02*
X154419580Y-95909523D01*
X154514819Y-94338095D02*
X154514819Y-94909523D01*
X154514819Y-94623809D02*
X153514819Y-94623809D01*
X153514819Y-94623809D02*
X153657676Y-94719047D01*
X153657676Y-94719047D02*
X153752914Y-94814285D01*
X153752914Y-94814285D02*
X153800533Y-94909523D01*
X154374819Y-77422666D02*
X154374819Y-77898856D01*
X154374819Y-77898856D02*
X153374819Y-77898856D01*
X153470057Y-77136951D02*
X153422438Y-77089332D01*
X153422438Y-77089332D02*
X153374819Y-76994094D01*
X153374819Y-76994094D02*
X153374819Y-76755999D01*
X153374819Y-76755999D02*
X153422438Y-76660761D01*
X153422438Y-76660761D02*
X153470057Y-76613142D01*
X153470057Y-76613142D02*
X153565295Y-76565523D01*
X153565295Y-76565523D02*
X153660533Y-76565523D01*
X153660533Y-76565523D02*
X153803390Y-76613142D01*
X153803390Y-76613142D02*
X154374819Y-77184570D01*
X154374819Y-77184570D02*
X154374819Y-76565523D01*
X153404819Y-100761904D02*
X154214342Y-100761904D01*
X154214342Y-100761904D02*
X154309580Y-100714285D01*
X154309580Y-100714285D02*
X154357200Y-100666666D01*
X154357200Y-100666666D02*
X154404819Y-100571428D01*
X154404819Y-100571428D02*
X154404819Y-100380952D01*
X154404819Y-100380952D02*
X154357200Y-100285714D01*
X154357200Y-100285714D02*
X154309580Y-100238095D01*
X154309580Y-100238095D02*
X154214342Y-100190476D01*
X154214342Y-100190476D02*
X153404819Y-100190476D01*
X154404819Y-99190476D02*
X154404819Y-99761904D01*
X154404819Y-99476190D02*
X153404819Y-99476190D01*
X153404819Y-99476190D02*
X153547676Y-99571428D01*
X153547676Y-99571428D02*
X153642914Y-99666666D01*
X153642914Y-99666666D02*
X153690533Y-99761904D01*
X142957142Y-93789580D02*
X142909523Y-93837200D01*
X142909523Y-93837200D02*
X142766666Y-93884819D01*
X142766666Y-93884819D02*
X142671428Y-93884819D01*
X142671428Y-93884819D02*
X142528571Y-93837200D01*
X142528571Y-93837200D02*
X142433333Y-93741961D01*
X142433333Y-93741961D02*
X142385714Y-93646723D01*
X142385714Y-93646723D02*
X142338095Y-93456247D01*
X142338095Y-93456247D02*
X142338095Y-93313390D01*
X142338095Y-93313390D02*
X142385714Y-93122914D01*
X142385714Y-93122914D02*
X142433333Y-93027676D01*
X142433333Y-93027676D02*
X142528571Y-92932438D01*
X142528571Y-92932438D02*
X142671428Y-92884819D01*
X142671428Y-92884819D02*
X142766666Y-92884819D01*
X142766666Y-92884819D02*
X142909523Y-92932438D01*
X142909523Y-92932438D02*
X142957142Y-92980057D01*
X143909523Y-93884819D02*
X143338095Y-93884819D01*
X143623809Y-93884819D02*
X143623809Y-92884819D01*
X143623809Y-92884819D02*
X143528571Y-93027676D01*
X143528571Y-93027676D02*
X143433333Y-93122914D01*
X143433333Y-93122914D02*
X143338095Y-93170533D01*
X144528571Y-92884819D02*
X144623809Y-92884819D01*
X144623809Y-92884819D02*
X144719047Y-92932438D01*
X144719047Y-92932438D02*
X144766666Y-92980057D01*
X144766666Y-92980057D02*
X144814285Y-93075295D01*
X144814285Y-93075295D02*
X144861904Y-93265771D01*
X144861904Y-93265771D02*
X144861904Y-93503866D01*
X144861904Y-93503866D02*
X144814285Y-93694342D01*
X144814285Y-93694342D02*
X144766666Y-93789580D01*
X144766666Y-93789580D02*
X144719047Y-93837200D01*
X144719047Y-93837200D02*
X144623809Y-93884819D01*
X144623809Y-93884819D02*
X144528571Y-93884819D01*
X144528571Y-93884819D02*
X144433333Y-93837200D01*
X144433333Y-93837200D02*
X144385714Y-93789580D01*
X144385714Y-93789580D02*
X144338095Y-93694342D01*
X144338095Y-93694342D02*
X144290476Y-93503866D01*
X144290476Y-93503866D02*
X144290476Y-93265771D01*
X144290476Y-93265771D02*
X144338095Y-93075295D01*
X144338095Y-93075295D02*
X144385714Y-92980057D01*
X144385714Y-92980057D02*
X144433333Y-92932438D01*
X144433333Y-92932438D02*
X144528571Y-92884819D01*
X181757142Y-95304819D02*
X181423809Y-94828628D01*
X181185714Y-95304819D02*
X181185714Y-94304819D01*
X181185714Y-94304819D02*
X181566666Y-94304819D01*
X181566666Y-94304819D02*
X181661904Y-94352438D01*
X181661904Y-94352438D02*
X181709523Y-94400057D01*
X181709523Y-94400057D02*
X181757142Y-94495295D01*
X181757142Y-94495295D02*
X181757142Y-94638152D01*
X181757142Y-94638152D02*
X181709523Y-94733390D01*
X181709523Y-94733390D02*
X181661904Y-94781009D01*
X181661904Y-94781009D02*
X181566666Y-94828628D01*
X181566666Y-94828628D02*
X181185714Y-94828628D01*
X182709523Y-95304819D02*
X182138095Y-95304819D01*
X182423809Y-95304819D02*
X182423809Y-94304819D01*
X182423809Y-94304819D02*
X182328571Y-94447676D01*
X182328571Y-94447676D02*
X182233333Y-94542914D01*
X182233333Y-94542914D02*
X182138095Y-94590533D01*
X183566666Y-94638152D02*
X183566666Y-95304819D01*
X183328571Y-94257200D02*
X183090476Y-94971485D01*
X183090476Y-94971485D02*
X183709523Y-94971485D01*
X140559580Y-101142857D02*
X140607200Y-101190476D01*
X140607200Y-101190476D02*
X140654819Y-101333333D01*
X140654819Y-101333333D02*
X140654819Y-101428571D01*
X140654819Y-101428571D02*
X140607200Y-101571428D01*
X140607200Y-101571428D02*
X140511961Y-101666666D01*
X140511961Y-101666666D02*
X140416723Y-101714285D01*
X140416723Y-101714285D02*
X140226247Y-101761904D01*
X140226247Y-101761904D02*
X140083390Y-101761904D01*
X140083390Y-101761904D02*
X139892914Y-101714285D01*
X139892914Y-101714285D02*
X139797676Y-101666666D01*
X139797676Y-101666666D02*
X139702438Y-101571428D01*
X139702438Y-101571428D02*
X139654819Y-101428571D01*
X139654819Y-101428571D02*
X139654819Y-101333333D01*
X139654819Y-101333333D02*
X139702438Y-101190476D01*
X139702438Y-101190476D02*
X139750057Y-101142857D01*
X139654819Y-100809523D02*
X139654819Y-100190476D01*
X139654819Y-100190476D02*
X140035771Y-100523809D01*
X140035771Y-100523809D02*
X140035771Y-100380952D01*
X140035771Y-100380952D02*
X140083390Y-100285714D01*
X140083390Y-100285714D02*
X140131009Y-100238095D01*
X140131009Y-100238095D02*
X140226247Y-100190476D01*
X140226247Y-100190476D02*
X140464342Y-100190476D01*
X140464342Y-100190476D02*
X140559580Y-100238095D01*
X140559580Y-100238095D02*
X140607200Y-100285714D01*
X140607200Y-100285714D02*
X140654819Y-100380952D01*
X140654819Y-100380952D02*
X140654819Y-100666666D01*
X140654819Y-100666666D02*
X140607200Y-100761904D01*
X140607200Y-100761904D02*
X140559580Y-100809523D01*
X139654819Y-99571428D02*
X139654819Y-99476190D01*
X139654819Y-99476190D02*
X139702438Y-99380952D01*
X139702438Y-99380952D02*
X139750057Y-99333333D01*
X139750057Y-99333333D02*
X139845295Y-99285714D01*
X139845295Y-99285714D02*
X140035771Y-99238095D01*
X140035771Y-99238095D02*
X140273866Y-99238095D01*
X140273866Y-99238095D02*
X140464342Y-99285714D01*
X140464342Y-99285714D02*
X140559580Y-99333333D01*
X140559580Y-99333333D02*
X140607200Y-99380952D01*
X140607200Y-99380952D02*
X140654819Y-99476190D01*
X140654819Y-99476190D02*
X140654819Y-99571428D01*
X140654819Y-99571428D02*
X140607200Y-99666666D01*
X140607200Y-99666666D02*
X140559580Y-99714285D01*
X140559580Y-99714285D02*
X140464342Y-99761904D01*
X140464342Y-99761904D02*
X140273866Y-99809523D01*
X140273866Y-99809523D02*
X140035771Y-99809523D01*
X140035771Y-99809523D02*
X139845295Y-99761904D01*
X139845295Y-99761904D02*
X139750057Y-99714285D01*
X139750057Y-99714285D02*
X139702438Y-99666666D01*
X139702438Y-99666666D02*
X139654819Y-99571428D01*
X159544333Y-82376819D02*
X159068143Y-82376819D01*
X159068143Y-82376819D02*
X159068143Y-81376819D01*
X159782429Y-81376819D02*
X160401476Y-81376819D01*
X160401476Y-81376819D02*
X160068143Y-81757771D01*
X160068143Y-81757771D02*
X160211000Y-81757771D01*
X160211000Y-81757771D02*
X160306238Y-81805390D01*
X160306238Y-81805390D02*
X160353857Y-81853009D01*
X160353857Y-81853009D02*
X160401476Y-81948247D01*
X160401476Y-81948247D02*
X160401476Y-82186342D01*
X160401476Y-82186342D02*
X160353857Y-82281580D01*
X160353857Y-82281580D02*
X160306238Y-82329200D01*
X160306238Y-82329200D02*
X160211000Y-82376819D01*
X160211000Y-82376819D02*
X159925286Y-82376819D01*
X159925286Y-82376819D02*
X159830048Y-82329200D01*
X159830048Y-82329200D02*
X159782429Y-82281580D01*
X142616666Y-66654819D02*
X142616666Y-67369104D01*
X142616666Y-67369104D02*
X142569047Y-67511961D01*
X142569047Y-67511961D02*
X142473809Y-67607200D01*
X142473809Y-67607200D02*
X142330952Y-67654819D01*
X142330952Y-67654819D02*
X142235714Y-67654819D01*
X142997619Y-66654819D02*
X143616666Y-66654819D01*
X143616666Y-66654819D02*
X143283333Y-67035771D01*
X143283333Y-67035771D02*
X143426190Y-67035771D01*
X143426190Y-67035771D02*
X143521428Y-67083390D01*
X143521428Y-67083390D02*
X143569047Y-67131009D01*
X143569047Y-67131009D02*
X143616666Y-67226247D01*
X143616666Y-67226247D02*
X143616666Y-67464342D01*
X143616666Y-67464342D02*
X143569047Y-67559580D01*
X143569047Y-67559580D02*
X143521428Y-67607200D01*
X143521428Y-67607200D02*
X143426190Y-67654819D01*
X143426190Y-67654819D02*
X143140476Y-67654819D01*
X143140476Y-67654819D02*
X143045238Y-67607200D01*
X143045238Y-67607200D02*
X142997619Y-67559580D01*
X141940142Y-81561819D02*
X141606809Y-81085628D01*
X141368714Y-81561819D02*
X141368714Y-80561819D01*
X141368714Y-80561819D02*
X141749666Y-80561819D01*
X141749666Y-80561819D02*
X141844904Y-80609438D01*
X141844904Y-80609438D02*
X141892523Y-80657057D01*
X141892523Y-80657057D02*
X141940142Y-80752295D01*
X141940142Y-80752295D02*
X141940142Y-80895152D01*
X141940142Y-80895152D02*
X141892523Y-80990390D01*
X141892523Y-80990390D02*
X141844904Y-81038009D01*
X141844904Y-81038009D02*
X141749666Y-81085628D01*
X141749666Y-81085628D02*
X141368714Y-81085628D01*
X142892523Y-81561819D02*
X142321095Y-81561819D01*
X142606809Y-81561819D02*
X142606809Y-80561819D01*
X142606809Y-80561819D02*
X142511571Y-80704676D01*
X142511571Y-80704676D02*
X142416333Y-80799914D01*
X142416333Y-80799914D02*
X142321095Y-80847533D01*
X143749666Y-80561819D02*
X143559190Y-80561819D01*
X143559190Y-80561819D02*
X143463952Y-80609438D01*
X143463952Y-80609438D02*
X143416333Y-80657057D01*
X143416333Y-80657057D02*
X143321095Y-80799914D01*
X143321095Y-80799914D02*
X143273476Y-80990390D01*
X143273476Y-80990390D02*
X143273476Y-81371342D01*
X143273476Y-81371342D02*
X143321095Y-81466580D01*
X143321095Y-81466580D02*
X143368714Y-81514200D01*
X143368714Y-81514200D02*
X143463952Y-81561819D01*
X143463952Y-81561819D02*
X143654428Y-81561819D01*
X143654428Y-81561819D02*
X143749666Y-81514200D01*
X143749666Y-81514200D02*
X143797285Y-81466580D01*
X143797285Y-81466580D02*
X143844904Y-81371342D01*
X143844904Y-81371342D02*
X143844904Y-81133247D01*
X143844904Y-81133247D02*
X143797285Y-81038009D01*
X143797285Y-81038009D02*
X143749666Y-80990390D01*
X143749666Y-80990390D02*
X143654428Y-80942771D01*
X143654428Y-80942771D02*
X143463952Y-80942771D01*
X143463952Y-80942771D02*
X143368714Y-80990390D01*
X143368714Y-80990390D02*
X143321095Y-81038009D01*
X143321095Y-81038009D02*
X143273476Y-81133247D01*
X139159580Y-104642857D02*
X139207200Y-104690476D01*
X139207200Y-104690476D02*
X139254819Y-104833333D01*
X139254819Y-104833333D02*
X139254819Y-104928571D01*
X139254819Y-104928571D02*
X139207200Y-105071428D01*
X139207200Y-105071428D02*
X139111961Y-105166666D01*
X139111961Y-105166666D02*
X139016723Y-105214285D01*
X139016723Y-105214285D02*
X138826247Y-105261904D01*
X138826247Y-105261904D02*
X138683390Y-105261904D01*
X138683390Y-105261904D02*
X138492914Y-105214285D01*
X138492914Y-105214285D02*
X138397676Y-105166666D01*
X138397676Y-105166666D02*
X138302438Y-105071428D01*
X138302438Y-105071428D02*
X138254819Y-104928571D01*
X138254819Y-104928571D02*
X138254819Y-104833333D01*
X138254819Y-104833333D02*
X138302438Y-104690476D01*
X138302438Y-104690476D02*
X138350057Y-104642857D01*
X138588152Y-103785714D02*
X139254819Y-103785714D01*
X138207200Y-104023809D02*
X138921485Y-104261904D01*
X138921485Y-104261904D02*
X138921485Y-103642857D01*
X139254819Y-102738095D02*
X139254819Y-103309523D01*
X139254819Y-103023809D02*
X138254819Y-103023809D01*
X138254819Y-103023809D02*
X138397676Y-103119047D01*
X138397676Y-103119047D02*
X138492914Y-103214285D01*
X138492914Y-103214285D02*
X138540533Y-103309523D01*
X137257142Y-98429580D02*
X137209523Y-98477200D01*
X137209523Y-98477200D02*
X137066666Y-98524819D01*
X137066666Y-98524819D02*
X136971428Y-98524819D01*
X136971428Y-98524819D02*
X136828571Y-98477200D01*
X136828571Y-98477200D02*
X136733333Y-98381961D01*
X136733333Y-98381961D02*
X136685714Y-98286723D01*
X136685714Y-98286723D02*
X136638095Y-98096247D01*
X136638095Y-98096247D02*
X136638095Y-97953390D01*
X136638095Y-97953390D02*
X136685714Y-97762914D01*
X136685714Y-97762914D02*
X136733333Y-97667676D01*
X136733333Y-97667676D02*
X136828571Y-97572438D01*
X136828571Y-97572438D02*
X136971428Y-97524819D01*
X136971428Y-97524819D02*
X137066666Y-97524819D01*
X137066666Y-97524819D02*
X137209523Y-97572438D01*
X137209523Y-97572438D02*
X137257142Y-97620057D01*
X137638095Y-97620057D02*
X137685714Y-97572438D01*
X137685714Y-97572438D02*
X137780952Y-97524819D01*
X137780952Y-97524819D02*
X138019047Y-97524819D01*
X138019047Y-97524819D02*
X138114285Y-97572438D01*
X138114285Y-97572438D02*
X138161904Y-97620057D01*
X138161904Y-97620057D02*
X138209523Y-97715295D01*
X138209523Y-97715295D02*
X138209523Y-97810533D01*
X138209523Y-97810533D02*
X138161904Y-97953390D01*
X138161904Y-97953390D02*
X137590476Y-98524819D01*
X137590476Y-98524819D02*
X138209523Y-98524819D01*
X138685714Y-98524819D02*
X138876190Y-98524819D01*
X138876190Y-98524819D02*
X138971428Y-98477200D01*
X138971428Y-98477200D02*
X139019047Y-98429580D01*
X139019047Y-98429580D02*
X139114285Y-98286723D01*
X139114285Y-98286723D02*
X139161904Y-98096247D01*
X139161904Y-98096247D02*
X139161904Y-97715295D01*
X139161904Y-97715295D02*
X139114285Y-97620057D01*
X139114285Y-97620057D02*
X139066666Y-97572438D01*
X139066666Y-97572438D02*
X138971428Y-97524819D01*
X138971428Y-97524819D02*
X138780952Y-97524819D01*
X138780952Y-97524819D02*
X138685714Y-97572438D01*
X138685714Y-97572438D02*
X138638095Y-97620057D01*
X138638095Y-97620057D02*
X138590476Y-97715295D01*
X138590476Y-97715295D02*
X138590476Y-97953390D01*
X138590476Y-97953390D02*
X138638095Y-98048628D01*
X138638095Y-98048628D02*
X138685714Y-98096247D01*
X138685714Y-98096247D02*
X138780952Y-98143866D01*
X138780952Y-98143866D02*
X138971428Y-98143866D01*
X138971428Y-98143866D02*
X139066666Y-98096247D01*
X139066666Y-98096247D02*
X139114285Y-98048628D01*
X139114285Y-98048628D02*
X139161904Y-97953390D01*
X156959580Y-95142857D02*
X157007200Y-95190476D01*
X157007200Y-95190476D02*
X157054819Y-95333333D01*
X157054819Y-95333333D02*
X157054819Y-95428571D01*
X157054819Y-95428571D02*
X157007200Y-95571428D01*
X157007200Y-95571428D02*
X156911961Y-95666666D01*
X156911961Y-95666666D02*
X156816723Y-95714285D01*
X156816723Y-95714285D02*
X156626247Y-95761904D01*
X156626247Y-95761904D02*
X156483390Y-95761904D01*
X156483390Y-95761904D02*
X156292914Y-95714285D01*
X156292914Y-95714285D02*
X156197676Y-95666666D01*
X156197676Y-95666666D02*
X156102438Y-95571428D01*
X156102438Y-95571428D02*
X156054819Y-95428571D01*
X156054819Y-95428571D02*
X156054819Y-95333333D01*
X156054819Y-95333333D02*
X156102438Y-95190476D01*
X156102438Y-95190476D02*
X156150057Y-95142857D01*
X156054819Y-94809523D02*
X156054819Y-94190476D01*
X156054819Y-94190476D02*
X156435771Y-94523809D01*
X156435771Y-94523809D02*
X156435771Y-94380952D01*
X156435771Y-94380952D02*
X156483390Y-94285714D01*
X156483390Y-94285714D02*
X156531009Y-94238095D01*
X156531009Y-94238095D02*
X156626247Y-94190476D01*
X156626247Y-94190476D02*
X156864342Y-94190476D01*
X156864342Y-94190476D02*
X156959580Y-94238095D01*
X156959580Y-94238095D02*
X157007200Y-94285714D01*
X157007200Y-94285714D02*
X157054819Y-94380952D01*
X157054819Y-94380952D02*
X157054819Y-94666666D01*
X157054819Y-94666666D02*
X157007200Y-94761904D01*
X157007200Y-94761904D02*
X156959580Y-94809523D01*
X156054819Y-93857142D02*
X156054819Y-93190476D01*
X156054819Y-93190476D02*
X157054819Y-93619047D01*
X152699580Y-75975357D02*
X152747200Y-76022976D01*
X152747200Y-76022976D02*
X152794819Y-76165833D01*
X152794819Y-76165833D02*
X152794819Y-76261071D01*
X152794819Y-76261071D02*
X152747200Y-76403928D01*
X152747200Y-76403928D02*
X152651961Y-76499166D01*
X152651961Y-76499166D02*
X152556723Y-76546785D01*
X152556723Y-76546785D02*
X152366247Y-76594404D01*
X152366247Y-76594404D02*
X152223390Y-76594404D01*
X152223390Y-76594404D02*
X152032914Y-76546785D01*
X152032914Y-76546785D02*
X151937676Y-76499166D01*
X151937676Y-76499166D02*
X151842438Y-76403928D01*
X151842438Y-76403928D02*
X151794819Y-76261071D01*
X151794819Y-76261071D02*
X151794819Y-76165833D01*
X151794819Y-76165833D02*
X151842438Y-76022976D01*
X151842438Y-76022976D02*
X151890057Y-75975357D01*
X151890057Y-75594404D02*
X151842438Y-75546785D01*
X151842438Y-75546785D02*
X151794819Y-75451547D01*
X151794819Y-75451547D02*
X151794819Y-75213452D01*
X151794819Y-75213452D02*
X151842438Y-75118214D01*
X151842438Y-75118214D02*
X151890057Y-75070595D01*
X151890057Y-75070595D02*
X151985295Y-75022976D01*
X151985295Y-75022976D02*
X152080533Y-75022976D01*
X152080533Y-75022976D02*
X152223390Y-75070595D01*
X152223390Y-75070595D02*
X152794819Y-75642023D01*
X152794819Y-75642023D02*
X152794819Y-75022976D01*
X152128152Y-74165833D02*
X152794819Y-74165833D01*
X151747200Y-74403928D02*
X152461485Y-74642023D01*
X152461485Y-74642023D02*
X152461485Y-74022976D01*
X134704761Y-78950057D02*
X134609523Y-78902438D01*
X134609523Y-78902438D02*
X134514285Y-78807200D01*
X134514285Y-78807200D02*
X134371428Y-78664342D01*
X134371428Y-78664342D02*
X134276190Y-78616723D01*
X134276190Y-78616723D02*
X134180952Y-78616723D01*
X134228571Y-78854819D02*
X134133333Y-78807200D01*
X134133333Y-78807200D02*
X134038095Y-78711961D01*
X134038095Y-78711961D02*
X133990476Y-78521485D01*
X133990476Y-78521485D02*
X133990476Y-78188152D01*
X133990476Y-78188152D02*
X134038095Y-77997676D01*
X134038095Y-77997676D02*
X134133333Y-77902438D01*
X134133333Y-77902438D02*
X134228571Y-77854819D01*
X134228571Y-77854819D02*
X134419047Y-77854819D01*
X134419047Y-77854819D02*
X134514285Y-77902438D01*
X134514285Y-77902438D02*
X134609523Y-77997676D01*
X134609523Y-77997676D02*
X134657142Y-78188152D01*
X134657142Y-78188152D02*
X134657142Y-78521485D01*
X134657142Y-78521485D02*
X134609523Y-78711961D01*
X134609523Y-78711961D02*
X134514285Y-78807200D01*
X134514285Y-78807200D02*
X134419047Y-78854819D01*
X134419047Y-78854819D02*
X134228571Y-78854819D01*
X134990476Y-77854819D02*
X135609523Y-77854819D01*
X135609523Y-77854819D02*
X135276190Y-78235771D01*
X135276190Y-78235771D02*
X135419047Y-78235771D01*
X135419047Y-78235771D02*
X135514285Y-78283390D01*
X135514285Y-78283390D02*
X135561904Y-78331009D01*
X135561904Y-78331009D02*
X135609523Y-78426247D01*
X135609523Y-78426247D02*
X135609523Y-78664342D01*
X135609523Y-78664342D02*
X135561904Y-78759580D01*
X135561904Y-78759580D02*
X135514285Y-78807200D01*
X135514285Y-78807200D02*
X135419047Y-78854819D01*
X135419047Y-78854819D02*
X135133333Y-78854819D01*
X135133333Y-78854819D02*
X135038095Y-78807200D01*
X135038095Y-78807200D02*
X134990476Y-78759580D01*
X157049819Y-106583333D02*
X157764104Y-106583333D01*
X157764104Y-106583333D02*
X157906961Y-106630952D01*
X157906961Y-106630952D02*
X158002200Y-106726190D01*
X158002200Y-106726190D02*
X158049819Y-106869047D01*
X158049819Y-106869047D02*
X158049819Y-106964285D01*
X158049819Y-106059523D02*
X158049819Y-105869047D01*
X158049819Y-105869047D02*
X158002200Y-105773809D01*
X158002200Y-105773809D02*
X157954580Y-105726190D01*
X157954580Y-105726190D02*
X157811723Y-105630952D01*
X157811723Y-105630952D02*
X157621247Y-105583333D01*
X157621247Y-105583333D02*
X157240295Y-105583333D01*
X157240295Y-105583333D02*
X157145057Y-105630952D01*
X157145057Y-105630952D02*
X157097438Y-105678571D01*
X157097438Y-105678571D02*
X157049819Y-105773809D01*
X157049819Y-105773809D02*
X157049819Y-105964285D01*
X157049819Y-105964285D02*
X157097438Y-106059523D01*
X157097438Y-106059523D02*
X157145057Y-106107142D01*
X157145057Y-106107142D02*
X157240295Y-106154761D01*
X157240295Y-106154761D02*
X157478390Y-106154761D01*
X157478390Y-106154761D02*
X157573628Y-106107142D01*
X157573628Y-106107142D02*
X157621247Y-106059523D01*
X157621247Y-106059523D02*
X157668866Y-105964285D01*
X157668866Y-105964285D02*
X157668866Y-105773809D01*
X157668866Y-105773809D02*
X157621247Y-105678571D01*
X157621247Y-105678571D02*
X157573628Y-105630952D01*
X157573628Y-105630952D02*
X157478390Y-105583333D01*
X143859580Y-107942857D02*
X143907200Y-107990476D01*
X143907200Y-107990476D02*
X143954819Y-108133333D01*
X143954819Y-108133333D02*
X143954819Y-108228571D01*
X143954819Y-108228571D02*
X143907200Y-108371428D01*
X143907200Y-108371428D02*
X143811961Y-108466666D01*
X143811961Y-108466666D02*
X143716723Y-108514285D01*
X143716723Y-108514285D02*
X143526247Y-108561904D01*
X143526247Y-108561904D02*
X143383390Y-108561904D01*
X143383390Y-108561904D02*
X143192914Y-108514285D01*
X143192914Y-108514285D02*
X143097676Y-108466666D01*
X143097676Y-108466666D02*
X143002438Y-108371428D01*
X143002438Y-108371428D02*
X142954819Y-108228571D01*
X142954819Y-108228571D02*
X142954819Y-108133333D01*
X142954819Y-108133333D02*
X143002438Y-107990476D01*
X143002438Y-107990476D02*
X143050057Y-107942857D01*
X143050057Y-107561904D02*
X143002438Y-107514285D01*
X143002438Y-107514285D02*
X142954819Y-107419047D01*
X142954819Y-107419047D02*
X142954819Y-107180952D01*
X142954819Y-107180952D02*
X143002438Y-107085714D01*
X143002438Y-107085714D02*
X143050057Y-107038095D01*
X143050057Y-107038095D02*
X143145295Y-106990476D01*
X143145295Y-106990476D02*
X143240533Y-106990476D01*
X143240533Y-106990476D02*
X143383390Y-107038095D01*
X143383390Y-107038095D02*
X143954819Y-107609523D01*
X143954819Y-107609523D02*
X143954819Y-106990476D01*
X142954819Y-106133333D02*
X142954819Y-106323809D01*
X142954819Y-106323809D02*
X143002438Y-106419047D01*
X143002438Y-106419047D02*
X143050057Y-106466666D01*
X143050057Y-106466666D02*
X143192914Y-106561904D01*
X143192914Y-106561904D02*
X143383390Y-106609523D01*
X143383390Y-106609523D02*
X143764342Y-106609523D01*
X143764342Y-106609523D02*
X143859580Y-106561904D01*
X143859580Y-106561904D02*
X143907200Y-106514285D01*
X143907200Y-106514285D02*
X143954819Y-106419047D01*
X143954819Y-106419047D02*
X143954819Y-106228571D01*
X143954819Y-106228571D02*
X143907200Y-106133333D01*
X143907200Y-106133333D02*
X143859580Y-106085714D01*
X143859580Y-106085714D02*
X143764342Y-106038095D01*
X143764342Y-106038095D02*
X143526247Y-106038095D01*
X143526247Y-106038095D02*
X143431009Y-106085714D01*
X143431009Y-106085714D02*
X143383390Y-106133333D01*
X143383390Y-106133333D02*
X143335771Y-106228571D01*
X143335771Y-106228571D02*
X143335771Y-106419047D01*
X143335771Y-106419047D02*
X143383390Y-106514285D01*
X143383390Y-106514285D02*
X143431009Y-106561904D01*
X143431009Y-106561904D02*
X143526247Y-106609523D01*
X144561905Y-117624819D02*
X144561905Y-116624819D01*
X144561905Y-116624819D02*
X144800000Y-116624819D01*
X144800000Y-116624819D02*
X144942857Y-116672438D01*
X144942857Y-116672438D02*
X145038095Y-116767676D01*
X145038095Y-116767676D02*
X145085714Y-116862914D01*
X145085714Y-116862914D02*
X145133333Y-117053390D01*
X145133333Y-117053390D02*
X145133333Y-117196247D01*
X145133333Y-117196247D02*
X145085714Y-117386723D01*
X145085714Y-117386723D02*
X145038095Y-117481961D01*
X145038095Y-117481961D02*
X144942857Y-117577200D01*
X144942857Y-117577200D02*
X144800000Y-117624819D01*
X144800000Y-117624819D02*
X144561905Y-117624819D01*
X145466667Y-116624819D02*
X146085714Y-116624819D01*
X146085714Y-116624819D02*
X145752381Y-117005771D01*
X145752381Y-117005771D02*
X145895238Y-117005771D01*
X145895238Y-117005771D02*
X145990476Y-117053390D01*
X145990476Y-117053390D02*
X146038095Y-117101009D01*
X146038095Y-117101009D02*
X146085714Y-117196247D01*
X146085714Y-117196247D02*
X146085714Y-117434342D01*
X146085714Y-117434342D02*
X146038095Y-117529580D01*
X146038095Y-117529580D02*
X145990476Y-117577200D01*
X145990476Y-117577200D02*
X145895238Y-117624819D01*
X145895238Y-117624819D02*
X145609524Y-117624819D01*
X145609524Y-117624819D02*
X145514286Y-117577200D01*
X145514286Y-117577200D02*
X145466667Y-117529580D01*
X150118095Y-117254819D02*
X150118095Y-116254819D01*
X150689523Y-117254819D02*
X150260952Y-116683390D01*
X150689523Y-116254819D02*
X150118095Y-116826247D01*
X125966666Y-82964819D02*
X125966666Y-83679104D01*
X125966666Y-83679104D02*
X125919047Y-83821961D01*
X125919047Y-83821961D02*
X125823809Y-83917200D01*
X125823809Y-83917200D02*
X125680952Y-83964819D01*
X125680952Y-83964819D02*
X125585714Y-83964819D01*
X126871428Y-82964819D02*
X126680952Y-82964819D01*
X126680952Y-82964819D02*
X126585714Y-83012438D01*
X126585714Y-83012438D02*
X126538095Y-83060057D01*
X126538095Y-83060057D02*
X126442857Y-83202914D01*
X126442857Y-83202914D02*
X126395238Y-83393390D01*
X126395238Y-83393390D02*
X126395238Y-83774342D01*
X126395238Y-83774342D02*
X126442857Y-83869580D01*
X126442857Y-83869580D02*
X126490476Y-83917200D01*
X126490476Y-83917200D02*
X126585714Y-83964819D01*
X126585714Y-83964819D02*
X126776190Y-83964819D01*
X126776190Y-83964819D02*
X126871428Y-83917200D01*
X126871428Y-83917200D02*
X126919047Y-83869580D01*
X126919047Y-83869580D02*
X126966666Y-83774342D01*
X126966666Y-83774342D02*
X126966666Y-83536247D01*
X126966666Y-83536247D02*
X126919047Y-83441009D01*
X126919047Y-83441009D02*
X126871428Y-83393390D01*
X126871428Y-83393390D02*
X126776190Y-83345771D01*
X126776190Y-83345771D02*
X126585714Y-83345771D01*
X126585714Y-83345771D02*
X126490476Y-83393390D01*
X126490476Y-83393390D02*
X126442857Y-83441009D01*
X126442857Y-83441009D02*
X126395238Y-83536247D01*
X153666666Y-66654819D02*
X153666666Y-67369104D01*
X153666666Y-67369104D02*
X153619047Y-67511961D01*
X153619047Y-67511961D02*
X153523809Y-67607200D01*
X153523809Y-67607200D02*
X153380952Y-67654819D01*
X153380952Y-67654819D02*
X153285714Y-67654819D01*
X154095238Y-66750057D02*
X154142857Y-66702438D01*
X154142857Y-66702438D02*
X154238095Y-66654819D01*
X154238095Y-66654819D02*
X154476190Y-66654819D01*
X154476190Y-66654819D02*
X154571428Y-66702438D01*
X154571428Y-66702438D02*
X154619047Y-66750057D01*
X154619047Y-66750057D02*
X154666666Y-66845295D01*
X154666666Y-66845295D02*
X154666666Y-66940533D01*
X154666666Y-66940533D02*
X154619047Y-67083390D01*
X154619047Y-67083390D02*
X154047619Y-67654819D01*
X154047619Y-67654819D02*
X154666666Y-67654819D01*
X154257142Y-83884819D02*
X153923809Y-83408628D01*
X153685714Y-83884819D02*
X153685714Y-82884819D01*
X153685714Y-82884819D02*
X154066666Y-82884819D01*
X154066666Y-82884819D02*
X154161904Y-82932438D01*
X154161904Y-82932438D02*
X154209523Y-82980057D01*
X154209523Y-82980057D02*
X154257142Y-83075295D01*
X154257142Y-83075295D02*
X154257142Y-83218152D01*
X154257142Y-83218152D02*
X154209523Y-83313390D01*
X154209523Y-83313390D02*
X154161904Y-83361009D01*
X154161904Y-83361009D02*
X154066666Y-83408628D01*
X154066666Y-83408628D02*
X153685714Y-83408628D01*
X155209523Y-83884819D02*
X154638095Y-83884819D01*
X154923809Y-83884819D02*
X154923809Y-82884819D01*
X154923809Y-82884819D02*
X154828571Y-83027676D01*
X154828571Y-83027676D02*
X154733333Y-83122914D01*
X154733333Y-83122914D02*
X154638095Y-83170533D01*
X155685714Y-83884819D02*
X155876190Y-83884819D01*
X155876190Y-83884819D02*
X155971428Y-83837200D01*
X155971428Y-83837200D02*
X156019047Y-83789580D01*
X156019047Y-83789580D02*
X156114285Y-83646723D01*
X156114285Y-83646723D02*
X156161904Y-83456247D01*
X156161904Y-83456247D02*
X156161904Y-83075295D01*
X156161904Y-83075295D02*
X156114285Y-82980057D01*
X156114285Y-82980057D02*
X156066666Y-82932438D01*
X156066666Y-82932438D02*
X155971428Y-82884819D01*
X155971428Y-82884819D02*
X155780952Y-82884819D01*
X155780952Y-82884819D02*
X155685714Y-82932438D01*
X155685714Y-82932438D02*
X155638095Y-82980057D01*
X155638095Y-82980057D02*
X155590476Y-83075295D01*
X155590476Y-83075295D02*
X155590476Y-83313390D01*
X155590476Y-83313390D02*
X155638095Y-83408628D01*
X155638095Y-83408628D02*
X155685714Y-83456247D01*
X155685714Y-83456247D02*
X155780952Y-83503866D01*
X155780952Y-83503866D02*
X155971428Y-83503866D01*
X155971428Y-83503866D02*
X156066666Y-83456247D01*
X156066666Y-83456247D02*
X156114285Y-83408628D01*
X156114285Y-83408628D02*
X156161904Y-83313390D01*
X154359580Y-92742857D02*
X154407200Y-92790476D01*
X154407200Y-92790476D02*
X154454819Y-92933333D01*
X154454819Y-92933333D02*
X154454819Y-93028571D01*
X154454819Y-93028571D02*
X154407200Y-93171428D01*
X154407200Y-93171428D02*
X154311961Y-93266666D01*
X154311961Y-93266666D02*
X154216723Y-93314285D01*
X154216723Y-93314285D02*
X154026247Y-93361904D01*
X154026247Y-93361904D02*
X153883390Y-93361904D01*
X153883390Y-93361904D02*
X153692914Y-93314285D01*
X153692914Y-93314285D02*
X153597676Y-93266666D01*
X153597676Y-93266666D02*
X153502438Y-93171428D01*
X153502438Y-93171428D02*
X153454819Y-93028571D01*
X153454819Y-93028571D02*
X153454819Y-92933333D01*
X153454819Y-92933333D02*
X153502438Y-92790476D01*
X153502438Y-92790476D02*
X153550057Y-92742857D01*
X154454819Y-91790476D02*
X154454819Y-92361904D01*
X154454819Y-92076190D02*
X153454819Y-92076190D01*
X153454819Y-92076190D02*
X153597676Y-92171428D01*
X153597676Y-92171428D02*
X153692914Y-92266666D01*
X153692914Y-92266666D02*
X153740533Y-92361904D01*
X154454819Y-90838095D02*
X154454819Y-91409523D01*
X154454819Y-91123809D02*
X153454819Y-91123809D01*
X153454819Y-91123809D02*
X153597676Y-91219047D01*
X153597676Y-91219047D02*
X153692914Y-91314285D01*
X153692914Y-91314285D02*
X153740533Y-91409523D01*
X171166666Y-116479819D02*
X171166666Y-117194104D01*
X171166666Y-117194104D02*
X171119047Y-117336961D01*
X171119047Y-117336961D02*
X171023809Y-117432200D01*
X171023809Y-117432200D02*
X170880952Y-117479819D01*
X170880952Y-117479819D02*
X170785714Y-117479819D01*
X172071428Y-116813152D02*
X172071428Y-117479819D01*
X171833333Y-116432200D02*
X171595238Y-117146485D01*
X171595238Y-117146485D02*
X172214285Y-117146485D01*
X151544819Y-123133333D02*
X152259104Y-123133333D01*
X152259104Y-123133333D02*
X152401961Y-123180952D01*
X152401961Y-123180952D02*
X152497200Y-123276190D01*
X152497200Y-123276190D02*
X152544819Y-123419047D01*
X152544819Y-123419047D02*
X152544819Y-123514285D01*
X151973390Y-122514285D02*
X151925771Y-122609523D01*
X151925771Y-122609523D02*
X151878152Y-122657142D01*
X151878152Y-122657142D02*
X151782914Y-122704761D01*
X151782914Y-122704761D02*
X151735295Y-122704761D01*
X151735295Y-122704761D02*
X151640057Y-122657142D01*
X151640057Y-122657142D02*
X151592438Y-122609523D01*
X151592438Y-122609523D02*
X151544819Y-122514285D01*
X151544819Y-122514285D02*
X151544819Y-122323809D01*
X151544819Y-122323809D02*
X151592438Y-122228571D01*
X151592438Y-122228571D02*
X151640057Y-122180952D01*
X151640057Y-122180952D02*
X151735295Y-122133333D01*
X151735295Y-122133333D02*
X151782914Y-122133333D01*
X151782914Y-122133333D02*
X151878152Y-122180952D01*
X151878152Y-122180952D02*
X151925771Y-122228571D01*
X151925771Y-122228571D02*
X151973390Y-122323809D01*
X151973390Y-122323809D02*
X151973390Y-122514285D01*
X151973390Y-122514285D02*
X152021009Y-122609523D01*
X152021009Y-122609523D02*
X152068628Y-122657142D01*
X152068628Y-122657142D02*
X152163866Y-122704761D01*
X152163866Y-122704761D02*
X152354342Y-122704761D01*
X152354342Y-122704761D02*
X152449580Y-122657142D01*
X152449580Y-122657142D02*
X152497200Y-122609523D01*
X152497200Y-122609523D02*
X152544819Y-122514285D01*
X152544819Y-122514285D02*
X152544819Y-122323809D01*
X152544819Y-122323809D02*
X152497200Y-122228571D01*
X152497200Y-122228571D02*
X152449580Y-122180952D01*
X152449580Y-122180952D02*
X152354342Y-122133333D01*
X152354342Y-122133333D02*
X152163866Y-122133333D01*
X152163866Y-122133333D02*
X152068628Y-122180952D01*
X152068628Y-122180952D02*
X152021009Y-122228571D01*
X152021009Y-122228571D02*
X151973390Y-122323809D01*
X150692761Y-78873057D02*
X150597523Y-78825438D01*
X150597523Y-78825438D02*
X150502285Y-78730200D01*
X150502285Y-78730200D02*
X150359428Y-78587342D01*
X150359428Y-78587342D02*
X150264190Y-78539723D01*
X150264190Y-78539723D02*
X150168952Y-78539723D01*
X150216571Y-78777819D02*
X150121333Y-78730200D01*
X150121333Y-78730200D02*
X150026095Y-78634961D01*
X150026095Y-78634961D02*
X149978476Y-78444485D01*
X149978476Y-78444485D02*
X149978476Y-78111152D01*
X149978476Y-78111152D02*
X150026095Y-77920676D01*
X150026095Y-77920676D02*
X150121333Y-77825438D01*
X150121333Y-77825438D02*
X150216571Y-77777819D01*
X150216571Y-77777819D02*
X150407047Y-77777819D01*
X150407047Y-77777819D02*
X150502285Y-77825438D01*
X150502285Y-77825438D02*
X150597523Y-77920676D01*
X150597523Y-77920676D02*
X150645142Y-78111152D01*
X150645142Y-78111152D02*
X150645142Y-78444485D01*
X150645142Y-78444485D02*
X150597523Y-78634961D01*
X150597523Y-78634961D02*
X150502285Y-78730200D01*
X150502285Y-78730200D02*
X150407047Y-78777819D01*
X150407047Y-78777819D02*
X150216571Y-78777819D01*
X151502285Y-77777819D02*
X151311809Y-77777819D01*
X151311809Y-77777819D02*
X151216571Y-77825438D01*
X151216571Y-77825438D02*
X151168952Y-77873057D01*
X151168952Y-77873057D02*
X151073714Y-78015914D01*
X151073714Y-78015914D02*
X151026095Y-78206390D01*
X151026095Y-78206390D02*
X151026095Y-78587342D01*
X151026095Y-78587342D02*
X151073714Y-78682580D01*
X151073714Y-78682580D02*
X151121333Y-78730200D01*
X151121333Y-78730200D02*
X151216571Y-78777819D01*
X151216571Y-78777819D02*
X151407047Y-78777819D01*
X151407047Y-78777819D02*
X151502285Y-78730200D01*
X151502285Y-78730200D02*
X151549904Y-78682580D01*
X151549904Y-78682580D02*
X151597523Y-78587342D01*
X151597523Y-78587342D02*
X151597523Y-78349247D01*
X151597523Y-78349247D02*
X151549904Y-78254009D01*
X151549904Y-78254009D02*
X151502285Y-78206390D01*
X151502285Y-78206390D02*
X151407047Y-78158771D01*
X151407047Y-78158771D02*
X151216571Y-78158771D01*
X151216571Y-78158771D02*
X151121333Y-78206390D01*
X151121333Y-78206390D02*
X151073714Y-78254009D01*
X151073714Y-78254009D02*
X151026095Y-78349247D01*
X157289580Y-87805357D02*
X157337200Y-87852976D01*
X157337200Y-87852976D02*
X157384819Y-87995833D01*
X157384819Y-87995833D02*
X157384819Y-88091071D01*
X157384819Y-88091071D02*
X157337200Y-88233928D01*
X157337200Y-88233928D02*
X157241961Y-88329166D01*
X157241961Y-88329166D02*
X157146723Y-88376785D01*
X157146723Y-88376785D02*
X156956247Y-88424404D01*
X156956247Y-88424404D02*
X156813390Y-88424404D01*
X156813390Y-88424404D02*
X156622914Y-88376785D01*
X156622914Y-88376785D02*
X156527676Y-88329166D01*
X156527676Y-88329166D02*
X156432438Y-88233928D01*
X156432438Y-88233928D02*
X156384819Y-88091071D01*
X156384819Y-88091071D02*
X156384819Y-87995833D01*
X156384819Y-87995833D02*
X156432438Y-87852976D01*
X156432438Y-87852976D02*
X156480057Y-87805357D01*
X157384819Y-86852976D02*
X157384819Y-87424404D01*
X157384819Y-87138690D02*
X156384819Y-87138690D01*
X156384819Y-87138690D02*
X156527676Y-87233928D01*
X156527676Y-87233928D02*
X156622914Y-87329166D01*
X156622914Y-87329166D02*
X156670533Y-87424404D01*
X156384819Y-86519642D02*
X156384819Y-85852976D01*
X156384819Y-85852976D02*
X157384819Y-86281547D01*
X151559580Y-92742857D02*
X151607200Y-92790476D01*
X151607200Y-92790476D02*
X151654819Y-92933333D01*
X151654819Y-92933333D02*
X151654819Y-93028571D01*
X151654819Y-93028571D02*
X151607200Y-93171428D01*
X151607200Y-93171428D02*
X151511961Y-93266666D01*
X151511961Y-93266666D02*
X151416723Y-93314285D01*
X151416723Y-93314285D02*
X151226247Y-93361904D01*
X151226247Y-93361904D02*
X151083390Y-93361904D01*
X151083390Y-93361904D02*
X150892914Y-93314285D01*
X150892914Y-93314285D02*
X150797676Y-93266666D01*
X150797676Y-93266666D02*
X150702438Y-93171428D01*
X150702438Y-93171428D02*
X150654819Y-93028571D01*
X150654819Y-93028571D02*
X150654819Y-92933333D01*
X150654819Y-92933333D02*
X150702438Y-92790476D01*
X150702438Y-92790476D02*
X150750057Y-92742857D01*
X151654819Y-91790476D02*
X151654819Y-92361904D01*
X151654819Y-92076190D02*
X150654819Y-92076190D01*
X150654819Y-92076190D02*
X150797676Y-92171428D01*
X150797676Y-92171428D02*
X150892914Y-92266666D01*
X150892914Y-92266666D02*
X150940533Y-92361904D01*
X150750057Y-91409523D02*
X150702438Y-91361904D01*
X150702438Y-91361904D02*
X150654819Y-91266666D01*
X150654819Y-91266666D02*
X150654819Y-91028571D01*
X150654819Y-91028571D02*
X150702438Y-90933333D01*
X150702438Y-90933333D02*
X150750057Y-90885714D01*
X150750057Y-90885714D02*
X150845295Y-90838095D01*
X150845295Y-90838095D02*
X150940533Y-90838095D01*
X150940533Y-90838095D02*
X151083390Y-90885714D01*
X151083390Y-90885714D02*
X151654819Y-91457142D01*
X151654819Y-91457142D02*
X151654819Y-90838095D01*
X164657142Y-87229580D02*
X164609523Y-87277200D01*
X164609523Y-87277200D02*
X164466666Y-87324819D01*
X164466666Y-87324819D02*
X164371428Y-87324819D01*
X164371428Y-87324819D02*
X164228571Y-87277200D01*
X164228571Y-87277200D02*
X164133333Y-87181961D01*
X164133333Y-87181961D02*
X164085714Y-87086723D01*
X164085714Y-87086723D02*
X164038095Y-86896247D01*
X164038095Y-86896247D02*
X164038095Y-86753390D01*
X164038095Y-86753390D02*
X164085714Y-86562914D01*
X164085714Y-86562914D02*
X164133333Y-86467676D01*
X164133333Y-86467676D02*
X164228571Y-86372438D01*
X164228571Y-86372438D02*
X164371428Y-86324819D01*
X164371428Y-86324819D02*
X164466666Y-86324819D01*
X164466666Y-86324819D02*
X164609523Y-86372438D01*
X164609523Y-86372438D02*
X164657142Y-86420057D01*
X165038095Y-86420057D02*
X165085714Y-86372438D01*
X165085714Y-86372438D02*
X165180952Y-86324819D01*
X165180952Y-86324819D02*
X165419047Y-86324819D01*
X165419047Y-86324819D02*
X165514285Y-86372438D01*
X165514285Y-86372438D02*
X165561904Y-86420057D01*
X165561904Y-86420057D02*
X165609523Y-86515295D01*
X165609523Y-86515295D02*
X165609523Y-86610533D01*
X165609523Y-86610533D02*
X165561904Y-86753390D01*
X165561904Y-86753390D02*
X164990476Y-87324819D01*
X164990476Y-87324819D02*
X165609523Y-87324819D01*
X165942857Y-86324819D02*
X166561904Y-86324819D01*
X166561904Y-86324819D02*
X166228571Y-86705771D01*
X166228571Y-86705771D02*
X166371428Y-86705771D01*
X166371428Y-86705771D02*
X166466666Y-86753390D01*
X166466666Y-86753390D02*
X166514285Y-86801009D01*
X166514285Y-86801009D02*
X166561904Y-86896247D01*
X166561904Y-86896247D02*
X166561904Y-87134342D01*
X166561904Y-87134342D02*
X166514285Y-87229580D01*
X166514285Y-87229580D02*
X166466666Y-87277200D01*
X166466666Y-87277200D02*
X166371428Y-87324819D01*
X166371428Y-87324819D02*
X166085714Y-87324819D01*
X166085714Y-87324819D02*
X165990476Y-87277200D01*
X165990476Y-87277200D02*
X165942857Y-87229580D01*
X178154819Y-95838094D02*
X177154819Y-95838094D01*
X177154819Y-95838094D02*
X177154819Y-95599999D01*
X177154819Y-95599999D02*
X177202438Y-95457142D01*
X177202438Y-95457142D02*
X177297676Y-95361904D01*
X177297676Y-95361904D02*
X177392914Y-95314285D01*
X177392914Y-95314285D02*
X177583390Y-95266666D01*
X177583390Y-95266666D02*
X177726247Y-95266666D01*
X177726247Y-95266666D02*
X177916723Y-95314285D01*
X177916723Y-95314285D02*
X178011961Y-95361904D01*
X178011961Y-95361904D02*
X178107200Y-95457142D01*
X178107200Y-95457142D02*
X178154819Y-95599999D01*
X178154819Y-95599999D02*
X178154819Y-95838094D01*
X177488152Y-94409523D02*
X178154819Y-94409523D01*
X177107200Y-94647618D02*
X177821485Y-94885713D01*
X177821485Y-94885713D02*
X177821485Y-94266666D01*
D11*
%TO.C,C25*%
X131140000Y-75715835D02*
X131140000Y-75484165D01*
X131860000Y-75715835D02*
X131860000Y-75484165D01*
%TO.C,Q2*%
X172690000Y-97687500D02*
X172690000Y-97037500D01*
X172690000Y-97687500D02*
X172690000Y-98337500D01*
X175810000Y-97687500D02*
X175810000Y-97037500D01*
X175810000Y-97687500D02*
X175810000Y-98337500D01*
X172740000Y-98850000D02*
X172410000Y-99090000D01*
X172410000Y-98610000D01*
X172740000Y-98850000D01*
G36*
X172740000Y-98850000D02*
G01*
X172410000Y-99090000D01*
X172410000Y-98610000D01*
X172740000Y-98850000D01*
G37*
%TO.C,U5*%
X158840000Y-94190000D02*
X158840000Y-94640000D01*
X158840000Y-97410000D02*
X158840000Y-96960000D01*
X159290000Y-94190000D02*
X158840000Y-94190000D01*
X159290000Y-97410000D02*
X158840000Y-97410000D01*
X161610000Y-94190000D02*
X162060000Y-94190000D01*
X161610000Y-97410000D02*
X161760000Y-97410000D01*
X162060000Y-94190000D02*
X162060000Y-94640000D01*
X162060000Y-96960000D02*
X162060000Y-97170000D01*
X162300000Y-97740000D02*
X161820000Y-97740000D01*
X162060000Y-97410000D01*
X162300000Y-97740000D01*
G36*
X162300000Y-97740000D02*
G01*
X161820000Y-97740000D01*
X162060000Y-97410000D01*
X162300000Y-97740000D01*
G37*
%TO.C,UCC27325DR2*%
X147100000Y-85140000D02*
X145150000Y-85140000D01*
X147100000Y-85140000D02*
X149050000Y-85140000D01*
X147100000Y-90260000D02*
X145150000Y-90260000D01*
X147100000Y-90260000D02*
X149050000Y-90260000D01*
X144400000Y-85235000D02*
X144160000Y-84905000D01*
X144640000Y-84905000D01*
X144400000Y-85235000D01*
G36*
X144400000Y-85235000D02*
G01*
X144160000Y-84905000D01*
X144640000Y-84905000D01*
X144400000Y-85235000D01*
G37*
%TO.C,C20*%
X163253733Y-83390000D02*
X163546267Y-83390000D01*
X163253733Y-84410000D02*
X163546267Y-84410000D01*
%TO.C,L4*%
X125790000Y-79675000D02*
X125790000Y-75675000D01*
X130010000Y-75675000D02*
X130010000Y-79675000D01*
%TO.C,Q4*%
X137440000Y-81000000D02*
X137440000Y-80350000D01*
X137440000Y-81000000D02*
X137440000Y-81650000D01*
X140560000Y-81000000D02*
X140560000Y-80350000D01*
X140560000Y-81000000D02*
X140560000Y-81650000D01*
X137490000Y-82162500D02*
X137160000Y-82402500D01*
X137160000Y-81922500D01*
X137490000Y-82162500D01*
G36*
X137490000Y-82162500D02*
G01*
X137160000Y-82402500D01*
X137160000Y-81922500D01*
X137490000Y-82162500D01*
G37*
%TO.C,R12*%
X179977500Y-100145276D02*
X179977500Y-100654724D01*
X181022500Y-100145276D02*
X181022500Y-100654724D01*
%TO.C,R15*%
X136254724Y-83377500D02*
X135745276Y-83377500D01*
X136254724Y-84422500D02*
X135745276Y-84422500D01*
%TO.C,C13*%
X149015835Y-92740000D02*
X148784165Y-92740000D01*
X149015835Y-93460000D02*
X148784165Y-93460000D01*
%TO.C,C36*%
X163540000Y-94284165D02*
X163540000Y-94515835D01*
X164260000Y-94284165D02*
X164260000Y-94515835D01*
%TO.C,Q5*%
X144440000Y-81000000D02*
X144440000Y-80350000D01*
X144440000Y-81000000D02*
X144440000Y-81650000D01*
X147560000Y-81000000D02*
X147560000Y-80350000D01*
X147560000Y-81000000D02*
X147560000Y-81650000D01*
X144490000Y-82162500D02*
X144160000Y-82402500D01*
X144160000Y-81922500D01*
X144490000Y-82162500D01*
G36*
X144490000Y-82162500D02*
G01*
X144160000Y-82402500D01*
X144160000Y-81922500D01*
X144490000Y-82162500D01*
G37*
%TO.C,R18*%
X148054724Y-83377500D02*
X147545276Y-83377500D01*
X148054724Y-84422500D02*
X147545276Y-84422500D01*
%TO.C,C16*%
X153090000Y-87253733D02*
X153090000Y-87546267D01*
X154110000Y-87253733D02*
X154110000Y-87546267D01*
%TO.C,J5*%
X180370000Y-78870000D02*
X181700000Y-78870000D01*
X180370000Y-80200000D02*
X180370000Y-78870000D01*
X180370000Y-81470000D02*
X180370000Y-91690000D01*
X180370000Y-81470000D02*
X183030000Y-81470000D01*
X180370000Y-91690000D02*
X183030000Y-91690000D01*
X183030000Y-81470000D02*
X183030000Y-91690000D01*
%TO.C,C27*%
X153215835Y-104840000D02*
X152984165Y-104840000D01*
X153215835Y-105560000D02*
X152984165Y-105560000D01*
%TO.C,C28*%
X150120000Y-74900000D02*
G75*
G02*
X144880000Y-74900000I-2620000J0D01*
G01*
X144880000Y-74900000D02*
G75*
G02*
X150120000Y-74900000I2620000J0D01*
G01*
%TO.C,D1*%
X133530000Y-115280000D02*
X133530000Y-120720000D01*
X133530000Y-120720000D02*
X136470000Y-120720000D01*
X135000000Y-114260000D02*
X135000000Y-115280000D01*
X135000000Y-121740000D02*
X135000000Y-120720000D01*
X136470000Y-115280000D02*
X133530000Y-115280000D01*
X136470000Y-116060000D02*
X133530000Y-116060000D01*
X136470000Y-116180000D02*
X133530000Y-116180000D01*
X136470000Y-116300000D02*
X133530000Y-116300000D01*
X136470000Y-120720000D02*
X136470000Y-115280000D01*
%TO.C,C40*%
X141140000Y-103384165D02*
X141140000Y-103615835D01*
X141860000Y-103384165D02*
X141860000Y-103615835D01*
%TO.C,C38*%
X161440000Y-99215835D02*
X161440000Y-98984165D01*
X162160000Y-99215835D02*
X162160000Y-98984165D01*
%TO.C,C32*%
X139220000Y-75100000D02*
G75*
G02*
X133980000Y-75100000I-2620000J0D01*
G01*
X133980000Y-75100000D02*
G75*
G02*
X139220000Y-75100000I2620000J0D01*
G01*
%TO.C,R17*%
X156454724Y-91477500D02*
X155945276Y-91477500D01*
X156454724Y-92522500D02*
X155945276Y-92522500D01*
%TO.C,UCC27325DR1*%
X137000000Y-85440000D02*
X135050000Y-85440000D01*
X137000000Y-85440000D02*
X138950000Y-85440000D01*
X137000000Y-90560000D02*
X135050000Y-90560000D01*
X137000000Y-90560000D02*
X138950000Y-90560000D01*
X134300000Y-85535000D02*
X134060000Y-85205000D01*
X134540000Y-85205000D01*
X134300000Y-85535000D01*
G36*
X134300000Y-85535000D02*
G01*
X134060000Y-85205000D01*
X134540000Y-85205000D01*
X134300000Y-85535000D01*
G37*
%TO.C,C39*%
X162840000Y-96915835D02*
X162840000Y-96684165D01*
X163560000Y-96915835D02*
X163560000Y-96684165D01*
%TO.C,C9*%
X138153733Y-91490000D02*
X138446267Y-91490000D01*
X138153733Y-92510000D02*
X138446267Y-92510000D01*
%TO.C,C31*%
X152540000Y-95484165D02*
X152540000Y-95715835D01*
X153260000Y-95484165D02*
X153260000Y-95715835D01*
%TO.C,L2*%
X154890000Y-79200000D02*
X154890000Y-75200000D01*
X159110000Y-75200000D02*
X159110000Y-79200000D01*
%TO.C,U1*%
X144490000Y-96390000D02*
X144940000Y-96390000D01*
X144490000Y-96840000D02*
X144490000Y-96390000D01*
X144490000Y-103160000D02*
X144490000Y-103610000D01*
X144490000Y-103610000D02*
X144940000Y-103610000D01*
X151710000Y-96390000D02*
X151260000Y-96390000D01*
X151710000Y-96840000D02*
X151710000Y-96390000D01*
X151710000Y-103160000D02*
X151710000Y-103610000D01*
X151710000Y-103610000D02*
X151260000Y-103610000D01*
X151730000Y-96140000D02*
X151260000Y-95800000D01*
X151730000Y-95460000D01*
X151730000Y-96140000D01*
G36*
X151730000Y-96140000D02*
G01*
X151260000Y-95800000D01*
X151730000Y-95460000D01*
X151730000Y-96140000D01*
G37*
%TO.C,C10*%
X143746267Y-91490000D02*
X143453733Y-91490000D01*
X143746267Y-92510000D02*
X143453733Y-92510000D01*
%TO.C,R14*%
X179677500Y-95545276D02*
X179677500Y-96054724D01*
X180722500Y-95545276D02*
X180722500Y-96054724D01*
%TO.C,C30*%
X140840000Y-100615835D02*
X140840000Y-100384165D01*
X141560000Y-100615835D02*
X141560000Y-100384165D01*
%TO.C,BU33SD5WG-TR3*%
X159940000Y-87000000D02*
X159940000Y-86200000D01*
X159940000Y-87000000D02*
X159940000Y-87800000D01*
X163060000Y-87000000D02*
X163060000Y-86200000D01*
X163060000Y-87000000D02*
X163060000Y-87800000D01*
X163340000Y-85940000D02*
X163010000Y-85700000D01*
X163340000Y-85460000D01*
X163340000Y-85940000D01*
G36*
X163340000Y-85940000D02*
G01*
X163010000Y-85700000D01*
X163340000Y-85460000D01*
X163340000Y-85940000D01*
G37*
%TO.C,L3*%
X159539733Y-82842000D02*
X159882267Y-82842000D01*
X159539733Y-83862000D02*
X159882267Y-83862000D01*
%TO.C,J3*%
X133750000Y-65450000D02*
X133750000Y-66700000D01*
X134040000Y-65740000D02*
X134040000Y-71710000D01*
X134040000Y-71710000D02*
X141660000Y-71710000D01*
X134050000Y-65750000D02*
X134050000Y-66500000D01*
X134050000Y-66500000D02*
X135850000Y-66500000D01*
X134050000Y-68000000D02*
X134800000Y-68000000D01*
X134800000Y-68000000D02*
X134800000Y-70950000D01*
X134800000Y-70950000D02*
X137850000Y-70950000D01*
X135000000Y-65450000D02*
X133750000Y-65450000D01*
X135850000Y-65750000D02*
X134050000Y-65750000D01*
X135850000Y-66500000D02*
X135850000Y-65750000D01*
X137350000Y-65750000D02*
X137350000Y-66500000D01*
X137350000Y-66500000D02*
X138350000Y-66500000D01*
X138350000Y-65750000D02*
X137350000Y-65750000D01*
X138350000Y-66500000D02*
X138350000Y-65750000D01*
X139850000Y-65750000D02*
X139850000Y-66500000D01*
X139850000Y-66500000D02*
X141650000Y-66500000D01*
X140900000Y-68000000D02*
X140900000Y-70950000D01*
X140900000Y-70950000D02*
X137850000Y-70950000D01*
X141650000Y-65750000D02*
X139850000Y-65750000D01*
X141650000Y-66500000D02*
X141650000Y-65750000D01*
X141650000Y-68000000D02*
X140900000Y-68000000D01*
X141660000Y-65740000D02*
X134040000Y-65740000D01*
X141660000Y-71710000D02*
X141660000Y-65740000D01*
%TO.C,R16*%
X141577500Y-83754724D02*
X141577500Y-83245276D01*
X142622500Y-83754724D02*
X142622500Y-83245276D01*
%TO.C,C41*%
X139690000Y-103753733D02*
X139690000Y-104046267D01*
X140710000Y-103753733D02*
X140710000Y-104046267D01*
%TO.C,C29*%
X137753733Y-98990000D02*
X138046267Y-98990000D01*
X137753733Y-100010000D02*
X138046267Y-100010000D01*
%TO.C,C37*%
X157340000Y-94415835D02*
X157340000Y-94184165D01*
X158060000Y-94415835D02*
X158060000Y-94184165D01*
%TO.C,C24*%
X153140000Y-75448335D02*
X153140000Y-75216665D01*
X153860000Y-75448335D02*
X153860000Y-75216665D01*
%TO.C,Q3*%
X132440000Y-81000000D02*
X132440000Y-80350000D01*
X132440000Y-81000000D02*
X132440000Y-81650000D01*
X135560000Y-81000000D02*
X135560000Y-80350000D01*
X135560000Y-81000000D02*
X135560000Y-81650000D01*
X132490000Y-82162500D02*
X132160000Y-82402500D01*
X132160000Y-81922500D01*
X132490000Y-82162500D01*
G36*
X132490000Y-82162500D02*
G01*
X132160000Y-82402500D01*
X132160000Y-81922500D01*
X132490000Y-82162500D01*
G37*
%TO.C,J9*%
X158595000Y-104485000D02*
X158660000Y-104485000D01*
X158595000Y-108015000D02*
X158595000Y-104485000D01*
X158595000Y-108015000D02*
X158660000Y-108015000D01*
X158660000Y-109340000D02*
X158660000Y-108015000D01*
X167540000Y-104485000D02*
X167605000Y-104485000D01*
X167540000Y-108015000D02*
X167605000Y-108015000D01*
X167605000Y-108015000D02*
X167605000Y-104485000D01*
%TO.C,C26*%
X143240000Y-104915835D02*
X143240000Y-104684165D01*
X143960000Y-104915835D02*
X143960000Y-104684165D01*
%TO.C,D3*%
X141560000Y-114700000D02*
X142580000Y-114700000D01*
X142580000Y-113230000D02*
X142580000Y-116170000D01*
X142580000Y-116170000D02*
X148020000Y-116170000D01*
X147000000Y-116170000D02*
X147000000Y-113230000D01*
X147120000Y-116170000D02*
X147120000Y-113230000D01*
X147240000Y-116170000D02*
X147240000Y-113230000D01*
X148020000Y-113230000D02*
X142580000Y-113230000D01*
X148020000Y-116170000D02*
X148020000Y-113230000D01*
X149040000Y-114700000D02*
X148020000Y-114700000D01*
%TO.C,J6*%
X124970000Y-84510000D02*
X126300000Y-84510000D01*
X124970000Y-85840000D02*
X124970000Y-84510000D01*
X124970000Y-87110000D02*
X124970000Y-110030000D01*
X124970000Y-87110000D02*
X127630000Y-87110000D01*
X124970000Y-110030000D02*
X127630000Y-110030000D01*
X127630000Y-87110000D02*
X127630000Y-110030000D01*
%TO.C,J2*%
X144650000Y-65250000D02*
X144650000Y-66500000D01*
X144940000Y-65540000D02*
X144940000Y-71510000D01*
X144940000Y-71510000D02*
X152560000Y-71510000D01*
X144950000Y-65550000D02*
X144950000Y-66300000D01*
X144950000Y-66300000D02*
X146750000Y-66300000D01*
X144950000Y-67800000D02*
X145700000Y-67800000D01*
X145700000Y-67800000D02*
X145700000Y-70750000D01*
X145700000Y-70750000D02*
X148750000Y-70750000D01*
X145900000Y-65250000D02*
X144650000Y-65250000D01*
X146750000Y-65550000D02*
X144950000Y-65550000D01*
X146750000Y-66300000D02*
X146750000Y-65550000D01*
X148250000Y-65550000D02*
X148250000Y-66300000D01*
X148250000Y-66300000D02*
X149250000Y-66300000D01*
X149250000Y-65550000D02*
X148250000Y-65550000D01*
X149250000Y-66300000D02*
X149250000Y-65550000D01*
X150750000Y-65550000D02*
X150750000Y-66300000D01*
X150750000Y-66300000D02*
X152550000Y-66300000D01*
X151800000Y-67800000D02*
X151800000Y-70750000D01*
X151800000Y-70750000D02*
X148750000Y-70750000D01*
X152550000Y-65550000D02*
X150750000Y-65550000D01*
X152550000Y-66300000D02*
X152550000Y-65550000D01*
X152550000Y-67800000D02*
X151800000Y-67800000D01*
X152560000Y-65540000D02*
X144940000Y-65540000D01*
X152560000Y-71510000D02*
X152560000Y-65540000D01*
%TO.C,R19*%
X155154724Y-81477500D02*
X154645276Y-81477500D01*
X155154724Y-82522500D02*
X154645276Y-82522500D01*
%TO.C,C11*%
X152090000Y-91953733D02*
X152090000Y-92246267D01*
X153110000Y-91953733D02*
X153110000Y-92246267D01*
%TO.C,J4*%
X167400000Y-117625000D02*
X167400000Y-118875000D01*
X167690000Y-117915000D02*
X167690000Y-123885000D01*
X167690000Y-123885000D02*
X175310000Y-123885000D01*
X167700000Y-117925000D02*
X167700000Y-118675000D01*
X167700000Y-118675000D02*
X169500000Y-118675000D01*
X167700000Y-120175000D02*
X168450000Y-120175000D01*
X168450000Y-120175000D02*
X168450000Y-123125000D01*
X168450000Y-123125000D02*
X171500000Y-123125000D01*
X168650000Y-117625000D02*
X167400000Y-117625000D01*
X169500000Y-117925000D02*
X167700000Y-117925000D01*
X169500000Y-118675000D02*
X169500000Y-117925000D01*
X171000000Y-117925000D02*
X171000000Y-118675000D01*
X171000000Y-118675000D02*
X172000000Y-118675000D01*
X172000000Y-117925000D02*
X171000000Y-117925000D01*
X172000000Y-118675000D02*
X172000000Y-117925000D01*
X173500000Y-117925000D02*
X173500000Y-118675000D01*
X173500000Y-118675000D02*
X175300000Y-118675000D01*
X174550000Y-120175000D02*
X174550000Y-123125000D01*
X174550000Y-123125000D02*
X171500000Y-123125000D01*
X175300000Y-117925000D02*
X173500000Y-117925000D01*
X175300000Y-118675000D02*
X175300000Y-117925000D01*
X175300000Y-120175000D02*
X174550000Y-120175000D01*
X175310000Y-117915000D02*
X167690000Y-117915000D01*
X175310000Y-123885000D02*
X175310000Y-117915000D01*
%TO.C,J8*%
X153090000Y-124130000D02*
X153090000Y-122800000D01*
X154420000Y-124130000D02*
X153090000Y-124130000D01*
X155690000Y-121470000D02*
X165910000Y-121470000D01*
X155690000Y-124130000D02*
X155690000Y-121470000D01*
X155690000Y-124130000D02*
X165910000Y-124130000D01*
X165910000Y-124130000D02*
X165910000Y-121470000D01*
%TO.C,Q6*%
X149640000Y-81000000D02*
X149640000Y-80350000D01*
X149640000Y-81000000D02*
X149640000Y-81650000D01*
X152760000Y-81000000D02*
X152760000Y-80350000D01*
X152760000Y-81000000D02*
X152760000Y-81650000D01*
X149690000Y-82162500D02*
X149360000Y-82402500D01*
X149360000Y-81922500D01*
X149690000Y-82162500D01*
G36*
X149690000Y-82162500D02*
G01*
X149360000Y-82402500D01*
X149360000Y-81922500D01*
X149690000Y-82162500D01*
G37*
%TO.C,C17*%
X154990000Y-87016233D02*
X154990000Y-87308767D01*
X156010000Y-87016233D02*
X156010000Y-87308767D01*
%TO.C,C12*%
X148846267Y-91390000D02*
X148553733Y-91390000D01*
X148846267Y-92410000D02*
X148553733Y-92410000D01*
%TO.C,C23*%
X165153733Y-87790000D02*
X165446267Y-87790000D01*
X165153733Y-88810000D02*
X165446267Y-88810000D01*
%TO.C,D4*%
X176750000Y-96140000D02*
X176750000Y-100150000D01*
X178750000Y-96140000D02*
X176750000Y-96140000D01*
X178750000Y-96140000D02*
X178750000Y-100150000D01*
%TD*%
M02*
